<svg xmlns="http://www.w3.org/2000/svg" viewBox="0 0 500 500"><g id="freepik--Furniture--inject-84"><g id="freepik--Drawer--inject-84"><g id="freepik--drawer--inject-84"><polygon points="424.07 358.82 428.02 378.4 431.86 380.62 435.66 378.42 439.64 358.82 431.86 354.32 424.07 358.82" style="fill:#e0e0e0"></polygon><polygon points="424.07 358.82 428.02 378.4 431.86 380.62 435.66 378.42 439.64 358.82 431.86 354.32 424.07 358.82" style="opacity:0.05"></polygon><polygon points="431.86 380.62 431.86 363.31 424.07 358.82 428.02 378.4 431.86 380.62" style="fill:#ebebeb"></polygon><polygon points="424.07 358.82 426.62 371.46 431.86 374.49 437.07 371.48 439.64 358.82 431.86 354.32 424.07 358.82" style="opacity:0.05"></polygon><polygon points="458.3 339.06 462.25 358.64 466.09 360.85 469.89 358.66 473.87 339.06 466.09 334.56 458.3 339.06" style="fill:#e0e0e0"></polygon><polygon points="458.3 339.06 462.25 358.64 466.09 360.85 469.89 358.66 473.87 339.06 466.09 334.56 458.3 339.06" style="opacity:0.05"></polygon><polygon points="466.09 360.85 466.09 343.55 458.3 339.06 462.25 358.64 466.09 360.85" style="fill:#ebebeb"></polygon><polygon points="458.3 339.06 460.85 351.7 466.09 354.73 471.3 351.71 473.87 339.06 466.09 334.56 458.3 339.06" style="opacity:0.05"></polygon><polygon points="336.58 308.3 340.52 327.88 344.36 330.1 348.16 327.9 352.14 308.3 344.36 303.81 336.58 308.3" style="opacity:0.05"></polygon><polygon points="344.36 330.1 344.36 312.79 336.58 308.3 340.52 327.88 344.36 330.1" style="fill:#ebebeb"></polygon><polygon points="336.58 308.3 339.13 320.95 344.36 323.97 349.57 320.96 352.14 308.3 344.36 303.81 336.58 308.3" style="opacity:0.05"></polygon><g id="freepik--Cabinet--inject-84"><g id="freepik--cabinet--inject-84"><polygon points="431.86 371.33 474.28 346.84 474.28 255.03 431.86 279.52 431.86 371.33" style="fill:#e0e0e0"></polygon><polygon points="431.86 279.52 334.37 223.23 334.37 315.04 431.86 371.33 431.86 279.52" style="fill:#ebebeb"></polygon><polygon points="334.37 223.23 431.86 279.52 474.28 255.03 376.79 198.74 334.37 223.23" style="fill:#f5f5f5"></polygon><polygon points="425.8 325 340.43 275.71 340.43 309.4 339.32 310.05 424.69 359.33 425.8 358.69 425.8 325" style="fill:#e0e0e0"></polygon><polygon points="424.69 325.64 339.32 276.35 339.32 310.05 424.69 359.33 424.69 325.64" style="fill:#f5f5f5"></polygon><path d="M385,309.76,376.73,305c-1.07-.62-1.94-.34-1.94.63a3.87,3.87,0,0,0,1.94,2.86l8.25,4.76c1.07.62,1.93.34,1.93-.63A3.87,3.87,0,0,0,385,309.76Z" style="fill:#e0e0e0"></path><polygon points="425.8 284.31 340.43 235.03 340.43 268.72 339.32 269.36 424.69 318.65 425.8 318.01 425.8 284.31" style="fill:#e0e0e0"></polygon><polygon points="424.69 284.96 339.32 235.67 339.32 269.36 424.69 318.65 424.69 284.96" style="fill:#f5f5f5"></polygon><path d="M385,269.07l-8.25-4.76c-1.07-.62-1.94-.33-1.94.63a3.88,3.88,0,0,0,1.94,2.87l8.25,4.76c1.07.62,1.94.34,1.93-.63A3.87,3.87,0,0,0,385,269.07Z" style="fill:#e0e0e0"></path></g></g></g><g id="freepik--Books--inject-84"><polygon points="413.4 258.54 431.5 268.98 461.29 251.78 443.2 241.34 413.4 258.54" style="fill:#e0e0e0"></polygon><path d="M431.7,268.19l-17.45-10.14a7.37,7.37,0,0,0-.11-4.56l17.34,10A17.84,17.84,0,0,1,431.7,268.19Z" style="fill:#fff"></path><path d="M430.59,262.1a3.73,3.73,0,0,1,1.68,2.91v3.4c0,1.07-.75,1.5-1.67,1l-17.2-10v-.84l17,9.8c.56.32,1,.06,1-.58l0-3.15a2.23,2.23,0,0,0-1-1.75l-16.95-9.8v-.95Z" style="fill:#f0f0f0"></path><path d="M413.39,252.11l29.8-17.21,17.2,10a3.76,3.76,0,0,1,1.68,2.92v3.39a1.19,1.19,0,0,1-.49,1.09l-29.8,17.2a1.17,1.17,0,0,0,.49-1.08V265a3.73,3.73,0,0,0-1.68-2.91Z" style="fill:#fafafa"></path><path d="M431.78,263.35a3.49,3.49,0,0,1,.49,1.66v3.4a1.17,1.17,0,0,1-.49,1.08l29.8-17.2a1.19,1.19,0,0,0,.49-1.09v-3.39a3.4,3.4,0,0,0-.5-1.66Z" style="fill:#e0e0e0"></path><polygon points="413.38 250.01 431.47 260.45 461.27 243.25 443.18 232.81 413.38 250.01" style="fill:#ebebeb"></polygon><path d="M431.68,259.66l-17.46-10.13a7.32,7.32,0,0,0-.1-4.57l17.34,10A17.84,17.84,0,0,1,431.68,259.66Z" style="fill:#fff"></path><path d="M430.57,253.57a3.74,3.74,0,0,1,1.68,2.91v3.4c0,1.07-.75,1.5-1.67,1l-17.2-10V250l17,9.8c.56.32,1,.06,1-.58l0-3.15a2.23,2.23,0,0,0-1-1.75l-16.95-9.8v-.95Z" style="fill:#f0f0f0"></path><path d="M413.37,243.58l29.8-17.21,17.19,10a3.77,3.77,0,0,1,1.69,2.92v3.4a1.17,1.17,0,0,1-.49,1.08L431.77,261a1.2,1.2,0,0,0,.49-1.09v-3.4a3.73,3.73,0,0,0-1.68-2.91Z" style="fill:#fafafa"></path><path d="M431.76,254.82a3.49,3.49,0,0,1,.49,1.66v3.4a1.2,1.2,0,0,1-.49,1.09l29.8-17.21a1.17,1.17,0,0,0,.49-1.08v-3.4a3.4,3.4,0,0,0-.5-1.66Z" style="fill:#f0f0f0"></path></g></g></g><g id="freepik--Device--inject-84"><g id="freepik--Monitor--inject-84"><path d="M199.06,406.57l45.47-26.29c4.68-2.71,7-6.25,7-9.8s0-6.32,0-6.32l-42.79-24.29a10,10,0,0,1-4.52-7.84V276l-79.42,45.89v56.05a10,10,0,0,0,4.53,7.84l35.73,20.81C174.49,412,189.69,412,199.06,406.57Z" style="fill:#f5f5f5"></path><path d="M143.92,387.85v6.3l-14.56-8.39a10,10,0,0,1-4.52-7.84V321.87L140,313.14c.32,3.84.66,7.82,1,11.68L130.33,331v43.8a10,10,0,0,0,4.52,7.84Z" style="opacity:0.15"></path><path d="M130.33,374.77a10,10,0,0,0,4.52,7.84l30.26,17.64c9.37,5.41,24.57,5.41,33.95,0L244.54,374c9.38-5.41,9.38-14.18,0-19.59l-30.28-17.65a10,10,0,0,1-4.53-7.84v-43.8L130.33,331Z" style="fill:#e6e6e6"></path><path d="M223.49,342.05h0l-9.22-5.32a10,10,0,0,1-4.53-7.84v-43.8L130.33,331v43.8a10,10,0,0,0,4.52,7.84l9.06,5.23Z" style="opacity:0.15"></path><path d="M35.73,409.33c2.93,1.69,7.84,1.6,11-.2L308,258.28a12.48,12.48,0,0,0,5.66-9.79V29.69c0-3.6-2.38-7.9-5.31-9.59s-7.84-1.6-11,.2L36.08,171.15a12.51,12.51,0,0,0-5.66,9.8V399.74C30.42,403.34,32.8,407.64,35.73,409.33Z" style="fill:#455a64"></path><path d="M46.69,409.12,308,258.28a12.5,12.5,0,0,0,5.66-9.8V29.69c0-3.61-2.53-5.07-5.66-3.27L46.7,177.27a12.49,12.49,0,0,0-5.66,9.8V405.86C41,409.46,43.57,410.93,46.69,409.12Z" style="fill:#37474f"></path><path d="M41,386.61v19.25c0,3.6,2.53,5.07,5.65,3.26L308,258.28a12.5,12.5,0,0,0,5.66-9.8V229.23Z" style="fill:#ebebeb"></path><path d="M48.51,368.71V189.59a7.7,7.7,0,0,1,3.48-6L302.66,38.84c1.92-1.11,3.48-.21,3.48,2V220a7.66,7.66,0,0,1-3.48,6L52,370.72C50.07,371.82,48.51,370.93,48.51,368.71Z" style="fill:#C65370"></path><g style="opacity:0.30000000000000004"><path d="M48.51,368.71V189.59a7.7,7.7,0,0,1,3.48-6L302.66,38.84c1.92-1.11,3.48-.21,3.48,2V220a7.66,7.66,0,0,1-3.48,6L52,370.72C50.07,371.82,48.51,370.93,48.51,368.71Z"></path></g><path d="M32.09,175.36l10.61,6.11A11.94,11.94,0,0,0,41,187.06v218.8c0,3.29,2.22,5.13,5.65,3.27a12,12,0,0,1-11,.2,10.89,10.89,0,0,1-5.31-8.91V181A11.65,11.65,0,0,1,32.09,175.36Z" style="fill:#263238"></path><path d="M172.38,321.52l12.79-7.34c1.15-.66,2.08-.19,2.08,1.05a4.43,4.43,0,0,1-2.08,3.44L172.38,326c-1.15.66-2.08.19-2.08-1A4.47,4.47,0,0,1,172.38,321.52Z" style="fill:#C65370"></path></g></g><g id="freepik--Windows--inject-84"><g id="freepik--Window--inject-84"><g id="freepik--window--inject-84"><path d="M54.43,209.92A5.52,5.52,0,0,1,52,205.56V191.48A5.68,5.68,0,0,1,54.59,187L302.83,43.66a4.82,4.82,0,0,1,7.38,4.27V62a5.68,5.68,0,0,1-2.57,4.45L59.41,209.83A5.5,5.5,0,0,1,54.43,209.92Z" style="fill:#C65370"></path><path d="M310.19,47.51c-.18-1.33-1.26-1.82-2.54-1.07L59.41,189.81a5.61,5.61,0,0,0-1.82,1.92l-4.82-2.79A5.49,5.49,0,0,1,54.59,187L302.84,43.67a4.79,4.79,0,0,1,7.35,3.84Z" style="fill:#fff;opacity:0.2"></path><path d="M57.59,191.73a5.27,5.27,0,0,0-.75,2.53V202L52,199.23v-7.75c0-.11,0-.2,0-.31a4.28,4.28,0,0,1,.1-.64,6,6,0,0,1,.64-1.59Z" style="opacity:0.15"></path><path d="M310.21,47.93v7.75L136.51,156l-72.6,41.92L56.84,202v-7.76a5.68,5.68,0,0,1,2.57-4.45L307.65,46.44C309.06,45.62,310.21,46.29,310.21,47.93Z" style="fill:#C65370"></path><path d="M303.18,52.8c.92-.53,1.66-.1,1.66,1a3.67,3.67,0,0,1-1.66,2.87c-.91.53-1.65.1-1.65-1A3.67,3.67,0,0,1,303.18,52.8Z" style="fill:#fff"></path><path d="M297.21,56.24c.92-.53,1.66-.1,1.66,1a3.67,3.67,0,0,1-1.66,2.88c-.92.52-1.66.1-1.66-1A3.67,3.67,0,0,1,297.21,56.24Z" style="fill:#fff"></path><path d="M291.23,59.69c.92-.53,1.66-.1,1.66,1a3.67,3.67,0,0,1-1.66,2.87c-.91.53-1.66.1-1.66-1A3.68,3.68,0,0,1,291.23,59.69Z" style="fill:#fff"></path><path d="M59.41,370.24a4.61,4.61,0,0,1-2,.61,5.1,5.1,0,0,1-3-.52A5.46,5.46,0,0,1,52,366l0-166.75L56.84,202V368.75c0,1.16.59,1.84,1.43,1.84A2.58,2.58,0,0,0,59.41,370.24Z" style="fill:#e0e0e0"></path><path d="M310.22,222.42a5.65,5.65,0,0,1-2.57,4.45L59.41,370.24c-1.42.82-2.57.15-2.57-1.49V202l7.07-4.08L136.51,156,310.22,55.68V222.42Z" style="fill:#fafafa"></path><path d="M309.2,57.45v165a4.69,4.69,0,0,1-2.06,3.57L58.9,369.35a1.31,1.31,0,0,1-.64.22c-.35,0-.4-.51-.4-.82V202.61l6.57-3.79L137,156.91,309.2,57.45m1-1.77L136.51,156l-72.6,41.92L56.84,202V368.75c0,1.16.58,1.84,1.42,1.84a2.4,2.4,0,0,0,1.15-.35L307.65,226.87a5.65,5.65,0,0,0,2.57-4.45V55.68Z" style="fill:#ebebeb"></path></g></g><g id="freepik--Box--inject-84"><path id="freepik--shadow--inject-84" d="M126.18,176.46,68.23,209.92a3.06,3.06,0,0,0-1.39,2.4V336.8c0,.89.62,1.24,1.39.8l58-33.46a3.06,3.06,0,0,0,1.38-2.39V177.26C127.56,176.38,126.94,176,126.18,176.46Z" style="opacity:0.1"></path><g id="freepik--box--inject-84"><path d="M131.49,180.51,73.53,214a3.06,3.06,0,0,0-1.38,2.39V340.85a3,3,0,0,0,1.39,2.38l2.64,1.5a3.17,3.17,0,0,0,2.77,0l58-33.46a3.07,3.07,0,0,0,1.38-2.4V184.37A3,3,0,0,0,136.9,182l-2.64-1.5A3.1,3.1,0,0,0,131.49,180.51Z" style="fill:#C65370"></path><path d="M79,344.72a3.17,3.17,0,0,1-2.77,0l-2.64-1.5a3,3,0,0,1-1.39-2.38V216.36a2.83,2.83,0,0,1,.44-1.41L78,218.07a2.71,2.71,0,0,0-.41,1.36V343.91C77.57,344.72,78.14,345.19,79,344.72Z" style="fill:#fff;opacity:0.5"></path><path d="M138.27,184.12c-.11-.69-.67-.94-1.37-.55L79,217a2.89,2.89,0,0,0-1,1L72.58,215a2.74,2.74,0,0,1,1-1l58-33.46a3.12,3.12,0,0,1,2.78,0l2.63,1.5A3,3,0,0,1,138.27,184.12Z" style="fill:#fff;opacity:0.9"></path><path d="M136.91,183.57,79,217a3.09,3.09,0,0,0-1.38,2.4V343.92c0,.88.62,1.24,1.38.8l58-33.46a3.07,3.07,0,0,0,1.38-2.4V184.37C138.29,183.49,137.67,183.13,136.91,183.57Z" style="fill:#fff;opacity:0.7000000000000001"></path></g><path d="M85.5,227.73a1.4,1.4,0,0,1-.68-.17,1.8,1.8,0,0,1-.77-1.66,5.39,5.39,0,0,1,2.44-4.22h0a1.58,1.58,0,0,1,2.58,1.49,5.39,5.39,0,0,1-2.44,4.22A2.25,2.25,0,0,1,85.5,227.73Zm1.13-5.8h0a5.08,5.08,0,0,0-2.29,4,1.3,1.3,0,0,0,2.15,1.24,5.08,5.08,0,0,0,2.29-4,1.52,1.52,0,0,0-.62-1.4A1.5,1.5,0,0,0,86.63,221.93Z" style="fill:#C65370"></path><path d="M86.56,223.15c.66-.38,1.2-.07,1.2.69a2.67,2.67,0,0,1-1.2,2.08c-.66.38-1.2.07-1.2-.69A2.67,2.67,0,0,1,86.56,223.15Z" style="fill:#C65370"></path><path d="M94.39,218.07,130.88,197c.74-.42,1.33-.08,1.33.77v.82a2.91,2.91,0,0,1-1.33,2.29L94.39,222c-.73.42-1.33.08-1.33-.76v-.83A2.93,2.93,0,0,1,94.39,218.07Z" style="fill:#fff"></path><path d="M85.5,239.23a1.3,1.3,0,0,1-.68-.18,1.8,1.8,0,0,1-.77-1.66,5.39,5.39,0,0,1,2.44-4.22h0a1.58,1.58,0,0,1,2.58,1.49,5.37,5.37,0,0,1-2.44,4.22A2.27,2.27,0,0,1,85.5,239.23Zm1.06-5.93.07.12a5.08,5.08,0,0,0-2.29,4,1.3,1.3,0,0,0,2.15,1.24,5.08,5.08,0,0,0,2.29-4,1.3,1.3,0,0,0-2.15-1.24Z" style="fill:#C65370"></path><path d="M94.39,229.56l36.49-21.07c.74-.42,1.33-.08,1.33.77v.82a2.91,2.91,0,0,1-1.33,2.29L94.39,233.44c-.73.42-1.33.08-1.33-.76v-.82A2.94,2.94,0,0,1,94.39,229.56Z" style="fill:#C65370;opacity:0.2"></path><path d="M85.5,250.72a1.3,1.3,0,0,1-.68-.18,1.79,1.79,0,0,1-.77-1.66,5.39,5.39,0,0,1,2.44-4.22h0a1.58,1.58,0,0,1,2.58,1.49,5.37,5.37,0,0,1-2.44,4.22A2.27,2.27,0,0,1,85.5,250.72Zm1.13-5.81h0a5.08,5.08,0,0,0-2.29,4,1.3,1.3,0,0,0,2.15,1.24,5.08,5.08,0,0,0,2.29-4,1.52,1.52,0,0,0-.62-1.4A1.55,1.55,0,0,0,86.63,244.91Z" style="fill:#C65370"></path><path d="M86.56,246.14c.66-.38,1.2-.08,1.2.69a2.65,2.65,0,0,1-1.2,2.07c-.66.38-1.2.07-1.2-.69A2.65,2.65,0,0,1,86.56,246.14Z" style="fill:#C65370"></path><path d="M94.39,241.05,130.88,220c.74-.42,1.33-.08,1.33.77v.82a2.91,2.91,0,0,1-1.33,2.29L94.39,244.93c-.73.42-1.33.08-1.33-.76v-.82A3,3,0,0,1,94.39,241.05Z" style="fill:#fff"></path><path d="M85.5,262.21a1.3,1.3,0,0,1-.68-.18,1.78,1.78,0,0,1-.77-1.66,5.39,5.39,0,0,1,2.44-4.22h0a1.58,1.58,0,0,1,2.58,1.49,5.36,5.36,0,0,1-2.44,4.22A2.27,2.27,0,0,1,85.5,262.21Zm1.13-5.8a5.08,5.08,0,0,0-2.29,4,1.3,1.3,0,0,0,2.15,1.24,5.08,5.08,0,0,0,2.29-4,1.3,1.3,0,0,0-2.15-1.23Z" style="fill:#C65370"></path><path d="M86.56,257.63c.66-.38,1.2-.07,1.2.69a2.65,2.65,0,0,1-1.2,2.07c-.66.38-1.2.07-1.2-.69A2.65,2.65,0,0,1,86.56,257.63Z" style="fill:#C65370"></path><path d="M94.39,252.55l36.49-21.07c.74-.43,1.33-.08,1.33.76v.82a2.89,2.89,0,0,1-1.33,2.29L94.39,256.42c-.73.43-1.33.08-1.33-.76v-.82A2.92,2.92,0,0,1,94.39,252.55Z" style="fill:#fff"></path><path d="M85.5,273.7a1.3,1.3,0,0,1-.68-.18,1.77,1.77,0,0,1-.77-1.65,5.37,5.37,0,0,1,2.44-4.22h0a1.58,1.58,0,0,1,2.58,1.49,5.39,5.39,0,0,1-2.44,4.22A2.36,2.36,0,0,1,85.5,273.7Zm1.13-5.8a5.08,5.08,0,0,0-2.29,4,1.3,1.3,0,0,0,2.15,1.23,5.08,5.08,0,0,0,2.29-4,1.3,1.3,0,0,0-2.15-1.24Z" style="fill:#C65370"></path><path d="M94.39,264,130.88,243c.74-.43,1.33-.08,1.33.76v.82a2.92,2.92,0,0,1-1.33,2.3L94.39,267.92c-.73.42-1.33.08-1.33-.77v-.82A2.93,2.93,0,0,1,94.39,264Z" style="fill:#C65370;opacity:0.2"></path><path d="M85.5,285.19a1.3,1.3,0,0,1-.68-.18,1.77,1.77,0,0,1-.77-1.65,5.37,5.37,0,0,1,2.44-4.22h0a1.58,1.58,0,0,1,2.58,1.49,5.39,5.39,0,0,1-2.44,4.22A2.25,2.25,0,0,1,85.5,285.19Zm1.13-5.8a5.08,5.08,0,0,0-2.29,4,1.52,1.52,0,0,0,.62,1.4,1.55,1.55,0,0,0,1.53-.16,5.08,5.08,0,0,0,2.29-4,1.3,1.3,0,0,0-2.15-1.24Z" style="fill:#C65370"></path><path d="M86.56,280.61c.66-.38,1.2-.07,1.2.69a2.65,2.65,0,0,1-1.2,2.07c-.66.38-1.2.08-1.2-.69A2.65,2.65,0,0,1,86.56,280.61Z" style="fill:#C65370"></path><path d="M94.39,275.53l36.49-21.07c.74-.42,1.33-.08,1.33.76V256a2.91,2.91,0,0,1-1.33,2.3L94.39,279.41c-.73.42-1.33.08-1.33-.77v-.82A2.93,2.93,0,0,1,94.39,275.53Z" style="fill:#fff"></path><path d="M85.5,296.68a1.3,1.3,0,0,1-.68-.18,1.77,1.77,0,0,1-.77-1.65,5.37,5.37,0,0,1,2.44-4.22,1.58,1.58,0,0,1,2.58,1.49,5.39,5.39,0,0,1-2.44,4.22A2.25,2.25,0,0,1,85.5,296.68Zm2.11-6.1a2,2,0,0,0-1,.3h0a5.08,5.08,0,0,0-2.29,4,1.3,1.3,0,0,0,2.15,1.24,5.08,5.08,0,0,0,2.29-4,1.54,1.54,0,0,0-.62-1.41A1.12,1.12,0,0,0,87.61,290.58Z" style="fill:#C65370"></path><path d="M94.39,287,130.88,266c.74-.42,1.33-.08,1.33.76v.83a2.91,2.91,0,0,1-1.33,2.29L94.39,290.9c-.73.42-1.33.08-1.33-.77v-.82A2.93,2.93,0,0,1,94.39,287Z" style="fill:#C65370;opacity:0.2"></path><path d="M85.5,308.17a1.4,1.4,0,0,1-.68-.17,1.8,1.8,0,0,1-.77-1.66,5.39,5.39,0,0,1,2.44-4.22h0a1.58,1.58,0,0,1,2.58,1.49,5.39,5.39,0,0,1-2.44,4.22A2.25,2.25,0,0,1,85.5,308.17Zm1.13-5.8a5.08,5.08,0,0,0-2.29,4,1.51,1.51,0,0,0,.62,1.4,1.53,1.53,0,0,0,1.53-.16,5.08,5.08,0,0,0,2.29-4,1.3,1.3,0,0,0-2.15-1.24Z" style="fill:#C65370"></path><path d="M94.39,298.51l36.49-21.07c.74-.42,1.33-.08,1.33.77V279a2.91,2.91,0,0,1-1.33,2.29L94.39,302.39c-.73.42-1.33.08-1.33-.76v-.83A2.93,2.93,0,0,1,94.39,298.51Z" style="fill:#C65370;opacity:0.2"></path><path d="M85.5,319.67a1.3,1.3,0,0,1-.68-.18,1.8,1.8,0,0,1-.77-1.66,5.39,5.39,0,0,1,2.44-4.22h0a1.58,1.58,0,0,1,2.58,1.49,5.37,5.37,0,0,1-2.44,4.22A2.27,2.27,0,0,1,85.5,319.67Zm1.13-5.81a5.08,5.08,0,0,0-2.29,4,1.53,1.53,0,0,0,.62,1.41,1.56,1.56,0,0,0,1.53-.17,5.08,5.08,0,0,0,2.29-4,1.3,1.3,0,0,0-2.15-1.24Z" style="fill:#C65370"></path><path d="M94.39,310l36.49-21.07c.74-.42,1.33-.08,1.33.77v.82a2.91,2.91,0,0,1-1.33,2.29L94.39,313.88c-.73.42-1.33.08-1.33-.76v-.82A2.94,2.94,0,0,1,94.39,310Z" style="fill:#C65370;opacity:0.2"></path><path d="M85.5,331.16a1.3,1.3,0,0,1-.68-.18,1.79,1.79,0,0,1-.77-1.66,5.39,5.39,0,0,1,2.44-4.22h0a1.58,1.58,0,0,1,2.58,1.49,5.37,5.37,0,0,1-2.44,4.22A2.27,2.27,0,0,1,85.5,331.16Zm1.13-5.81a5.08,5.08,0,0,0-2.29,4,1.3,1.3,0,0,0,2.15,1.24,5.08,5.08,0,0,0,2.29-4,1.52,1.52,0,0,0-.62-1.4,1.55,1.55,0,0,0-1.53.16Z" style="fill:#C65370"></path><path d="M86.56,326.58c.66-.38,1.2-.08,1.2.69a2.65,2.65,0,0,1-1.2,2.07c-.66.38-1.2.07-1.2-.69A2.65,2.65,0,0,1,86.56,326.58Z" style="fill:#C65370"></path><path d="M94.39,321.49l36.49-21.07c.74-.42,1.33-.08,1.33.77V302a2.91,2.91,0,0,1-1.33,2.29L94.39,325.37c-.73.43-1.33.08-1.33-.76v-.82A3,3,0,0,1,94.39,321.49Z" style="fill:#fff"></path></g><g id="freepik--box--inject-84"><path id="freepik--shadow--inject-84" d="M283.46,85.66,151,162.12a3.06,3.06,0,0,0-1.39,2.4V289c0,.89.62,1.24,1.39.8l132.44-76.45a3.06,3.06,0,0,0,1.38-2.4V86.46C284.84,85.58,284.23,85.22,283.46,85.66Z" style="opacity:0.1"></path><g id="freepik--box--inject-84"><g id="freepik--box--inject-84"><path d="M288.77,89.71,156.33,166.17a3,3,0,0,0-1.39,2.39V293.05a3,3,0,0,0,1.39,2.38l2.64,1.5a3.17,3.17,0,0,0,2.77,0l132.45-76.46a3.07,3.07,0,0,0,1.38-2.4V93.58a3,3,0,0,0-1.39-2.39l-2.63-1.49A3.09,3.09,0,0,0,288.77,89.71Z" style="fill:#C65370"></path><path d="M161.74,296.92a3.17,3.17,0,0,1-2.77,0l-2.64-1.5a3,3,0,0,1-1.39-2.38V168.56a2.83,2.83,0,0,1,.44-1.41l5.39,3.12a2.71,2.71,0,0,0-.41,1.36V296.11C160.36,296.92,160.93,297.39,161.74,296.92Z" style="fill:#fff;opacity:0.5"></path><path d="M295.55,93.32c-.1-.69-.67-.94-1.36-.55L161.75,169.23a2.89,2.89,0,0,0-1,1l-5.4-3.12a2.82,2.82,0,0,1,1-1L288.77,89.71a3.09,3.09,0,0,1,2.78,0l2.63,1.49A3,3,0,0,1,295.55,93.32Z" style="fill:#fff;opacity:0.9"></path><path d="M294.19,92.78,161.74,169.23a3.09,3.09,0,0,0-1.38,2.4V296.12c0,.88.62,1.24,1.38.8l132.45-76.46a3.07,3.07,0,0,0,1.38-2.4V93.58C295.57,92.69,295,92.34,294.19,92.78Z" style="fill:#fff;opacity:0.7000000000000001"></path></g></g><path d="M172.74,175.54,222.14,147c1.22-.7,2.2-.13,2.2,1.27v37.93a4.85,4.85,0,0,1-2.2,3.82l-49.4,28.52c-1.22.71-2.21.14-2.21-1.27V179.36A4.89,4.89,0,0,1,172.74,175.54Z" style="fill:#C65370;opacity:0.2"></path><path d="M233.94,190.72l49.41-28.52c1.22-.7,2.2-.13,2.2,1.27V211a4.85,4.85,0,0,1-2.2,3.82L234,243.3c-1.22.7-2.21.13-2.21-1.28V194.55A4.91,4.91,0,0,1,233.94,190.72Z" style="fill:#C65370;opacity:0.2"></path><path d="M202.46,208.9l19.68-11.36c1.22-.7,2.2-.13,2.2,1.28v18.81a4.85,4.85,0,0,1-2.2,3.82l-19.68,11.36c-1.22.7-2.21.13-2.21-1.28V212.72A4.86,4.86,0,0,1,202.46,208.9Z" style="fill:#C65370;opacity:0.2"></path><path d="M202.46,237.58l19.68-11.36c1.22-.7,2.2-.13,2.2,1.27v18.82a4.85,4.85,0,0,1-2.2,3.82l-19.68,11.36c-1.22.7-2.21.13-2.21-1.28V241.4A4.86,4.86,0,0,1,202.46,237.58Z" style="fill:#C65370;opacity:0.2"></path></g><g id="freepik--box--inject-84"><path id="freepik--shadow--inject-84" d="M197.24,245.8l-25.33,14.65a3.09,3.09,0,0,0-1.38,2.4v19.5h0c0,.88.62,1.24,1.38.8l25.33-14.66a3.07,3.07,0,0,0,1.38-2.4v-19.5C198.62,245.71,198,245.35,197.24,245.8Z" style="opacity:0.1"></path><g id="freepik--box--inject-84"><g id="freepik--box--inject-84"><path d="M202.55,249.84,177.22,264.5a3.06,3.06,0,0,0-1.38,2.4v19.5a3,3,0,0,0,1.39,2.38l2.64,1.49a3.14,3.14,0,0,0,2.77,0L208,275.6a3.06,3.06,0,0,0,1.38-2.4V253.71a3,3,0,0,0-1.39-2.39l-2.64-1.49A3.07,3.07,0,0,0,202.55,249.84Z" style="fill:#e0e0e0"></path><path d="M209.33,253.46c-.11-.7-.67-1-1.36-.55l-25.33,14.66a2.84,2.84,0,0,0-1,1l-5.4-3.12a2.79,2.79,0,0,1,.95-1l25.33-14.66a3.09,3.09,0,0,1,2.78,0l2.63,1.49A3,3,0,0,1,209.33,253.46Z" style="fill:#fafafa"></path><path d="M208,252.91l-25.33,14.66a3.06,3.06,0,0,0-1.38,2.39v19.5c0,.88.62,1.24,1.38.8L208,275.6a3.06,3.06,0,0,0,1.38-2.4V253.71C209.35,252.82,208.73,252.47,208,252.91Z" style="fill:#fafafa"></path><path d="M208.33,253.87V273.2a2.06,2.06,0,0,1-.87,1.52l-25.18,14.57V270a2,2,0,0,1,.87-1.51l25.18-14.58m.26-1.15a1.23,1.23,0,0,0-.62.19l-25.33,14.66a3.06,3.06,0,0,0-1.38,2.39v19.5c0,.63.31,1,.76,1a1.23,1.23,0,0,0,.62-.19L208,275.6a3.06,3.06,0,0,0,1.38-2.4V253.71c0-.63-.31-1-.76-1Z" style="fill:#ebebeb"></path></g></g><path d="M206.11,257v16.22a.85.85,0,0,1-.35.61L184.5,286.14V269.92a.86.86,0,0,1,.35-.62L206.11,257m.15-.57a.46.46,0,0,0-.26.08l-21.39,12.35a1.3,1.3,0,0,0-.59,1v16.36c0,.27.13.43.33.43a.56.56,0,0,0,.26-.08L206,274.28a1.3,1.3,0,0,0,.59-1V256.88c0-.27-.13-.42-.33-.42Z" style="fill:#C65370"></path><path d="M199.33,268.83l5.41,2v2.06l-18.87,10.88v-4.89l5.22-9.52,4.59,2.63-1.49,3.83a.48.48,0,0,0,.25.61.46.46,0,0,0,.2,0,.49.49,0,0,0,.42-.24l4.27-7.39m-.22-.59L194.64,276l1.63-4.22-5.37-3.08-5.51,10.06v5.85l19.83-11.45v-2.67l-6.11-2.23Z" style="fill:#C65370"></path><path d="M201.65,263h0c.29,0,.33.35.33.56a2.74,2.74,0,0,1-1.22,2.11.77.77,0,0,1-.41.14.24.24,0,0,1-.21-.09.78.78,0,0,1-.12-.47,2.75,2.75,0,0,1,1.22-2.12.85.85,0,0,1,.41-.13m0-.49a1.42,1.42,0,0,0-.65.2,3.23,3.23,0,0,0-1.46,2.54c0,.66.33,1,.81,1a1.25,1.25,0,0,0,.65-.2,3.23,3.23,0,0,0,1.46-2.53c0-.66-.33-1.05-.81-1.05Z" style="fill:#C65370"></path></g><g id="freepik--box--inject-84"><path id="freepik--shadow--inject-84" d="M197.24,212.37,171.91,227a3.06,3.06,0,0,0-1.38,2.39v19.5h0c0,.88.62,1.24,1.38.8l25.33-14.66a3.06,3.06,0,0,0,1.38-2.4V213.17C198.62,212.28,198,211.93,197.24,212.37Z" style="opacity:0.1"></path><g id="freepik--box--inject-84"><g id="freepik--box--inject-84"><path d="M202.55,216.41l-25.33,14.66a3.07,3.07,0,0,0-1.38,2.4V253a3,3,0,0,0,1.39,2.38l2.64,1.49a3.14,3.14,0,0,0,2.77,0L208,242.17a3.06,3.06,0,0,0,1.38-2.39v-19.5A3,3,0,0,0,208,217.9l-2.64-1.5A3.1,3.1,0,0,0,202.55,216.41Z" style="fill:#e0e0e0"></path><path d="M209.33,220c-.11-.7-.67-.95-1.36-.55l-25.33,14.66a2.84,2.84,0,0,0-1,1l-5.4-3.11a2.74,2.74,0,0,1,.95-1l25.33-14.66a3.09,3.09,0,0,1,2.78,0l2.63,1.49A3,3,0,0,1,209.33,220Z" style="fill:#fafafa"></path><path d="M208,219.48l-25.33,14.66a3.06,3.06,0,0,0-1.38,2.4V256c0,.88.62,1.24,1.38.8L208,242.17a3.06,3.06,0,0,0,1.38-2.39v-19.5C209.35,219.4,208.73,219,208,219.48Z" style="fill:#fafafa"></path><path d="M208.33,220.45v19.33a2.06,2.06,0,0,1-.87,1.51l-25.18,14.57V236.54a2.06,2.06,0,0,1,.87-1.52l25.18-14.57m.26-1.16a1.23,1.23,0,0,0-.62.19l-25.33,14.66a3.06,3.06,0,0,0-1.38,2.4V256c0,.63.31,1,.76,1a1.23,1.23,0,0,0,.62-.19L208,242.17a3.06,3.06,0,0,0,1.38-2.39v-19.5c0-.63-.31-1-.76-1Z" style="fill:#ebebeb"></path></g></g><path d="M206.11,223.61v16.21a.89.89,0,0,1-.35.62L184.5,252.71V236.49a.82.82,0,0,1,.35-.61l21.26-12.27m.15-.58a.56.56,0,0,0-.26.08l-21.39,12.35a1.3,1.3,0,0,0-.59,1v16.37c0,.26.13.42.33.42a.56.56,0,0,0,.26-.08L206,240.85a1.3,1.3,0,0,0,.59-1V223.46c0-.27-.13-.43-.33-.43Z" style="fill:#C65370"></path><path d="M199.33,235.4l5.41,2v2.06l-18.87,10.89v-4.9l5.22-9.52,4.59,2.63-1.49,3.83a.48.48,0,0,0,.25.61.46.46,0,0,0,.2.05.49.49,0,0,0,.42-.24l4.27-7.39m-.22-.59-4.47,7.74,1.63-4.22-5.37-3.08-5.51,10.06v5.85l19.83-11.44V237l-6.11-2.23Z" style="fill:#C65370"></path><path d="M201.65,229.58h0c.29,0,.33.35.33.56a2.78,2.78,0,0,1-1.22,2.12.83.83,0,0,1-.41.13.24.24,0,0,1-.21-.09.76.76,0,0,1-.12-.47,2.76,2.76,0,0,1,1.22-2.12.85.85,0,0,1,.41-.13m0-.48a1.3,1.3,0,0,0-.65.2,3.21,3.21,0,0,0-1.46,2.53c0,.66.33,1,.81,1a1.25,1.25,0,0,0,.65-.2,3.21,3.21,0,0,0,1.46-2.53c0-.66-.33-1-.81-1Z" style="fill:#C65370"></path></g><g id="freepik--box--inject-84"><path id="freepik--shadow--inject-84" d="M329,83.25,238,135.83a3.06,3.06,0,0,0-1.39,2.4v74.31c0,.88.62,1.24,1.39.8L329,160.76a3.07,3.07,0,0,0,1.38-2.4V84.05C330.4,83.17,329.78,82.81,329,83.25Z" style="opacity:0.1"></path><g id="freepik--box--inject-84"><path d="M334.33,87.3l-91.07,52.58a3,3,0,0,0-1.39,2.4v74.3a3.05,3.05,0,0,0,1.39,2.39l2.64,1.49a3.16,3.16,0,0,0,2.78,0l91.07-52.58a3.07,3.07,0,0,0,1.38-2.4V91.16a3,3,0,0,0-1.39-2.38l-2.64-1.49A3.07,3.07,0,0,0,334.33,87.3Z" style="fill:#e0e0e0"></path><path d="M341.11,90.91c-.11-.69-.68-.94-1.37-.55l-91.06,52.58a3,3,0,0,0-1,1l-5.39-3.12a2.79,2.79,0,0,1,.95-1L334.33,87.3a3.1,3.1,0,0,1,2.77,0l2.64,1.5A3,3,0,0,1,341.11,90.91Z" style="fill:#fafafa"></path><path d="M339.75,90.37l-91.07,52.57a3.07,3.07,0,0,0-1.39,2.4v74.31c0,.88.62,1.24,1.39.8l91.07-52.58a3.07,3.07,0,0,0,1.38-2.4V91.16C341.13,90.28,340.51,89.92,339.75,90.37Z" style="fill:#fafafa"></path><path d="M340.11,91.33v74.14a2.06,2.06,0,0,1-.87,1.52l-90.93,52.49V145.34a2.06,2.06,0,0,1,.88-1.51l90.92-52.5m.25-1.15a1.22,1.22,0,0,0-.61.19l-91.07,52.57a3.07,3.07,0,0,0-1.39,2.4v74.31c0,.63.31,1,.77,1a1.29,1.29,0,0,0,.62-.19l91.07-52.58a3.07,3.07,0,0,0,1.38-2.4V91.16c0-.62-.31-1-.77-1Z" style="fill:#ebebeb"></path></g><path d="M334.81,100.38h0c.2,0,.21.5.21.56v60.64a3.89,3.89,0,0,1-1.7,2.94l-79.24,45.75a1,1,0,0,1-.47.16c-.2,0-.2-.5-.2-.56V149.23a3.9,3.9,0,0,1,1.69-2.94l79.24-45.74a1,1,0,0,1,.47-.17m0-1a2,2,0,0,0-1,.31l-79.24,45.74a4.91,4.91,0,0,0-2.2,3.82v60.64c0,1,.49,1.58,1.22,1.58a2,2,0,0,0,1-.3l79.24-45.75a4.86,4.86,0,0,0,2.21-3.82V100.94c0-1-.5-1.58-1.23-1.58Z" style="fill:#C65370"></path><path d="M308.78,144.25,329.92,152v8.61L258.5,201.83V182.17L278.28,146l18.26,10.46-5.73,14.81a1,1,0,0,0,.51,1.29,1,1,0,0,0,.44.1,1,1,0,0,0,.89-.51l16.13-27.94m-.46-1.25-16.56,28.68,6.05-15.63-19.92-11.41-20.41,37.27V203.6l73.46-42.41v-9.91L308.32,143Z" style="fill:#C65370"></path><path d="M317.74,122.86h0c1.84,0,2,2.18,2,2.85a11,11,0,0,1-4.91,8.5,4,4,0,0,1-1.91.6,1.68,1.68,0,0,1-1.37-.63,3.54,3.54,0,0,1-.61-2.22,11,11,0,0,1,4.91-8.5,4,4,0,0,1,1.91-.6m0-1a4.93,4.93,0,0,0-2.42.74A12,12,0,0,0,309.9,132c0,2.46,1.22,3.87,3,3.87a4.93,4.93,0,0,0,2.42-.74,12,12,0,0,0,5.42-9.38c0-2.45-1.22-3.87-3-3.87Z" style="fill:#C65370"></path></g></g><g id="freepik--Plants--inject-84"><g id="freepik--plants--inject-84"><g id="freepik--Pot--inject-84"><path d="M95.83,436.46c-8.54-9.25-13.55-29.18-5.22-36.52H133c8.32,7.33,3.31,27.25-5.22,36.51a2.73,2.73,0,0,1-.23.25l-.29.31c-.25.25-.5.49-.78.73l-.2.17-.64.52a11.89,11.89,0,0,1-1.11.74c-7,4.31-18.4,4.31-25.43,0h0a12,12,0,0,1-1.11-.75l-.6-.48-.25-.21c-.26-.23-.51-.47-.74-.7l-.34-.36Z" style="fill:#37474f"></path><path d="M129.29,397c9.67,5.93,9.67,15.54,0,21.47s-25.34,5.93-35,0-9.67-15.54,0-21.47S119.62,391.06,129.29,397Z" style="fill:#455a64"></path><path d="M124.64,399.83c7.1,4.36,7.1,11.41,0,15.77s-18.61,4.35-25.7,0-7.1-11.41,0-15.77S117.54,395.48,124.64,399.83Z" style="fill:#263238"></path><path d="M98.94,407.32c7.09-4.36,18.6-4.36,25.7,0a12,12,0,0,1,4.25,4.14,12.07,12.07,0,0,1-4.25,4.14c-7.1,4.35-18.61,4.35-25.7,0a12.1,12.1,0,0,1-4.26-4.14A12.1,12.1,0,0,1,98.94,407.32Z" style="fill:#37474f"></path></g><g id="freepik--plants--inject-84"><path d="M98.67,354.52l11.76,10.12-11.57-6a30.38,30.38,0,0,0,1.49,10.9,73.55,73.55,0,0,1,8.89,6.88l-8.9-4s-.93,5.7,1.1,14.62c.53,2.33,3,6.89,4.51,10.28a39.72,39.72,0,0,0,2.41,4.54l.17.28c2.14-1,4.35-2,6.65-2.89,1.62-2.85,3.9-10,4.91-15.91,3.82-22.63-13.47-36.88-27.69-42.22A41.44,41.44,0,0,1,98.67,354.52Z" style="fill:#C65370"></path><path d="M98.67,354.52l11.76,10.12-11.57-6a30.38,30.38,0,0,0,1.49,10.9,73.55,73.55,0,0,1,8.89,6.88l-8.9-4s-.93,5.7,1.1,14.62c.53,2.33,3,6.89,4.51,10.28a39.72,39.72,0,0,0,2.41,4.54l.17.28c2.14-1,4.35-2,6.65-2.89,1.62-2.85,3.9-10,4.91-15.91,3.82-22.63-13.47-36.88-27.69-42.22A41.44,41.44,0,0,1,98.67,354.52Z" style="fill:#fff;opacity:0.5"></path><path d="M108.87,356.15a22.38,22.38,0,0,1,4.62,9.09,45.52,45.52,0,0,1,1.66,10,40.93,40.93,0,0,1-3.65,19.63h0a.33.33,0,0,0,.17.44.36.36,0,0,0,.46-.16h0a41.43,41.43,0,0,0,3.36-19.92,45.28,45.28,0,0,0-1.83-10A22.5,22.5,0,0,0,108.87,356.15Z" style="fill:#fafafa"></path><path d="M151.12,363.6v0a192.16,192.16,0,0,0-12.84,18.95l-12.47,2.11,9.2,1.68-4.94,8.22-12.27,2.66,9.58,1.64s-2.66,9.82-9.52,13.91c-3.78,2.26-5.63,2.6-6.77,1.47-.79-.79-1-5.5-1.64-9.71a33.51,33.51,0,0,1,3.06-19.28,25.3,25.3,0,0,1,3.93-6.06C125.5,368.59,142.65,363.47,151.12,363.6Z" style="fill:#C65370"></path><path d="M151.12,363.6v0a192.16,192.16,0,0,0-12.84,18.95l-12.47,2.11,9.2,1.68-4.94,8.22-12.27,2.66,9.58,1.64s-2.66,9.82-9.52,13.91c-3.78,2.26-5.63,2.6-6.77,1.47-.79-.79-1-5.5-1.64-9.71a33.51,33.51,0,0,1,3.06-19.28,25.3,25.3,0,0,1,3.93-6.06C125.5,368.59,142.65,363.47,151.12,363.6Z" style="fill:#fff;opacity:0.25"></path><path d="M138.08,367.89a50.84,50.84,0,0,0-17.34,12.58,35.86,35.86,0,0,0-5.93,9.26,35.14,35.14,0,0,0-2.72,10.75,0,0,0,0,0,0,0s0,0,0,0A45.12,45.12,0,0,1,115.43,390a40.48,40.48,0,0,1,5.72-9.18,52.21,52.21,0,0,1,17-12.9,0,0,0,0,0,0,0A0,0,0,0,0,138.08,367.89Z" style="fill:#fafafa"></path><path d="M76.85,369h0a25.33,25.33,0,0,1,3.14.15,48.39,48.39,0,0,1,12,3.07c1.43.56,2.87,1.19,4.28,1.9.71.36,1.41.73,2.1,1.12a35.43,35.43,0,0,1,9.2,7.3,23.32,23.32,0,0,1,3.16,4.68l.34.65h0c.27.58.51,1.14.73,1.7a32.91,32.91,0,0,1,2.71,15.51c-.13,3.76-1.35,8.05-2,8.76a2.34,2.34,0,0,1-.31.24c-1,.68-2.64.29-5.68-1.5C100.41,409,98,400,98,400l8.45-1.51-10.84-2.27L91.22,389l8.1-1.55-11-1.78A172.32,172.32,0,0,0,76.87,369Z" style="fill:#C65370"></path><path d="M76.85,369h0a25.33,25.33,0,0,1,3.14.15,48.39,48.39,0,0,1,12,3.07c1.43.56,2.87,1.19,4.28,1.9.71.36,1.41.73,2.1,1.12a35.43,35.43,0,0,1,9.2,7.3,23.32,23.32,0,0,1,3.16,4.68l.34.65h0c.27.58.51,1.14.73,1.7a32.91,32.91,0,0,1,2.71,15.51c-.13,3.76-1.35,8.05-2,8.76a2.34,2.34,0,0,1-.31.24c-1,.68-2.64.29-5.68-1.5C100.41,409,98,400,98,400l8.45-1.51-10.84-2.27L91.22,389l8.1-1.55-11-1.78A172.32,172.32,0,0,0,76.87,369Z" style="fill:#fff;opacity:0.65"></path><path d="M80,369.16a48.39,48.39,0,0,1,12,3.07c1.43.56,2.87,1.19,4.28,1.9.71.36,1.41.73,2.1,1.12a35.43,35.43,0,0,1,9.2,7.3,23.32,23.32,0,0,1,3.16,4.68l.34.65h0c.27.58.51,1.14.73,1.7a32.91,32.91,0,0,1,2.71,15.51c-.13,3.76-1.35,8.05-2,8.76a2.34,2.34,0,0,1-.31.24,2,2,0,0,1-.67.26c.75-5.83-2-20.6-6.11-26.67-4.3-6.33-14.49-15.49-28.51-18.66h0A24.78,24.78,0,0,1,80,369.16Z" style="fill:#C65370;opacity:0.30000000000000004"></path><path d="M111.52,414.35a52.48,52.48,0,0,0-.79-12.88,43.31,43.31,0,0,0-4.07-12.22,35.68,35.68,0,0,0-8.24-9.66,45.5,45.5,0,0,0-10.57-6.65s0,0,0,0,0,0,0,0A60,60,0,0,1,98,380.15a44.87,44.87,0,0,1,4.47,4.36,28.26,28.26,0,0,1,3.73,5,42.39,42.39,0,0,1,4.21,12,51.93,51.93,0,0,1,1.06,12.81s0,0,0,0S111.52,414.37,111.52,414.35Z" style="fill:#fafafa"></path></g></g></g><g id="freepik--Character--inject-84"><g id="freepik--character--inject-84"><g id="freepik--Bottom--inject-84"><path d="M400.73,403.81c0,1.33.25,1.84-1.38,3s-5.16,1.76-7.84,1a7.23,7.23,0,0,1-4.33-2.61,34.83,34.83,0,0,1-2.52-3.8c-.47-.6-2.65-1.74-4.76-2.68s-6.47-3-8-6.55a8.56,8.56,0,0,1-.47-6.17Z" style="fill:#263238"></path><path d="M386.56,385.55c4.3,2.81,7.91,9.85,13.78,7.71.3,3.44,1.21,7.16.39,10.55-2.5,3.09-8,3.69-11.14,1.46-1.59-1.35-2.48-2.94-4-4.37a15.19,15.19,0,0,0-4.22-2.57,47.48,47.48,0,0,1-5.11-2.83C366.75,388.5,371.46,375.68,386.56,385.55Z" style="fill:#37474f"></path><path d="M371.42,423.9c0,1.44-.09,2.52-1,3.13s-7.47,1.69-9.22,1.9-2-.95-3.23-.54-4.09,2.5-8.38,3.45-7.81,2-13.77,0-6.54-4.27-6.46-6.29S371.42,423.9,371.42,423.9Z" style="fill:#263238"></path><path d="M370.56,410.45c1,4.13,2,10.31.86,13.45-1.2,1.19-5.22,1.89-8.73,2.36a27.23,27.23,0,0,0-9.29,2.89c-6.81,2.85-18.78,3.88-23.55-2.53-4.77-8.56,20-6.45,23.07-16.36C354,406.66,366.06,411.43,370.56,410.45Z" style="fill:#37474f"></path><path d="M402.13,354.26A34.18,34.18,0,0,0,400,342.44c0-36.39,0-58-1.06-80.78,0,0-48.51-5.15-49.72,11.63s-.89,64.35-.51,71.75c.18,7.49,3.92,61,3.92,66.33,12.27,6.09,18.34.86,18.34.86-.35-17.83,3.32-40.72,1.24-51.35l3.59-37.2s8.42,58.66,9.84,72.29c3.63,5.38,13.2,2.3,14.91-1C401.24,382.42,402.19,371.78,402.13,354.26Z" style="fill:#455a64"></path><path d="M375.75,323.68l2.58-22.05s8.39-3.25,13.77-10c-.21,4.66-5.64,9.38-10.51,11.86l-3.69,19L379.43,350Z" style="fill:#37474f"></path></g><g id="freepik--Top--inject-84"><path d="M341.11,146.65c1.67,2.77,3.78,4.75,3.95,6.34a93.86,93.86,0,0,0,1.55,10.32c1.38,4.93,18,30.26,18,30.26s31.13,12,35,15.23c5.78,4.92,7.16,11.54,2.95,21,0,0-3.07-1.1-13.16-5.61s-26.56-12.58-30.62-14.91c-3.31-1.9-5.29-2.55-8.06-8.21-3.4-6.94-9.62-21.19-9.62-21.19Z" style="fill:#b16668"></path><path d="M359,184.51l5.85,8.76s28,11.52,31.41,13.22c3.79,1.89,11.09,6.51,8.74,16.65s-3.12,12-3.12,12-5-6.57-16.49-11.74-24.77-12.82-29.31-15.38c-2.81-1.58-3.78-3-5.86-7.54-2.15-4.69-4.25-9.59-4.25-9.59S354.26,182.64,359,184.51Z" style="fill:#263238"></path><path d="M342.26,151.75l-1.15-3v1.48A10.78,10.78,0,0,0,342.26,151.75Z" style="fill:#9a4a4d"></path><path d="M342.26,151.75a23.68,23.68,0,0,1-3.06-4.55c-.83-1.8-1.94-.89-2.13.38s0,2.27,1.29,5.7c.87,2.25,2.43,4.43,2.75,8.16Z" style="fill:#b16668"></path><polygon points="367.82 202.01 368.13 210.61 384.62 209.31 383.82 194.98 367.82 202.01" style="fill:#b16668"></polygon><path d="M358.68,182.53s-4.7,6.28-4.25,6.95,3.59,1.44,3.59,1.44Z" style="fill:#9a4a4d"></path><path d="M369.78,168.12c-7.58,1.13-11.67,3.4-11.54,15.28,0,3-1.13,5.12-1.19,8.55-.13,6.56,1.28,9.11,2.44,10.46,1,1.19,7,1.26,10.15.6,3.94-.84,13-2.9,17.48-8.91,5.25-7.07,7.12-17,2.21-21.36C382.42,166.54,372.87,167.66,369.78,168.12Z" style="fill:#b16668"></path><path d="M367.87,203.28l-.22-2.63s-3.74,2.68-7.65,2.12C361.33,203.54,364.91,203.62,367.87,203.28Z" style="fill:#9a4a4d"></path><path d="M359.42,173c-.15,2.66,2.72,4.16,4.71,4.43a3.55,3.55,0,0,0,1.77-.12,6.43,6.43,0,0,0,1.26,3.61c.66,1.29-.45,2-.59,4.15-.06,1,1.09,2.05,1.95.62s2.77-4.24,5.3-3.71c3.86.82,4.09,5.82,1.45,8.69s-4.83,1.59-4.86,1.57c0,.8.09,5.13,3.74,7.49,2.24,1.45,6.27,2.86,9.75,1.69,2.32-.92,4-3.53,6.27-7.07a44.8,44.8,0,0,0,4.41-9.59c1.17-3.83,1.34-5.71.59-8.55A7.09,7.09,0,0,0,390,171c-.21-2.73-1.31-4.93-4.53-7.09-5.88-3.93-14-1.81-18.39-.5-2.45.73-5.37,2.17-7.86,2.86a9.44,9.44,0,0,1-2.81.23c-.27,0-1.23-.24-1.45-.08s-.13,1.1-.11,1.41A5.87,5.87,0,0,0,359.42,173Z" style="fill:#263238"></path><path d="M394.53,208.16c-9.54-2.15-10.11-2.32-10.11-2.32-.58,2.48-9.87,4.31-16.36,2.86-1.94.54-13.73,4.15-14.27,4.5,0,0-3.69,10-4.47,26.89s-1,50.28-1,50.28c10.14,7.51,48.7,2.45,51.53-13.8a146.73,146.73,0,0,1-.39-19.13,193.26,193.26,0,0,1,2.17-20.63c1.27-7.32,1.66-12.8,1-17C402,215,399.24,209.21,394.53,208.16Z" style="fill:#37474f"></path><path d="M317.55,235.77s-25.17-5-26.61-6c-1.22-.89-1.61-2.33-2.22-3.63a17.18,17.18,0,0,0-2.79-4c-.71-.8-1.58-1.49-2.24-2.33s-.88-1.75-1.48-2.53-1.41-.22-1.79.53a4.48,4.48,0,0,0,.08,3.43c.19.48.35,1,.54,1.45a6.64,6.64,0,0,1,.52,1.34,1.1,1.1,0,0,1-.05.72c-.27.46-1.12.15-1.5,0-2.49-1-3.68-2.24-5.57-3.9-.88-.78-1.68-1.58-2.57-2.36a10.66,10.66,0,0,0-2.71-1.8,4.35,4.35,0,0,0-2.3-.38c-1.09.4-.75,1.3.37,2.72.5.73.85,1.38.85,1.38a3.24,3.24,0,0,0,.39,3.26c.5.75,1.43,2.09,1.43,2.09a1.58,1.58,0,0,0-.2,1.21,8.75,8.75,0,0,0,1.29,2.69,5.08,5.08,0,0,1,.87,2.48c.22,2.13,2.82,3.73,4.48,4.75,1.9,1.18,3,1.22,5.12,1.91,1.15.38,2.26.84,3.41,1.19s2.1.51,3.1.89c2.4.92,20.93,8,28.32,10,3.65,1,4.63,1.92,9.76-.76,9.24-4.82,15.8-8,21.39-10.74,7.4-3.65,8.61-5.65,9.6-10.4,2.3-11-3.23-14.74-3.23-14.74-4.15.68-5.67,1.53-13.29,6.67C332.25,226.44,317.55,235.77,317.55,235.77Z" style="fill:#b16668"></path><path d="M353.79,213.2c-6.86,1.68-9.5,4.17-22.5,12.68-11.24,7.35-13.85,9.42-13.85,9.42l-6.67-1.11s-2.16,1.53-3.88,6.09a9.82,9.82,0,0,0,0,7.76s8.82,3.09,11.08,3.79,2.45,1.21,7.46-1.05,25.72-12.39,27.54-13.34c2.38-1.24,5-4.66,5.76-11.5S356.59,213.68,353.79,213.2Z" style="fill:#263238"></path></g></g></g></svg>