<svg width="600" height="350" version="1.1" viewBox="0 0 158.75 92.604" xmlns="http://www.w3.org/2000/svg" xmlns:xlink="http://www.w3.org/1999/xlink"><defs><linearGradient id="b" x1="43.385" x2="503.89" y1="175.54" y2="175.54" gradientTransform="translate(2.7397,14.53)" gradientUnits="userSpaceOnUse"><stop stop-color="#daa4b4" offset=".125"/><stop stop-color="#8f98a3" offset="1"/></linearGradient><linearGradient id="f" x1="363" x2="800" y1="390" y2="390" gradientUnits="userSpaceOnUse" xlink:href="#b"/><linearGradient id="c" x1="363" x2="800" y1="255.39" y2="255.39" gradientUnits="userSpaceOnUse" xlink:href="#b"/><linearGradient id="h" x1="235" x2="672" y1="299" y2="299" gradientTransform="translate(2.7397,14.53)" gradientUnits="userSpaceOnUse"><stop stop-color="#8f98a3" offset="0"/><stop stop-color="#daa4b4" offset=".875"/></linearGradient><linearGradient id="g" x1="233" x2="674" y1="295" y2="295" gradientUnits="userSpaceOnUse" xlink:href="#a"/><linearGradient id="a" x1="43.385" x2="503.89" y1="175.54" y2="175.54" gradientTransform="translate(2.7397,14.53)" gradientUnits="userSpaceOnUse"><stop stop-color="#737e8c" offset="0"/><stop stop-color="#c65370" offset="1"/></linearGradient><linearGradient id="e" x1="235" x2="672" y1="172.39" y2="172.39" gradientUnits="userSpaceOnUse" xlink:href="#a"/><linearGradient id="d" x1="99" x2="536" y1="92.387" y2="92.387" gradientUnits="userSpaceOnUse" xlink:href="#a"/></defs><g transform="matrix(.26458 0 0 .26458 .48739 .0016723)"><g fill-opacity="0" stroke="#8c95a1" stroke-linejoin="round" stroke-miterlimit="20"><rect x="62.665" y="44.429" width="468.98" height="259.13" ry="16.695" opacity=".4" stroke-dasharray="5.47955, 0.913258" stroke-linecap="round" style="font-variation-settings:'wght' 700;paint-order:markers fill stroke"/><rect transform="matrix(.99996 0 0 .99996 -1.8306 .00017628)" x=".99548" y=".9955" width="598.01" height="348.01" opacity=".5" stroke-dasharray="1.09504, 26.281" stroke-linecap="square" stroke-width="1.095" style="font-variation-settings:'wght' 700;paint-order:markers fill stroke"/><rect x="122.45" y="151.63" width="199.62" height="113.3" opacity=".4" stroke-dasharray="1.9, 22.8" stroke-linecap="square" stroke-width="1.9" style="font-variation-settings:'wght' 700;paint-order:markers fill stroke"/><g transform="matrix(.47421 0 0 .47421 98.595 32.841)" fill="none"><g stroke="#e1e4e5" stroke-width="4"><path d="m777.43 522h-391.86c-11.514 0-20.569-8.573-20.569-18.809v-226.38c0-10.236 9.055-18.809 20.569-18.809h391.86c11.514 0 20.569 8.572 20.569 18.809v226.38c0 10.236-9.055 18.809-20.569 18.809z" fill="url(#f)"/><path d="m798 268.78h-433v-6.206c0-11.358 9.211-20.569 20.569-20.569h391.86c11.358 0 20.569 9.211 20.569 20.569z" fill="url(#c)" fill-opacity="1"/><path d="m649.43 431h-391.86c-11.514 0-20.569-8.573-20.569-18.809v-226.38c0-10.236 9.055-18.809 20.569-18.809h391.86c11.514 0 20.569 8.572 20.569 18.809v226.38c0 10.236-9.055 18.809-20.569 18.809z" fill="url(#h)"/></g><path d="m385.61 261.22a4.847 4.847 0 1 0-1e-3 -9.693 4.847 4.847 0 0 0 1e-3 9.693zm20.195 0a4.847 4.847 0 1 0-1e-3 -9.693 4.847 4.847 0 0 0 1e-3 9.693zm19.387 0a4.847 4.847 0 1 0 0-9.694 4.847 4.847 0 0 0 0 9.694z" fill="#e1e4e5"/><path d="m257.61 178.22a4.847 4.847 0 1 0-1e-3 -9.693 4.847 4.847 0 0 0 1e-3 9.693zm20.195 0a4.847 4.847 0 1 0-1e-3 -9.693 4.847 4.847 0 0 0 1e-3 9.693zm19.387 0a4.847 4.847 0 1 0 0-9.694 4.847 4.847 0 0 0 0 9.694z" fill="#e1e4e5"/><g fill-opacity="1"><g stroke="#e1e4e5"><path d="m257.57 431c-1.918 0-3.77-0.248-5.526-0.709l-0.509 1.934a23.15 23.15 0 0 1-4.735-1.818l0.918-1.777c-3.362-1.738-6.146-4.332-8.031-7.456l-1.713 1.034a20.744 20.744 0 0 1-2.073-4.627l1.912-0.587a18.443 18.443 0 0 1-0.812-5.424v-5.877h-2v-4.898h2v-11.755h-2v-4.898h2v-11.755h-2v-4.898h2v-11.755h-2v-4.898h2v-11.755h-2v-4.898h2v-11.755h-2v-4.898h2v-11.755h-2v-4.898h2v-11.754h-2v-4.898h2v-11.755h-2v-4.898h2v-11.755h-2v-4.898h2v-11.755h-2v-4.898h2v-11.755h-2v-4.898h2v-11.755h-2v-4.898h2v-11.755h-2v-4.898h2v-5.877c0-1.885 0.284-3.704 0.812-5.424l-1.912-0.587a20.744 20.744 0 0 1 2.073-4.627l1.713 1.034c1.885-3.124 4.669-5.718 8.031-7.456l-0.918-1.777a23.15 23.15 0 0 1 4.735-1.818l0.509 1.934a21.737 21.737 0 0 1 5.526-0.709h6.013v-2h5.011v2h12.026v-2h5.011v2h12.027v-2h5.011v2h12.026v-2h5.011v2h12.027v-2h5.011v2h12.026v-2h5.011v2h12.027v-2h5.011v2h12.026v-2h5.011v2h12.027v-2h5.011v2h12.026v-2h5.011v2h12.027v-2h5.011v2h12.026v-2h5.011v2h12.027v-2h5.011v2h12.026v-2h5.011v2h12.027v-2h5.011v2h12.026v-2h5.012v2h12.026v-2h5.011v2h12.027v-2h5.011v2h12.026v-2h5.011v2h12.027v-2h5.011v2h12.026v-2h5.011v2h12.027v-2h5.011v2h12.026v-2h5.011v2h6.013c1.918 0 3.77 0.248 5.526 0.709l0.509-1.934a23.15 23.15 0 0 1 4.735 1.818l-0.918 1.777c3.362 1.738 6.146 4.332 8.031 7.456l1.713-1.034a20.744 20.744 0 0 1 2.073 4.627l-1.912 0.587c0.528 1.72 0.812 3.539 0.812 5.424v5.877h2v4.898h-2v11.755h2v4.898h-2v11.755h2v4.898h-2v11.755h2v4.898h-2v11.755h2v4.898h-2v11.755h2v4.898h-2v11.755h2v4.898h-2v11.754h2v4.898h-2v11.755h2v4.898h-2v11.755h2v4.898h-2v11.755h2v4.898h-2v11.755h2v4.898h-2v11.755h2v4.898h-2v11.755h2v4.898h-2v5.877c0 1.885-0.284 3.704-0.812 5.424l1.912 0.587a20.744 20.744 0 0 1-2.073 4.627l-1.713-1.034c-1.885 3.124-4.669 5.718-8.031 7.456l0.918 1.777a23.15 23.15 0 0 1-4.735 1.818l-0.509-1.934a21.737 21.737 0 0 1-5.526 0.709h-6.013v2h-5.011v-2h-12.026v2h-5.011v-2h-12.027v2h-5.011v-2h-12.026v2h-5.011v-2h-12.027v2h-5.011v-2h-12.026v2h-5.011v-2h-12.027v2h-5.011v-2h-12.026v2h-5.011v-2h-12.027v2h-5.011v-2h-12.026v2h-5.011v-2h-12.027v2h-5.011v-2h-12.026v2h-5.011v-2h-12.027v2h-5.011v-2h-12.026v2h-5.011v-2h-12.027v2h-5.011v-2h-12.026v2h-5.012v-2h-12.026v2h-5.011v-2h-12.027v2h-5.011v-2h-12.026v2h-5.011v-2h-12.027v2h-5.011v-2h-12.026v2h-5.011v-2h-12.027v2h-5.011v-2h-12.026v2h-5.011v-2z" fill="url(#g)" stroke-dasharray="4.00034, 24.002" stroke-width="4.0003"/><g stroke-width="4"><path d="m670 185.78h-433v-6.206c0-11.358 9.211-20.569 20.569-20.569h391.86c11.358 0 20.569 9.211 20.569 20.569z" fill="url(#e)"/><path d="m513.43 343h-391.86c-11.514 0-20.569-8.573-20.569-18.809v-226.38c0-10.236 9.055-18.809 20.569-18.809h391.86c11.514 0 20.569 8.573 20.569 18.809v226.38c0 10.236-9.055 18.809-20.569 18.809z" fill="#c65370"/><path d="m534 105.78h-433v-6.206c0-11.359 9.211-20.569 20.569-20.569h391.86c11.358 0 20.569 9.21 20.569 20.569z" fill="url(#d)"/></g></g><path d="m121.61 98.224a4.847 4.847 0 1 0-1e-3 -9.694 4.847 4.847 0 0 0 1e-3 9.694zm20.195 0a4.847 4.847 0 1 0-1e-3 -9.694 4.847 4.847 0 0 0 1e-3 9.694zm19.387 0a4.847 4.847 0 1 0 0-9.694 4.847 4.847 0 0 0 0 9.694z" fill="#e1e4e5"/></g></g><g transform="matrix(.097467 0 0 .097467 220.84 111.02)" fill="#9da5ae" fill-opacity="1"><path class="st0" d="m194.81 161.36c-3.467 1.892-6.589 6.254-2.459 16.33 5.283 12.92 4.563 27.491 15.782 27.491 5.542 28.606 7.934 27.703 14.494 34.994v11.287c0 14.591-4.956 14.841-16.242 21.161-27.213 15.197-46.406 18.453-51.833 59.114-0.989 7.444 41.699 15.542 101.45 15.581 59.757-0.038 102.44-8.137 101.46-15.581-5.428-40.661-24.937-42.726-51.834-59.114-11.949-7.309-16.242-6.57-16.242-21.161v-11.287c6.561-7.291 8.942-6.388 14.495-34.994 11.219 0 10.489-14.571 15.782-27.491 4.314-10.548 0.702-14.813-2.93-16.56 2.978-38.356 2.978-64.8-40.593-72.994-15.782-13.535-39.595-8.943-50.882-6.686-11.286 2.276-21.449 0-21.449 0l1.921 18.184c-16.512 19.826-8.241 46.261-10.912 61.726z"/><path class="st0" d="m492.22 300.58c-4.706 1.479-10.46 3.506-16.54 4.506-2.594 0.432-5.235 0.672-7.877 0.653 0.086-0.288 0.173-0.576 0.26-0.865 1.709-5.812 3.179-11.864 4.226-16.82 1.056-4.947 1.72-8.78 1.988-10.163 0.808-4.044 1.354-6.964 2.277-9.02 0.931-2.066 2.248-3.276 4.466-3.948 8.914-2.171 17.079-7.992 22.794-16.762 5.726-8.712 8.934-20.326 8.032-32.774-0.586-7.819-2.287-11.219-4.563-11.872-2.296-0.653-5.235 1.412-8.866 4.352-3.64 2.949-8.002 6.743-13.006 9.768-2.142 1.306-4.41 2.469-6.772 3.392-0.51-5.38-1.24-10.807-1.97-15.245-0.768-4.735-1.489-8.347-1.719-9.663-1.364-7.704-1.941-11.076 1.585-13.765 7.175-4.937 12.468-12.834 14.611-22.506 2.171-9.635 1.133-20.998-3.775-31.708-3.104-6.724-5.735-9.154-7.974-8.972-2.257 0.173-4.197 2.978-6.464 6.781-2.267 3.823-4.89 8.636-8.338 12.987-1.478 1.874-3.112 3.65-4.898 5.254-1.969-4.044-4.025-7.972-5.841-11.248-2.2-3.977-4.015-6.974-4.63-8.079-3.679-6.446-5.254-9.279-2.949-12.795 4.871-6.686 7.127-15.398 6.071-24.687-1.028-9.269-5.408-19.066-13.025-27.126-4.803-5.052-7.886-6.426-9.836-5.59-1.979 0.855-2.891 3.947-3.785 8.059-0.893 4.112-1.806 9.232-3.573 14.188-0.749 2.104-1.662 4.159-2.757 6.119-2.181-2.191-4.313-4.265-6.224-6.052-3.324-3.112-5.956-5.418-6.888-6.272-5.476-5.005-7.848-7.214-6.734-11.268 2.594-7.857 2.075-16.849-1.777-25.359-3.812-8.51-10.998-16.502-20.729-21.834-6.128-3.344-9.49-3.718-11.094-2.306-1.623 1.411-1.538 4.64-1.124 8.828 0.394 3.995 1.057 8.875 0.971 13.89-3.305-3.862-7.82-6.849-12.892-9.193-5.936-2.767-14.821-4.582-22.496-3.987-7.694 0.558-14.024 3.439-15.504 8.76-1.498 5.351 2.094 10.941 6.964 15.869 4.918 4.899 11.162 9.251 16.187 11.585 4.485 2.064 8.942 3.611 13.64 3.909-0.212 0.163-0.423 0.326-0.634 0.49-4.092 3.103-8.222 5.696-11.383 8.078-3.16 2.363-5.36 4.495-5.716 6.532-0.355 2.046 1.134 3.947 5.341 6.253 6.676 3.66 14.015 5.11 21.632 4.765 7.589-0.375 15.446-2.526 22.458-6.744 3.593-1.949 6.158-0.249 11.182 4.39 0.855 0.788 3.151 3.065 5.994 6.148 1.624 1.758 3.41 3.785 5.236 5.928-1.931 0.912-3.91 1.7-5.879 2.391-4.841 1.691-9.568 2.892-13.304 4.178-3.746 1.288-6.484 2.622-7.455 4.458-0.96 1.844-0.125 4.12 3.18 7.598 5.245 5.553 11.786 9.183 19.135 11.191 7.339 1.979 15.484 2.325 23.448 0.461 4.025-0.758 5.936 1.643 9.288 7.599 0.576 1.018 2.066 3.89 3.823 7.684 1.451 3.141 3.074 6.936 4.582 10.797-2.421 0.317-4.85 0.432-7.233 0.46-5.389 0.068-10.499-0.317-14.659-0.278-4.149 0.038-7.339 0.471-8.914 1.96-1.586 1.509-1.538 4.025 0.547 8.55 3.295 7.184 8.521 12.929 15.1 17.396 6.59 4.428 14.543 7.588 23.093 8.52 4.255 0.663 5.312 3.708 6.531 10.778 0.202 1.201 0.663 4.563 1.048 8.943 0.365 4.112 0.643 9.106 0.71 14.034-2.449-0.586-4.832-1.345-7.128-2.171-5.34-1.921-10.249-4.169-14.36-5.63-4.102-1.479-7.407-2.209-9.51-1.316-2.114 0.893-2.997 3.362-2.614 8.54 0.596 8.213 3.602 15.792 8.435 22.593 4.832 6.772 11.479 12.824 19.538 16.944 1.979 1.124 2.929 2.517 3.209 4.573 0.288 2.056-0.087 4.745-0.846 8.444-0.25 1.258-1.066 4.725-2.363 9.154-1.278 4.428-3.045 9.808-5.014 14.928-0.105 0.26-0.202 0.51-0.298 0.759-2.142-1.518-4.139-3.18-6.051-4.861-4.457-3.967-8.376-8.059-11.824-11.076-3.448-3.026-6.388-5.014-8.79-4.975-2.431 0.038-4.236 2.084-5.86 7.194-2.612 8.107-2.622 16.504-0.633 24.994 2.007 8.454 6.022 16.993 12.179 24.264 2.91 3.775 1.441 7.022-3.006 13.563-0.759 1.114-2.978 4.131-6.042 7.887-3.054 3.746-6.993 8.213-11.018 12.343-0.644 0.672-1.296 1.326-1.941 1.97-1.393-2.344-2.622-4.765-3.737-7.166-2.622-5.706-4.668-11.287-6.733-15.648-2.046-4.37-4.064-7.511-6.388-8.5-2.344-0.98-4.938 0.192-8.626 4.39-5.898 6.628-9.423 14.64-11.104 23.62-1.643 8.933-1.441 18.856 1.316 28.482 1.172 4.879-1.643 7.348-8.742 11.671-1.21 0.73-4.64 2.651-9.202 4.888-4.563 2.249-10.269 4.765-15.917 6.907-5.648 2.171-13.352 5.485-17.454 6.926-53.436 18.78-117.76 26.886-157.58 56.156-6.206 4.562 6.128 22.122 11.574 20.757 5.447-1.354 44.591-24.84 142.58-51.64 4.11-1.45 24.004-7.934 30.085-10.844 6.1-2.901 12.199-6.206 17.059-9.04 4.861-2.843 8.502-5.196 9.846-6.003 3.91-2.401 6.706-4.16 9.097-4.956 2.382-0.806 4.361-0.663 6.589 0.634 4.265 2.786 9.116 4.726 14.361 5.696 5.245 0.961 10.893 0.942 16.647-0.134 5.744-1.086 11.612-3.228 17.204-6.456 5.6-3.218 10.941-7.512 15.599-12.766 5.86-6.638 7.252-10.691 6.004-12.997-1.258-2.334-5.196-3.026-10.364-3.593-5.178-0.547-11.594-1.018-17.876-2.622-2.651-0.672-5.273-1.546-7.78-2.669 0.663-0.778 1.316-1.566 1.969-2.364 4.072-4.928 8.011-10.181 11.076-14.543 3.064-4.37 5.283-7.829 6.118-9.058 4.851-7.224 6.964-10.384 11.864-9.855 9.538 1.518 19.855-0.856 28.99-7.147 4.553-3.14 8.8-7.242 12.402-12.16 3.612-4.909 6.58-10.653 8.616-16.964 2.536-7.954 2.19-11.988 0.23-13.516-1.99-1.541-5.678-0.667-10.386 0.812z"/><path class="st0" d="m196.72 450.99c12.325-4.765 25.34-8.808 38.529-12.565-14.168-3.862-28.202-7.886-41.554-12.574-4.102-1.441-11.805-4.755-17.453-6.926-5.648-2.142-11.354-4.658-15.916-6.907-4.563-2.238-7.992-4.159-9.203-4.888-7.099-4.323-9.913-6.792-8.741-11.671 2.757-9.626 2.958-19.549 1.316-28.482-1.681-8.98-5.206-16.992-11.104-23.62-3.688-4.198-6.282-5.37-8.625-4.39-2.326 0.989-4.342 4.13-6.389 8.5-2.065 4.361-4.12 9.942-6.733 15.648-1.114 2.401-2.344 4.822-3.737 7.166-0.644-0.644-1.296-1.298-1.941-1.97-4.025-4.13-7.962-8.597-11.018-12.343-3.064-3.756-5.283-6.772-6.042-7.887-4.448-6.541-5.927-9.788-3.007-13.563 6.158-7.271 10.173-15.811 12.18-24.264 1.988-8.49 1.978-16.887-0.635-24.994-1.623-5.11-3.429-7.156-5.859-7.194-2.401-0.038-5.341 1.95-8.789 4.975-3.448 3.017-7.368 7.108-11.825 11.076-1.911 1.681-3.909 3.343-6.051 4.861-0.096-0.25-0.193-0.5-0.288-0.759-1.979-5.12-3.746-10.499-5.024-14.928-1.296-4.428-2.113-7.896-2.362-9.154-0.758-3.698-1.133-6.388-0.845-8.444 0.278-2.056 1.23-3.448 3.208-4.573 8.06-4.12 14.707-10.172 19.548-16.944 4.822-6.801 7.838-14.38 8.424-22.593 0.394-5.178-0.5-7.647-2.612-8.54-2.104-0.893-5.408-0.163-9.51 1.316-4.112 1.461-9.02 3.708-14.351 5.63-2.306 0.826-4.688 1.584-7.137 2.171 0.077-4.928 0.346-9.923 0.711-14.034 0.384-4.38 0.845-7.742 1.046-8.943 1.22-7.069 2.277-10.115 6.532-10.778 8.549-0.932 16.502-4.092 23.092-8.52 6.58-4.467 11.806-10.211 15.101-17.396 2.084-4.525 2.132-7.041 0.547-8.55-1.575-1.488-4.764-1.921-8.914-1.96-4.16-0.038-9.27 0.346-14.658 0.278-2.382-0.028-4.813-0.144-7.234-0.46 1.508-3.862 3.132-7.656 4.582-10.797 1.758-3.794 3.247-6.666 3.824-7.684 3.352-5.956 5.264-8.357 9.288-7.599 7.963 1.864 16.109 1.518 23.448-0.461 7.349-2.008 13.89-5.638 19.135-11.191 3.305-3.477 4.14-5.753 3.18-7.598-0.971-1.835-3.708-3.17-7.454-4.458-3.737-1.287-8.463-2.488-13.305-4.178-1.969-0.692-3.947-1.48-5.878-2.391 1.824-2.142 3.612-4.17 5.245-5.928 2.834-3.082 5.13-5.36 5.984-6.148 5.023-4.639 7.588-6.339 11.181-4.39 7.012 4.218 14.87 6.369 22.458 6.744 7.617 0.345 14.956-1.105 21.632-4.765 4.208-2.306 5.696-4.207 5.341-6.253-0.355-2.037-2.556-4.17-5.716-6.532-3.16-2.382-7.29-4.975-11.382-8.078-0.212-0.164-0.423-0.327-0.634-0.49 4.697-0.298 9.154-1.844 13.64-3.909 5.024-2.334 11.268-6.686 16.186-11.585 4.87-4.928 8.462-10.518 6.974-15.869-1.489-5.322-7.82-8.203-15.514-8.76-7.675-0.595-16.56 1.22-22.497 3.987-5.072 2.344-9.586 5.331-12.89 9.193-0.086-5.014 0.576-9.894 0.97-13.89 0.413-4.188 0.5-7.417-1.124-8.828-1.604-1.413-4.966-1.038-11.094 2.306-9.731 5.331-16.915 13.323-20.729 21.834-3.852 8.51-4.371 17.502-1.778 25.359 1.114 4.054-1.258 6.263-6.734 11.268-0.931 0.854-3.564 3.16-6.886 6.272-1.912 1.787-4.044 3.862-6.225 6.052-1.095-1.96-2.008-4.015-2.756-6.119-1.768-4.956-2.68-10.076-3.574-14.188-0.893-4.112-1.806-7.204-3.785-8.059-1.95-0.836-5.033 0.538-9.836 5.59-7.617 8.06-11.998 17.858-13.025 27.126-1.056 9.29 1.201 18.002 6.071 24.687 2.306 3.516 0.73 6.349-2.949 12.795-0.615 1.105-2.431 4.102-4.63 8.079-1.816 3.276-3.872 7.204-5.841 11.248-1.786-1.604-3.419-3.381-4.898-5.254-3.449-4.351-6.071-9.164-8.338-12.987-2.266-3.804-4.207-6.608-6.464-6.781-2.238-0.183-4.87 2.248-7.963 8.972-4.918 10.711-5.955 22.074-3.784 31.708 2.141 9.673 7.434 17.57 14.61 22.506 3.525 2.689 2.949 6.061 1.576 13.765-0.222 1.316-0.942 4.928-1.72 9.663-0.721 4.438-1.451 9.866-1.96 15.245-2.363-0.923-4.63-2.085-6.781-3.392-4.995-3.026-9.356-6.82-12.996-9.768-3.631-2.94-6.571-5.005-8.866-4.352-2.276 0.653-3.977 4.054-4.562 11.872-0.903 12.449 2.305 24.062 8.03 32.774 5.715 8.77 13.88 14.591 22.795 16.762 2.218 0.673 3.534 1.883 4.467 3.948 0.922 2.056 1.469 4.976 2.276 9.02 0.269 1.383 0.931 5.216 1.989 10.163 1.047 4.956 2.516 11.008 4.226 16.82 0.087 0.288 0.173 0.576 0.26 0.865-2.641 0.018-5.283-0.222-7.877-0.653-6.08-1-11.834-3.027-16.541-4.506-4.706-1.478-8.395-2.353-10.384-0.816-1.96 1.528-2.306 5.562 0.231 13.516 2.036 6.311 5.005 12.054 8.616 16.964 3.602 4.918 7.848 9.02 12.402 12.16 9.135 6.292 19.451 8.665 28.989 7.147 4.9-0.529 7.012 2.631 11.864 9.855 0.836 1.23 3.054 4.688 6.119 9.058 3.064 4.362 7.002 9.615 11.075 14.543 0.654 0.798 1.307 1.586 1.969 2.364-2.506 1.123-5.129 1.998-7.78 2.669-6.282 1.604-12.699 2.076-17.876 2.622-5.167 0.568-9.106 1.259-10.365 3.593-1.248 2.306 0.145 6.359 6.004 12.997 4.659 5.254 10 9.548 15.6 12.766 5.591 3.227 11.46 5.37 17.204 6.456 5.754 1.075 11.402 1.095 16.647 0.134 5.245-0.97 10.096-2.91 14.361-5.696 2.229-1.296 4.207-1.44 6.589-0.634 2.392 0.797 5.188 2.556 9.097 4.956 1.344 0.807 4.986 3.16 9.846 6.003 4.86 2.834 10.96 6.139 17.06 9.04 5.89 2.827 24.813 9.024 29.673 10.714z"/><path class="st0" d="m314.73 462.46c-15.379 4.246-29.259 8.414-41.756 12.411 43.447 15.647 63.004 26.963 66.731 27.894 5.446 1.364 17.78-16.195 11.566-20.757-10.644-7.829-23.054-14.13-36.541-19.548z"/></g></g></g></svg>
