<svg version="1.1" viewBox="0 0 150 24" xml:space="preserve" xmlns="http://www.w3.org/2000/svg"><defs><linearGradient id="a" x1="-1.8" x2=".85" y1="12" y2="12" gradientTransform="matrix(28 0 0 28 104 -264)" gradientUnits="userSpaceOnUse"><stop stop-color="#3b3b3b" offset="0"/><stop stop-color="#0d0d0d" offset=".64"/><stop offset="1"/></linearGradient><linearGradient id="b" x1="-3.6" x2="-.2" y1="12" y2="12" gradientTransform="matrix(28 0 0 28 104 -264)" gradientUnits="userSpaceOnUse"><stop offset="0"/><stop stop-color="#0d0d0d" offset=".19"/><stop stop-color="#3b3b3b" offset="1"/></linearGradient></defs><g transform="translate(0 -39)"><path transform="matrix(.19 0 0 .19 0 39)" d="m112 22-44 15-0.57 55 45 15a64 64 0 0 0 16-42 64 64 0 0 0-16-42z" fill="url(#a)"/><path transform="matrix(.19 0 0 .19 0 39)" d="m64 5.3e-6a64 64 0 0 0-64 64 64 64 0 0 0 64 64 64 64 0 0 0 33-9.4l-48-15-0.28-77 49-17a64 64 0 0 0-34-9.8z" fill="url(#b)"/></g><g transform="matrix(1.1 0 0 1.1 -1.5 -33)" fill="#000000" letter-spacing="0px" stroke="#000000" stroke-miterlimit="20" stroke-width="0" word-spacing="0px"><text x="26.461195" y="49.353138" font-family="Inter" font-size="24px" style="font-variant-caps:normal;font-variant-east-asian:normal;font-variant-ligatures:normal;font-variant-numeric:normal;line-height:1.13505px;paint-order:markers fill stroke" xml:space="preserve"><tspan x="26.461195" y="49.353138" stroke-width="0">bracket</tspan></text><text x="115.34975" y="49.664078" font-family="Anta" font-size="24px" style="font-variant-caps:normal;font-variant-east-asian:normal;font-variant-ligatures:normal;font-variant-numeric:normal;line-height:1.12px;paint-order:markers fill stroke" xml:space="preserve"><tspan x="115.34975" y="49.664078">UI</tspan></text></g></svg>
