<svg xmlns="http://www.w3.org/2000/svg" viewBox="0 0 500 500"><g id="freepik--Gears--inject-61"><g id="freepik--Gear--inject-61"><path d="M224.18,404.09h0a1.24,1.24,0,0,0,.74,1.07l2.83,1.45,1.64-.26a2.94,2.94,0,0,0,2.14-2.08,12.76,12.76,0,0,1,.65-1.78,1.85,1.85,0,0,0-.78-2.44l-6.58-3.4a1.26,1.26,0,0,1-.75-1Zm24.11-2.82c-3.83,3.21-4.35,7.23-2,10.68a12.26,12.26,0,0,1,2.07-2.19c6.06-5.09,18.17-6.22,27.05-2.54a15.69,15.69,0,0,1,7,5.19c3.28-4.78.54-10.51-7.12-13.69C266.46,395,254.35,396.17,248.29,401.27Zm-28.93,16.54h0a1.67,1.67,0,0,0,.08.53l1.45,4.58a2.59,2.59,0,0,0,2.37,1.71l9.32-.27a3.72,3.72,0,0,1,1.44.3v0a3.52,3.52,0,0,1,.8.4l3.18-3.43a1.62,1.62,0,0,0-.25-2.42,21.39,21.39,0,0,1-2.25-2,4.92,4.92,0,0,0-1.58-1,3.61,3.61,0,0,0-1.45-.31l-9.31.28a2.58,2.58,0,0,1-2.37-1.71l-1.47-4.59a1.79,1.79,0,0,1-.08-.49Zm75.36-28.22a1.36,1.36,0,0,1-.38.73l-3.65,3.94a1.61,1.61,0,0,0,.25,2.42,22.33,22.33,0,0,1,2.25,2,3.77,3.77,0,0,0,.78.61l.47-.51a1.3,1.3,0,0,0,.38-.92h0ZM234.08,435a1.19,1.19,0,0,0,.14.52,1.4,1.4,0,0,0,.71.58l8.19,3.42a2.15,2.15,0,0,0,.36.11,1.17,1.17,0,0,0,.27.05,4.29,4.29,0,0,0,1.24,0l.27-.06h0a3.13,3.13,0,0,0,1-.39l5.45-3.63A5.12,5.12,0,0,1,255,435a52,52,0,0,0,5.28.73,3.5,3.5,0,0,1,1.78.76,2.46,2.46,0,0,1,.46.45,1.06,1.06,0,0,1,.19.23,1.36,1.36,0,0,1,.23.34l2.07,4,.06.1a1.61,1.61,0,0,0,.21.3,1.84,1.84,0,0,0,.23.25l0,0a2.6,2.6,0,0,0,.31.25,3.66,3.66,0,0,0,.67.37,2.67,2.67,0,0,0,1.14.18l10.17-1a1.75,1.75,0,0,0,1.58-1.74l-.08-5.76a2,2,0,0,1,1.05-.73,44.91,44.91,0,0,0,4.23-1.53,5.44,5.44,0,0,1,3.36-.2l.09,0,7.87,2.59a2,2,0,0,0,.42.09h.07a1.5,1.5,0,0,0,.47,0,3.5,3.5,0,0,0,2.16-.71l5.14-4.33a1.32,1.32,0,0,0,.51-.92l-.11-8.46a1.28,1.28,0,0,1-.5.88L299,425.58a3.06,3.06,0,0,1-1.14.57,3.61,3.61,0,0,1-2,0L288,423.59l-.09,0a5.47,5.47,0,0,0-3.37.18,40.54,40.54,0,0,1-4.23,1.53,2.21,2.21,0,0,0-1.5,2.32l.52,3.92a1.75,1.75,0,0,1-1.56,2l-10.17,1a2.55,2.55,0,0,1-1.14-.18,2.92,2.92,0,0,1-1.51-1.29l-2.08-4a3.17,3.17,0,0,0-.87-1,3.55,3.55,0,0,0-1.78-.76c-1.77-.16-3.55-.4-5.28-.72a4.93,4.93,0,0,0-3.28.63l-5.44,3.61a2.81,2.81,0,0,1-1.06.42A3.72,3.72,0,0,1,243,431l-8.18-3.4a1.24,1.24,0,0,1-.87-1.11Zm65.22-25.46a3,3,0,0,0-2.13,2.09,10.83,10.83,0,0,1-.66,1.77,1.85,1.85,0,0,0,.78,2.45l3.75,1.94,7.2-1.16a1.49,1.49,0,0,0,1.29-1.48h0l-.1-8.53a1.49,1.49,0,0,1-1.31,1.48Z" style="fill:#e6e6e6"></path><path d="M224.18,404.09h0a1.24,1.24,0,0,0,.74,1.07l2.83,1.45,1.64-.26a2.94,2.94,0,0,0,2.14-2.08,12.76,12.76,0,0,1,.65-1.78,1.85,1.85,0,0,0-.78-2.44l-6.58-3.4a1.26,1.26,0,0,1-.75-1Zm24.11-2.82c-3.83,3.21-4.35,7.23-2,10.68a12.26,12.26,0,0,1,2.07-2.19c6.06-5.09,18.17-6.22,27.05-2.54a15.69,15.69,0,0,1,7,5.19c3.28-4.78.54-10.51-7.12-13.69C266.46,395,254.35,396.17,248.29,401.27Zm-28.93,16.54h0a1.67,1.67,0,0,0,.08.53l1.45,4.58a2.59,2.59,0,0,0,2.37,1.71l9.32-.27a3.72,3.72,0,0,1,1.44.3v0a3.52,3.52,0,0,1,.8.4l3.18-3.43a1.62,1.62,0,0,0-.25-2.42,21.39,21.39,0,0,1-2.25-2,4.92,4.92,0,0,0-1.58-1,3.61,3.61,0,0,0-1.45-.31l-9.31.28a2.58,2.58,0,0,1-2.37-1.71l-1.47-4.59a1.79,1.79,0,0,1-.08-.49Zm75.36-28.22a1.36,1.36,0,0,1-.38.73l-3.65,3.94a1.61,1.61,0,0,0,.25,2.42,22.33,22.33,0,0,1,2.25,2,3.77,3.77,0,0,0,.78.61l.47-.51a1.3,1.3,0,0,0,.38-.92h0ZM234.08,435a1.19,1.19,0,0,0,.14.52,1.4,1.4,0,0,0,.71.58l8.19,3.42a2.15,2.15,0,0,0,.36.11,1.17,1.17,0,0,0,.27.05,4.29,4.29,0,0,0,1.24,0l.27-.06h0a3.13,3.13,0,0,0,1-.39l5.45-3.63A5.12,5.12,0,0,1,255,435a52,52,0,0,0,5.28.73,3.5,3.5,0,0,1,1.78.76,2.46,2.46,0,0,1,.46.45,1.06,1.06,0,0,1,.19.23,1.36,1.36,0,0,1,.23.34l2.07,4,.06.1a1.61,1.61,0,0,0,.21.3,1.84,1.84,0,0,0,.23.25l0,0a2.6,2.6,0,0,0,.31.25,3.66,3.66,0,0,0,.67.37,2.67,2.67,0,0,0,1.14.18l10.17-1a1.75,1.75,0,0,0,1.58-1.74l-.08-5.76a2,2,0,0,1,1.05-.73,44.91,44.91,0,0,0,4.23-1.53,5.44,5.44,0,0,1,3.36-.2l.09,0,7.87,2.59a2,2,0,0,0,.42.09h.07a1.5,1.5,0,0,0,.47,0,3.5,3.5,0,0,0,2.16-.71l5.14-4.33a1.32,1.32,0,0,0,.51-.92l-.11-8.46a1.28,1.28,0,0,1-.5.88L299,425.58a3.06,3.06,0,0,1-1.14.57,3.61,3.61,0,0,1-2,0L288,423.59l-.09,0a5.47,5.47,0,0,0-3.37.18,40.54,40.54,0,0,1-4.23,1.53,2.21,2.21,0,0,0-1.5,2.32l.52,3.92a1.75,1.75,0,0,1-1.56,2l-10.17,1a2.55,2.55,0,0,1-1.14-.18,2.92,2.92,0,0,1-1.51-1.29l-2.08-4a3.17,3.17,0,0,0-.87-1,3.55,3.55,0,0,0-1.78-.76c-1.77-.16-3.55-.4-5.28-.72a4.93,4.93,0,0,0-3.28.63l-5.44,3.61a2.81,2.81,0,0,1-1.06.42A3.72,3.72,0,0,1,243,431l-8.18-3.4a1.24,1.24,0,0,1-.87-1.11Zm65.22-25.46a3,3,0,0,0-2.13,2.09,10.83,10.83,0,0,1-.66,1.77,1.85,1.85,0,0,0,.78,2.45l3.75,1.94,7.2-1.16a1.49,1.49,0,0,0,1.29-1.48h0l-.1-8.53a1.49,1.49,0,0,1-1.31,1.48Z" style="opacity:0.1"></path><path d="M288,423.59l7.86,2.58a3.61,3.61,0,0,0,2,0l.11,8.48a4.51,4.51,0,0,1-1,.16,1.5,1.5,0,0,1-.47,0h-.07a2,2,0,0,1-.42-.09l-7.87-2.59Z" style="fill:#e0e0e0"></path><path d="M262,428a3.17,3.17,0,0,1,.87,1l2.08,4a2.92,2.92,0,0,0,1.51,1.29l.1,8.5a3.66,3.66,0,0,1-.67-.37,2.6,2.6,0,0,1-.31-.25l0,0a1.84,1.84,0,0,1-.23-.25,1.61,1.61,0,0,1-.21-.3l-.06-.1-2.07-4a1.36,1.36,0,0,0-.23-.34,2.11,2.11,0,0,0-.19-.23,4.58,4.58,0,0,0-.46-.42v0Z" style="fill:#e0e0e0"></path><path d="M224.07,395.62a1.25,1.25,0,0,0,.76,1l6.58,3.4a1.84,1.84,0,0,1,.77,2.44,12.37,12.37,0,0,0-.64,1.79,3,3,0,0,1-2.14,2.07l-1.64.26-2.82-1.46a1.21,1.21,0,0,1-.75-1.06h0Z" style="fill:#e0e0e0"></path><path d="M219.26,409.33a1.79,1.79,0,0,0,.08.49l1.47,4.59a2.58,2.58,0,0,0,2.37,1.71l9.31-.28a3.61,3.61,0,0,1,1.45.31l.09,8.5a3.72,3.72,0,0,0-1.44-.3l-9.32.27a2.59,2.59,0,0,1-2.37-1.71l-1.45-4.58a1.67,1.67,0,0,1-.08-.53h0Z" style="fill:#e0e0e0"></path><path d="M234,426.5a1.24,1.24,0,0,0,.87,1.11L243,431a3.72,3.72,0,0,0,2.13.12l.11,8.49-.27.06a4.29,4.29,0,0,1-1.24,0,1.17,1.17,0,0,1-.27-.05,2.15,2.15,0,0,1-.36-.11l-8.19-3.42a1.4,1.4,0,0,1-.71-.58,1.19,1.19,0,0,1-.14-.52Z" style="fill:#e0e0e0"></path><path d="M229.73,390.32l-5.15,4.33a1.12,1.12,0,0,0,.25,2l6.58,3.4a1.84,1.84,0,0,1,.78,2.44,12.31,12.31,0,0,0-.65,1.78,2.94,2.94,0,0,1-2.14,2.08l-8.84,1.43a1.53,1.53,0,0,0-1.22,2.05l1.47,4.58a2.56,2.56,0,0,0,2.37,1.7l9.3-.27a4.61,4.61,0,0,1,3,1.34,24.88,24.88,0,0,0,2.25,2,1.61,1.61,0,0,1,.26,2.42l-3.65,3.94a1.19,1.19,0,0,0,.46,2L243,431a3.8,3.8,0,0,0,3.19-.29l5.44-3.63a5.11,5.11,0,0,1,3.28-.63q2.61.5,5.28.73a3.7,3.7,0,0,1,2.66,1.77l2.07,4a2.93,2.93,0,0,0,2.65,1.48l10.17-1a1.75,1.75,0,0,0,1.56-2l-.51-3.93a2.18,2.18,0,0,1,1.49-2.32,39.13,39.13,0,0,0,4.23-1.53,5.47,5.47,0,0,1,3.37-.18l8,2.61a3.64,3.64,0,0,0,3.12-.59l5.15-4.33a1.12,1.12,0,0,0-.25-2l-6.58-3.4a1.83,1.83,0,0,1-.77-2.44,12.69,12.69,0,0,0,.64-1.78,3,3,0,0,1,2.14-2.08l8.84-1.43a1.53,1.53,0,0,0,1.22-2.05l-1.46-4.58a2.58,2.58,0,0,0-2.38-1.7l-9.3.27a4.71,4.71,0,0,1-3-1.34,23.6,23.6,0,0,0-2.25-2,1.62,1.62,0,0,1-.26-2.42l3.65-3.94a1.19,1.19,0,0,0-.46-2l-8.19-3.4a3.8,3.8,0,0,0-3.19.29l-5.43,3.63a5.13,5.13,0,0,1-3.28.63c-1.74-.33-3.51-.57-5.29-.73a3.64,3.64,0,0,1-2.65-1.78l-2.08-4a2.94,2.94,0,0,0-2.65-1.47l-10.17,1a1.74,1.74,0,0,0-1.56,2l.52,3.93a2.19,2.19,0,0,1-1.5,2.31,41.41,41.41,0,0,0-4.23,1.54,5.47,5.47,0,0,1-3.37.18l-8-2.61A3.65,3.65,0,0,0,229.73,390.32Zm45.6,8.4c8.88,3.69,11.16,10.81,5.09,15.91s-18.18,6.24-27.05,2.55-11.15-10.82-5.09-15.91S266.46,395,275.33,398.72Z" style="fill:#ebebeb"></path></g><g id="freepik--gear--inject-61"><path d="M160,434h0a1,1,0,0,0,.59.85l2.25,1.16,1.31-.21a2.37,2.37,0,0,0,1.71-1.66,9,9,0,0,1,.52-1.42,1.47,1.47,0,0,0-.63-1.94l-5.24-2.72a1,1,0,0,1-.6-.82Zm19.22-2.25c-3,2.56-3.46,5.76-1.57,8.51a9.79,9.79,0,0,1,1.65-1.74c4.83-4.06,14.49-5,21.57-2a12.43,12.43,0,0,1,5.59,4.13c2.61-3.81.42-8.38-5.68-10.92C193.69,426.8,184,427.71,179.2,431.78ZM156.14,445h0a1.54,1.54,0,0,0,.07.42l1.16,3.65a2,2,0,0,0,1.89,1.36l7.43-.21a2.92,2.92,0,0,1,1.14.24h0a3.82,3.82,0,0,1,.64.32L171,448a1.3,1.3,0,0,0-.21-1.93,17.82,17.82,0,0,1-1.79-1.63,4,4,0,0,0-1.26-.82,3,3,0,0,0-1.16-.25l-7.42.23a2.08,2.08,0,0,1-1.89-1.36l-1.17-3.66a2,2,0,0,1-.07-.4Zm60.08-22.5a1.07,1.07,0,0,1-.31.58L213,426.19a1.28,1.28,0,0,0,.21,1.93,17.61,17.61,0,0,1,1.79,1.63,3.09,3.09,0,0,0,.62.48l.37-.41a1,1,0,0,0,.31-.73h0Zm-48.35,36.2a.82.82,0,0,0,.12.41,1.06,1.06,0,0,0,.56.47l6.53,2.72a1.31,1.31,0,0,0,.28.09l.22,0a3.28,3.28,0,0,0,1,0l.22,0h0a2.26,2.26,0,0,0,.84-.31l4.34-2.89a4,4,0,0,1,2.61-.5c1.39.27,2.8.45,4.21.58a2.71,2.71,0,0,1,1.42.61,2.47,2.47,0,0,1,.37.35.9.9,0,0,1,.15.19,1,1,0,0,1,.18.27l1.66,3.21,0,.07a1.46,1.46,0,0,0,.17.24,1.9,1.9,0,0,0,.19.21l0,0a1.64,1.64,0,0,0,.25.19,2.5,2.5,0,0,0,.53.3,2.22,2.22,0,0,0,.91.14l8.11-.76a1.38,1.38,0,0,0,1.25-1.39l-.06-4.59a1.71,1.71,0,0,1,.84-.59,32,32,0,0,0,3.37-1.22,4.38,4.38,0,0,1,2.68-.15l.07,0,6.27,2.06a1.4,1.4,0,0,0,.34.08h.06a1.15,1.15,0,0,0,.37,0,2.71,2.71,0,0,0,1.72-.56l4.1-3.46a1.06,1.06,0,0,0,.41-.73l-.09-6.75a1,1,0,0,1-.4.71l-4.1,3.45a2.43,2.43,0,0,1-.91.45,2.84,2.84,0,0,1-1.58,0l-6.27-2.06-.07,0a4.34,4.34,0,0,0-2.69.14,31.17,31.17,0,0,1-3.37,1.22,1.76,1.76,0,0,0-1.19,1.85l.41,3.13a1.39,1.39,0,0,1-1.24,1.59l-8.11.77a2.1,2.1,0,0,1-.91-.15,2.3,2.3,0,0,1-1.2-1l-1.66-3.22a2.5,2.5,0,0,0-.7-.8,2.88,2.88,0,0,0-1.42-.61c-1.41-.12-2.82-.32-4.21-.57a4,4,0,0,0-2.61.5l-4.33,2.88a2.22,2.22,0,0,1-.85.33,2.94,2.94,0,0,1-1.7-.09l-6.53-2.71a1,1,0,0,1-.68-.89Zm52-20.29a2.38,2.38,0,0,0-1.7,1.66,10.9,10.9,0,0,1-.52,1.41,1.47,1.47,0,0,0,.61,1.95l3,1.55L227,444a1.19,1.19,0,0,0,1-1.17h0l-.08-6.8a1.19,1.19,0,0,1-1,1.18Z" style="fill:#e6e6e6"></path><path d="M160,434h0a1,1,0,0,0,.59.85l2.25,1.16,1.31-.21a2.37,2.37,0,0,0,1.71-1.66,9,9,0,0,1,.52-1.42,1.47,1.47,0,0,0-.63-1.94l-5.24-2.72a1,1,0,0,1-.6-.82Zm19.22-2.25c-3,2.56-3.46,5.76-1.57,8.51a9.79,9.79,0,0,1,1.65-1.74c4.83-4.06,14.49-5,21.57-2a12.43,12.43,0,0,1,5.59,4.13c2.61-3.81.42-8.38-5.68-10.92C193.69,426.8,184,427.71,179.2,431.78ZM156.14,445h0a1.54,1.54,0,0,0,.07.42l1.16,3.65a2,2,0,0,0,1.89,1.36l7.43-.21a2.92,2.92,0,0,1,1.14.24h0a3.82,3.82,0,0,1,.64.32L171,448a1.3,1.3,0,0,0-.21-1.93,17.82,17.82,0,0,1-1.79-1.63,4,4,0,0,0-1.26-.82,3,3,0,0,0-1.16-.25l-7.42.23a2.08,2.08,0,0,1-1.89-1.36l-1.17-3.66a2,2,0,0,1-.07-.4Zm60.08-22.5a1.07,1.07,0,0,1-.31.58L213,426.19a1.28,1.28,0,0,0,.21,1.93,17.61,17.61,0,0,1,1.79,1.63,3.09,3.09,0,0,0,.62.48l.37-.41a1,1,0,0,0,.31-.73h0Zm-48.35,36.2a.82.82,0,0,0,.12.41,1.06,1.06,0,0,0,.56.47l6.53,2.72a1.31,1.31,0,0,0,.28.09l.22,0a3.28,3.28,0,0,0,1,0l.22,0h0a2.26,2.26,0,0,0,.84-.31l4.34-2.89a4,4,0,0,1,2.61-.5c1.39.27,2.8.45,4.21.58a2.71,2.71,0,0,1,1.42.61,2.47,2.47,0,0,1,.37.35.9.9,0,0,1,.15.19,1,1,0,0,1,.18.27l1.66,3.21,0,.07a1.46,1.46,0,0,0,.17.24,1.9,1.9,0,0,0,.19.21l0,0a1.64,1.64,0,0,0,.25.19,2.5,2.5,0,0,0,.53.3,2.22,2.22,0,0,0,.91.14l8.11-.76a1.38,1.38,0,0,0,1.25-1.39l-.06-4.59a1.71,1.71,0,0,1,.84-.59,32,32,0,0,0,3.37-1.22,4.38,4.38,0,0,1,2.68-.15l.07,0,6.27,2.06a1.4,1.4,0,0,0,.34.08h.06a1.15,1.15,0,0,0,.37,0,2.71,2.71,0,0,0,1.72-.56l4.1-3.46a1.06,1.06,0,0,0,.41-.73l-.09-6.75a1,1,0,0,1-.4.71l-4.1,3.45a2.43,2.43,0,0,1-.91.45,2.84,2.84,0,0,1-1.58,0l-6.27-2.06-.07,0a4.34,4.34,0,0,0-2.69.14,31.17,31.17,0,0,1-3.37,1.22,1.76,1.76,0,0,0-1.19,1.85l.41,3.13a1.39,1.39,0,0,1-1.24,1.59l-8.11.77a2.1,2.1,0,0,1-.91-.15,2.3,2.3,0,0,1-1.2-1l-1.66-3.22a2.5,2.5,0,0,0-.7-.8,2.88,2.88,0,0,0-1.42-.61c-1.41-.12-2.82-.32-4.21-.57a4,4,0,0,0-2.61.5l-4.33,2.88a2.22,2.22,0,0,1-.85.33,2.94,2.94,0,0,1-1.7-.09l-6.53-2.71a1,1,0,0,1-.68-.89Zm52-20.29a2.38,2.38,0,0,0-1.7,1.66,10.9,10.9,0,0,1-.52,1.41,1.47,1.47,0,0,0,.61,1.95l3,1.55L227,444a1.19,1.19,0,0,0,1-1.17h0l-.08-6.8a1.19,1.19,0,0,1-1,1.18Z" style="opacity:0.1"></path><path d="M210.85,449.57l6.27,2.06a2.84,2.84,0,0,0,1.58,0l.08,6.76a3.19,3.19,0,0,1-.81.13,1.15,1.15,0,0,1-.37,0h-.06a1.4,1.4,0,0,1-.34-.08l-6.27-2.06Z" style="fill:#e0e0e0"></path><path d="M190.12,453.05a2.5,2.5,0,0,1,.7.8l1.66,3.22a2.3,2.3,0,0,0,1.2,1l.08,6.78a2.5,2.5,0,0,1-.53-.3,1.64,1.64,0,0,1-.25-.19l0,0a1.9,1.9,0,0,1-.19-.21,1.46,1.46,0,0,1-.17-.24l0-.07-1.66-3.21a1,1,0,0,0-.18-.27.9.9,0,0,0-.15-.19,4,4,0,0,0-.37-.33v0Z" style="fill:#e0e0e0"></path><path d="M159.9,427.27a1,1,0,0,0,.6.82l5.24,2.72a1.45,1.45,0,0,1,.62,1.94,10.09,10.09,0,0,0-.51,1.42,2.35,2.35,0,0,1-1.71,1.66l-1.3.21-2.26-1.17A1,1,0,0,1,160,434h0Z" style="fill:#e0e0e0"></path><path d="M156.05,438.2a2,2,0,0,0,.07.4l1.17,3.66a2.08,2.08,0,0,0,1.89,1.36l7.42-.23a3,3,0,0,1,1.16.25l.07,6.78a2.92,2.92,0,0,0-1.14-.24l-7.43.21a2,2,0,0,1-1.89-1.36l-1.16-3.65a1.54,1.54,0,0,1-.07-.42h0Z" style="fill:#e0e0e0"></path><path d="M167.79,451.89a1,1,0,0,0,.68.89l6.53,2.71a2.94,2.94,0,0,0,1.7.09l.09,6.77-.22,0a3.28,3.28,0,0,1-1,0l-.22,0a1.31,1.31,0,0,1-.28-.09l-6.53-2.72a1.06,1.06,0,0,1-.56-.47.82.82,0,0,1-.12-.41Z" style="fill:#e0e0e0"></path><path d="M164.41,423.05l-4.11,3.45a.89.89,0,0,0,.2,1.59l5.24,2.72a1.45,1.45,0,0,1,.62,1.94,9.66,9.66,0,0,0-.51,1.42,2.37,2.37,0,0,1-1.71,1.66l-7,1.14a1.22,1.22,0,0,0-1,1.63l1.17,3.65a2,2,0,0,0,1.89,1.36l7.42-.21a3.65,3.65,0,0,1,2.41,1.06,19.13,19.13,0,0,0,1.8,1.63A1.29,1.29,0,0,1,171,448l-2.91,3.14a.94.94,0,0,0,.37,1.61l6.53,2.72a3,3,0,0,0,2.54-.24l4.34-2.89a4.14,4.14,0,0,1,2.61-.5c1.39.26,2.8.46,4.21.58a2.9,2.9,0,0,1,2.12,1.42l1.66,3.21a2.31,2.31,0,0,0,2.11,1.17l8.1-.76a1.39,1.39,0,0,0,1.25-1.59l-.41-3.13a1.73,1.73,0,0,1,1.19-1.84,33.48,33.48,0,0,0,3.37-1.23,4.34,4.34,0,0,1,2.69-.14l6.34,2.08a2.87,2.87,0,0,0,2.48-.47l4.11-3.45a.9.9,0,0,0-.2-1.6l-5.24-2.71a1.47,1.47,0,0,1-.62-1.95,11.47,11.47,0,0,0,.52-1.41,2.34,2.34,0,0,1,1.7-1.66l7-1.14a1.22,1.22,0,0,0,1-1.63L226.72,432a2.05,2.05,0,0,0-1.89-1.37l-7.42.22a3.72,3.72,0,0,1-2.41-1.06,17.85,17.85,0,0,0-1.8-1.63,1.29,1.29,0,0,1-.2-1.93l2.91-3.14a1,1,0,0,0-.37-1.62L209,418.72a3,3,0,0,0-2.54.23l-4.33,2.89a4,4,0,0,1-2.62.5c-1.39-.26-2.8-.45-4.21-.58a2.92,2.92,0,0,1-2.12-1.41l-1.65-3.21a2.34,2.34,0,0,0-2.11-1.18l-8.11.76a1.4,1.4,0,0,0-1.25,1.59l.41,3.14a1.73,1.73,0,0,1-1.19,1.84,31.17,31.17,0,0,0-3.37,1.22,4.34,4.34,0,0,1-2.69.15l-6.34-2.08A2.88,2.88,0,0,0,164.41,423.05Zm36.35,6.7c7.08,2.94,8.89,8.62,4.06,12.68s-14.5,5-21.57,2-8.89-8.62-4.05-12.68S193.69,426.8,200.76,429.75Z" style="fill:#ebebeb"></path></g></g><g id="freepik--Puzzle--inject-61"><g id="freepik--puzzle--inject-61"><path d="M319.64,44.79,291.18,28.36a4.32,4.32,0,0,0-4.42.35L66.89,155.65c-3.73,2.15-6.75,7.93-6.75,12.9V421.88c0,2.71.9,4.62,2.32,5.45,1.18.69,27,15.64,28.5,16.46a4.36,4.36,0,0,0,4.37-.38l219.87-127c3.73-2.15,6.75-7.92,6.75-12.89V50.24C322,47.53,321.05,45.62,319.64,44.79Zm-72.12,152a3.54,3.54,0,0,1-2.73.39c-.15,0-.31-.1-.47-.17h0c-.13-.06-.27-.12-.41-.2l-.07,0h0c-1.92-1.13-4.9-1-6.92,3.16-2.8,5.73-2.85,19-2,38.51l-3,1.82-9.68-5.59c-.08-4.31-1.3-7.38-3.08-8.43h0l-14.2-8.2c.11-1.88.23-3.87.36-5.92.26-4.25.54-8.65.74-13.26,2.41-1.39,4.72-2.65,6.76-3.77s3.66-2,5.27-2.93c5.29-3.06,8.89-5.7,10.64-9.53a10.78,10.78,0,0,0-.54-10.36,7.5,7.5,0,0,1-1.15-2.66l7.86,4.54c.15,5,.72,8.41,2.08,9.61a3.07,3.07,0,0,0,.36.27l13.83,8A10,10,0,0,1,247.52,196.81Z" style="fill:#37474f"></path><path d="M91,443.81l0,0C89.5,443,63.64,428,62.45,427.33c-1.42-.83-2.31-2.74-2.31-5.45V168.55a16.79,16.79,0,0,1,2.13-7.79l28.44,16.42A16.76,16.76,0,0,0,88.58,185V438.3C88.58,441.06,89.52,443,91,443.81Z" style="fill:#263238"></path><path d="M315.2,45.14,95.33,172.08C91.6,174.23,88.58,180,88.58,185V438.3c0,5,3,7.26,6.75,5.11l219.87-127c3.73-2.15,6.75-7.92,6.75-12.89V50.24C322,45.27,318.93,43,315.2,45.14ZM247.52,196.81a3.54,3.54,0,0,1-2.73.39c-.15,0-.31-.1-.47-.17h0c-.13-.06-.27-.12-.41-.2l-.07,0h0c-1.92-1.13-4.9-1-6.92,3.16-2.8,5.73-2.85,19-2,38.51l-3,1.82-9.68-5.59c-.08-4.31-1.3-7.38-3.08-8.43h0l-14.2-8.2c.11-1.88.23-3.87.36-5.92.26-4.25.54-8.65.74-13.26,2.41-1.39,4.72-2.65,6.76-3.77s3.66-2,5.27-2.93c5.29-3.06,8.89-5.7,10.64-9.53a10.78,10.78,0,0,0-.54-10.36,7.5,7.5,0,0,1-1.15-2.66l7.86,4.54c.15,5,.72,8.41,2.08,9.61a3.07,3.07,0,0,0,.36.27l13.83,8A10,10,0,0,1,247.52,196.81Z" style="fill:#455a64"></path><path d="M251.08,192a10,10,0,0,1-3.56,4.8,3.54,3.54,0,0,1-2.73.39c-.15,0-.31-.1-.47-.17h0c-.13-.06-.27-.12-.41-.2l-.07,0h0c-1.92-1.13-4.9-1-6.92,3.16-2.8,5.73-2.85,19-2,38.51l-3,1.82-9.68-5.59c-.08-4.31-1.3-7.38-3.08-8.43h0l-14.2-8.2c.11-1.88.23-3.87.36-5.92.26-4.25.54-8.65.74-13.26,2.41-1.39,4.72-2.65,6.76-3.77s3.66-2,5.27-2.93c5.29-3.06,8.89-5.7,10.64-9.53a10.78,10.78,0,0,0-.54-10.36,7.5,7.5,0,0,1-1.15-2.66l7.86,4.54c.15,5,.72,8.41,2.08,9.61a3.07,3.07,0,0,0,.36.27Z" style="fill:#fff"></path><line x1="239.16" y1="244.49" x2="231.85" y2="240.27" style="fill:none"></line><path d="M239.69,165.58c-1.46,3.81-2.48,9-.54,11a2.07,2.07,0,0,0,.47.37l-4.81-2.78-7.88-4.55a9.91,9.91,0,0,1-.25-2.22,16,16,0,0,1,7.21-12.5c4-2.3,7.21-.42,7.21,4.18A18.64,18.64,0,0,1,239.69,165.58Z" style="fill:#263238"></path><path d="M219.09,226.25a3,3,0,0,0-3.11.13c-1,.56-2.47,1.84-4.18,4.82s-4.25,5.85-5.93,4.35-1.53-8.32-1-17.51Z" style="fill:#37474f"></path><path d="M239.16,244.49c-1.44-.83-3.4-.72-5.55.52-4.4,2.54-8,8.89-8,14.14a10.29,10.29,0,0,0,1,4.53h0a3.14,3.14,0,0,0,.27.51c.09.16.19.33.3.49a9.09,9.09,0,0,1,.6,8.78c-1.79,3.92-6.36,6.21-12.69,9.38-2.72,1.36-9.42,5-9.42,5-.19-4.14-.43-8-.65-11.43-.7-10.88-1.2-18.74.84-22.92a7.59,7.59,0,0,1,.39-.7l.2-.31.21-.29a3.75,3.75,0,0,1,5.13-1.2,4,4,0,0,0,4.18,0c3.41-2,6.19-9.09,6.19-15.86v-.42l9.68,5.59Z" style="fill:#37474f"></path><path d="M262.88,254.61c-3.74,2.17-7.16,4.42-10.19,6.41-6.68,4.39-11.5,7.55-13.27,5.72-1.6-1.65-.67-6.14.61-9.48a20.73,20.73,0,0,0,1.56-7.32c0-2.69-.93-4.58-2.43-5.45l-7.31-4.22,3-1.82Z" style="fill:#263238"></path><path d="M280.92,198.74c0,6.12-2.43,12.5-5.41,14.23a3.57,3.57,0,0,1-2.27.48,3.14,3.14,0,0,1-.4-.08,3.3,3.3,0,0,1-.62-.22,3,3,0,0,1-.4-.2h0c-1.93-1.13-4.9-1-6.93,3.16-2.8,5.73-2.84,19-2,38.51l-28-16.16c-.85-19.53-.8-32.78,2-38.51,2-4.14,5-4.29,6.92-3.16h0l.07,0,.16.09.25.11h0c.16.07.32.12.47.17a3.54,3.54,0,0,0,2.73-.39,10,10,0,0,0,3.56-4.8l14.15,8.17c2,1.17,4.75-1.93,6.57-5.1,1.54-2.68,2.86-3.82,3.71-4.3C278.49,189.05,280.92,192.63,280.92,198.74Z" style="fill:#37474f"></path><path d="M265.23,200.18,251.08,192l-13.83-8a3.07,3.07,0,0,1-.36-.27c-1.36-1.2-1.93-4.59-2.08-9.61l4.81,2.78c2.57,1.5,8.5-2.1,16.51-7,2.34-1.42,4.76-2.88,7.35-4.39l-.17,3.79c-.71,16.3-1.23,28.08,1.56,30.56A2.7,2.7,0,0,0,265.23,200.18Z" style="fill:#37474f"></path><path d="M227.79,273.46c-1.79,3.92-6.36,6.21-12.69,9.38-2.72,1.36-9.42,5-9.42,5-.19-4.14-.43-8-.65-11.43-.7-10.88-1.2-18.74.84-22.92a7.59,7.59,0,0,1,.39-.7l.2-.31.21-.29,19.94,11.52h0q.12.26.27.51c.09.16.19.33.3.49A9.09,9.09,0,0,1,227.79,273.46Z" style="fill:#263238"></path><path d="M231.84,240.27c1.27.61,2.5,1.31,3.72,2s2.43,1.43,3.59,2.22c-1.27-.61-2.49-1.31-3.71-2S233,241.06,231.84,240.27Z" style="fill:#37474f"></path><path d="M280.92,198.74c0,6.12-2.43,12.5-5.41,14.23a3.57,3.57,0,0,1-2.27.48,3.14,3.14,0,0,1-.4-.08,3.3,3.3,0,0,1-.62-.22,3,3,0,0,1-.4-.2h0l-27.74-16-.16-.09c.14.08.28.14.41.2h0c.16.07.32.12.47.17a3.54,3.54,0,0,0,2.73-.39,10,10,0,0,0,3.56-4.8l14.15,8.17c2,1.17,4.75-1.93,6.57-5.1,1.54-2.68,2.86-3.82,3.71-4.3C278.49,189.05,280.92,192.63,280.92,198.74Z" style="fill:#263238"></path><path d="M315.2,45.14,95.33,172.08C91.6,174.23,88.58,180,88.58,185V438.3c0,5,3,7.26,6.75,5.11l219.87-127c3.73-2.15,6.75-7.92,6.75-12.89V50.24C322,45.27,318.93,43,315.2,45.14Zm-51.74,30.4c.91,20.8.21,33.25-2.13,38-1.67,3.43-4.24,3.48-5.93,2.49a4,4,0,0,0-4.17,0c-3.41,2-6.19,9.08-6.19,15.86s2.78,10.68,6.19,8.71c1-.55,2.47-1.84,4.17-4.81s4.26-5.85,5.93-4.35c2.46,2.19,2.37,12.27,2.23,27.54,0,1.71,0,3.48-.05,5.33-2.61,1.51-5,3-7.4,4.42-8.34,5.07-14.38,8.73-16.4,6.63-1.6-1.65-.68-6.14.6-9.47a20.81,20.81,0,0,0,1.56-7.33c0-5.26-3.58-7.47-8-4.93s-8,8.89-8,14.14a9.86,9.86,0,0,0,1.56,5.53,9.12,9.12,0,0,1,.61,8.78c-2.05,4.47-7.62,7.53-15.34,11.76-2,1.11-4.33,2.37-6.74,3.76,0-1.75,0-3.46,0-5.12.15-16.51.26-28.43-2.46-30.86-2-1.8-5,1.48-6.93,4.84-1.54,2.68-2.86,3.82-3.7,4.31-3,1.72-5.42-1.85-5.42-8s2.43-12.5,5.42-14.22a3.49,3.49,0,0,1,3.7,0c1.93,1.13,4.91,1,6.93-3.16,3-6.17,3.14-19.15,2.37-36.75Zm-.58,179.07c-3.74,2.18-7.16,4.42-10.19,6.41-6.68,4.39-11.5,7.55-13.27,5.72-1.6-1.65-.67-6.14.61-9.48a20.73,20.73,0,0,0,1.56-7.32c0-5.26-3.58-7.47-8-4.93s-8,8.89-8,14.14a9.86,9.86,0,0,0,1.56,5.53,9.09,9.09,0,0,1,.6,8.78c-1.79,3.92-6.36,6.21-12.69,9.37-2.72,1.37-9.42,5-9.42,5-.19-4.14-.43-8-.65-11.43-.7-10.88-1.2-18.74.84-22.92,1.67-3.43,4.24-3.49,5.93-2.5a4,4,0,0,0,4.18,0c3.41-2,6.19-9.09,6.19-15.87,0-.27,0-.54,0-.8s0-.57-.05-.85,0-.34,0-.51c0-.37-.08-.73-.14-1.08,0-.06,0-.13,0-.19-.08-.42-.16-.82-.26-1.2l-.06-.21c-.08-.31-.18-.61-.28-.89a2,2,0,0,0-.08-.22,7.59,7.59,0,0,0-.36-.81l-.05-.12a6.83,6.83,0,0,0-.5-.8l0,0a5.45,5.45,0,0,0-.49-.56,1.29,1.29,0,0,0-.17-.16q-.19-.17-.39-.3a3,3,0,0,0-3.25,0c-1,.56-2.47,1.84-4.18,4.82s-4.25,5.84-5.93,4.35c-2-1.79-1.4-11.34-.65-23.43.27-4.26.54-8.65.75-13.26h0c1.37-.79,2.7-1.53,4-2.24l2.79-1.53.88-.49,2.41-1.33c.68-.38,1.34-.75,2-1.12,5.3-3.05,8.9-5.69,10.65-9.52a11.77,11.77,0,0,0,.88-2.85,10.82,10.82,0,0,0-.45-5.56v0h0a8.53,8.53,0,0,0-1-1.91,8.7,8.7,0,0,1-1.41-4.89,16,16,0,0,1,7.21-12.5c4-2.3,7.21-.42,7.21,4.17a18.32,18.32,0,0,1-1.41,6.52c-1.46,3.82-2.48,9-.54,11,2.26,2.34,8.43-1.41,17-6.6,2.34-1.42,4.76-2.89,7.35-4.39l-.17,3.79c-.71,16.3-1.22,28.08,1.56,30.56,2,1.81,5-1.48,6.93-4.84,1.54-2.68,2.86-3.82,3.71-4.31,3-1.72,5.41,1.85,5.41,8s-2.43,12.5-5.41,14.23a3.54,3.54,0,0,1-3.71,0c-1.93-1.13-4.9-1-6.93,3.16C262.07,221.83,262,235.08,262.88,254.61Zm-116,29.82c-2-1.8-5,1.48-6.93,4.84a11.26,11.26,0,0,1-3.71,4.31c-3,1.72-5.42-1.85-5.42-8s2.43-12.5,5.42-14.22a3.51,3.51,0,0,1,3.71,0c1.93,1.13,4.9,1,6.93-3.16,2.49-5.09,2-13.85,1.3-27.1q-.22-4.05-.44-8.6c2.64-1.53,5.1-3,7.28-4.35,7.78-4.74,12.93-7.87,14.94-5.78,1.6,1.65.68,6.14-.6,9.48a20.77,20.77,0,0,0-1.56,7.32c0,5.26,3.58,7.47,8,4.93s8-8.89,8-14.14a9.86,9.86,0,0,0-1.56-5.53,9.12,9.12,0,0,1-.61-8.78c2.06-4.5,8.58-8.08,16.84-12.62,2.17-1.19,4.42-2.43,6.77-3.78-.2,4.56-.47,8.93-.74,13.14-.8,12.92-1.39,22.25.89,24.28,2,1.8,5-1.48,6.93-4.84,1.54-2.68,2.86-3.82,3.71-4.31,3-1.72,5.41,1.85,5.41,8S219,248,216,249.76a3.51,3.51,0,0,1-3.71,0c-1.93-1.13-4.9-1-6.93,3.16-2.32,4.75-1.83,12.42-1.08,24,.21,3.38.46,7.2.64,11.28l-2.3,1.33c-10.7,6.21-17.17,10-19.61,7.44-1.6-1.65-.67-6.14.6-9.48a20.65,20.65,0,0,0,1.57-7.32c0-5.26-3.58-7.47-8-4.93s-8,8.88-8,14.14a9.83,9.83,0,0,0,1.57,5.52,9.12,9.12,0,0,1,.6,8.78c-2.48,5.43-10.73,10.18-21.16,16.19l-1.69,1c0-4.31.12-8.48.21-12.17C149,295.81,149.2,286.51,146.87,284.43Zm58.3-175.24c.66,15,.84,29.67-2.12,35.75-1.67,3.42-4.24,3.48-5.93,2.49a4,4,0,0,0-4.17,0c-3.42,2-6.2,9.08-6.2,15.86S189.53,174,193,172c1-.55,2.46-1.84,4.17-4.81s4.26-5.85,5.93-4.36c2.47,2.21,2.36,13.92,2.22,30.12,0,1.67,0,3.38-.05,5.13-2.36,1.36-4.61,2.6-6.79,3.79-8.78,4.83-15.12,8.31-17.41,13.32a10.74,10.74,0,0,0,.55,10.36,8.7,8.7,0,0,1,1.41,4.89A16,16,0,0,1,175.77,243c-4,2.29-7.21.42-7.21-4.18a18.36,18.36,0,0,1,1.41-6.52c1.46-3.82,2.48-9,.54-11-2.25-2.33-7.53.89-15.52,5.75-2.19,1.33-4.66,2.83-7.31,4.37-.18-3.82-.4-7.42-.61-10.91-.72-12-1.3-21.49.8-25.78,1.67-3.42,4.24-3.48,5.93-2.49a4,4,0,0,0,4.17,0c3.41-2,6.19-9.08,6.19-15.86s-2.78-10.68-6.19-8.71c-1,.55-2.46,1.84-4.17,4.81s-4.26,5.85-5.93,4.35c-2-1.74-1.43-9.75-.7-20.85.27-4.12.58-8.79.8-13.72ZM89,185c0-4.81,2.93-10.42,6.52-12.49l51.63-29.81c-.22,4.88-.52,9.5-.79,13.59-.75,11.45-1.3,19.71.93,21.71,2,1.8,5-1.48,6.93-4.85a11.29,11.29,0,0,1,3.71-4.3c3-1.72,5.42,1.85,5.42,8S161,189.29,158,191a3.51,3.51,0,0,1-3.71,0c-1.93-1.13-4.9-1-6.93,3.16-2.36,4.84-1.8,14.08-1,26.88.21,3.45.42,7,.6,10.81-2.42,1.39-4.74,2.66-7,3.88-8.66,4.74-14.91,8.16-17.19,13.14a10.72,10.72,0,0,0,.55,10.35,8.73,8.73,0,0,1,1.41,4.9,16,16,0,0,1-7.21,12.5c-4,2.29-7.21.42-7.21-4.18a18.36,18.36,0,0,1,1.41-6.52c1.46-3.81,2.48-9,.54-11-2.25-2.34-7.7,1-15.94,6-2.18,1.32-4.63,2.81-7.24,4.32Zm0,81.46c2.61-1.51,5.07-3,7.25-4.33,8-4.89,13.35-8.12,15.37-6,1.6,1.66.68,6.14-.6,9.48a20.77,20.77,0,0,0-1.56,7.33c0,5.25,3.58,7.46,8,4.92s8-8.88,8-14.14a9.83,9.83,0,0,0-1.56-5.52,9.12,9.12,0,0,1-.61-8.78c2-4.46,8.47-8,16.62-12.44,2.25-1.23,4.59-2.52,7-3.92h0c.14,3.06.3,6,.45,8.69.67,12.46,1.15,21.46-1.07,26-1.67,3.43-4.24,3.49-5.93,2.5a4,4,0,0,0-4.17,0c-3.41,2-6.19,9.09-6.19,15.87s2.78,10.68,6.19,8.71c1-.56,2.47-1.84,4.17-4.82s4.26-5.84,5.93-4.35c2.08,1.86,1.89,10.93,1.61,23.49-.08,3.7-.17,7.87-.2,12.2l-.53.25v.06l-1.82,1C134.5,329,125.9,334,123.46,331.43c-1.6-1.65-.67-6.14.6-9.48a20.8,20.8,0,0,0,1.57-7.32c0-5.26-3.58-7.47-8-4.93s-8,8.89-8,14.14a9.88,9.88,0,0,0,1.57,5.53,9.12,9.12,0,0,1,.6,8.78c-2.48,5.42-10.73,10.17-21.16,16.18l-1.63.94ZM95.1,443a3.9,3.9,0,0,1-3.95.35c-1.34-.77-2.11-2.61-2.11-5.06V356.46l1.63-.94,2-1.14c10-5.78,17.2-10.17,19.74-15.73a10.74,10.74,0,0,0-.55-10.36,8.66,8.66,0,0,1-1.4-4.89,16,16,0,0,1,7.2-12.5c4-2.3,7.21-.42,7.21,4.17a18.52,18.52,0,0,1-1.4,6.52c-1.46,3.82-2.48,9-.55,11,2.67,2.76,11-2.05,22.49-8.73l1.77-1c-.76,18-1.24,31,1.72,33.67,2,1.8,5-1.48,6.93-4.85a11.29,11.29,0,0,1,3.71-4.3c3-1.73,5.42,1.85,5.42,8s-2.43,12.5-5.42,14.22a3.51,3.51,0,0,1-3.71,0c-1.93-1.14-4.9-1-6.93,3.16-3,6.17-2.74,23-2,40.43Zm110.16-68.62c0,1.64,0,3.33,0,5l-57.54,33.22c-.72-16.35-1.06-33.71,1.74-39.43,1.67-3.43,4.24-3.48,5.93-2.49a4,4,0,0,0,4.17,0c3.41-2,6.19-9.08,6.19-15.86s-2.78-10.68-6.19-8.71c-1,.55-2.46,1.84-4.17,4.81s-4.26,5.85-5.93,4.35c-2.71-2.41-2.21-15.82-1.48-32.94l.17-.1h0l2.09-1.2,2-1.15c10-5.77,17.19-10.16,19.73-15.73a10.72,10.72,0,0,0-.55-10.35,8.71,8.71,0,0,1-1.4-4.9,16,16,0,0,1,7.2-12.5c4-2.29,7.21-.42,7.21,4.18a18.52,18.52,0,0,1-1.4,6.52c-1.46,3.82-2.48,9-.55,11,2.66,2.76,9.26-1.07,20.17-7.4l2.6-1.5c.64,14.8.77,29.13-2.15,35.12-1.67,3.42-4.24,3.49-5.93,2.5a3.93,3.93,0,0,0-4.17,0c-3.42,2-6.2,9.09-6.2,15.86s2.78,10.69,6.2,8.72c1-.56,2.46-1.85,4.17-4.82s4.26-5.84,5.93-4.35C205.53,344.47,205.41,358.33,205.26,374.39Zm58.13-36c0,2.4-.06,4.92-.08,7.52L206,379c0-1.7,0-3.38,0-5,.15-17,.27-30.43-2.46-32.86-2-1.81-5,1.48-6.93,4.84-1.54,2.68-2.86,3.82-3.7,4.3-3,1.73-5.42-1.85-5.42-8S190,329.77,193,328a3.5,3.5,0,0,1,3.7,0c1.93,1.13,4.91,1,6.93-3.17,3-6.09,3.13-18.82,2.4-36.07,3.33-1.9,6.38-3.43,9.08-4.78,2.31-1.16,4.35-2.18,6.12-3.2,3.42-2,5.83-4,7.17-6.9a10.7,10.7,0,0,0-.54-10.35,8.64,8.64,0,0,1-1.41-4.89,16,16,0,0,1,7.21-12.51c4-2.29,7.2-.42,7.2,4.18a18.52,18.52,0,0,1-1.4,6.52c-1.46,3.82-2.48,9-.55,11s6.73-1,13.87-5.7c3.13-2.06,6.68-4.39,10.56-6.63h0l.19-.1c.87,20.49.17,32.78-2.15,37.53-1.67,3.43-4.24,3.49-5.93,2.5a4,4,0,0,0-4.17,0c-3.41,2-6.19,9.09-6.19,15.86s2.78,10.69,6.19,8.72c1-.56,2.47-1.84,4.17-4.82s4.26-5.84,5.93-4.35C263.68,313,263.56,323.64,263.39,338.37Zm58.1-34.8c0,4.81-2.93,10.42-6.52,12.49l-50.89,29.38c0-2.59.05-5.1.08-7.49.18-15.6.3-25.91-2.29-28.22-2-1.8-5,1.48-6.93,4.84a11.26,11.26,0,0,1-3.71,4.31c-3,1.72-5.42-1.85-5.42-8s2.43-12.5,5.42-14.23a3.54,3.54,0,0,1,3.71,0c1.93,1.13,4.9,1,6.93-3.16,2.52-5.18,3.28-17.45,2.38-38.53,2.16-1.23,4.21-2.37,6.19-3.46s3.78-2.07,5.46-3c5.5-3.18,9.45-6,11.2-9.84a10.74,10.74,0,0,0-.55-10.36,8.7,8.7,0,0,1-1.4-4.89,16,16,0,0,1,7.2-12.51c4-2.29,7.21-.42,7.21,4.18a18.36,18.36,0,0,1-1.41,6.52c-1.46,3.82-2.47,9-.54,11,2.23,2.31,7.59-1,15.71-5.93,2.13-1.31,5.5-3.33,8.17-4.88Zm0-83c-2.68,1.56-6.05,3.59-8.19,4.9-7.92,4.84-13.14,8-15.13,6-1.6-1.65-.67-6.14.6-9.48a20.73,20.73,0,0,0,1.56-7.32c0-5.26-3.57-7.47-8-4.93s-8,8.89-8,14.14a9.86,9.86,0,0,0,1.56,5.53,9.09,9.09,0,0,1,.61,8.78c-2.05,4.48-8.25,7.88-16.08,12.18-2.17,1.19-4.41,2.43-6.8,3.8-.67-15.16-1.11-31.66,1.74-37.5,1.67-3.43,4.24-3.49,5.93-2.5a4,4,0,0,0,4.18,0c3.41-2,6.19-9.09,6.19-15.86s-2.78-10.69-6.19-8.72c-1,.56-2.47,1.84-4.18,4.82s-4.25,5.84-5.93,4.35c-2.52-2.25-2-13.78-1.31-29.75l.16-3.88h0c2.47-1.44,4.74-2.81,6.81-4.06,7.84-4.73,13-7.85,15.07-5.72,1.59,1.65.67,6.14-.61,9.48a20.73,20.73,0,0,0-1.56,7.32c0,5.26,3.58,7.47,8,4.93s8-8.89,8-14.14a9.86,9.86,0,0,0-1.56-5.53,9.09,9.09,0,0,1-.6-8.78c2-4.49,8.57-8.08,16.83-12.62,2-1.11,4.62-2.55,6.87-3.84Zm0-89.64c-2.25,1.29-4.83,2.72-6.86,3.83-8.77,4.83-15.12,8.31-17.4,13.32a10.72,10.72,0,0,0,.54,10.36,8.7,8.7,0,0,1,1.41,4.89A16,16,0,0,1,292,175.87c-4,2.29-7.21.42-7.21-4.18a18.6,18.6,0,0,1,1.41-6.52c1.46-3.82,2.48-9,.54-11-2.28-2.37-7.31.67-15.63,5.69-2.06,1.24-4.33,2.61-6.8,4,0-1.84,0-3.61.05-5.31.15-16.14.24-25.87-2.46-28.28-2-1.81-5,1.48-6.93,4.84-1.54,2.67-2.87,3.82-3.71,4.3-3,1.73-5.42-1.85-5.42-8s2.43-12.5,5.42-14.22a3.51,3.51,0,0,1,3.71,0c1.93,1.14,4.9,1,6.93-3.16,2.54-5.21,3.3-17.63,2.36-39l51.2-29.55a4.94,4.94,0,0,1,2.45-.75,3,3,0,0,1,1.51.39c1.33.77,2.1,2.61,2.1,5.06Z" style="fill:#37474f"></path></g></g><g id="freepik--Character--inject-61"><g id="freepik--character--inject-61"><g id="freepik--Bottom--inject-61"><path d="M440.68,394.32c-.69-11.44-1.05-16.79-2-37.23h0c-.05-5.23-.19-10.84-.5-15.83-1.05-16.77-3.17-20.78-4.57-26.54s-2.47-16.53-4.37-52.6a185.19,185.19,0,0,0-6.32-40.78l-51.63-.42c-5.49,22.55-7.4,71.48-7.44,94.77,0,11.88-.39,73.24-.72,78.14a16.55,16.55,0,0,1-5.06,10.6c-4.29,4.53-7.36,6.35-12.72,10.29.75,2,11.93,2.06,15.12.54a117.46,117.46,0,0,0,13.4-7.73c4.41-3.21,5.45-5.16,5.56-10.09a13.57,13.57,0,0,0,0-1.61c.11-2.89,8.77-45.81,10.66-55.51,1.47-7.53.05-22.14.05-22.14l5.76-35.88s6,23.89,9.16,38.44c2.33,10.69,8.19,27.6,12,44.7h0c4.44,17.38,4.79,18.91,7.4,31.36,1.31,6.28,4.47,27.37,5.95,31.71,4.79,14,15.94,7.17,16.63-.56C447.47,422.81,440.83,396.79,440.68,394.32Z" style="fill:#ffa8a7"></path><path d="M333.49,420.41c-.29,0-.78,3.17.76,4.56,1.79,1.6,7.07,4.27,14.12,3.49s10.92-2.88,13.78-5.18,6.87-5.56,10.07-6.2c3-.6,7.81-2.17,8.78-3.07s.91-5,.91-5Z" style="fill:#263238"></path><path d="M379.53,394.74a2.14,2.14,0,0,1,1.1,1.41c.2,1.12.18,2.56.61,4.4a33.05,33.05,0,0,1,.51,9.89c-.43,2.08-6.89,3.73-10,4.85a39.24,39.24,0,0,0-10.1,6.11c-3.36,2.67-10.37,5.27-15,5.25-7,0-11.51-2-12.86-4.56-1.68-3.14-.75-6.36,7.37-9.94,1.53-.67,6.94-3.74,8.79-4.85a41,41,0,0,0,5.55-4,31.37,31.37,0,0,0,2.51-2.38,11.17,11.17,0,0,0,2.09-2.57c.09-.21.16-.45.24-.67a12.69,12.69,0,0,0,.57-1.88c.14-.67.24-1.64.88-2s10.61,1.77,11.29,2.9a6,6,0,0,1,.61,2.93c0,.47,0,.94,0,1.41,0,.2-.09.56.19.48s.58-.77.69-1c.23-.52.39-1.08.64-1.59a4.83,4.83,0,0,1,1-1.69c1.37-1.1,2.66-.85,3.05-1.23C379.32,396,379.48,395.14,379.53,394.74Z" style="fill:#37474f"></path><path d="M340.76,412.35c10.13.89,12.81,9,13.17,12.93a24,24,0,0,1-7.23,1.37c-7,0-11.8-2-13.15-4.56C332,419.12,333.52,415,340.76,412.35Z" style="fill:#fafafa"></path><path d="M355.57,414.57a.45.45,0,0,0,.31-.11.48.48,0,0,0,.08-.69c-1.38-1.76-5.87-5.56-9.57-5.22a.49.49,0,1,0,.09,1c3.45-.3,7.61,3.46,8.71,4.85A.47.47,0,0,0,355.57,414.57Z" style="fill:#f0f0f0"></path><path d="M360,412.11a.5.5,0,0,0,.32-.11.49.49,0,0,0,.08-.69c-1.38-1.76-5.88-5.57-9.57-5.23a.5.5,0,0,0-.45.54.49.49,0,0,0,.54.45c3.44-.3,7.61,3.46,8.7,4.85A.5.5,0,0,0,360,412.11Z" style="fill:#f0f0f0"></path><path d="M364.08,409.28a.5.5,0,0,0,.32-.11.49.49,0,0,0,.08-.69c-1.38-1.76-5.89-5.56-9.57-5.23a.51.51,0,0,0-.45.54.5.5,0,0,0,.54.45c3.44-.3,7.61,3.46,8.7,4.85A.5.5,0,0,0,364.08,409.28Z" style="fill:#f0f0f0"></path><path d="M368.1,406.45a.5.5,0,0,0,.31-.1.51.51,0,0,0,.1-.7c-1.9-2.49-6.73-5.62-10.42-5.29a.5.5,0,1,0,.09,1c3.32-.3,7.86,2.7,9.54,4.9A.5.5,0,0,0,368.1,406.45Z" style="fill:#f0f0f0"></path><path d="M428.85,430.1c.76,4.73,1.82,7.8,3.79,10.42s5.25,3.16,8.38,2,7-3.75,7.55-7.94.75-7.06-.44-11.39Z" style="fill:#263238"></path><path d="M440.68,394.32c1.34,0,1.63,6.3,3.05,12.61,1.52,6.77,2.79,9.38,4.1,14.92,1.49,6.33.73,9.3-1.12,13.41s-9.42,8.73-13.91,3.58c-3.66-4.2-4.31-9.21-4.67-15.65a93.45,93.45,0,0,0-2.53-16c-1.09-5.12-2.27-9.77-1.17-10.42a45.58,45.58,0,0,0,1.31,5.1c.17.34.78,1.18.84-.18,0-.4-.19-1.31-.2-1.7a1.69,1.69,0,0,1,1.05-1.66,12.63,12.63,0,0,1,5.53-1.82c2.59-.28,4.82-.6,6.34,0,.92.36,1,1.19,1.16,2,.21,1,.29,1.55.5,1.33C441.4,399.41,440.61,395,440.68,394.32Z" style="fill:#37474f"></path><path d="M448.58,425.53a16.12,16.12,0,0,1-1.48,10c-1.85,4.11-10.06,8.81-14.55,3.65-2.23-2.56-3.09-5.77-3.7-9.08C430.76,425.58,444.5,422.26,448.58,425.53Z" style="fill:#fafafa"></path><path d="M431,422.83a.52.52,0,0,0,.16-.06c.05,0,5.93-3.2,12.05-2.43a.5.5,0,0,0,.55-.43.49.49,0,0,0-.43-.55c-6.47-.82-12.47,2.43-12.69,2.56a.49.49,0,0,0-.16.68A.48.48,0,0,0,431,422.83Z" style="fill:#f0f0f0"></path><path d="M442.45,415.59a.5.5,0,0,0,0-1c-6.16-1.4-12.45,2.3-12.68,2.45a.5.5,0,0,0,.54.83c.06,0,6.19-3.63,11.92-2.31A.74.74,0,0,0,442.45,415.59Z" style="fill:#f0f0f0"></path><path d="M441.78,411.1a.49.49,0,0,0,0-1c-6.79-1.68-12.72,2.27-12.93,2.44a.48.48,0,0,0-.1.69.49.49,0,0,0,.69.1c.05,0,5.78-3.83,12.1-2.27A.41.41,0,0,0,441.78,411.1Z" style="fill:#f0f0f0"></path><path d="M441,406.7a.5.5,0,0,0,0-1c-6.36-1.66-12.76,2.42-13,2.59a.5.5,0,0,0-.11.69.48.48,0,0,0,.69.11s6.26-4,12.17-2.43A.6.6,0,0,0,441,406.7Z" style="fill:#ebebeb"></path><path d="M427.05,221.37c1.82,14.11,2.4,17.58,4.25,49,1.79,30.46,1.92,34.92,2.19,38.59.62,8.42,4.33,11.36,5.25,31.22.85,18.19,1.26,40.64,1.26,40.64s-2.47,3.34-9.4,3.91c-6.4.52-9.58-1.91-9.58-1.91s-11.5-42.49-14.72-53.2c-4.37-14.53-10.47-40-10.47-40l-4.41,29.08s1.23,13.95-1.59,27.09c-3.48,16.3-7.05,34-7.05,34a21.79,21.79,0,0,1-9.64,1.12c-7.48-.82-10-2.58-10-2.58S361.48,329,361.63,311s.73-62.1,2-90.13Z" style="fill:#455a64"></path><path d="M395.83,289.6l-4.93-31.55s-10.41-2.84-17-9.9c.45,5.22,9.67,12,14,13.07l5.56,28-2,29.49Z" style="fill:#37474f"></path><path d="M408.46,226.1a42.5,42.5,0,0,1,3.84,8.3,79.43,79.43,0,0,1,2.54,8.79c.66,3,1.21,6,1.57,9a59.08,59.08,0,0,1,.53,9.12c-.7-3-1.35-5.92-2-8.87s-1.29-5.89-2-8.82-1.37-5.85-2.09-8.77S409.35,229,408.46,226.1Z" style="fill:#37474f"></path><path d="M412.43,227.24a32.2,32.2,0,0,1,4.09,4.65,45.1,45.1,0,0,1,3.3,5.23,40.45,40.45,0,0,1,2.5,5.68,24.73,24.73,0,0,1,1.35,6.06l-2.73-5.48c-.93-1.79-1.84-3.58-2.81-5.35s-1.92-3.55-2.87-5.34S413.32,229.12,412.43,227.24Z" style="fill:#37474f"></path><path d="M405.52,263.63c1.23,9.45,2.34,18.92,3.45,28.37s3.33,19.9,5,29.24,12.39,46,13.75,55.42c-2.1-9.3-13.89-45.68-15.64-55.08s-3.75-19.92-4.59-29.42S406,273.15,405.52,263.63Z" style="fill:#37474f"></path><path d="M371.6,263.35l-1.76,24.83c-.26,4.14-.56,8.27-.78,12.41s-.5,8.28-.47,12.37,0,43.78-.64,52.08c-.9-9.26-1.07-43.71-1.28-52.07.1-8.4.88-16.64,1.69-24.92S370.26,271.55,371.6,263.35Z" style="fill:#37474f"></path><path d="M383.59,375.79l-1.48,8.63s-3.48,2.18-10.73,1.37-8.28-3.17-8.28-3.17l.07-8.12s1.72,1.7,8.35,2.5A28.42,28.42,0,0,0,383.59,375.79Z" style="fill:#37474f"></path><path d="M439.9,374.8l.58,8.73s-2.88,2.93-10.12,3.83-8.79-1.15-8.79-1.15l-1.83-7.91s2.08,1.25,8.71.49A28.68,28.68,0,0,0,439.9,374.8Z" style="fill:#37474f"></path></g><g id="freepik--Top--inject-61"><path id="freepik--shadow--inject-61" d="M323.2,181.41c0,6.12-2.43,12.5-5.42,14.23a3.49,3.49,0,0,1-3.71,0c-1.93-1.13-4.9-1-6.93,3.17-2.79,5.72-2.84,19-2,38.5-3.74,2.18-7.16,4.42-10.19,6.41-6.67,4.39-11.5,7.55-13.27,5.72-1.59-1.65-.67-6.14.61-9.47a20.81,20.81,0,0,0,1.56-7.33c0-5.26-3.58-7.47-8-4.93s-8,8.89-8,14.14a9.86,9.86,0,0,0,1.56,5.53,9.12,9.12,0,0,1,.61,8.78c-1.79,3.92-6.37,6.21-12.7,9.38-2.72,1.36-9.42,5-9.42,5-.19-4.14-.43-8-.65-11.43-.7-10.88-1.2-18.73.85-22.92,1.67-3.43,4.23-3.49,5.92-2.5a4,4,0,0,0,4.18,0c3.41-2,6.19-9.09,6.19-15.86s-2.78-10.69-6.19-8.72c-1,.56-2.46,1.84-4.18,4.82-1.58,2.78-4,5.52-5.63,4.57a1.85,1.85,0,0,1-.29-.22c-2-1.79-1.41-11.34-.65-23.43.26-4.25.54-8.65.74-13.26,2.41-1.39,4.72-2.65,6.76-3.77s3.66-2,5.27-2.93c5.29-3.06,8.89-5.7,10.64-9.53a10.78,10.78,0,0,0-.54-10.36,8.6,8.6,0,0,1-1.41-4.89,16,16,0,0,1,7.21-12.5c2-1.15,3.79-1.25,5.09-.49s2.11,2.37,2.11,4.67a18.4,18.4,0,0,1-1.41,6.52c-1.45,3.81-2.47,9-.54,11,2.26,2.34,8.44-1.41,17-6.6,2.34-1.42,4.76-2.88,7.35-4.39l-.16,3.79c-.72,16.3-1.23,28.08,1.55,30.56,2,1.81,5-1.47,6.93-4.84,1.54-2.68,2.87-3.82,3.71-4.3C320.77,171.72,323.2,175.3,323.2,181.41Z" style="opacity:0.15"></path><path id="freepik--Arm--inject-61" d="M374.79,147.69c-9.39,1.73-13.4,4-24.72,10.05-10.63,5.65-16.32,9.13-16.32,9.13l-25.31-17.29-11.82,6.19s20.71,23.29,26.33,29.1,8,6.26,14.73,3.48,33.81-15.26,33.81-15.26Z" style="fill:#ffa8a7"></path><path d="M375.33,146.85c-9.38,1.72-12.49,3.7-17.32,6.31s-13.66,7.41-13.66,7.41-3.77,14.92,7.48,22.88l20.31-10Z" style="fill:#455a64"></path><g id="freepik--Piece--inject-61"><path d="M339,183.45c.1-3.73.29-7.92.49-12.45l.16-3.79-28-16.16-2.53,1.49-22-12.68c-1.31-.76-3.11-.65-5.09.5a16,16,0,0,0-7.21,12.5,8.6,8.6,0,0,0,1.41,4.89,10.78,10.78,0,0,1,.54,10.36c-1.75,3.83-5.35,6.47-10.64,9.53-1.61.92-3.36,1.88-5.27,2.93s-4.35,2.38-6.76,3.77c-.2,4.61-.48,9-.74,13.26-.76,12.09-1.36,21.64.65,23.43a1.94,1.94,0,0,0,.29.21l14.45,8.34c-1.14,3.21-2.8,5.79-4.64,6.86a4,4,0,0,1-4.18,0c-1.69-1-4.25-.93-5.92,2.5-2.05,4.19-1.55,12-.85,22.92.22,3.42.46,7.29.65,11.43l28,16.16s6.7-3.61,9.42-5c6.33-3.17,10.91-5.46,12.7-9.38a9.12,9.12,0,0,0-.61-8.78,9.86,9.86,0,0,1-1.56-5.53v-.3l14.15,8.17c2,1.15,6.65-1.88,12.91-6,3-2,6.45-4.23,10.19-6.41-.85-19.52-.8-32.78,2-38.5,2-4.15,5-4.3,6.93-3.17a3.49,3.49,0,0,0,3.71,0c3-1.73,5.42-8.11,5.42-14.23,0-4.15-1.12-7.12-2.77-8.08Z" style="fill:#737E8C"></path><path d="M317.73,251.57a20.81,20.81,0,0,1-1.56,7.33c-1.28,3.33-2.2,7.82-.61,9.47a1.49,1.49,0,0,0,.28.23l-14.06-8.1c.12-5.19,3.65-11.36,8-13.86S317.73,246.31,317.73,251.57Z" style="opacity:0.4"></path><path d="M298.31,236.73c0,6.77-2.78,13.89-6.19,15.86a4,4,0,0,1-4.18,0c-1.69-1-4.25-.93-5.92,2.5-2,4.19-1.55,12-.85,22.92.22,3.42.46,7.29.65,11.43l-28-16.16c-.19-4.14-.43-8-.65-11.43-.7-10.88-1.2-18.73.85-22.92,1.67-3.43,4.23-3.49,5.92-2.5a4,4,0,0,0,4.18,0c1.85-1.07,3.51-3.64,4.64-6.85l-14.45-8.35A1.12,1.12,0,0,1,254,221c-2-1.79-1.41-11.34-.65-23.43.26-4.25.54-8.65.74-13.26l28,16.16c-.2,4.61-.48,9-.74,13.26-.76,12.09-1.36,21.64.65,23.43a1.32,1.32,0,0,0,.29.21c1.67,1,4.05-1.79,5.63-4.56,1.72-3,3.22-4.26,4.18-4.82C295.53,226,298.31,230,298.31,236.73Z" style="opacity:0.2"></path><path d="M292.12,252.59c3.41-2,6.19-9.09,6.19-15.86S295.53,226,292.12,228c-1,.56-2.46,1.84-4.18,4.82-1.58,2.77-4,5.52-5.63,4.56l-13.54-7.81c-1.13,3.21-2.79,5.78-4.64,6.85a4,4,0,0,1-4.18,0l28,16.16A4,4,0,0,0,292.12,252.59Z" style="opacity:0.2"></path><path d="M339,183.45l15.28,8.82a2.53,2.53,0,0,0-2.6.14c-.84.48-2.17,1.62-3.71,4.3-1.93,3.37-4.9,6.65-6.93,4.84S338.71,193.13,339,183.45Z" style="opacity:0.1"></path><path d="M304.78,184.26a15.67,15.67,0,0,1-5,5.88l-28-16.16a15.67,15.67,0,0,0,5-5.88,10.78,10.78,0,0,0-.54-10.36l28,16.16A10.78,10.78,0,0,1,304.78,184.26Z" style="opacity:0.1"></path><path d="M317.24,160.69a18.4,18.4,0,0,1-1.41,6.52c-1.45,3.81-2.47,9-.54,11,2.26,2.34,8.44-1.41,17-6.6,2.34-1.42,4.76-2.88,7.35-4.39l-28-16.16-2.53,1.49,6,3.48C316.43,156.77,317.24,158.39,317.24,160.69Z" style="opacity:0.1"></path><path d="M357.07,200.38c0,6.12-2.43,12.5-5.42,14.23a3.49,3.49,0,0,1-3.71,0c-1.93-1.13-4.9-1-6.93,3.17-2.79,5.72-2.84,19-2,38.5-3.74,2.18-7.16,4.42-10.19,6.41-6.67,4.39-11.5,7.55-13.27,5.72-1.59-1.65-.67-6.14.61-9.47a20.81,20.81,0,0,0,1.56-7.33c0-5.26-3.58-7.47-8-4.93s-8,8.89-8,14.14a9.86,9.86,0,0,0,1.56,5.53,9.12,9.12,0,0,1,.61,8.78c-1.79,3.92-6.37,6.21-12.7,9.38-2.72,1.36-9.42,5-9.42,5-.19-4.14-.43-8-.65-11.43-.7-10.88-1.2-18.73.85-22.92,1.67-3.43,4.23-3.49,5.92-2.5a4,4,0,0,0,4.18,0c3.41-2,6.19-9.09,6.19-15.86s-2.78-10.69-6.19-8.72c-1,.56-2.46,1.84-4.18,4.82-1.59,2.77-4,5.52-5.63,4.56a1.94,1.94,0,0,1-.29-.21c-2-1.79-1.41-11.34-.65-23.43.26-4.25.54-8.65.74-13.26,2.41-1.39,4.72-2.65,6.76-3.77s3.66-2,5.27-2.93c5.29-3.06,8.89-5.7,10.64-9.53a10.78,10.78,0,0,0-.54-10.36,8.6,8.6,0,0,1-1.41-4.89,16,16,0,0,1,7.21-12.5c2-1.15,3.78-1.26,5.09-.5s2.11,2.38,2.11,4.68a18.4,18.4,0,0,1-1.41,6.52c-1.45,3.81-2.47,9-.54,11,2.26,2.34,8.44-1.41,17-6.6,2.34-1.42,4.76-2.88,7.35-4.39l-.16,3.79c-.72,16.3-1.23,28.08,1.55,30.56,2,1.81,5-1.47,6.93-4.84,1.54-2.68,2.87-3.82,3.71-4.3C354.64,190.69,357.07,194.27,357.07,200.38Z" style="fill:#737E8C"></path><path d="M357.07,200.38c0,6.12-2.43,12.5-5.42,14.23a3.49,3.49,0,0,1-3.71,0c-1.93-1.13-4.9-1-6.93,3.17-2.79,5.72-2.84,19-2,38.5-3.74,2.18-7.16,4.42-10.19,6.41-6.67,4.39-11.5,7.55-13.27,5.72-1.59-1.65-.67-6.14.61-9.47a20.81,20.81,0,0,0,1.56-7.33c0-5.26-3.58-7.47-8-4.93s-8,8.89-8,14.14a9.86,9.86,0,0,0,1.56,5.53,9.12,9.12,0,0,1,.61,8.78c-1.79,3.92-6.37,6.21-12.7,9.38-2.72,1.36-9.42,5-9.42,5-.19-4.14-.43-8-.65-11.43-.7-10.88-1.2-18.73.85-22.92,1.67-3.43,4.23-3.49,5.92-2.5a4,4,0,0,0,4.18,0c3.41-2,6.19-9.09,6.19-15.86s-2.78-10.69-6.19-8.72c-1,.56-2.46,1.84-4.18,4.82-1.59,2.77-4,5.52-5.63,4.56a1.94,1.94,0,0,1-.29-.21c-2-1.79-1.41-11.34-.65-23.43.26-4.25.54-8.65.74-13.26,2.41-1.39,4.72-2.65,6.76-3.77s3.66-2,5.27-2.93c5.29-3.06,8.89-5.7,10.64-9.53a10.78,10.78,0,0,0-.54-10.36,8.6,8.6,0,0,1-1.41-4.89,16,16,0,0,1,7.21-12.5c2-1.15,3.78-1.26,5.09-.5s2.11,2.38,2.11,4.68a18.4,18.4,0,0,1-1.41,6.52c-1.45,3.81-2.47,9-.54,11,2.26,2.34,8.44-1.41,17-6.6,2.34-1.42,4.76-2.88,7.35-4.39l-.16,3.79c-.72,16.3-1.23,28.08,1.55,30.56,2,1.81,5-1.47,6.93-4.84,1.54-2.68,2.87-3.82,3.71-4.3C354.64,190.69,357.07,194.27,357.07,200.38Z" style="fill:#fff;opacity:0.15"></path><g style="opacity:0.2"><path d="M313.24,156.28a2.93,2.93,0,0,1,1.51.39c1.12.65,1.74,2.08,1.74,4a17.75,17.75,0,0,1-1.36,6.25c-1.61,4.22-2.55,9.52-.38,11.77a3.28,3.28,0,0,0,2.45.94c3.25,0,8.63-3.28,15.46-7.42,2.2-1.34,4.14-2.51,6.15-3.69l-.1,2.41c-.83,18.68-1.12,28.55,1.8,31.16a2.66,2.66,0,0,0,1.79.7c2.71,0,5.3-4,6.29-5.73,1.53-2.67,2.81-3.67,3.43-4a2.18,2.18,0,0,1,1.1-.34c1.82,0,3.2,3.29,3.2,7.65,0,5.78-2.31,12-5.05,13.58a2.77,2.77,0,0,1-2.95,0,5.08,5.08,0,0,0-2.54-.71c-1.27,0-3.66.55-5.45,4.2-2.85,5.84-2.92,19-2.08,38.41-3.69,2.16-7.09,4.39-9.84,6.2-5,3.29-9.3,6.13-11.45,6.13a1.11,1.11,0,0,1-.86-.3c-1.08-1.13-.77-4.69.77-8.69a21.53,21.53,0,0,0,1.61-7.59c0-4.09-2.07-6.74-5.27-6.74a7.71,7.71,0,0,0-3.84,1.16c-4.61,2.66-8.35,9.29-8.35,14.79a10.59,10.59,0,0,0,1.69,5.95,8.32,8.32,0,0,1,.54,8c-1.67,3.68-6.14,5.92-12.35,9-2,1-6.39,3.34-8.39,4.41-.18-3.62-.39-7.06-.59-10.25-.7-10.75-1.2-18.52.77-22.55.84-1.72,2-2.63,3.28-2.63a3.25,3.25,0,0,1,1.59.45,4.73,4.73,0,0,0,2.45.7,5,5,0,0,0,2.48-.69c3.68-2.13,6.57-9.38,6.57-16.51,0-6-2.1-10-5.22-10a4.14,4.14,0,0,0-2.1.61c-1,.6-2.66,2-4.45,5.09-1.48,2.58-3.22,4.38-4.25,4.38a.77.77,0,0,1-.36-.09.83.83,0,0,1-.16-.12c-1.74-1.55-1.09-11.89-.4-22.83l.08-1.32c.22-3.71.46-7.55.64-11.54,2-1.17,4-2.26,5.78-3.22l.61-.34.31-.17c1.77-1,3.44-1.89,5-2.76,5.41-3.13,9.12-5.87,10.95-9.87a11.56,11.56,0,0,0-.61-11.1,7.9,7.9,0,0,1-1.27-4.46,15.12,15.12,0,0,1,6.83-11.86,5.92,5.92,0,0,1,2.83-.88m0-.75a6.47,6.47,0,0,0-3.2,1,16,16,0,0,0-7.21,12.5,8.6,8.6,0,0,0,1.41,4.89,10.78,10.78,0,0,1,.54,10.36c-1.75,3.83-5.35,6.47-10.64,9.53-1.61.92-3.36,1.88-5.27,2.93s-4.35,2.38-6.76,3.77c-.2,4.61-.48,9-.74,13.26-.76,12.09-1.36,21.64.65,23.43a1.94,1.94,0,0,0,.29.21,1.47,1.47,0,0,0,.73.19c1.58,0,3.53-2.37,4.9-4.75,1.72-3,3.22-4.26,4.18-4.82a3.39,3.39,0,0,1,1.72-.51c2.58,0,4.47,3.64,4.47,9.23,0,6.77-2.78,13.89-6.19,15.86a4.3,4.3,0,0,1-2.11.59,4.05,4.05,0,0,1-2.07-.59,3.92,3.92,0,0,0-2-.56c-1.37,0-2.85.8-4,3.06-2,4.19-1.55,12-.85,22.92.22,3.42.46,7.29.65,11.43,0,0,6.7-3.61,9.42-5,6.33-3.17,10.91-5.46,12.7-9.38a9.12,9.12,0,0,0-.61-8.78,9.86,9.86,0,0,1-1.56-5.53c0-5.25,3.58-11.6,8-14.14a7,7,0,0,1,3.46-1.06c2.67,0,4.52,2.21,4.52,6a20.81,20.81,0,0,1-1.56,7.33c-1.28,3.33-2.2,7.82-.61,9.47a1.86,1.86,0,0,0,1.4.53c2.35,0,6.52-2.73,11.87-6.25,3-2,6.45-4.23,10.19-6.41-.85-19.52-.8-32.78,2-38.5,1.36-2.8,3.15-3.78,4.77-3.78a4.31,4.31,0,0,1,2.16.61,3.62,3.62,0,0,0,1.88.54,3.69,3.69,0,0,0,1.83-.51c3-1.73,5.42-8.11,5.42-14.23,0-5.07-1.67-8.4-3.95-8.4a2.89,2.89,0,0,0-1.47.44c-.84.48-2.17,1.62-3.71,4.3s-3.77,5.35-5.64,5.35a1.91,1.91,0,0,1-1.29-.51c-2.78-2.48-2.27-14.26-1.55-30.56l.16-3.79c-2.59,1.51-5,3-7.35,4.39-6.76,4.1-12,7.31-15.07,7.31a2.55,2.55,0,0,1-1.91-.71c-1.93-2-.91-7.17.54-11a18.4,18.4,0,0,0,1.41-6.52c0-2.3-.81-3.92-2.11-4.68a3.72,3.72,0,0,0-1.89-.49Z" style="fill:#fff"></path></g></g><g id="freepik--Hand--inject-61"><path d="M290,134.53c-1.63-2.12-2-2.07-3.25-1.58a6.84,6.84,0,0,0-4.34,4.52c-.5,1.84-1.09,3.68-.89,4.77s2.43.89,3.69-1.34c2-3.5,3-3.17,3-3.17a49.62,49.62,0,0,0-2.32,4.6,36.46,36.46,0,0,0-.82,5.76c-.23,1.66,1.72,2.59,3.24.12,0,0-.29,2.09-.41,3-.29,2.13.58,3.15,2.32,1.93a3.1,3.1,0,0,0,1.25-1.63s-.65,2.17.05,2.43c2,.75,2.32-.94,5.56-4.43a15.33,15.33,0,0,1,1.78-1.63,1.89,1.89,0,0,1,2.08-.12l5.2,3,2.34-1.23c-3.09-2-4.66-5-5.78-6.51s-1.68-2.51-3.26-2.53c0,0-.56-2.79-2-3.38s-2,0-2,0a4.61,4.61,0,0,0-2.66-2.4c-1.78-.44-2.25.44-2.25.44Z" style="fill:#ffa8a7"></path><path d="M288.27,148.21a13.91,13.91,0,0,1,.5-2.73,9.42,9.42,0,0,1,1.58-2.31,31.9,31.9,0,0,1,3.85-3.86,32.55,32.55,0,0,1-3.23,4.38,14.35,14.35,0,0,0-1.63,2.05C289,146.49,288.69,147.4,288.27,148.21Z" style="fill:#f28f8f"></path><path d="M291.43,151.55a6.11,6.11,0,0,1,.77-2.88,16.17,16.17,0,0,1,1.68-2.46A27.73,27.73,0,0,1,298,142a56,56,0,0,1-3.53,4.67A15.67,15.67,0,0,0,291.43,151.55Z" style="fill:#f28f8f"></path></g><g id="freepik--Chest--inject-61"><g id="freepik--chest--inject-61"><path d="M429,152.65a60.78,60.78,0,0,1,2.48,24.63c-.91,9.1-2.33,14.45-3,28.67-.45,10.17.46,30.48.46,30.48-10.44,8.88-55.68,11.45-66.37-1.88v-39.7c0-12.88.35-22.93,1.81-29,3.31-13.75,8.11-16.91,10.9-19a90.94,90.94,0,0,1,24.83-3C413.69,144.46,429,152.65,429,152.65Z" style="fill:#37474f"></path></g><g id="freepik--Head--inject-61"><path d="M407.72,136.39c3.78-6.89,7.41-11.36,9.93-18.89,1-3,2.47-10,.73-14-1.21-2.76-3-4.91-6-4.88.68-3.93-1.21-6.23-2.87-7.86a6.22,6.22,0,0,0-6.46-1.3,5.33,5.33,0,0,0-9.16-2.88,5.61,5.61,0,0,0-5.6-2.87,6.11,6.11,0,0,0-5.19,4.16,9.77,9.77,0,0,0-6-2.37,5.69,5.69,0,0,0-5.27,3.28c-.79,2-.12,4.23.57,6.25a3.26,3.26,0,0,0-3.57-.14,3.3,3.3,0,0,0-1.49,3.26,9.08,9.08,0,0,1,.5,2.42,1.89,1.89,0,0,1-3.29,1.07,4,4,0,0,0,4.75,4.79,3.07,3.07,0,0,0,1.23,3,3.62,3.62,0,0,0,2.58.45Z" style="fill:#263238"></path><path d="M373.87,130.13c1.18,5.45,3.38,8,7.1,9.23a18.14,18.14,0,0,0,6.13.57l-.23,5.35c-10.71,13,15.76,12.69,20.75,1.38l.17-18s2.34,2.73,6.29.24a8.53,8.53,0,0,0,2.82-10.43c-1.88-4.12-5.79-2.49-7-1.26s-2.59,3.29-3.63,3.2c-1.62-.13-2-1.48-2.38-2.49a22.09,22.09,0,0,1-1.15-8c-1.07-.57-2.55-1.11-3-2.4-1.64-4.64-.05-6.07.86-8.09-4.2-2.82-10.41,2.3-15.1,2.9-5.38.68-6.6-2.4-9.53-2a26.35,26.35,0,0,0-2.59,9.43C372.75,115.92,372.26,122.68,373.87,130.13Z" style="fill:#ffa8a7"></path><path d="M387.1,139.93c4.3-.18,13-2.05,15.31-4.42s3.39-7.25,3.39-7.25-.44,6.19-2.26,8.9-6.33,3.83-9.07,4.47a69.12,69.12,0,0,1-7.49,1Z" style="fill:#f28f8f"></path><path d="M391,127.27l-5.47,1.63a2.81,2.81,0,0,0,3.5,2A3,3,0,0,0,391,127.27Z" style="fill:#b16668"></path><path d="M390.62,128.52a3.14,3.14,0,0,0-3.19,2.39,2.77,2.77,0,0,0,1.59,0,3,3,0,0,0,2-2.34A1.93,1.93,0,0,0,390.62,128.52Z" style="fill:#f28f8f"></path><path d="M375.64,111.37l4-1.79a2.11,2.11,0,0,0-2.83-1.16A2.3,2.3,0,0,0,375.64,111.37Z" style="fill:#263238"></path><path d="M395.3,111.23l-4.2-1.46a2.12,2.12,0,0,1,2.75-1.41A2.34,2.34,0,0,1,395.3,111.23Z" style="fill:#263238"></path><path d="M380,115.53a1.87,1.87,0,0,1-1.72,2,1.75,1.75,0,0,1-1.93-1.65,1.87,1.87,0,0,1,1.72-2A1.75,1.75,0,0,1,380,115.53Z" style="fill:#263238"></path><path d="M393.47,115.7a1.89,1.89,0,0,1-1.73,2,1.76,1.76,0,0,1-1.93-1.65,1.89,1.89,0,0,1,1.73-2A1.78,1.78,0,0,1,393.47,115.7Z" style="fill:#263238"></path><path d="M378.9,123.22l5.89,2.37,1.92-11.52C384.59,113.58,381.08,119.24,378.9,123.22Z" style="fill:#f28f8f"></path></g></g><g id="freepik--arm--inject-61"><path d="M395.31,218.52c-11.49.74-24.34.5-35.26,1.12a139.41,139.41,0,0,0-15.86,1.51c-4.85.83-14.54-.58-16.88-1.32-3.25-1-3.91-2.13-3.77-3.51a6,6,0,0,1-3-1.45,3.87,3.87,0,0,1-1.19-2.58,11.68,11.68,0,0,1-1.56-.47c-1.3-.47-1.46-1.73-.74-2.84a2.55,2.55,0,0,1,2.3-1.2,1.29,1.29,0,0,1-.65-2.05c.84-1.33,2.14-2.06,5.05-1.33s11.66,1.82,14.65.77,3.16-1.67,2.62-3.54c-.31-1.09-1-1.16-1.21-2.31s-.48-2.48-.65-3.74c3.26.69,2.51,1.32,6.21,2.73s2.15,5.12,9.81,5.16,27.12-3,36.9-4.76c6.57-9.39,14.47-22.25,19.88-31s11.25-14.81,17.11-14.59c6.09,3.2,10.15,9.76,6.76,19.41-3.68,10.53-16.79,26.66-23.05,35.59S404.58,217.92,395.31,218.52Z" style="fill:#ffa8a7"></path></g><path d="M429,152.65c3.86,2.14,6.5,4.35,7.71,8.42s1.86,8.51-3.06,17.84a104,104,0,0,1-11.4,16.89s-5.23,1.31-12.71-3-7.42-9.69-7.42-9.69,7.43-13,10.28-18.09S420.66,152.37,429,152.65Z" style="fill:#455a64"></path></g></g></g><g id="freepik--Plant--inject-61"><g id="freepik--plant--inject-61"><g id="freepik--pot--inject-61"><path d="M44.78,455.54c-7.89-8.14-12.53-28.61-4.83-35.07H79.11c7.69,6.46,3.06,26.91-4.82,35.06l-.22.23-.27.26c-.22.22-.46.44-.71.65l-.19.14c-.2.16-.39.31-.6.46a9.32,9.32,0,0,1-1,.66c-6.49,3.79-17,3.79-23.5,0h0a11.88,11.88,0,0,1-1-.67c-.2-.13-.38-.28-.56-.42l-.23-.18c-.24-.21-.47-.41-.69-.62l-.31-.31Z" style="fill:#37474f"></path><path d="M75.71,417.87c8.93,5.22,8.93,13.67,0,18.89s-23.42,5.22-32.36,0-8.93-13.67,0-18.89S66.77,412.65,75.71,417.87Z" style="fill:#455a64"></path><path d="M71.41,420.38c6.56,3.83,6.56,10,0,13.87s-17.2,3.83-23.76,0-6.56-10,0-13.87S64.85,416.55,71.41,420.38Z" style="fill:#263238"></path><path d="M47.65,427c6.56-3.83,17.2-3.83,23.76,0a11,11,0,0,1,3.93,3.65,10.92,10.92,0,0,1-3.93,3.64c-6.56,3.83-17.2,3.83-23.76,0a10.83,10.83,0,0,1-3.93-3.64A10.94,10.94,0,0,1,47.65,427Z" style="fill:#fafafa"></path></g><path d="M56.89,374.74c-3,3.25-11.34,4.15-14.79-4.64-3.24-8.24-6.74-16.05-7.73-19.08a3.11,3.11,0,0,1,2-4s.24-4.53,7.91-1.46,13.09,7.73,16.43,15.26S62,373.73,56.89,374.74Z" style="fill:#737E8C"></path><path d="M56.89,374.74c-3,3.25-11.34,4.15-14.79-4.64-3.24-8.24-6.74-16.05-7.73-19.08a3.11,3.11,0,0,1,2-4s.24-4.53,7.91-1.46,13.09,7.73,16.43,15.26S62,373.73,56.89,374.74Z" style="fill:#fff;opacity:0.45"></path><path d="M60.22,386.36a41.6,41.6,0,0,0-.67-4.59A65,65,0,0,0,57,372.93a65.08,65.08,0,0,0-8.9-16.41,56.54,56.54,0,0,0-7-7.93c-.08-.07-.14.11-.09.16A69.82,69.82,0,0,1,52,363.87,70.61,70.61,0,0,1,58.32,381c.37,1.67.73,3.35,1,5s.49,3.44.78,5.16c0,.17.29.27.3,0A31.91,31.91,0,0,0,60.22,386.36Z" style="fill:#737E8C"></path><path d="M60.22,386.36a41.6,41.6,0,0,0-.67-4.59A65,65,0,0,0,57,372.93a65.08,65.08,0,0,0-8.9-16.41,56.54,56.54,0,0,0-7-7.93c-.08-.07-.14.11-.09.16A69.82,69.82,0,0,1,52,363.87,70.61,70.61,0,0,1,58.32,381c.37,1.67.73,3.35,1,5s.49,3.44.78,5.16c0,.17.29.27.3,0A31.91,31.91,0,0,0,60.22,386.36Z" style="opacity:0.30000000000000004"></path><path d="M62.78,372.46c-6.89,2.13-12-3.25-10.24-11.68s10.63-17.8,14-15.29c2.09-2.08,6.69-1.33,8.86,5.52S75.58,375.45,62.78,372.46Z" style="fill:#737E8C"></path><path d="M62.78,372.46c-6.89,2.13-12-3.25-10.24-11.68s10.63-17.8,14-15.29c2.09-2.08,6.69-1.33,8.86,5.52S75.58,375.45,62.78,372.46Z" style="fill:#fff;opacity:0.25"></path><path d="M66.82,350.63a92.81,92.81,0,0,0-4.58,15.15,149.26,149.26,0,0,0-2.66,15.87,246.58,246.58,0,0,0-1.38,31.1q0,4.31.11,8.61c.06,2.95,0,5.94.27,8.88.09,1.13,1.7.83,1.72-.21.1-5.16-.18-10.35-.24-15.52s0-10.22.1-15.32A214.05,214.05,0,0,1,63,368.13c.49-2.86,1-5.72,1.7-8.54s1.56-5.9,2.34-8.85C67,350.62,66.89,350.47,66.82,350.63Z" style="fill:#737E8C"></path><path d="M66.82,350.63a92.81,92.81,0,0,0-4.58,15.15,149.26,149.26,0,0,0-2.66,15.87,246.58,246.58,0,0,0-1.38,31.1q0,4.31.11,8.61c.06,2.95,0,5.94.27,8.88.09,1.13,1.7.83,1.72-.21.1-5.16-.18-10.35-.24-15.52s0-10.22.1-15.32A214.05,214.05,0,0,1,63,368.13c.49-2.86,1-5.72,1.7-8.54s1.56-5.9,2.34-8.85C67,350.62,66.89,350.47,66.82,350.63Z" style="opacity:0.30000000000000004"></path><path d="M51.57,397.2c-3,3.4-9.92,3.1-14.54-3s-7.41-29-.9-27.49c1.38-3.05,19.38,4.28,21.69,19.2C59.49,396.78,51.57,397.2,51.57,397.2Z" style="fill:#737E8C"></path><path d="M51.57,397.2c-3,3.4-9.92,3.1-14.54-3s-7.41-29-.9-27.49c1.38-3.05,19.38,4.28,21.69,19.2C59.49,396.78,51.57,397.2,51.57,397.2Z" style="fill:#fff;opacity:0.25"></path><path d="M57,408a33.28,33.28,0,0,0-.89-4.17,85.71,85.71,0,0,0-2.68-8.27,86.49,86.49,0,0,0-8-15.78,77.07,77.07,0,0,0-5.7-8.06c-.06-.07-.12.09-.08.13,1.6,2.35,3.23,4.66,4.68,7.11a88.42,88.42,0,0,1,4.08,7.85,108.32,108.32,0,0,1,5.93,15.92c.44,1.55.81,3.12,1.26,4.66s1.08,3.18,1.48,4.8c.06.23.36.32.33,0C57.18,410.8,57.13,409.4,57,408Z" style="fill:#737E8C"></path><path d="M57,408a33.28,33.28,0,0,0-.89-4.17,85.71,85.71,0,0,0-2.68-8.27,86.49,86.49,0,0,0-8-15.78,77.07,77.07,0,0,0-5.7-8.06c-.06-.07-.12.09-.08.13,1.6,2.35,3.23,4.66,4.68,7.11a88.42,88.42,0,0,1,4.08,7.85,108.32,108.32,0,0,1,5.93,15.92c.44,1.55.81,3.12,1.26,4.66s1.08,3.18,1.48,4.8c.06.23.36.32.33,0C57.18,410.8,57.13,409.4,57,408Z" style="opacity:0.30000000000000004"></path><path d="M62.58,393.82c-3.94-.9-4.13-5.63.79-11.44s17.33-8.33,17.92-5.89c2.75,0,2.75,8.64-3.35,16.57S63,399.15,62.58,393.82Z" style="fill:#737E8C"></path><path d="M62.58,393.82c-3.94-.9-4.13-5.63.79-11.44s17.33-8.33,17.92-5.89c2.75,0,2.75,8.64-3.35,16.57S63,399.15,62.58,393.82Z" style="fill:#fff;opacity:0.25"></path><path d="M70.3,385.37a32.26,32.26,0,0,0-6.82,6.48,31.69,31.69,0,0,0-4.58,8.24c-.13.34.45.83.59.46a36.36,36.36,0,0,1,10.83-15.1S70.35,385.34,70.3,385.37Z" style="fill:#737E8C"></path><path d="M70.3,385.37a32.26,32.26,0,0,0-6.82,6.48,31.69,31.69,0,0,0-4.58,8.24c-.13.34.45.83.59.46a36.36,36.36,0,0,1,10.83-15.1S70.35,385.34,70.3,385.37Z" style="opacity:0.30000000000000004"></path><path d="M64.07,420.46c-3.44,4.78,2,9,9.14,10.36A24.34,24.34,0,0,0,90.44,427c3-2.17,3.49-3.1,3.49-3.1a41.58,41.58,0,0,0-4.84-7.62,17.47,17.47,0,0,0-18.27-4.86C62.42,414,62.34,417.72,64.07,420.46Z" style="fill:#737E8C"></path><path d="M64.07,420.46c-3.44,4.78,2,9,9.14,10.36A24.34,24.34,0,0,0,90.44,427c3-2.17,3.49-3.1,3.49-3.1a41.58,41.58,0,0,0-4.84-7.62,17.47,17.47,0,0,0-18.27-4.86C62.42,414,62.34,417.72,64.07,420.46Z" style="fill:#fff;opacity:0.45"></path><path d="M82,420.52a44,44,0,0,0-11.19-2.08c-3.72-.07-8.15.66-10.62,3.73-1,1.18-2.09,3.6-.91,5,.12.13.62.34.67,0a15,15,0,0,1,.44-3,5.83,5.83,0,0,1,1.89-2.5,13.42,13.42,0,0,1,7.39-2.61c4.17-.32,8.3.66,12.34,1.56C82,420.63,82,420.53,82,420.52Z" style="fill:#737E8C"></path><path d="M82,420.52a44,44,0,0,0-11.19-2.08c-3.72-.07-8.15.66-10.62,3.73-1,1.18-2.09,3.6-.91,5,.12.13.62.34.67,0a15,15,0,0,1,.44-3,5.83,5.83,0,0,1,1.89-2.5,13.42,13.42,0,0,1,7.39-2.61c4.17-.32,8.3.66,12.34,1.56C82,420.63,82,420.53,82,420.52Z" style="opacity:0.30000000000000004"></path><path d="M51.47,403.41c1.56-2,1-8.92-8.58-14.87s-19.16-5.37-21.63-4.17-4.24,2.88-2.67,4.28,7.55,5.09,10.74,9,8.82,13.62,15.35,14.76S53.23,407,51.47,403.41Z" style="fill:#737E8C"></path><path d="M51.47,403.41c1.56-2,1-8.92-8.58-14.87s-19.16-5.37-21.63-4.17-4.24,2.88-2.67,4.28,7.55,5.09,10.74,9,8.82,13.62,15.35,14.76S53.23,407,51.47,403.41Z" style="fill:#fff;opacity:0.45"></path><path d="M55.3,414.93c.05-10.82-9.56-18.85-18.51-23.17a39.29,39.29,0,0,0-9.25-3.14c-.05,0-.1.09-.05.11a51.34,51.34,0,0,1,14.61,7,33.64,33.64,0,0,1,10.78,11.63A20.26,20.26,0,0,1,55,415C55,415.27,55.3,415.15,55.3,414.93Z" style="fill:#737E8C"></path><path d="M55.3,414.93c.05-10.82-9.56-18.85-18.51-23.17a39.29,39.29,0,0,0-9.25-3.14c-.05,0-.1.09-.05.11a51.34,51.34,0,0,1,14.61,7,33.64,33.64,0,0,1,10.78,11.63A20.26,20.26,0,0,1,55,415C55,415.27,55.3,415.15,55.3,414.93Z" style="opacity:0.30000000000000004"></path><path d="M70,383.46c.69,3.86,6.55,4.91,11,.48s9.26-8.83,13.81-11.12,6-6.72,4.06-8.29-5.4-5.86-17.75-1.55-15.6,11-16.47,15.41S68.36,385,70,383.46Z" style="fill:#737E8C"></path><path d="M70,383.46c.69,3.86,6.55,4.91,11,.48s9.26-8.83,13.81-11.12,6-6.72,4.06-8.29-5.4-5.86-17.75-1.55-15.6,11-16.47,15.41S68.36,385,70,383.46Z" style="fill:#fff;opacity:0.45"></path><path d="M88.05,366.86a14.27,14.27,0,0,0-5.32,1.75,27.94,27.94,0,0,0-4.29,2.67,26.34,26.34,0,0,0-6.69,7.46,22,22,0,0,0-1.33,2.55,9.35,9.35,0,0,0-.87,2.51c0,.27.42.6.59.29.47-.86.75-1.84,1.18-2.73a24.19,24.19,0,0,1,1.53-2.78,26.58,26.58,0,0,1,4.06-4.91,30.75,30.75,0,0,1,4.84-3.81,32.59,32.59,0,0,1,3-1.62A10.84,10.84,0,0,1,88.05,367C88.11,367,88.11,366.86,88.05,366.86Z" style="fill:#737E8C"></path><path d="M88.05,366.86a14.27,14.27,0,0,0-5.32,1.75,27.94,27.94,0,0,0-4.29,2.67,26.34,26.34,0,0,0-6.69,7.46,22,22,0,0,0-1.33,2.55,9.35,9.35,0,0,0-.87,2.51c0,.27.42.6.59.29.47-.86.75-1.84,1.18-2.73a24.19,24.19,0,0,1,1.53-2.78,26.58,26.58,0,0,1,4.06-4.91,30.75,30.75,0,0,1,4.84-3.81,32.59,32.59,0,0,1,3-1.62A10.84,10.84,0,0,1,88.05,367C88.11,367,88.11,366.86,88.05,366.86Z" style="opacity:0.30000000000000004"></path><path d="M63.06,402.76c-1.82-1.82-6.76-1.4-9.1,4s2.57,11.25,3.12,12.9c2.26-1.3,4-.52,8-1.3a9.9,9.9,0,0,0,7.61-9.88C72.41,403.54,70.33,400.29,63.06,402.76Z" style="fill:#737E8C"></path><path d="M63.06,402.76c-1.82-1.82-6.76-1.4-9.1,4s2.57,11.25,3.12,12.9c2.26-1.3,4-.52,8-1.3a9.9,9.9,0,0,0,7.61-9.88C72.41,403.54,70.33,400.29,63.06,402.76Z" style="fill:#fff;opacity:0.45"></path><path d="M63,402.22a7.36,7.36,0,0,0-2.41,2.49,13.24,13.24,0,0,0-1.56,3,12.83,12.83,0,0,0-.69,6.85c0,.08.09,0,.08-.05a14.15,14.15,0,0,1,1.15-6.77A13.88,13.88,0,0,1,61.2,405a14.72,14.72,0,0,1,1.1-1.27,6.82,6.82,0,0,0,1-1C63.47,402.52,63.26,402.08,63,402.22Z" style="fill:#737E8C"></path><path d="M63,402.22a7.36,7.36,0,0,0-2.41,2.49,13.24,13.24,0,0,0-1.56,3,12.83,12.83,0,0,0-.69,6.85c0,.08.09,0,.08-.05a14.15,14.15,0,0,1,1.15-6.77A13.88,13.88,0,0,1,61.2,405a14.72,14.72,0,0,1,1.1-1.27,6.82,6.82,0,0,0,1-1C63.47,402.52,63.26,402.08,63,402.22Z" style="opacity:0.30000000000000004"></path><path d="M54.5,413.65c-.17-4-4.51-7.17-10.67-9a16.77,16.77,0,0,0-17.34,4.6c-4.5,4.9-6.84,9.07-5,10.23s10,4.17,15.33,5.84,12.34,2.17,17.68-1S59.5,415.65,54.5,413.65Z" style="fill:#737E8C"></path><path d="M54.5,413.65c-.17-4-4.51-7.17-10.67-9a16.77,16.77,0,0,0-17.34,4.6c-4.5,4.9-6.84,9.07-5,10.23s10,4.17,15.33,5.84,12.34,2.17,17.68-1S59.5,415.65,54.5,413.65Z" style="fill:#fff;opacity:0.25"></path><path d="M54.84,413.2a16.9,16.9,0,0,0-6.7-1.79,30.81,30.81,0,0,0-6.72.08,42.33,42.33,0,0,0-7,1.47c-1.19.35-2.36.74-3.53,1.17a24.45,24.45,0,0,0-3.22,1.32s-.06.16,0,.14c1.13-.23,2.24-.67,3.34-1s2.39-.72,3.59-1a45.83,45.83,0,0,1,6.86-1.3,31.15,31.15,0,0,1,7,0,41.51,41.51,0,0,1,6.31,1.55C55.21,413.94,55.08,413.34,54.84,413.2Z" style="fill:#737E8C"></path><path d="M54.84,413.2a16.9,16.9,0,0,0-6.7-1.79,30.81,30.81,0,0,0-6.72.08,42.33,42.33,0,0,0-7,1.47c-1.19.35-2.36.74-3.53,1.17a24.45,24.45,0,0,0-3.22,1.32s-.06.16,0,.14c1.13-.23,2.24-.67,3.34-1s2.39-.72,3.59-1a45.83,45.83,0,0,1,6.86-1.3,31.15,31.15,0,0,1,7,0,41.51,41.51,0,0,1,6.31,1.55C55.21,413.94,55.08,413.34,54.84,413.2Z" style="opacity:0.30000000000000004"></path><path d="M68.78,409.79c-5.07-.37-8.25-7.38,3-15.57s21.53-10.81,23.69-6.86c3.12.59,5.72,6.41-2.48,14.39S70.94,418,68.78,409.79Z" style="fill:#737E8C"></path><path d="M68.78,409.79c-5.07-.37-8.25-7.38,3-15.57s21.53-10.81,23.69-6.86c3.12.59,5.72,6.41-2.48,14.39S70.94,418,68.78,409.79Z" style="fill:#fff;opacity:0.25"></path><path d="M90.11,391.1a59.69,59.69,0,0,0-10.68,6.42,48.56,48.56,0,0,0-8.74,7.57A17.3,17.3,0,0,0,69,407.53c-.23.4-.45.81-.64,1.23a1.46,1.46,0,0,0-.24,1,.38.38,0,0,0,.59.14A14.43,14.43,0,0,0,70,407.57a19.38,19.38,0,0,1,1.5-2.09A29.49,29.49,0,0,1,75,402a84.33,84.33,0,0,1,9.34-7.16c1.9-1.27,3.88-2.41,5.87-3.55C90.24,391.21,90.18,391.07,90.11,391.1Z" style="fill:#737E8C"></path><path d="M90.11,391.1a59.69,59.69,0,0,0-10.68,6.42,48.56,48.56,0,0,0-8.74,7.57A17.3,17.3,0,0,0,69,407.53c-.23.4-.45.81-.64,1.23a1.46,1.46,0,0,0-.24,1,.38.38,0,0,0,.59.14A14.43,14.43,0,0,0,70,407.57a19.38,19.38,0,0,1,1.5-2.09A29.49,29.49,0,0,1,75,402a84.33,84.33,0,0,1,9.34-7.16c1.9-1.27,3.88-2.41,5.87-3.55C90.24,391.21,90.18,391.07,90.11,391.1Z" style="opacity:0.30000000000000004"></path></g></g></svg>