<svg version="1.1" viewBox="0 0 600 350" xml:space="preserve" xmlns="http://www.w3.org/2000/svg" xmlns:xlink="http://www.w3.org/1999/xlink"><defs><linearGradient id="c" x1="43.385" x2="503.89" y1="175.54" y2="175.54" gradientTransform="translate(2.7397,14.53)" gradientUnits="userSpaceOnUse"><stop stop-color="#8f98a3" offset="0"/><stop stop-color="#daa4b4" offset=".875"/></linearGradient>
	

	
<linearGradient id="a" x1="43.385" x2="503.89" y1="175.54" y2="175.54" gradientTransform="translate(2.7397,14.53)" gradientUnits="userSpaceOnUse"><stop stop-color="#737e8c" offset="0"/><stop stop-color="#c65370" offset="1"/></linearGradient>
	
	
	
	
	
	

		
		
		
		
	<linearGradient id="b" x2="761.75" y1="214.91" y2="214.91" gradientUnits="userSpaceOnUse" xlink:href="#c"/></defs><g transform="matrix(.7978 0 0 .7978 66.438 35.297)"><g transform="matrix(1.2534 0 0 1.2534 -80.982 -44.243)" fill-opacity="0" stroke="#8c95a1" stroke-linejoin="round" stroke-miterlimit="20"><rect x="60.281" y="35.217" width="468.93" height="279.32" ry="17.997" opacity=".4" stroke-dasharray="6, 1" stroke-linecap="round" stroke-width="1.0382" style="font-variation-settings:'wght' 700;paint-order:markers fill stroke"/><rect x="110.98" y="175.81" width="120.19" height="113.72" opacity=".4" stroke-dasharray="1.47701, 17.7242" stroke-linecap="square" stroke-width="1.477" style="font-variation-settings:'wght' 700;paint-order:markers fill stroke"/><rect transform="matrix(.99996 0 0 .99996 -1.8306 .00017628)" x=".99548" y=".9955" width="598.01" height="348.01" opacity=".5" stroke-dasharray="1.09504103,26.28098488" stroke-linecap="square" stroke-width="1.095" style="font-variation-settings:'wght' 700;paint-order:markers fill stroke"/></g><g stroke-width="0"><path d="m43.385 39.481 87.668 270.31 378.37 33.953-2.7903-115.07-239.82-206.8z" fill="url(#a)" opacity=".5" stroke-miterlimit="20" style="font-variation-settings:'wght' 700;paint-order:markers fill stroke"/><path transform="matrix(1.2534,0,0,1.2534,-24.32,-772.76)" d="m230.08 616.37h-196.52c-0.03725 0.63127-0.05852 1.2669-0.05852 1.9076 1.19e-4 13.21 8.1663 25.044 20.516 29.732 4.3151 24.237 33.352 34.587 52.025 18.543 5.0288 9.2255 14.29 15.372 24.744 16.422l-0.20362 85.176h8.6277l-0.15796-85.424c4.9748-0.80095 9.6863-2.7787 13.742-5.7686 8.0774 8.5724 20.232 11.977 31.587 8.8479s20.05-12.279 22.596-23.779c21.102-3.5686 32.726-26.543 23.102-45.658z" fill="#c65370"/><path transform="matrix(1.2534,0,0,1.2534,-24.32,-772.76)" d="m183.46 814.73 122.83-2.0671 0.70408 7.3229-127.15 2.5812z" fill="#c65370" stroke-miterlimit="20" style="font-variation-settings:'wght' 700;paint-order:markers fill stroke"/><g transform="matrix(.97921 -.0042541 .0042541 .97921 80.027 186.34)"><path d="m111.88 21.542-44.347 15-0.56943 54.639 45.458 14.667a64 64 0 0 0 15.583-41.847 64 64 0 0 0-16.125-42.458z" fill="#c65370" stroke-width="0"/><path d="m98.056 9.8472-49.472 16.736 0.2779 77.181 48.292 14.875a64 64 0 0 0 15.264-12.792l-45.458-14.667 0.56943-54.639 44.347-15a64 64 0 0 0-13.82-11.694z" fill="#fff"/><path d="m64 5.2801e-6a64 64 0 0 0-64 64 64 64 0 0 0 64 64 64 64 0 0 0 33.153-9.3611l-48.292-14.875-0.2779-77.181 49.472-16.736a64 64 0 0 0-34.055-9.8472z" fill="#c65370" stroke-width="0"/></g></g><g transform="matrix(.57115 0 0 .57115 263.02 -21.858)"><g fill="#c65370"><path transform="translate(-202.94,-124.08)" d="m595.7 659.15a14.096 14.096 0 0 1-1.5002-0.0801l-114.98-12.277a6.4997 6.4997 0 0 1-5.7732-7.1533l1.5671-14.676 0.49707 0.0532-0.49707-0.0532a6.5074 6.5074 0 0 1 7.1531-5.773l114.98 12.277a13.881 13.881 0 0 1-1.4468 27.683z"/><path transform="translate(-202.94,-124.08)" d="m538.02 763.96h-123.01a6.5074 6.5074 0 0 1-6.5-6.5v-14.759a6.5074 6.5074 0 0 1 6.5-6.5h123.01a6.5074 6.5074 0 0 1 6.5 6.5v14.759a6.5074 6.5074 0 0 1-6.5 6.5z"/><path transform="translate(-202.94,-124.08)" d="m600.42 758.87a6.4887 6.4887 0 0 1-2.0447-0.33105l-116.81-38.569a6.5074 6.5074 0 0 1-4.1345-8.21l4.6277-14.015 0.47485 0.15674-0.47485-0.15674a6.5 6.5 0 0 1 8.2102-4.1343l116.81 38.569a6.5074 6.5074 0 0 1 4.1345 8.21l-4.6277 14.016a6.5092 6.5092 0 0 1-6.1655 4.4648z"/><path transform="translate(-202.94,-124.08)" d="m445.85 764.18q-0.17138 0-0.34375-9e-3a6.4557 6.4557 0 0 1-4.4917-2.1387l-9.8835-10.961a6.5078 6.5078 0 0 1 0.47461-9.1802l52.425-47.269a6.501 6.501 0 0 1 9.1802 0.47461l9.8836 10.962a6.5078 6.5078 0 0 1-0.47461 9.1802l-52.425 47.269a6.4533 6.4533 0 0 1-4.3448 1.6729z"/><circle cx="406.54" cy="417.62" r="51"/></g><path transform="translate(-202.94,-124.08)" d="m634.36 764.19h-108.12a6.4861 6.4861 0 0 1-5.6294-9.75l83.241-144.18a6.5002 6.5002 0 0 1 11.259 0l54.061 93.636a40.194 40.194 0 0 1-34.809 60.291z" fill="#737e8c"/><g fill="#2f2e41"><path transform="translate(-202.94,-124.08)" d="m567.44 561.1c-3.3059-0.0918-7.4202-0.20654-10.59-2.522a8.1339 8.1339 0 0 1-3.2002-6.0723 5.4712 5.4712 0 0 1 1.8604-4.4936c1.6553-1.3994 4.0725-1.727 6.6782-0.96143l-2.6992-19.726 1.9814-0.27149 3.1733 23.19-1.6545-0.75927c-1.9185-0.87989-4.5518-1.3272-6.1882 0.0552a3.5154 3.5154 0 0 0-1.1526 2.8955 6.1475 6.1475 0 0 0 2.3811 4.5278c2.4668 1.8018 5.7463 2.0342 9.4658 2.1382z"/><rect x="369.98" y="404.95" width="10.772" height="2"/><path transform="translate(-202.94,-124.08)" d="m639.72 481.54a42.233 42.233 0 0 1 21.246-27.278 40.882 40.882 0 0 1 35.083-1.0886 40.417 40.417 0 0 1 23.244 27.143 42.153 42.153 0 0 1 0.64008 18.489 47.958 47.958 0 0 1-8.0982 18.002c-3.9508 5.7209-8.5952 10.913-12.859 16.394a152 152 0 0 0-11.666 17.3 153.07 153.07 0 0 0-19.574 59.127 91.18 91.18 0 0 0-0.45936 18.984c1.1484 12.286 5.908 24.32 16.833 31.005 5.8082 3.5543 12.511 5.3897 19.142 6.6736a87.126 87.126 0 0 0 22.657 1.7705c12.843-0.91272 25.695-6.2723 33.154-17.187a30.621 30.621 0 0 0 3.8379-7.885c0.59406-1.8417-2.3016-2.6304-2.8928-0.79752-3.9506 12.248-15.94 19.797-28.074 22.099a68.674 68.674 0 0 1-22.826-0.0223c-6.8623-1.0246-13.934-2.443-20.224-5.4712a30.284 30.284 0 0 1-13.559-12.535 44.192 44.192 0 0 1-4.9945-17.088c-1.3366-13.084 0.84031-26.629 4.1-39.285a151.2 151.2 0 0 1 15.899-38.613 148.49 148.49 0 0 1 11.814-17.286c4.2973-5.4174 8.8817-10.627 12.757-16.366a49.304 49.304 0 0 0 7.9251-18.022 45.676 45.676 0 0 0-0.32554-18.785 43.288 43.288 0 0 0-21.891-28.775c-10.808-5.7012-23.976-7.0663-35.537-2.8652a45.386 45.386 0 0 0-25.41 23.375 43.268 43.268 0 0 0-2.8351 8.1899c-0.44179 1.8777 2.4501 2.6791 2.8928 0.79752z"/><path transform="translate(-202.94,-124.08)" d="m649.46 483.98a23.094 23.094 0 0 1 26.966-14.861c1.8781 0.43926 2.6797-2.4526 0.79752-2.8928a25.815 25.815 0 0 0-30.657 16.956c-0.62926 1.8296 2.2676 2.6154 2.8928 0.79752z"/><path transform="translate(-202.94,-124.08)" d="m644.86 498.15a5.4704 5.4704 0 0 1-2.1641-0.44677l-13.781-5.9233a5.5001 5.5001 0 1 1 4.3435-10.106l13.781 5.9233a5.5001 5.5001 0 0 1-2.1797 10.553z"/></g><path transform="translate(-202.94,-1052.8)" d="m624.68 1452.8-6.249-40.49c-0.26123-1.6929-2.8447-2.6994-5.77-2.248l-12.137 1.873c-2.9253 0.4516-5.0854 2.19-4.8242 3.883l5.9834 38.769a21.481 21.481 0 1 0 22.997-1.7869z" fill="#ccc"/><circle transform="translate(-202.94,-1052.8)" cx="614.56" cy="1471.8" r="9.46" fill="#ff6584"/><path transform="translate(-202.94,-1052.8)" d="m450.19 1587.7a11.943 11.943 0 0 1-7.8269-2.8984l-56.834-49.102a11.983 11.983 0 0 1-1.2334-16.902q0.28528-0.3303 0.59424-0.6392l58.88-58.88a11.982 11.982 0 0 1 16.947 0l52.968 52.967a11.997 11.997 0 0 1 0 16.947l-55.014 55.014a11.965 11.965 0 0 1-8.4805 3.4931zm-64.593-68.834 0.707 0.707c-0.17138 0.1714-0.33667 0.3496-0.49511 0.5327a9.9827 9.9827 0 0 0 1.0278 14.081l56.834 49.102a10.022 10.022 0 0 0 13.586-0.4951l55.014-55.014a9.9955 9.9955 0 0 0 0-14.119l-52.968-52.967a9.9825 9.9825 0 0 0-14.118 0l-58.88 58.88z" fill="#3f3d56"/><path transform="translate(-202.94,-1052.8)" d="m446.78 1570.1-45.981-41.848 52.948-52.948 43.914 43.914zm-43.084-41.916 43.019 39.152 48.118-48.118-41.086-41.086z" fill="#3f3d56"/><circle transform="translate(-202.94,-1052.8)" cx="450.25" cy="1522.2" r="24.611" fill="#ccc"/><path transform="translate(-202.94,-1052.8)" d="m462.35 1517.3c2.935 2.7577 3.0902 12.685-1.3911 17.454-4.4813 4.7693-11.902 2.5748-14.837-0.1829-2.935-2.7578-0.27265-5.0345 4.2087-9.8038 4.4814-4.7694 9.0846-10.225 12.02-7.4676z" fill="#fff"/><circle transform="translate(-202.94,-1052.8)" cx="437.36" cy="1522.6" r="7.2921" fill="#3f3d56"/><circle transform="translate(-202.94,-1052.8)" cx="450.47" cy="1508.6" r="7.2921" fill="#3f3d56"/><path transform="translate(-202.94,-1052.8)" d="m615.46 1704.6a6.5004 6.5004 0 0 1-6.468-5.9746l-9.3577-115.25a13.88 13.88 0 1 1 27.668-2.2465l9.3574 115.26a6.5078 6.5078 0 0 1-5.9524 7.0049l-14.711 1.1943c-0.17946 0.014-0.35866 0.022-0.53664 0.022z" fill="#c65370"/></g></g><g transform="translate(611.84 .0063188)"><g fill-opacity="0" stroke="#8c95a1" stroke-linejoin="round" stroke-miterlimit="20"><rect transform="matrix(1.095,0,0,1.095,24.649,-89.447)" x="32.524" y="140.08" width="428.29" height="236.65" ry="15.247" opacity=".4" stroke-dasharray="5.47955, 0.913258" stroke-linecap="round" stroke-width=".91326" style="font-variation-settings:'wght' 700;paint-order:markers fill stroke"/><rect transform="matrix(.99996 0 0 .99996 -1.8306 .00017628)" x=".99548" y=".9955" width="598.01" height="348.01" opacity=".5" stroke-dasharray="1.09504, 26.281" stroke-linecap="square" stroke-width="1.095" style="font-variation-settings:'wght' 700;paint-order:markers fill stroke"/><rect x="99.573" y="102.08" width="199.62" height="113.3" opacity=".4" stroke-dasharray="1.9, 22.8" stroke-linecap="square" stroke-width="1.9" style="font-variation-settings:'wght' 700;paint-order:markers fill stroke"/></g><g transform="translate(4.4651,-56.35)">
			
				<path d="m166.3 378.46h-107.02c-4.165 0-7.541-3.376-7.541-7.542v-11.253c0-4.165 3.376-7.542 7.541-7.542h107.02c4.165 0 7.542 3.376 7.542 7.542v11.253c-1e-3 4.166-3.377 7.542-7.542 7.542z" fill="#d4d4d4" stroke="#5d6774" stroke-miterlimit="10" stroke-width=".75"/>
				<path d="m124.54 371.16h-57.45c-2.438 0-4.415-1.977-4.415-4.415v-2.899c0-2.438 1.977-4.415 4.415-4.415h57.45c2.438 0 4.415 1.977 4.415 4.415v2.899c0 2.438-1.977 4.415-4.415 4.415z" fill="#fff"/>
				<path d="m165.93 365.29c0 2.766-2.45 5.009-5.472 5.009s-5.472-2.243-5.472-5.009 2.45-5.009 5.472-5.009 5.472 2.243 5.472 5.009z" fill="#fff"/>
			
			
				<path d="m150.03 351.71h-107.02c-4.165 0-7.542-3.376-7.542-7.542v-11.253c0-4.165 3.376-7.542 7.542-7.542h107.02c4.165 0 7.542 3.377 7.542 7.542v11.253c-1e-3 4.165-3.378 7.542-7.543 7.542z" fill="#d2798f" stroke="#5d6774" stroke-miterlimit="10" stroke-width=".75"/>
				<path d="m108.26 344.41h-57.45c-2.438 0-4.415-1.977-4.415-4.415v-2.899c0-2.438 1.977-4.415 4.415-4.415h57.45c2.438 0 4.415 1.977 4.415 4.415v2.899c0 2.438-1.977 4.415-4.415 4.415z" fill="#fff"/>
				<path d="m149.66 338.54c0 2.766-2.243 5.009-5.009 5.009s-5.009-2.243-5.009-5.009 2.243-5.009 5.009-5.009 5.009 2.242 5.009 5.009z" fill="#fff"/>
			
		</g><g transform="matrix(.4625 0 0 .4625 -71.281 -69.367)"><g><path transform="translate(634.09,321.94)" d="m353.1 370.94a27.478 27.478 0 0 1-54.387 0h-69.572v153.83h193.53v-153.83z" fill="#c9cacc" stroke="#717e8e" stroke-width="1.6216"/><path transform="translate(560,209.09)" d="m789.21 487.74h-778.42a10.8 10.8 0 0 1-10.789-10.789v-444.25a10.8 10.8 0 0 1 10.789-10.789h778.42a10.8 10.8 0 0 1 10.786 10.789v444.25a10.8 10.8 0 0 1-10.789 10.789z" fill="#d2d3d5"/><rect transform="translate(580.09,249)" width="761.75" height="429.82" fill="url(#b)"/><rect transform="translate(609,273)" width="108" height="360" rx="4" fill="#d2798f"/></g><path transform="translate(647,288)" d="m6 0h20a6 6 0 0 1 6 6v4a6 6 0 0 1-6 6h-20a6 6 0 0 1-6-6v-4a6 6 0 0 1 6-6z" fill="#fff"/><path transform="translate(623,601)" d="m4 0h72a4 4 0 0 1 4 4v8a4 4 0 0 1-4 4h-72a4 4 0 0 1-4-4v-8a4 4 0 0 1 4-4z" fill="#fff"/><path transform="translate(750,273)" d="m4 0h72a4 4 0 0 1 4 4v8a4 4 0 0 1-4 4h-72a4 4 0 0 1-4-4v-8a4 4 0 0 1 4-4z" fill="#f2f2f2"/><rect transform="translate(750,311)" width="160" height="88" rx="8" fill="#d2798f"/><rect transform="translate(623,320)" width="80" height="16" rx="8" fill="#fff"/><rect transform="translate(750,567)" width="528" height="66" rx="16" fill="#e0e3e6"/><path transform="translate(1198,273)" d="m4 0h72a4 4 0 0 1 4 4v8a4 4 0 0 1-4 4h-72a4 4 0 0 1-4-4v-8a4 4 0 0 1 4-4z" fill="#c65370"/><g fill="#fff"><rect transform="translate(623,344)" width="80" height="16" rx="8" opacity=".149"/><rect transform="translate(623,368)" width="80" height="16" rx="8" opacity=".149"/><rect transform="translate(623,392)" width="80" height="16" rx="8" opacity=".149"/><rect transform="translate(623,416)" width="80" height="16" rx="8" opacity=".149"/></g><g><rect transform="translate(1118,311)" width="160" height="88" rx="8" fill="#d2798f"/><rect transform="translate(934,311)" width="160" height="88" rx="8" fill="#d2798f"/><rect transform="translate(750,489)" width="528" height="66" rx="16" fill="#e0e3e6"/><rect transform="translate(750,411)" width="528" height="66" rx="16" fill="#e0e3e6"/></g></g><g transform="matrix(.33738 0 0 .33738 38.144 94.874)">
	<path d="m179.34 61.47c-37.396 0-72.553 14.562-98.996 41.004-54.584 54.585-54.584 143.4 0 197.99 26.443 26.442 61.6 41.004 98.996 41.004s72.553-14.561 98.995-41.004c54.584-54.587 54.584-143.4 0-197.99-26.442-26.443-61.6-41.004-98.995-41.004zm77.782 217.78c-20.776 20.775-48.4 32.217-77.782 32.217-29.383 0-57.007-11.441-77.782-32.217-42.889-42.89-42.889-112.68-1e-3 -155.56 20.776-20.775 48.4-32.217 77.783-32.217 29.382 0 57.006 11.441 77.782 32.217 42.889 42.888 42.888 112.67 0 155.56z" fill="#737e8c"/>
	<path d="m237.21 136.59c-22.619 16.857-49.848 37.341-58.857 44.921-4.787 0.234-9.506 2.156-13.161 5.812-7.811 7.811-7.811 20.475 0 28.285 7.811 7.811 20.475 7.811 28.284 0 3.656-3.655 5.578-8.375 5.812-13.161 7.578-9.008 28.063-36.238 44.921-58.859 1.482-1.99 1.281-4.768-0.475-6.522-1.756-1.759-4.534-1.959-6.524-0.476z" fill="#c65370"/>
	<path d="m383.73 179.41c-1.166-7.912-2.544-15.734-4.513-23.488-5.835-22.967-15.779-44.793-29.342-64.23-13.123-18.807-29.456-35.342-48.225-48.535-18.921-13.303-40.19-23.199-62.568-29.061-12.207-3.197-24.781-5.289-37.388-5.957-7.982-0.422-15.858-0.375-23.828 0.039-9.674 0.503-19.252 2.036-28.729 3.976-7.975 1.632-15.927 3.919-23.568 6.724-6.023 2.209-12.05 4.51-17.8 7.377-4.413 2.201-8.775 4.459-13.104 6.828-3.728 2.037-7.34 4.404-10.85 6.785-5.002 3.395-9.864 6.941-14.551 10.764-14.073 11.475-26.649 24.973-36.784 40.061-6.06 9.021-11.402 18.387-15.916 28.285-9.957 21.83-15.518 45.664-16.432 69.631-0.463 12.109 0.336 24.193 2.151 36.166 1.889 12.445 5.257 24.576 9.619 36.371 6.376 17.23 15.721 33.32 26.919 47.846 14.908 19.338 34.262 35.602 55.623 47.371 20.627 11.363 43.615 18.652 67.045 21.115l-12.557-9.871c-18.468-4.537-36.207-12.221-52.097-22.619-20.388-13.344-38.025-31.142-50.921-51.834-10.021-16.078-17.358-33.799-21.433-52.311-4.519-20.531-4.952-41.691-1.673-62.422 2.818-17.818 8.749-35.326 17.449-51.127 4.958-8.93 10.488-17.527 17.035-25.387 6.186-7.426 12.848-14.4 20.221-20.666 9.127-7.758 19.05-14.346 29.585-20.023 15.679-8.447 32.999-13.836 50.582-16.453 22.586-3.363 45.942-1.682 67.824 4.838 21.839 6.508 42.192 17.848 59.151 33.078 17.131 15.389 30.85 34.701 39.526 56.045 4.544 11.178 7.757 22.809 9.533 34.744l51.616 26.361c-0.352-6.802-0.606-13.675-1.6-20.421z" fill="#d4d4d4"/>
</g></g><g transform="translate(685.38 356.55)"><g fill-opacity="0" stroke="#8c95a1" stroke-linejoin="round" stroke-miterlimit="20"><rect transform="matrix(1.095,0,0,1.095,24.649,-89.447)" x="32.524" y="140.08" width="428.29" height="236.65" ry="15.247" opacity=".4" stroke-dasharray="5.47955, 0.913258" stroke-linecap="round" stroke-width=".91326" style="font-variation-settings:'wght' 700;paint-order:markers fill stroke"/><rect transform="matrix(.99996 0 0 .99996 -1.8306 .00017628)" x=".99548" y=".9955" width="598.01" height="348.01" opacity=".5" stroke-dasharray="1.09504, 26.281" stroke-linecap="square" stroke-width="1.095" style="font-variation-settings:'wght' 700;paint-order:markers fill stroke"/><rect x="99.573" y="102.08" width="199.62" height="113.3" opacity=".4" stroke-dasharray="1.9, 22.8" stroke-linecap="square" stroke-width="1.9" style="font-variation-settings:'wght' 700;paint-order:markers fill stroke"/></g><g transform="translate(4.4651,-56.35)">
			
				<path d="m166.3 378.46h-107.02c-4.165 0-7.541-3.376-7.541-7.542v-11.253c0-4.165 3.376-7.542 7.541-7.542h107.02c4.165 0 7.542 3.376 7.542 7.542v11.253c-1e-3 4.166-3.377 7.542-7.542 7.542z" fill="#d4d4d4" stroke="#5d6774" stroke-miterlimit="10" stroke-width=".75"/>
				<path d="m124.54 371.16h-57.45c-2.438 0-4.415-1.977-4.415-4.415v-2.899c0-2.438 1.977-4.415 4.415-4.415h57.45c2.438 0 4.415 1.977 4.415 4.415v2.899c0 2.438-1.977 4.415-4.415 4.415z" fill="#fff"/>
				<path d="m165.93 365.29c0 2.766-2.45 5.009-5.472 5.009s-5.472-2.243-5.472-5.009 2.45-5.009 5.472-5.009 5.472 2.243 5.472 5.009z" fill="#fff"/>
			
			
				<path d="m150.03 351.71h-107.02c-4.165 0-7.542-3.376-7.542-7.542v-11.253c0-4.165 3.376-7.542 7.542-7.542h107.02c4.165 0 7.542 3.377 7.542 7.542v11.253c-1e-3 4.165-3.378 7.542-7.543 7.542z" fill="#d2798f" stroke="#5d6774" stroke-miterlimit="10" stroke-width=".75"/>
				<path d="m108.26 344.41h-57.45c-2.438 0-4.415-1.977-4.415-4.415v-2.899c0-2.438 1.977-4.415 4.415-4.415h57.45c2.438 0 4.415 1.977 4.415 4.415v2.899c0 2.438-1.977 4.415-4.415 4.415z" fill="#fff"/>
				<path d="m149.66 338.54c0 2.766-2.243 5.009-5.009 5.009s-5.009-2.243-5.009-5.009 2.243-5.009 5.009-5.009 5.009 2.242 5.009 5.009z" fill="#fff"/>
			
		</g><g transform="matrix(.4625 0 0 .4625 -71.281 -69.367)"><g><path transform="translate(634.09,321.94)" d="m353.1 370.94a27.478 27.478 0 0 1-54.387 0h-69.572v153.83h193.53v-153.83z" fill="#c9cacc" stroke="#717e8e" stroke-width="1.6216"/><path transform="translate(560,209.09)" d="m789.21 487.74h-778.42a10.8 10.8 0 0 1-10.789-10.789v-444.25a10.8 10.8 0 0 1 10.789-10.789h778.42a10.8 10.8 0 0 1 10.786 10.789v444.25a10.8 10.8 0 0 1-10.789 10.789z" fill="#d2d3d5"/><rect transform="translate(580.09,249)" width="761.75" height="429.82" fill="url(#b)"/><rect transform="translate(609,273)" width="108" height="360" rx="4" fill="#d2798f"/></g><path transform="translate(647,288)" d="m6 0h20a6 6 0 0 1 6 6v4a6 6 0 0 1-6 6h-20a6 6 0 0 1-6-6v-4a6 6 0 0 1 6-6z" fill="#fff"/><path transform="translate(623,601)" d="m4 0h72a4 4 0 0 1 4 4v8a4 4 0 0 1-4 4h-72a4 4 0 0 1-4-4v-8a4 4 0 0 1 4-4z" fill="#fff"/><path transform="translate(750,273)" d="m4 0h72a4 4 0 0 1 4 4v8a4 4 0 0 1-4 4h-72a4 4 0 0 1-4-4v-8a4 4 0 0 1 4-4z" fill="#f2f2f2"/><rect transform="translate(750,311)" width="160" height="88" rx="8" fill="#d2798f"/><rect transform="translate(623,320)" width="80" height="16" rx="8" fill="#fff"/><rect transform="translate(750,567)" width="528" height="66" rx="16" fill="#e0e3e6"/><path transform="translate(1198,273)" d="m4 0h72a4 4 0 0 1 4 4v8a4 4 0 0 1-4 4h-72a4 4 0 0 1-4-4v-8a4 4 0 0 1 4-4z" fill="#c65370"/><g fill="#fff"><rect transform="translate(623,344)" width="80" height="16" rx="8" opacity=".149"/><rect transform="translate(623,368)" width="80" height="16" rx="8" opacity=".149"/><rect transform="translate(623,392)" width="80" height="16" rx="8" opacity=".149"/><rect transform="translate(623,416)" width="80" height="16" rx="8" opacity=".149"/></g><g><rect transform="translate(1118,311)" width="160" height="88" rx="8" fill="#d2798f"/><rect transform="translate(934,311)" width="160" height="88" rx="8" fill="#d2798f"/><rect transform="translate(750,489)" width="528" height="66" rx="16" fill="#e0e3e6"/><rect transform="translate(750,411)" width="528" height="66" rx="16" fill="#e0e3e6"/></g></g><g transform="matrix(.33738 0 0 .33738 38.144 94.874)">
	<path d="m179.34 61.47c-37.396 0-72.553 14.562-98.996 41.004-54.584 54.585-54.584 143.4 0 197.99 26.443 26.442 61.6 41.004 98.996 41.004s72.553-14.561 98.995-41.004c54.584-54.587 54.584-143.4 0-197.99-26.442-26.443-61.6-41.004-98.995-41.004zm77.782 217.78c-20.776 20.775-48.4 32.217-77.782 32.217-29.383 0-57.007-11.441-77.782-32.217-42.889-42.89-42.889-112.68-1e-3 -155.56 20.776-20.775 48.4-32.217 77.783-32.217 29.382 0 57.006 11.441 77.782 32.217 42.889 42.888 42.888 112.67 0 155.56z" fill="#737e8c"/>
	<path d="m237.21 136.59c-22.619 16.857-49.848 37.341-58.857 44.921-4.787 0.234-9.506 2.156-13.161 5.812-7.811 7.811-7.811 20.475 0 28.285 7.811 7.811 20.475 7.811 28.284 0 3.656-3.655 5.578-8.375 5.812-13.161 7.578-9.008 28.063-36.238 44.921-58.859 1.482-1.99 1.281-4.768-0.475-6.522-1.756-1.759-4.534-1.959-6.524-0.476z" fill="#c65370"/>
	<path d="m383.73 179.41c-1.166-7.912-2.544-15.734-4.513-23.488-5.835-22.967-15.779-44.793-29.342-64.23-13.123-18.807-29.456-35.342-48.225-48.535-18.921-13.303-40.19-23.199-62.568-29.061-12.207-3.197-24.781-5.289-37.388-5.957-7.982-0.422-15.858-0.375-23.828 0.039-9.674 0.503-19.252 2.036-28.729 3.976-7.975 1.632-15.927 3.919-23.568 6.724-6.023 2.209-12.05 4.51-17.8 7.377-4.413 2.201-8.775 4.459-13.104 6.828-3.728 2.037-7.34 4.404-10.85 6.785-5.002 3.395-9.864 6.941-14.551 10.764-14.073 11.475-26.649 24.973-36.784 40.061-6.06 9.021-11.402 18.387-15.916 28.285-9.957 21.83-15.518 45.664-16.432 69.631-0.463 12.109 0.336 24.193 2.151 36.166 1.889 12.445 5.257 24.576 9.619 36.371 6.376 17.23 15.721 33.32 26.919 47.846 14.908 19.338 34.262 35.602 55.623 47.371 20.627 11.363 43.615 18.652 67.045 21.115l-12.557-9.871c-18.468-4.537-36.207-12.221-52.097-22.619-20.388-13.344-38.025-31.142-50.921-51.834-10.021-16.078-17.358-33.799-21.433-52.311-4.519-20.531-4.952-41.691-1.673-62.422 2.818-17.818 8.749-35.326 17.449-51.127 4.958-8.93 10.488-17.527 17.035-25.387 6.186-7.426 12.848-14.4 20.221-20.666 9.127-7.758 19.05-14.346 29.585-20.023 15.679-8.447 32.999-13.836 50.582-16.453 22.586-3.363 45.942-1.682 67.824 4.838 21.839 6.508 42.192 17.848 59.151 33.078 17.131 15.389 30.85 34.701 39.526 56.045 4.544 11.178 7.757 22.809 9.533 34.744l51.616 26.361c-0.352-6.802-0.606-13.675-1.6-20.421z" fill="#d4d4d4"/>
</g></g></svg>
