<svg width="600" height="350" version="1.1" viewBox="0 0 158.75 92.604" xmlns="http://www.w3.org/2000/svg" xmlns:xlink="http://www.w3.org/1999/xlink"><defs><linearGradient id="a" x1="192" x2="714" y1="375.5" y2="375.5" gradientTransform="translate(2.7397,14.53)" gradientUnits="userSpaceOnUse"><stop stop-color="#daa4b4" offset=".125"/><stop stop-color="#8f98a3" offset="1"/></linearGradient><linearGradient id="d" x1="663.27" x2="784.79" y1="255.53" y2="198.12" gradientUnits="userSpaceOnUse"><stop stop-color="#fff" offset="0"/><stop stop-color="#EEE" offset="1"/></linearGradient><linearGradient id="c" x1="366.87" x2="251.82" y1="183.75" y2="62.441" gradientUnits="userSpaceOnUse"><stop stop-color="#fff" offset="0"/><stop stop-color="#EEE" offset="1"/></linearGradient><linearGradient id="b" x1="651.77" x2="537.23" y1="237.15" y2="57.594" gradientUnits="userSpaceOnUse"><stop stop-color="#fff" offset="0"/><stop stop-color="#EEE" offset="1"/></linearGradient></defs><g transform="matrix(.26458 0 0 .26458 .48739 .0016723)"><g transform="matrix(.91399 0 0 .91399 -11.177 -34.075)"><path d="m166.53 113.94-0.63-0.78a166.31 166.31 0 0 1 13.7-10l0.55 0.84a164.35 164.35 0 0 0-13.62 9.94z" fill="#263238"/><path d="m159.15 120.25-0.68-0.74c1.34-1.21 2.72-2.42 4.09-3.59l0.65 0.77c-1.37 1.16-2.73 2.36-4.06 3.56z" fill="#263238"/><ellipse transform="rotate(-41.22 216.44 181.22)" cx="216.41" cy="181.2" rx="115.24" ry="81.19" fill="#737e8c"/><ellipse transform="rotate(-41.22 216.44 181.22)" cx="216.41" cy="181.2" rx="99.97" ry="70.43" fill="#fff"/><path d="m237.15 103.89c-43.29 3.51-87.67 41-99.13 83.66l156.77-12.69c11.46-42.7-14.35-74.47-57.64-70.97z" fill="#c65370"/><g fill="#fff"><path d="m138 187.55 78.39-6.35-40.74-50.2c-17.94 15.16-31.9 35.2-37.65 56.55z" opacity=".7"/><path d="m237.15 103.89c-21.64 1.76-43.56 12-61.5 27.13l40.76 50.18z" opacity=".4"/><path d="m237.15 103.89-20.74 77.31 70.09-59.15c-10.43-12.84-27.7-19.91-49.35-18.16z" opacity=".1"/><ellipse transform="rotate(-41.22 216.44 181.22)" cx="216.41" cy="181.2" rx="40.79" ry="28.73"/></g><ellipse transform="rotate(-41.22 216.44 181.22)" cx="216.41" cy="181.2" rx="23.8" ry="16.77" fill="#737e8c"/><path d="m275.08 139.85a236.29 236.29 0 0 0-52.63 27.9l7.37 13.2a257.66 257.66 0 0 0 45.26-41.1z" fill="#737e8c"/><g fill="#c65370"><path d="m147 217.06a1.51 1.51 0 0 1-1.55-1.84 2.73 2.73 0 0 1 2.36-2.16l86.19-6.83a1.51 1.51 0 0 1 1.7 1.83 2.7 2.7 0 0 1-2.35 2.15l-86.12 6.84z"/><path d="m221.55 225.26a1.5 1.5 0 0 1-1.55-1.84 2.7 2.7 0 0 1 2.36-2.15l28-2.23a1.51 1.51 0 0 1 1.71 1.83 2.72 2.72 0 0 1-2.36 2.16l-28 2.22z"/><path d="m79.15 261.08a1.51 1.51 0 0 1-1.55-1.84 2.72 2.72 0 0 1 2.4-2.15l28-2.23a1.52 1.52 0 0 1 1.71 1.83 2.72 2.72 0 0 1-2.35 2.16l-28 2.22z"/><path d="m104.09 244.71a1.5 1.5 0 0 1-1.54-1.84 2.71 2.71 0 0 1 2.35-2.15l84-6.67a1.52 1.52 0 0 1 1.71 1.83 2.73 2.73 0 0 1-2.36 2.16l-84 6.66z"/></g></g><g fill-opacity="0" stroke="#8c95a1" stroke-linejoin="round" stroke-miterlimit="20"><rect x="60.263" y="45.427" width="468.98" height="259.13" ry="16.695" opacity=".4" stroke-dasharray="5.47955, 0.913258" stroke-linecap="round" style="font-variation-settings:'wght' 700;paint-order:markers fill stroke"/><rect transform="matrix(.99996 0 0 .99996 -1.8306 .00017628)" x=".99548" y=".9955" width="598.01" height="348.01" opacity=".5" stroke-dasharray="1.09504, 26.281" stroke-linecap="square" stroke-width="1.095" style="font-variation-settings:'wght' 700;paint-order:markers fill stroke"/><rect x="94.449" y="159.63" width="199.62" height="113.3" opacity=".4" stroke-dasharray="1.9, 22.8" stroke-linecap="square" stroke-width="1.9" style="font-variation-settings:'wght' 700;paint-order:markers fill stroke"/></g><g transform="matrix(.54585 0 0 .54585 141.31 15.414)"><path d="m432.51 202.04c-4.238 6.648-15.31 14.395-23.163 14.289-26.752-0.49-35.559-18.713-38.446-25.348 0.543-0.132 1.457-0.238 2.106-0.318 4.926-0.715 9.959-5.588 11.429-11.084 1.894-7.152 4.225-21.137 3.947-30.023l33.837 18.726c-0.053 2.569-0.225 5.377-0.464 8.211a243.86 243.86 0 0 1-0.543 5.059 167.14 167.14 0 0 1-0.596 4.45c-0.622 4.635 1.444 9.23 5.351 11.786z" fill="#f8ae9d"/><path d="m435.42 129.2c-1.828 4.794-1.06 10.238 0.794 15.018 1.311 3.378 4.225 0.398 7.854 0.464 5.615 0.093 9.998-5.748 13.389-21.229 2.158-11.363 2.701-17.124 2.264-18.223-1.549-3.934-6.661-6.04-10.873-6.41" fill="#58353e"/><path d="m443.96 95.15c8.846 10.661 12.064 40.658 4.595 61.556-5.311 14.859-11.482 24.448-18.687 24.143-10.939-0.464-32.141-9.456-39.041-16.965-12.436-13.522-8.82-40.035-6.251-56.722 2.331-15.164 9.429-34.857 28.486-31.109 12.529 2.45 22.965 9.522 30.898 19.097z" fill="#f8ae9d"/><g fill="#58353e"><path d="m393.91 106.93c1.962 2.521 5.421 3.077 8.271 3.575 3.831 0.67 5.726 2.066 7.714 5.812 1.26 2.392 2.519 5.013 4.772 6.309 1.831 1.058 1.762-1.644 2.057-3.738a4.977 4.977 0 0 1 0.112-0.542c0.445-1.671 2.225-1.384 2.749 0.264 0.477 1.481 1.498 2.734 2.797 3.432 0.212 0.114 0.437 0.214 0.662 0.171 0.305-0.042 0.544-0.327 0.743-0.584 0.417-0.538 0.832-1.221 1.26-1.945 1.407-2.375 4.062-1.521 5.632 0.749 0.981 1.41 2.148 2.863 3.752 3.19 0.517 0.114 1.166 0.029 1.405-0.47 0.305-0.612-0.173-1.225-0.093-1.851 0.066-0.584 0.318-0.841 0.596-1.339 1.094-1.938 3.589-2.007 5.127-0.399a57 57 0 0 0 3.343 3.219c0.491 0.427 1.207 0.855 1.697 0.427 0.265-0.228 0.331-0.612 0.384-0.983 0.279-1.808 0.544-3.617 0.822-5.426 0.159-1.011 0.703-2.336 1.631-2.08 0.45 0.129 0.715 0.599 0.967 1.026 0.305 0.541 5.753 6.708 5.859 6.238 0.848-3.503 2.585-6.694 3.433-10.198 5.488-22.547-18.862-40.678-37.459-40.778-4.135-0.029-7.913 0.038-11.93 0.993-4.281 1.025-8.801 2.653-12.685 4.946-5.447 3.205-9.57 9.03-8.509 15.981"/><path d="m402.67 99.19c2.701 3.059 3.416 7.363 3.668 11.429 0.371 6.132-0.132 12.502-2.966 17.945-0.808 1.549-1.404 9.217-2.649 8.793-0.397-0.132-0.331-6.078-1.377-9.283-1.616-4.967-9.059-6.86-12.41-3.722-5.35 4.993-2.211 11.059-0.437 14.833 1.06 2.278 2.742 4.834 3.033 7.244 0.358 3.086 0.464 14.33-1.549 16.952-1.682 2.198-3.47-8.423-4.993-10.515-11.27-15.588-22.077-55.279-2.834-63.887 2.927-1.311 11.959-1.987 14.7-0.318m79.064 326.04c1.113 0.186 2.239 0.345 3.404 0.385 6.198 0.198 12.184-1.166 18.236-2.199 5.324-0.914 6.768-1.417 6.662-7.84-0.927-50.868-8.41-101.6-21.865-150.67-2.053-7.496-4.291-15.045-8.224-21.746-6.715-11.429-22.13-21.295-33.957-26.831-1.668-0.782-8.581 3.615-10.263 2.86-1.47-0.662-2.768-1.695-4.252-2.344-4.343-1.894-7.257 2.066-10.886 3.722-1.88 0.847-3.973 1.39-6.039 1.298-1.682-0.067-3.205-1.086-4.741-0.292-6.913 3.576-24.077-22.964-24.077-22.964l-7.456 7.747-21.759 22.792-54.377 74.919s-9.867 61.397-16.647 101.64c-1.179 6.939-5.841 21.944-6.768 27.202 0.199-1.139 46.419-1.444 48.908-1.444h94.201c5.284 0 19.495 2.238 23.203-1.642 4.569-4.768 9.853-26.646 10.131-32.778 0.914-20.62-0.503-41.081-0.781-61.82 0.119 8.436 2.542 16.064 3.575 24.328 1.338 10.635 3.245 21.256 4.967 31.837 1.377 8.503 2.701 17.031 3.761 25.587 0.477 3.854-0.133 6.145 3.125 7.655 2.742 1.258 8.715 0.052 11.919 0.595z"/><path d="m396.95 375.08s9.668 5.483 8.807 17.137-4.357 25.163-18.952 23.746c-14.594-1.404 10.145-40.883 10.145-40.883z"/></g><path d="m350.21 266.12c0.026 7.324-0.993 14.66-2.9 21.759-1.921 7.099-4.728 13.945-7.986 20.541-1.629 3.297-3.364 6.529-5.152 9.72-1.761 3.205-3.576 6.384-5.059 9.642-0.728 1.629-1.364 3.31-1.616 4.966-0.066 0.808-0.132 1.642 0.093 2.344 0.053 0.384 0.278 0.675 0.411 1.02 0.251 0.304 0.423 0.635 0.741 0.927 2.371 2.37 5.761 3.973 8.979 5.522 13.217 6.026 27.255 10.489 40.631 16.502 6.688 3.006 13.31 6.251 19.468 10.303l1.139 0.768c0.384 0.265 0.742 0.609 1.113 0.914a10.869 10.869 0 0 1 1.761 2.225c0.98 1.602 1.642 3.351 2.159 5.125 0.98 3.563 1.39 7.231 1.417 10.9-0.239-3.642-0.848-7.284-1.92-10.741-1.139-3.43-2.901-6.767-6.198-8.37-6.185-3.84-12.82-6.9-19.548-9.72-6.741-2.782-13.561-5.417-20.408-7.973-6.847-2.596-13.734-5.072-20.461-8.145-3.311-1.642-6.715-3.191-9.536-6.039-0.357-0.344-0.648-0.821-0.953-1.231-0.225-0.504-0.53-0.98-0.609-1.51-0.318-1.06-0.212-2.106-0.119-3.099 0.317-1.96 1.033-3.735 1.801-5.43 1.576-3.39 3.416-6.556 5.204-9.747 1.788-3.192 3.589-6.357 5.298-9.575 6.82-12.82 11.561-26.924 12.25-41.598z" fill="#fff"/><path d="m440.89 207.06c-3.338 3.311-18.197 13.892-32.367 13.892-2.358 0-4.848-0.212-7.483-0.702-11.893-2.171-21.905-10.104-27.758-19.189a40.16 40.16 0 0 1-2.821-5.232c-1.06-2.277-1.815-4.608-2.252-6.86 5.96-0.728 11.655-2.225 12.582-3.284 1.006 6.94 9.575 19.468 22.553 21.825 1.629 0.305 3.166 0.437 4.636 0.464h0.026c6.092 0.106 10.767-1.841 13.959-3.801 0.026 0 6.211-4.874 6.237-4.9z" fill="#c65370"/><path d="m450.22 358.35c-0.037-0.648 0.047-1.289 0.024-1.938-0.027-0.701-0.105-1.387-0.158-2.087l-0.385-4.011c-0.246-2.731-0.493-5.463-0.7-8.197-0.41-5.416-0.69-10.852-0.836-16.282-0.28-10.861-0.123-21.747 0.607-32.585 0.201-3.036 0.455-6.061 0.735-9.088 0.152-1.547 0.316-3.108 0.481-4.656 0.167-1.522 0.413-3.034 0.433-4.574 0.012-0.956-1.424-1.021-1.639-0.133-0.635 2.635-0.727 5.466-1 8.161a406.08 406.08 0 0 0-0.697 8.13 339.19 339.19 0 0 0-0.786 16.439c-0.235 10.917 0.155 21.838 1.086 32.729 0.265 3.062 0.569 6.109 0.939 9.152 0.194 1.555 0.387 3.096 0.62 4.648 0.105 0.684 0.196 1.368 0.327 2.037 0.163 0.787 0.456 1.513 0.62 2.3 0.09 0.181 0.351 0.113 0.329-0.045z" fill="#fff"/><path d="m447.17 146.98c0.092 0 0.343-0.145 0.132-0.145-0.106 0-0.344 0.145-0.132 0.145z" fill="#cc6144"/><path d="m687.04 527h-468.08c-14.02 0-24.958-10.003-24.958-21.837v-259.33c0-11.834 10.938-21.837 24.958-21.837h468.08c14.02 0 24.958 10.003 24.958 21.837v259.33c0 11.834-10.938 21.837-24.958 21.837z" fill="url(#a)" stroke="#e1e4e5" stroke-width="4"/><path d="m712.48 256.79h-518.48v-7.811c0-13.795 11.188-24.983 24.983-24.983h468.51c13.795 0 24.983 11.188 24.983 24.983z" fill="#fff" stroke="#e1e4e5" stroke-width="4"/><path d="m219.03 247.38a5.795 5.795 0 1 0 0-11.59 5.795 5.795 0 0 0 0 11.59zm24.145 0a5.796 5.796 0 1 0-1e-3 -11.591 5.796 5.796 0 0 0 1e-3 11.591zm23.179 0a5.795 5.795 0 1 0-2e-3 -11.59 5.795 5.795 0 0 0 2e-3 11.59z" fill="#e1e4e5"/><g fill="#fff" stroke="#e1e4e5" stroke-width="4"><rect x="239" y="290" width="91" height="90" rx="18"/><rect x="239" y="398" width="91" height="90" rx="18"/><rect x="348" y="290" width="91" height="90" rx="18"/><rect x="348" y="398" width="91" height="90" rx="18"/><rect x="456" y="290" width="91" height="90" rx="18"/><rect x="564" y="290" width="91" height="90" rx="18"/></g><rect x="454" y="396" width="95" height="94" rx="20" fill="#c65370"/><path d="m502 456.7 9.598 5.002c1.87 0.975 4.052-0.602 3.695-2.666l-1.832-10.606 7.767-7.503c1.512-1.462 0.676-4.008-1.41-4.312l-10.734-1.545-4.799-9.656c-0.932-1.88-3.638-1.88-4.57 0l-4.799 9.656-10.734 1.552c-2.086 0.297-2.922 2.849-1.41 4.312l7.767 7.503-1.832 10.605c-0.357 2.065 1.825 3.641 3.695 2.666z" clip-rule="evenodd" fill="#fff" fill-rule="evenodd"/><rect x="564" y="398" width="91" height="90" rx="18" fill="#fff" stroke="#e1e4e5" stroke-width="4"/><path d="m369.87 380.25s18.787 2.767 27.958-0.967c9.074-3.695 30.447-17.845 50.912-20.368a0.828 0.828 0 0 1 0.894 0.563c0.426 1.341 0.655 4.588-5.414 7.764-7.908 4.121-13.881 7.433-13.881 7.433s37.229 9.744 47.12 13.135c1.953 0.668 3.449 1.424 4.605 2.23 3.603 2.513 0.962 8.164-3.304 7.11l-24.965-6.162s2.156 1.98 1.327 4.46c-0.791 2.343-5.313 3.914-9.17 2.723 0 0 2.233 2.427 0.266 5.21-1.967 2.782-6.721 2.681-9.014 2.159 0 0 2.632 1.853 1.793 4.265s-6.089 3.565-7.771 3.402c-1.681-0.163-15.865 0.933-36.512-7.023l-27.808 6.313s-8.342-6.824 2.964-32.247z" fill="#f8ae9d"/><path d="m389.16 414.81c-34.989 12.145-81.805 0.543-111.48-19.626-18.594-12.608-30.46-28.62-28.46-44.26 5.178-40.631 37.108-133.76 64.734-147.35 18.779-9.244 41.558-13.071 54.259-14.608 5.959-0.728 9.681-0.9 9.681-0.9l-4.609 13.005-23.07 65.052c-0.861 38.605-28.487 61.529-22.991 70.521 5.496 8.966 48.895 18.647 71.687 33.996 6.304 4.265 14.303 35.109-9.747 44.167z" fill="#c65370"/><path d="m715.54 247.35c-13.882 3.289-28.564-8.484-28.564-8.484s7.835-17.098 21.721-20.377c13.882-3.288 28.559 8.474 28.559 8.474s-7.835 17.099-21.716 20.387z" fill="url(#d)"/><path d="m309.94 150.72c14.614 10.066 36.942 3.029 36.942 3.029s-1.383-23.355-16.007-33.411c-14.615-10.067-36.932-3.04-36.932-3.04s1.382 23.355 15.997 33.422z" fill="url(#c)"/><path d="m588.55 182.07c15.844 16.125 45.471 12.725 45.471 12.725s3.921-29.545-11.938-45.661c-15.843-16.125-45.456-12.735-45.456-12.735s-3.921 29.545 11.923 45.671z" fill="url(#b)"/><g fill="#c65370"><ellipse transform="rotate(180 679.78 387.26)" cx="679.78" cy="387.26" rx="11.774" ry="11.263"/><ellipse transform="rotate(180 240.87 446.36)" cx="240.87" cy="446.36" rx="15.87" ry="15.358"/><circle transform="matrix(-1 0 0 1 150.63 308.63)" r="5.631"/><circle transform="matrix(-1 0 0 1 678.75 169.75)" r="10.751"/></g><g fill="#e1e4e5"><ellipse transform="matrix(-1 0 0 1 678.75 498.24)" rx="10.751" ry="10.239"/><circle transform="matrix(-1,0,0,1,219,382)" r="6"/><circle transform="matrix(-1 0 0 1 342.58 507.58)" r="3.584"/><circle transform="matrix(-1 0 0 1 565.12 126.12)" r="5.119"/><circle transform="matrix(.25882 .96593 .96593 -.25882 148.13 428.13)" r="5.003"/><circle transform="matrix(-1 0 0 1 236.66 187.66)" r="6.655"/><ellipse transform="matrix(-1 0 0 1 683.12 292.1)" rx="5.119" ry="4.095"/><circle transform="matrix(.25882 .96593 .96593 -.25882 525.75 187.75)" r="10.411"/><path d="m738.05 309.21h0.134c0.793 11.236 9.15 11.409 9.15 11.409s-9.215 0.18-9.215 13.164c0-12.984-9.215-13.164-9.215-13.164s8.353-0.173 9.146-11.409zm-568.3-115.21h0.23c1.366 19.664 15.758 19.967 15.758 19.967s-15.87 0.314-15.87 23.036c0-22.722-15.87-23.036-15.87-23.036s14.386-0.303 15.752-19.967z"/></g></g></g></svg>
