<svg xmlns="http://www.w3.org/2000/svg" viewBox="0 0 500 500"><g id="freepik--background-complete--inject-383"><rect x="416.78" y="398.49" width="33.12" height="0.25" style="fill:#ebebeb"></rect><rect x="322.53" y="403.21" width="8.69" height="0.25" style="fill:#ebebeb"></rect><rect x="396.59" y="389.21" width="19.19" height="0.25" style="fill:#ebebeb"></rect><rect x="52.46" y="390.89" width="43.19" height="0.25" style="fill:#ebebeb"></rect><rect x="104.56" y="390.89" width="6.33" height="0.25" style="fill:#ebebeb"></rect><rect x="131.47" y="395.11" width="93.68" height="0.25" style="fill:#ebebeb"></rect><path d="M237,337.8H43.91a5.71,5.71,0,0,1-5.7-5.71V60.66A5.71,5.71,0,0,1,43.91,55H237a5.71,5.71,0,0,1,5.71,5.71V332.09A5.71,5.71,0,0,1,237,337.8ZM43.91,55.2a5.46,5.46,0,0,0-5.45,5.46V332.09a5.46,5.46,0,0,0,5.45,5.46H237a5.47,5.47,0,0,0,5.46-5.46V60.66A5.47,5.47,0,0,0,237,55.2Z" style="fill:#ebebeb"></path><path d="M453.31,337.8H260.21a5.72,5.72,0,0,1-5.71-5.71V60.66A5.72,5.72,0,0,1,260.21,55h193.1A5.71,5.71,0,0,1,459,60.66V332.09A5.71,5.71,0,0,1,453.31,337.8ZM260.21,55.2a5.47,5.47,0,0,0-5.46,5.46V332.09a5.47,5.47,0,0,0,5.46,5.46h193.1a5.47,5.47,0,0,0,5.46-5.46V60.66a5.47,5.47,0,0,0-5.46-5.46Z" style="fill:#ebebeb"></path><rect y="382.4" width="500" height="0.25" style="fill:#ebebeb"></rect><polygon points="416.75 264.42 266.45 264.42 267.49 254.23 417.79 254.23 416.75 264.42" style="fill:#fafafa"></polygon><polygon points="392.13 264.42 251.56 264.42 252.6 254.23 393.17 254.23 392.13 264.42" style="fill:#f0f0f0"></polygon><path d="M418.43,268.19H250.76l1.83-17.93H420.25Zm-166.71-2.06H417.89l1.4-13.81H253.13Z" style="fill:#e6e6e6"></path><polygon points="257.15 263.42 252.91 263.42 253.77 255.23 258.01 255.23 257.15 263.42" style="fill:#e6e6e6"></polygon><polygon points="262.31 263.42 258.07 263.42 258.93 255.23 263.17 255.23 262.31 263.42" style="fill:#e6e6e6"></polygon><polygon points="267.47 263.42 263.23 263.42 264.09 255.23 268.33 255.23 267.47 263.42" style="fill:#e6e6e6"></polygon><polygon points="272.63 263.42 268.39 263.42 269.25 255.23 273.49 255.23 272.63 263.42" style="fill:#e6e6e6"></polygon><polygon points="277.79 263.42 273.55 263.42 274.41 255.23 278.65 255.23 277.79 263.42" style="fill:#e6e6e6"></polygon><polygon points="282.95 263.42 278.71 263.42 279.57 255.23 283.81 255.23 282.95 263.42" style="fill:#e6e6e6"></polygon><polygon points="288.11 263.42 283.87 263.42 284.73 255.23 288.97 255.23 288.11 263.42" style="fill:#e6e6e6"></polygon><polygon points="293.27 263.42 289.03 263.42 289.89 255.23 294.13 255.23 293.27 263.42" style="fill:#e6e6e6"></polygon><polygon points="298.43 263.42 294.19 263.42 295.05 255.23 299.29 255.23 298.43 263.42" style="fill:#e6e6e6"></polygon><polygon points="303.59 263.42 299.35 263.42 300.21 255.23 304.44 255.23 303.59 263.42" style="fill:#e6e6e6"></polygon><polygon points="308.75 263.42 304.51 263.42 305.37 255.23 309.61 255.23 308.75 263.42" style="fill:#e6e6e6"></polygon><polygon points="313.9 263.42 309.67 263.42 310.53 255.23 314.76 255.23 313.9 263.42" style="fill:#e6e6e6"></polygon><polygon points="319.06 263.42 314.83 263.42 315.69 255.23 319.92 255.23 319.06 263.42" style="fill:#e6e6e6"></polygon><polygon points="324.22 263.42 319.99 263.42 320.85 255.23 325.08 255.23 324.22 263.42" style="fill:#e6e6e6"></polygon><polygon points="329.38 263.42 325.15 263.42 326.01 255.23 330.24 255.23 329.38 263.42" style="fill:#e6e6e6"></polygon><polygon points="334.54 263.42 330.31 263.42 331.17 255.23 335.4 255.23 334.54 263.42" style="fill:#e6e6e6"></polygon><polygon points="339.7 263.42 335.47 263.42 336.33 255.23 340.56 255.23 339.7 263.42" style="fill:#e6e6e6"></polygon><polygon points="344.86 263.42 340.63 263.42 341.49 255.23 345.72 255.23 344.86 263.42" style="fill:#e6e6e6"></polygon><polygon points="350.02 263.42 345.79 263.42 346.64 255.23 350.88 255.23 350.02 263.42" style="fill:#e6e6e6"></polygon><polygon points="355.18 263.42 350.95 263.42 351.81 255.23 356.04 255.23 355.18 263.42" style="fill:#e6e6e6"></polygon><polygon points="360.34 263.42 356.11 263.42 356.96 255.23 361.2 255.23 360.34 263.42" style="fill:#e6e6e6"></polygon><polygon points="365.5 263.42 361.26 263.42 362.12 255.23 366.36 255.23 365.5 263.42" style="fill:#e6e6e6"></polygon><polygon points="370.66 263.42 366.43 263.42 367.28 255.23 371.52 255.23 370.66 263.42" style="fill:#e6e6e6"></polygon><polygon points="375.82 263.42 371.58 263.42 372.44 255.23 376.68 255.23 375.82 263.42" style="fill:#e6e6e6"></polygon><polygon points="380.98 263.42 376.74 263.42 377.6 255.23 381.84 255.23 380.98 263.42" style="fill:#e6e6e6"></polygon><polygon points="386.14 263.42 381.9 263.42 382.76 255.23 387 255.23 386.14 263.42" style="fill:#e6e6e6"></polygon><polygon points="391.3 263.42 387.06 263.42 387.92 255.23 392.16 255.23 391.3 263.42" style="fill:#e6e6e6"></polygon><polygon points="439.03 267.86 422.72 267.86 424.14 251.55 428.8 251.55 428.68 252.94 425.41 252.94 424.23 266.47 437.76 266.47 438.95 252.94 435.61 252.94 435.73 251.55 440.45 251.55 439.03 267.86" style="fill:#e6e6e6"></polygon><polygon points="432.28 259.7 430.89 259.7 432.26 244.11 433.64 244.11 432.28 259.7" style="fill:#e6e6e6"></polygon><polygon points="436.95 247.47 432.86 244.91 428.16 247.23 427.63 246 433.04 243.32 437.76 246.28 436.95 247.47" style="fill:#e6e6e6"></polygon><polygon points="429.73 218.97 279.43 218.97 280.46 208.78 430.76 208.78 429.73 218.97" style="fill:#fafafa"></polygon><polygon points="415.58 218.97 264.53 218.97 265.57 208.78 416.62 208.78 415.58 218.97" style="fill:#f0f0f0"></polygon><path d="M431.4,222.74H263.73l1.83-17.92H433.22Zm-166.71-2.06H430.86l1.4-13.8H266.1Z" style="fill:#e6e6e6"></path><polygon points="270.12 217.97 265.89 217.97 266.74 209.78 270.98 209.78 270.12 217.97" style="fill:#e6e6e6"></polygon><polygon points="275.28 217.97 271.05 217.97 271.9 209.78 276.14 209.78 275.28 217.97" style="fill:#e6e6e6"></polygon><polygon points="280.44 217.97 276.2 217.97 277.06 209.78 281.3 209.78 280.44 217.97" style="fill:#e6e6e6"></polygon><polygon points="285.6 217.97 281.36 217.97 282.22 209.78 286.46 209.78 285.6 217.97" style="fill:#e6e6e6"></polygon><polygon points="290.76 217.97 286.52 217.97 287.38 209.78 291.62 209.78 290.76 217.97" style="fill:#e6e6e6"></polygon><polygon points="295.92 217.97 291.68 217.97 292.54 209.78 296.78 209.78 295.92 217.97" style="fill:#e6e6e6"></polygon><polygon points="301.08 217.97 296.84 217.97 297.7 209.78 301.94 209.78 301.08 217.97" style="fill:#e6e6e6"></polygon><polygon points="306.24 217.97 302 217.97 302.86 209.78 307.1 209.78 306.24 217.97" style="fill:#e6e6e6"></polygon><polygon points="311.4 217.97 307.16 217.97 308.02 209.78 312.26 209.78 311.4 217.97" style="fill:#e6e6e6"></polygon><polygon points="316.56 217.97 312.32 217.97 313.18 209.78 317.42 209.78 316.56 217.97" style="fill:#e6e6e6"></polygon><polygon points="321.72 217.97 317.48 217.97 318.34 209.78 322.58 209.78 321.72 217.97" style="fill:#e6e6e6"></polygon><polygon points="326.88 217.97 322.64 217.97 323.5 209.78 327.74 209.78 326.88 217.97" style="fill:#e6e6e6"></polygon><polygon points="332.04 217.97 327.8 217.97 328.66 209.78 332.9 209.78 332.04 217.97" style="fill:#e6e6e6"></polygon><polygon points="337.2 217.97 332.96 217.97 333.82 209.78 338.06 209.78 337.2 217.97" style="fill:#e6e6e6"></polygon><polygon points="342.36 217.97 338.12 217.97 338.98 209.78 343.21 209.78 342.36 217.97" style="fill:#e6e6e6"></polygon><polygon points="347.51 217.97 343.28 217.97 344.14 209.78 348.37 209.78 347.51 217.97" style="fill:#e6e6e6"></polygon><polygon points="352.68 217.97 348.44 217.97 349.3 209.78 353.53 209.78 352.68 217.97" style="fill:#e6e6e6"></polygon><polygon points="357.83 217.97 353.6 217.97 354.46 209.78 358.69 209.78 357.83 217.97" style="fill:#e6e6e6"></polygon><polygon points="362.99 217.97 358.76 217.97 359.62 209.78 363.85 209.78 362.99 217.97" style="fill:#e6e6e6"></polygon><polygon points="368.15 217.97 363.92 217.97 364.78 209.78 369.01 209.78 368.15 217.97" style="fill:#e6e6e6"></polygon><polygon points="373.31 217.97 369.08 217.97 369.94 209.78 374.17 209.78 373.31 217.97" style="fill:#e6e6e6"></polygon><polygon points="378.47 217.97 374.24 217.97 375.1 209.78 379.33 209.78 378.47 217.97" style="fill:#e6e6e6"></polygon><polygon points="383.63 217.97 379.4 217.97 380.25 209.78 384.49 209.78 383.63 217.97" style="fill:#e6e6e6"></polygon><polygon points="388.79 217.97 384.56 217.97 385.42 209.78 389.65 209.78 388.79 217.97" style="fill:#e6e6e6"></polygon><polygon points="393.95 217.97 389.72 217.97 390.57 209.78 394.81 209.78 393.95 217.97" style="fill:#e6e6e6"></polygon><polygon points="399.11 217.97 394.88 217.97 395.73 209.78 399.97 209.78 399.11 217.97" style="fill:#e6e6e6"></polygon><polygon points="404.27 217.97 400.04 217.97 400.89 209.78 405.13 209.78 404.27 217.97" style="fill:#e6e6e6"></polygon><polygon points="409.43 217.97 405.19 217.97 406.05 209.78 410.29 209.78 409.43 217.97" style="fill:#e6e6e6"></polygon><polygon points="414.59 217.97 410.35 217.97 411.21 209.78 415.45 209.78 414.59 217.97" style="fill:#e6e6e6"></polygon><polygon points="451.92 222.5 435.61 222.5 437.03 206.19 441.69 206.19 441.56 207.58 438.3 207.58 437.11 221.12 450.65 221.12 451.84 207.58 448.49 207.58 448.62 206.19 453.34 206.19 451.92 222.5" style="fill:#e6e6e6"></polygon><polygon points="445.19 214.35 443.8 214.35 445.17 198.76 446.55 198.76 445.19 214.35" style="fill:#e6e6e6"></polygon><polygon points="444.45 215.14 439.5 212.46 440.25 211.23 444.54 213.56 449.08 210.99 449.69 212.18 444.45 215.14" style="fill:#e6e6e6"></polygon><polygon points="69.7 183.95 69.58 185.32 192.3 185.32 192.42 183.95 69.7 183.95" style="fill:#f0f0f0"></polygon><polygon points="192.42 183.95 69.7 183.95 69.58 185.32 192.3 185.32 192.42 183.95" style="fill:#f0f0f0;opacity:0.2"></polygon><polygon points="193.79 168.34 71.22 168.34 78.63 83.68 201.2 83.68 193.79 168.34" style="fill:#ebebeb"></polygon><path d="M74.58,201.72h0a5.66,5.66,0,0,1-5.73-6.28h0a7,7,0,0,1,6.83-6.28h0a5.66,5.66,0,0,1,5.73,6.28h0A7,7,0,0,1,74.58,201.72Z" style="fill:#e0e0e0"></path><polygon points="131.59 178.75 70.31 178.75 70.78 173.34 132.07 173.34 131.59 178.75" style="fill:#ebebeb"></polygon><polygon points="191.1 198.15 167.43 198.15 167.9 192.73 191.58 192.73 191.1 198.15" style="fill:#e0e0e0"></polygon><polygon points="192.88 178.75 187.47 178.75 187.94 173.34 193.35 173.34 192.88 178.75" style="fill:#ebebeb"></polygon><polygon points="183.71 178.75 178.29 178.75 178.77 173.34 184.18 173.34 183.71 178.75" style="fill:#ebebeb"></polygon><polygon points="174.53 178.75 169.12 178.75 169.6 173.34 175.01 173.34 174.53 178.75" style="fill:#ebebeb"></polygon><polygon points="201.65 78.47 109.72 78.47 110.13 73.81 202.06 73.81 201.65 78.47" style="fill:#f0f0f0;opacity:0.5"></polygon><polygon points="102.46 78.85 78.78 78.85 79.26 73.44 102.94 73.44 102.46 78.85" style="fill:#ebebeb"></polygon><polygon points="130.04 106.57 151.81 123.78 127.03 140.99 130.04 106.57" style="fill:#fff"></polygon><polygon points="184.61 162.2 86.11 163.83 86.33 161.29 189.17 161.29 184.61 162.2" style="fill:#e0e0e0"></polygon><polygon points="179.27 163.83 75.92 163.83 76.14 161.29 179.49 161.29 179.27 163.83" style="fill:#fff"></polygon><path d="M190.28,164.77H75.56L76,160.3H190.67Zm-114.16-.51H189.81l.3-3.44H76.42Z" style="fill:#e0e0e0"></path></g><g id="freepik--Plant--inject-383"><path d="M403.58,389.92s-7-15.33,1-30.45,10.35-18.67,5.24-21.76-7.47,12.09-7.47,12.09-4.31-10.45-.75-21.38,5.79-28.74.93-30.65-.93,22.21-5.15,30.43a71,71,0,0,1-4.13-17.93c-.58-8.78.33-22.81-3.51-26.4s-6.3-1.11-2.53,18.27A202.32,202.32,0,0,1,391,337.27s-8.34-25.42-13.93-26.16-5.59,7.49-.8,14.63,14,19.93,15.54,26.51c0,0-9.15-19.13-17.38-13.26s7.16,17.41,14,21.59S400,390.93,400,390.93Z" style="fill:#C65370"></path><path d="M403.58,389.92s-7-15.33,1-30.45,10.35-18.67,5.24-21.76-7.47,12.09-7.47,12.09-4.31-10.45-.75-21.38,5.79-28.74.93-30.65-.93,22.21-5.15,30.43a71,71,0,0,1-4.13-17.93c-.58-8.78.33-22.81-3.51-26.4s-6.3-1.11-2.53,18.27A202.32,202.32,0,0,1,391,337.27s-8.34-25.42-13.93-26.16-5.59,7.49-.8,14.63,14,19.93,15.54,26.51c0,0-9.15-19.13-17.38-13.26s7.16,17.41,14,21.59S400,390.93,400,390.93Z" style="opacity:0.2;isolation:isolate"></path><path d="M398,396.2s6.84-15.43-1.37-30.42-10.57-18.52-5.49-21.69,7.61,12,7.61,12,4.18-10.51.49-21.39S393.13,306,398,304s1.2,22.2,5.52,30.36a71,71,0,0,0,3.91-18c.48-8.79-.6-22.8,3.2-26.45s6.28-1.21,2.74,18.23A202.73,202.73,0,0,0,410,343.37s8-25.54,13.61-26.36,5.68,7.4,1,14.61-13.79,20.14-15.22,26.75c0,0,8.92-19.27,17.22-13.53s-7,17.53-13.77,21.8-11.26,30.52-11.26,30.52Z" style="fill:#C65370"></path><polygon points="429.59 385.2 373.07 385.2 377.64 425.64 425.01 425.64 429.59 385.2" style="fill:#263238"></polygon></g><g id="freepik--Desk--inject-383"><polygon points="279.2 192.74 288.42 168.76 287 168.76 277.14 192.74 279.2 192.74" style="fill:#263238"></polygon><polygon points="282.71 192.87 294.23 175.61 293.11 175.36 281.08 192.5 282.71 192.87" style="fill:#263238"></polygon><polygon points="239.01 192.68 229.8 168.7 231.22 168.7 241.08 192.68 239.01 192.68" style="fill:#263238"></polygon><polygon points="235.51 192.81 223.99 175.55 225.11 175.3 237.13 192.44 235.51 192.81" style="fill:#263238"></polygon><polygon points="260.89 190.06 258.87 190.06 259.41 162.81 260.35 162.81 260.89 190.06" style="fill:#263238"></polygon><polygon points="239.39 192.68 239.86 193.75 241.23 193.75 240.79 192.68 239.39 192.68" style="fill:#263238"></polygon><polygon points="278.85 192.68 278.38 193.75 277.01 193.75 277.44 192.68 278.85 192.68" style="fill:#263238"></polygon><polygon points="235.88 192.74 236.53 193.96 237.88 193.96 236.72 192.53 235.88 192.74" style="fill:#263238"></polygon><polygon points="282.37 192.74 281.73 193.96 280.38 193.96 281.54 192.53 282.37 192.74" style="fill:#263238"></polygon><polygon points="259.15 190.06 259.16 192.24 260.6 192.24 260.6 190.06 259.15 190.06" style="fill:#263238"></polygon><rect x="237.01" y="200.02" width="5.7" height="3.55" style="fill:#263238"></rect><rect x="275.67" y="200.02" width="5.7" height="3.55" style="fill:#263238"></rect><path d="M283.37,201.59,271,202.93a108.63,108.63,0,0,1-23.64,0L235,201.59v-7.68L245,192.6a109.79,109.79,0,0,1,28.29,0l10.06,1.31Z" style="fill:#C65370"></path><path d="M242.15,198a2.3,2.3,0,1,1-2.29-2.3A2.28,2.28,0,0,1,242.15,198Z" style="fill:#fff"></path><circle cx="239.86" cy="197.99" r="1.37" style="fill:#C65370"></circle><path d="M252.85,198a.73.73,0,0,1-.73.72.72.72,0,0,1-.72-.72.73.73,0,0,1,.72-.73A.73.73,0,0,1,252.85,198Z" style="fill:#fff"></path><path d="M255.43,198a.72.72,0,0,1-.72.72A.73.73,0,0,1,254,198a.73.73,0,0,1,.73-.73A.73.73,0,0,1,255.43,198Z" style="fill:#fff"></path><path d="M258,198a.73.73,0,0,1-.73.72.72.72,0,0,1-.72-.72.73.73,0,0,1,.72-.73A.73.73,0,0,1,258,198Z" style="fill:#fff"></path><path d="M260.6,198a.72.72,0,0,1-.72.72.73.73,0,0,1-.73-.72.73.73,0,0,1,.73-.73A.73.73,0,0,1,260.6,198Z" style="fill:#fff"></path><path d="M263.19,198a.73.73,0,1,1-.73-.73A.73.73,0,0,1,263.19,198Z" style="fill:#fff"></path><path d="M265.78,198a.73.73,0,0,1-1.46,0,.73.73,0,1,1,1.46,0Z" style="fill:#fff"></path><path d="M268.36,198a.72.72,0,0,1-.72.72.73.73,0,0,1-.73-.72.73.73,0,0,1,.73-.73A.73.73,0,0,1,268.36,198Z" style="fill:#fff"></path><path d="M197.25,277H219.2l-.51-2.38c-2.34-6.31-14.34-6.31-14.34-6.31-3,.17-5.89,3-6.71,6.85Z" style="fill:#C65370"></path><path d="M180.19,250.37h-20l2.63,23.06h22.06Z" style="fill:#263238"></path><path d="M188.74,276.36h-1v.26H150.28v-3.19h34.57l-4.66-23.06h-20l-1.11-9.78a2.51,2.51,0,0,1,2.5-2.39h17.16a2.52,2.52,0,0,1,2.52,2.39Z" style="fill:#263238"></path><polygon points="184.85 273.43 162.79 273.43 160.37 252.19 160.16 250.37 180.19 250.37 184.85 273.43" style="fill:#C65370"></polygon><polygon points="161.09 258.05 160.16 250.37 183.28 250.37 184.89 258.05 161.09 258.05" style="opacity:0.1"></polygon><path d="M127,274.11h-2.62a.48.48,0,0,1-.5-.46v-2.53a.48.48,0,0,1,.5-.46h1.88a.5.5,0,0,1,.48.34l.74,2.53A.48.48,0,0,1,127,274.11Z" style="fill:#263238"></path><path d="M130.6,274.11H128a.48.48,0,0,1-.5-.46v-2.53a.48.48,0,0,1,.5-.46h1.88a.5.5,0,0,1,.48.34l.74,2.53A.48.48,0,0,1,130.6,274.11Z" style="fill:#263238"></path><path d="M134.22,274.11H131.6a.48.48,0,0,1-.5-.46v-2.53a.48.48,0,0,1,.5-.46h1.88a.5.5,0,0,1,.48.34l.74,2.53A.48.48,0,0,1,134.22,274.11Z" style="fill:#263238"></path><path d="M137.84,274.11h-2.62a.48.48,0,0,1-.5-.46v-2.53a.48.48,0,0,1,.5-.46h1.88a.5.5,0,0,1,.48.34l.74,2.53A.48.48,0,0,1,137.84,274.11Z" style="fill:#263238"></path><path d="M141.45,274.11h-2.61a.48.48,0,0,1-.5-.46v-2.53a.48.48,0,0,1,.5-.46h1.88a.5.5,0,0,1,.48.34l.74,2.53A.48.48,0,0,1,141.45,274.11Z" style="fill:#263238"></path><path d="M145.07,274.11h-2.61a.48.48,0,0,1-.5-.46v-2.53a.48.48,0,0,1,.5-.46h1.88a.5.5,0,0,1,.48.34l.74,2.53A.48.48,0,0,1,145.07,274.11Z" style="fill:#263238"></path><path d="M148.69,274.11h-2.62a.49.49,0,0,1-.5-.46v-2.53a.49.49,0,0,1,.5-.46H148a.5.5,0,0,1,.48.34l.74,2.53A.48.48,0,0,1,148.69,274.11Z" style="fill:#263238"></path><path d="M152.31,274.11h-2.62a.49.49,0,0,1-.5-.46v-2.53a.49.49,0,0,1,.5-.46h1.89a.5.5,0,0,1,.48.34l.74,2.53A.48.48,0,0,1,152.31,274.11Z" style="fill:#263238"></path><path d="M155.93,274.11h-2.62a.49.49,0,0,1-.5-.46v-2.53a.49.49,0,0,1,.5-.46h1.88a.5.5,0,0,1,.49.34l.74,2.53A.48.48,0,0,1,155.93,274.11Z" style="fill:#263238"></path><path d="M159.55,274.11h-2.62a.49.49,0,0,1-.5-.46v-2.53a.49.49,0,0,1,.5-.46h1.88a.5.5,0,0,1,.49.34l.74,2.53A.48.48,0,0,1,159.55,274.11Z" style="fill:#263238"></path><path d="M163.17,274.11h-2.62a.49.49,0,0,1-.5-.46v-2.53a.49.49,0,0,1,.5-.46h1.88a.5.5,0,0,1,.49.34l.74,2.53A.48.48,0,0,1,163.17,274.11Z" style="fill:#263238"></path><path d="M166.79,274.11h-2.62a.49.49,0,0,1-.5-.46v-2.53a.49.49,0,0,1,.5-.46h1.88a.5.5,0,0,1,.49.34l.74,2.53A.48.48,0,0,1,166.79,274.11Z" style="fill:#263238"></path><path d="M170.41,274.11h-2.62a.49.49,0,0,1-.5-.46v-2.53a.49.49,0,0,1,.5-.46h1.88a.5.5,0,0,1,.49.34l.74,2.53A.48.48,0,0,1,170.41,274.11Z" style="fill:#263238"></path><path d="M174,274.11h-2.62a.49.49,0,0,1-.5-.46v-2.53a.49.49,0,0,1,.5-.46h1.88a.5.5,0,0,1,.49.34l.74,2.53A.48.48,0,0,1,174,274.11Z" style="fill:#263238"></path><path d="M177.65,274.11H175a.49.49,0,0,1-.5-.46v-2.53a.49.49,0,0,1,.5-.46h1.88a.5.5,0,0,1,.49.34l.73,2.53A.47.47,0,0,1,177.65,274.11Z" style="fill:#263238"></path><path d="M180.29,274.38a2.1,2.1,0,0,1-2.18,2h-54.2a2.09,2.09,0,0,1-2.18-2,1.89,1.89,0,0,1,.64-1.41,2.26,2.26,0,0,1,1.49-.58h54.25a2.35,2.35,0,0,1,.6.08A2,2,0,0,1,180.29,274.38Z" style="fill:#263238"></path><path d="M180.29,274.38a2.1,2.1,0,0,1-2.18,2h-54.2a2.09,2.09,0,0,1-2.18-2,1.89,1.89,0,0,1,.64-1.41,2.26,2.26,0,0,1,1.49-.58h54.25a2.35,2.35,0,0,1,.6.08A2,2,0,0,1,180.29,274.38Z" style="fill:#fff;opacity:0.2"></path><path d="M180.29,274.38a2.1,2.1,0,0,1-2.18,2H159.76a2,2,0,0,1-1.52-1.9,1.37,1.37,0,0,1,0-.36,1.85,1.85,0,0,1,.61-1.05,2.43,2.43,0,0,1,.46-.33l.26-.12a2.54,2.54,0,0,1,.83-.14h18.27A2,2,0,0,1,180.29,274.38Z" style="fill:#263238"></path><path d="M218.73,185.6h-5.54L207,253.15h5.53a2,2,0,0,0,1.84-1.92l5.87-63.71A1.62,1.62,0,0,0,218.73,185.6Z" style="fill:#263238"></path><path d="M210.16,253.15h-83a1.62,1.62,0,0,1-1.48-1.92l5.87-63.71a2,2,0,0,1,1.84-1.92h83a1.62,1.62,0,0,1,1.48,1.92L212,251.23A2,2,0,0,1,210.16,253.15Z" style="fill:#C65370"></path><path d="M210.16,253.15h-83a1.62,1.62,0,0,1-1.48-1.92l5.87-63.71a2,2,0,0,1,1.84-1.92h83a1.62,1.62,0,0,1,1.48,1.92L212,251.23A2,2,0,0,1,210.16,253.15Z" style="fill:#fff;opacity:0.2"></path><polygon points="207.66 239.6 132.27 239.6 136.45 191.81 211.84 191.81 207.66 239.6" style="fill:#C65370"></polygon><path d="M206.62,243.34H132.33a3.45,3.45,0,0,1-3.48-3.82L133,192a4.24,4.24,0,0,1,4.15-3.81h74.28a3.44,3.44,0,0,1,3.49,3.81l-4.16,47.49A4.24,4.24,0,0,1,206.62,243.34Z" style="fill:#263238"></path><polygon points="207.66 239.6 132.27 239.6 136.45 191.81 211.84 191.81 207.66 239.6" style="fill:#C65370"></polygon><polygon points="207.66 239.6 132.27 239.6 136.45 191.81 211.84 191.81 207.66 239.6" style="fill:#fff;opacity:0.4"></polygon><polygon points="153.61 209.12 144.07 209.12 144.9 199.58 147.63 199.58 147.55 200.39 145.64 200.39 144.95 208.31 152.87 208.31 153.56 200.39 151.61 200.39 151.68 199.58 154.44 199.58 153.61 209.12" style="fill:#C65370"></polygon><polygon points="149.67 204.35 148.86 204.35 149.66 195.23 150.47 195.23 149.67 204.35" style="fill:#C65370"></polygon><polygon points="149.24 204.81 146.35 203.25 146.78 202.53 149.29 203.89 151.95 202.39 152.31 203.09 149.24 204.81" style="fill:#C65370"></polygon><path d="M187.49,203.77l-1.41,5h-1.53l.64-2.26-1.56,1.82h-.73l-.61-1.79-.64,2.23h-1.53l1.43-5h1.36l.85,2.64,2.3-2.64Z" style="fill:#fff"></path><path d="M191.88,206.58a2.38,2.38,0,0,1-2.26,2.22,1.09,1.09,0,0,1-1.12-.58l-.14.51h-1.52l1.51-5.26H190l-.47,1.65a1.48,1.48,0,0,1,1-.34A1.51,1.51,0,0,1,191.88,206.58Zm-1.63.08a.5.5,0,0,0-.52-.61c-.42,0-.73.34-.78.88a.5.5,0,0,0,.52.61C189.89,207.54,190.2,207.19,190.25,206.66Z" style="fill:#fff"></path><path d="M196.84,206.58a2.37,2.37,0,0,1-2.26,2.22,1.13,1.13,0,0,1-1.06-.48l-.52,1.79h-1.6l1.51-5.26h1.51l-.1.36a1.57,1.57,0,0,1,1.08-.43A1.51,1.51,0,0,1,196.84,206.58Zm-1.63.08a.5.5,0,0,0-.52-.61c-.42,0-.73.34-.78.88a.5.5,0,0,0,.52.61C194.85,207.54,195.16,207.19,195.21,206.66Z" style="fill:#fff"></path><path d="M196.7,208.45l.65-1.09a2.6,2.6,0,0,0,1.31.35c.36,0,.49-.08.5-.18,0-.34-2,0-1.85-1.28.09-1,1.1-1.47,2.31-1.47a3.63,3.63,0,0,1,1.49.29l-.65,1.1a2.08,2.08,0,0,0-1.12-.29c-.37,0-.5.1-.51.19,0,.35,1.95,0,1.84,1.28-.09,1-1.11,1.45-2.3,1.45A3.55,3.55,0,0,1,196.7,208.45Z" style="fill:#fff"></path><path d="M184.31,227l-1.41,5h-1.52l.63-2.26-1.55,1.82h-.74l-.61-1.79-.64,2.23H177l1.42-5h1.36l.85,2.64,2.31-2.64Z" style="fill:#fff"></path><path d="M188.7,229.83a2.37,2.37,0,0,1-2.25,2.22,1.09,1.09,0,0,1-1.12-.58l-.15.51h-1.52l1.51-5.26h1.6l-.47,1.65a1.53,1.53,0,0,1,1-.34A1.51,1.51,0,0,1,188.7,229.83Zm-1.63.08a.5.5,0,0,0-.52-.61c-.41,0-.73.34-.78.88a.5.5,0,0,0,.52.61A.84.84,0,0,0,187.07,229.91Z" style="fill:#fff"></path><path d="M193.67,229.83a2.39,2.39,0,0,1-2.26,2.22,1.12,1.12,0,0,1-1.06-.48l-.52,1.79h-1.6l1.51-5.26h1.5l-.1.36a1.58,1.58,0,0,1,1.09-.43A1.51,1.51,0,0,1,193.67,229.83Zm-1.63.08a.5.5,0,0,0-.52-.61c-.42,0-.74.34-.78.88a.5.5,0,0,0,.52.61C191.68,230.79,192,230.44,192,229.91Z" style="fill:#fff"></path><path d="M193.53,231.7l.64-1.09a2.66,2.66,0,0,0,1.32.35c.35,0,.48-.08.49-.18,0-.34-2,0-1.84-1.28.08-1,1.1-1.47,2.31-1.47a3.7,3.7,0,0,1,1.49.29l-.65,1.1a2.09,2.09,0,0,0-1.13-.29c-.37,0-.5.1-.51.19,0,.35,1.95,0,1.84,1.28-.08,1-1.1,1.45-2.29,1.45A3.52,3.52,0,0,1,193.53,231.7Z" style="fill:#fff"></path><path d="M160.63,207.54h3.14l-.28,1.41h-5.66l.23-1.12,3.4-2.67c.85-.68,1.1-1.07,1.1-1.56s-.37-.82-1.1-.82a2.06,2.06,0,0,0-1.59.78l-1.16-.85a3.71,3.71,0,0,1,3-1.37c1.58,0,2.62.85,2.62,2,0,.89-.41,1.64-1.72,2.65Z" style="fill:#fff"></path><path d="M167.5,202.86l-.4,1.42h.44c1.87,0,2.8.77,2.8,2.05,0,1.68-1.43,2.75-3.46,2.75a4.2,4.2,0,0,1-2.74-.87l.83-1.27a3.1,3.1,0,0,0,2,.68c1,0,1.6-.39,1.6-1.09,0-.53-.4-.85-1.45-.85h-2l1.22-4.21h4.57l-.29,1.39Z" style="fill:#fff"></path><path d="M177.22,206.42a2.7,2.7,0,0,1-3,2.66,2.81,2.81,0,0,1-3-3.07,4.41,4.41,0,0,1,4.5-4.67,4,4,0,0,1,2.08.51l-.78,1.27a2.61,2.61,0,0,0-3.9,1.73,2.5,2.5,0,0,1,1.72-.59A2.2,2.2,0,0,1,177.22,206.42Zm-1.7.15c0-.64-.49-1-1.19-1a1.22,1.22,0,0,0-1.35,1.18,1.09,1.09,0,0,0,1.23,1.05A1.2,1.2,0,0,0,175.52,206.57Z" style="fill:#fff"></path><path d="M158.53,224.35l-1.5,7.48H155.3l1.22-6.09H155l.28-1.39Z" style="fill:#fff"></path><path d="M165.5,230.26h-1.22l-.31,1.57h-1.69l.32-1.57h-4l.23-1.16,4.4-4.75h1.89l-4.1,4.5h2l.28-1.4h1.61l-.28,1.4h1.23Z" style="fill:#fff"></path><path d="M172.87,230.26h-1.23l-.31,1.57h-1.69l.32-1.57h-4l.23-1.16,4.4-4.75h1.89l-4.1,4.5h2l.28-1.4h1.61l-.27,1.4h1.22Z" style="fill:#fff"></path><polygon points="150.63 231.71 141.09 231.71 141.93 222.16 144.65 222.16 144.58 222.97 142.67 222.97 141.97 230.89 149.89 230.89 150.59 222.97 148.63 222.97 148.7 222.16 151.47 222.16 150.63 231.71" style="fill:#C65370"></polygon><polygon points="146.69 226.93 145.87 226.93 146.67 217.81 147.48 217.81 146.69 226.93" style="fill:#C65370"></polygon><polygon points="149.42 219.78 147.02 218.28 144.27 219.64 143.97 218.92 147.13 217.35 149.89 219.08 149.42 219.78" style="fill:#C65370"></polygon><polygon points="183.39 188.24 168.66 243.31 173.61 243.31 188.18 188.24 183.39 188.24" style="fill:#fff;opacity:0.1;isolation:isolate"></polygon><polygon points="191.03 188.24 176.31 243.31 186.13 243.31 200.69 188.24 191.03 188.24" style="fill:#fff;opacity:0.1;isolation:isolate"></polygon><path d="M143.38,288.13H150l10.67,126.34a2.41,2.41,0,0,1-2.41,2.62h0a2.41,2.41,0,0,1-2.4-2.18Z" style="fill:#263238"></path><path d="M303.49,287.25h6.66l10.67,127.22a2.42,2.42,0,0,1-2.41,2.62h0a2.42,2.42,0,0,1-2.4-2.18Z" style="fill:#263238"></path><rect x="109.45" y="287.25" width="198.72" height="22.41" style="fill:#C65370"></rect><polygon points="273.26 287.42 272.49 309.64 308.17 309.66 308.17 287.25 273.26 287.42" style="opacity:0.30000000000000004"></polygon><rect x="109.47" y="287.42" width="160.77" height="22.41" style="opacity:0.2"></rect><path d="M113.83,287.25h-6.66L107,423.11a2.41,2.41,0,0,0,2.42,2.42h0a2.42,2.42,0,0,0,2.42-2.38Z" style="fill:#263238"></path><path d="M273.94,287.25h-6.66l-.2,135.86a2.42,2.42,0,0,0,2.42,2.42h0a2.41,2.41,0,0,0,2.42-2.38Z" style="fill:#263238"></path><path d="M107.17,287.25,107,423.11a2.41,2.41,0,0,0,2.42,2.42h0a2.42,2.42,0,0,0,2.42-2.38l2-135.9Z" style="fill:#fff;opacity:0.2"></path><path d="M273.94,287.25h-6.66l-.2,135.86a2.42,2.42,0,0,0,2.42,2.42h0a2.41,2.41,0,0,0,2.42-2.38Z" style="fill:#fff;opacity:0.2"></path><path d="M101.63,281.87h0c0-3,1.12-5.47,2.51-5.48h209c1.39,0,2.51,2.46,2.51,5.48h0c0,3-1.12,5.46-2.51,5.47h-209C102.75,287.33,101.63,284.89,101.63,281.87Z" style="fill:#263238"></path><path d="M101.63,281.87h0c0-3,1.12-5.47,2.51-5.48h209c1.39,0,2.51,2.46,2.51,5.48h0c0,3-1.12,5.46-2.51,5.47h-209C102.75,287.33,101.63,284.89,101.63,281.87Z" style="fill:#fff;opacity:0.1"></path><path d="M261.73,281.87h0c0-3,1.13-5.47,2.52-5.48h48.93c1.39,0,2.51,2.46,2.51,5.48h0c0,3-1.12,5.46-2.51,5.47H264.25C262.86,287.33,261.74,284.89,261.73,281.87Z" style="fill:#263238"></path><path d="M213,267.61c-15.94,0-22.13-14.5-22.2-14.67l1.25-.52c.32.78,8.12,18.93,29.67,12.46,21.85-6.57,39.22-53.08,39.39-53.55l1.27.47c-.72,1.94-17.78,47.61-40.27,54.37A31.37,31.37,0,0,1,213,267.61Z" style="fill:#263238"></path><rect x="255.11" y="203.42" width="31.95" height="73.53" style="fill:#263238"></rect><rect x="255.11" y="203.42" width="31.95" height="73.53" style="opacity:0.30000000000000004"></rect><rect x="232.26" y="203.42" width="31.95" height="73.53" style="fill:#263238"></rect><path d="M254,219.1a6.54,6.54,0,1,1-6.53-6.54A6.53,6.53,0,0,1,254,219.1Z" style="fill:#fff"></path><path d="M251.38,219.15a3.91,3.91,0,1,1-3.91-3.91A3.91,3.91,0,0,1,251.38,219.15Z" style="fill:#C65370"></path><path d="M250.73,236.71a3.27,3.27,0,1,1-3.26-3.27A3.27,3.27,0,0,1,250.73,236.71Z" style="fill:#fff"></path><path d="M249.42,236.74a2,2,0,1,1-1.95-2A1.95,1.95,0,0,1,249.42,236.74Z" style="fill:#C65370"></path><rect x="246.96" y="223.06" width="1.01" height="11.72" style="fill:#fff"></rect><rect x="234.61" y="246.01" width="27.26" height="27.26" style="opacity:0.30000000000000004"></rect><path d="M250.13,261.45a1.61,1.61,0,1,1-1.61-1.61A1.61,1.61,0,0,1,250.13,261.45Z" style="fill:#263238"></path><path d="M248.52,259.84c-.16-3.89,9.21-12,3-12s-10.33,4.4-10.09,7S248.52,259.84,248.52,259.84Z" style="fill:#263238"></path><path d="M248.54,263.18c-3.74,1.07-13.81-6.15-12.35-.07s6.7,9,9.14,8.18S248.54,263.18,248.54,263.18Z" style="fill:#263238"></path><path d="M250.26,260.59c3.18,2.25,3.87,14.62,7.68,9.67s2.83-10.87.65-12.25S250.26,260.59,250.26,260.59Z" style="fill:#263238"></path><path d="M253.7,158.57a8.19,8.19,0,0,1,11.58-.43l.27.27a1.67,1.67,0,0,0,2.36-2.36,11.55,11.55,0,0,0-16.34-.08l-.22.22c-1.48,1.54.86,3.91,2.36,2.36Z" style="fill:#C65370"></path><path d="M243.65,144.8a24.23,24.23,0,0,1,15.88-6.35,23.57,23.57,0,0,1,16.2,6.2c1.56,1.46,3.92-.87,2.36-2.36a27,27,0,0,0-18.53-7.16c-6.92,0-13.07,2.83-18.24,7.31-1.61,1.41.73,3.77,2.36,2.36Z" style="fill:#C65370"></path><path d="M247.61,152.43a16.27,16.27,0,0,1,23-1.24c.32.28.63.59.93.9,1.5,1.54,3.86-.81,2.36-2.36a19.59,19.59,0,0,0-27.7-.62c-.31.31-.62.62-.91.94-1.45,1.57.88,3.94,2.36,2.36Z" style="fill:#C65370"></path></g><g id="freepik--Character--inject-383"><polygon points="166.35 410.43 175.34 407.75 172.62 386.51 161.56 390.44 166.35 410.43" style="fill:#ff8b7b"></polygon><polygon points="160.32 384.52 171.99 380.18 173.74 395.46 163.38 398.36 160.32 384.52" style="opacity:0.2;isolation:isolate"></polygon><path d="M176.11,406.23,165.86,409a.78.78,0,0,0-.53.91l1.55,9.76a1.75,1.75,0,0,0,2,1.49c3.54-1,5.21-1.74,9.71-3,2.77-.76,9.1-2.56,13-3.27s3.09-5.25,1.38-5.37c-7.67-.47-12.07-1.39-15.16-3.1A2.29,2.29,0,0,0,176.11,406.23Z" style="fill:#263238"></path><path d="M182.51,406.8a1.25,1.25,0,0,0,0-1.24.79.79,0,0,0-.64-.48c-1.21-.16-3.39,2.21-3.63,2.49a.21.21,0,0,0,0,.23.21.21,0,0,0,.19.13,11.94,11.94,0,0,0,2.46-.25A2.64,2.64,0,0,0,182.51,406.8Zm-.75-1.29a.4.4,0,0,1,.3.25.8.8,0,0,1,.06.79c-.33.53-1.52.82-3.24.94C179.79,406.56,181.12,405.42,181.76,405.51Z" style="fill:#C65370"></path><path d="M178.53,407.87c.77-.76,1.68-3,1.23-3.94a.82.82,0,0,0-.92-.46,1,1,0,0,0-.83.52c-.72,1.1.14,3.68.15,3.8a.29.29,0,0,0,.16.15h.1A.24.24,0,0,0,178.53,407.87Zm.36-4c.32,0,.47.09.48.22a4.47,4.47,0,0,1-.9,3.15,4.87,4.87,0,0,1-.1-3,.64.64,0,0,1,.41-.31Z" style="fill:#C65370"></path><path d="M120.8,295.3s53.25,4.49,51.94,27.62c-1.07,18.93-3.88,13.78,1.63,70.06l-13.39.74s-13.62-46-11.79-64.32c-15,0-49.36,1.31-54.36-12.23a60.32,60.32,0,0,1-3.55-21.45Z" style="fill:#263238"></path><polygon points="158.85 396.31 176.35 393.31 176.07 385.57 157.95 389.6 158.85 396.31" style="fill:#C65370"></polygon><polygon points="201.08 413.21 209.55 409.19 203.62 388.62 193.29 394.19 201.08 413.21" style="fill:#ff8b7b"></polygon><polygon points="191.16 388.53 202.03 382.46 206.09 397.29 196.3 401.74 191.16 388.53" style="opacity:0.2;isolation:isolate"></polygon><path d="M210.08,407.57l-9.7,4.31a.79.79,0,0,0-.39,1l3,9.41a1.74,1.74,0,0,0,2.22,1.16c3.35-1.57,4.88-2.52,9.14-4.41,2.63-1.17,8.61-3.92,12.34-5.21s2.25-5.66.55-5.52c-7.65.71-12.15.47-15.45-.75A2.35,2.35,0,0,0,210.08,407.57Z" style="fill:#263238"></path><path d="M216.49,407.16a1.25,1.25,0,0,0-.21-1.22.74.74,0,0,0-.7-.37c-1.23,0-3,2.7-3.21,3a.22.22,0,0,0,0,.23.2.2,0,0,0,.21.09,11.76,11.76,0,0,0,2.4-.62A2.63,2.63,0,0,0,216.49,407.16Zm-.94-1.16a.41.41,0,0,1,.34.21.77.77,0,0,1,.17.77c-.23.57-1.37,1-3.05,1.41C213.76,407.34,214.91,406,215.55,406Z" style="fill:#C65370"></path><path d="M212.72,408.83c.65-.87,1.21-3.22.62-4.09a.85.85,0,0,0-1-.31,1.08,1.08,0,0,0-.74.64c-.54,1.2.71,3.62.73,3.73a.25.25,0,0,0,.18.12l.1,0A.23.23,0,0,0,212.72,408.83Zm-.25-4c.31-.08.48,0,.5.14a4.43,4.43,0,0,1-.4,3.25,4.86,4.86,0,0,1-.56-3,.58.58,0,0,1,.36-.36Z" style="fill:#C65370"></path><path d="M136.65,295.3c.35,0,59.69,6.11,59.76,26.24.13,33.28,9.64,71.44,9.64,71.44l-11.73,5.81s-20.42-41.37-20.11-67.31c-16.33-4.69-58.56,3.18-63.55-10.35-4.09-11.06-1.88-25.83-1.88-25.83Z" style="fill:#263238"></path><polygon points="192.44 400.47 208.16 393.4 206.9 386.96 190.32 392.69 192.44 400.47" style="fill:#C65370"></polygon><path d="M110.24,224.27c-1.73,3.27-3.17,6.43-4.63,9.72s-2.75,6.58-4,10-2.31,6.86-3.23,10.48a55.55,55.55,0,0,0-1.77,11.47,23.69,23.69,0,0,0,.67,6.76,14.66,14.66,0,0,0,1.58,3.87,12.06,12.06,0,0,0,1.42,1.92l.43.47c.25.22.51.47.77.66a8.17,8.17,0,0,0,1.38.86,11.32,11.32,0,0,0,2.25.85,15.08,15.08,0,0,0,1.87.37,24.87,24.87,0,0,0,3.23.16,45.82,45.82,0,0,0,5.74-.34,108.51,108.51,0,0,0,20.89-4.86l-1.24-5.92c-6.78.46-13.7,1-20.19.94-1.62-.08-3.19-.08-4.65-.23a14.18,14.18,0,0,1-1.93-.34c-.52-.13-1-.34-.81-.32a1.18,1.18,0,0,1,.29.16,1.61,1.61,0,0,1,.28.24h0a1.09,1.09,0,0,1-.08-.19,4,4,0,0,1-.27-1,14.55,14.55,0,0,1-.11-3.55,46.92,46.92,0,0,1,1.8-8.94c.89-3.15,2-6.2,3.15-9.3s2.44-6.19,3.81-9.27,2.8-6.16,4.2-9.06Z" style="fill:#ff8b7b"></path><path d="M132.61,272.14l7.23-3.6,3.15,7.8s-8.4,3-10,.78Z" style="fill:#ff8b7b"></path><polygon points="145.46 270.27 148.42 275.53 142.99 276.28 139.84 268.49 145.46 270.27" style="fill:#ff8b7b"></polygon><path d="M131.74,237.45c1.35,3.39-.13-.45,1.36,2.83s3,6.51,4.54,9.74a187.56,187.56,0,0,0,10.62,19.12c1.07,1.57,2.13,3.13,3.32,4.69.59.79,1.25,1.56,1.95,2.36.38.4.69.78,1.14,1.19l.64.62.36.34a9.06,9.06,0,0,0,3.48,1.84,14.83,14.83,0,0,0,2.06.44,21.75,21.75,0,0,0,3.42.14,43.21,43.21,0,0,0,5.89-.59,108.42,108.42,0,0,0,21-6l.05-7.48c-6.87.83-13.89,1.71-20.49,2a45.67,45.67,0,0,1-4.68-.06,11.81,11.81,0,0,1-1.86-.3,2.78,2.78,0,0,1-.57-.21c-.06,0,0-.08.29.1a1.18,1.18,0,0,1,.28.22l-.1-.13-.3-.33c-.19-.19-.43-.51-.65-.77-.43-.55-.88-1.14-1.33-1.79-.88-1.27-1.74-2.67-2.59-4.09-1.7-2.85-3.28-5.87-4.83-8.93s-3-6.18-4.5-9.33c-2.92-6.26-2.89-5.61-5.6-11.93Z" style="fill:#ff8b7b"></path><path d="M187.16,267.78l9.63-2,3.78,10.45s-11.11,1.11-13.16-1.91Z" style="fill:#ff8b7b"></path><polygon points="204.11 268.41 207.77 275.48 200.57 276.22 196.79 265.77 204.11 268.41" style="fill:#ff8b7b"></polygon><g id="freepik--character--inject-383"><path d="M136.53,194.91a24.86,24.86,0,0,0,2.58,6c-1.26.93-3.18.18-3.18.18Z" style="fill:#a02724"></path><path d="M137.19,200.72a2.68,2.68,0,0,1-.75.13c-1.87,0-3.44-1.93-3.49-4.39s1.43-4.49,3.3-4.54a3.05,3.05,0,0,1,2.5,1.34,5.19,5.19,0,0,1,1,3.05C139.79,198.38,138.72,200.23,137.19,200.72Zm-1.54-8.19c-1.3.41-2.24,2-2.2,3.92.05,2.18,1.39,3.93,3,3.89a1.81,1.81,0,0,0,.61-.1c1.32-.42,2.24-2.07,2.2-3.92a4.76,4.76,0,0,0-.89-2.76,2.57,2.57,0,0,0-2.09-1.14A2.12,2.12,0,0,0,135.65,192.53Z" style="fill:#263238"></path><path d="M112.19,201.29l5.24,5.47,7.15,7.45a8.55,8.55,0,0,0-1.25,2.85c-.64,2.23-1.18,3.87,3.66,6a2.91,2.91,0,0,1,1.81,2.58c0,1.38-1.08,2.88-5.88,3a21.69,21.69,0,0,1-12.84-4.28c-1.83-1.29-1.65-2.48-.51-4.36C113,214.67,112.86,207.2,112.19,201.29Z" style="fill:#ff8b7b"></path><path d="M138.23,194.55c.06.73-.21,1.35-.59,1.38s-.74-.54-.79-1.27.2-1.36.58-1.39S138.17,193.81,138.23,194.55Z" style="fill:#263238"></path><path d="M136.59,204.52a13.34,13.34,0,0,1-7.82,8.84,12.25,12.25,0,0,1-4,.92,11.41,11.41,0,0,1-9-3.68c-4.55-4.83-4.25-10.27-4.55-19.54a13,13,0,0,1,1-5.49A12.91,12.91,0,0,1,129,178.63C138,182.43,138.82,196.21,136.59,204.52Z" style="fill:#ff8b7b"></path><path d="M128.77,213.36a12.25,12.25,0,0,1-4,.92l-.16-.06.88-1.73S126,214,128.77,213.36Z" style="opacity:0.2"></path><rect x="132.95" y="186.41" width="0.5" height="14.33" transform="translate(-88.97 270.07) rotate(-74.47)" style="fill:#263238"></rect><path d="M129,196.88c-1.62,2.74-3.6,5.42-4,8.58-.19,1.32-10.25,3.29-12.66.77a22,22,0,0,1-4.87-9.17,23.76,23.76,0,0,1-.67-12.72,11.24,11.24,0,0,1,3.85-6.23,6.83,6.83,0,0,1,7-.87,14.73,14.73,0,0,1,22.75,13.61,1.35,1.35,0,0,1-.31.88,1.46,1.46,0,0,1-1.15.2l-5.72-.69c-.72-.08-1.6-.32-1.73-1-.08-.45-.56-2.78-.58-3.12Z" style="fill:#263238"></path><path d="M122.73,196a8.48,8.48,0,0,0,3.27,5.1c2.17,1.57,4.35-.66,4.34-3.29,0-2.37-1.58-5.64-4-6.16S122.22,193.47,122.73,196Z" style="fill:#ff8b7b"></path></g><path d="M114.78,173.2a3.08,3.08,0,0,1,3,2c.28.71.55,2.44-.25,2.81A26.41,26.41,0,0,0,114.78,173.2Z" style="fill:#263238"></path><path d="M94.6,224.31c.8-2.12,4.51-4.25,6.8-4.25h1.51a83.11,83.11,0,0,1,9.1.59,161.84,161.84,0,0,1,18,3c2.74.73,5.39,1.64,7.49,2.43,2.68,1.06,4.25,1.77,4.25,1.77s-2.93,19.53-4.45,38.92c-.84,10.79-.5,21.51-.76,28.88H91.28c-1.57-8.85-1.32-16.58-1.45-32.57C89.76,253.5,91.32,233.05,94.6,224.31Z" style="fill:#C65370"></path><path d="M138.33,256c-.34,4.07-.69,8.34-1.06,12.61-5.31-7.76-8.26-29-8.26-29Z" style="opacity:0.2;isolation:isolate"></path><path d="M144.36,229.31c6.49,3.65,12.85,22.35,12.85,22.35l-14.86,11.21c-5.67-5.36-14-18.67-14.87-24C126,230.71,134,223.49,144.36,229.31Z" style="fill:#C65370"></path><path d="M157.18,428.64A4.62,4.62,0,1,0,161.8,424a4.62,4.62,0,0,0-4.62,4.62Z" style="fill:#263238"></path><path d="M88.26,428.64A4.62,4.62,0,1,1,83.64,424a4.62,4.62,0,0,1,4.62,4.62Z" style="fill:#263238"></path><path d="M127.22,427.16a4.62,4.62,0,1,1-4.62-4.62,4.62,4.62,0,0,1,4.62,4.62Z" style="fill:#263238"></path><path d="M124,421.46v-8.94h13.23a42.72,42.72,0,0,1,7.74.73L169.65,418a2.24,2.24,0,0,1-.5,4.44Z" style="fill:#263238"></path><path d="M124,421.46v-8.94H110.79a41.84,41.84,0,0,0-7.74.73l-27.7,4.42a2.25,2.25,0,0,0-1.77,2.63,2.23,2.23,0,0,0,2.27,1.81Z" style="fill:#263238"></path><rect x="115.85" y="368.07" width="16.39" height="47.17" style="fill:#263238"></rect><rect x="118.19" y="338.18" width="11.68" height="30.12" style="fill:#263238"></rect><polygon points="129.88 343.76 118.19 346.71 118.19 338.18 129.88 338.18 129.88 343.76" style="opacity:0.5;isolation:isolate"></polygon><rect x="161.8" y="295.14" width="5.94" height="25.33" style="fill:#C65370"></rect><rect x="161.8" y="295.14" width="5.94" height="25.33" style="fill:#fff;opacity:0.7000000000000001"></rect><path d="M132,338.18V228.06a14.48,14.48,0,0,0-4.94-10.89l-7.85-6.87a14.43,14.43,0,0,0-9.52-3.58H81.37L67.52,221.46V338.18Z" style="fill:#C65370"></path><path d="M174.25,316.87H109.57v21.31h75.22a7.65,7.65,0,0,0,6.58-11.55h0A19.89,19.89,0,0,0,174.25,316.87Z" style="fill:#C65370"></path><path d="M67.51,221.47V338.18H184.79a7.65,7.65,0,0,0,6.59-11.54,19.86,19.86,0,0,0-17.09-9.76H141.71A9.67,9.67,0,0,1,132,307.2V228.05a14.44,14.44,0,0,0-4.94-10.87l-7.85-6.88a14.45,14.45,0,0,0-9.53-3.57H81.37Z" style="fill:#fff;opacity:0.7000000000000001"></path><path d="M122.6,338.18V228.06a14.48,14.48,0,0,0-4.94-10.89l-7.84-6.87a14.48,14.48,0,0,0-9.53-3.58H78.19a14.46,14.46,0,0,0-10.54,4.56l-5.65,6a14.45,14.45,0,0,0-3.92,9.9v100a11,11,0,0,0,11,11Z" style="fill:#C65370"></path><path d="M122.6,338.18V228.06a14.48,14.48,0,0,0-4.94-10.89l-7.84-6.87a14.48,14.48,0,0,0-9.53-3.58H78.19a14.46,14.46,0,0,0-10.54,4.56l-5.65,6a14.45,14.45,0,0,0-3.92,9.9v100a11,11,0,0,0,11,11Z" style="fill:#fff;opacity:0.5"></path><path d="M144.61,302.87a61.25,61.25,0,0,1,40.36,0,5.72,5.72,0,0,0,7.1-2.71h0c1.21-2.56-.41-5.87-3.7-7a71.49,71.49,0,0,0-47.14,0c-3.29,1.15-4.92,4.47-3.71,7h0A5.74,5.74,0,0,0,144.61,302.87Z" style="fill:#C65370"></path><path d="M144.61,302.87a61.25,61.25,0,0,1,40.36,0,5.72,5.72,0,0,0,7.1-2.71h0c1.21-2.56-.41-5.87-3.7-7a71.49,71.49,0,0,0-47.14,0c-3.29,1.15-4.92,4.47-3.71,7h0A5.74,5.74,0,0,0,144.61,302.87Z" style="fill:#fff;opacity:0.7000000000000001"></path></g><g id="freepik--Speedometer--inject-383"><path d="M443.29,144.13h0l0-.3A1.45,1.45,0,0,1,443.29,144.13Z" style="fill:#C65370"></path><path d="M313.78,103a72,72,0,0,0-21.63,31.51l-5.1-.29a84.66,84.66,0,0,1,17-38Z" style="fill:#C65370"></path><path d="M313.78,103a72,72,0,0,0-21.63,31.51l-5.1-.29a84.66,84.66,0,0,1,17-38Z" style="fill:#fff;opacity:0.6000000000000001"></path><path d="M344,87.68A72.08,72.08,0,0,0,313.78,103L304,96.27a89.4,89.4,0,0,1,32.72-25.95Z" style="fill:#C65370"></path><path d="M344,87.68A72.08,72.08,0,0,0,313.78,103L304,96.27a89.4,89.4,0,0,1,32.72-25.95Z" style="fill:#fff;opacity:0.5"></path><path d="M376.48,62.64,372.9,87.39A63.33,63.33,0,0,0,362.17,86,66.89,66.89,0,0,0,344,87.68l-7.29-17.36a82.94,82.94,0,0,1,38.57-7.74Z" style="fill:#C65370"></path><path d="M376.48,62.64,372.9,87.39A63.33,63.33,0,0,0,362.17,86,66.89,66.89,0,0,0,344,87.68l-7.29-17.36a82.94,82.94,0,0,1,38.57-7.74Z" style="fill:#fff;opacity:0.4"></path><path d="M413.24,74.87,396,98A58.5,58.5,0,0,0,372.9,87.39l3.58-24.75A73,73,0,0,1,413.24,74.87Z" style="fill:#C65370"></path><path d="M413.24,74.87,396,98A58.5,58.5,0,0,0,372.9,87.39l3.58-24.75A73,73,0,0,1,413.24,74.87Z" style="fill:#fff;opacity:0.30000000000000004"></path><path d="M437.75,104.07,411.8,116.5A57,57,0,0,0,396,98l17.28-23.08A69.47,69.47,0,0,1,437.75,104.07Z" style="fill:#C65370"></path><path d="M437.75,104.07,411.8,116.5A57,57,0,0,0,396,98l17.28-23.08A69.47,69.47,0,0,1,437.75,104.07Z" style="fill:#fff;opacity:0.2"></path><path d="M443.42,143.11l-24.77-1.4a59,59,0,0,0-6.85-25.21l25.95-12.43A73.65,73.65,0,0,1,443.42,143.11Z" style="fill:#C65370"></path><path d="M443.42,143.11l-24.77-1.4a59,59,0,0,0-6.85-25.21l25.95-12.43A73.65,73.65,0,0,1,443.42,143.11Z" style="fill:#fff;opacity:0.1"></path><path d="M443.34,143.83a1.45,1.45,0,0,1,0,.3c-1,7-4.27,18.42-7.74,25l-19.85-5.43,1.95-7.59c.2-1,.36-2,.5-3h0l.08-.61h0a62.89,62.89,0,0,0,.42-10.83l24.77,1.4c0,.14,0,.28-.05.42A1.53,1.53,0,0,1,443.34,143.83Z" style="fill:#C65370"></path><path d="M288.91,161l-1.51.26c-.38-1.93-.69-3.88-.92-5.87a77.76,77.76,0,0,1,.14-18.28h0l0-.29a1.81,1.81,0,0,1,.05-.31c.11-.77.22-1.53.35-2.29l5.1.29a67.85,67.85,0,0,0-2.94,12.26c0,.1,0,.2,0,.3a3,3,0,0,0,0,.31,62.25,62.25,0,0,0-.48,7.41A58,58,0,0,0,288.91,161Z" style="fill:#C65370"></path><path d="M288.91,161l-1.51.26c-.38-1.93-.69-3.88-.92-5.87a77.76,77.76,0,0,1,.14-18.28h0l0-.29a1.81,1.81,0,0,1,.05-.31c.11-.77.22-1.53.35-2.29l5.1.29a67.85,67.85,0,0,0-2.94,12.26c0,.1,0,.2,0,.3a3,3,0,0,0,0,.31,62.25,62.25,0,0,0-.48,7.41A58,58,0,0,0,288.91,161Z" style="fill:#fff;opacity:0.7000000000000001"></path><path d="M440.81,163.75l-2.32,5.17-4.26-1.16-39.55-10.84-17-4.67a21.44,21.44,0,0,0,3.17-4.89,20.42,20.42,0,0,0,1.86-6.52l37.56,14.8h0Z" style="fill:#263238"></path><path d="M382.68,140.84a21.21,21.21,0,0,1-5,11.41l-15.3-4.19L367.84,135Z" style="fill:#263238"></path><path d="M373.54,140.44a14.62,14.62,0,0,1-3.46,7.84,15.15,15.15,0,0,1-5,3.87c-7,3.34-14.92.68-17.72-6s.61-14.75,7.6-18.11,14.93-.68,17.72,6A12.63,12.63,0,0,1,373.54,140.44Z" style="fill:#C65370"></path><path d="M409.17,128.14a.46.46,0,0,1-.44-.38,35.76,35.76,0,0,0-5.17-12.13.47.47,0,0,1,.14-.65.48.48,0,0,1,.66.14,36.67,36.67,0,0,1,5.29,12.46.47.47,0,0,1-.37.55Z" style="fill:#C65370"></path><path d="M300.65,126.31a.46.46,0,0,1-.22-.06.47.47,0,0,1-.16-.65c.21-.35,21.5-35.3,56.11-35.37,16.92,0,32.78,6.89,43.5,19a.45.45,0,0,1,0,.66.46.46,0,0,1-.66,0,56.8,56.8,0,0,0-42.8-18.7c-34.08.07-55.09,34.57-55.3,34.92A.47.47,0,0,1,300.65,126.31Z" style="fill:#C65370"></path><path d="M433.79,172.66h-.1L427.92,171a.47.47,0,0,1-.32-.58.47.47,0,0,1,.58-.33l5.76,1.61a.47.47,0,0,1-.15.92Z" style="fill:#C65370"></path><path d="M423.82,169.86l-.11,0L376.9,156.67a.47.47,0,0,1-.32-.58.47.47,0,0,1,.58-.33L424,168.94a.47.47,0,0,1-.15.92Z" style="fill:#C65370"></path></g></svg>