<?xml version="1.0" encoding="UTF-8" standalone="no"?>
<svg
   viewBox="0 0 179 40"
   version="1.1"
   id="svg9"
   sodipodi:docname="designrush.svg"
   inkscape:version="1.3 (1:1.3+202307231459+0e150ed6c4)"
   xmlns:inkscape="http://www.inkscape.org/namespaces/inkscape"
   xmlns:sodipodi="http://sodipodi.sourceforge.net/DTD/sodipodi-0.dtd"
   xmlns:xlink="http://www.w3.org/1999/xlink"
   xmlns="http://www.w3.org/2000/svg"
   xmlns:svg="http://www.w3.org/2000/svg">
  <sodipodi:namedview
     id="namedview9"
     pagecolor="#ffffff"
     bordercolor="#000000"
     borderopacity="0.25"
     inkscape:showpageshadow="2"
     inkscape:pageopacity="0.0"
     inkscape:pagecheckerboard="0"
     inkscape:deskcolor="#d1d1d1"
     inkscape:zoom="1.3184358"
     inkscape:cx="89.5"
     inkscape:cy="19.720339"
     inkscape:window-width="1280"
     inkscape:window-height="656"
     inkscape:window-x="0"
     inkscape:window-y="27"
     inkscape:window-maximized="1"
     inkscape:current-layer="svg9" />
  <defs
     id="defs2">
    <linearGradient
       id="a"
       x1="160.7"
       x2="244.9"
       gradientUnits="userSpaceOnUse">
      <stop
         offset=".7"
         stop-color="#2af4ff"
         id="stop1" />
      <stop
         offset=".9"
         stop-color="#2af4ff"
         id="stop2" />
    </linearGradient>
    <linearGradient
       id="c"
       x2="0"
       y1="45.9"
       y2="33.7"
       gradientUnits="userSpaceOnUse"
       href="#a" />
    <linearGradient
       xlink:href="#a"
       id="b"
       x1="160.7"
       x2="244.9"
       gradientUnits="userSpaceOnUse" />
  </defs>
  <path
     fill="#fff"
     d="M31.7 16.5h6c4.8 0 8.2 3.3 8.2 7.5 0 4.3-3.3 7.6-8.2 7.6h-6V16.5m6 12c2.7 0 4.6-1.8 4.6-4.4 0-2.7-1.9-4.6-4.6-4.6H35v9h2.6m11.2-12h11.6v3h-8.2v3h7.2v2.9h-7.2v3.1h8.3v3H48.8v-15m13.6 12.8 2-2.3c1.5 1.1 3 1.8 4.7 1.8 1.3 0 2.2-.6 2.2-1.4 0-.9-.6-1.3-3.1-2-3-.7-5.1-1.5-5.1-4.5v-.1c0-2.7 2.2-4.5 5.4-4.5a9 9 0 0 1 5.7 1.9l-1.8 2.5c-1.3-1-2.7-1.4-4-1.4s-2 .6-2 1.3c0 .9.7 1.2 3.3 1.9 3.2.8 4.8 1.9 4.8 4.4v.1c0 3-2.3 4.7-5.6 4.7-2.3 0-4.7-.8-6.5-2.4m15.2-12.8H81v15h-3.4v-15m6.6 7.5c0-4.3 3.3-7.8 8-7.8 2.8 0 4.4.7 6 2.1L96 21a5.7 5.7 0 0 0-4-1.6c-2.5 0-4.4 2.2-4.4 4.7 0 2.9 1.9 5 4.6 5 1.3 0 2.4-.4 3.3-1v-2.2H92V23h6.7v6.5a10 10 0 0 1-6.6 2.4c-4.8-.2-8-3.4-8-7.9m17.9-7.5h3.1l7.2 9.2v-9.2h3.3v15h-2.9l-7.4-9.5v9.5H102z"
     id="path2"
     style="fill:#8e96a3;fill-opacity:1" />
  <path
     fill="url(#b)"
     d="M162.8 22.7h9.6c2.7 0 4.7.8 6.1 2.1a6.4 6.4 0 0 1 1.8 4.7v.1c0 3.3-1.8 5.4-4.5 6.4l5.1 7.3h-5.4l-4.5-6.6h-3.7v6.6h-4.7V22.7h.2m9.3 9.9c2.3 0 3.5-1.2 3.5-2.9v-.1c0-1.9-1.3-2.9-3.6-2.9h-4.6v5.9h4.7m12.1 1.8V22.6h4.6v11.6c0 3.4 1.7 5 4.5 5s4.5-1.7 4.5-5V22.5h4.6v11.6c0 6.2-3.6 9.3-9.2 9.3s-9-3-9-9m21.5 5.9 2.8-3.2a10 10 0 0 0 6.3 2.5c1.9 0 3-.8 3-1.9v-.1c0-1.2-.8-1.8-4.2-2.6-4.2-1.1-7-2.2-7-6.3v-.1c0-3.7 3-6.2 7.4-6.2 3 0 5.7.9 7.8 2.6l-2.4 3.5c-1.8-1.3-3.7-2-5.5-2s-2.7.8-2.7 1.8v-.1c0 1.3.9 1.8 4.5 2.7 4.3 1.1 6.6 2.6 6.6 6.1v.1c0 4.1-3.2 6.4-7.7 6.4a14 14 0 0 1-8.9-3.2m20.6-17.6h4.6v8.2h8.5v-8.2h4.6v20.6h-4.6v-8.2h-8.5v8.2h-4.6V22.7"
     transform="translate(.4) scale(.73)"
     id="path3" />
  <path
     fill="#2ad2ff"
     d="M12.4 25s0-.1 0 0l-.3-.3H12l-8.6-6.2h-.1l-.2-.3h-.2L.4 16.5l5 .7.5.2H6l.4.3.4.2.2.2.2.1c.2.1.2.2.2.3l.6.6 3.9 5.4.4.5"
     id="path4" />
  <path
     fill="url(#c)"
     d="m16.4 45.9-.5-.8-.1-.1L.1 22.7l3.4 2.4.6.4 11.8 8.4h.1l.4.3.1.1.5-.4 15.9-11.2-16 22.4-.1.1-.4.7"
     transform="translate(.4) scale(.73)"
     id="path5" />
  <path
     fill="#2ad2ff"
     d="m12.4 22.2-.3-.6H12l-2.9-4 2.9.6h.8l2.8-.7-2.8 4.1-.4.6m12.1-5.8L21 17l-1.4.3a4 4 0 0 0-2.8 1.6L13 24.4h-.1l-.4.6.5-.5-.5.5 9.9-7 2.2-1.6"
     id="path6" />
  <path
     d="m 14.2,4.9 c 0,3.2 -5.5,4.9 -5.5,8.3 0,0.8 0.1,1.6 0.5,2.3 0,0 -2.1,-2 -2.1,-4.2 0,-2.2 2,-5.5 2,-5.5 0,1.5 0.6,2 1.2,2 0.7,0 1.1,-0.5 1.1,-1.2 0,-0.7 -0.8,-1.5 -0.8,-3 0,-1.3 1.7,-3.6 1.7,-3.6 a 7.5,7.5 0 0 1 2,4.9"
     id="path7"
     style="fill:#2af4ff" />
  <path
     d="m 12.7,16.6 a 3,3 0 0 1 -3,-3.1 c 0,-3.8 5.1,-4.2 5.1,-9.2 0.2,0.2 1.6,2.1 1.6,4.2 0,2.5 -2.4,3.2 -2.4,4.4 0,0.5 0.2,0.9 0.9,0.9 h 0.2 a 4,4 0 0 0 2.4,-3.5 c 0,0 0.8,6.3 -4.8,6.3"
     id="path8"
     style="fill:#2af4ff" />
  <path
     fill="#2ad2ff"
     d="M15 13.8h.2c-.7.1-3.4.8-3.4-1.1 0-2.3 4-2.8 4-4.8a7 7 0 0 0-1-3.6c.2.2 1.6 2.1 1.6 4.2 0 2.5-2.4 3.2-2.4 4.4 0 .5.3.9 1 .9m-2.2-7.6c0 1.8-2.4 1.7-2.5 1.6h.2c.7 0 1-.5 1-1.2s-.8-1.5-.8-3c0-1.3 1.8-3.6 1.8-3.6-.6 1-.9 2-1 3 0 1.7 1.3 1.8 1.3 3.2m-1.5 31.9-1.6-1h2l.6-2 .6 2h2l-1.6 1 .6 1.9-1.6-1.2-1.7 1.2.7-1.9m8.4 0-1.6-1h2l.6-2 .6 2h2l-1.6 1 .6 1.9-1.6-1.2L19 40l.7-1.9M3 38.1l-1.6-1h2l.6-2 .6 2h2L5 38l.6 1.9L4 38.8 2.3 40l.7-1.9"
     id="path9" />
</svg>
