<svg version="1.1" viewBox="0 0 150 24" xml:space="preserve" xmlns="http://www.w3.org/2000/svg"><defs><clipPath id="a"><rect x=".056" y="7.7e-5" width="249" height="40" fill="#fff" stroke-width=".31"/></clipPath></defs><path transform="matrix(.6 0 0 .6 -.033 -4.6e-5)" d="m20 7.7e-5c-11 0-20 9-20 20 0 11 8.9 20 20 20 11 0 20-9 20-20-0.0034-11-8.9-20-20-20zm54 4.1v25h6.7v-25zm127 1.1-7 1.7v3.2h-3.2v5.1h3.2v7.7c0 4.7 2.7 7.1 7.8 7.1 2.4 0 4.8-0.4 6.7-1.2l-0.83-5.3c-1.4 0.47-2.3 0.69-4 0.69-1.6 0-2.7-1-2.7-3.3v-5.7h7v-5.1h-7zm20 4.1c-6.7 0-11 4.1-11 11 0 6.3 4.7 10 11 10 6.6 0 11-3.9 11-10 0-6.4-4.8-11-11-11zm-161 0.11c-6.6 0-11 4.5-11 10 0 6.3 3.5 10 11 10 4.1 0 6.4-0.72 9.1-2.1l-1-4.7c-2.1 0.94-4 1.5-6.6 1.5-2.8 0-4.5-1.1-5.1-3.1h13c0.11-0.54 0.18-1.2 0.18-2.1 0-7.2-4.5-10-10-10zm33 0c-6.6 0-11 4.5-11 10 0 6.3 3.5 10 11 10 4.1 0 6.4-0.72 9.1-2.1l-1-4.7c-2.1 0.94-4 1.5-6.6 1.5-2.8 0-4.5-1.1-5.1-3.1h13c0.11-0.54 0.18-1.2 0.18-2.1 0-7.2-4.5-10-10-10zm60 0c-6.6 0-11 4.5-11 10 0 6.3 3.5 10 11 10 4.1 0 6.4-0.72 9.1-2.1l-1-4.7c-2.1 0.94-4 1.5-6.6 1.5-2.8 0-4.5-1.1-5.1-3.1h13c0.11-0.54 0.18-1.2 0.18-2.1 0-7.2-4.5-10-10-10zm-20 0.0098c-0.34 0.0014-0.68 0.027-1 0.075-0.68 0.098-1.3 0.29-2 0.6-1.7 0.84-3 2.8-3.7 4.5-0.47-2-1.8-3.7-3.8-4.5-1.2-0.51-2.6-0.7-4-0.5-0.68 0.098-1.3 0.29-2 0.6-1.7 0.83-3 2.7-3.7 4.4v-0.12l-1.4-4.4h-7l1.5 5.2v14h6.9v-13c0.025-0.095 0.34-0.27 0.39-0.31 0.81-0.58 1.8-1.2 2.8-1.2 1-0.077 2.1 0.45 2.7 1.3 0.066 0.091 0.13 0.18 0.19 0.28 0.51 0.86 0.44 1.8 0.43 2.8-0.011 1 3e-3 2.1 3e-3 3.1-3e-3 2.3-7e-3 4.5-7e-3 6.8h7v-13c0.014-0.091 0.33-0.28 0.39-0.32 0.81-0.58 1.8-1.2 2.8-1.2 1-0.077 2.1 0.45 2.7 1.3 0.065 0.091 0.13 0.18 0.19 0.28 0.51 0.86 0.44 1.8 0.43 2.8-0.011 1 3e-3 2.1 3e-3 3.1-4e-3 2.3-7e-3 4.5-7e-3 6.8h7v-11c0-3.2-0.45-7.3-3.8-8.7h-3e-3c-0.93-0.38-1.9-0.58-3-0.58zm47 0.062c-3.7 0-5.7 2.8-6.7 5.1l-1.5-4.5h-7l1.5 5.2v14h7v-13c0-0.36 1.4-1.1 1.7-1.3 1.2-0.63 2.5-0.65 3.8-0.059 0.61 0.29 1.2 0.72 1.5 1.3 0.51 0.86 0.44 1.8 0.43 2.8-0.015 1 3e-3 2.1 3e-3 3.1-3e-3 2.3-0.01 4.5-0.01 6.8h7v-11c0-6.6-2.7-9.2-7.8-9.2zm68 0c-3.7 0-5.7 2.9-6.7 5.1l-1.5-4.5h-7l1.5 5.2v14h7v-13c1-0.17 6.4 0.82 7.4 1.2v-8.1c-0.25-0.015-0.5-0.026-0.76-0.026zm-238 2.2h3.3v17h-3.3zm6.7 0h10v3.3h-10zm42 2.8c0.53-0.03 1.1 0.057 1.6 0.26 1 0.41 1.5 1.4 1.7 2.5 0.058 0.29 0.095 0.58 0.12 0.88l-0.033 0.016s-2.1 0.51-4 0.95l-2.8 0.63h-0.026c0-0.75 0.056-1.5 0.23-2.3 0.23-0.93 0.73-2 1.6-2.5 0.47-0.26 1-0.41 1.5-0.44zm33 0c0.53-0.03 1.1 0.057 1.6 0.26 1 0.41 1.5 1.4 1.7 2.5 0.058 0.29 0.095 0.58 0.12 0.88l-0.033 0.016s-2.1 0.51-4 0.95l-2.8 0.63h-0.026c0-0.75 0.053-1.5 0.23-2.3 0.23-0.93 0.73-2 1.6-2.5 0.47-0.26 1-0.41 1.5-0.44zm60 0c0.53-0.03 1.1 0.057 1.6 0.26 1 0.41 1.5 1.4 1.7 2.5 0.058 0.29 0.095 0.58 0.12 0.88l-0.036 0.016s-2.1 0.51-4 0.95l-2.8 0.63h-0.023c0-0.75 0.053-1.5 0.23-2.3 0.23-0.93 0.73-2 1.6-2.5 0.47-0.26 1-0.41 1.5-0.44zm67 0.42c2.5 0 4 1.7 4 4.7 0 3-1.5 4.8-4.1 4.8-2.5 0-3.9-1.8-3.9-4.7 0-3.1 1.5-4.8 4-4.8zm-203 3.4h10v3.3h-10zm0 6.7h10v3.3h-10z" clip-path="url(#a)" stroke-width=".31"/></svg>
