<svg fill="none" version="1.1" viewBox="0 0 249 40" xmlns="http://www.w3.org/2000/svg">
 <g transform="matrix(.31274 0 0 .31274 -.65043 -5.0194)" clip-path="url(#clip0)" fill="#999">
  <path d="m505.95 73.979s-6.873 1.6428-12.688 3.0293l-8.839 2.0156h-0.081c0-2.3885 0.174-4.9051 0.744-7.2237 0.733-2.9711 2.338-6.4431 5.129-7.9694 3.035-1.6545 6.734-1.8526 9.944-0.5709 3.326 1.3166 4.849 4.5323 5.501 7.8645 0.186 0.9321 0.302 1.8642 0.395 2.808zm23.051 5.0449c0-23.104-14.526-33.031-33.087-33.031-20.981 0-34.123 14.552-34.123 33.148 0 20.215 11.188 33.38 35.274 33.38 13.026 0 20.399-2.307 29.168-6.699l-3.338-15.135c-6.687 3.006-12.909 4.8469-21.213 4.8469-9.106 0-14.293-3.4604-16.259-9.9268h42.997c0.348-1.7361 0.581-3.7051 0.581-6.583z"/>
  <path d="m313 73.979s-6.874 1.6428-12.689 3.0293l-8.838 2.0156h-0.082c0-2.3885 0.175-4.9051 0.744-7.2237 0.733-2.9711 2.338-6.4431 5.129-7.9694 3.036-1.6545 6.734-1.8526 9.944-0.5709 3.326 1.3166 4.85 4.5323 5.501 7.8645 0.186 0.9321 0.302 1.8642 0.395 2.808zm23.05 5.0449c0-23.104-14.526-33.031-33.087-33.031-20.98 0-34.122 14.552-34.122 33.148 0 20.215 11.188 33.38 35.273 33.38 13.026 0 20.399-2.307 29.168-6.699l-3.337-15.135c-6.688 3.006-12.91 4.8469-21.214 4.8469-9.106 0-14.293-3.4604-16.258-9.9268h42.996c0.349-1.7361 0.581-3.7051 0.581-6.583z"/>
  <path d="m259.81 29.017h-21.295v81.186h21.295z"/>
  <path d="m533.49 48.067h22.364l4.71 14.354c2.943-7.0839 9.572-16.195 21.33-16.195 16.142 0 24.899 8.2025 24.899 29.338v34.65h-22.364c0-7.223 0.012-14.435 0.023-21.659 0-3.3089-0.058-6.6179-0.011-9.9268 0.034-3.0526 0.255-6.2101-1.373-8.9481-1.105-1.8526-2.907-3.2158-4.849-4.1478-3.943-1.8875-8.223-1.8409-12.096 0.1864-0.953 0.501-5.559 2.9943-5.559 4.1478v40.348h-22.364v-45.381z"/>
  <path d="m623.7 64.355h-10.258v-16.288h10.258v-10.183l22.364-5.278v15.461h22.481v16.288h-22.481v18.246c0 7.1654 3.455 10.509 8.642 10.509 5.303 0 8.303-0.699 12.792-2.1904l2.652 16.859c-6.106 2.657-13.712 3.927-21.446 3.927-16.258 0-25.016-7.737-25.016-22.755v-24.596z"/>
  <path d="m710.39 94.031c8.187 0 13.025-5.8955 13.025-15.356 0-9.4608-4.605-14.902-12.676-14.902-8.188 0-12.909 5.4294-12.909 15.24 0 9.2511 4.605 15.018 12.56 15.018zm0.233-48.387c20.98 0 36.308 13.166 36.308 33.602 0 20.553-15.328 32.914-36.541 32.914-21.097 0-36.088-12.7-36.088-32.914 0-20.436 14.875-33.602 36.321-33.602z"/>
  <path d="m441.75 47.881c-3.954-1.6311-8.432-2.237-12.712-1.6195-2.175 0.3146-4.303 0.9438-6.28 1.9225-5.42 2.6797-9.641 8.7966-11.909 14.249-1.489-6.28-5.827-11.919-12.165-14.541-3.954-1.6312-8.432-2.237-12.712-1.6195-2.174 0.3146-4.303 0.9437-6.28 1.9224-5.408 2.6681-9.618 8.7617-11.897 14.203v-0.3961l-4.559-13.912h-22.365l4.711 16.766v45.37h22.213v-40.558c0.081-0.303 1.07-0.8622 1.244-0.9904 2.605-1.8525 5.664-3.7633 8.92-3.9963 3.327-0.2447 6.606 1.4447 8.583 4.0895 0.21 0.2913 0.407 0.5826 0.593 0.8855 1.629 2.7381 1.408 5.8955 1.373 8.9481-0.035 3.309 0.011 6.6179 0.011 9.9269-0.011 7.2237-0.023 14.436-0.023 21.659h22.365v-34.639-0.5126-5.3479c0.046-0.2913 1.07-0.8739 1.256-1.002 2.605-1.8526 5.663-3.7634 8.92-3.9964 3.326-0.2447 6.606 1.4448 8.583 4.0896 0.209 0.2913 0.407 0.5825 0.593 0.8855 1.628 2.738 1.407 5.8955 1.372 8.9481-0.035 3.3089 0.012 6.6179 0.012 9.9268-0.012 7.2237-0.023 14.436-0.023 21.66h22.364v-34.651c0-10.16-1.454-23.244-12.188-27.672z"/>
  <path d="m799.83 46.226c-11.758 0-18.375 9.1229-21.329 16.195l-4.711-14.354h-22.364l4.71 16.766v45.37h22.365v-41.921c3.186-0.5592 20.48 2.6332 23.76 3.8333v-25.807c-0.791-0.0466-1.594-0.0816-2.431-0.0816z"/>
  <path d="m206.44 73.979s-6.873 1.6428-12.688 3.0293l-8.839 2.0156h-0.081c0-2.3885 0.174-4.9051 0.744-7.2237 0.733-2.9711 2.338-6.4431 5.129-7.9694 3.035-1.6545 6.734-1.8526 9.944-0.5709 3.326 1.3166 4.849 4.5323 5.501 7.8645 0.186 0.9321 0.302 1.8642 0.395 2.808zm23.051 5.0449c0-23.104-14.526-33.031-33.087-33.031-20.981 0-34.123 14.552-34.123 33.148 0 20.215 11.188 33.38 35.274 33.38 13.026 0 20.399-2.307 29.168-6.699l-3.338-15.135c-6.687 3.006-12.909 4.8469-21.213 4.8469-9.106 0-14.293-3.4604-16.259-9.9268h42.996c0.349-1.7361 0.582-3.7051 0.582-6.583z"/>
  <path d="m66.141 16.05c-35.285 0-63.883 28.65-63.883 64 0 35.338 28.598 64 63.883 64 35.285 0 63.883-28.651 63.883-64-0.011-35.35-28.609-64-63.883-64zm-15.968 90.658h-10.642v-53.327h10.642zm42.577 0h-31.936v-10.66h31.936zm0-21.333h-31.936v-10.661h31.936zm0-21.333h-31.936v-10.661h31.936z"/>
 </g>
 <defs>
  <clipPath id="clip0">
   <rect transform="translate(2.2576 16.05)" width="795.83" height="127.9" fill="#fff"/>
  </clipPath>
 </defs>
</svg>
