<svg width="115" height="27" version="1.1" viewBox="0 0 30.427 7.1437" xml:space="preserve" xmlns="http://www.w3.org/2000/svg"><path d="m23.008 0.51786c-0.47537 0-0.89283 0.15333-1.2516 0.46-0.35881 0.30665-0.57782 0.69463-0.65755 1.1638-0.0828 0.47843 0.01241 0.88614 0.28535 1.2235 0.27296 0.33427 0.65748 0.50152 1.1543 0.50152 0.47532 0 0.88185-0.13942 1.2192-0.41849 0.33734-0.28216 0.54584-0.65789 0.62558-1.1271l0.04152-0.24861h-1.6148l-0.09639 0.56116h0.94291c-0.17788 0.40788-0.53043 0.61222-1.0579 0.61222-0.31894 0-0.55821-0.098151-0.71768-0.29442-0.15641-0.19627-0.20695-0.45116-0.15175-0.76397 0.05213-0.31281 0.18984-0.56551 0.41371-0.75872 0.22694-0.19627 0.49526-0.29442 0.805-0.29442 0.38641 0 0.66107 0.15626 0.82361 0.46907l0.57977-0.30349c-0.1196-0.24841-0.29441-0.44006-0.52442-0.575-0.22694-0.138-0.4999-0.2071-0.81884-0.2071zm-15.749 0.00381c-0.28521 0-0.53962 0.075438-0.76349 0.22571-0.22081 0.1472-0.35729 0.36621-0.40942 0.65755-0.049065 0.28214 0.00148 0.50163 0.15174 0.65803 0.15333 0.15334 0.38039 0.28054 0.68094 0.38174 0.22387 0.073604 0.38013 0.1427 0.46907 0.2071 0.092002 0.064397 0.1257 0.15498 0.10116 0.27152-0.018401 0.1012-0.07651 0.1825-0.17465 0.24384-0.095074 0.061332-0.22691 0.091619-0.39558 0.091619-0.36801 0-0.59165-0.15919-0.67139-0.47813l-0.575 0.29442c0.058273 0.24534 0.19011 0.43993 0.39558 0.58407 0.20854 0.14107 0.47516 0.21187 0.80023 0.21187 0.33734 0 0.61958-0.07666 0.84652-0.23 0.23001-0.15334 0.37112-0.37453 0.42326-0.6628 0.012267-0.067472 0.018133-0.13192 0.018133-0.19326 0-0.061332-0.00586-0.11651-0.018133-0.16558-0.012266-0.052135-0.027886-0.099265-0.046286-0.1422-0.015334-0.042938-0.039752-0.082976-0.073485-0.11977-0.030668-0.039863-0.061429-0.073558-0.092096-0.10116-0.030665-0.030666-0.069-0.059725-0.115-0.087325-0.046002-0.030666-0.087265-0.05556-0.12407-0.073964-0.033737-0.021469-0.078409-0.042956-0.13361-0.064416-0.055201-0.024535-0.1011-0.042605-0.1379-0.054877-0.036801-0.012263-0.082704-0.029115-0.1379-0.050583-0.21161-0.076669-0.362-0.14747-0.45094-0.21187-0.088936-0.067472-0.12092-0.15757-0.09639-0.27104 0.021465-0.095066 0.073713-0.1705 0.15652-0.22571 0.085866-0.055201 0.19282-0.082552 0.32162-0.082552 0.26988 0 0.46153 0.13307 0.575 0.39988l0.55687-0.29442c-0.082803-0.22693-0.21758-0.40298-0.40465-0.52872-0.18707-0.12574-0.4129-0.18896-0.67664-0.18896zm5.1364 0.060606-0.56546 3.22h0.63465l0.23477-1.3342h1.1958l-0.2343 1.3342h0.62988l0.56594-3.22h-0.63036l-0.22523 1.2788h-1.1963l0.22571-1.2788zm3.0182 0-0.38222 2.1664c-0.06133 0.32814 0.01117 0.59646 0.21664 0.805 0.20854 0.20854 0.50251 0.31303 0.88278 0.31303 0.35267 0 0.65176-0.095213 0.8971-0.28535 0.24534-0.19321 0.40037-0.4708 0.46477-0.83268l0.38174-2.1664h-0.63465l-0.37268 2.1158c-0.0276 0.16254-0.09962 0.29438-0.21616 0.39558-0.11347 0.1012-0.27314 0.15174-0.47861 0.15174-0.20547 0-0.34782-0.048829-0.42755-0.14697-0.07667-0.1012-0.10156-0.23475-0.07396-0.40035l0.37268-2.1158zm3.0129 0-0.56594 3.22h0.63465l0.35454-2.0104 1.0302 2.0104h0.47861l0.56546-3.22h-0.63465l-0.34977 2.0104-1.035-2.0104zm6.7115 0-0.56594 3.22h0.63513l0.19755-1.118h0.52919l0.44616 1.118h0.64419l-0.48768-1.2006c0.2024-0.070538 0.37087-0.18553 0.50581-0.345 0.138-0.15948 0.22688-0.34649 0.26674-0.56117 0.05213-0.29441-0.01525-0.55345-0.20232-0.77733-0.184-0.22387-0.42156-0.33594-0.71291-0.33594zm2.4475 0 0.74058 1.7847-0.25291 1.4354h0.62988l0.25338-1.4263 1.3705-1.7937h-0.75442l-0.85988 1.1867-0.45094-1.1867zm-25.451 0.0038137-0.39081 2.2175c-0.05213 0.29747-0.2472 0.44616-0.58455 0.44616-0.13188 0-0.23589-0.024415-0.31255-0.073484-0.076669-0.052135-0.13185-0.13637-0.16558-0.25291l-0.57977 0.31732c0.15334 0.42015 0.48782 0.63036 1.003 0.63036 0.33428 0 0.6131-0.087648 0.83697-0.26245 0.22694-0.17787 0.3727-0.44619 0.4371-0.805l0.39081-2.2175zm1.1457 0-0.38222 2.1669c-0.06133 0.32814 0.011169 0.59646 0.21664 0.805 0.20854 0.20854 0.50251 0.31303 0.88278 0.31303 0.35267 0 0.65176-0.095213 0.8971-0.28535 0.24534-0.19321 0.40037-0.4708 0.46477-0.83268l0.38174-2.1669h-0.63465l-0.37268 2.1163c-0.027601 0.16254-0.099624 0.29438-0.21616 0.39558-0.11347 0.1012-0.27314 0.15174-0.47861 0.15174s-0.34782-0.048829-0.42755-0.14697c-0.076669-0.1012-0.10156-0.23475-0.073963-0.40035l0.37268-2.1163zm5.3544 0-0.10593 0.60745h0.86513l-0.46 2.613h0.63465l0.46-2.613h0.86942l0.10593-0.60745zm17.032 0.58932h0.62081c0.138 0 0.24372 0.046379 0.31733 0.13838 0.0736 0.088931 0.09802 0.20052 0.07348 0.33546-0.02453 0.13494-0.08557 0.2487-0.18372 0.34071-0.09814 0.091998-0.21142 0.1379-0.34023 0.1379h-0.65326zm-4.61 4.4368v0.69573h0.12598v-0.29585h0.28869v-0.10546h-0.28869v-0.18896h0.31923v-0.10546zm2.2308 0v0.69573h0.12645v-0.29585h0.2887v-0.10546h-0.2887v-0.18896h0.31923v-0.10546zm2.028 0v0.26006h-0.0053c-0.0064-0.012678-0.01517-0.026298-0.02672-0.040565-0.01155-0.014488-0.02707-0.026557-0.04676-0.036742-0.0197-0.010425-0.04482-0.015744-0.0754-0.015744-0.04008 0-0.07667 0.010407-0.10927 0.031017-0.03261 0.020379-0.05853 0.050583-0.07778 0.090668-0.01902 0.039854-0.02863 0.088526-0.02863 0.1465 0 0.057287 0.0094 0.10594 0.02815 0.14602 0.01879 0.040075 0.04444 0.071037 0.07683 0.092099 0.03238 0.021063 0.06925 0.031497 0.11023 0.031497 0.02989 0 0.05474-0.00526 0.07444-0.015273 0.0197-0.00996 0.03572-0.021746 0.04772-0.035791 0.012-0.014266 0.02086-0.027877 0.02719-0.040555h0.0077v0.082551h0.12073v-0.69573zm0.46716 0v0.10546h0.21473v0.59027h0.12502v-0.59027h0.21521v-0.10546zm1.1347 0v0.69573h0.12311v-0.17608l0.04486-0.047721 0.15986 0.2238h0.14697l-0.21426-0.29681 0.20232-0.22523h-0.14363l-0.18753 0.20948h-0.0086v-0.38317zm-4.2016 0.048672v0.12502h-0.07396v0.095435h0.07396v0.28965c-2.17e-4 0.032605 0.0072 0.059854 0.02147 0.0816 0.0145 0.021737 0.03401 0.037776 0.05869 0.048192 0.02468 0.010194 0.05224 0.015218 0.08303 0.014313 0.01743-4.349e-4 0.03237-0.00203 0.04438-0.0048 0.01223-0.00268 0.02158-0.00536 0.02816-0.00766l-0.021-0.09639c-0.0034 8.698e-4 -0.0082 0.00222-0.01479 0.00332-0.0064 0.00111-0.0133 0.00148-0.021 0.00148-0.01019 0-0.0193-0.00157-0.02767-0.0048-0.0084-0.00314-0.01531-0.00905-0.02052-0.017655-5e-3 -0.00886-0.0077-0.021164-0.0077-0.037702v-0.26955h0.10307v-0.095436h-0.10304v-0.12502zm-19.508 0.073493c-0.018548 0-0.034347 0.00609-0.047718 0.018606-0.013372 0.01229-0.020041 0.027646-0.020041 0.045329 0 0.017471 0.00667 0.032346 0.020041 0.044849 0.013372 0.0123 0.02917 0.018606 0.047718 0.018606 0.018763 0 0.035039-0.00628 0.048196-0.018606 0.013372-0.012512 0.020041-0.027388 0.020041-0.044849 0-0.017683-0.00667-0.033039-0.020041-0.045329-0.013157-0.012512-0.029431-0.018606-0.048196-0.018606zm1.7722 0.022909c-0.04637 0-0.08788 0.0084-0.12454 0.024812-0.036665 0.016178-0.065972 0.038902-0.087324 0.068239-0.021136 0.029336-0.031494 0.063557-0.031494 0.10259 0 0.047444 0.015753 0.085358 0.047241 0.11405 0.031707 0.028468 0.07475 0.049919 0.12932 0.063945l0.075394 0.019086c0.023725 6e-3 0.044349 0.013232 0.062034 0.020998 0.017902 0.00757 0.032071 0.016723 0.041992 0.028154 0.00992 0.011219 0.014575 0.025689 0.014793 0.042947-2.173e-4 0.018976-0.00597 0.035394-0.017179 0.049623-0.011215 0.014017-0.026444 0.02495-0.046286 0.032928-0.019627 0.00776-0.042617 0.01193-0.068714 0.01193-0.025018 0-0.047486-0.00388-0.06776-0.01145-0.020058-0.00757-0.036641-0.01904-0.049149-0.034359-0.01251-0.01531-0.019272-0.034184-0.020996-0.05726h-0.11834c0.00173 0.044 0.013221 0.081037 0.034357 0.11166 0.021352 0.030629 0.051013 0.054185 0.088756 0.070141 0.037956 0.015966 0.08254 0.023861 0.13409 0.023861 0.053054 0 0.098207-0.0084 0.13552-0.024812 0.037527-0.016603 0.066528-0.039383 0.086369-0.068719 0.019842-0.029549 0.029586-0.06377 0.029586-0.10259 0-0.028681-0.00544-0.053566-0.016224-0.074915-0.010782-0.021349-0.025353-0.03978-0.043901-0.054877-0.018332-0.015097-0.039218-0.027776-0.062511-0.037693-0.023077-0.00992-0.047036-0.017554-0.072054-0.02338l-0.062034-0.015744c-0.013588-0.00323-0.027188-0.0072-0.04056-0.01193-0.013373-0.00471-0.025744-0.010268-0.036743-0.017175-0.011-0.00711-0.019775-0.016113-0.026245-0.026243-0.00625-0.010139-0.00907-0.021986-0.00907-0.035791 2.174e-4 -0.016603 0.00483-0.031442 0.014315-0.044378 0.00949-0.012937 0.023137-0.022992 0.041037-0.030537 0.017902-0.00757 0.039401-0.01145 0.06442-0.01145 0.035587 0 0.064632 0.00813 0.086847 0.02386 0.022428 0.015744 0.035154 0.037601 0.038174 0.065847h0.11548c-6.52e-4 -0.037314-0.011221-0.070566-0.031494-0.099253-0.020274-0.028902-0.04792-0.05111-0.083507-0.067278-0.035372-0.01639-0.076571-0.024812-0.12359-0.024812zm-4.8348 0.00905v0.10021h0.32687v0.0048l-0.28154 0.55782h0.12454l0.28154-0.56021v-0.10259zm0.75919 0v0.10069h0.20471v0.56212h0.11929v-0.56212h0.20471v-0.10069zm20.915 0.012877c-0.03646 0-0.06962 0.00536-0.09973 0.016224-0.03012 0.010637-0.05551 0.026686-0.07635 0.048192-0.02083 0.021284-0.0358 0.047989-0.04486 0.079689l0.115 0.016224c0.0061-0.017886 0.01788-0.03363 0.03531-0.046761 0.01766-0.013131 0.04146-0.019567 0.07158-0.019567 0.02853 0 0.0502 0.00693 0.06538 0.020998 0.01517 0.014036 0.02291 0.034055 0.02291 0.059651v0.00194c0 0.011782-0.0045 0.020582-0.01336 0.026243-0.0086 0.00545-0.02249 0.0097-0.04152 0.01241-0.01902 0.00249-0.04387 0.00499-0.07444 0.00813-0.02537 0.00268-0.04971 0.0072-0.07348 0.013362-0.02355 0.00591-0.04467 0.014691-0.06347 0.026243-0.01879 0.011552-0.03351 0.027037-0.04438 0.04629-0.01087 0.019243-0.0167 0.043575-0.0167 0.073013 0 0.034193 0.0078 0.063049 0.02291 0.086374 0.0154 0.023325 0.03624 0.040962 0.06251 0.052966 0.02649 0.011773 0.05617 0.017655 0.08924 0.017655 0.02718 0 0.05094-0.00397 0.0711-0.01145 0.02038-0.00766 0.03722-0.017609 0.05058-0.030066 0.01358-0.012678 0.02402-0.026548 0.0315-0.041036h0.0042v0.072052h0.11834v-0.3493c0-0.034646-0.0064-0.063751-0.01909-0.086845-0.01246-0.023094-0.02902-0.041036-0.04962-0.054397-0.02061-0.013583-0.04332-0.023694-0.06824-0.029585-0.02491-0.00591-0.05026-0.00859-0.0754-0.00859zm0.53874 0c-0.04166 0-0.07877 0.00646-0.11071 0.019567-0.0317 0.012909-0.05655 0.03158-0.07444 0.055348-0.01766 0.023547-0.02598 0.05135-0.02577 0.083502-2.17e-4 0.038044 0.01131 0.069578 0.03531 0.094483 0.024 0.024682 0.06114 0.04207 0.11118 0.052486l0.08924 0.018606c0.024 0.00517 0.04165 0.012688 0.05297 0.022429 0.01155 0.00973 0.01718 0.022272 0.01718 0.037222 0 0.017665-0.0089 0.032374-0.02672 0.044378-0.01766 0.012004-0.04141 0.018135-0.07062 0.018135-0.0283 0-0.05105-0.00609-0.06871-0.018135-0.01767-0.012004-0.0294-0.029899-0.03483-0.053446l-0.11977 0.01145c0.0075 0.048007 0.03072 0.085672 0.06967 0.11261 0.03895 0.026723 0.09027 0.040084 0.15413 0.040084 0.04348 0 0.08196-0.00693 0.11548-0.020998 0.03351-0.014035 0.05994-0.033787 0.07874-0.058691 0.01903-0.025135 0.02841-0.054009 0.02863-0.086845-2.17e-4 -0.037361-0.01251-0.067565-0.03674-0.090668-0.02401-0.023094-0.06039-0.039937-0.10975-0.050583l-0.08923-0.019087c-0.02649-0.00609-0.04572-0.013869-0.05726-0.02338-0.01131-0.00951-0.01645-0.022051-0.01622-0.037222-2.18e-4 -0.017664 0.0081-0.031848 0.02529-0.042947 0.01743-0.011099 0.03883-0.016704 0.06442-0.016704 0.01902 0 0.03506 0.00295 0.0482 0.00905 0.01313 0.00609 0.0238 0.014368 0.0315 0.024331 0.0079 0.00996 0.01353 0.020647 0.0167 0.031968l0.11214-0.01241c-0.0084-0.044378-0.03053-0.079421-0.06585-0.10546-0.0351-0.02604-0.08297-0.039124-0.14411-0.039124zm1.673 0c-0.05095 0-0.09529 0.010988-0.13266 0.033399-0.03736 0.02242-0.06624 0.053945-0.08685 0.094482-0.02038 0.040537-0.03054 0.087833-0.03054 0.14172 0 0.053889 0.01016 0.10094 0.03054 0.14124 0.0206 0.040306 0.04949 0.071591 0.08685 0.094005 0.03737 0.02242 0.08171 0.033879 0.13266 0.033879 0.05095 0 0.09529-0.011459 0.13266-0.033879 0.03736-0.02242 0.06599-0.053695 0.08637-0.094005 0.02061-0.040306 0.03102-0.087353 0.03102-0.14124 0-0.053898-0.01041-0.10119-0.03102-0.14172-0.02038-0.040537-0.049-0.072062-0.08637-0.094482s-0.0817-0.033399-0.13266-0.033399zm0.58168 0c-0.05095 0-0.09529 0.010988-0.13266 0.033399-0.03736 0.02242-0.06624 0.053945-0.08685 0.094482-0.02038 0.040537-0.03054 0.087833-0.03054 0.14172 0 0.053889 0.01016 0.10094 0.03054 0.14124 0.02061 0.040306 0.04949 0.071591 0.08685 0.094005 0.03737 0.02242 0.0817 0.033879 0.13266 0.033879 0.05095 0 0.09482-0.011459 0.13218-0.033879 0.03736-0.02242 0.06647-0.053695 0.08685-0.094005 0.02061-0.040306 0.03054-0.087353 0.03054-0.14124 0-0.053898-0.0099-0.10119-0.03054-0.14172-0.02038-0.040537-0.04948-0.072062-0.08685-0.094482s-0.08123-0.033399-0.13218-0.033399zm1.9679 0c-0.03646 0-0.06961 0.00536-0.09973 0.016224-0.03012 0.010637-0.05551 0.026686-0.07635 0.048192-0.02083 0.021284-0.0358 0.047989-0.04486 0.079689l0.115 0.016224c0.0061-0.017886 0.01788-0.03363 0.03531-0.046761 0.01767-0.013131 0.04146-0.019567 0.07157-0.019567 0.02853 0 0.05021 0.00693 0.06538 0.020998 0.01517 0.014036 0.02291 0.034055 0.02291 0.059651v0.00194c0 0.011782-0.0045 0.020582-0.01336 0.026243-0.0086 0.00545-0.02249 0.0097-0.04152 0.01241-0.01902 0.00249-0.04387 0.00499-0.07444 0.00813-0.02536 0.00268-0.04971 0.0072-0.07348 0.013362-0.02355 0.00591-0.04467 0.014691-0.06347 0.026243-0.01879 0.011552-0.03351 0.027037-0.04438 0.04629-0.01087 0.019243-0.01622 0.043575-0.01622 0.073013 0 0.034193 0.0073 0.063049 0.02243 0.086374 0.01539 0.023325 0.03624 0.040962 0.06251 0.052966 0.02649 0.011773 0.05617 0.017655 0.08924 0.017655 0.02717 0 0.05094-0.00397 0.0711-0.01145 0.02038-0.00766 0.03722-0.017609 0.05058-0.030066 0.01359-0.012678 0.02403-0.026548 0.0315-0.041036h0.0042v0.072052h0.11834v-0.3493c0-0.034646-0.0064-0.063751-0.01909-0.086845-0.01246-0.023094-0.02902-0.041036-0.04962-0.054397-0.02061-0.013583-0.04332-0.023694-0.06824-0.029585-0.02491-0.00591-0.05026-0.00859-0.0754-0.00859zm1.0832 0c-0.04982 0-0.09336 0.011487-0.13027 0.034359-0.03691 0.022642-0.06576 0.054203-0.08637 0.094959-0.02038 0.040528-0.03054 0.087575-0.03054 0.14124 0 0.054572 0.01016 0.10237 0.03054 0.14268 0.02038 0.040075 0.04951 0.071083 0.08732 0.093049 0.03804 0.021737 0.08322 0.032448 0.13552 0.032448 0.04054 0 0.07684-0.00637 0.10832-0.018606 0.03148-0.012457 0.05715-0.029595 0.07731-0.052015 0.02038-0.022642 0.03427-0.049346 0.04152-0.079689l-0.115-0.012881c-0.0054 0.014719-0.01321 0.027259-0.02386 0.037222-0.01064 0.00996-0.02321 0.017692-0.03769 0.0229-0.0145 0.00499-0.03079 0.0072-0.04867 0.0072-0.02672 0-0.05021-0.00536-0.07015-0.016704-0.01993-0.011552-0.03519-0.028117-0.04629-0.049623-0.01072-0.021007-0.01633-0.046354-0.0167-0.075395h0.36313v-0.037702c0-0.045745-0.0059-0.084804-0.01861-0.11786-0.01268-0.033288-0.0303-0.061036-0.05249-0.082551-0.02197-0.021515-0.04711-0.037046-0.07587-0.047241-0.02853-0.010425-0.05899-0.015744-0.09114-0.015744zm1.3542 0c-0.03646 0-0.0701 0.00536-0.10021 0.016224-0.03011 0.010637-0.05551 0.026686-0.07635 0.048192-0.02083 0.021284-0.0358 0.047989-0.04485 0.079689l0.115 0.016224c0.0061-0.017886 0.01788-0.03363 0.03531-0.046761 0.01767-0.013131 0.04146-0.019567 0.07158-0.019567 0.02853 0 0.05068 0.00693 0.06585 0.020998 0.01517 0.014036 0.02243 0.034055 0.02243 0.059651v0.00194c0 0.011782-0.0045 0.020582-0.01336 0.026243-0.0086 0.00545-0.02201 0.0097-0.04104 0.01241-0.01902 0.00249-0.04387 0.00499-0.07444 0.00813-0.02536 0.00268-0.05019 0.0072-0.07396 0.013362-0.02355 0.00591-0.04467 0.014691-0.06347 0.026243-0.01879 0.011552-0.03351 0.027037-0.04438 0.04629-0.01087 0.019243-0.01622 0.043575-0.01622 0.073013 0 0.034193 0.0073 0.063049 0.02243 0.086374 0.0154 0.023325 0.03624 0.040962 0.06251 0.052966 0.02649 0.011773 0.05665 0.017655 0.08971 0.017655 0.02717 0 0.05047-0.00397 0.07062-0.01145 0.02038-0.00766 0.03722-0.017609 0.05058-0.030066 0.01358-0.012678 0.0245-0.026548 0.03197-0.041036h0.0038v0.072052h0.11834v-0.3493c0-0.034646-0.0064-0.063751-0.01909-0.086845-0.01246-0.023094-0.02902-0.041036-0.04962-0.054397-0.0206-0.013583-0.04333-0.023694-0.06824-0.029585-0.02491-0.00591-0.04978-0.00859-0.07492-0.00859zm-1.0546 0.00665 0.14745 0.52203h0.12836l0.09782-0.35264h0.0072l0.09782 0.35264h0.12836l0.14745-0.52203h-0.1255l-0.09067 0.36504h-0.0048l-0.094-0.36504h-0.12359l-0.094 0.36695h-0.0048l-0.09162-0.36695zm1.3299 0 0.18896 0.53253-0.0105 0.028154c-0.0075 0.019705-0.01633 0.034092-0.0272 0.042467-0.01064 0.00859-0.02318 0.012669-0.03722 0.012881-0.01404 2.179e-4 -0.02983-0.00194-0.04772-0.0072l-0.02863 0.095435c0.0084 0.00342 0.01936 0.00656 0.03341 0.00905 0.01427 0.00268 0.03001 0.00425 0.04676 0.00425 0.03215 0 0.05994-0.00554 0.08303-0.016224 0.02332-0.010416 0.0431-0.025403 0.05917-0.045329 0.01608-0.019696 0.02891-0.043473 0.03865-0.071101l0.20853-0.58502h-0.13075l-0.12025 0.39415h-0.0057l-0.12028-0.39416zm-23.932 0.027248v0.11882h-0.070623v0.090659h0.070623v0.27629c-2.173e-4 0.031054 0.00645 0.057075 0.020041 0.077777 0.013804 0.020703 0.032322 0.035883 0.05583 0.04581 0.023509 0.0097 0.049881 0.01422 0.079211 0.013361 0.016607-4.34e-4 0.030561-0.00222 0.041992-0.0048 0.011649-0.00259 0.020947-0.00452 0.027199-0.00665l-0.02004-0.091619c-0.00324 8.689e-4 -0.00759 0.00175-0.013838 0.00286-0.00604 0.00111-0.012709 0.00148-0.020041 0.00148-0.0097 0-0.018741-0.00129-0.026722-0.00425-0.00798-0.00305-0.014603-0.00896-0.019564-0.017175-0.00475-0.0084-0.00716-0.020518-0.00716-0.036262v-0.25672h0.098299v-0.090668h-0.098298v-0.11882zm1.7665 0v0.11882h-0.070146v0.090659h0.070146v0.27629c-2.174e-4 0.031054 0.00645 0.057075 0.020041 0.077777 0.013804 0.020703 0.032799 0.035883 0.056308 0.04581 0.023509 0.0097 0.04988 0.01422 0.079211 0.013361 0.016607-4.34e-4 0.030561-0.00222 0.041992-0.0048 0.011649-0.00259 0.02047-0.00452 0.026722-0.00665l-0.019564-0.091619c-0.00324 8.689e-4 -0.00806 0.00175-0.014315 0.00286-0.00604 0.00111-0.012709 0.00148-0.020041 0.00148-0.00971 0-0.018742-0.00129-0.026722-0.00425-0.00798-0.00305-0.014125-0.00896-0.019088-0.017175-0.00475-0.0084-0.00716-0.020518-0.00716-0.036262v-0.25672h0.097822v-0.090668h-0.09782v-0.11882zm20.537 0.062034c0.02355 0 0.04437 0.00508 0.06203 0.015744 0.01789 0.010637 0.03155 0.025329 0.04152 0.043898 0.01 0.018338 0.01505 0.039438 0.01527 0.062985h-0.24527c0.0012-0.020444 0.0065-0.03941 0.01574-0.056789 0.01064-0.019705 0.02536-0.035717 0.04438-0.047721 0.01902-0.012226 0.04119-0.018136 0.06633-0.018136zm-3.6337 0.00148c0.02763 0 0.0511 0.00794 0.06967 0.02338 0.01857 0.015393 0.03198 0.035994 0.04104 0.062034 0.0093 0.025818 0.01431 0.054443 0.01431 0.086365 0 0.0317-5e-3 0.060556-0.01431 0.086365-9e-3 0.025818-0.02247 0.046641-0.04104 0.062034-0.01857 0.015171-0.04204 0.022429-0.06967 0.022429-0.0283 0-0.05183-0.00729-0.07062-0.022429-0.01857-0.015402-0.03223-0.036215-0.04152-0.062034-9e-3 -0.025818-0.01384-0.054665-0.01384-0.086365 0-0.031931 0.0048-0.060556 0.01384-0.086365 0.0093-0.02604 0.02295-0.046631 0.04152-0.062034 0.01879-0.015393 0.04232-0.02338 0.07062-0.02338zm0.58168 0c0.02763 0 0.05062 0.00794 0.06919 0.02338 0.01857 0.015393 0.03246 0.035994 0.04152 0.062034 0.0093 0.025818 0.01384 0.054443 0.01384 0.086365 0 0.0317-0.0045 0.060556-0.01384 0.086365-9e-3 0.025818-0.02295 0.046641-0.04152 0.062034-0.01857 0.015171-0.04156 0.022429-0.06919 0.022429-0.0283 0-0.05183-0.00729-0.07062-0.022429-0.01857-0.015402-0.03271-0.036215-0.042-0.062034-9e-3 -0.025818-0.01336-0.054665-0.01336-0.086365 0-0.031931 0.0043-0.060556 0.01336-0.086365 0.0093-0.02604 0.02343-0.046631 0.042-0.062034 0.01879-0.015393 0.04232-0.02338 0.07062-0.02338zm0.58121 0.00332c0.02649 0 0.04869 0.0072 0.06681 0.020998 0.01834 0.013814 0.03223 0.033307 0.04152 0.05822 0.0095 0.024913 0.01431 0.054065 0.01431 0.087805 0 0.033741-0.0048 0.063391-0.01431 0.088756-0.0095 0.025356-0.02365 0.044905-0.042 0.059171-0.01834 0.014036-0.04029 0.020998-0.06633 0.020998-0.02694 0-0.04967-0.00702-0.06824-0.021478-0.01834-0.014719-0.03249-0.034766-0.042-0.060122-0.0093-0.025587-0.01384-0.05472-0.01384-0.087325 0-0.032383 0.0045-0.061239 0.01384-0.086374 0.0093-0.025135 0.02318-0.044905 0.04152-0.059171s0.04131-0.021469 0.06871-0.021469zm-19.278 0.04486c-0.028468 0-0.053657 0.00813-0.075871 0.023861-0.021999 0.015531-0.037706 0.037647-0.046763 0.066327h-0.00524v-0.083032h-0.11358v0.49722h0.11739v-0.29251c0-0.021136 0.00461-0.039651 0.014315-0.055828 0.0097-0.016178 0.02326-0.028644 0.040083-0.037693 0.017037-0.00928 0.03591-0.013842 0.057261-0.013842 0.00992 0 0.020449 4.35e-4 0.031017 0.00194 0.010782 0.00129 0.01842 0.00305 0.023382 0.0048v-0.10784c-0.00539-0.00111-0.012323-0.00194-0.020519-0.0024-0.00798-6.519e-4 -0.015004-0.00102-0.021473-0.00102zm-4.2431 0.00102c-0.048527 0-0.090389 0.010619-0.12598 0.031968-0.035586 0.021349-0.063403 0.051101-0.08303 0.089708-0.019411 0.038607-0.029108 0.083715-0.029108 0.13504 0 0.051331 0.0097 0.096174 0.029108 0.13456 0.019626 0.038386 0.047443 0.068359 0.08303 0.089708s0.077448 0.031968 0.12598 0.031968c0.048527-9e-7 0.090866-0.010619 0.12645-0.031968 0.035587-0.021349 0.063142-0.051322 0.082552-0.089708 0.019626-0.038385 0.029108-0.083235 0.029108-0.13456 0-0.051331-0.00948-0.096436-0.029108-0.13504-0.01941-0.038607-0.046965-0.068359-0.082552-0.089708s-0.077926-0.031968-0.12645-0.031968zm0.60125 0c-0.029116 0-0.052814 0.00489-0.071577 0.014793-0.018763 0.0097-0.033855 0.021506-0.044855 0.035311-0.010997 0.013583-0.019725 0.026095-0.025767 0.038173h-0.00668v-0.08208h-0.115v0.68332h0.11691v-0.26436h0.00477c0.00625 0.012078 0.01503 0.02459 0.026245 0.038173 0.011431 0.013371 0.026568 0.024867 0.045332 0.034359 0.018763 0.00948 0.04263 0.014313 0.071099 0.014313 0.039036 0 0.073661-0.01001 0.1045-0.030066 0.030841-0.020056 0.055585-0.049152 0.073485-0.087325 0.017901-0.038173 0.026722-0.084767 0.026722-0.13934 0-0.05521-0.00934-0.10185-0.027677-0.13981-0.018111-0.038173-0.042424-0.066955-0.07348-0.086365-0.030842-0.019631-0.065636-0.029105-0.10403-0.029105zm0.56928 0c-0.029116 0-0.05329 0.00489-0.072054 0.014793-0.018763 0.0097-0.033379 0.021506-0.044377 0.035311-0.010997 0.013583-0.019726 0.026095-0.025768 0.038173h-0.00668v-0.08208h-0.11548v0.68332h0.11739v-0.26436h0.00477c0.00625 0.012078 0.01503 0.02459 0.026245 0.038173 0.011431 0.013371 0.026569 0.024867 0.045332 0.034359 0.018764 0.00948 0.042154 0.014313 0.070623 0.014313 0.039037 0 0.074138-0.01001 0.10498-0.030066 0.030842-0.020056 0.055108-0.049152 0.073009-0.087325s0.026722-0.084767 0.026722-0.13934c0-0.05521-0.00886-0.10185-0.0272-0.13981-0.018117-0.038173-0.042904-0.066955-0.073963-0.086365-0.030841-0.019631-0.065157-0.029105-0.10355-0.029105zm0.80834 0c-0.037095 0-0.068293 0.00794-0.093527 0.024341-0.025018 0.01639-0.043445 0.038505-0.054875 0.066327h-0.00573v-0.084468h-0.11166v0.49722h0.11691v-0.29108c0-0.023944 0.00452-0.044738 0.013361-0.061553 0.00906-0.016824 0.021475-0.029336 0.03722-0.038173 0.01596-0.00905 0.03391-0.013842 0.054398-0.013842 0.030194 0 0.054061 0.00939 0.0711 0.028154 0.017254 0.018763 0.025768 0.045043 0.025768 0.078258v0.29824h0.11691v-0.31637c2.172e-4 -0.039687-0.00676-0.073816-0.020996-0.10164-0.014019-0.027822-0.033505-0.048801-0.05917-0.063465-0.02545-0.014664-0.055417-0.021949-0.089709-0.021949zm0.47432 0c-0.038175 0-0.072968 0.00948-0.10403 0.029105-0.031057 0.01941-0.055631 0.048146-0.073963 0.085894-0.018117 0.037527-0.027199 0.083816-0.027199 0.13838 0 0.054139 0.00909 0.099024 0.027199 0.13504 0.018332 0.0358 0.042644 0.062523 0.073485 0.08064 0.031057 0.017905 0.065851 0.027203 0.10403 0.027203 0.028468 0 0.052336-0.00425 0.071099-0.012881 0.018979-0.00859 0.033901-0.019243 0.045332-0.031968 0.011644-0.012724 0.02068-0.025144 0.026722-0.037222h0.00572v0.094004c0 0.036668-0.011142 0.062772-0.032925 0.078738-0.021784 0.016178-0.048861 0.024341-0.082075 0.024341-0.023509 0-0.043164-0.00305-0.058693-0.00954-0.015313-0.00628-0.027684-0.014156-0.036743-0.023861-0.00906-0.00948-0.015773-0.0194-0.020519-0.029105l-0.10546 0.025772c0.00712 0.023076 0.019842 0.044009 0.038174 0.062985s0.042337 0.034119 0.072532 0.045329c0.030072 0.011385 0.066958 0.017129 0.1088 0.017175 0.044452-5.08e-5 0.084267-0.00674 0.1193-0.020518 0.035155-0.013805 0.063233-0.034692 0.083506-0.062514s0.030062-0.062966 0.030062-0.10546v-0.50541h-0.11547v0.082551h-0.00621c-0.00582-0.012078-0.014548-0.02506-0.025762-0.038653-0.011216-0.013805-0.026353-0.025606-0.045332-0.03531-0.018763-0.00992-0.04246-0.014793-0.071577-0.014793zm2.1029 0c-0.047445 0-0.088435 0.010674-0.12359 0.032448-0.035156 0.021571-0.062926 0.051839-0.082552 0.090668-0.019411 0.038607-0.029108 0.083447-0.029108 0.13456 0 0.051978 0.0097 0.097129 0.029108 0.13552 0.019411 0.038173 0.047488 0.067832 0.083507 0.088757 0.036234 0.020702 0.079018 0.031017 0.12884 0.031017 0.038605 0 0.073092-6e-3 0.10307-0.017655 0.029979-0.011866 0.054291-0.028274 0.073485-0.049623 0.019408-0.02157 0.032702-0.046973 0.039606-0.075875l-0.10927-0.01193c-0.00518 0.014017-0.012768 0.025818-0.022905 0.035311-0.010137 0.00948-0.022463 0.01651-0.036265 0.021469-0.013803 0.00471-0.02877 0.0072-0.045809 0.0072-0.025449 0-0.047826-0.00545-0.066806-0.016224-0.018979-0.010998-0.03381-0.026751-0.044377-0.047241-0.010213-0.02001-0.015402-0.043917-0.015747-0.071581h0.34596v-0.035791c0-0.043566-0.00606-0.081129-0.018133-0.11261-0.012078-0.0317-0.02849-0.057767-0.049627-0.078258-0.02092-0.02049-0.045141-0.035624-0.072532-0.045329-0.027175-0.00992-0.056221-0.014793-0.086847-0.014793zm0.54017 0c-0.047451 0-0.088912 0.010674-0.12407 0.032448-0.035154 0.021571-0.062448 0.051839-0.082075 0.090668-0.019411 0.038607-0.029108 0.083447-0.029108 0.13456 0 0.051978 0.0097 0.097129 0.029108 0.13552 0.019411 0.038173 0.047012 0.067832 0.08303 0.088757 0.036235 0.020702 0.079495 0.031017 0.12932 0.031017 0.038605 0 0.072615-6e-3 0.10259-0.017655 0.029979-0.011866 0.054768-0.028274 0.073963-0.049623 0.019409-0.02157 0.032702-0.046973 0.039606-0.075875l-0.10975-0.01193c-0.00518 0.014017-0.012769 0.025818-0.022905 0.035311-0.010137 0.00948-0.021985 0.01651-0.035789 0.021469-0.013804 0.00471-0.029248 0.0072-0.046287 0.0072-0.02545 0-0.047826-0.00545-0.066806-0.016224-0.01898-0.010998-0.033333-0.026751-0.043901-0.047241-0.010211-0.02001-0.01588-0.043917-0.016224-0.071581h0.34643v-0.035791c0-0.043566-0.00606-0.081129-0.018133-0.11261-0.012078-0.0317-0.028968-0.057768-0.050104-0.078258-0.02092-0.02049-0.045141-0.035624-0.072532-0.045329-0.027176-0.00992-0.055744-0.014793-0.08637-0.014793zm-3.6208 0.00619v0.49721h0.11691v-0.49728zm3.0826 0.084934c0.02243 0 0.04187 0.00517 0.058693 0.015273 0.017038 0.010139 0.030117 0.023833 0.039606 0.041516 0.00949 0.017471 0.014576 0.037693 0.014793 0.060122h-0.23382c0.00113-0.019465 0.00642-0.03785 0.01527-0.054397 0.010137-0.018763 0.023875-0.033427 0.041992-0.044858 0.018117-0.011644 0.039525-0.017655 0.063464-0.017655zm0.53969 0c0.02243 0 0.042348 0.00517 0.05917 0.015273 0.017038 0.010139 0.030116 0.023833 0.039606 0.041516 0.00949 0.017471 0.014098 0.037693 0.014315 0.060122h-0.23334c0.00113-0.019465 0.00594-0.03785 0.014793-0.054397 0.010136-0.018763 0.024352-0.033427 0.042469-0.044858 0.018117-0.011644 0.039048-0.017655 0.062988-0.017656zm-5.0968 0.00148c0.026312 0 0.048165 0.00729 0.065851 0.021949 0.017686 0.014664 0.03098 0.034369 0.039606 0.059171 0.00885 0.02459 0.013362 0.052144 0.013362 0.082551 0 0.030195-0.00452 0.057961-0.013362 0.082551-0.00862 0.02459-0.02192 0.044027-0.039606 0.058691-0.017686 0.014451-0.039539 0.021478-0.065851 0.021478-0.026959 0-0.049382-0.00702-0.067282-0.021478-0.017686-0.014664-0.031241-0.03411-0.040084-0.058691-0.00862-0.02459-0.012884-0.052356-0.012884-0.082551 0-0.030407 0.00426-0.057961 0.012884-0.082551 0.00885-0.024802 0.022398-0.044507 0.040084-0.059171 0.017901-0.014664 0.040323-0.021949 0.067282-0.021949zm0.56784 0.00332c0.026097-1.9e-6 0.047904 0.00693 0.065373 0.020518 0.01747 0.013592 0.030764 0.032365 0.039606 0.056309 0.00885 0.023944 0.013361 0.05123 0.013361 0.082071 0 0.031054-0.00478 0.058663-0.013838 0.083031-0.00885 0.024156-0.021659 0.043242-0.039129 0.05726-0.01747 0.013805-0.039493 0.020998-0.065373 0.020998-0.024802 0-0.045995-0.00665-0.063465-0.020038-0.017253-0.013583-0.030331-0.032633-0.039606-0.056779-0.00906-0.024156-0.013361-0.052329-0.013361-0.084463s0.00404-0.060261 0.012884-0.083983c0.00906-0.023722 0.022614-0.042199 0.040083-0.055348 0.01747-0.013158 0.038446-0.019567 0.063465-0.019567zm0.56928 0c0.026097-1.9e-6 0.047904 0.00693 0.065373 0.020518 0.01747 0.013592 0.030764 0.032365 0.039606 0.056309 0.00885 0.023944 0.012884 0.05123 0.012884 0.082071 0 0.031054-0.0043 0.058663-0.013361 0.083031-0.00885 0.024156-0.022137 0.043242-0.039606 0.05726-0.01747 0.013805-0.039015 0.020998-0.064896 0.020998-0.024803 0-0.045995-0.00665-0.063465-0.020038-0.017254-0.013583-0.030332-0.032633-0.039606-0.056779-0.00906-0.024156-0.013838-0.052329-0.013838-0.084463s0.00452-0.060261 0.013362-0.083983c0.00906-0.023722 0.022136-0.042199 0.039606-0.055348 0.01747-0.013158 0.038924-0.019567 0.063942-0.019567zm1.3476 0c0.025234 0 0.046211 0.00637 0.063465 0.019567 0.01747 0.012937 0.030764 0.031368 0.039606 0.054877 0.00906 0.02351 0.013361 0.050805 0.013361 0.082071 0 0.0317-0.0043 0.058949-0.013361 0.0816-0.00906 0.022642-0.022614 0.039937-0.040084 0.052015s-0.038185 0.018135-0.062987 0.018135c-0.025665 0-0.047688-0.00609-0.065374-0.018606-0.01747-0.012724-0.030548-0.030324-0.039606-0.052966-0.00885-0.022869-0.01336-0.049758-0.01336-0.080175 0-0.029983 0.00452-0.056659 0.013361-0.080169 0.00885-0.023722 0.022136-0.042245 0.039606-0.055828s0.039277-0.020518 0.065374-0.020518zm24.948 0.037222v0.061553c0 0.019253-0.0048 0.037139-0.01479 0.053446-0.0097 0.016307-0.02388 0.029641-0.042 0.039604-0.01812 0.00973-0.03926 0.014313-0.06395 0.014313-0.02559 0-0.04694-0.00563-0.06347-0.017175-0.01653-0.011552-0.02481-0.028893-0.02481-0.051534 0-0.015855 0.0045-0.02869 0.01288-0.038653 0.0084-0.010194 0.01939-0.01772 0.03388-0.02338 0.01449-0.00563 0.03128-0.00991 0.04962-0.01241 0.0081-0.00111 0.01754-0.00268 0.02863-0.00425 0.0111-0.00157 0.02256-0.00323 0.03388-0.00526s0.02148-0.00443 0.03054-0.0072c0.0093-0.00268 0.01572-0.00591 0.01957-0.00905zm-7.1983 4.349e-4v0.061082c0 0.019243-0.0053 0.037139-0.01527 0.053446-0.0097 0.016298-0.0234 0.029641-0.04152 0.039604-0.01812 0.00973-0.03973 0.014313-0.06442 0.014313-0.02559 0-0.04646-0.00563-0.06298-0.017175-0.01653-0.011552-0.02481-0.028893-0.02481-0.051535 0-0.015855 0.0041-0.02869 0.01241-0.038653 0.0084-0.010194 0.01986-0.01772 0.03436-0.02338 0.01449-0.00563 0.0308-0.00991 0.04915-0.012401 0.0081-0.00111 0.01802-0.00268 0.02911-0.00425 0.0111-0.00157 0.02208-0.00323 0.0334-0.00526s0.02148-0.00443 0.03054-0.0072c0.0093-0.00268 0.0162-0.00545 0.02005-0.00859zm4.7613 0v0.061082c0 0.019243-0.0053 0.037139-0.01527 0.053446-0.0097 0.016298-0.0234 0.029641-0.04152 0.039604-0.01812 0.00973-0.03973 0.014313-0.06442 0.014313-0.02559 0-0.04646-0.00563-0.06299-0.017175-0.01653-0.011552-0.02481-0.028893-0.02481-0.051535 0-0.015855 0.0041-0.02869 0.01241-0.038653 0.0084-0.010194 0.01986-0.01772 0.03436-0.02338 0.0145-0.00563 0.0308-0.00991 0.04915-0.012401 0.0081-0.00111 0.01801-0.00268 0.0291-0.00425s0.02208-0.00323 0.0334-0.00526 0.02148-0.00443 0.03054-0.0072c0.0093-0.00268 0.0162-0.00545 0.02004-0.00859z" stroke-dasharray="0.0545403, 0.327242" stroke-linecap="round" stroke-linejoin="round" stroke-miterlimit="20" stroke-width=".054541" style="paint-order:markers fill stroke"/></svg>
