<svg artist="Katerina Limpitsouni" role="img" source="https://undraw.co/" version="1.1" viewBox="0 0 500 500" xmlns="http://www.w3.org/2000/svg"><title>next_js</title><g transform="matrix(.56306 0 0 .56306 3.2458 117.43)"><g fill="#e6e6e6"><circle cx="190.01" cy="79.904" r="5.5497"/><circle cx="218.1" cy="79.904" r="5.5497"/><circle cx="246.19" cy="79.904" r="5.5497"/><circle cx="274.29" cy="79.904" r="5.5497"/><circle cx="302.38" cy="79.904" r="5.5497"/><circle cx="330.47" cy="79.904" r="5.5497"/><circle cx="358.56" cy="79.904" r="5.5497"/><circle cx="386.66" cy="79.904" r="5.5497"/><circle cx="414.75" cy="79.904" r="5.5497"/><circle cx="442.84" cy="79.904" r="5.5497"/><circle cx="470.93" cy="79.904" r="5.5497"/><circle cx="499.02" cy="79.904" r="5.5497"/><circle cx="527.12" cy="79.904" r="5.5497"/><circle cx="555.21" cy="79.904" r="5.5497"/><circle cx="583.3" cy="79.904" r="5.5497"/><circle cx="611.39" cy="79.904" r="5.5497"/><circle cx="639.49" cy="79.904" r="5.5497"/><circle cx="667.58" cy="79.904" r="5.5497"/><circle cx="695.67" cy="79.904" r="5.5497"/><circle cx="723.76" cy="79.904" r="5.5497"/><circle cx="751.85" cy="79.904" r="5.5497"/><circle cx="779.95" cy="79.904" r="5.5497"/><circle cx="190.01" cy="108.35" r="5.5497"/><circle cx="218.1" cy="108.35" r="5.5497"/><circle cx="246.19" cy="108.35" r="5.5497"/><circle cx="274.29" cy="108.35" r="5.5497"/><circle cx="302.38" cy="108.35" r="5.5497"/><circle cx="330.47" cy="108.35" r="5.5497"/><circle cx="358.56" cy="108.35" r="5.5497"/><circle cx="386.66" cy="108.35" r="5.5497"/><circle cx="414.75" cy="108.35" r="5.5497"/><circle cx="442.84" cy="108.35" r="5.5497"/><circle cx="470.93" cy="108.35" r="5.5497"/><circle cx="499.02" cy="108.35" r="5.5497"/><circle cx="527.12" cy="108.35" r="5.5497"/><circle cx="555.21" cy="108.35" r="5.5497"/><circle cx="583.3" cy="108.35" r="5.5497"/><circle cx="611.39" cy="108.35" r="5.5497"/><circle cx="639.49" cy="108.35" r="5.5497"/><circle cx="667.58" cy="108.35" r="5.5497"/><circle cx="695.67" cy="108.35" r="5.5497"/><circle cx="723.76" cy="108.35" r="5.5497"/><circle cx="751.85" cy="108.35" r="5.5497"/><circle cx="779.95" cy="108.35" r="5.5497"/><circle cx="190.01" cy="136.79" r="5.5497"/><circle cx="218.1" cy="136.79" r="5.5497"/><circle cx="246.19" cy="136.79" r="5.5497"/><circle cx="274.29" cy="136.79" r="5.5497"/><circle cx="302.38" cy="136.79" r="5.5497"/><circle cx="330.47" cy="136.79" r="5.5497"/><circle cx="358.56" cy="136.79" r="5.5497"/><circle cx="386.66" cy="136.79" r="5.5497"/><circle cx="414.75" cy="136.79" r="5.5497"/><circle cx="442.84" cy="136.79" r="5.5497"/><circle cx="470.93" cy="136.79" r="5.5497"/><circle cx="499.02" cy="136.79" r="5.5497"/><circle cx="527.12" cy="136.79" r="5.5497"/><circle cx="555.21" cy="136.79" r="5.5497"/><circle cx="583.3" cy="136.79" r="5.5497"/><circle cx="611.39" cy="136.79" r="5.5497"/><circle cx="639.49" cy="136.79" r="5.5497"/><circle cx="667.58" cy="136.79" r="5.5497"/><circle cx="695.67" cy="136.79" r="5.5497"/><circle cx="723.76" cy="136.79" r="5.5497"/><circle cx="751.85" cy="136.79" r="5.5497"/><circle cx="779.95" cy="136.79" r="5.5497"/><circle cx="190.01" cy="165.24" r="5.5497"/><circle cx="218.1" cy="165.24" r="5.5497"/><circle cx="246.19" cy="165.24" r="5.5497"/><circle cx="274.29" cy="165.24" r="5.5497"/><circle cx="302.38" cy="165.24" r="5.5497"/><circle cx="330.47" cy="165.24" r="5.5497"/><circle cx="358.56" cy="165.24" r="5.5497"/><circle cx="386.66" cy="165.24" r="5.5497"/><circle cx="414.75" cy="165.24" r="5.5497"/><circle cx="442.84" cy="165.24" r="5.5497"/><circle cx="470.93" cy="165.24" r="5.5497"/><circle cx="499.02" cy="165.24" r="5.5497"/><circle cx="527.12" cy="165.24" r="5.5497"/><circle cx="555.21" cy="165.24" r="5.5497"/><circle cx="583.3" cy="165.24" r="5.5497"/><circle cx="611.39" cy="165.24" r="5.5497"/><circle cx="639.49" cy="165.24" r="5.5497"/><circle cx="667.58" cy="165.24" r="5.5497"/><circle cx="695.67" cy="165.24" r="5.5497"/><circle cx="723.76" cy="165.24" r="5.5497"/><circle cx="751.85" cy="165.24" r="5.5497"/><circle cx="779.95" cy="165.24" r="5.5497"/><circle cx="190.01" cy="193.68" r="5.5497"/><circle cx="218.1" cy="193.68" r="5.5497"/><circle cx="246.19" cy="193.68" r="5.5497"/><circle cx="274.29" cy="193.68" r="5.5497"/><circle cx="302.38" cy="193.68" r="5.5497"/><circle cx="330.47" cy="193.68" r="5.5497"/><circle cx="358.56" cy="193.68" r="5.5497"/><circle cx="386.66" cy="193.68" r="5.5497"/><circle cx="414.75" cy="193.68" r="5.5497"/><circle cx="442.84" cy="193.68" r="5.5497"/><circle cx="470.93" cy="193.68" r="5.5497"/><circle cx="499.02" cy="193.68" r="5.5497"/><circle cx="527.12" cy="193.68" r="5.5497"/><circle cx="555.21" cy="193.68" r="5.5497"/><circle cx="583.3" cy="193.68" r="5.5497"/><circle cx="611.39" cy="193.68" r="5.5497"/><circle cx="639.49" cy="193.68" r="5.5497"/><circle cx="667.58" cy="193.68" r="5.5497"/><circle cx="695.67" cy="193.68" r="5.5497"/><circle cx="723.76" cy="193.68" r="5.5497"/><circle cx="751.85" cy="193.68" r="5.5497"/><circle cx="779.95" cy="193.68" r="5.5497"/><circle cx="190.01" cy="222.13" r="5.5497"/><circle cx="218.1" cy="222.13" r="5.5497"/><circle cx="246.19" cy="222.13" r="5.5497"/><circle cx="274.29" cy="222.13" r="5.5497"/><circle cx="302.38" cy="222.13" r="5.5497"/><circle cx="330.47" cy="222.13" r="5.5497"/><circle cx="358.56" cy="222.13" r="5.5497"/><circle cx="386.66" cy="222.13" r="5.5497"/><circle cx="414.75" cy="222.13" r="5.5497"/><circle cx="442.84" cy="222.13" r="5.5497"/><circle cx="470.93" cy="222.13" r="5.5497"/><circle cx="499.02" cy="222.13" r="5.5497"/><circle cx="527.12" cy="222.13" r="5.5497"/><circle cx="555.21" cy="222.13" r="5.5497"/><circle cx="583.3" cy="222.13" r="5.5497"/><circle cx="611.39" cy="222.13" r="5.5497"/><circle cx="639.49" cy="222.13" r="5.5497"/><circle cx="667.58" cy="222.13" r="5.5497"/><circle cx="695.67" cy="222.13" r="5.5497"/><circle cx="723.76" cy="222.13" r="5.5497"/><circle cx="751.85" cy="222.13" r="5.5497"/><circle cx="779.95" cy="222.13" r="5.5497"/><circle cx="190.01" cy="250.57" r="5.5497"/><circle cx="218.1" cy="250.57" r="5.5497"/><circle cx="246.19" cy="250.57" r="5.5497"/><circle cx="274.29" cy="250.57" r="5.5497"/><circle cx="302.38" cy="250.57" r="5.5497"/><circle cx="330.47" cy="250.57" r="5.5497"/><circle cx="358.56" cy="250.57" r="5.5497"/><circle cx="386.66" cy="250.57" r="5.5497"/><circle cx="414.75" cy="250.57" r="5.5497"/><circle cx="442.84" cy="250.57" r="5.5497"/><circle cx="470.93" cy="250.57" r="5.5497"/><circle cx="499.02" cy="250.57" r="5.5497"/><circle cx="527.12" cy="250.57" r="5.5497"/><circle cx="555.21" cy="250.57" r="5.5497"/><circle cx="583.3" cy="250.57" r="5.5497"/><circle cx="611.39" cy="250.57" r="5.5497"/><circle cx="639.49" cy="250.57" r="5.5497"/><circle cx="667.58" cy="250.57" r="5.5497"/><circle cx="695.67" cy="250.57" r="5.5497"/><circle cx="723.76" cy="250.57" r="5.5497"/><circle cx="751.85" cy="250.57" r="5.5497"/><circle cx="779.95" cy="250.57" r="5.5497"/><circle cx="190.01" cy="279.02" r="5.5497"/><circle cx="218.1" cy="279.02" r="5.5497"/><circle cx="246.19" cy="279.02" r="5.5497"/><circle cx="274.29" cy="279.02" r="5.5497"/><circle cx="302.38" cy="279.02" r="5.5497"/><circle cx="330.47" cy="279.02" r="5.5497"/><circle cx="358.56" cy="279.02" r="5.5497"/><circle cx="386.66" cy="279.02" r="5.5497"/><circle cx="414.75" cy="279.02" r="5.5497"/><circle cx="442.84" cy="279.02" r="5.5497"/><circle cx="470.93" cy="279.02" r="5.5497"/><circle cx="499.02" cy="279.02" r="5.5497"/><circle cx="527.12" cy="279.02" r="5.5497"/><circle cx="555.21" cy="279.02" r="5.5497"/><circle cx="583.3" cy="279.02" r="5.5497"/><circle cx="611.39" cy="279.02" r="5.5497"/><circle cx="639.49" cy="279.02" r="5.5497"/><circle cx="667.58" cy="279.02" r="5.5497"/><circle cx="695.67" cy="279.02" r="5.5497"/><circle cx="723.76" cy="279.02" r="5.5497"/><circle cx="751.85" cy="279.02" r="5.5497"/><circle cx="779.95" cy="279.02" r="5.5497"/><circle cx="190.01" cy="307.46" r="5.5497"/><circle cx="218.1" cy="307.46" r="5.5497"/><circle cx="246.19" cy="307.46" r="5.5497"/><circle cx="274.29" cy="307.46" r="5.5497"/><circle cx="302.38" cy="307.46" r="5.5497"/><circle cx="330.47" cy="307.46" r="5.5497"/><circle cx="358.56" cy="307.46" r="5.5497"/><circle cx="386.66" cy="307.46" r="5.5497"/><circle cx="414.75" cy="307.46" r="5.5497"/><circle cx="442.84" cy="307.46" r="5.5497"/><circle cx="470.93" cy="307.46" r="5.5497"/><circle cx="499.02" cy="307.46" r="5.5497"/><circle cx="527.12" cy="307.46" r="5.5497"/><circle cx="555.21" cy="307.46" r="5.5497"/><circle cx="583.3" cy="307.46" r="5.5497"/><circle cx="611.39" cy="307.46" r="5.5497"/><circle cx="639.49" cy="307.46" r="5.5497"/><circle cx="667.58" cy="307.46" r="5.5497"/><circle cx="695.67" cy="307.46" r="5.5497"/><circle cx="723.76" cy="307.46" r="5.5497"/><circle cx="751.85" cy="307.46" r="5.5497"/><circle cx="779.95" cy="307.46" r="5.5497"/><circle cx="190.01" cy="335.91" r="5.5497"/><circle cx="218.1" cy="335.91" r="5.5497"/><circle cx="246.19" cy="335.91" r="5.5497"/><circle cx="274.29" cy="335.91" r="5.5497"/><circle cx="302.38" cy="335.91" r="5.5497"/><circle cx="330.47" cy="335.91" r="5.5497"/><circle cx="358.56" cy="335.91" r="5.5497"/><circle cx="386.66" cy="335.91" r="5.5497"/><circle cx="414.75" cy="335.91" r="5.5497"/><circle cx="442.84" cy="335.91" r="5.5497"/><circle cx="470.93" cy="335.91" r="5.5497"/><circle cx="499.02" cy="335.91" r="5.5497"/><circle cx="527.12" cy="335.91" r="5.5497"/><circle cx="555.21" cy="335.91" r="5.5497"/><circle cx="583.3" cy="335.91" r="5.5497"/><circle cx="611.39" cy="335.91" r="5.5497"/><circle cx="639.49" cy="335.91" r="5.5497"/><circle cx="667.58" cy="335.91" r="5.5497"/><circle cx="695.67" cy="335.91" r="5.5497"/><circle cx="723.76" cy="335.91" r="5.5497"/><circle cx="751.85" cy="335.91" r="5.5497"/><circle cx="779.95" cy="335.91" r="5.5497"/></g><rect y="341.12" width="888" height="2.2407"/><circle cx="857.38" cy="271.93" r="28.894" fill="#737e8c"/><circle cx="869.39" cy="309.4" r="3.6774"/><path d="m327.53 169.83h115.22v9.1577h-104.66v68.924h98.416v9.1578h-98.416v75.672h105.86v9.1577h-116.42zm125.54 0h12.242l54.249 75.672 55.449-75.672 75.42-96.121-123.91 179.75 63.85 88.445h-12.722l-58.09-80.492-58.33 80.492h-12.482l64.331-88.445zm141.86 9.1577v-9.1578h131.3v9.1578h-60.49v162.91h-10.562v-162.91zm-411.55-9.1578h13.202l182.05 272.42-75.233-100.35-108.98-159.06-0.48008 159.06h-10.562zm541.78 160.15a3.833 3.833 0 1 1 3.7762-3.8326 3.7326 3.7326 0 0 1-3.7762 3.8326zm10.378-10.083h5.6515c0.0771 3.0609 2.312 5.1187 5.6001 5.1187 3.6735 0 5.7542-2.2121 5.7542-6.3534v-26.236h5.7542v26.262c0 7.4594-4.3157 11.755-11.457 11.755-6.7047-4e-5 -11.303-4.167-11.303-10.546zm30.287-0.33439h5.7028c0.4881 3.5239 3.9304 5.7617 8.8882 5.7617 4.624 0 8.0148-2.3922 8.0148-5.6846 0-2.8294-2.1578-4.5271-7.0643-5.6846l-4.7781-1.1575c-6.7047-1.569-9.7616-4.81-9.7616-10.263 0-6.6106 5.3946-11.009 13.486-11.009 7.5267 0 13.024 4.3985 13.358 10.649h-5.6001c-0.53948-3.421-3.5193-5.556-7.835-5.556-4.5469 0-7.5781 2.1864-7.5781 5.5302 0 2.6494 1.9523 4.167 6.7818 5.2987l4.0845 1.0032c7.6038 1.7748 10.738 4.8615 10.738 10.443 0 7.0993-5.4973 11.549-14.283 11.549-8.2203 1e-5 -13.743-4.2441-14.154-10.88z"/><polygon points="855.88 343.35 857.38 272.35 858.88 343.35"/><polygon points="856.54 333.23 870.86 306.83 858 334.35"/></g></svg>
