<?xml version="1.0" encoding="UTF-8" standalone="no"?>
<svg
   version="1.1"
   viewBox="0 0 1600 840"
   xml:space="preserve"
   id="svg11"
   sodipodi:docname="og.svg"
   inkscape:version="1.4.2 (1:1.4.2+202505120738+ebf0e940d0)"
   xmlns:inkscape="http://www.inkscape.org/namespaces/inkscape"
   xmlns:sodipodi="http://sodipodi.sourceforge.net/DTD/sodipodi-0.dtd"
   xmlns="http://www.w3.org/2000/svg"
   xmlns:svg="http://www.w3.org/2000/svg"><sodipodi:namedview
     id="namedview11"
     pagecolor="#505050"
     bordercolor="#eeeeee"
     borderopacity="1"
     inkscape:showpageshadow="0"
     inkscape:pageopacity="0"
     inkscape:pagecheckerboard="0"
     inkscape:deskcolor="#505050"
     inkscape:zoom="0.53333333"
     inkscape:cx="798.75"
     inkscape:cy="569.0625"
     inkscape:window-width="1920"
     inkscape:window-height="984"
     inkscape:window-x="0"
     inkscape:window-y="55"
     inkscape:window-maximized="1"
     inkscape:current-layer="svg11" /><defs
     id="defs4"><linearGradient
       id="linearGradient12"
       x1="478.76"
       x2="505.22"
       y1="145.78"
       y2="144.89"
       gradientUnits="userSpaceOnUse"><stop
         stop-color="#fff"
         offset="0"
         id="stop1" /><stop
         stop-color="#fff"
         stop-opacity="0"
         offset="1"
         id="stop2" /></linearGradient><linearGradient
       id="linearGradient12-2"
       x1="478.76"
       x2="497.85"
       y1="145.78"
       y2="145.67"
       gradientTransform="matrix(4.2596961,0,0,4.7523138,-1235.1801,-371.66208)"
       gradientUnits="userSpaceOnUse"><stop
         stop-color="#fff"
         offset="0"
         id="stop3" /><stop
         stop-color="#fff"
         stop-opacity="0"
         offset="1"
         id="stop4" /></linearGradient></defs><style
     id="style4">
    #light-icon {
      display: inline;
    }
    #dark-icon {
      display: none;
    }

    @media (prefers-color-scheme: dark) {
      #light-icon {
        display: none;
      }
      #dark-icon {
        display: inline;
      }
    }
  </style><path
     d="m271.83 925.57h773.23a113.39 113.39 0 0 1 113.39 113.39v773.23a113.39 113.39 0 0 1-113.39 113.39h-773.23a113.39 113.39 0 0 1-113.39-113.39v-773.23a113.39 113.39 0 0 1 113.39-113.39z"
     display="none"
     fill="#010713"
     stroke-miterlimit="50"
     stroke-width="0"
     style="font-variation-settings:'wdth' 75, 'wght' 900"
     id="path4" /><g
     transform="matrix(12.163 0 0 12.163 -6264.2 -5206.5)"
     display="none"
     stroke-miterlimit="50"
     stroke-width="0"
     id="g7"><path
       transform="translate(-2.4673,366.19)"
       d="m505.21 113.81-43.225 14.605-0.34961 33.604 43.342 13.984a11.511 11.511 0 0 0 0.27149-2.0684v-59.268a11.522 11.522 0 0 0-0.0391-0.85742z"
       display="inline"
       style="font-variation-settings:'wdth' 75, 'wght' 450"
       id="path5" /><path
       transform="translate(-2.4673,366.19)"
       d="m500.47 105.33-50.127 16.959 0.17383 47.465 47.676 14.693a11.511 11.511 0 0 0 6.793-8.4434l-43.342-13.984 0.34961-33.604 43.225-14.605a11.522 11.522 0 0 0-4.748-8.4805z"
       display="inline"
       fill="url(#linearGradient12)"
       style="font-variation-settings:'wdth' 75, 'wght' 450"
       id="path6" /><path
       transform="translate(-2.4673,366.19)"
       d="m434.54 103.15a11.511 11.511 0 0 0-11.51 11.51v59.268a11.522 11.522 0 0 0 11.521 11.523h59.188a11.511 11.511 0 0 0 4.4453-1l-47.676-14.693-0.17383-47.465 50.127-16.959a11.522 11.522 0 0 0-6.7344-2.1836z"
       display="inline"
       style="font-variation-settings:'wdth' 75, 'wght' 450"
       id="path7" /></g><g
     display="none"
     stroke-miterlimit="50"
     stroke-width="0"
     id="g9"><path
       d="m1352 1118.3-525.73 177.64-4.2522 408.71 527.15 170.08a140 140 0 0 0 3.302-25.157v-720.86a140.14 140.14 0 0 0-0.4755-10.428z"
       display="inline"
       style="font-variation-settings:'wdth' 75, 'wght' 450"
       id="path8" /><path
       d="m492.49 988.69a140 140 0 0 0-139.99 139.99v720.86a140.14 140.14 0 0 0 140.13 140.15h719.88a140 140 0 0 0 54.067-12.163l-579.87-178.71-2.1142-577.3 609.68-206.27a140.14 140.14 0 0 0-81.908-26.558z"
       display="inline"
       style="font-variation-settings:'wdth' 75, 'wght' 450"
       id="path9" /></g><rect
     width="1600"
     height="840"
     fill="#030712"
     stroke-miterlimit="50"
     stroke-width="0"
     style="font-variation-settings:'wdth' 75, 'wght' 450"
     id="rect9" /><path
     d="m 896.64878,128.89968 -213.52613,80.59608 0.74044,225.56471 203.08726,69.82843 a 49.033132,54.703627 0 0 0 28.93602,-40.12579 L 731.2655,398.30704 732.75474,238.61096 916.87735,169.20116 A 49.079883,54.755785 0 0 0 896.65229,128.899 Z"
     fill="url(#linearGradient12-2)"
     stroke-miterlimit="50"
     stroke-width="0"
     style="font-variation-settings:'wdth' 75, 'wght' 450;fill:url(#linearGradient12-2)"
     id="path10" /><path
     id="text11"
     style="font-size:80px;line-height:25px;font-family:Roboto;-inkscape-font-specification:'Roboto, Normal';letter-spacing:0px;word-spacing:0px;fill:#ffffff;stroke-width:1.897;stroke-linecap:round;stroke-linejoin:round;stroke-miterlimit:20;stroke-dasharray:1.897, 11.382;paint-order:markers fill stroke"
     d="m 853.04884,620.27344 c -3.0729,0 -5.83338,0.53385 -8.28129,1.60156 -2.44792,1.06771 -4.53125,2.64323 -6.25,4.72656 -1.69271,2.08334 -2.99479,4.63542 -3.90625,7.65625 -0.91146,3.02084 -1.36719,6.47136 -1.36719,10.35157 v 9.88281 c 0,3.8802 0.42969,7.33073 1.28906,10.35156 0.88542,2.99479 2.16146,5.52084 3.82813,7.57813 1.69271,2.05729 3.75,3.6328 6.17187,4.72656 2.42188,1.0677 5.16927,1.60156 8.24217,1.60156 4.0365,0 7.461,-0.7552 10.2735,-2.26562 2.8386,-1.51042 5.013,-3.71094 6.5234,-6.60157 1.5365,-2.91666 2.3959,-6.47135 2.5781,-10.66406 h -10.4297 c -0.1302,2.8125 -0.5078,5.01302 -1.1328,6.60156 -0.5989,1.5625 -1.5234,2.66928 -2.7734,3.32031 -1.25,0.625 -2.9297,0.9375 -5.0391,0.9375 -1.7448,0 -3.2031,-0.3125 -4.37498,-0.9375 -1.17187,-0.65103 -2.10937,-1.61458 -2.8125,-2.89062 -0.67708,-1.30209 -1.17187,-2.92969 -1.48437,-4.88281 -0.3125,-1.95313 -0.46875,-4.2448 -0.46875,-6.875 v -9.96094 c 0,-2.73437 0.18229,-5.07812 0.54687,-7.03125 0.36459,-1.95313 0.92448,-3.55469 1.67969,-4.80469 0.75521,-1.27604 1.73177,-2.21354 2.92969,-2.8125 1.19795,-0.59896 2.61725,-0.89843 4.25785,-0.89843 2.1094,0 3.776,0.35156 5,1.05468 1.224,0.70313 2.1223,1.875 2.6953,3.51563 0.5728,1.61458 0.9114,3.80208 1.0156,6.5625 h 10.4297 c -0.2605,-4.2448 -1.1329,-7.83855 -2.6172,-10.78125 -1.4844,-2.96876 -3.5938,-5.22136 -6.3281,-6.75782 -2.7344,-1.53645 -6.1328,-2.30468 -10.1953,-2.30468 z m -173.11528,0.82031 v 56.875 h 10.46876 7.89062 c 3.69792,0 6.83594,-0.625 9.41406,-1.875 2.57813,-1.27604 4.54427,-3.15104 5.89844,-5.625 1.35417,-2.47396 2.03125,-5.52083 2.03125,-9.14063 0,-2.3177 -0.40364,-4.47916 -1.21094,-6.48437 -0.80728,-2.03125 -2.09635,-3.6849 -3.86719,-4.96094 -0.85325,-0.61485 -1.83421,-1.07808 -2.9414,-1.39062 0.42819,-0.20551 0.83625,-0.43239 1.22266,-0.67969 1.97916,-1.25 3.45052,-2.85156 4.41406,-4.80469 0.96354,-1.95312 1.44531,-4.10156 1.44531,-6.44531 0,-2.65625 -0.40364,-4.94792 -1.21094,-6.875 -0.78124,-1.95313 -1.92708,-3.56771 -3.4375,-4.84375 -1.51041,-1.27604 -3.35937,-2.21354 -5.54687,-2.8125 -2.16146,-0.625 -4.60938,-0.9375 -7.34375,-0.9375 z m 50.82032,0 v 56.875 h 10.46875 v -21.36719 h 6.75586 l 8.94726,21.36719 h 11.17188 v -0.54687 l -10.25,-23.52149 c 1.32311,-0.68518 2.5009,-1.51619 3.53125,-2.49414 1.5625,-1.45833 2.76041,-3.26823 3.59375,-5.42969 0.85937,-2.1875 1.28906,-4.76563 1.28906,-7.73437 0,-3.72396 -0.70313,-6.86198 -2.10937,-9.41407 -1.38022,-2.55207 -3.39845,-4.47916 -6.05469,-5.78124 -2.65626,-1.30208 -5.8724,-1.95313 -9.64844,-1.95313 z m 64.80468,0 -17.92968,56.875 h 11.01562 l 3.38477,-12.46094 h 16.51172 l 3.38476,12.46094 h 11.05469 l -18.00781,-56.875 h -2.53907 z m 91.04488,0 v 56.875 h 10.4688 V 660.8418 l 4.8086,-5.95313 11.6758,23.08008 h 12.3828 l -17.3652,-31.8418 16.8183,-25.0332 h -12.6953 l -11.7578,19.25781 -3.8672,6.11133 v -25.36914 z m 50.7032,0 v 56.875 h 10.4687 21.6797 v -8.71094 h -21.6797 v -16.32812 h 18.3594 v -8.47657 h -18.3594 v -14.60937 h 21.5235 v -8.75 h -21.5235 z m 43.0468,0 v 8.75 h 14.1016 v 48.125 h 10.39056 v -48.125 h 14.336 v -8.75 z M 421.05075,621.875 v 6.17188 h 18.24219 V 678.75 h 7.42188 v -50.70312 h 18.28124 V 621.875 Z m 52.38281,0 v 56.875 h 7.53907 V 652.46094 H 509.6445 V 678.75 h 7.5 v -56.875 h -7.5 v 24.45312 H 480.97263 V 621.875 Z m 57.61719,0 v 56.875 h 7.53907 v -56.875 z m 21.21094,0 v 56.875 h 7.53906 v -23.04688 h 13.3418 L 585.50388,678.75 h 8.04687 v -0.46875 l -13.35937,-24.15234 c 1.75495,-0.66971 3.31713,-1.52493 4.6875,-2.56641 1.97916,-1.51042 3.48958,-3.33334 4.53125,-5.46875 1.0677,-2.16146 1.60156,-4.54427 1.60156,-7.14844 0,-3.69791 -0.78125,-6.80989 -2.34375,-9.33593 -1.53646,-2.55208 -3.78907,-4.47917 -6.75781,-5.78126 -2.94271,-1.30207 -6.54948,-1.95312 -10.82031,-1.95312 z m 49.29687,0 v 56.875 h 7.53907 7.85156 c 3.95833,0 7.51304,-0.61198 10.66406,-1.83594 3.17709,-1.25 5.88542,-3.03385 8.125,-5.35156 2.26563,-2.31771 3.9974,-5.11718 5.19531,-8.39844 1.19792,-3.30729 1.79688,-7.01823 1.79688,-11.13281 v -3.39844 c 0,-4.11458 -0.59896,-7.81249 -1.79688,-11.09375 -1.19791,-3.30729 -2.91666,-6.11979 -5.15624,-8.4375 -2.21355,-2.34374 -4.85678,-4.1276 -7.92969,-5.35156 -3.07292,-1.25 -6.47136,-1.875 -10.19531,-1.875 h -8.55469 z m 456.14064,0 v 56.875 h 7.539 26.9531 v -6.13281 h -26.9531 V 621.875 Z m 27.6953,0 v 6.17188 h 18.2421 V 678.75 h 7.4219 v -50.70312 h 18.2813 V 621.875 Z m 52.3828,0 v 56.875 h 7.539 7.8516 c 3.9583,0 7.5131,-0.61198 10.6641,-1.83594 3.177,-1.25 5.8854,-3.03385 8.125,-5.35156 2.2656,-2.31771 3.9973,-5.11718 5.1953,-8.39844 1.1979,-3.30729 1.7969,-7.01823 1.7969,-11.13281 v -3.39844 c 0,-4.11458 -0.599,-7.81249 -1.7969,-11.09375 -1.198,-3.30729 -2.9167,-6.11979 -5.1563,-8.4375 -2.2135,-2.34374 -4.8567,-4.1276 -7.9297,-5.35156 -3.0728,-1.25 -6.4713,-1.875 -10.1953,-1.875 h -8.5547 z m -577.97654,6.17188 h 11.28907 c 2.89062,-10e-6 5.24739,0.45572 7.07031,1.36718 1.84896,0.88542 3.20312,2.14844 4.0625,3.78906 0.85937,1.64063 1.28906,3.55469 1.28906,5.74219 0,1.95313 -0.45573,3.73699 -1.3672,5.35157 -0.91144,1.61458 -2.26562,2.90364 -4.0625,3.86718 -1.79687,0.9375 -4.04948,1.40625 -6.7578,1.40625 h -11.52345 z m 49.29688,0 h 8.55469 c 2.8125,-10e-6 5.29948,0.45572 7.46093,1.36718 2.1875,0.91146 4.03646,2.25261 5.54688,4.02344 1.51041,1.74479 2.65624,3.89323 3.4375,6.44531 0.78124,2.52604 1.17187,5.41666 1.17187,8.67188 v 3.47656 c 0,4.14063 -0.6901,7.76042 -2.07031,10.85937 -1.35417,3.07293 -3.38542,5.46876 -6.09375,7.1875 -2.70833,1.69272 -6.09375,2.53907 -10.15625,2.53907 h -7.85156 z m 536.21866,0 h 8.5547 c 2.8126,-10e-6 5.2995,0.45572 7.461,1.36718 2.1874,0.91146 4.0364,2.25261 5.5468,4.02344 1.5105,1.74479 2.6563,3.89323 3.4375,6.44531 0.7813,2.52604 1.1719,5.41666 1.1719,8.67188 v 3.47656 c 0,4.14063 -0.6901,7.76042 -2.0703,10.85937 -1.3541,3.07293 -3.3854,5.46876 -6.0937,7.1875 -2.7084,1.69272 -6.0938,2.53907 -10.1563,2.53907 h -7.8516 z m -454.91397,1.79687 h 6.75781 c 1.66666,0 3.02083,0.26042 4.0625,0.78125 1.04166,0.52083 1.79688,1.34114 2.26562,2.46094 0.4948,1.09374 0.74219,2.55208 0.74219,4.375 0,1.61458 -0.27344,2.98177 -0.82031,4.10156 -0.52084,1.11979 -1.31511,1.97917 -2.38281,2.57812 C 699.98565,644.71355 698.68356,645 697.12106,645 h -6.71874 z m 50.82031,0 h 7.22656 c 1.74478,0 3.15103,0.36458 4.21875,1.09375 1.09375,0.72917 1.88802,1.78386 2.3828,3.16406 0.52084,1.35417 0.78125,2.98177 0.78125,4.88282 0,1.74479 -0.28646,3.29427 -0.85937,4.64843 -0.54688,1.32813 -1.39323,2.3698 -2.53907,3.125 -1.11979,0.75521 -2.52604,1.13281 -4.21874,1.13281 h -6.99219 z m 59.0625,5.26758 5.89062,21.68555 h -11.78125 z m -109.88281,17.62305 h 8.28124 c 1.58855,-10e-6 2.85157,0.35156 3.78907,1.05468 0.96354,0.67709 1.65364,1.65365 2.07031,2.92969 0.44271,1.27604 0.66406,2.77343 0.66406,4.49219 0,1.58854 -0.2474,2.99479 -0.74218,4.21875 -0.4948,1.19791 -1.25,2.13541 -2.26563,2.8125 -0.98958,0.67708 -2.29166,1.01562 -3.90625,1.01562 h -7.89062 z" /></svg>
