<svg artist="Katerina Limpitsouni" role="img" source="https://undraw.co/" version="1.1" viewBox="0 0 500 500" xml:space="preserve" xmlns="http://www.w3.org/2000/svg"><title>next_js</title><g transform="matrix(.48638 0 0 .48638 1.52e-6 41.093)"><path transform="translate(-86 -150.5)" d="m1114 668.5a13.69 13.69 0 0 1-0.1699 2.12c-7.1402 43.76-234.46 78.88-513.83 78.88s-506.69-35.12-513.83-78.88a13.675 13.675 0 0 1-0.17-2.12c0-0.2 0-0.41 0.02-0.61 0-0.11005 0.01-0.21 0.01-0.32a0.48944 0.48944 0 0 0 0.01-0.12c0.04-0.45 0.1-0.88 0.18-1.32 3.26-17.89 43.35-34.33 108.74-47.5 53.48-10.77 123.89-19.36 204.93-24.76 61.5-4.1 129.12-6.37 200.11-6.37 57.12 0 112.06 1.47 163.38 4.17h0.02q16.11 0.855 31.74 1.87c71.33 4.62 134.63 11.69 185.63 20.54 31.37 5.45 58.1 11.58 79.19 18.22h0.01c32.46 10.23 51.6 21.7 53.81 33.83 0.08 0.44 0.1399 0.87 0.1799 1.32a0.48659 0.48659 0 0 0 0.01 0.12c0 0.11 0.01 0.21 0.01 0.32 0.02 0.19997 0.02 0.40999 0.02 0.61z" fill="#3f3d56"/><ellipse cx="501" cy="572" rx="165" ry="24" opacity=".1"/><path transform="translate(-86 -150.5)" d="m1060 632.3c-5.77 1.65-12.27 3.18-19.4 4.58-29.36 5.78-69.42 9.33-113.53 9.33-49.28 0-93.45-4.43-123.38-11.44-24.84-5.8199-39.88-13.39-39.88-21.7 0-7.3 11.64-14.06 31.37-19.53 71.33 4.62 134.63 11.69 185.63 20.54 31.37 5.4499 58.1 11.58 79.19 18.22z" opacity=".1"/><path transform="translate(-86 -150.5)" d="m618 621.25c0 15.13-94.92 27.4-212 27.4s-212-12.27-212-27.4a4.372 4.372 0 0 1 0.96-2.62c53.48-10.77 123.89-19.36 204.93-24.76q3.045-0.015 6.11-0.01c117.08-1e-5 212 12.26 212 27.39z" opacity=".1"/><g fill="#737e8c"><rect x="416.47" y="334.97" width="41.685" height="134.58"/><rect x="279.51" y="271.85" width="41.685" height="197.71"/><rect x="143.73" y="271.85" width="41.685" height="197.71"/><rect x="211.62" y="271.85" width="41.685" height="134.58"/><rect x="347.39" y="271.85" width="41.685" height="39.303"/></g><rect x="347.39" y="334.97" width="41.685" height="134.58" fill="#8a8b8c"/><rect x="416.47" y="271.85" width="109.57" height="39.303" fill="#737e8c"/><path transform="translate(-86 -150.5)" d="m901.06 410.53q42.748 0 72.774 29.839a97.983 97.983 0 0 1 21.832 32.838 107.35 107.35 0 0 1 0.0955 78.409 93.533 93.533 0 0 1-21.739 32.294 104.7 104.7 0 0 1-33.841 22.561 101.42 101.42 0 0 1-39.114 7.8228 99.015 99.015 0 0 1-38.662-7.7336 104.85 104.85 0 0 1-55.399-55.396 101.76 101.76 0 0 1 0.0891-77.594 102.31 102.31 0 0 1 22.469-33.386q29.109-29.648 71.497-29.655zm0.36932 18.377q-34.93 0-58.768 24.379a87.595 87.595 0 0 0-18.466 27.381 80.789 80.789 0 0 0 0 63.311 86.249 86.249 0 0 0 45.577 45.31 82.687 82.687 0 0 0 63.41-0.0891 87.995 87.995 0 0 0 27.741-18.374q23.831-23.287 23.828-58.405a83.659 83.659 0 0 0-6.1863-32.02 81.465 81.465 0 0 0-18.002-26.929q-24.576-24.562-59.134-24.564zm-1.2767 66.591-13.649 7.0968a14.006 14.006 0 0 0-5.3648-6.3677 12.087 12.087 0 0 0-5.9156-1.818q-13.64 0-13.646 18.011 0 8.1857 3.4545 13.095 3.4577 4.9143 10.192 4.9159 8.9164 0 12.557-8.7334l12.551 6.3677a29.99 29.99 0 0 1-26.745 16.012q-13.644 0-22.016-8.3704-8.3672-8.3672-8.3672-23.284 0-14.557 8.4595-23.105 8.458-8.5487 21.38-8.5519 18.926-0.01 27.111 14.732zm58.765 0-13.465 7.0968a13.992 13.992 0 0 0-5.368-6.3677 12.373 12.373 0 0 0-6.0939-1.818q-13.644 0-13.649 18.011 0 8.1857 3.4577 13.095 3.4529 4.9143 10.192 4.9159 8.9069 0 12.548-8.7334l12.735 6.3677a31.277 31.277 0 0 1-11.274 11.736 29.398 29.398 0 0 1-15.464 4.2759q-13.831 0-22.099-8.3704-8.2908-8.3672-8.2844-23.284 0-14.557 8.4627-23.105 8.4532-8.5487 21.373-8.5519 18.922-0.01 26.929 14.732z" fill="#737e8c"/><path transform="translate(-86 -150.5)" d="m839.42 660.84c0 48.737-67.934 33.663-151.11 33.663s-150.1 15.075-150.1-33.663 67.925-59.337 151.1-59.337 150.11 10.6 150.11 59.337z" opacity=".1"/><path transform="translate(-86 -150.5)" d="m839.42 648.84c0 48.737-67.934 33.663-151.11 33.663s-150.1 15.075-150.1-33.663 67.925-59.337 151.1-59.337 150.11 10.6 150.11 59.337z" fill="#3f3d56"/><path transform="translate(-86 -150.5)" d="m825.54 561.34 3.4336 14.164a0.88462 0.88462 0 0 1-0.0172 0.478l-15.575 48.673a0.88465 0.88465 0 0 1-1.7216-0.16974l-2.1547-18.961a0.88471 0.88471 0 0 1 0.0379-0.374l14.297-43.876a0.88465 0.88465 0 0 1 1.7009 0.0657z" fill="#2f2e41"/><polygon points="724.54 454.84 738.28 412.04 741.45 424.19 727.71 468.57" fill="#f2f2f2"/><path transform="translate(-86 -150.5)" d="m755.06 628.58c0.52836 1.5851 54.949-0.52835 55.477-1.0567a11.469 11.469 0 0 0 1.1624-2.1134c0.49669-1.0567 0.95107-2.1134 0.95107-2.1134l-2.1134-17.108-53.892-1.9126s-1.3473 14.498-1.6221 21.134a15.853 15.853 0 0 0 0.037 3.1701z" fill="#2f2e41"/><polygon points="694.95 458 717.67 458 718.73 472.8 694.95 472.8" opacity=".1"/><polygon points="686.5 469.1 673.29 469.1 673.29 462.76 687.03 462.76 687.17 462.73" opacity=".1"/><path transform="translate(-86 -150.5)" d="m755.06 628.58c0.52836 1.5851 54.949-0.52835 55.477-1.0567a11.469 11.469 0 0 0 1.1624-2.1134h-56.677a15.853 15.853 0 0 0 0.037 3.1701z" opacity=".1"/><path transform="translate(-86 -150.5)" d="m671.06 573.11h14.794l36.457-14.266s25.889-10.567 23.776 9.5104-5.8119 47.024-5.8119 47.024-11.624-5.2836-17.964-3.6985-2.1134-32.23-2.1134-32.23-51.779 24.833-56.534 21.663-5.8119-25.361-5.8119-25.361z" fill="#2f2e41"/><path transform="translate(-86 -150.5)" d="m671.06 573.11h14.794l36.457-14.266s25.889-10.567 23.776 9.5104-5.8119 47.024-5.8119 47.024-11.624-5.2836-17.964-3.6985-2.1134-32.23-2.1134-32.23-51.779 24.833-56.534 21.663-5.8119-25.361-5.8119-25.361z" opacity=".1"/><path transform="translate(-86 -150.5)" d="m694.36 526.78 17.904 25.723 41.74 34.871s38.57 8.982 33.286 15.322-37.513-6.3403-37.513-6.3403-48.08-34.871-49.665-37.513-19.021-27.474-19.021-27.474z" fill="#a0616a"/><path transform="translate(-86 -150.5)" d="m694.36 526.78 17.904 25.723 41.74 34.871s38.57 8.982 33.286 15.322-37.513-6.3403-37.513-6.3403-48.08-34.871-49.665-37.513-19.021-27.474-19.021-27.474z" opacity=".1"/><circle cx="605.66" cy="324.33" r="23.776" fill="#a0616a"/><path transform="translate(-86 -150.5)" d="m690.08 495.97s-7.9253 13.737-9.5104 21.134-23.776-14.794-23.776-14.794l-2.906-7.6612s20.87-9.7746 19.285-17.7 16.907 19.021 16.907 19.021z" fill="#a0616a"/><path transform="translate(-86 -150.5)" d="m683.74 506.01 11.624 22.719s-2.6418 11.095-6.8686 12.152-22.191-13.737-22.191-13.737z" fill="#d0cde1"/><path transform="translate(-86 -150.5)" d="m694.3 537.18 21.663 28.531 51.779 38.57s37.513 7.9253 29.06 13.737-32.758-5.2836-32.758-5.2836-52.307-28.003-63.403-39.627-31.701-31.173-31.701-31.173z" fill="#a0616a"/><path transform="translate(-86 -150.5)" d="m665.24 581.56 6.3403 10.039 37.839-11.904a29.751 29.751 0 0 1 24.771 2.9885c6.6044 4.1608 10.831 10.765 1.3209 20.54-19.021 19.549-31.701 8.982-31.701 8.982s-63.931 30.116-74.498 15.322-11.095-22.191-11.095-22.191 40.683-25.361 47.024-23.776z" fill="#2f2e41"/><path transform="translate(-86 -150.5)" d="m744.5 616.43s16.907 11.095-3.1701 16.379-34.871-2.1134-34.871-2.1134-17.436 0-17.436-8.982 5.8119-10.039 5.8119-10.039l17.964 2.6418s21.663-5.8119 31.701 2.1134z" fill="#d0cde1"/><path transform="translate(-86 -150.5)" d="m711.17 468.85a17.728 17.728 0 0 0 4.9824 1.7847 4.548 4.548 0 0 0 4.5953-1.9689 6.1807 6.1807 0 0 0 0.522-2.7952c0.0637-2.9013-0.14619-6.0378-1.9848-8.2831-1.1701-1.429-2.8782-2.3298-4.0894-3.7241a17.598 17.598 0 0 1-2.0672-3.3777c-2.3555-4.4241-5.8432-8.6759-10.69-9.9513a23.183 23.183 0 0 0-6.24-0.47707l-12.206 0.17221a21.251 21.251 0 0 0-5.872 0.632c-3.9288 1.1879-6.7894 4.4918-9.4094 7.6514a47.851 47.851 0 0 0-5.3964 7.4476 26.133 26.133 0 0 0-3.0977 12.804 11.98 11.98 0 0 0 0.43881 3.3881 18.801 18.801 0 0 0 1.3317 2.925c2.2891 4.4961 3.6482 10.112 1.0703 14.449 4.4781-1.8293 8.9089-4.2277 11.863-8.0583 1.3215-1.7136 2.3579-3.7197 4.119-4.9772s4.6308-1.3666 5.7607 0.479a5.163 5.163 0 0 1 0.58258 2.4184 11.084 11.084 0 0 0 0.66762 4.0813 3.0583 3.0583 0 0 0 3.3222 1.8956c2.3004-0.648 2.0801-4.1786 3.8519-5.7824 1.3456-1.218 3.4216-0.98516 5.1503-1.5381a7.6433 7.6433 0 0 0 4.3865-4.3205c0.65453-1.4681 0.64508-5.3098 1.8836-6.1048 1.5532-0.99698 5.0854 0.58807 6.5252 1.2299z" fill="#2f2e41"/><path transform="translate(-86 -150.5)" d="m652 492.14a6.2706 6.2706 0 0 1 3.2639 8e-3c3.3916 0.91054 10.995 3.321 12.625 6.989 2.1134 4.7552 9.5104 12.152 9.5104 12.152s10.039 10.039 7.9253 16.907-10.039 14.794-10.039 14.794 2.1134 32.758-8.4537 41.212-14.794 2.6418-14.794 10.567-32.758 32.758-39.098 17.436c0 0 3.1701-28.531 2.1134-38.57-1.0414-9.8941 0.48322-71.624 36.947-81.495z" fill="#d0cde1"/><path transform="translate(-86 -150.5)" d="m668.94 505.48s32.23 23.776 26.418 33.815c0 0-19.549 9.5104-23.776 8.982s-20.606-19.021-24.833-20.606-6.3403-30.116 22.191-22.191z" fill="#d0cde1"/><path transform="translate(-86 -150.5)" d="m579.81 526.78c-5.0127 1.6928-9.5539 5.6523-10.58 10.843-0.47582 2.4059-0.18409 4.907-0.58451 7.3266-0.92865 5.6116-5.3336 9.8972-9.3964 13.878s-8.2584 8.6062-8.5549 14.286c-0.3247 6.22 4.1862 12.047 3.4056 18.226-0.90687 7.1791-8.4895 11.831-10.364 18.82-1.2516 4.667 0.28211 9.6942 2.8055 13.815 4.8086 7.8523 13.028 13.183 21.781 16.041s18.075 3.459 27.282 3.5555c11.211 0.11746 23.383-0.845 31.806-8.244a25.48 25.48 0 0 0 8.459-16.588c0.8002-8.5706-2.777-17.426-0.30951-25.673 1.5529-5.19 5.4471-9.93 4.8659-15.316-0.56823-5.2662-5.1677-8.9991-8.3231-13.253-2.9461-3.9722-4.7338-8.6632-6.4859-13.288l-5.9948-15.824c-1.1785-3.1107-2.4726-6.3823-5.0988-8.424-4.9166-3.8221-12.822-3.0712-18.572-2.2828-5.3334 0.7313-11.012 0.3699-16.141 2.102z" fill="#2f2e41"/><path transform="translate(-86 -150.5)" d="m581.69 572.88s2.6575 8.6368-17.274 18.602 1.9931 20.595 1.9931 20.595l23.253 5.315s23.917-3.3218 26.575-7.3081 7.3081-17.274 5.9793-19.267a31.061 31.061 0 0 0-3.3219-3.9862s-15.945-2.6575-15.281-9.9656-21.924-3.9863-21.924-3.9863z" fill="#ffb9b9"/><path transform="translate(-86 -150.5)" d="m581.69 572.88s2.6575 8.6368-17.274 18.602 1.9931 20.595 1.9931 20.595l23.253 5.315s23.917-3.3218 26.575-7.3081 7.3081-17.274 5.9793-19.267a31.061 31.061 0 0 0-3.3219-3.9862s-15.945-2.6575-15.281-9.9656-21.924-3.9863-21.924-3.9863z" opacity=".1"/><circle cx="508.64" cy="414.74" r="21.26" fill="#ffb9b9"/><path transform="translate(-86 -150.5)" d="m592.32 610.08s-25.604-1.8724-26.089-19.539c0 0-9.1224-1.0569-11.78 1.6006s-11.294 4.6506-11.294 11.294 14.616 26.575 14.616 26.575 7.9724 26.575 4.6506 31.225-3.9862 16.609-3.9862 16.609 33.218-2.6575 38.533 0 26.575 2.6575 27.904 0-1.3287-35.876-1.3287-35.876 5.9793-7.9724 4.6506-17.274l15.945-18.602s-5.9793-17.938-15.281-17.938c0 0-12.623-3.3218-12.955-1.6609s6.3115 20.263-23.585 23.585z" fill="#ff6584"/><path transform="translate(-86 -150.5)" d="m532.52 668.55s5.9793 9.3012 21.26 11.294 17.938-3.3218 16.609-4.6506-17.274-7.3081-17.274-7.3081l-9.3012-7.3081z" fill="#ffb9b9"/><path transform="translate(-86 -150.5)" d="m641.48 660.57-17.274 9.9656s-22.589-1.3287-13.952 5.315 24.582 3.9862 24.582 3.9862l15.281-7.3081z" fill="#ffb9b9"/><path transform="translate(-86 -150.5)" d="m555.11 677.85s-15.945 39.198 3.3218 45.177 72.416 4.6506 84.375-3.3218 15.281-18.602 13.287-21.924-15.281-12.623-24.582-13.287-76.403-6.6437-76.403-6.6437z" fill="#2f2e41"/><path transform="translate(-86 -150.5)" d="m555.11 677.85s-15.945 39.198 3.3218 45.177 72.416 4.6506 84.375-3.3218 15.281-18.602 13.287-21.924-15.281-12.623-24.582-13.287-76.403-6.6437-76.403-6.6437z" opacity=".05"/><path transform="translate(-86 -150.5)" d="m630.38 680.28s56.281-20.373 55.616 4.2085-35.876 31.225-35.876 31.225l-10.63 1.3287-58.465 1.9931s1.9931-10.63-2.6575-11.959c0 0 15.281-3.9862 15.945-4.6506s38.533-13.952 41.191-14.616 10.63-5.9793 16.609-5.315c0 0 6.6437-5.315 13.952-3.9862l-20.595 1.3287z" fill="#2f2e41"/><path transform="translate(-86 -150.5)" d="m630.38 680.28s56.281-20.373 55.616 4.2085-35.876 31.225-35.876 31.225l-10.63 1.3287-58.465 1.9931s1.9931-10.63-2.6575-11.959c0 0 15.281-3.9862 15.945-4.6506s38.533-13.952 41.191-14.616 10.63-5.9793 16.609-5.315c0 0 6.6437-5.315 13.952-3.9862l-20.595 1.3287z" opacity=".1"/><polygon points="534.43 533.08 541.53 549.27 584.71 533.99 588.04 525.35 576.74 523.36 554.04 527.35 544.19 530" fill="#2f2e41"/><polygon points="534.43 533.08 541.53 549.27 584.71 533.99 588.04 525.35 576.74 523.36 554.04 527.35 544.19 530" opacity=".1"/><path transform="translate(-86 -150.5)" d="m528.54 703.09s12.623 15.945 27.239 19.931 22.589-1.3287 22.589-1.3287l-4.6506-18.602-1.9931-11.959-8.6368-5.9793-17.274-7.9724-20.595-6.6437s-8.6368-1.3287-8.6368 0 7.9724 21.26 7.9724 21.26z" fill="#2f2e41"/><path transform="translate(-86 -150.5)" d="m543.82 711.73s2.6575 19.267 5.9793 20.595 13.287-1.3287 15.945-2.6575 11.691-7.4592 11.691-7.4592-31.622-11.808-33.615-10.479z" fill="#f2f2f2"/><polygon points="511.96 576.22 518.28 563.22 530.9 565.22 529.57 580.5" fill="#ffb9b9"/><path transform="translate(-86 -150.5)" d="m612.19 717.98s-5.9159 7.0417 0.0634 11.028l3.9862 3.3218s13.287 2.6575 14.616 3.9862 6.6437-1.9931 6.6437-1.9931 0.66437-19.931 0-21.26-8.6368-2.6575-9.3012-1.3287-8.6368 3.3218-13.287 1.9931z" fill="#f2f2f2"/><path transform="translate(-86 -150.5)" d="m559.1 682.5s-46.506-27.239-53.814-17.274-15.281 23.917 5.9793 34.547 87.697 32.554 87.697 32.554 9.9656-15.281 9.9656-19.267c0 0-35.212-15.945-41.191-17.274s-29.897-16.609-33.219-17.938-7.9724-5.315-7.9724-5.315z" fill="#2f2e41"/><path transform="translate(-86 -150.5)" d="m545.81 600.12-2.6575 1.9931s-5.9793 15.281-6.6437 23.917-8.6368 35.212-7.9724 38.533 1.3287 5.9793 5.315 9.3012c0 0 5.315-11.959 14.616-9.9656l11.294-41.191z" fill="#ff6584"/><path transform="translate(-86 -150.5)" d="m638.82 600.12 5.315 5.9793s3.3218 7.9724 3.3218 9.9656 6.6437 31.225 7.3081 32.554 3.3218 17.938 0 21.924-9.3012 6.6437-9.3012 6.6437 3.9862-13.952-8.6368-14.616l1.3287-5.315-11.959-39.862z" fill="#ff6584"/><path transform="translate(-86 -150.5)" d="m547.14 645.86v34.995a8.4134 8.4134 0 0 0 8.2888 8.4125l73.185 1.0842a8.4134 8.4134 0 0 0 8.5318-8.0892l1.3461-34.999a8.4134 8.4134 0 0 0-8.2853-8.7359l-74.531-1.0802a8.4134 8.4134 0 0 0-8.5354 8.4126z" fill="#3f3d56"/><ellipse cx="509.89" cy="401.73" rx="22.884" ry="12.322" fill="#2f2e41"/><circle cx="505.99" cy="513.73" r="5.315" fill="#f2f2f2"/></g></svg>
