<?xml version="1.0" encoding="UTF-8" standalone="no"?>
<svg
   width="115"
   height="27"
   version="1.1"
   viewBox="0 0 30.427 7.1438"
   id="svg1"
   sodipodi:docname="pob.svg"
   inkscape:version="1.3 (1:1.3+202307231459+0e150ed6c4)"
   xmlns:inkscape="http://www.inkscape.org/namespaces/inkscape"
   xmlns:sodipodi="http://sodipodi.sourceforge.net/DTD/sodipodi-0.dtd"
   xmlns="http://www.w3.org/2000/svg"
   xmlns:svg="http://www.w3.org/2000/svg">
  <defs
     id="defs1" />
  <sodipodi:namedview
     id="namedview1"
     pagecolor="#ffffff"
     bordercolor="#000000"
     borderopacity="0.25"
     inkscape:showpageshadow="2"
     inkscape:pageopacity="0.0"
     inkscape:pagecheckerboard="0"
     inkscape:deskcolor="#d1d1d1"
     inkscape:zoom="2.0521739"
     inkscape:cx="57.743644"
     inkscape:cy="13.644068"
     inkscape:window-width="1280"
     inkscape:window-height="656"
     inkscape:window-x="0"
     inkscape:window-y="27"
     inkscape:window-maximized="1"
     inkscape:current-layer="svg1" />
  <path
     d="m10.885 0.52917v0.77618h-1.0671c-0.14746 0-0.28613 0.028351-0.41548 0.085266-0.12676 0.054328-0.23914 0.13062-0.33745 0.22893-0.09572 0.098307-0.17098 0.21223-0.22531 0.34158-0.054328 0.12676-0.081132 0.26388-0.081132 0.41134 0 0.14746 0.026804 0.28561 0.081132 0.41496 0.054328 0.12676 0.12959 0.23966 0.22531 0.33796 0.098307 0.098307 0.21068 0.17563 0.33745 0.23254 0.12935 0.054328 0.26802 0.081649 0.41548 0.081649h0.87281v-0.38809h-0.87281c-0.12418-0.0025868-0.23707-0.033516-0.33796-0.093018-0.10089-0.062089-0.18234-0.14354-0.24443-0.24443-0.059502-0.10348-0.0894-0.2174-0.0894-0.34158 0-0.12418 0.029898-0.2381 0.0894-0.34158 0.062089-0.10348 0.14354-0.18493 0.24443-0.24443 0.10089-0.062089 0.21379-0.093018 0.33796-0.093018h1.0671v1.7461h0.38809v-2.9104zm6.9655 0v0.77618h-0.58188v0.38809h0.58188v1.7461h0.38809v-1.7461h1.3581v-0.38809h-1.3581v-0.77618zm10.198 0c-0.1397 0-0.2727 0.025774-0.39946 0.077515-0.12676 0.049154-0.24069 0.11771-0.34158 0.20567-0.09831 0.085372-0.17563 0.18744-0.23254 0.30644-0.05691 0.11642-0.08578 0.24323-0.08578 0.38034v1.9404h0.38809v-1.8433c0-0.12418 0.0299-0.23655 0.0894-0.33745 0.06209-0.10348 0.14354-0.18648 0.24443-0.24856 0.10089-0.062089 0.21327-0.093018 0.33745-0.093018h1.0754v-0.38809zm-28.048 0.19379v2.7166h0.38809v-2.3285h1.7772c0.10866 0 0.20711 0.026291 0.29507 0.078031 0.087959 0.051741 0.15755 0.12133 0.20929 0.20929 0.051741 0.087959 0.078031 0.18642 0.078031 0.29507 0 0.10607-0.026291 0.20453-0.078031 0.29507-0.051741 0.087959-0.12133 0.1591-0.20929 0.21342-0.087959 0.051741-0.18642 0.077515-0.29507 0.077515h-1.5601v0.38396h1.5601c0.17851 0 0.3414-0.043816 0.48886-0.13177 0.14746-0.087959 0.26396-0.20446 0.34933-0.34933 0.087959-0.14746 0.13229-0.31035 0.13229-0.48886 0-0.17851-0.044332-0.3414-0.13229-0.48886-0.085372-0.14746-0.20187-0.26396-0.34933-0.34933-0.14746-0.087959-0.31035-0.13229-0.48886-0.13229zm4.1755 0.58239c-0.12418 0-0.2381 0.030929-0.34158 0.093017-0.10348 0.059502-0.18596 0.14095-0.24805 0.24443-0.059502 0.10089-0.0894 0.21482-0.0894 0.34158v1.4552h0.38809v-1.4552c0-0.080198 0.028351-0.14876 0.085266-0.20567 0.056915-0.056915 0.12547-0.085266 0.20567-0.085266h1.4552v-0.38809zm2.6386 0c-0.14746 0-0.28561 0.028351-0.41496 0.085266-0.12676 0.054328-0.23914 0.13062-0.33745 0.22893-0.09572 0.098307-0.17098 0.21223-0.22531 0.34158-0.054328 0.12676-0.081649 0.26388-0.081649 0.41134 0 0.14746 0.027321 0.28561 0.081649 0.41496 0.054328 0.12676 0.12959 0.23966 0.22531 0.33796 0.098307 0.098307 0.21068 0.17563 0.33745 0.23254 0.12935 0.054328 0.2675 0.081649 0.41496 0.081649h0.5979c0.14746 0 0.28458-0.027321 0.41134-0.081649 0.12935-0.056915 0.24173-0.13424 0.33745-0.23254 0.098307-0.098308 0.1746-0.2112 0.22893-0.33796 0.054328-0.12935 0.081649-0.2675 0.081649-0.41496 2e-7 -0.14746-0.027321-0.28458-0.081649-0.41134-0.054328-0.12935-0.13062-0.24327-0.22893-0.34158-0.09572-0.098307-0.2081-0.1746-0.33745-0.22893-0.12676-0.056915-0.26388-0.085266-0.41134-0.085266zm4.9826 0v1.0671c0 0.14746 0.02732 0.28561 0.08165 0.41496 0.05433 0.12676 0.12959 0.23966 0.22531 0.33796 0.09831 0.098307 0.21068 0.17563 0.33745 0.23254 0.12935 0.054328 0.2675 0.081649 0.41496 0.081649h1.4552v-2.1342h-0.38809v1.7461h-1.0671c-0.12418-0.00259-0.23655-0.033516-0.33745-0.093018-0.1009-0.062089-0.18234-0.14354-0.24443-0.24443-0.0595-0.10348-0.0894-0.2174-0.0894-0.34158v-1.0671zm3.9972 0c-0.14746 0-0.28613 0.028351-0.41548 0.085266-0.12676 0.054328-0.23914 0.13062-0.33745 0.22893-0.09572 0.098307-0.17047 0.21223-0.22479 0.34158-0.05433 0.12676-0.08165 0.26388-0.08165 0.41134 0 0.14746 0.02732 0.28561 0.08165 0.41496 0.05433 0.12676 0.12907 0.23966 0.22479 0.33796 0.09831 0.098307 0.21068 0.17563 0.33745 0.23254 0.12935 0.054328 0.26802 0.081649 0.41548 0.081649h1.2692v-0.38809h-1.2692c-0.12418 0-0.23655-0.030929-0.33745-0.093018-0.1009-0.062089-0.18234-0.14354-0.24443-0.24443-0.0595-0.10348-0.0894-0.2174-0.0894-0.34158 0-0.12418 0.0299-0.23655 0.0894-0.33745 0.06209-0.10348 0.14354-0.18648 0.24443-0.24856 0.10089-0.062089 0.21327-0.093018 0.33745-0.093018h1.2692v-0.38809zm4.5909 0c-0.10607 0-0.20453 0.025774-0.29507 0.077515-0.08796 0.051741-0.15807 0.12185-0.20981 0.20981-0.05174 0.087959-0.07751 0.1859-0.07751 0.29456 0 0.10607 0.02577 0.20453 0.07751 0.29507 0.05174 0.087959 0.12185 0.15755 0.20981 0.20929 0.09055 0.051741 0.189 0.078031 0.29507 0.078031h1.0671c0.0802 0 0.14876 0.028351 0.20567 0.085266 0.05691 0.056915 0.08527 0.12547 0.08527 0.20567 0 0.080198-0.02835 0.14876-0.08527 0.20567-0.05691 0.056915-0.12547 0.085266-0.20567 0.085266h-1.6495v0.38809h1.6495c0.12676 0 0.24017-0.029898 0.34106-0.0894 0.10348-0.062089 0.18545-0.14354 0.24495-0.24443 0.06209-0.10348 0.09302-0.21843 0.09302-0.3452 0-0.12676-0.03093-0.24069-0.09302-0.34158-0.0595-0.10348-0.14146-0.18493-0.24495-0.24443-0.1009-0.062089-0.2143-0.093018-0.34106-0.093018h-1.0671c-0.05433 0-0.10124-0.018042-0.14004-0.05426-0.03622-0.038805-0.05426-0.085715-0.05426-0.14004 0-0.054328 0.01804-0.09969 0.05426-0.13591 0.03881-0.038805 0.08572-0.057878 0.14004-0.057878h1.5518v-0.38809zm4.5243 0c-0.14746 0-0.28561 0.028351-0.41496 0.085266-0.12676 0.054328-0.23914 0.13062-0.33745 0.22893-0.09572 0.098307-0.17098 0.21223-0.22531 0.34158-0.05433 0.12676-0.08165 0.26388-0.08165 0.41134 0 0.14746 0.02732 0.28561 0.08165 0.41496 0.05433 0.12676 0.12959 0.23966 0.22531 0.33796 0.09831 0.098307 0.21068 0.17563 0.33745 0.23254 0.12935 0.054328 0.2675 0.081649 0.41496 0.081649h0.5979c0.14746 0 0.28458-0.027321 0.41134-0.081649 0.12935-0.056915 0.24173-0.13424 0.33745-0.23254 0.09831-0.098307 0.1746-0.2112 0.22893-0.33796 0.05433-0.12935 0.08165-0.2675 0.08165-0.41496 0-0.14746-0.02732-0.28458-0.08165-0.41134-0.054327-0.12935-0.13062-0.24327-0.22893-0.34158-0.09572-0.098307-0.2081-0.1746-0.33745-0.22893-0.12676-0.056915-0.26388-0.085266-0.41134-0.085266zm2.6624 0.19379v0.38809h1.5524v-0.38809zm-20.757 0.1943h0.5979c0.12418 0 0.23655 0.030929 0.33745 0.093018 0.10348 0.062089 0.18493 0.14508 0.24443 0.24856 0.059502 0.10089 0.0894 0.21327 0.0894 0.33745 0 0.12418-0.029898 0.2381-0.0894 0.34158-0.059502 0.10089-0.14095 0.18234-0.24443 0.24443-0.10089 0.062089-0.21327 0.093018-0.33745 0.093018h-0.5979c-0.12418 0-0.23655-0.030929-0.33745-0.093018-0.10089-0.062089-0.18234-0.14354-0.24443-0.24443-0.059502-0.10348-0.0894-0.2174-0.0894-0.34158 0-0.12418 0.029898-0.23655 0.0894-0.33745 0.062089-0.10348 0.14354-0.18648 0.24443-0.24856s0.21327-0.093018 0.33745-0.093018zm18.095 0h0.5979c0.12418 0 0.23655 0.030929 0.33745 0.093018 0.10348 0.062089 0.18493 0.14508 0.24443 0.24856 0.0595 0.10089 0.0894 0.21327 0.0894 0.33745 0 0.12418-0.0299 0.2381-0.0894 0.34158-0.0595 0.10089-0.14095 0.18234-0.24443 0.24443-0.1009 0.062089-0.21327 0.093018-0.33745 0.093018h-0.5979c-0.12418 0-0.23655-0.030929-0.33745-0.093018-0.1009-0.062089-0.18234-0.14354-0.24443-0.24443-0.0595-0.10348-0.0894-0.2174-0.0894-0.34158 0-0.12418 0.0299-0.23655 0.0894-0.33745 0.06209-0.10348 0.14354-0.18648 0.24443-0.24856 0.1009-0.062089 0.21327-0.093018 0.33745-0.093018zm-24.909 2.266v3.1843h1.8051c0.14481 0 0.27693-0.034164 0.39636-0.10284 0.11943-0.070165 0.21406-0.16364 0.28422-0.28009 0.071658-0.11644 0.10749-0.24466 0.10749-0.38499v-0.35192c0-0.14182-0.024058-0.25942-0.07183-0.35347-0.047772-0.095544-0.12448-0.17782-0.23048-0.2465 0.11943-0.10749 0.17932-0.26481 0.17932-0.47232v-0.20826c0-0.1463-0.035829-0.27842-0.10749-0.39636-0.070165-0.11794-0.16531-0.21199-0.28474-0.28215-0.11943-0.070165-0.2527-0.10542-0.40049-0.10542zm4.069 0-1.14 3.1843h0.50385l0.93173-2.5663 0.41186 1.1374h-0.5488l-0.17002 0.47026h0.88883l0.34727 0.9586h0.50385l-1.14-3.1843zm2.1317 0v3.1843h0.47232v-2.4675l1.3865 2.4675h0.6134v-3.1843h-0.47232v2.5011l-1.3865-2.5011zm4.0039 0c-0.17467 0-0.33366 0.040308-0.47697 0.12092-0.14332 0.080615-0.2581 0.18868-0.34468 0.32453-0.085094 0.13436-0.12764 0.28439-0.12764 0.4501v1.3932c0 0.16422 0.042547 0.31425 0.12764 0.4501 0.086587 0.13585 0.20137 0.24391 0.34468 0.32453 0.14332 0.080615 0.30231 0.12092 0.47697 0.12092h0.74569c0.17467 0 0.33366-0.040308 0.47697-0.12092 0.14481-0.080615 0.25959-0.18868 0.34468-0.32453 0.08509-0.13585 0.12764-0.28589 0.12764-0.4501v-0.8847h-1.3369v0.47026h0.86455v0.41651c0 0.11644-0.04645 0.21664-0.13901 0.30024-0.09256 0.082108-0.2051 0.12299-0.33796 0.12299h-0.74569c-0.13137 0-0.24391-0.040882-0.33796-0.12299-0.092558-0.083601-0.13901-0.1838-0.13901-0.30024v-1.3973c0-0.11644 0.046451-0.21555 0.13901-0.29766 0.094051-0.083601 0.20659-0.12557 0.33796-0.12557h1.5069v-0.47026zm2.2774 0v2.2929c0 0.16422 0.03973 0.31425 0.11886 0.4501 0.08061 0.13436 0.1881 0.24185 0.32246 0.32246 0.13585 0.079122 0.2848 0.11886 0.44752 0.11886h1.5787v-0.47026h-1.5787c-0.11495 0-0.21348-0.040882-0.29559-0.12299-0.08211-0.082108-0.12299-0.18173-0.12299-0.29817v-2.2929zm3.7868 0-1.14 3.1843h0.50384l0.93173-2.5663 0.41186 1.1374h-0.5488l-0.17002 0.47026h0.88884l0.34727 0.9586h0.50384l-1.14-3.1843zm2.1317 0v3.1843h1.6929c0.16571 0 0.31632-0.039734 0.45217-0.11886 0.13734-0.080615 0.2465-0.1881 0.32711-0.32246 0.08062-0.13436 0.12092-0.28273 0.12092-0.44545v-1.402c0-0.16571-0.04031-0.31574-0.12092-0.4501-0.080615-0.13585-0.18977-0.24391-0.32711-0.32453-0.13585-0.080615-0.28646-0.12092-0.45217-0.12092zm3.1755 0v3.1843h2.4696v-0.47232h-1.9973v-2.2417h1.9973v-0.47026zm3.7977 0c-0.14481 0-0.2775 0.035255-0.39843 0.10542-0.11943 0.068672-0.21515 0.16106-0.2868 0.2775-0.07016 0.11644-0.10542 0.24575-0.10542 0.38757v0.23513c0 0.13884 0.03526 0.26539 0.10542 0.38034 0.07166 0.11495 0.16737 0.20676 0.2868 0.27544 0.12092 0.067179 0.25362 0.10077 0.39843 0.10077h1.0144c0.08808 0 0.16255 0.030202 0.22376 0.089917 0.0627 0.059715 0.09405 0.13137 0.09405 0.21497v0.34261c0 0.083601-0.03135 0.15526-0.09405 0.21497-0.06121 0.058222-0.13568 0.087333-0.22376 0.087333h-1.8025v0.47232h1.8025c0.1463 0 0.279-0.034164 0.39842-0.10284 0.11943-0.070165 0.21457-0.16364 0.28474-0.28009 0.07166-0.11794 0.10749-0.24782 0.10749-0.38964v-0.34727c0-0.14182-0.03583-0.27061-0.10749-0.38706-0.070165-0.11794-0.16531-0.21141-0.28474-0.28009-0.11943-0.070165-0.25212-0.10542-0.39842-0.10542h-1.0144c-0.08659 0-0.16106-0.02802-0.22376-0.084749s-0.09405-0.125-0.09405-0.20412v-0.21911c0-0.086586 0.03135-0.16048 0.09405-0.22169 0.0627-0.061208 0.13717-0.091984 0.22376-0.091984h1.648v-0.47026zm2.3869 0v3.1843h0.47284v-1.4221h1.65v1.4221h0.47026v-3.1843h-0.47026v1.2919h-1.65v-1.2919zm-27.288 0.47026h1.2051c0.08808 0 0.16313 0.030776 0.22583 0.091984 0.064193 0.061208 0.096635 0.13511 0.096635 0.22169v0.20361c0 0.082108-0.032442 0.1521-0.096635 0.21032-0.062701 0.056729-0.13775 0.085266-0.22583 0.085266h-0.93638v0.47026h1.0661c0.088079 0 0.16255 0.029685 0.22376 0.0894s0.091984 0.13137 0.091984 0.21497v0.35192c0 0.083601-0.030776 0.15526-0.091984 0.21497-0.061208 0.058222-0.13511 0.087333-0.22169 0.087333h-1.3369zm18.4 0h1.2206c0.11943 0 0.22077 0.041973 0.30437 0.12557 0.0836 0.082108 0.12557 0.18179 0.12557 0.29972v1.3953c0 0.11644-0.04197 0.21555-0.12557 0.29766-0.0836 0.082108-0.18494 0.12351-0.30437 0.12351h-1.2206zm3.4442 0.82166v0.47026h1.7286v-0.47026z"
     stroke-width="0"
     id="path1" />
</svg>
