<svg version="1.1" viewBox="0 0 1600 840" xml:space="preserve" xmlns="http://www.w3.org/2000/svg"><style>
    #light-icon {
      display: inline;
    }
    #dark-icon {
      display: none;
    }

    @media (prefers-color-scheme: dark) {
      #light-icon {
        display: none;
      }
      #dark-icon {
        display: inline;
      }
    }
  </style><g stroke-miterlimit="50" stroke-width="0"><path d="m916.24 162.01a44.307 44.307 0 0 0-10.54-1.3035h-211.39a44.307 44.307 0 0 0-44.307 44.307v211.39a44.307 44.307 0 0 0 44.307 44.307h211.39a44.307 44.307 0 0 0 5.2242-0.68777l-142.99-44.068-0.745-203.52zm32.532 263.74a44.307 44.307 0 0 0 1.2291-9.3419v-211.39a44.307 44.307 0 0 0-1.3492-10.747l-131.5 44.433-1.4992 144.09z" style="font-variation-settings:'wdth' 75, 'wght' 900"/><path d="m959.15 680.6-44.35 15.005 0.15383 41.994 42.182 13a10.184 10.184 0 0 0 6.0102-7.4704l-38.347-12.372 0.3094-29.732 38.244-12.922a10.194 10.194 0 0 0-4.2008-7.5033z" stroke-width="0" style="font-variation-settings:'wdth' 75, 'wght' 450"/></g><g stroke-miterlimit="50" stroke-width="0"><path d="m585.1 704.58v22.75h-2.9688v-22.75zm7.3125 0v2.4688h-17.578v-2.4688zm18.234 9.7812v2.4531h-12.312v-2.4531zm-11.844-9.7812v22.75h-3.0156v-22.75zm14.469 0v22.75h-3v-22.75zm8.5781 0v22.75h-3.0156v-22.75zm5.4688 0h7.5312q2.5625 0 4.3281 0.78125 1.7812 0.78125 2.7031 2.3125 0.9375 1.5156 0.9375 3.7344 0 1.5625-0.64063 2.8594-0.625 1.2812-1.8125 2.1875-1.1719 0.89062-2.8125 1.3281l-0.84375 0.32813h-7.0781l-0.0312-2.4531h5.3438q1.625 0 2.7031-0.5625 1.0781-0.57812 1.625-1.5469 0.54688-0.96875 0.54688-2.1406 0-1.3125-0.51563-2.2969-0.51562-0.98438-1.625-1.5156-1.0938-0.54687-2.8281-0.54687h-4.5156v20.281h-3.0157zm13.297 22.75-5.5312-10.312 3.1406-0.0156 5.6094 10.141v0.1875zm12.578 0h-4.75l0.0312-2.4531h4.7188q2.4375 0 4.0625-1.0156 1.625-1.0312 2.4375-2.875 0.82812-1.8594 0.82812-4.3438v-1.3906q0-1.9531-0.46875-3.4688-0.46875-1.5312-1.375-2.5781-0.90625-1.0625-2.2188-1.6094-1.2969-0.54687-2.9844-0.54687h-5.125v-2.4688h5.125q2.2344 0 4.0781 0.75 1.8438 0.73437 3.1719 2.1406 1.3438 1.3906 2.0625 3.375 0.71875 1.9688 0.71875 4.4375v1.3594q0 2.4688-0.71875 4.4531-0.71875 1.9688-2.0781 3.3594-1.3438 1.3906-3.25 2.1406-1.8906 0.73438-4.2656 0.73438zm-3.1406-22.75v22.75h-3.0156v-22.75zm26.094 12.109h-5.7656l-0.0312-2.4219h5.2344q1.2969 0 2.2656-0.4375t1.5-1.25q0.54687-0.82813 0.54687-1.9688 0-1.25-0.48437-2.0312-0.46875-0.79688-1.4531-1.1562-0.96875-0.375-2.4688-0.375h-4.4375v20.281h-3.0156v-22.75h7.4531q1.75 0 3.125 0.35937 1.375 0.34375 2.3281 1.0938 0.96875 0.73438 1.4688 1.875 0.5 1.1406 0.5 2.7344 0 1.4062-0.71875 2.5469-0.71875 1.125-2 1.8438-1.2656 0.71875-2.9688 0.92188zm-0.14062 10.641h-6.8125l1.7031-2.4531h5.1094q1.4375 0 2.4375-0.5 1.0156-0.5 1.5469-1.4062 0.53125-0.92187 0.53125-2.1719 0-1.2656-0.45312-2.1875-0.45313-0.92188-1.4219-1.4219t-2.5-0.5h-4.2969l0.0312-2.4219h5.875l0.64062 0.875q1.6406 0.14062 2.7812 0.9375 1.1406 0.78125 1.7344 2 0.60937 1.2188 0.60937 2.6875 0 2.125-0.9375 3.5938-0.92187 1.4531-2.6094 2.2188-1.6875 0.75-3.9688 0.75zm11.969-22.75h7.5312q2.5625 0 4.3281 0.78125 1.7812 0.78125 2.7031 2.3125 0.9375 1.5156 0.9375 3.7344 0 1.5625-0.64063 2.8594-0.625 1.2812-1.8125 2.1875-1.1719 0.89062-2.8125 1.3281l-0.84375 0.32813h-7.0781l-0.0312-2.4531h5.3438q1.625 0 2.7031-0.5625 1.0781-0.57812 1.625-1.5469 0.54688-0.96875 0.54688-2.1406 0-1.3125-0.51563-2.2969-0.51562-0.98438-1.625-1.5156-1.0938-0.54687-2.8281-0.54687h-4.5156v20.281h-3.0156zm13.297 22.75-5.5312-10.312 3.1406-0.0156 5.6094 10.141v0.1875zm14.844-20.734-7.5312 20.734h-3.0781l8.6719-22.75h1.9844zm6.3125 20.734-7.5469-20.734-0.0469-2.0156h1.9844l8.7031 22.75zm-0.39062-8.4219v2.4688h-12.781v-2.4688zm20.094 1.1875h3q-0.23438 2.1562-1.2344 3.8594-1 1.7031-2.8281 2.7031-1.8281 0.98438-4.5625 0.98438-2 0-3.6406-0.75-1.625-0.75-2.7969-2.125-1.1719-1.3906-1.8125-3.3281-0.625-1.9531-0.625-4.3438v-2.2656q0-2.3906 0.625-4.3281 0.64062-1.9531 1.8281-3.3438 1.2031-1.3906 2.8906-2.1406t3.7969-0.75q2.5781 0 4.3594 0.96875t2.7656 2.6875q1 1.7031 1.2344 3.9531h-3q-0.21875-1.5938-0.8125-2.7344-0.59375-1.1562-1.6875-1.7812t-2.8594-0.625q-1.5156 0-2.6719 0.57812-1.1406 0.57813-1.9219 1.6406-0.76562 1.0625-1.1562 2.5469-0.39062 1.4844-0.39062 3.2969v2.2969q0 1.6719 0.34375 3.1406 0.35937 1.4688 1.0781 2.5781 0.71875 1.1094 1.8281 1.75 1.1094 0.625 2.625 0.625 1.9219 0 3.0625-0.60937 1.1406-0.60938 1.7188-1.75 0.59375-1.1406 0.84375-2.7344zm10.109-15.516v22.75h-3.0156v-22.75zm13.734 0-9.4531 10.609-5.3125 5.5156-0.5-3.2188 4-4.4062 7.6406-8.5zm-2.9062 22.75-8.4219-11.094 1.7969-2.3906 10.219 13.484zm20.688-2.4531v2.4531h-12.047v-2.4531zm-11.438-20.297v22.75h-3.0156v-22.75zm9.8438 9.7812v2.4531h-10.453v-2.4531zm1.4375-9.7812v2.4688h-11.891v-2.4688zm12.609 0v22.75h-2.9688v-22.75zm7.3125 0v2.4688h-17.578v-2.4688zm-0.42187 21.219q0-0.73438 0.45312-1.2344 0.46875-0.51562 1.3438-0.51562t1.3281 0.51562q0.46875 0.5 0.46875 1.2344 0 0.71875-0.46875 1.2188-0.45313 0.5-1.3281 0.5t-1.3438-0.5q-0.45312-0.5-0.45312-1.2188zm22.562-5.7031h3q-0.23438 2.1562-1.2344 3.8594-1 1.7031-2.8281 2.7031-1.8281 0.98438-4.5625 0.98438-2 0-3.6406-0.75-1.625-0.75-2.7969-2.125-1.1719-1.3906-1.8125-3.3281-0.625-1.9531-0.625-4.3438v-2.2656q0-2.3906 0.625-4.3281 0.64062-1.9531 1.8281-3.3438 1.2031-1.3906 2.8906-2.1406t3.7969-0.75q2.5781 0 4.3594 0.96875t2.7656 2.6875q1 1.7031 1.2344 3.9531h-3q-0.21875-1.5938-0.8125-2.7344-0.59375-1.1562-1.6875-1.7812t-2.8594-0.625q-1.5156 0-2.6719 0.57812-1.1406 0.57813-1.9219 1.6406-0.76562 1.0625-1.1562 2.5469-0.39062 1.4844-0.39062 3.2969v2.2969q0 1.6719 0.34375 3.1406 0.35937 1.4688 1.0781 2.5781 0.71875 1.1094 1.8281 1.75 1.1094 0.625 2.625 0.625 1.9219 0 3.0625-0.60937 1.1406-0.60938 1.7188-1.75 0.59375-1.1406 0.84375-2.7344zm24.609-4.8594v1.4375q0 2.5625-0.64062 4.5938-0.64063 2.0312-1.8438 3.4531-1.2031 1.4219-2.8906 2.1719-1.6719 0.75-3.75 0.75-2.0156 0-3.7031-0.75-1.6719-0.75-2.9062-2.1719-1.2188-1.4219-1.8906-3.4531-0.67187-2.0312-0.67187-4.5938v-1.4375q0-2.5625 0.65625-4.5781 0.67187-2.0312 1.8906-3.4531 1.2188-1.4375 2.8906-2.1875 1.6875-0.75 3.7031-0.75 2.0781 0 3.75 0.75 1.6875 0.75 2.8906 2.1875 1.2188 1.4219 1.8594 3.4531 0.65625 2.0156 0.65625 4.5781zm-2.9844 1.4375v-1.4688q0-2.0312-0.42188-3.5938-0.40625-1.5625-1.2031-2.625-0.79688-1.0625-1.9531-1.6094-1.1406-0.54687-2.5938-0.54687-1.4062 0-2.5469 0.54687-1.125 0.54688-1.9375 1.6094-0.79688 1.0625-1.2344 2.625t-0.4375 3.5938v1.4688q0 2.0469 0.4375 3.625 0.4375 1.5625 1.25 2.6406 0.82813 1.0625 1.9531 1.6094 1.1406 0.54687 2.5469 0.54687 1.4688 0 2.6094-0.54687 1.1406-0.54688 1.9219-1.6094 0.79688-1.0781 1.2031-2.6406 0.40625-1.5781 0.40625-3.625zm5.5 9.125q0-0.73438 0.45312-1.2344 0.46875-0.51562 1.3438-0.51562t1.3281 0.51562q0.46875 0.5 0.46875 1.2344 0 0.71875-0.46875 1.2188-0.45313 0.5-1.3281 0.5t-1.3438-0.5q-0.45312-0.5-0.45312-1.2188zm21.844-21.219h3v15.391q0 2.5625-1.1406 4.2656t-3.0312 2.5625q-1.875 0.84375-4.0781 0.84375-2.3125 0-4.1875-0.84375-1.8594-0.85938-2.9531-2.5625-1.0781-1.7031-1.0781-4.2656v-15.391h2.9844v15.391q0 1.7812 0.65625 2.9375t1.8281 1.7188q1.1875 0.5625 2.75 0.5625 1.5781 0 2.75-0.5625 1.1875-0.5625 1.8438-1.7188t0.65625-2.9375zm10.75 0v22.75h-3.0156v-22.75zm13.734 0-9.4531 10.609-5.3125 5.5156-0.5-3.2188 4-4.4062 7.6406-8.5zm-2.9062 22.75-8.4219-11.094 1.7969-2.3906 10.219 13.484z" aria-label="THIRDBRACKET.CO.UK"/><path d="m968.29 716.69h-5.7656l-0.031-2.4219h5.2344q1.2969 0 2.2656-0.4375 0.9688-0.4375 1.5-1.25 0.5469-0.82813 0.5469-1.9688 0-1.25-0.4844-2.0312-0.4687-0.79688-1.4531-1.1562-0.9687-0.375-2.4687-0.375h-4.4375v20.281h-3.0157v-22.75h7.4532q1.75 0 3.125 0.35937 1.375 0.34375 2.3281 1.0938 0.9687 0.73438 1.4687 1.875 0.5 1.1406 0.5 2.7344 0 1.4062-0.7187 2.5469-0.7188 1.125-2 1.8438-1.2656 0.71875-2.9688 0.92188zm-0.1406 10.641h-6.8125l1.7031-2.4531h5.1094q1.4375 0 2.4375-0.5 1.0156-0.5 1.5469-1.4062 0.5312-0.92187 0.5312-2.1719 0-1.2656-0.4531-2.1875-0.4531-0.92188-1.4219-1.4219-0.9687-0.5-2.5-0.5h-4.2969l0.031-2.4219h5.875l0.6406 0.875q1.6406 0.14062 2.7813 0.9375 1.1406 0.78125 1.7343 2 0.6094 1.2188 0.6094 2.6875 0 2.125-0.9375 3.5938-0.9219 1.4531-2.6094 2.2188-1.6875 0.75-3.9687 0.75zm25.766-2.4531v2.4531h-11.375v-2.4531zm-10.781-20.297v22.75h-3.0157v-22.75zm30.719 10.656v1.4375q0 2.5625-0.6406 4.5938t-1.8438 3.4531q-1.2031 1.4219-2.8906 2.1719-1.6719 0.75-3.75 0.75-2.0156 0-3.7031-0.75-1.6719-0.75-2.9063-2.1719-1.2187-1.4219-1.8906-3.4531t-0.6719-4.5938v-1.4375q0-2.5625 0.6563-4.5781 0.6719-2.0312 1.8906-3.4531 1.2188-1.4375 2.8906-2.1875 1.6875-0.75 3.7032-0.75 2.0781 0 3.75 0.75 1.6875 0.75 2.8906 2.1875 1.2187 1.4219 1.8594 3.4531 0.6562 2.0156 0.6562 4.5781zm-2.9844 1.4375v-1.4688q0-2.0312-0.4218-3.5938-0.4063-1.5625-1.2032-2.625-0.7968-1.0625-1.9531-1.6094-1.1406-0.54687-2.5937-0.54687-1.4063 0-2.5469 0.54687-1.125 0.54688-1.9375 1.6094-0.7969 1.0625-1.2344 2.625t-0.4375 3.5938v1.4688q0 2.0469 0.4375 3.625 0.4375 1.5625 1.25 2.6406 0.8281 1.0625 1.9531 1.6094 1.1407 0.54687 2.5469 0.54687 1.4688 0 2.6094-0.54687 1.1406-0.54688 1.9219-1.6094 0.7968-1.0781 1.2031-2.6406 0.4062-1.5781 0.4062-3.625zm24.297-0.67188v8.3281q-0.4219 0.625-1.3437 1.4062-0.9219 0.76562-2.5469 1.3438-1.6094 0.5625-4.1563 0.5625-2.0781 0-3.8281-0.71875-1.7344-0.73438-3.0156-2.125-1.2656-1.4062-1.9688-3.4062-0.6875-2.0156-0.6875-4.5625v-1.7656q0-2.5469 0.5938-4.5469 0.6094-2 1.7812-3.3906 1.1719-1.4062 2.875-2.125 1.7032-0.73437 3.9063-0.73437 2.6094 0 4.3594 0.90625 1.7656 0.89062 2.75 2.4688 1 1.5781 1.2812 3.5938h-3.0156q-0.2031-1.2344-0.8125-2.25-0.5938-1.0156-1.7031-1.625-1.1094-0.625-2.8594-0.625-1.5781 0-2.7344 0.57812-1.1562 0.57813-1.9062 1.6562-0.75 1.0781-1.125 2.6094-0.3594 1.5312-0.3594 3.4531v1.7969q0 1.9688 0.4531 3.5156 0.4688 1.5469 1.3281 2.6406 0.8594 1.0781 2.0469 1.6406 1.2031 0.5625 2.6563 0.5625 1.6093 0 2.6093-0.26562 1-0.28125 1.5625-0.65625 0.5625-0.39063 0.8594-0.73438v-5.0938h-5.2656v-2.4375z" aria-label="BLOG"/><path d="m156.73 608.39h-9.0842l0.0705-8.5538h9.0135q3.7468 0 5.8322-1.3433 2.0855-1.3431 2.9338-4.2415 0.88369-2.8986 0.88369-7.5996v-8.0238q0-3.57-0.45951-6.0442-0.45952-2.5098-1.5553-4.0298-1.0957-1.555-2.9338-2.2975-1.8381-0.74227-4.5598-0.74227h-9.4023v-8.5893h9.4023q4.4537 0 8.0945 1.4492 3.6408 1.4495 6.2564 4.2418 2.6157 2.7571 4.0296 6.8221 1.4139 4.0648 1.4139 9.2608v7.9531q0 5.2313-1.4139 9.2608-1.4139 4.0296-4.0296 6.8221-2.5803 2.757-6.2564 4.2062t-8.2359 1.4492zm-3.0752-51.465v51.465h-10.357v-51.465zm35.064 33.65v-2.5803q0-4.489 1.0604-7.953 1.0958-3.4642 3.1106-5.7971 2.0148-2.3681 4.8426-3.5701 2.8631-1.237 6.3978-1.237 3.57 0 6.3978 1.237 2.8631 1.202 4.8779 3.5701 2.0501 2.3329 3.1459 5.7971 1.0958 3.464 1.0958 7.953v2.5803q0 4.4537-1.0958 7.9177t-3.1459 5.8324q-2.0148 2.3681-4.8426 3.57-2.8278 1.2018-6.3625 1.2018t-6.3978-1.2018q-2.8278-1.2019-4.8779-3.57-2.0501-2.3684-3.1459-5.8324-1.0604-3.464-1.0604-7.9177zm9.8972-2.5803v2.5803q0 2.6512 0.35345 4.5952 0.38882 1.9442 1.0958 3.2167 0.74228 1.2722 1.7674 1.8734 1.025 0.60084 2.3682 0.60084t2.4036-0.60084q1.0604-0.60114 1.732-1.8734 0.70693-1.2726 1.025-3.2167 0.35347-1.944 0.35347-4.5952v-2.5803q0-2.5804-0.3888-4.5245-0.38882-1.9793-1.0958-3.2166-0.70693-1.2724-1.7674-1.9086-1.0251-0.67163-2.3329-0.67163t-2.3329 0.67163q-0.98971 0.6362-1.732 1.9086-0.70695 1.2373-1.0958 3.2166-0.35345 1.9442-0.35345 4.5245zm42.487-33.898v54.293h-9.9325v-54.293zm19.158 0v54.293h-9.9325v-54.293zm25.627 45.492v-17.673q0-1.732-0.42417-2.7573-0.38882-1.025-1.2018-1.4844-0.77763-0.49476-1.9087-0.49476-1.2725 0-2.1208 0.53004-0.84833 0.53028-1.2725 1.52-0.38881 0.98968-0.38881 2.3681h-9.9325q0-2.4743 0.95438-4.6657 0.95439-2.227 2.7924-3.8882 1.8734-1.6967 4.4537-2.6511 2.5803-0.95418 5.7969-0.95418 3.8175 0 6.7866 1.3078 2.9692 1.2724 4.7012 4.0648 1.732 2.7925 1.732 7.2462v17.037q0 3.2167 0.31812 5.2315 0.35348 2.0148 1.0251 3.464v0.60084h-9.9679q-0.67157-1.5906-1.025-3.9587-0.31812-2.4037-0.31812-4.8426zm1.2018-14.563 0.0353 5.9385h-3.6407q-1.4139 0-2.4743 0.45942-1.025 0.45948-1.732 1.3078-0.70695 0.81305-1.0604 1.9087-0.31814 1.0958-0.31814 2.333 0 1.3785 0.38883 2.3329 0.38881 0.95449 1.1664 1.4493 0.77763 0.49468 1.838 0.49468 1.626 0 2.8278-0.67139 1.2018-0.67171 1.7674-1.6261 0.60091-0.95424 0.38882-1.7673l2.2622 3.8529q-0.42417 1.3078-1.1665 2.7217-0.70693 1.4139-1.8027 2.6156-1.0958 1.2019-2.7217 1.9794-1.5906 0.74227-3.7822 0.74227-3.0752 0-5.6202-1.4139-2.545-1.4137-4.0296-3.9587-1.4492-2.5451-1.4492-6.0443 0-2.8986 0.91901-5.2315 0.95436-2.3681 2.8278-3.9942 1.8734-1.6612 4.7365-2.545 2.8631-0.88368 6.716-0.88368zm30.575-6.3624v29.727h-9.8972v-38.245h9.3316zm9.0135-8.8013-0.14138 9.8617q-0.67157-0.14032-1.626-0.21269-0.91903-0.07-1.626-0.07-1.6613 0-2.8278 0.53028-1.1664 0.495-1.9441 1.52-0.74229 0.98976-1.1311 2.4742-0.38882 1.4845-0.45952 3.3579l-1.8734-0.70699q0-3.7468 0.56557-6.8571 0.60088-3.1459 1.7674-5.4435 1.1664-2.3331 2.7924-3.6055 1.6613-1.2723 3.7468-1.2723 0.70694 0 1.4846 0.14025 0.81297 0.10626 1.2725 0.28278zm42.452 29.727v-17.673q0-1.732-0.42415-2.7573-0.38884-1.025-1.2018-1.4844-0.77765-0.49476-1.9087-0.49476-1.2725 0-2.1208 0.53004-0.84834 0.53028-1.2725 1.52-0.38881 0.98968-0.38881 2.3681h-9.9325q0-2.4743 0.95436-4.6657 0.95439-2.227 2.7924-3.8882 1.8734-1.6967 4.4537-2.6511 2.5803-0.95418 5.7969-0.95418 3.8175 0 6.7867 1.3078 2.9692 1.2724 4.7012 4.0648 1.732 2.7925 1.732 7.2462v17.037q0 3.2167 0.31814 5.2315 0.35345 2.0148 1.0251 3.464v0.60084h-9.9679q-0.6716-1.5906-1.0251-3.9587-0.31812-2.4037-0.31812-4.8426zm1.2018-14.563 0.0353 5.9385h-3.6408q-1.4139 0-2.4743 0.45942-1.0251 0.45948-1.732 1.3078-0.70694 0.81305-1.0604 1.9087-0.31812 1.0958-0.31812 2.333 0 1.3785 0.38881 2.3329 0.38882 0.95449 1.1664 1.4493 0.77765 0.49468 1.8381 0.49468 1.626 0 2.8278-0.67139 1.2018-0.67171 1.7673-1.6261 0.60091-0.95424 0.38882-1.7673l2.2622 3.8529q-0.42417 1.3078-1.1664 2.7217-0.70696 1.4139-1.8027 2.6156-1.0958 1.2019-2.7217 1.9794-1.5906 0.74227-3.7821 0.74227-3.0752 0-5.6202-1.4139-2.545-1.4137-4.0296-3.9587-1.4492-2.5451-1.4492-6.0443 0-2.8986 0.91901-5.2315 0.95439-2.3681 2.8278-3.9942 1.8734-1.6612 4.7365-2.545 2.8631-0.88368 6.7159-0.88368zm30.398-6.716v30.08h-9.9325v-38.245h9.2609zm-1.4846 9.6499-2.651 0.07q-0.0705-4.3123 0.813-7.741 0.91901-3.4287 2.5803-5.8321 1.6967-2.4389 4.0296-3.7115 2.3329-1.3078 5.2667-1.3078 2.2269 0 4.0649 0.77754 1.8734 0.77754 3.2166 2.4742 1.3432 1.6968 2.0855 4.4892 0.74229 2.7924 0.74229 6.8927v24.319h-9.9325v-24.39q0-2.4743-0.49487-3.8174-0.49484-1.3786-1.4846-1.9089-0.95438-0.56556-2.4743-0.56556-1.4139 0-2.5096 0.77778-1.0958 0.77754-1.838 2.1914-0.70696 1.3786-1.0958 3.252-0.35346 1.8734-0.31812 4.0296zm50.864 11.983v-45.845h9.9325v54.293l-8.9782 0.0362zm-19.83-9.3317v-2.5448q0-4.666 0.77763-8.1652 0.81298-3.4995 2.4036-5.8323t3.8882-3.464q2.3329-1.1664 5.3374-1.1664 2.7217 0 4.7719 1.3784 2.0855 1.3433 3.5347 3.7823 1.4492 2.4389 2.3329 5.7616 0.88368 3.3226 1.2372 7.2815v3.676q-0.42417 3.7468-1.3078 6.9987-0.84832 3.2521-2.3329 5.6555-1.4492 2.4037-3.4994 3.7823-2.0501 1.3431-4.7719 1.3431-3.0045 0-5.3374-1.2018-2.2976-1.2019-3.8882-3.5348-1.5553-2.3681-2.3682-5.7968-0.77763-3.464-0.77763-7.9532zm9.8972-2.5448v2.5448q0 2.6865 0.24743 4.6307 0.28279 1.9086 0.88368 3.1459 0.63623 1.2017 1.6613 1.8025 1.0251 0.56564 2.545 0.56564 1.9794 0 3.2166-0.98977 1.2371-1.025 1.838-2.7924 0.63624-1.8027 0.70693-4.1356v-6.6807q-0.0705-1.944-0.45951-3.4993-0.38881-1.5552-1.0957-2.6511-0.70694-1.0957-1.7674-1.6967-1.0251-0.60084-2.4036-0.60084-1.4846 0-2.545 0.60084-1.025 0.60106-1.6259 1.8736-0.60091 1.237-0.91903 3.2165-0.28278 1.9442-0.28278 4.666zm72.426 6.7865q0-1.3786-0.24742-2.5097-0.24745-1.1311-1.0604-2.0854-0.77764-0.9544-2.2976-1.9089-1.4846-0.95425-3.8882-1.9793-2.8631-1.2019-5.5495-2.545-2.6864-1.3786-4.8426-3.1812-2.1562-1.8028-3.4287-4.2417-1.2371-2.4742-1.2371-5.7968 0-3.252 1.1664-5.9029 1.2018-2.6512 3.3933-4.5245 2.1915-1.9086 5.1253-2.9337 2.9692-1.0253 6.6099-1.0253 4.9486 0 8.554 2.0503 3.6407 2.05 5.6202 5.6201 2.0148 3.57 2.0148 8.2005h-10.321q0-2.1915-0.63626-3.8529-0.6009-1.6967-1.9441-2.6509-1.3432-0.95441-3.464-0.95441-1.9794 0-3.2873 0.81306-1.2725 0.77753-1.9087 2.1562-0.60089 1.3431-0.60089 3.0398 0 1.2725 0.60089 2.2976 0.63623 0.98977 1.732 1.8028 1.0958 0.77754 2.5803 1.5197 1.5199 0.74226 3.3226 1.4492 3.4994 1.3786 6.1858 3.0398 2.6864 1.6261 4.4891 3.6762 1.8027 2.0148 2.7217 4.5598 0.91902 2.5451 0.91902 5.7968 0 3.2167-1.1311 5.8676-1.0958 2.6159-3.2166 4.5245-2.1208 1.8734-5.1253 2.8984-2.9692 1.025-6.6453 1.025-3.57 0-6.7513-0.98977-3.1812-1.025-5.6202-3.075-2.4036-2.0856-3.7821-5.2668-1.3786-3.2165-1.3786-7.5996h10.357q0 2.3328 0.45952 3.9942 0.45951 1.6259 1.4139 2.6156 0.95436 0.95448 2.3329 1.4492 1.4139 0.45963 3.2166 0.45963 2.0501 0 3.2519-0.77777 1.2371-0.77754 1.7674-2.0854 0.5302-1.308 0.5302-2.9692zm37.715 14.245q-3.9235 0-6.9634-1.2018-3.0045-1.2019-5.09-3.464-2.0854-2.2975-3.1812-5.5495-1.0958-3.2521-1.0958-7.4229v-3.1459q0-4.6657 1.0604-8.1652 1.0604-3.5345 3.0045-5.9382 1.9441-2.4036 4.7719-3.5701 2.8631-1.2017 6.4685-1.2017 3.6053 0 6.3271 1.2017 2.7571 1.1665 4.5597 3.5348 1.8027 2.3328 2.7217 5.7968 0.91904 3.464 0.91904 8.0591v4.5245h-25.627v-6.9634h15.906v-0.8837q0-2.3329-0.49483-3.8881-0.49485-1.5906-1.5552-2.3684-1.0605-0.77755-2.8278-0.77755-1.4846 0-2.5096 0.60083-1.0251 0.60085-1.626 1.8734-0.60092 1.2725-0.88369 3.3226-0.28278 2.015-0.28278 4.8426v3.1459q0 2.6512 0.45948 4.4536 0.45957 1.7675 1.3432 2.8984 0.91905 1.0958 2.2269 1.5908 1.3079 0.45949 3.0398 0.45949 2.6157 0 4.7012-0.91913 2.1209-0.95425 3.6055-2.5804l3.9588 6.009q-1.025 1.3433-2.8278 2.6865-1.8027 1.3431-4.3123 2.1914t-5.7969 0.84834zm33.403-30.787v30.08h-9.9325v-38.245h9.261zm-1.4845 9.6499-2.6511 0.07q-0.0707-4.3123 0.81297-7.741 0.91905-3.4287 2.5804-5.8321 1.6967-2.4389 4.0295-3.7115 2.3329-1.3078 5.2668-1.3078 2.2269 0 4.0649 0.77754 1.8734 0.77754 3.2166 2.4742 1.3432 1.6968 2.0855 4.4892 0.74226 2.7924 0.74226 6.8927v24.319h-9.9325v-24.39q0-2.4743-0.49485-3.8174-0.49484-1.3786-1.4846-1.9089-0.95433-0.56556-2.4743-0.56556-1.4139 0-2.5096 0.77778-1.0958 0.77754-1.838 2.1914-0.70698 1.3786-1.0958 3.252-0.35348 1.8734-0.31813 4.0296zm49.309 10.109q0-0.98976-0.67162-1.7673-0.67155-0.77754-2.1208-1.5906-1.4492-0.84834-3.8528-1.8734-2.6157-1.0606-4.6304-2.1915-2.0148-1.1311-3.4287-2.5097-1.3785-1.3786-2.0854-3.1459-0.70699-1.7672-0.70699-4.0295 0-2.4389 0.88369-4.489 0.91905-2.0856 2.6156-3.6408 1.6967-1.5906 4.1357-2.4743 2.4743-0.9189 5.5495-0.9189 4.3123 0 7.3875 1.5198 3.1106 1.4847 4.7719 4.1709 1.6613 2.6864 1.6613 6.2566h-9.8972q0-1.2725-0.38885-2.2623-0.38885-1.025-1.2725-1.5906-0.84833-0.56555-2.2976-0.56555-1.0604 0-1.9088 0.45948-0.81289 0.45965-1.3078 1.2372-0.45948 0.74227-0.45948 1.7673 0 0.77778 0.31813 1.3786 0.35349 0.60092 1.0958 1.1665 0.74226 0.56556 1.9794 1.2017 1.2725 0.60108 3.1106 1.3433 3.8175 1.414 6.2564 3.0398 2.4743 1.6259 3.6761 3.8175 1.2018 2.1561 1.2018 5.3373 0 2.5451-0.98977 4.6304-0.9544 2.0855-2.7924 3.6053-1.838 1.52-4.4184 2.3331-2.545 0.81283-5.6908 0.81283-4.6305 0-7.8117-1.8381-3.1813-1.8379-4.8072-4.701-1.626-2.8986-1.626-6.009h9.4023q0.0707 1.9086 0.70691 3.0045 0.67162 1.0603 1.8027 1.4845 1.1311 0.42413 2.5096 0.42413t2.2622-0.35333q0.91897-0.38893 1.3785-1.1666 0.45948-0.8129 0.45948-1.8734zm35.63 11.028q-3.9235 0-6.9634-1.2018-3.0046-1.2019-5.09-3.464-2.0855-2.2975-3.1813-5.5495-1.0957-3.2521-1.0957-7.4229v-3.1459q0-4.6657 1.0604-8.1652 1.0604-3.5345 3.0045-5.9382 1.9441-2.4036 4.7719-3.5701 2.8631-1.2017 6.4685-1.2017t6.3272 1.2017q2.7571 1.1665 4.5597 3.5348 1.8027 2.3328 2.7217 5.7968 0.91904 3.464 0.91904 8.0591v4.5245h-25.627v-6.9634h15.906v-0.8837q0-2.3329-0.49483-3.8881-0.49485-1.5906-1.5553-2.3684-1.0604-0.77755-2.8278-0.77755-1.4845 0-2.5096 0.60083-1.025 0.60085-1.626 1.8734-0.60083 1.2725-0.8836 3.3226-0.28278 2.015-0.28278 4.8426v3.1459q0 2.6512 0.45948 4.4536 0.45949 1.7675 1.3432 2.8984 0.91905 1.0958 2.2269 1.5908 1.3078 0.45949 3.0398 0.45949 2.6157 0 4.7012-0.91913 2.1209-0.95425 3.6054-2.5804l3.9589 6.009q-1.025 1.3433-2.8278 2.6865-1.8027 1.3431-4.3123 2.1914t-5.7969 0.84834zm24.566-5.7616q0-2.3329 1.5552-3.8881 1.5552-1.5906 4.2063-1.5906 2.651 0 4.2063 1.5906 1.5552 1.5552 1.5552 3.8881t-1.5552 3.8882q-1.5553 1.5553-4.2063 1.5553-2.6511 0-4.2063-1.5553t-1.5552-3.8882zm-0.0707-28.985q0-2.3329 1.5552-3.8881 1.5553-1.5906 4.2063-1.5906 2.6511 0 4.2063 1.5906 1.5553 1.5552 1.5553 3.8881t-1.5553 3.8882q-1.5552 1.5553-4.2063 1.5553-2.651 0-4.2063-1.5553-1.5552-1.5553-1.5552-3.8882zm56.677-17.426v51.465h-10.286v-51.465zm12.796 0v8.5893h-35.63v-8.5893zm20.713-2.8276v54.293h-9.8972v-54.293zm-1.4139 33.862-2.6864 0.07q0-4.0295 0.81298-7.4229 0.81297-3.3932 2.4036-5.9029 1.626-2.5096 3.8882-3.8882 2.2976-1.3784 5.0546-1.3784 2.3682 0 4.3123 0.81281 1.9441 0.81307 3.358 2.5451 1.4493 1.732 2.2269 4.5951 0.77762 2.8279 0.77762 6.8574v24.142h-9.9325v-24.213q0-2.4743-0.49484-3.8882-0.49485-1.4139-1.4846-1.9795-0.98968-0.60083-2.4743-0.60083-1.5906 0-2.7217 0.77778-1.0958 0.77753-1.7674 2.1914-0.67155 1.3786-0.98968 3.252-0.28278 1.8734-0.28278 4.0296zm47.719 21.137q-3.9235 0-6.9634-1.2018-3.0045-1.2019-5.09-3.464-2.0854-2.2975-3.1812-5.5495-1.0958-3.2521-1.0958-7.4229v-3.1459q0-4.6657 1.0604-8.1652 1.0604-3.5345 3.0045-5.9382 1.9441-2.4036 4.7719-3.5701 2.8631-1.2017 6.4685-1.2017t6.3271 1.2017q2.7571 1.1665 4.5597 3.5348 1.8027 2.3328 2.7217 5.7968 0.91904 3.464 0.91904 8.0591v4.5245h-25.627v-6.9634h15.906v-0.8837q0-2.3329-0.49484-3.8881-0.49485-1.5906-1.5552-2.3684-1.0605-0.77755-2.8278-0.77755-1.4846 0-2.5096 0.60083-1.025 0.60085-1.626 1.8734-0.60091 1.2725-0.88369 3.3226-0.28278 2.015-0.28278 4.8426v3.1459q0 2.6512 0.45948 4.4536 0.45957 1.7675 1.3432 2.8984 0.91905 1.0958 2.2269 1.5908 1.3079 0.45949 3.0398 0.45949 2.6157 0 4.7012-0.91913 2.1209-0.95425 3.6055-2.5804l3.9588 6.009q-1.025 1.3433-2.8277 2.6865-1.8028 1.3431-4.3124 2.1914t-5.7969 0.84834zm52.526-52.172v51.465h-10.357v-51.465zm16.118 21.88v8.5541h-18.734v-8.5541zm1.9794-21.88v8.5893h-20.713v-8.5893zm21.173 13.22v38.245h-9.9325v-38.245zm-10.392-9.9327q0-2.2976 1.4492-3.782 1.4846-1.4848 3.9942-1.4848 2.4743 0 3.9235 1.4848 1.4493 1.4844 1.4493 3.782t-1.4493 3.8175q-1.4492 1.4845-3.9235 1.4845-2.5096 0-3.9942-1.4845-1.4492-1.52-1.4492-3.8175zm28.879 18.098v30.08h-9.9325v-38.245h9.2609zm-1.4845 9.6499-2.6511 0.07q-0.071-4.3123 0.813-7.741 0.919-3.4287 2.5803-5.8321 1.6967-2.4389 4.0296-3.7115 2.3329-1.3078 5.2667-1.3078 2.2269 0 4.0649 0.77754 1.8734 0.77754 3.2166 2.4742 1.3432 1.6968 2.0855 4.4892 0.7422 2.7924 0.7422 6.8927v24.319h-9.9325v-24.39q0-2.4743-0.4948-3.8174-0.4949-1.3786-1.4846-1.9089-0.9543-0.56556-2.4743-0.56556-1.4139 0-2.5096 0.77778-1.0958 0.77754-1.8381 2.1914-0.7069 1.3786-1.0957 3.252-0.3535 1.8734-0.3181 4.0296zm49.203 11.629v-17.673q0-1.732-0.4242-2.7573-0.3888-1.025-1.2019-1.4844-0.7776-0.49476-1.9087-0.49476-1.2725 0-2.1208 0.53004-0.8483 0.53028-1.2725 1.52-0.3888 0.98968-0.3888 2.3681h-9.9325q0-2.4743 0.9543-4.6657 0.9544-2.227 2.7925-3.8882 1.8733-1.6967 4.4537-2.6511 2.5803-0.95418 5.7969-0.95418 3.8174 0 6.7867 1.3078 2.9691 1.2724 4.7011 4.0648 1.7321 2.7925 1.7321 7.2462v17.037q0 3.2167 0.318 5.2315 0.3535 2.0148 1.0251 3.464v0.60084h-9.9679q-0.6716-1.5906-1.0251-3.9587-0.318-2.4037-0.318-4.8426zm1.2017-14.563 0.035 5.9385h-3.6407q-1.4139 0-2.4743 0.45942-1.0251 0.45948-1.732 1.3078-0.7069 0.81305-1.0604 1.9087-0.3182 1.0958-0.3182 2.333 0 1.3785 0.3889 2.3329 0.3888 0.95449 1.1664 1.4493 0.7777 0.49468 1.8381 0.49468 1.6259 0 2.8277-0.67139 1.2019-0.67171 1.7674-1.6261 0.6009-0.95424 0.3888-1.7673l2.2622 3.8529q-0.4241 1.3078-1.1664 2.7217-0.707 1.4139-1.8027 2.6156-1.0958 1.2019-2.7217 1.9794-1.5907 0.74227-3.7822 0.74227-3.0752 0-5.6201-1.4139-2.545-1.4137-4.0296-3.9587-1.4493-2.5451-1.4493-6.0443 0-2.8986 0.9191-5.2315 0.9543-2.3681 2.8278-3.9942 1.8733-1.6612 4.7365-2.545 2.863-0.88368 6.7159-0.88368zm30.399-6.716v30.08h-9.9325v-38.245h9.2609zm-1.4845 9.6499-2.651 0.07q-0.07-4.3123 0.8129-7.741 0.919-3.4287 2.5804-5.8321 1.6966-2.4389 4.0295-3.7115 2.333-1.3078 5.2667-1.3078 2.2268 0 4.0649 0.77754 1.8734 0.77754 3.2166 2.4742 1.3431 1.6968 2.0854 4.4892 0.7424 2.7924 0.7424 6.8927v24.319h-9.9325v-24.39q0-2.4743-0.4949-3.8174-0.4948-1.3786-1.4846-1.9089-0.9544-0.56556-2.4742-0.56556-1.414 0-2.5097 0.77778-1.0957 0.77754-1.8381 2.1914-0.7068 1.3786-1.0957 3.252-0.3534 1.8734-0.3181 4.0296zm46.163 12.902q1.3786 0 2.3683-0.56557 1.0251-0.56555 1.5553-1.8381 0.5302-1.2725 0.5655-3.2873h9.2963q0 4.3123-1.8381 7.4582-1.8027 3.1106-4.878 4.8073-3.0398 1.6612-6.8926 1.6612t-6.7159-1.237q-2.8631-1.2372-4.7365-3.6056-1.8381-2.3681-2.7924-5.7616-0.919-3.4287-0.919-7.8469v-2.7925q0-4.3476 0.919-7.7763 0.9543-3.4287 2.7924-5.7971 1.8734-2.3681 4.7012-3.6054 2.8631-1.237 6.7158-1.237 4.1357 0 7.1755 1.732 3.0399 1.6965 4.7366 5.0193 1.732 3.3226 1.732 8.2005h-9.2963q-0.035-2.1914-0.5302-3.6409-0.4595-1.4844-1.4493-2.262-0.9543-0.81306-2.5449-0.81306-1.6614 0-2.6864 0.70691-0.9897 0.6717-1.5199 1.9795-0.4949 1.2725-0.6716 3.1812-0.1768 1.9086-0.1768 4.3123v2.7925q0 2.5804 0.1415 4.489 0.1767 1.8734 0.6716 3.1812 0.5302 1.2725 1.5199 1.9087 1.0251 0.63635 2.7571 0.63635zm34.287-30.717v38.245h-9.9326v-38.245zm-10.392-9.9327q0-2.2976 1.4493-3.782 1.4845-1.4848 3.9942-1.4848 2.4742 0 3.9235 1.4848 1.4492 1.4844 1.4492 3.782t-1.4492 3.8175q-1.4493 1.4845-3.9235 1.4845-2.5097 0-3.9942-1.4845-1.4493-1.52-1.4493-3.8175zm36.019 39.377v-17.673q0-1.732-0.4242-2.7573-0.3889-1.025-1.2018-1.4844-0.7777-0.49476-1.9087-0.49476-1.2725 0-2.1209 0.53004-0.8483 0.53028-1.2725 1.52-0.3888 0.98968-0.3888 2.3681h-9.9325q0-2.4743 0.9544-4.6657 0.9544-2.227 2.7925-3.8882 1.8733-1.6967 4.4536-2.6511 2.5804-0.95418 5.7969-0.95418 3.8175 0 6.7867 1.3078 2.9691 1.2724 4.7011 4.0648 1.732 2.7925 1.732 7.2462v17.037q0 3.2167 0.3182 5.2315 0.3535 2.0148 1.025 3.464v0.60084h-9.9678q-0.6716-1.5906-1.0251-3.9587-0.3181-2.4037-0.3181-4.8426zm1.2018-14.563 0.035 5.9385h-3.6408q-1.4138 0-2.4743 0.45942-1.025 0.45948-1.7318 1.3078-0.7071 0.81305-1.0606 1.9087-0.3181 1.0958-0.3181 2.333 0 1.3785 0.3889 2.3329 0.3888 0.95449 1.1664 1.4493 0.7776 0.49468 1.838 0.49468 1.626 0 2.8278-0.67139 1.2018-0.67171 1.7673-1.6261 0.601-0.95424 0.3889-1.7673l2.2622 3.8529q-0.4241 1.3078-1.1665 2.7217-0.7069 1.4139-1.8027 2.6156-1.0957 1.2019-2.7217 1.9794-1.5906 0.74227-3.7821 0.74227-3.0752 0-5.6203-1.4139-2.5448-1.4137-4.0295-3.9587-1.4492-2.5451-1.4492-6.0443 0-2.8986 0.919-5.2315 0.9544-2.3681 2.8278-3.9942 1.8734-1.6612 4.7365-2.545 2.8631-0.88368 6.7159-0.88368zm31.07-30.928v54.293h-9.9326v-54.293zm37.609 2.8276v51.465h-10.357v-51.465zm16.118 21.88v8.5541h-18.734v-8.5541zm1.9795-21.88v8.5893h-20.713v-8.5893zm8.9076 33.65v-2.5803q0-4.489 1.0604-7.953 1.0957-3.4642 3.1104-5.7971 2.0148-2.3681 4.8426-3.5701 2.8632-1.237 6.3978-1.237 3.57 0 6.3978 1.237 2.8632 1.202 4.878 3.5701 2.05 2.3329 3.1458 5.7971 1.0958 3.464 1.0958 7.953v2.5803q0 4.4537-1.0958 7.9177t-3.1458 5.8324q-2.0148 2.3681-4.8426 3.57-2.8278 1.2018-6.3625 1.2018t-6.3978-1.2018q-2.8278-1.2019-4.878-3.57-2.05-2.3684-3.1457-5.8324-1.0604-3.464-1.0604-7.9177zm9.8971-2.5803v2.5803q0 2.6512 0.3534 4.5952 0.3889 1.9442 1.0959 3.2167 0.7421 1.2722 1.7673 1.8734 1.025 0.60084 2.3682 0.60084t2.4036-0.60084q1.0604-0.60114 1.732-1.8734 0.707-1.2726 1.0251-3.2167 0.3534-1.944 0.3534-4.5952v-2.5803q0-2.5804-0.3887-4.5245-0.3889-1.9793-1.0959-3.2166-0.7068-1.2724-1.7672-1.9086-1.0252-0.67163-2.333-0.67163t-2.3329 0.67163q-0.9898 0.6362-1.7319 1.9086-0.707 1.2373-1.0959 3.2166-0.3534 1.9442-0.3534 4.5245zm41.992-9.3317v29.727h-9.8972v-38.245h9.3319zm9.0136-8.8013-0.1402 9.8617q-0.6715-0.14032-1.6259-0.21269-0.919-0.07-1.626-0.07-1.6613 0-2.8277 0.53028-1.1665 0.495-1.9443 1.52-0.7423 0.98976-1.1311 2.4742-0.3886 1.4845-0.4595 3.3579l-1.8733-0.70699q0-3.7468 0.5655-6.8571 0.6009-3.1459 1.7673-5.4435 1.1667-2.3331 2.7926-3.6055 1.6613-1.2723 3.7467-1.2723 0.7069 0 1.4845 0.14025 0.8131 0.10626 1.2725 0.28278zm22.339 39.235q-3.9234 0-6.9635-1.2018-3.0045-1.2019-5.0899-3.464-2.0856-2.2975-3.1812-5.5495-1.0958-3.2521-1.0958-7.4229v-3.1459q0-4.6657 1.0604-8.1652 1.0605-3.5345 3.0044-5.9382 1.9443-2.4036 4.772-3.5701 2.8632-1.2017 6.4685-1.2017 3.6055 0 6.3271 1.2017 2.7571 1.1665 4.5598 3.5348 1.8026 2.3328 2.7219 5.7968 0.9188 3.464 0.9188 8.0591v4.5245h-25.627v-6.9634h15.906v-0.8837q0-2.3329-0.4948-3.8881-0.495-1.5906-1.5553-2.3684-1.0604-0.77755-2.8278-0.77755-1.4845 0-2.5096 0.60083-1.025 0.60085-1.626 1.8734-0.6009 1.2725-0.8837 3.3226-0.2829 2.015-0.2829 4.8426v3.1459q0 2.6512 0.4598 4.4536 0.4595 1.7675 1.3432 2.8984 0.9189 1.0958 2.2266 1.5908 1.3081 0.45949 3.04 0.45949 2.6157 0 4.7011-0.91913 2.1208-0.95425 3.6055-2.5804l3.9588 6.009q-1.0251 1.3433-2.8279 2.6865-1.8025 1.3431-4.3123 2.1914-2.5095 0.84834-5.7968 0.84834zm37.503-8.2358q1.3787 0 2.3682-0.56557 1.0252-0.56555 1.5553-1.8381 0.5303-1.2725 0.5655-3.2873h9.2963q0 4.3123-1.8381 7.4582-1.8024 3.1106-4.8778 4.8073-3.0398 1.6612-6.8926 1.6612-3.8529 0-6.716-1.237-2.8632-1.2372-4.7366-3.6056-1.8381-2.3681-2.7923-5.7616-0.9192-3.4287-0.9192-7.8469v-2.7925q0-4.3476 0.9192-7.7763 0.9542-3.4287 2.7923-5.7971 1.8734-2.3681 4.7013-3.6054 2.8631-1.237 6.716-1.237 4.1355 0 7.1754 1.732 3.0397 1.6965 4.7365 5.0193 1.7319 3.3226 1.7319 8.2005h-9.2963q-0.036-2.1914-0.53-3.6409-0.4597-1.4844-1.4495-2.262-0.9542-0.81306-2.5447-0.81306-1.6614 0-2.6865 0.70691-0.9897 0.6717-1.52 1.9795-0.4947 1.2725-0.6715 3.1812-0.1764 1.9086-0.1764 4.3123v2.7925q0 2.5804 0.1403 4.489 0.1764 1.8734 0.6716 3.1812 0.5303 1.2725 1.52 1.9087 1.0251 0.63635 2.7571 0.63635zm40.755-1.2726v-17.673q0-1.732-0.4241-2.7573-0.3887-1.025-1.2017-1.4844-0.7776-0.49476-1.9087-0.49476-1.2725 0-2.1209 0.53004-0.8483 0.53028-1.2725 1.52-0.3889 0.98968-0.3889 2.3681h-9.9324q0-2.4743 0.9544-4.6657 0.9542-2.227 2.7923-3.8882 1.8734-1.6967 4.4537-2.6511 2.5803-0.95418 5.797-0.95418 3.8174 0 6.7867 1.3078 2.9691 1.2724 4.7012 4.0648 1.7319 2.7925 1.7319 7.2462v17.037q0 3.2167 0.318 5.2315 0.3535 2.0148 1.0251 3.464v0.60084h-9.9678q-0.6716-1.5906-1.0252-3.9587-0.3181-2.4037-0.3181-4.8426zm1.202-14.563 0.036 5.9385h-3.6407q-1.4138 0-2.4744 0.45942-1.025 0.45948-1.732 1.3078-0.7069 0.81305-1.0604 1.9087-0.318 1.0958-0.318 2.333 0 1.3785 0.3888 2.3329 0.3888 0.95449 1.1663 1.4493 0.7778 0.49468 1.8381 0.49468 1.6261 0 2.8279-0.67139 1.2016-0.67171 1.7671-1.6261 0.6009-0.95424 0.389-1.7673l2.2622 3.8529q-0.4241 1.3078-1.1664 2.7217-0.707 1.4139-1.8028 2.6156-1.0958 1.2019-2.7217 1.9794-1.5906 0.74227-3.7822 0.74227-3.0752 0-5.6203-1.4139-2.5447-1.4137-4.0295-3.9587-1.4492-2.5451-1.4492-6.0443 0-2.8986 0.9192-5.2315 0.9542-2.3681 2.8276-3.9942 1.8734-1.6612 4.7366-2.545 2.863-0.88368 6.7159-0.88368zm37.644 13.043q0-0.98976-0.6716-1.7673-0.6717-0.77754-2.1209-1.5906-1.4492-0.84834-3.8528-1.8734-2.6157-1.0606-4.6304-2.1915-2.0148-1.1311-3.4286-2.5097-1.3785-1.3786-2.0854-3.1459-0.707-1.7672-0.707-4.0295 0-2.4389 0.8835-4.489 0.9191-2.0856 2.6157-3.6408 1.6968-1.5906 4.1357-2.4743 2.4742-0.9189 5.5496-0.9189 4.3122 0 7.3873 1.5198 3.1107 1.4847 4.7718 4.1709 1.6614 2.6864 1.6614 6.2566h-9.8971q0-1.2725-0.3889-2.2623-0.3887-1.025-1.2725-1.5906-0.8482-0.56555-2.2975-0.56555-1.0604 0-1.9087 0.45948-0.8132 0.45965-1.3079 1.2372-0.4594 0.74227-0.4594 1.7673 0 0.77778 0.318 1.3786 0.3533 0.60092 1.0958 1.1665 0.7423 0.56556 1.9794 1.2017 1.2725 0.60108 3.1106 1.3433 3.8175 1.414 6.2564 3.0398 2.4743 1.6259 3.676 3.8175 1.202 2.1561 1.202 5.3373 0 2.5451-0.9898 4.6304-0.9545 2.0855-2.7926 3.6053-1.8377 1.52-4.4181 2.3331-2.5451 0.81283-5.691 0.81283-4.6304 0-7.8119-1.8381-3.1812-1.8379-4.807-4.701-1.6259-2.8986-1.6259-6.009h9.4023q0.07 1.9086 0.7068 3.0045 0.6718 1.0603 1.8028 1.4845 1.1312 0.42413 2.5096 0.42413 1.3787 0 2.2622-0.35333 0.919-0.38893 1.3787-1.1666 0.4594-0.8129 0.4594-1.8734zm36.902-27.924v7.4582h-19.512v-7.4582zm-15.023-9.4377h9.862v36.019q0 1.5553 0.318 2.439 0.3181 0.84834 0.9545 1.2017 0.6714 0.31828 1.7319 0.31828 0.7776 0 1.414-0.07 0.6361-0.10637 0.9542-0.21268v7.741q-1.1664 0.45948-2.4742 0.70698-1.2726 0.24727-3.0398 0.24727-2.9692 0-5.1607-1.0956-2.1561-1.1311-3.3581-3.6409-1.2018-2.5095-1.2018-6.5746z" style="font-variation-settings:'wght' 700" aria-label="Dollar and Sense: The Financial Forecast"/></g></svg>
