<svg xmlns="http://www.w3.org/2000/svg" viewBox="0 0 500 500"><g id="freepik--Floor--inject-16"><ellipse id="freepik--floor--inject-16" cx="250" cy="368.25" rx="240.79" ry="113.49" style="fill:#fafafa"></ellipse></g><g id="freepik--Platform--inject-16"><g id="freepik--Tower--inject-16"><path d="M358.75,331.58a.58.58,0,0,1-.58-.58V265.88a.58.58,0,0,1,1.16,0V331A.58.58,0,0,1,358.75,331.58Z" style="fill:#e0e0e0"></path><path d="M363.45,334.29a.58.58,0,0,1-.58-.58V268.5a.58.58,0,0,1,1.16,0v65.21A.58.58,0,0,1,363.45,334.29Z" style="fill:#e0e0e0"></path><path d="M363.45,331.28a.23.23,0,0,1-.14,0l-4.71-2.72a.28.28,0,0,1-.1-.39.29.29,0,0,1,.39-.11l4.71,2.72a.29.29,0,0,1,.1.4A.29.29,0,0,1,363.45,331.28Z" style="fill:#e0e0e0"></path><path d="M363.45,328.56a.23.23,0,0,1-.14,0l-4.71-2.71a.29.29,0,0,1-.1-.4.27.27,0,0,1,.39-.1L363.6,328a.29.29,0,0,1,.1.4A.29.29,0,0,1,363.45,328.56Z" style="fill:#e0e0e0"></path><path d="M363.45,325.84a.23.23,0,0,1-.14,0l-4.71-2.71a.29.29,0,0,1-.1-.4.27.27,0,0,1,.39-.1l4.71,2.71a.29.29,0,0,1,.1.4A.29.29,0,0,1,363.45,325.84Z" style="fill:#e0e0e0"></path><path d="M363.45,323.13a.33.33,0,0,1-.14,0l-4.71-2.72a.29.29,0,0,1-.1-.4.28.28,0,0,1,.39-.1l4.71,2.72a.28.28,0,0,1,.1.39A.29.29,0,0,1,363.45,323.13Z" style="fill:#e0e0e0"></path><path d="M363.45,320.41a.33.33,0,0,1-.14,0l-4.71-2.72a.28.28,0,0,1-.1-.39.29.29,0,0,1,.39-.11l4.71,2.72a.28.28,0,0,1,.1.39A.29.29,0,0,1,363.45,320.41Z" style="fill:#e0e0e0"></path><path d="M363.45,317.69a.23.23,0,0,1-.14,0l-4.71-2.72a.28.28,0,0,1-.1-.39.29.29,0,0,1,.39-.11l4.71,2.72a.28.28,0,0,1,.1.39A.27.27,0,0,1,363.45,317.69Z" style="fill:#e0e0e0"></path><path d="M363.45,315a.23.23,0,0,1-.14,0l-4.71-2.72a.28.28,0,0,1-.1-.39.29.29,0,0,1,.39-.11l4.71,2.72a.28.28,0,0,1,.1.39A.27.27,0,0,1,363.45,315Z" style="fill:#e0e0e0"></path><path d="M363.45,312.25a.23.23,0,0,1-.14,0l-4.71-2.72a.28.28,0,0,1-.1-.39.29.29,0,0,1,.39-.11l4.71,2.72a.29.29,0,0,1,.1.4A.29.29,0,0,1,363.45,312.25Z" style="fill:#e0e0e0"></path><path d="M363.45,309.53a.23.23,0,0,1-.14,0l-4.71-2.71a.29.29,0,0,1-.1-.4.29.29,0,0,1,.39-.11L363.6,309a.29.29,0,0,1,.1.4A.29.29,0,0,1,363.45,309.53Z" style="fill:#e0e0e0"></path><path d="M363.45,306.81a.23.23,0,0,1-.14,0l-4.71-2.71a.29.29,0,0,1-.1-.4.28.28,0,0,1,.39-.1l4.71,2.71a.29.29,0,0,1,.1.4A.29.29,0,0,1,363.45,306.81Z" style="fill:#e0e0e0"></path><path d="M363.45,304.09a.32.32,0,0,1-.14,0l-4.71-2.72a.29.29,0,0,1-.1-.4.28.28,0,0,1,.39-.1l4.71,2.71a.29.29,0,0,1,.1.4A.29.29,0,0,1,363.45,304.09Z" style="fill:#e0e0e0"></path><path d="M363.45,301.38a.33.33,0,0,1-.14,0l-4.71-2.72a.29.29,0,0,1-.1-.4.28.28,0,0,1,.39-.1l4.71,2.72a.28.28,0,0,1,.1.39A.29.29,0,0,1,363.45,301.38Z" style="fill:#e0e0e0"></path><path d="M363.45,298.66a.23.23,0,0,1-.14,0l-4.71-2.72a.28.28,0,0,1-.1-.39.29.29,0,0,1,.39-.11l4.71,2.72a.28.28,0,0,1,.1.39A.27.27,0,0,1,363.45,298.66Z" style="fill:#e0e0e0"></path><path d="M363.45,295.94a.23.23,0,0,1-.14,0l-4.71-2.72a.28.28,0,0,1-.1-.39.29.29,0,0,1,.39-.11l4.71,2.72a.29.29,0,0,1,.1.4A.29.29,0,0,1,363.45,295.94Z" style="fill:#e0e0e0"></path><path d="M363.45,293.22a.23.23,0,0,1-.14,0l-4.71-2.72a.28.28,0,0,1-.1-.39.29.29,0,0,1,.39-.11l4.71,2.72a.29.29,0,0,1,.1.4A.29.29,0,0,1,363.45,293.22Z" style="fill:#e0e0e0"></path><path d="M363.45,290.5a.23.23,0,0,1-.14,0l-4.71-2.71a.29.29,0,0,1-.1-.4.29.29,0,0,1,.39-.11L363.6,290a.29.29,0,0,1,.1.4A.29.29,0,0,1,363.45,290.5Z" style="fill:#e0e0e0"></path><path d="M363.45,287.78a.23.23,0,0,1-.14,0L358.6,285a.29.29,0,0,1-.1-.4.28.28,0,0,1,.39-.1l4.71,2.71a.29.29,0,0,1,.1.4A.29.29,0,0,1,363.45,287.78Z" style="fill:#e0e0e0"></path><path d="M363.45,285.06a.32.32,0,0,1-.14,0l-4.71-2.72a.29.29,0,0,1-.1-.4.28.28,0,0,1,.39-.1l4.71,2.71a.29.29,0,0,1,.1.4A.29.29,0,0,1,363.45,285.06Z" style="fill:#e0e0e0"></path><path d="M363.45,282.35a.33.33,0,0,1-.14,0l-4.71-2.72a.29.29,0,0,1,.29-.5l4.71,2.72a.28.28,0,0,1,.1.39A.29.29,0,0,1,363.45,282.35Z" style="fill:#e0e0e0"></path><path d="M363.45,279.63a.23.23,0,0,1-.14,0l-4.71-2.72a.28.28,0,0,1-.1-.39.29.29,0,0,1,.39-.11l4.71,2.72a.28.28,0,0,1,.1.39A.27.27,0,0,1,363.45,279.63Z" style="fill:#e0e0e0"></path><path d="M363.45,276.91a.23.23,0,0,1-.14,0l-4.71-2.72a.28.28,0,0,1-.1-.39.29.29,0,0,1,.39-.11l4.71,2.72a.28.28,0,0,1,.1.39A.27.27,0,0,1,363.45,276.91Z" style="fill:#e0e0e0"></path><path d="M363.45,274.19a.23.23,0,0,1-.14,0l-4.71-2.72a.28.28,0,0,1-.1-.39.29.29,0,0,1,.39-.11l4.71,2.72a.29.29,0,0,1,.1.4A.29.29,0,0,1,363.45,274.19Z" style="fill:#e0e0e0"></path><path d="M363.45,271.47a.23.23,0,0,1-.14,0l-4.71-2.71a.29.29,0,0,1-.1-.4.29.29,0,0,1,.39-.11l4.71,2.72a.29.29,0,0,1,.1.4A.29.29,0,0,1,363.45,271.47Z" style="fill:#e0e0e0"></path><path d="M302.27,337a.58.58,0,0,1-.29-1.08l32.94-19a.6.6,0,0,1,.58,0l32.95,19a.58.58,0,0,1-.58,1l-32.66-18.85-32.65,18.85A.51.51,0,0,1,302.27,337Z" style="fill:#e0e0e0"></path><path d="M368.16,271.8a.6.6,0,0,1-.29-.08l-32.66-18.85-32.65,18.85a.58.58,0,0,1-.58-1l32.94-19a.55.55,0,0,1,.58,0l32.95,19a.57.57,0,0,1,.21.79A.59.59,0,0,1,368.16,271.8Z" style="fill:#e0e0e0"></path><polygon points="330.51 337.15 349.32 326.27 349.32 260.36 330.51 271.22 330.51 337.15" style="fill:#ebebeb"></polygon><polygon points="330.51 337.15 316.39 328.93 316.39 263.07 330.51 271.22 330.51 337.15" style="fill:#f5f5f5"></polygon><polygon points="349.32 260.36 335.21 252.2 316.39 263.07 330.51 271.22 349.32 260.36" style="fill:#CE6691"></polygon><g style="opacity:0.30000000000000004"><polygon points="349.32 260.36 335.21 252.2 316.39 263.07 330.51 271.22 349.32 260.36" style="fill:#fff"></polygon></g><path d="M335.22,356a.51.51,0,0,1-.29-.08.57.57,0,0,1-.29-.5V290.24a.57.57,0,0,1,.29-.5l32.94-19a.55.55,0,0,1,.58,0,.57.57,0,0,1,.29.5v65.21a.57.57,0,0,1-.29.5L335.5,356A.48.48,0,0,1,335.22,356Zm.57-65.46v63.88l31.79-18.35V272.22Z" style="fill:#e0e0e0"></path><path d="M335.22,356a.51.51,0,0,1-.29-.08l-32.95-19a.57.57,0,0,1-.29-.5V271.22a.57.57,0,0,1,.29-.5.55.55,0,0,1,.58,0l32.94,19a.57.57,0,0,1,.29.5v65.21a.57.57,0,0,1-.29.5A.48.48,0,0,1,335.22,356ZM302.85,336.1l31.79,18.35V290.57l-31.79-18.35Z" style="fill:#e0e0e0"></path><path d="M335.22,356a.54.54,0,0,1-.22,0,.58.58,0,0,1-.32-.75L367.62,271a.58.58,0,1,1,1.08.42l-32.95,84.23A.56.56,0,0,1,335.22,356Z" style="fill:#e0e0e0"></path><path d="M302.27,337a.51.51,0,0,1-.33-.11.56.56,0,0,1-.14-.8l32.94-46.2a.58.58,0,0,1,.95.68l-32.95,46.19A.57.57,0,0,1,302.27,337Z" style="fill:#e0e0e0"></path><path d="M358.75,266.36a.58.58,0,0,1-.58-.58V200.67a.58.58,0,1,1,1.16,0v65.11A.58.58,0,0,1,358.75,266.36Z" style="fill:#e0e0e0"></path><path d="M363.45,269.08a.58.58,0,0,1-.58-.58V203.29a.58.58,0,0,1,1.16,0V268.5A.58.58,0,0,1,363.45,269.08Z" style="fill:#e0e0e0"></path><path d="M363.45,266.07a.23.23,0,0,1-.14,0l-4.71-2.72a.28.28,0,0,1-.1-.39.29.29,0,0,1,.39-.11l4.71,2.72a.28.28,0,0,1,.1.39A.27.27,0,0,1,363.45,266.07Z" style="fill:#e0e0e0"></path><path d="M363.45,263.35a.23.23,0,0,1-.14,0l-4.71-2.72a.28.28,0,0,1-.1-.39.29.29,0,0,1,.39-.11l4.71,2.72a.28.28,0,0,1,.1.39A.27.27,0,0,1,363.45,263.35Z" style="fill:#e0e0e0"></path><path d="M363.45,260.63a.23.23,0,0,1-.14,0l-4.71-2.72a.28.28,0,0,1-.1-.39.29.29,0,0,1,.39-.11l4.71,2.72a.29.29,0,0,1,.1.4A.29.29,0,0,1,363.45,260.63Z" style="fill:#e0e0e0"></path><path d="M363.45,257.91a.23.23,0,0,1-.14,0l-4.71-2.71a.29.29,0,0,1-.1-.4.29.29,0,0,1,.39-.11l4.71,2.72a.29.29,0,0,1,.1.4A.29.29,0,0,1,363.45,257.91Z" style="fill:#e0e0e0"></path><path d="M363.45,255.19a.32.32,0,0,1-.14,0l-4.71-2.72a.29.29,0,0,1-.1-.4.27.27,0,0,1,.39-.1l4.71,2.71a.29.29,0,0,1,.1.4A.29.29,0,0,1,363.45,255.19Z" style="fill:#e0e0e0"></path><path d="M363.45,252.48a.33.33,0,0,1-.14,0l-4.71-2.72a.29.29,0,0,1-.1-.4.28.28,0,0,1,.39-.1l4.71,2.71a.3.3,0,0,1-.15.55Z" style="fill:#e0e0e0"></path><path d="M363.45,249.76a.33.33,0,0,1-.14,0L358.6,247a.29.29,0,0,1-.1-.4.28.28,0,0,1,.39-.1l4.71,2.72a.28.28,0,0,1,.1.39A.29.29,0,0,1,363.45,249.76Z" style="fill:#e0e0e0"></path><path d="M363.45,247a.23.23,0,0,1-.14,0l-4.71-2.72a.28.28,0,0,1-.1-.39.29.29,0,0,1,.39-.11l4.71,2.72a.28.28,0,0,1,.1.39A.27.27,0,0,1,363.45,247Z" style="fill:#e0e0e0"></path><path d="M363.45,244.32a.23.23,0,0,1-.14,0l-4.71-2.72a.28.28,0,0,1-.1-.39.29.29,0,0,1,.39-.11l4.71,2.72a.28.28,0,0,1,.1.39A.27.27,0,0,1,363.45,244.32Z" style="fill:#e0e0e0"></path><path d="M363.45,241.6a.23.23,0,0,1-.14,0l-4.71-2.72a.28.28,0,0,1-.1-.39.29.29,0,0,1,.39-.11l4.71,2.72a.29.29,0,0,1,.1.4A.29.29,0,0,1,363.45,241.6Z" style="fill:#e0e0e0"></path><path d="M363.45,238.88a.23.23,0,0,1-.14,0l-4.71-2.71a.29.29,0,0,1-.1-.4.29.29,0,0,1,.39-.11l4.71,2.72a.29.29,0,0,1,.1.4A.29.29,0,0,1,363.45,238.88Z" style="fill:#e0e0e0"></path><path d="M363.45,236.16a.23.23,0,0,1-.14,0l-4.71-2.71a.29.29,0,0,1-.1-.4.28.28,0,0,1,.39-.1l4.71,2.71a.29.29,0,0,1,.1.4A.29.29,0,0,1,363.45,236.16Z" style="fill:#e0e0e0"></path><path d="M363.45,233.45a.33.33,0,0,1-.14,0l-4.71-2.72a.29.29,0,0,1-.1-.4.28.28,0,0,1,.39-.1l4.71,2.71a.3.3,0,0,1-.15.55Z" style="fill:#e0e0e0"></path><path d="M363.45,230.73a.33.33,0,0,1-.14,0L358.6,228a.29.29,0,0,1-.1-.4.28.28,0,0,1,.39-.1l4.71,2.72a.28.28,0,0,1,.1.39A.29.29,0,0,1,363.45,230.73Z" style="fill:#e0e0e0"></path><path d="M363.45,228a.33.33,0,0,1-.14,0l-4.71-2.72a.28.28,0,0,1-.1-.39.29.29,0,0,1,.39-.11l4.71,2.72a.28.28,0,0,1,.1.39A.29.29,0,0,1,363.45,228Z" style="fill:#e0e0e0"></path><path d="M363.45,225.29a.23.23,0,0,1-.14,0l-4.71-2.72a.28.28,0,0,1-.1-.39.29.29,0,0,1,.39-.11l4.71,2.72a.28.28,0,0,1,.1.39A.27.27,0,0,1,363.45,225.29Z" style="fill:#e0e0e0"></path><path d="M363.45,222.57a.23.23,0,0,1-.14,0l-4.71-2.72a.28.28,0,0,1-.1-.39.29.29,0,0,1,.39-.11L363.6,222a.29.29,0,0,1,.1.4A.29.29,0,0,1,363.45,222.57Z" style="fill:#e0e0e0"></path><path d="M363.45,219.85a.23.23,0,0,1-.14,0l-4.71-2.71a.29.29,0,0,1-.1-.4.29.29,0,0,1,.39-.11l4.71,2.72a.29.29,0,0,1,.1.4A.29.29,0,0,1,363.45,219.85Z" style="fill:#e0e0e0"></path><path d="M363.45,217.13a.23.23,0,0,1-.14,0l-4.71-2.71a.29.29,0,0,1-.1-.4.27.27,0,0,1,.39-.1l4.71,2.71a.29.29,0,0,1,.1.4A.29.29,0,0,1,363.45,217.13Z" style="fill:#e0e0e0"></path><path d="M363.45,214.41a.32.32,0,0,1-.14,0l-4.71-2.72a.29.29,0,0,1-.1-.4.28.28,0,0,1,.39-.1l4.71,2.71a.29.29,0,0,1,.1.4A.29.29,0,0,1,363.45,214.41Z" style="fill:#e0e0e0"></path><path d="M363.45,211.7a.33.33,0,0,1-.14,0l-4.71-2.72a.29.29,0,0,1,.29-.5l4.71,2.72a.28.28,0,0,1,.1.39A.29.29,0,0,1,363.45,211.7Z" style="fill:#e0e0e0"></path><path d="M363.45,209a.23.23,0,0,1-.14,0l-4.71-2.72a.28.28,0,0,1-.1-.39.29.29,0,0,1,.39-.11l4.71,2.72a.28.28,0,0,1,.1.39A.27.27,0,0,1,363.45,209Z" style="fill:#e0e0e0"></path><path d="M363.45,206.26a.23.23,0,0,1-.14,0l-4.71-2.72a.28.28,0,0,1-.1-.39.29.29,0,0,1,.39-.11l4.71,2.72a.28.28,0,0,1,.1.39A.27.27,0,0,1,363.45,206.26Z" style="fill:#e0e0e0"></path><path d="M368.16,271.8a.6.6,0,0,1-.29-.08l-32.66-18.85-32.65,18.85a.58.58,0,0,1-.58-1l32.94-19a.55.55,0,0,1,.58,0l32.95,19a.57.57,0,0,1,.21.79A.59.59,0,0,1,368.16,271.8Z" style="fill:#e0e0e0"></path><path d="M302.27,206.59a.59.59,0,0,1-.5-.29.59.59,0,0,1,.21-.8l32.94-19a.6.6,0,0,1,.58,0l32.95,19a.59.59,0,0,1,.21.8.59.59,0,0,1-.79.21l-32.66-18.86-32.65,18.86A.6.6,0,0,1,302.27,206.59Z" style="fill:#e0e0e0"></path><polygon points="330.51 271.94 349.32 261.06 349.32 195.15 330.51 206.01 330.51 271.94" style="fill:#ebebeb"></polygon><polygon points="330.51 271.94 316.39 263.72 316.39 197.85 330.51 206.01 330.51 271.94" style="fill:#f5f5f5"></polygon><polygon points="349.32 195.15 335.21 186.99 316.39 197.85 330.51 206.01 349.32 195.15" style="fill:#CE6691"></polygon><g style="opacity:0.30000000000000004"><polygon points="349.32 195.15 335.21 186.99 316.39 197.85 330.51 206.01 349.32 195.15" style="fill:#fff"></polygon></g><path d="M335.22,290.82a.6.6,0,0,1-.29-.08.57.57,0,0,1-.29-.5V225a.6.6,0,0,1,.29-.51l32.94-19a.58.58,0,0,1,.87.51v65.21a.57.57,0,0,1-.29.5l-32.95,19A.57.57,0,0,1,335.22,290.82Zm.57-65.46v63.88l31.79-18.36V207Z" style="fill:#e0e0e0"></path><path d="M335.22,290.82a.6.6,0,0,1-.29-.08l-32.95-19a.57.57,0,0,1-.29-.5V206a.58.58,0,0,1,.87-.51l32.94,19a.6.6,0,0,1,.29.51v65.21a.59.59,0,0,1-.57.58Zm-32.37-19.94,31.79,18.36V225.36L302.85,207Z" style="fill:#e0e0e0"></path><path d="M335.22,290.82a.54.54,0,0,1-.22,0,.58.58,0,0,1-.32-.75l32.94-84.23a.58.58,0,1,1,1.08.42l-32.95,84.23A.56.56,0,0,1,335.22,290.82Z" style="fill:#e0e0e0"></path><path d="M302.27,271.8a.59.59,0,0,1-.47-.92l32.94-46.19a.58.58,0,0,1,.95.67l-32.95,46.19A.57.57,0,0,1,302.27,271.8Z" style="fill:#e0e0e0"></path><path d="M358.75,201.15a.58.58,0,0,1-.58-.58V135.46a.58.58,0,0,1,1.16,0v65.11A.58.58,0,0,1,358.75,201.15Z" style="fill:#e0e0e0"></path><path d="M363.45,203.87a.58.58,0,0,1-.58-.58V138.08a.58.58,0,0,1,1.16,0v65.21A.58.58,0,0,1,363.45,203.87Z" style="fill:#e0e0e0"></path><path d="M363.45,200.85a.32.32,0,0,1-.14,0l-4.71-2.72a.29.29,0,0,1-.1-.4.28.28,0,0,1,.39-.1l4.71,2.71a.29.29,0,0,1,.1.4A.29.29,0,0,1,363.45,200.85Z" style="fill:#e0e0e0"></path><path d="M363.45,198.14a.33.33,0,0,1-.14,0l-4.71-2.72a.29.29,0,0,1-.1-.4.28.28,0,0,1,.39-.1l4.71,2.72a.28.28,0,0,1,.1.39A.29.29,0,0,1,363.45,198.14Z" style="fill:#e0e0e0"></path><path d="M363.45,195.42a.23.23,0,0,1-.14,0l-4.71-2.72a.28.28,0,0,1-.1-.39.29.29,0,0,1,.39-.11l4.71,2.72a.28.28,0,0,1,.1.39A.29.29,0,0,1,363.45,195.42Z" style="fill:#e0e0e0"></path><path d="M363.45,192.7a.23.23,0,0,1-.14,0l-4.71-2.72a.28.28,0,0,1-.1-.39.29.29,0,0,1,.39-.11l4.71,2.72a.28.28,0,0,1,.1.39A.27.27,0,0,1,363.45,192.7Z" style="fill:#e0e0e0"></path><path d="M363.45,190a.23.23,0,0,1-.14,0l-4.71-2.72a.28.28,0,0,1-.1-.39.29.29,0,0,1,.39-.11l4.71,2.72a.29.29,0,0,1,.1.4A.29.29,0,0,1,363.45,190Z" style="fill:#e0e0e0"></path><path d="M363.45,187.26a.23.23,0,0,1-.14,0l-4.71-2.71a.29.29,0,0,1-.1-.4.29.29,0,0,1,.39-.11l4.71,2.72a.29.29,0,0,1,.1.4A.29.29,0,0,1,363.45,187.26Z" style="fill:#e0e0e0"></path><path d="M363.45,184.54a.23.23,0,0,1-.14,0l-4.71-2.71a.29.29,0,0,1-.1-.4.27.27,0,0,1,.39-.1L363.6,184a.29.29,0,0,1,.1.4A.29.29,0,0,1,363.45,184.54Z" style="fill:#e0e0e0"></path><path d="M363.45,181.82a.32.32,0,0,1-.14,0l-4.71-2.72a.29.29,0,0,1-.1-.4.28.28,0,0,1,.39-.1l4.71,2.71a.29.29,0,0,1,.1.4A.29.29,0,0,1,363.45,181.82Z" style="fill:#e0e0e0"></path><path d="M363.45,179.11a.33.33,0,0,1-.14,0l-4.71-2.72a.29.29,0,0,1-.1-.4.28.28,0,0,1,.39-.1l4.71,2.72a.28.28,0,0,1,.1.39A.29.29,0,0,1,363.45,179.11Z" style="fill:#e0e0e0"></path><path d="M363.45,176.39a.23.23,0,0,1-.14,0l-4.71-2.72a.28.28,0,0,1-.1-.39.29.29,0,0,1,.39-.11l4.71,2.72a.28.28,0,0,1,.1.39A.27.27,0,0,1,363.45,176.39Z" style="fill:#e0e0e0"></path><path d="M363.45,173.67a.23.23,0,0,1-.14,0l-4.71-2.72a.28.28,0,0,1-.1-.39.29.29,0,0,1,.39-.11l4.71,2.72a.28.28,0,0,1,.1.39A.27.27,0,0,1,363.45,173.67Z" style="fill:#e0e0e0"></path><path d="M363.45,171a.23.23,0,0,1-.14,0l-4.71-2.72a.28.28,0,0,1-.1-.39.29.29,0,0,1,.39-.11l4.71,2.72a.29.29,0,0,1,.1.4A.29.29,0,0,1,363.45,171Z" style="fill:#e0e0e0"></path><path d="M363.45,168.23a.23.23,0,0,1-.14,0l-4.71-2.71a.29.29,0,0,1-.1-.4.29.29,0,0,1,.39-.11l4.71,2.72a.29.29,0,0,1,.1.4A.29.29,0,0,1,363.45,168.23Z" style="fill:#e0e0e0"></path><path d="M363.45,165.51a.23.23,0,0,1-.14,0l-4.71-2.71a.29.29,0,0,1-.1-.4.28.28,0,0,1,.39-.1L363.6,165a.29.29,0,0,1,.1.4A.29.29,0,0,1,363.45,165.51Z" style="fill:#e0e0e0"></path><path d="M363.45,162.79a.32.32,0,0,1-.14,0L358.6,160a.29.29,0,0,1-.1-.4.27.27,0,0,1,.39-.1l4.71,2.71a.29.29,0,0,1,.1.4A.29.29,0,0,1,363.45,162.79Z" style="fill:#e0e0e0"></path><path d="M363.45,160.08a.33.33,0,0,1-.14,0l-4.71-2.72a.29.29,0,0,1,.29-.5l4.71,2.72a.28.28,0,0,1,.1.39A.29.29,0,0,1,363.45,160.08Z" style="fill:#e0e0e0"></path><path d="M363.45,157.36a.33.33,0,0,1-.14,0l-4.71-2.72a.28.28,0,0,1-.1-.39.29.29,0,0,1,.39-.11l4.71,2.72a.28.28,0,0,1,.1.39A.29.29,0,0,1,363.45,157.36Z" style="fill:#e0e0e0"></path><path d="M363.45,154.64a.23.23,0,0,1-.14,0l-4.71-2.72a.28.28,0,0,1-.1-.39.29.29,0,0,1,.39-.11l4.71,2.72a.28.28,0,0,1,.1.39A.27.27,0,0,1,363.45,154.64Z" style="fill:#e0e0e0"></path><path d="M363.45,151.92a.23.23,0,0,1-.14,0l-4.71-2.72a.28.28,0,0,1-.1-.39.29.29,0,0,1,.39-.11l4.71,2.72a.28.28,0,0,1,.1.39A.27.27,0,0,1,363.45,151.92Z" style="fill:#e0e0e0"></path><path d="M363.45,149.2a.23.23,0,0,1-.14,0l-4.71-2.72a.28.28,0,0,1-.1-.39.29.29,0,0,1,.39-.11l4.71,2.72a.29.29,0,0,1,.1.4A.29.29,0,0,1,363.45,149.2Z" style="fill:#e0e0e0"></path><path d="M363.45,146.48a.23.23,0,0,1-.14,0l-4.71-2.71a.29.29,0,0,1-.1-.4.27.27,0,0,1,.39-.1l4.71,2.71a.29.29,0,0,1,.1.4A.29.29,0,0,1,363.45,146.48Z" style="fill:#e0e0e0"></path><path d="M363.45,143.76a.23.23,0,0,1-.14,0L358.6,141a.29.29,0,0,1-.1-.4.28.28,0,0,1,.39-.1l4.71,2.71a.29.29,0,0,1,.1.4A.29.29,0,0,1,363.45,143.76Z" style="fill:#e0e0e0"></path><path d="M363.45,141.05a.33.33,0,0,1-.14,0l-4.71-2.72a.29.29,0,0,1-.1-.4.28.28,0,0,1,.39-.1l4.71,2.72a.28.28,0,0,1,.1.39A.29.29,0,0,1,363.45,141.05Z" style="fill:#e0e0e0"></path><path d="M302.27,206.59a.59.59,0,0,1-.5-.29.59.59,0,0,1,.21-.8l32.94-19a.6.6,0,0,1,.58,0l32.95,19a.59.59,0,0,1,.21.8.59.59,0,0,1-.79.21l-32.66-18.86-32.65,18.86A.6.6,0,0,1,302.27,206.59Z" style="fill:#e0e0e0"></path><path d="M302.27,141.37a.58.58,0,0,1-.29-1.08l32.94-19a.6.6,0,0,1,.58,0l32.95,19a.58.58,0,0,1-.58,1l-32.66-18.85-32.65,18.85A.51.51,0,0,1,302.27,141.37Z" style="fill:#e0e0e0"></path><polygon points="330.51 206.72 349.32 195.84 349.32 129.93 330.51 140.79 330.51 206.72" style="fill:#ebebeb"></polygon><polygon points="330.51 206.72 316.39 198.51 316.39 132.64 330.51 140.79 330.51 206.72" style="fill:#f5f5f5"></polygon><polygon points="349.32 129.93 335.21 121.77 316.39 132.64 330.51 140.79 349.32 129.93" style="fill:#CE6691"></polygon><g style="opacity:0.30000000000000004"><polygon points="349.32 129.93 335.21 121.77 316.39 132.64 330.51 140.79 349.32 129.93" style="fill:#fff"></polygon></g><path d="M335.22,225.61a.6.6,0,0,1-.29-.08.59.59,0,0,1-.29-.5V159.81a.59.59,0,0,1,.29-.5l32.94-19a.6.6,0,0,1,.58,0,.58.58,0,0,1,.29.5V206a.59.59,0,0,1-.29.5l-32.95,19A.57.57,0,0,1,335.22,225.61Zm.57-65.46V224l31.79-18.35V141.8Z" style="fill:#e0e0e0"></path><path d="M335.22,225.61a.6.6,0,0,1-.29-.08l-32.95-19a.59.59,0,0,1-.29-.5V140.79a.58.58,0,0,1,.29-.5.6.6,0,0,1,.58,0l32.94,19a.59.59,0,0,1,.29.5V225a.59.59,0,0,1-.29.5A.57.57,0,0,1,335.22,225.61Zm-32.37-19.94L334.64,224V160.15L302.85,141.8Z" style="fill:#e0e0e0"></path><path d="M335.22,225.61a.78.78,0,0,1-.22,0,.58.58,0,0,1-.32-.75l32.94-84.24a.58.58,0,1,1,1.08.42l-32.95,84.24A.56.56,0,0,1,335.22,225.61Z" style="fill:#e0e0e0"></path><path d="M302.27,206.59a.59.59,0,0,1-.47-.92l32.94-46.19a.58.58,0,0,1,.81-.14.59.59,0,0,1,.14.81l-32.95,46.19A.57.57,0,0,1,302.27,206.59Z" style="fill:#e0e0e0"></path><path d="M358.75,135.94a.58.58,0,0,1-.58-.58V70.24a.58.58,0,1,1,1.16,0v65.12A.58.58,0,0,1,358.75,135.94Z" style="fill:#e0e0e0"></path><path d="M363.45,138.66a.58.58,0,0,1-.58-.58V72.86a.58.58,0,0,1,1.16,0v65.22A.58.58,0,0,1,363.45,138.66Z" style="fill:#e0e0e0"></path><path d="M363.45,135.64a.23.23,0,0,1-.14,0l-4.71-2.72a.28.28,0,0,1-.1-.39.29.29,0,0,1,.39-.11l4.71,2.72a.29.29,0,0,1,.1.4A.29.29,0,0,1,363.45,135.64Z" style="fill:#e0e0e0"></path><path d="M363.45,132.92a.23.23,0,0,1-.14,0l-4.71-2.71a.29.29,0,0,1-.1-.4.27.27,0,0,1,.39-.1l4.71,2.71a.29.29,0,0,1,.1.4A.29.29,0,0,1,363.45,132.92Z" style="fill:#e0e0e0"></path><path d="M363.45,130.2a.32.32,0,0,1-.14,0l-4.71-2.72a.29.29,0,0,1-.1-.4.28.28,0,0,1,.39-.1l4.71,2.71a.29.29,0,0,1,.1.4A.29.29,0,0,1,363.45,130.2Z" style="fill:#e0e0e0"></path><path d="M363.45,127.49a.33.33,0,0,1-.14,0l-4.71-2.72a.29.29,0,0,1-.1-.4.28.28,0,0,1,.39-.1L363.6,127a.28.28,0,0,1,.1.39A.29.29,0,0,1,363.45,127.49Z" style="fill:#e0e0e0"></path><path d="M363.45,124.77a.33.33,0,0,1-.14,0L358.6,122a.28.28,0,0,1-.1-.39.29.29,0,0,1,.39-.11l4.71,2.72a.28.28,0,0,1,.1.39A.29.29,0,0,1,363.45,124.77Z" style="fill:#e0e0e0"></path><path d="M363.45,122.05a.23.23,0,0,1-.14,0l-4.71-2.72a.28.28,0,0,1-.1-.39.29.29,0,0,1,.39-.11l4.71,2.72a.28.28,0,0,1,.1.39A.27.27,0,0,1,363.45,122.05Z" style="fill:#e0e0e0"></path><path d="M363.45,119.33a.23.23,0,0,1-.14,0l-4.71-2.72a.28.28,0,0,1-.1-.39.29.29,0,0,1,.39-.11l4.71,2.72a.28.28,0,0,1,.1.39A.27.27,0,0,1,363.45,119.33Z" style="fill:#e0e0e0"></path><path d="M363.45,116.61a.23.23,0,0,1-.14,0l-4.71-2.71a.29.29,0,0,1-.1-.4.29.29,0,0,1,.39-.11l4.71,2.72a.29.29,0,0,1,.1.4A.29.29,0,0,1,363.45,116.61Z" style="fill:#e0e0e0"></path><path d="M363.45,113.89a.23.23,0,0,1-.14,0l-4.71-2.71a.29.29,0,0,1-.1-.4.29.29,0,0,1,.39-.11l4.71,2.72a.29.29,0,0,1,.1.4A.29.29,0,0,1,363.45,113.89Z" style="fill:#e0e0e0"></path><path d="M363.45,111.17a.32.32,0,0,1-.14,0l-4.71-2.72a.29.29,0,0,1-.1-.4.28.28,0,0,1,.39-.1l4.71,2.71a.29.29,0,0,1,.1.4A.29.29,0,0,1,363.45,111.17Z" style="fill:#e0e0e0"></path><path d="M363.45,108.46a.33.33,0,0,1-.14,0l-4.71-2.72a.29.29,0,0,1-.1-.4.28.28,0,0,1,.39-.1l4.71,2.72a.28.28,0,0,1,.1.39A.29.29,0,0,1,363.45,108.46Z" style="fill:#e0e0e0"></path><path d="M363.45,105.74a.33.33,0,0,1-.14,0L358.6,103a.28.28,0,0,1-.1-.39.29.29,0,0,1,.39-.11l4.71,2.72a.28.28,0,0,1,.1.39A.29.29,0,0,1,363.45,105.74Z" style="fill:#e0e0e0"></path><path d="M363.45,103a.23.23,0,0,1-.14,0l-4.71-2.72a.28.28,0,0,1-.1-.39.29.29,0,0,1,.39-.11l4.71,2.72a.28.28,0,0,1,.1.39A.27.27,0,0,1,363.45,103Z" style="fill:#e0e0e0"></path><path d="M363.45,100.3a.23.23,0,0,1-.14,0l-4.71-2.72a.28.28,0,0,1-.1-.39.29.29,0,0,1,.39-.11l4.71,2.72a.29.29,0,0,1,.1.4A.29.29,0,0,1,363.45,100.3Z" style="fill:#e0e0e0"></path><path d="M363.45,97.58a.23.23,0,0,1-.14,0l-4.71-2.71a.29.29,0,0,1-.1-.4.29.29,0,0,1,.39-.11L363.6,97a.29.29,0,0,1,.1.4A.29.29,0,0,1,363.45,97.58Z" style="fill:#e0e0e0"></path><path d="M363.45,94.86a.23.23,0,0,1-.14,0l-4.71-2.71a.29.29,0,0,1-.1-.4.29.29,0,0,1,.39-.11l4.71,2.72a.29.29,0,0,1,.1.4A.29.29,0,0,1,363.45,94.86Z" style="fill:#e0e0e0"></path><path d="M363.45,92.14a.32.32,0,0,1-.14,0l-4.71-2.72a.29.29,0,0,1-.1-.4.27.27,0,0,1,.39-.1l4.71,2.71a.29.29,0,0,1,.1.4A.29.29,0,0,1,363.45,92.14Z" style="fill:#e0e0e0"></path><path d="M363.45,89.43a.33.33,0,0,1-.14,0l-4.71-2.72a.29.29,0,0,1,.29-.5l4.71,2.71a.3.3,0,0,1-.15.55Z" style="fill:#e0e0e0"></path><path d="M363.45,86.71a.33.33,0,0,1-.14,0L358.6,84a.29.29,0,0,1-.1-.4.28.28,0,0,1,.39-.1l4.71,2.72a.28.28,0,0,1,.1.39A.29.29,0,0,1,363.45,86.71Z" style="fill:#e0e0e0"></path><path d="M363.45,84a.23.23,0,0,1-.14,0l-4.71-2.72a.28.28,0,0,1-.1-.39.29.29,0,0,1,.39-.11l4.71,2.72a.28.28,0,0,1,.1.39A.27.27,0,0,1,363.45,84Z" style="fill:#e0e0e0"></path><path d="M363.45,81.27a.23.23,0,0,1-.14,0l-4.71-2.72a.28.28,0,0,1-.1-.39.29.29,0,0,1,.39-.11l4.71,2.72a.28.28,0,0,1,.1.39A.27.27,0,0,1,363.45,81.27Z" style="fill:#e0e0e0"></path><path d="M363.45,78.55a.23.23,0,0,1-.14,0l-4.71-2.72a.28.28,0,0,1-.1-.39.29.29,0,0,1,.39-.11L363.6,78a.29.29,0,0,1,.1.4A.29.29,0,0,1,363.45,78.55Z" style="fill:#e0e0e0"></path><path d="M363.45,75.83a.23.23,0,0,1-.14,0l-4.71-2.71a.29.29,0,0,1-.1-.4.27.27,0,0,1,.39-.1l4.71,2.71a.29.29,0,0,1,.1.4A.29.29,0,0,1,363.45,75.83Z" style="fill:#e0e0e0"></path><path d="M302.27,141.37a.58.58,0,0,1-.29-1.08l32.94-19a.6.6,0,0,1,.58,0l32.95,19a.58.58,0,0,1-.58,1l-32.66-18.85-32.65,18.85A.51.51,0,0,1,302.27,141.37Z" style="fill:#e0e0e0"></path><path d="M302.27,76.16a.58.58,0,0,1-.29-1.08l32.94-19a.55.55,0,0,1,.58,0l32.95,19a.58.58,0,0,1-.58,1L335.21,57.23,302.56,76.08A.6.6,0,0,1,302.27,76.16Z" style="fill:#e0e0e0"></path><polygon points="330.51 141.51 349.32 130.63 349.32 64.72 330.51 75.58 330.51 141.51" style="fill:#ebebeb"></polygon><polygon points="330.51 141.51 316.39 133.29 316.39 67.43 330.51 75.58 330.51 141.51" style="fill:#f5f5f5"></polygon><polygon points="349.32 64.72 335.21 56.56 316.39 67.43 330.51 75.58 349.32 64.72" style="fill:#e0e0e0"></polygon><path d="M335.22,160.39a.56.56,0,0,1-.58-.58V94.6a.57.57,0,0,1,.29-.5l32.94-19a.55.55,0,0,1,.58,0,.57.57,0,0,1,.29.5v65.21a.57.57,0,0,1-.29.5l-32.95,19A.55.55,0,0,1,335.22,160.39Zm.57-65.46v63.88l31.79-18.35V76.58Z" style="fill:#e0e0e0"></path><path d="M335.22,160.39a.59.59,0,0,1-.29-.07l-32.95-19a.57.57,0,0,1-.29-.5V75.58a.57.57,0,0,1,.29-.5.55.55,0,0,1,.58,0l32.94,19a.57.57,0,0,1,.29.5v65.21a.6.6,0,0,1-.29.51A.55.55,0,0,1,335.22,160.39Zm-32.37-19.93,31.79,18.35V94.93L302.85,76.58Z" style="fill:#e0e0e0"></path><path d="M335.22,160.39a.54.54,0,0,1-.22,0,.58.58,0,0,1-.32-.75l32.94-84.23a.58.58,0,1,1,1.08.42L335.75,160A.56.56,0,0,1,335.22,160.39Z" style="fill:#e0e0e0"></path><path d="M302.27,141.37a.56.56,0,0,1-.33-.1.57.57,0,0,1-.14-.81l32.94-46.2a.58.58,0,0,1,.95.68l-32.95,46.19A.57.57,0,0,1,302.27,141.37Z" style="fill:#e0e0e0"></path><polygon points="325.8 143.51 325.8 132.64 321.08 129.93 321.1 140.79 325.8 143.51" style="fill:#e0e0e0"></polygon><g style="opacity:0.15"><polygon points="325.8 143.51 325.8 132.64 321.08 129.93 321.1 140.79 325.8 143.51"></polygon></g><path d="M316.39,149.23a.32.32,0,0,1-.14,0,.29.29,0,0,1-.15-.26V138.08a.27.27,0,0,1,.14-.25l9.42-5.44a.3.3,0,0,1,.29,0,.29.29,0,0,1,.14.25v10.87a.29.29,0,0,1-.14.25l-9.42,5.44A.32.32,0,0,1,316.39,149.23Zm.29-11v10.2l8.83-5.1v-10.2Z" style="fill:#e0e0e0"></path><path d="M311.67,146.53a.3.3,0,0,1-.29-.24.29.29,0,0,1,.23-.34l14.14-2.72a.29.29,0,0,1,.34.23.31.31,0,0,1-.23.34l-14.14,2.72Z" style="fill:#e0e0e0"></path><path d="M302.27,152a.28.28,0,0,1-.28-.23.29.29,0,0,1,.23-.34l14.13-2.73a.29.29,0,1,1,.11.57L302.33,152Z" style="fill:#e0e0e0"></path><path d="M292.87,157.4a.3.3,0,0,1-.28-.24.29.29,0,0,1,.23-.34L307,154.09a.31.31,0,0,1,.34.23.29.29,0,0,1-.23.34l-14.14,2.73Z" style="fill:#e0e0e0"></path><path d="M283.48,162.83a.29.29,0,0,1-.05-.57l14.13-2.73a.29.29,0,1,1,.11.57l-14.14,2.73Z" style="fill:#e0e0e0"></path><path d="M274.08,168.26a.29.29,0,0,1-.05-.57L288.16,165a.29.29,0,1,1,.11.57l-14.13,2.73Z" style="fill:#e0e0e0"></path><path d="M264.69,173.7a.28.28,0,0,1-.28-.24.28.28,0,0,1,.23-.34l14.13-2.72a.29.29,0,0,1,.34.23.3.3,0,0,1-.23.34l-14.14,2.72Z" style="fill:#e0e0e0"></path><path d="M325.8,143.8a.23.23,0,0,1-.14,0l-9.42-5.43a.29.29,0,0,1-.1-.4.27.27,0,0,1,.39-.1l9.42,5.43a.3.3,0,0,1,.1.4A.29.29,0,0,1,325.8,143.8Z" style="fill:#e0e0e0"></path><path d="M316.39,149.23a.32.32,0,0,1-.14,0,.29.29,0,0,1-.11-.4l9.41-16.3a.29.29,0,0,1,.4-.11.3.3,0,0,1,.1.4l-9.41,16.3A.29.29,0,0,1,316.39,149.23Z" style="fill:#e0e0e0"></path><path d="M307,154.67a.28.28,0,0,1-.15,0,.29.29,0,0,1-.14-.25V143.51a.29.29,0,0,1,.14-.25l9.41-5.43a.26.26,0,0,1,.29,0,.28.28,0,0,1,.15.25v10.86a.31.31,0,0,1-.15.26l-9.41,5.43A.23.23,0,0,1,307,154.67Zm.28-11v10.2l8.83-5.1v-10.2Z" style="fill:#e0e0e0"></path><path d="M316.39,149.23a.4.4,0,0,1-.15,0l-9.41-5.44a.29.29,0,0,1-.11-.39.3.3,0,0,1,.4-.11l9.41,5.43a.29.29,0,0,1,.11.4A.3.3,0,0,1,316.39,149.23Z" style="fill:#e0e0e0"></path><path d="M307,154.67a.28.28,0,0,1-.15,0,.29.29,0,0,1-.1-.4l9.41-16.3a.27.27,0,0,1,.39-.1.28.28,0,0,1,.11.39l-9.41,16.3A.29.29,0,0,1,307,154.67Z" style="fill:#e0e0e0"></path><path d="M297.56,160.1a.32.32,0,0,1-.14,0,.31.31,0,0,1-.15-.25V149a.28.28,0,0,1,.15-.25l9.41-5.44a.3.3,0,0,1,.29,0,.29.29,0,0,1,.14.25v10.87a.29.29,0,0,1-.14.25l-9.41,5.44A.4.4,0,0,1,297.56,160.1Zm.29-11v10.2l8.84-5.1V144Z" style="fill:#e0e0e0"></path><path d="M307,154.67a.28.28,0,0,1-.15,0l-9.41-5.43a.29.29,0,0,1-.11-.4.28.28,0,0,1,.4-.1l9.41,5.43a.29.29,0,0,1,.11.4A.3.3,0,0,1,307,154.67Z" style="fill:#e0e0e0"></path><path d="M297.56,160.1a.35.35,0,0,1-.14,0,.29.29,0,0,1-.11-.4l9.41-16.3a.29.29,0,1,1,.51.29L297.82,160A.31.31,0,0,1,297.56,160.1Z" style="fill:#e0e0e0"></path><path d="M288.15,165.54a.23.23,0,0,1-.14,0,.29.29,0,0,1-.15-.25V154.38a.29.29,0,0,1,.15-.25l9.41-5.43a.26.26,0,0,1,.29,0,.27.27,0,0,1,.14.25v10.87a.3.3,0,0,1-.14.25l-9.41,5.43A.28.28,0,0,1,288.15,165.54Zm.29-11v10.2l8.83-5.1v-10.2Z" style="fill:#e0e0e0"></path><path d="M297.56,160.1a.32.32,0,0,1-.14,0L288,154.63a.29.29,0,1,1,.28-.5l9.42,5.43a.29.29,0,0,1,.1.4A.29.29,0,0,1,297.56,160.1Z" style="fill:#e0e0e0"></path><path d="M288.15,165.54a.23.23,0,0,1-.14,0,.29.29,0,0,1-.11-.4l9.41-16.3a.28.28,0,0,1,.4-.1.28.28,0,0,1,.1.39l-9.41,16.3A.27.27,0,0,1,288.15,165.54Z" style="fill:#e0e0e0"></path><path d="M278.74,171a.4.4,0,0,1-.15,0,.3.3,0,0,1-.14-.25V159.82a.27.27,0,0,1,.14-.25l9.42-5.44a.28.28,0,0,1,.28,0,.27.27,0,0,1,.15.25v10.87a.27.27,0,0,1-.15.25l-9.41,5.44A.32.32,0,0,1,278.74,171Zm.29-11v10.2l8.83-5.1v-10.2Z" style="fill:#e0e0e0"></path><path d="M288.15,165.54a.23.23,0,0,1-.14,0l-9.42-5.43a.29.29,0,0,1-.1-.4.27.27,0,0,1,.39-.1l9.41,5.43a.29.29,0,0,1,.11.4A.29.29,0,0,1,288.15,165.54Z" style="fill:#e0e0e0"></path><path d="M278.74,171a.4.4,0,0,1-.15,0,.3.3,0,0,1-.1-.4l9.41-16.3a.28.28,0,0,1,.39-.11.29.29,0,0,1,.11.4L279,170.83A.29.29,0,0,1,278.74,171Z" style="fill:#e0e0e0"></path><path d="M269.33,176.41a.28.28,0,0,1-.15,0,.29.29,0,0,1-.14-.25V165.25a.29.29,0,0,1,.14-.25l9.41-5.43a.26.26,0,0,1,.29,0,.28.28,0,0,1,.15.25v10.87a.31.31,0,0,1-.15.25l-9.41,5.43A.23.23,0,0,1,269.33,176.41Zm.28-11v10.2l8.83-5.1v-10.2Z" style="fill:#e0e0e0"></path><path d="M278.74,171a.4.4,0,0,1-.15,0l-9.41-5.44a.28.28,0,0,1-.11-.39.29.29,0,0,1,.4-.11l9.41,5.43a.29.29,0,0,1,.11.4A.3.3,0,0,1,278.74,171Z" style="fill:#e0e0e0"></path><path d="M269.33,176.41a.28.28,0,0,1-.15,0,.27.27,0,0,1-.1-.39l9.41-16.31a.27.27,0,0,1,.39-.1.28.28,0,0,1,.11.39l-9.41,16.3A.29.29,0,0,1,269.33,176.41Z" style="fill:#e0e0e0"></path><path d="M311.67,146.53a.42.42,0,0,1-.15,0,.29.29,0,0,1-.14-.25V135.37a.27.27,0,0,1,.14-.25l9.41-5.44a.3.3,0,0,1,.29,0,.29.29,0,0,1,.15.25V140.8a.28.28,0,0,1-.15.25l-9.41,5.44A.33.33,0,0,1,311.67,146.53Zm.29-11v10.21l8.83-5.1V130.43Z" style="fill:#e0e0e0"></path><path d="M321.08,141.09a.28.28,0,0,1-.15,0l-9.41-5.43a.29.29,0,0,1-.1-.4.28.28,0,0,1,.39-.1l9.41,5.43a.29.29,0,0,1,.11.4A.29.29,0,0,1,321.08,141.09Z" style="fill:#e0e0e0"></path><path d="M311.67,146.53a.42.42,0,0,1-.15,0,.29.29,0,0,1-.1-.4l9.41-16.3a.28.28,0,0,1,.39-.11.29.29,0,0,1,.11.4l-9.41,16.3A.31.31,0,0,1,311.67,146.53Z" style="fill:#e0e0e0"></path><path d="M302.26,152a.28.28,0,0,1-.15,0,.27.27,0,0,1-.14-.25V140.8a.29.29,0,0,1,.15-.25l9.41-5.43a.3.3,0,0,1,.29,0,.28.28,0,0,1,.15.25v10.87a.29.29,0,0,1-.15.25l-9.41,5.43A.23.23,0,0,1,302.26,152Zm.28-11v10.2l8.83-5.1v-10.2Z" style="fill:#e0e0e0"></path><path d="M311.67,146.53a.28.28,0,0,1-.15,0l-9.41-5.44a.28.28,0,0,1-.11-.39.29.29,0,0,1,.4-.11l9.41,5.44a.28.28,0,0,1,.11.39A.29.29,0,0,1,311.67,146.53Z" style="fill:#e0e0e0"></path><path d="M302.26,152a.29.29,0,0,1-.26-.43l9.42-16.31a.28.28,0,0,1,.39-.1.28.28,0,0,1,.11.39l-9.41,16.31A.3.3,0,0,1,302.26,152Z" style="fill:#e0e0e0"></path><path d="M292.84,157.4a.33.33,0,0,1-.14,0,.29.29,0,0,1-.15-.25V146.24a.28.28,0,0,1,.15-.25l9.41-5.44a.3.3,0,0,1,.29,0,.29.29,0,0,1,.14.25v10.87a.27.27,0,0,1-.14.25L293,157.36A.42.42,0,0,1,292.84,157.4Zm.29-11v10.21l8.83-5.1v-10.2Z" style="fill:#e0e0e0"></path><path d="M302.25,152a.23.23,0,0,1-.14,0l-9.41-5.43a.29.29,0,0,1-.11-.4.29.29,0,0,1,.4-.1l9.41,5.43a.29.29,0,0,1,.1.4A.29.29,0,0,1,302.25,152Z" style="fill:#e0e0e0"></path><path d="M292.84,157.4a.33.33,0,0,1-.14,0,.29.29,0,0,1-.11-.4l9.41-16.3a.29.29,0,0,1,.4-.11.29.29,0,0,1,.1.4l-9.41,16.3A.29.29,0,0,1,292.84,157.4Z" style="fill:#e0e0e0"></path><path d="M283.43,162.83a.23.23,0,0,1-.14,0,.28.28,0,0,1-.15-.25V151.67a.29.29,0,0,1,.14-.25L292.7,146a.3.3,0,0,1,.29,0,.27.27,0,0,1,.14.25v10.87a.29.29,0,0,1-.14.25l-9.42,5.43A.23.23,0,0,1,283.43,162.83Zm.29-11V162l8.83-5.1v-10.2Z" style="fill:#e0e0e0"></path><path d="M292.84,157.4a.23.23,0,0,1-.14,0l-9.42-5.44a.28.28,0,0,1-.1-.39.29.29,0,0,1,.39-.11l9.42,5.44a.29.29,0,0,1,.1.39A.27.27,0,0,1,292.84,157.4Z" style="fill:#e0e0e0"></path><path d="M283.43,162.83a.23.23,0,0,1-.14,0,.28.28,0,0,1-.11-.39l9.41-16.31a.29.29,0,0,1,.5.29l-9.41,16.31A.29.29,0,0,1,283.43,162.83Z" style="fill:#e0e0e0"></path><path d="M274,168.27a.42.42,0,0,1-.15,0,.29.29,0,0,1-.14-.25V157.11a.29.29,0,0,1,.14-.25l9.41-5.44a.3.3,0,0,1,.29,0,.29.29,0,0,1,.15.25v10.87a.28.28,0,0,1-.15.25l-9.41,5.44A.33.33,0,0,1,274,168.27Zm.29-11v10.2l8.83-5.1v-10.2Z" style="fill:#e0e0e0"></path><path d="M283.43,162.83a.28.28,0,0,1-.15,0l-9.41-5.43a.29.29,0,0,1-.11-.4.3.3,0,0,1,.4-.1l9.41,5.43a.29.29,0,0,1,.11.4A.3.3,0,0,1,283.43,162.83Z" style="fill:#e0e0e0"></path><path d="M274,168.27a.42.42,0,0,1-.15,0,.29.29,0,0,1-.1-.4l9.41-16.3a.28.28,0,0,1,.39-.11.29.29,0,0,1,.11.4l-9.41,16.3A.31.31,0,0,1,274,168.27Z" style="fill:#e0e0e0"></path><path d="M264.6,173.7a.23.23,0,0,1-.14,0,.27.27,0,0,1-.14-.25V162.54a.29.29,0,0,1,.15-.25l9.41-5.43a.3.3,0,0,1,.29,0,.29.29,0,0,1,.15.25V168a.29.29,0,0,1-.15.25l-9.41,5.43A.28.28,0,0,1,264.6,173.7Zm.29-11v10.2l8.84-5.1v-10.2Z" style="fill:#e0e0e0"></path><path d="M274,168.27a.28.28,0,0,1-.15,0l-9.41-5.44a.28.28,0,0,1-.11-.39.29.29,0,0,1,.4-.11l9.41,5.44a.28.28,0,0,1,.11.39A.29.29,0,0,1,274,168.27Z" style="fill:#e0e0e0"></path><path d="M269.33,176.41a.28.28,0,0,1-.15,0l-4.72-2.71a.3.3,0,0,1-.14-.17.41.41,0,0,1,0-.22L273.76,157a.3.3,0,0,1,.4-.1.29.29,0,0,1,.11.39L265,173.31l4.47,2.56a.28.28,0,0,1,.11.39A.29.29,0,0,1,269.33,176.41Z" style="fill:#e0e0e0"></path><polygon points="325.8 116.34 325.8 105.47 321.08 102.76 321.1 113.62 325.8 116.34" style="fill:#e0e0e0"></polygon><g style="opacity:0.15"><polygon points="325.8 116.34 325.8 105.47 321.08 102.76 321.1 113.62 325.8 116.34"></polygon></g><path d="M316.39,122.06a.23.23,0,0,1-.14,0,.26.26,0,0,1-.15-.25V110.9a.29.29,0,0,1,.14-.25l9.42-5.43a.3.3,0,0,1,.29,0,.27.27,0,0,1,.14.25v10.87a.29.29,0,0,1-.14.25L316.53,122A.23.23,0,0,1,316.39,122.06Zm.29-11v10.2l8.83-5.1V106Z" style="fill:#e0e0e0"></path><path d="M311.67,119.36a.3.3,0,0,1-.29-.24.29.29,0,0,1,.23-.34l14.14-2.73a.3.3,0,0,1,.34.23.29.29,0,0,1-.23.34l-14.14,2.73Z" style="fill:#e0e0e0"></path><path d="M302.27,124.79a.28.28,0,0,1-.28-.24.29.29,0,0,1,.23-.34l14.13-2.72a.29.29,0,0,1,.34.23.29.29,0,0,1-.23.34l-14.13,2.72Z" style="fill:#e0e0e0"></path><path d="M292.87,130.22a.29.29,0,0,1-.05-.57L307,126.92a.29.29,0,0,1,.11.57l-14.14,2.73Z" style="fill:#e0e0e0"></path><path d="M283.48,135.66a.28.28,0,0,1-.28-.24.28.28,0,0,1,.23-.34l14.13-2.73a.3.3,0,0,1,.34.23.29.29,0,0,1-.23.34l-14.14,2.73Z" style="fill:#e0e0e0"></path><path d="M274.08,141.09a.3.3,0,0,1-.28-.23.29.29,0,0,1,.23-.34l14.13-2.73a.29.29,0,0,1,.11.57l-14.13,2.73Z" style="fill:#e0e0e0"></path><path d="M264.69,146.53a.29.29,0,0,1-.05-.58l14.13-2.73a.29.29,0,0,1,.34.23.29.29,0,0,1-.23.34l-14.14,2.73Z" style="fill:#e0e0e0"></path><path d="M325.8,116.63a.23.23,0,0,1-.14,0l-9.42-5.44a.28.28,0,0,1-.1-.39.29.29,0,0,1,.39-.11l9.42,5.44a.29.29,0,0,1,.1.39A.27.27,0,0,1,325.8,116.63Z" style="fill:#e0e0e0"></path><path d="M316.39,122.06a.23.23,0,0,1-.14,0,.28.28,0,0,1-.11-.39l9.41-16.31a.29.29,0,0,1,.5.29l-9.41,16.31A.29.29,0,0,1,316.39,122.06Z" style="fill:#e0e0e0"></path><path d="M307,127.5a.42.42,0,0,1-.15,0,.29.29,0,0,1-.14-.25V116.34a.27.27,0,0,1,.14-.25l9.41-5.44a.3.3,0,0,1,.29,0,.29.29,0,0,1,.15.25v10.87a.28.28,0,0,1-.15.25l-9.41,5.44A.33.33,0,0,1,307,127.5Zm.28-11v10.21l8.83-5.1V111.4Z" style="fill:#e0e0e0"></path><path d="M316.39,122.06a.28.28,0,0,1-.15,0l-9.41-5.43a.29.29,0,1,1,.29-.5l9.41,5.43a.29.29,0,0,1,.11.4A.3.3,0,0,1,316.39,122.06Z" style="fill:#e0e0e0"></path><path d="M307,127.5a.42.42,0,0,1-.15,0,.29.29,0,0,1-.1-.4l9.41-16.3a.28.28,0,0,1,.39-.11.29.29,0,0,1,.11.4l-9.41,16.3A.31.31,0,0,1,307,127.5Z" style="fill:#e0e0e0"></path><path d="M297.56,132.93a.23.23,0,0,1-.14,0,.28.28,0,0,1-.15-.25V121.77a.29.29,0,0,1,.15-.25l9.41-5.43a.3.3,0,0,1,.29,0,.27.27,0,0,1,.14.25v10.87a.29.29,0,0,1-.14.25l-9.41,5.43A.28.28,0,0,1,297.56,132.93Zm.29-11v10.2l8.84-5.1v-10.2Z" style="fill:#e0e0e0"></path><path d="M307,127.5a.28.28,0,0,1-.15,0L297.42,122a.28.28,0,0,1-.11-.39.29.29,0,0,1,.4-.11l9.41,5.44a.28.28,0,0,1,.11.39A.29.29,0,0,1,307,127.5Z" style="fill:#e0e0e0"></path><path d="M297.56,132.93a.25.25,0,0,1-.14,0,.28.28,0,0,1-.11-.39l9.41-16.31a.29.29,0,0,1,.4-.1.28.28,0,0,1,.11.39l-9.41,16.31A.31.31,0,0,1,297.56,132.93Z" style="fill:#e0e0e0"></path><path d="M288.15,138.37a.33.33,0,0,1-.14,0,.29.29,0,0,1-.15-.25V127.21A.28.28,0,0,1,288,127l9.41-5.44a.3.3,0,0,1,.29,0,.29.29,0,0,1,.14.25v10.87a.27.27,0,0,1-.14.25l-9.41,5.44A.42.42,0,0,1,288.15,138.37Zm.29-11v10.2l8.83-5.1v-10.2Z" style="fill:#e0e0e0"></path><path d="M297.56,132.93a.23.23,0,0,1-.14,0L288,127.46a.29.29,0,0,1-.11-.4.28.28,0,0,1,.39-.1l9.42,5.43a.29.29,0,0,1,.1.4A.29.29,0,0,1,297.56,132.93Z" style="fill:#e0e0e0"></path><path d="M288.15,138.37a.33.33,0,0,1-.14,0,.29.29,0,0,1-.11-.4l9.41-16.3a.29.29,0,0,1,.4-.11.29.29,0,0,1,.1.4l-9.41,16.3A.29.29,0,0,1,288.15,138.37Z" style="fill:#e0e0e0"></path><path d="M278.74,143.8a.28.28,0,0,1-.15,0,.27.27,0,0,1-.14-.25V132.64a.29.29,0,0,1,.14-.25L288,127a.28.28,0,0,1,.28,0,.26.26,0,0,1,.15.25v10.87a.27.27,0,0,1-.15.25l-9.41,5.43A.23.23,0,0,1,278.74,143.8Zm.29-11V143l8.83-5.1v-10.2Z" style="fill:#e0e0e0"></path><path d="M288.15,138.37a.23.23,0,0,1-.14,0l-9.42-5.44a.28.28,0,0,1-.1-.39.29.29,0,0,1,.39-.11l9.41,5.44a.28.28,0,0,1,.11.39A.27.27,0,0,1,288.15,138.37Z" style="fill:#e0e0e0"></path><path d="M278.74,143.8a.28.28,0,0,1-.15,0,.29.29,0,0,1-.1-.39l9.41-16.31a.28.28,0,0,1,.39-.1.28.28,0,0,1,.11.39L279,143.66A.29.29,0,0,1,278.74,143.8Z" style="fill:#e0e0e0"></path><path d="M269.33,149.24a.42.42,0,0,1-.15,0A.29.29,0,0,1,269,149V138.08a.29.29,0,0,1,.14-.25l9.41-5.44a.3.3,0,0,1,.29,0,.29.29,0,0,1,.15.25v10.87a.28.28,0,0,1-.15.25l-9.41,5.44A.33.33,0,0,1,269.33,149.24Zm.28-11v10.2l8.83-5.1v-10.2Z" style="fill:#e0e0e0"></path><path d="M278.74,143.8a.28.28,0,0,1-.15,0l-9.41-5.43a.29.29,0,0,1-.11-.4.29.29,0,0,1,.4-.1l9.41,5.43a.29.29,0,0,1,.11.4A.3.3,0,0,1,278.74,143.8Z" style="fill:#e0e0e0"></path><path d="M269.33,149.24a.42.42,0,0,1-.15,0,.28.28,0,0,1-.1-.4l9.41-16.3a.28.28,0,0,1,.39-.11.29.29,0,0,1,.11.4l-9.41,16.3A.31.31,0,0,1,269.33,149.24Z" style="fill:#e0e0e0"></path><path d="M311.67,119.35a.4.4,0,0,1-.15,0,.3.3,0,0,1-.14-.26V108.2a.3.3,0,0,1,.14-.26l9.41-5.43a.3.3,0,0,1,.29,0,.29.29,0,0,1,.15.25v10.87a.29.29,0,0,1-.15.25l-9.41,5.44A.32.32,0,0,1,311.67,119.35Zm.29-11v10.2l8.83-5.1v-10.2Z" style="fill:#e0e0e0"></path><path d="M321.08,113.92a.28.28,0,0,1-.15,0l-9.41-5.43a.29.29,0,0,1-.1-.4.28.28,0,0,1,.39-.11l9.41,5.44a.29.29,0,0,1,.11.39A.27.27,0,0,1,321.08,113.92Z" style="fill:#e0e0e0"></path><path d="M311.67,119.35a.4.4,0,0,1-.15,0,.29.29,0,0,1-.1-.4l9.41-16.3a.28.28,0,0,1,.39-.11.29.29,0,0,1,.11.4l-9.41,16.3A.3.3,0,0,1,311.67,119.35Z" style="fill:#e0e0e0"></path><path d="M302.26,124.79a.28.28,0,0,1-.15,0,.29.29,0,0,1-.14-.25V113.63a.29.29,0,0,1,.15-.25l9.41-5.44a.3.3,0,0,1,.29,0,.31.31,0,0,1,.15.26v10.87a.29.29,0,0,1-.15.25l-9.41,5.43A.23.23,0,0,1,302.26,124.79Zm.28-11V124l8.83-5.1V108.7Z" style="fill:#e0e0e0"></path><path d="M311.67,119.36a.42.42,0,0,1-.15,0l-9.41-5.44a.28.28,0,0,1-.11-.39.29.29,0,0,1,.4-.11l9.41,5.44a.28.28,0,0,1,.11.39A.31.31,0,0,1,311.67,119.36Z" style="fill:#e0e0e0"></path><path d="M302.26,124.79a.28.28,0,0,1-.15,0,.29.29,0,0,1-.11-.39l9.42-16.31a.28.28,0,0,1,.39-.11.3.3,0,0,1,.11.4l-9.41,16.31A.3.3,0,0,1,302.26,124.79Z" style="fill:#e0e0e0"></path><path d="M292.84,130.22a.32.32,0,0,1-.14,0,.31.31,0,0,1-.15-.26V119.07a.28.28,0,0,1,.15-.25l9.41-5.44a.3.3,0,0,1,.29,0,.29.29,0,0,1,.14.25V124.5a.29.29,0,0,1-.14.25L293,130.19A.4.4,0,0,1,292.84,130.22Zm.29-11v10.2l8.83-5.1v-10.2Z" style="fill:#e0e0e0"></path><path d="M302.25,124.79a.23.23,0,0,1-.14,0l-9.41-5.43a.29.29,0,0,1-.11-.4.28.28,0,0,1,.4-.1l9.41,5.43a.29.29,0,0,1,.1.4A.29.29,0,0,1,302.25,124.79Z" style="fill:#e0e0e0"></path><path d="M292.84,130.22a.32.32,0,0,1-.14,0,.29.29,0,0,1-.11-.4l9.41-16.3a.29.29,0,0,1,.4-.11.29.29,0,0,1,.1.4l-9.41,16.3A.29.29,0,0,1,292.84,130.22Z" style="fill:#e0e0e0"></path><path d="M283.43,135.66a.23.23,0,0,1-.14,0,.29.29,0,0,1-.15-.25V124.5a.29.29,0,0,1,.14-.25l9.42-5.43a.26.26,0,0,1,.29,0,.27.27,0,0,1,.14.25v10.87a.29.29,0,0,1-.14.25l-9.42,5.43A.23.23,0,0,1,283.43,135.66Zm.29-11v10.2l8.83-5.1v-10.2Z" style="fill:#e0e0e0"></path><path d="M292.84,130.23a.33.33,0,0,1-.14,0l-9.42-5.44a.28.28,0,0,1-.1-.39.29.29,0,0,1,.39-.11l9.42,5.44a.29.29,0,0,1,.1.39A.29.29,0,0,1,292.84,130.23Z" style="fill:#e0e0e0"></path><path d="M283.43,135.66a.23.23,0,0,1-.14,0,.29.29,0,0,1-.11-.39l9.41-16.31a.28.28,0,0,1,.4-.1.29.29,0,0,1,.1.39l-9.41,16.31A.29.29,0,0,1,283.43,135.66Z" style="fill:#e0e0e0"></path><path d="M274,141.09a.4.4,0,0,1-.15,0,.3.3,0,0,1-.14-.26V129.94a.27.27,0,0,1,.14-.25l9.41-5.44a.3.3,0,0,1,.29,0,.29.29,0,0,1,.15.25v10.87a.29.29,0,0,1-.15.25l-9.41,5.44A.32.32,0,0,1,274,141.09Zm.29-11v10.2l8.83-5.1V125Z" style="fill:#e0e0e0"></path><path d="M283.43,135.66a.28.28,0,0,1-.15,0l-9.41-5.43a.29.29,0,0,1-.11-.4.28.28,0,0,1,.4-.1l9.41,5.43a.29.29,0,0,1,.11.4A.3.3,0,0,1,283.43,135.66Z" style="fill:#e0e0e0"></path><path d="M274,141.09a.4.4,0,0,1-.15,0,.29.29,0,0,1-.1-.4l9.41-16.3a.28.28,0,0,1,.39-.11.29.29,0,0,1,.11.4L274.27,141A.3.3,0,0,1,274,141.09Z" style="fill:#e0e0e0"></path><path d="M264.6,146.53a.23.23,0,0,1-.14,0,.29.29,0,0,1-.14-.25V135.37a.29.29,0,0,1,.15-.25l9.41-5.43a.26.26,0,0,1,.29,0,.28.28,0,0,1,.15.25v10.87a.29.29,0,0,1-.15.25l-9.41,5.43A.28.28,0,0,1,264.6,146.53Zm.29-11v10.2l8.84-5.1v-10.2Z" style="fill:#e0e0e0"></path><path d="M274,141.1a.42.42,0,0,1-.15,0l-9.41-5.44a.28.28,0,0,1-.11-.39.29.29,0,0,1,.4-.11l9.41,5.44a.28.28,0,0,1,.11.39A.31.31,0,0,1,274,141.1Z" style="fill:#e0e0e0"></path><path d="M269.33,149.24a.42.42,0,0,1-.15,0l-4.72-2.71a.33.33,0,0,1-.14-.17.4.4,0,0,1,0-.22l9.41-16.31a.29.29,0,0,1,.51.29l-9.27,16,4.47,2.57a.28.28,0,0,1,.11.39A.31.31,0,0,1,269.33,149.24Z" style="fill:#e0e0e0"></path><polygon points="325.8 208.72 325.8 197.85 321.08 195.15 321.1 206 325.8 208.72" style="fill:#e0e0e0"></polygon><g style="opacity:0.15"><polygon points="325.8 208.72 325.8 197.85 321.08 195.15 321.1 206 325.8 208.72"></polygon></g><path d="M316.39,214.45a.33.33,0,0,1-.14,0,.27.27,0,0,1-.15-.25V203.29a.29.29,0,0,1,.14-.25l9.42-5.44a.3.3,0,0,1,.29,0,.29.29,0,0,1,.14.25v10.87a.27.27,0,0,1-.14.25l-9.42,5.44A.33.33,0,0,1,316.39,214.45Zm.29-11v10.2l8.83-5.1v-10.2Z" style="fill:#e0e0e0"></path><path d="M311.67,211.74a.3.3,0,0,1-.29-.23.29.29,0,0,1,.23-.34l14.14-2.73a.29.29,0,1,1,.11.57l-14.14,2.73Z" style="fill:#e0e0e0"></path><path d="M302.27,217.17a.27.27,0,0,1-.28-.23.29.29,0,0,1,.23-.34l14.13-2.73a.29.29,0,0,1,.34.23.29.29,0,0,1-.23.34l-14.13,2.73Z" style="fill:#e0e0e0"></path><path d="M292.87,222.61a.3.3,0,0,1-.28-.24.29.29,0,0,1,.23-.34L307,219.31a.29.29,0,0,1,.11.57l-14.14,2.72Z" style="fill:#e0e0e0"></path><path d="M283.48,228a.27.27,0,0,1-.28-.23.28.28,0,0,1,.23-.34l14.13-2.73a.29.29,0,0,1,.34.23.29.29,0,0,1-.23.34L283.53,228Z" style="fill:#e0e0e0"></path><path d="M274.08,233.48a.3.3,0,0,1-.28-.24.29.29,0,0,1,.23-.34l14.13-2.73a.29.29,0,0,1,.34.23.29.29,0,0,1-.23.34l-14.13,2.73Z" style="fill:#e0e0e0"></path><path d="M264.69,238.91a.29.29,0,0,1-.05-.57l14.13-2.73a.29.29,0,0,1,.11.57l-14.14,2.73Z" style="fill:#e0e0e0"></path><path d="M325.8,209a.23.23,0,0,1-.14,0l-9.42-5.43a.29.29,0,0,1,.29-.5l9.42,5.43a.3.3,0,0,1,.1.4A.29.29,0,0,1,325.8,209Z" style="fill:#e0e0e0"></path><path d="M316.39,214.45a.23.23,0,0,1-.14,0,.29.29,0,0,1-.11-.4l9.41-16.3a.29.29,0,0,1,.4-.11.3.3,0,0,1,.1.4l-9.41,16.3A.29.29,0,0,1,316.39,214.45Z" style="fill:#e0e0e0"></path><path d="M307,219.88a.28.28,0,0,1-.15,0,.27.27,0,0,1-.14-.25V208.72a.29.29,0,0,1,.14-.25l9.41-5.43a.3.3,0,0,1,.29,0,.29.29,0,0,1,.15.25v10.87a.29.29,0,0,1-.15.25l-9.41,5.43A.23.23,0,0,1,307,219.88Zm.28-11v10.2l8.83-5.1v-10.2Z" style="fill:#e0e0e0"></path><path d="M316.39,214.45a.28.28,0,0,1-.15,0L306.83,209a.28.28,0,0,1-.11-.39.3.3,0,0,1,.4-.11l9.41,5.44a.28.28,0,0,1,.11.39A.29.29,0,0,1,316.39,214.45Z" style="fill:#e0e0e0"></path><path d="M307,219.88a.29.29,0,0,1-.25-.43l9.41-16.31a.29.29,0,0,1,.39-.1.28.28,0,0,1,.11.39l-9.41,16.31A.3.3,0,0,1,307,219.88Z" style="fill:#e0e0e0"></path><path d="M297.56,225.32a.33.33,0,0,1-.14,0,.29.29,0,0,1-.15-.25V214.16a.29.29,0,0,1,.15-.25l9.41-5.44a.3.3,0,0,1,.29,0,.29.29,0,0,1,.14.25v10.87a.27.27,0,0,1-.14.25l-9.41,5.44A.42.42,0,0,1,297.56,225.32Zm.29-11v10.2l8.84-5.1v-10.2Z" style="fill:#e0e0e0"></path><path d="M307,219.88a.28.28,0,0,1-.15,0l-9.41-5.43a.29.29,0,0,1-.11-.4.3.3,0,0,1,.4-.1l9.41,5.43a.29.29,0,0,1,.11.4A.3.3,0,0,1,307,219.88Z" style="fill:#e0e0e0"></path><path d="M297.56,225.32a.25.25,0,0,1-.14,0,.29.29,0,0,1-.11-.4l9.41-16.3a.29.29,0,1,1,.51.29l-9.41,16.3A.32.32,0,0,1,297.56,225.32Z" style="fill:#e0e0e0"></path><path d="M288.15,230.75a.23.23,0,0,1-.14,0,.28.28,0,0,1-.15-.25V219.59a.29.29,0,0,1,.15-.25l9.41-5.43a.3.3,0,0,1,.29,0,.29.29,0,0,1,.14.25V225a.29.29,0,0,1-.14.25l-9.41,5.43A.28.28,0,0,1,288.15,230.75Zm.29-11V230l8.83-5.1v-10.2Z" style="fill:#e0e0e0"></path><path d="M297.56,225.32a.23.23,0,0,1-.14,0L288,219.85a.3.3,0,0,1-.11-.4.29.29,0,0,1,.39-.11l9.42,5.44a.28.28,0,0,1,.1.39A.27.27,0,0,1,297.56,225.32Z" style="fill:#e0e0e0"></path><path d="M288.15,230.75a.23.23,0,0,1-.14,0,.28.28,0,0,1-.11-.39L297.31,214a.3.3,0,0,1,.4-.1.28.28,0,0,1,.1.39l-9.41,16.31A.29.29,0,0,1,288.15,230.75Z" style="fill:#e0e0e0"></path><path d="M278.74,236.19a.42.42,0,0,1-.15,0,.29.29,0,0,1-.14-.25V225a.29.29,0,0,1,.14-.25l9.42-5.44a.28.28,0,0,1,.28,0,.27.27,0,0,1,.15.25v10.87a.26.26,0,0,1-.15.25l-9.41,5.44A.33.33,0,0,1,278.74,236.19Zm.29-11v10.2l8.83-5.1V220.1Z" style="fill:#e0e0e0"></path><path d="M288.15,230.75a.23.23,0,0,1-.14,0l-9.42-5.43a.29.29,0,0,1,.29-.5l9.41,5.43a.29.29,0,0,1,.11.4A.29.29,0,0,1,288.15,230.75Z" style="fill:#e0e0e0"></path><path d="M278.74,236.19a.28.28,0,0,1-.15,0,.3.3,0,0,1-.1-.4l9.41-16.3a.28.28,0,0,1,.39-.11.29.29,0,0,1,.11.4L279,236A.27.27,0,0,1,278.74,236.19Z" style="fill:#e0e0e0"></path><path d="M269.33,241.62a.28.28,0,0,1-.15,0,.27.27,0,0,1-.14-.25V230.46a.29.29,0,0,1,.14-.25l9.41-5.43a.3.3,0,0,1,.29,0,.29.29,0,0,1,.15.25V235.9a.29.29,0,0,1-.15.25l-9.41,5.43A.23.23,0,0,1,269.33,241.62Zm.28-11v10.2l8.83-5.1v-10.2Z" style="fill:#e0e0e0"></path><path d="M278.74,236.19a.28.28,0,0,1-.15,0l-9.41-5.43a.29.29,0,1,1,.29-.51l9.41,5.44a.29.29,0,0,1-.14.54Z" style="fill:#e0e0e0"></path><path d="M269.33,241.62a.28.28,0,0,1-.15,0,.27.27,0,0,1-.1-.39l9.41-16.31a.29.29,0,0,1,.39-.1.28.28,0,0,1,.11.39l-9.41,16.31A.3.3,0,0,1,269.33,241.62Z" style="fill:#e0e0e0"></path><path d="M311.67,211.74a.28.28,0,0,1-.15,0,.29.29,0,0,1-.14-.25V200.58a.29.29,0,0,1,.14-.25l9.41-5.43a.26.26,0,0,1,.29,0,.28.28,0,0,1,.15.25V206a.29.29,0,0,1-.15.25l-9.41,5.43A.23.23,0,0,1,311.67,211.74Zm.29-11V211l8.83-5.1v-10.2Z" style="fill:#e0e0e0"></path><path d="M321.08,206.31a.42.42,0,0,1-.15,0l-9.41-5.44a.28.28,0,0,1-.1-.39.28.28,0,0,1,.39-.11l9.41,5.44a.28.28,0,0,1,.11.39A.29.29,0,0,1,321.08,206.31Z" style="fill:#e0e0e0"></path><path d="M311.67,211.74a.29.29,0,0,1-.25-.43L320.83,195a.27.27,0,0,1,.39-.1.28.28,0,0,1,.11.39l-9.41,16.31A.3.3,0,0,1,311.67,211.74Z" style="fill:#e0e0e0"></path><path d="M302.26,217.17a.4.4,0,0,1-.15,0,.3.3,0,0,1-.14-.25V206a.28.28,0,0,1,.15-.25l9.41-5.44a.3.3,0,0,1,.29,0,.29.29,0,0,1,.15.25v10.87a.29.29,0,0,1-.15.25l-9.41,5.44A.32.32,0,0,1,302.26,217.17Zm.28-11v10.2l8.83-5.1v-10.2Z" style="fill:#e0e0e0"></path><path d="M311.67,211.74a.28.28,0,0,1-.15,0l-9.41-5.43a.29.29,0,0,1-.11-.4.29.29,0,0,1,.4-.1l9.41,5.43a.29.29,0,0,1,.11.4A.3.3,0,0,1,311.67,211.74Z" style="fill:#e0e0e0"></path><path d="M302.26,217.17a.4.4,0,0,1-.15,0,.29.29,0,0,1-.11-.4l9.42-16.3a.28.28,0,0,1,.39-.11.29.29,0,0,1,.11.4L302.51,217A.3.3,0,0,1,302.26,217.17Z" style="fill:#e0e0e0"></path><path d="M292.84,222.61a.23.23,0,0,1-.14,0,.29.29,0,0,1-.15-.25V211.45a.29.29,0,0,1,.15-.25l9.41-5.43a.26.26,0,0,1,.29,0,.27.27,0,0,1,.14.25v10.87a.29.29,0,0,1-.14.25L293,222.57A.28.28,0,0,1,292.84,222.61Zm.29-11v10.2l8.83-5.1v-10.2Z" style="fill:#e0e0e0"></path><path d="M302.25,217.18a.33.33,0,0,1-.14,0l-9.41-5.44a.28.28,0,0,1-.11-.39.29.29,0,0,1,.4-.11l9.41,5.44a.28.28,0,0,1,.1.39A.29.29,0,0,1,302.25,217.18Z" style="fill:#e0e0e0"></path><path d="M292.84,222.61a.23.23,0,0,1-.14,0,.29.29,0,0,1-.11-.39L302,205.87a.29.29,0,0,1,.4-.1.28.28,0,0,1,.1.39l-9.41,16.31A.29.29,0,0,1,292.84,222.61Z" style="fill:#e0e0e0"></path><path d="M283.43,228a.32.32,0,0,1-.14,0,.31.31,0,0,1-.15-.25V216.89a.27.27,0,0,1,.14-.25l9.42-5.44a.3.3,0,0,1,.29,0,.29.29,0,0,1,.14.25v10.87a.29.29,0,0,1-.14.25L283.57,228A.32.32,0,0,1,283.43,228Zm.29-11v10.2l8.83-5.1V212Z" style="fill:#e0e0e0"></path><path d="M292.84,222.61a.23.23,0,0,1-.14,0l-9.42-5.43a.29.29,0,0,1-.1-.4.28.28,0,0,1,.39-.1l9.42,5.43a.3.3,0,0,1,.1.4A.29.29,0,0,1,292.84,222.61Z" style="fill:#e0e0e0"></path><path d="M283.43,228a.32.32,0,0,1-.14,0,.29.29,0,0,1-.11-.4l9.41-16.3a.29.29,0,0,1,.4-.11.3.3,0,0,1,.1.4l-9.41,16.3A.29.29,0,0,1,283.43,228Z" style="fill:#e0e0e0"></path><path d="M274,233.48a.28.28,0,0,1-.15,0,.29.29,0,0,1-.14-.25V222.32a.29.29,0,0,1,.14-.25l9.41-5.43a.26.26,0,0,1,.29,0,.28.28,0,0,1,.15.25v10.87a.29.29,0,0,1-.15.25l-9.41,5.43A.23.23,0,0,1,274,233.48Zm.29-11v10.2l8.83-5.1v-10.2Z" style="fill:#e0e0e0"></path><path d="M283.43,228.05a.42.42,0,0,1-.15,0l-9.41-5.44a.28.28,0,0,1-.11-.39.29.29,0,0,1,.4-.11l9.41,5.44a.28.28,0,0,1,.11.39A.31.31,0,0,1,283.43,228.05Z" style="fill:#e0e0e0"></path><path d="M274,233.48a.29.29,0,0,1-.25-.43l9.41-16.31a.28.28,0,0,1,.39-.1.28.28,0,0,1,.11.39l-9.41,16.31A.3.3,0,0,1,274,233.48Z" style="fill:#e0e0e0"></path><path d="M264.6,238.92a.33.33,0,0,1-.14,0,.3.3,0,0,1-.14-.25V227.76a.28.28,0,0,1,.15-.25l9.41-5.44a.3.3,0,0,1,.29,0,.29.29,0,0,1,.15.25v10.87a.29.29,0,0,1-.15.25l-9.41,5.44A.42.42,0,0,1,264.6,238.92Zm.29-11v10.2l8.84-5.1v-10.2Z" style="fill:#e0e0e0"></path><path d="M274,233.48a.28.28,0,0,1-.15,0L264.46,228a.29.29,0,0,1-.11-.4.29.29,0,0,1,.4-.1l9.41,5.43a.29.29,0,0,1,.11.4A.3.3,0,0,1,274,233.48Z" style="fill:#e0e0e0"></path><path d="M269.33,241.62a.28.28,0,0,1-.15,0l-4.72-2.7a.32.32,0,0,1-.14-.18.42.42,0,0,1,0-.22l9.41-16.3a.29.29,0,0,1,.51.29L265,238.52l4.47,2.56a.29.29,0,0,1,.11.4A.3.3,0,0,1,269.33,241.62Z" style="fill:#e0e0e0"></path></g></g><g id="freepik--Rocket--inject-16"><path d="M263,401.52h0l-2.6-27.61H204.68l-2.59,27.61h0c-.54,4.88,2.39,9.86,8.85,13.58,11.93,6.88,31.26,6.88,43.17,0C260.59,411.38,263.52,406.4,263,401.52Z" style="fill:#37474f"></path><path d="M262.37,394.76l-.87-9.26c-.79,3.57-3.55,7-8.29,9.75-11.4,6.58-29.89,6.58-41.31,0-4.74-2.74-7.51-6.18-8.31-9.74l-.87,9.25c.71,3.8,3.57,7.49,8.62,10.4,11.72,6.76,30.72,6.76,42.43,0C258.81,402.25,261.67,398.56,262.37,394.76Z" style="fill:#CE6691"></path><path d="M220.67,415.31c-4.85-3.19-8.59-6.79-4.79-27.39l.5-14h-11.7l-2.59,27.61h0c-.54,4.88,2.39,9.86,8.85,13.58,11.93,6.88,31.26,6.88,43.17,0C244.78,419.2,225.52,418.49,220.67,415.31Z" style="opacity:0.2"></path><path d="M212.8,386.39c-10.91-6.29-10.91-16.5,0-22.8s28.6-6.3,39.5,0,10.92,16.51,0,22.8S223.72,392.69,212.8,386.39Z" style="fill:#455a64"></path><path d="M233.45,353.8h-.89c-12.65.14-23.91-3.14-31.71-9.3a6.87,6.87,0,1,1,8.52-10.79c5.35,4.22,13.56,6.48,23.09,6.33h.2c9.54.11,17.74-2.11,23.09-6.33a6.87,6.87,0,1,1,8.52,10.79C256.65,350.51,245.74,353.8,233.45,353.8Z" style="fill:#455a64"></path><path d="M205,343c2.07,0,9.82,5.79,27.11,5.79s28.82-6.79,34.34-12a6.72,6.72,0,0,0-1.06-1.92,6.87,6.87,0,0,0-9.66-1.14c-5.35,4.22-13.55,6.44-23.09,6.33h-.2c-9.53.15-17.74-2.11-23.09-6.33a6.87,6.87,0,1,0-8.52,10.79c7.8,6.16,19.06,9.44,31.71,9.3a56.77,56.77,0,0,1-20-4C205.71,347.24,203,343,205,343Z" style="fill:#37474f"></path><path d="M273.1,284.25c0,1.11-.09,2.21-.13,3.3-.06,1.3-.11,2.58-.16,3.84,0,1.09-.1,2.16-.15,3.21,0,.31,0,.62,0,.92-.07,1.53-.14,3-.2,4.46-.11,2.4-.23,4.67-.33,6.8,0,.68-.07,1.36-.1,2-.09,1.81-.18,3.48-.26,5,0,.56-.05,1.1-.08,1.62s0,.77,0,1.13c-.06.89-.1,1.71-.14,2.44,0,.34,0,.65,0,.95s0,.56-.06.82c0,.86-.08,1.55-.11,2h-.06v.87c0,5.76-3.95,11.23-11.14,15.37s-17.09,6.57-27.5,6.57-20.17-2.33-27.5-6.57-11.14-9.61-11.14-15.37v-.87h-.06c0-.23,0-.51,0-.84s0-.57-.06-.91,0-.62-.05-1,0-.53,0-.81c0-.85-.1-1.83-.16-2.91,0-.53-.05-1.09-.09-1.67-.1-2.08-.22-4.48-.36-7.14,0-.67-.07-1.36-.1-2.06,0-.86-.09-1.76-.13-2.68-.12-2.3-.23-4.72-.33-7.28-.1-2-.19-4.14-.28-6.32-.07-1.62-.14-3.27-.2-4.95a30.26,30.26,0,0,0,6.8,6.36,56.14,56.14,0,0,0,5.1,3c1.8.8,3.56,1.7,5.44,2.32a70.42,70.42,0,0,0,46.42,0c1.88-.62,3.64-1.52,5.44-2.32a56.14,56.14,0,0,0,5.1-3A30.6,30.6,0,0,0,273.1,284.25Z" style="fill:#f5f5f5"></path><path d="M274,283c-.67,17.16-1.46,32.31-1.95,40.71,0,5.83-3.86,11.66-11.58,16.13s-17.81,6.67-27.93,6.67-20.22-2.22-27.93-6.67-11.57-10.3-11.57-16.13h0c-.48-8.4-1.28-23.54-1.94-40.7.28.44.58.87.91,1.29.77,19.15,1.63,34.66,1.84,38.54h.06v.87c0,5.76,4,11.23,11.14,15.37s17.1,6.57,27.5,6.57,20.18-2.33,27.5-6.57,11.14-9.61,11.14-15.37v-.87h.06c.22-3.88,1.08-19.39,1.85-38.54C273.43,283.82,273.73,283.4,274,283Z" style="fill:#e0e0e0"></path><path d="M191.1,283c.28.44.58.87.91,1.29a30.26,30.26,0,0,0,6.8,6.36,56.14,56.14,0,0,0,5.1,3c1.8.8,3.56,1.7,5.44,2.32a70.33,70.33,0,0,0,46.42,0,46.46,46.46,0,0,0,10.54-5.29,30.6,30.6,0,0,0,6.79-6.35c.33-.43.63-.85.91-1.3Z" style="fill:#e0e0e0"></path><ellipse cx="232.56" cy="282.95" rx="41.45" ry="18.66" style="fill:#e0e0e0"></ellipse><path d="M274.83,299.47a3.63,3.63,0,0,0-3.61.2,11.39,11.39,0,0,0-5.56,9l-.73,39.57a1.92,1.92,0,0,0,.77,1.78l2.47,1.59a1.92,1.92,0,0,0,1.93-.09l2.26-1.16a6.2,6.2,0,0,0,3-4.54l3.26-41.16c.14-1.76-.38-3-1.32-3.62Z" style="fill:#263238"></path><path d="M270.1,351.55c-1.53.78-2.75,0-2.71-1.7l.73-39.56a11.38,11.38,0,0,1,5.56-9c3-1.54,5.22,0,4.95,3.43l-3.26,41.16a6.2,6.2,0,0,1-3,4.54Z" style="fill:#37474f"></path><path d="M274.83,299.47l2.47,1.59a3.59,3.59,0,0,0-3.62.2,11.19,11.19,0,0,0-4.9,5.89l-2.47-1.59a11.29,11.29,0,0,1,4.91-5.89A3.63,3.63,0,0,1,274.83,299.47Z" style="fill:#455a64"></path><path d="M278.08,310.13l-2.23-1.44-2.6,1.34-3.18,64.48c2.59,1.66,5.06,1.86,7.11.8l2.59-1.33c2.57-1.31,4.49-4.59,5.15-9.42l3.6-26.44C289.93,327.75,285,314.62,278.08,310.13Z" style="fill:#CE6691"></path><g style="opacity:0.2"><path d="M278.08,310.13l-2.23-1.44-2.6,1.34-3.18,64.48c2.59,1.66,5.06,1.86,7.11.8l2.59-1.33c2.57-1.31,4.49-4.59,5.15-9.42l3.6-26.44C289.93,327.75,285,314.62,278.08,310.13Z" style="fill:#fff"></path></g><path d="M270.07,374.51h0L273.25,310l2.23,1.44c6.95,4.48,11.85,17.62,10.44,28l-3.61,26.45C281.13,374.57,275.89,378.26,270.07,374.51Z" style="fill:#CE6691"></path><path d="M270.07,374.51h0L273.25,310l2.23,1.44c6.95,4.48,11.85,17.62,10.44,28l-3.61,26.45C281.13,374.57,275.89,378.26,270.07,374.51Z" style="opacity:0.2"></path><path d="M282.41,365.16c-.57,4.23-4.87,5.66-7.77,2.26s-3.84-7.68-3.2-20.78l-1.37,27.87c5.82,3.75,11.06.06,12.24-8.61Z" style="opacity:0.2"></path><path d="M190.29,299.47a3.63,3.63,0,0,1,3.61.2,11.39,11.39,0,0,1,5.56,9l.73,39.57a1.94,1.94,0,0,1-.77,1.78L197,351.64a1.92,1.92,0,0,1-1.93-.09l-2.26-1.16a6.21,6.21,0,0,1-3-4.54l-3.26-41.16c-.13-1.76.39-3,1.33-3.62Z" style="fill:#263238"></path><path d="M195,351.55c1.53.78,2.74,0,2.71-1.7L197,310.29a11.38,11.38,0,0,0-5.56-9c-3-1.54-5.22,0-5,3.43l3.26,41.16a6.21,6.21,0,0,0,3,4.54Z" style="fill:#37474f"></path><path d="M190.29,299.47l-2.48,1.59a3.61,3.61,0,0,1,3.63.2,11.19,11.19,0,0,1,4.9,5.89l2.47-1.59a11.29,11.29,0,0,0-4.91-5.89A3.63,3.63,0,0,0,190.29,299.47Z" style="fill:#455a64"></path><path d="M187,310.13l2.23-1.44,2.6,1.34,3.18,64.48c-2.59,1.66-5.06,1.86-7.11.8L185.35,374c-2.57-1.31-4.49-4.59-5.15-9.42l-3.6-26.44C175.18,327.75,180.08,314.62,187,310.13Z" style="fill:#CE6691"></path><g style="opacity:0.2"><path d="M187,310.13l2.23-1.44,2.6,1.34,3.18,64.48c-2.59,1.66-5.06,1.86-7.11.8L185.35,374c-2.57-1.31-4.49-4.59-5.15-9.42l-3.6-26.44C175.18,327.75,180.08,314.62,187,310.13Z" style="fill:#fff"></path></g><path d="M195.05,374.51h0L191.87,310l-2.23,1.44c-6.95,4.48-11.85,17.62-10.44,28l3.6,26.45C184,374.57,189.23,378.26,195.05,374.51Z" style="fill:#CE6691"></path><path d="M195.05,374.51h0L191.87,310l-2.23,1.44c-6.95,4.48-11.85,17.62-10.44,28l3.6,26.45C184,374.57,189.23,378.26,195.05,374.51Z" style="opacity:0.2"></path><path d="M182.7,365.16c.58,4.23,4.88,5.66,7.78,2.26s3.84-7.68,3.19-20.78l1.38,27.87c-5.82,3.75-11.06.06-12.25-8.61Z" style="opacity:0.2"></path><path d="M274.46,209.48s0,0,0,.05a.6.6,0,0,1,0,.19s0,0,0,0c0,2.27,0,4.6,0,7,0,1.62-.05,3.26-.07,4.91,0,1.85-.07,3.7-.1,5.57,0,.11,0,.21,0,.31,0,1.21-.05,2.44-.08,3.66,0,1.79-.08,3.59-.14,5.39,0,1.25-.06,2.49-.1,3.75-.13,4.48-.28,8.93-.43,13.28q-.12,3.28-.25,6.47c0,.72-.06,1.43-.08,2.14,0,.31,0,.63-.05.94,0,.12,0,.26,0,.38a30.14,30.14,0,0,1-6.79,6.35,53.89,53.89,0,0,1-5.1,3c-1.8.8-3.56,1.7-5.44,2.32a70.42,70.42,0,0,1-46.42,0c-1.88-.62-3.64-1.52-5.44-2.32a53.89,53.89,0,0,1-5.1-3,29.81,29.81,0,0,1-6.8-6.36c0-.12,0-.24,0-.37h0c-.12-3.12-.24-6.35-.36-9.63,0-.68-.05-1.35-.07-2l-.07-2c-.1-3-.2-6.06-.29-9.11-.18-6.25-.34-12.55-.43-18.67,0-1.67,0-3.32-.07-5,0-2.36,0-4.69,0-7v0a.54.54,0,0,1,0-.18v-.06a30.65,30.65,0,0,0,7.83,6.52c1.66,1.06,3.49,1.87,5.24,2.76,1.83.71,3.63,1.54,5.54,2.07a78.88,78.88,0,0,0,46.6,0,54.3,54.3,0,0,0,5.54-2.09,58.05,58.05,0,0,0,5.24-2.75A30.74,30.74,0,0,0,274.46,209.48Z" style="fill:#f5f5f5"></path><path d="M192,263.52a14.3,14.3,0,0,1-.91-1.29c0-.06,0-.11,0-.17-.69-17.44-1.26-37-1.3-53.58.27.44.55.88.86,1.29,0,16.95.66,36.56,1.35,53.38C192,263.28,192,263.4,192,263.52Z" style="fill:#e0e0e0"></path><path d="M275.32,208.48c0,16.61-.61,36.13-1.3,53.57,0,.06,0,.11,0,.17a14.44,14.44,0,0,1-.91,1.3c0-.13,0-.26,0-.38.69-16.84,1.3-36.43,1.35-53.38C274.77,209.35,275.05,208.92,275.32,208.48Z" style="fill:#e0e0e0"></path><path d="M189.79,208.48c.27.44.55.88.86,1.29a30.39,30.39,0,0,0,7.33,7,50,50,0,0,0,10.8,5.43,72,72,0,0,0,47.56,0,49,49,0,0,0,10.79-5.42,30,30,0,0,0,7.33-7c.31-.41.59-.84.86-1.28Z" style="fill:#e0e0e0"></path><path d="M234.12,234.82a1.58,1.58,0,1,1-1.58-1.58A1.58,1.58,0,0,1,234.12,234.82Z" style="fill:#e0e0e0"></path><path d="M261,229.3a1.58,1.58,0,1,1-1.57-1.58A1.57,1.57,0,0,1,261,229.3Z" style="fill:#e0e0e0"></path><circle cx="205.7" cy="229.3" r="1.58" style="fill:#e0e0e0"></circle><path d="M192,263.52a29.81,29.81,0,0,0,6.8,6.36,53.89,53.89,0,0,0,5.1,3c1.8.8,3.56,1.7,5.44,2.32a70.42,70.42,0,0,0,46.42,0c1.88-.62,3.64-1.52,5.44-2.32a53.89,53.89,0,0,0,5.1-3,30.14,30.14,0,0,0,6.79-6.35l.91-1.3s-6.91,18.49-41.45,18.49-41.46-18.48-41.46-18.48Z" style="fill:#e0e0e0"></path><ellipse cx="232.56" cy="208.48" rx="42.76" ry="19.24" style="fill:#e0e0e0"></ellipse><path d="M274.46,191.3a30.7,30.7,0,0,1-7.82,6.51c-1.67,1.06-3.48,1.87-5.24,2.76a56.77,56.77,0,0,1-5.54,2.09,78.88,78.88,0,0,1-46.6,0c-1.91-.54-3.71-1.36-5.54-2.08-1.75-.89-3.58-1.7-5.24-2.75a30.86,30.86,0,0,1-7.83-6.52q0-4.41,0-8.53c0-.63,0-1.25,0-1.87,0-1.38.05-2.73.08-4,0-.82,0-1.63.06-2.41,0-1.46.09-2.88.14-4.24.06-1.2.12-2.37.18-3.49,0-.25,0-.51,0-.76q.13-2.18.3-4.08a96.64,96.64,0,0,1,7.71-29.31c-.07,5,3.19,9.94,9.77,13.75,13,7.52,34.12,7.52,47.15,0,6.58-3.79,9.84-8.77,9.77-13.75a96.64,96.64,0,0,1,7.71,29.31c.08.9.16,1.83.22,2.81s.12,1.8.17,2.75c0,.59.06,1.2.09,1.8.05.95.08,1.91.11,2.91.05,1.23.09,2.5.12,3.8C274.44,180.67,274.47,185.84,274.46,191.3Z" style="fill:#f5f5f5"></path><path d="M274.46,161.8a99.11,99.11,0,0,0-9.16-32.72,11.48,11.48,0,0,1,.6,3.49,96.64,96.64,0,0,1,7.71,29.31c.08.9.16,1.83.22,2.81s.12,1.81.17,2.75c0,.59.06,1.2.09,1.8.05.95.08,1.91.11,2.91.05,1.23.09,2.5.12,3.8.12,4.72.15,9.89.14,15.35,0,0,0,0,0,0a.6.6,0,0,1,0,.19s0,0,0,.05c.31-.42.59-.85.86-1.29v-1.21C275.32,178.2,275.08,168.62,274.46,161.8Zm-83.81,0c-.64,7.06-.88,17.08-.86,28.44v0c.27.44.55.88.86,1.3v-.05a.54.54,0,0,1,0-.18v-.05q0-4.41,0-8.53c0-.63,0-1.25,0-1.87,0-1.38.05-2.73.08-4,0-.82,0-1.63.06-2.41,0-1.46.09-2.88.14-4.24.06-1.2.12-2.37.18-3.49,0-.25,0-.51,0-.76q.13-2.18.3-4.08a96.64,96.64,0,0,1,7.71-29.31,11.39,11.39,0,0,1,.61-3.53A99.35,99.35,0,0,0,190.65,161.8Z" style="fill:#e0e0e0"></path><path d="M190.65,191.31a30.86,30.86,0,0,0,7.83,6.52c1.66,1,3.49,1.86,5.24,2.75,1.83.72,3.63,1.54,5.54,2.08a78.88,78.88,0,0,0,46.6,0,56.77,56.77,0,0,0,5.54-2.09c1.76-.89,3.57-1.7,5.24-2.76a30.7,30.7,0,0,0,7.82-6.51l.86-1s-8.12,17.14-42.76,17.14-42.77-17.19-42.77-17.19Z" style="fill:#e0e0e0"></path><ellipse cx="232.56" cy="132.72" rx="33.34" ry="19.24" style="fill:#e0e0e0"></ellipse><circle cx="232.56" cy="176.88" r="20.69" style="fill:#CE6691"></circle><circle cx="232.56" cy="176.88" r="20.69" style="opacity:0.15"></circle><circle cx="232.56" cy="179.29" r="20.69" transform="translate(4.63 364.43) rotate(-76.72)" style="fill:#CE6691"></circle><path d="M240,198.59l-6.69-18.39,17,9.78c.14-.23.27-.46.4-.7l-16.95-9.79L253,176.1c0-.27-.09-.54-.14-.8l-19.28,3.4,12.58-15c-.2-.18-.41-.36-.62-.52l-12.58,15V158.61h-.81v19.57l-12.58-15c-.21.16-.41.34-.62.52l12.58,15-19.27-3.4-.15.8,19.28,3.39-16.95,9.79c.13.24.26.47.4.7l17-9.78-6.7,18.39.76.27,6.7-18.39,6.69,18.39C239.51,198.78,239.76,198.68,240,198.59Z" style="opacity:0.2"></path><circle cx="232.56" cy="179.29" r="14.94" style="fill:#CE6691"></circle><circle cx="232.56" cy="179.29" r="14.94" style="opacity:0.15"></circle><path d="M232.56,164.34a14.93,14.93,0,0,0-14.87,13.53,14.93,14.93,0,0,0,29.74.09A14.94,14.94,0,0,0,232.56,164.34Z" style="fill:#CE6691"></path><path d="M232.56,164.34a14.93,14.93,0,0,0-14.87,13.53,14.93,14.93,0,0,0,29.74.09A14.94,14.94,0,0,0,232.56,164.34Z" style="fill:#fff;opacity:0.6000000000000001"></path><path d="M256.13,121.61c-13,7.53-34.13,7.53-47.15,0-8.14-4.7-11.2-11.21-9.16-17.28h0c.45-1,.89-1.91,1.36-2.85A158.43,158.43,0,0,1,229.55,62a4.23,4.23,0,0,1,6,0,159,159,0,0,1,28.33,39.39c.49,1,1,2,1.41,3C267.31,110.43,264.25,116.93,256.13,121.61Z" style="fill:#CE6691"></path><path d="M232.55,123c-8.16,0-15.77-1.8-21.42-5.07-5.95-3.43-8.59-7.8-7.29-12,.39-.84.78-1.67,1.19-2.49,9.28-18.78,17.86-28.89,23.09-35.72,0,0-9,16.17-10.85,30S225.58,118.27,232.55,123Z" style="opacity:0.15"></path><path d="M236,68.27a88.74,88.74,0,0,1,7.38,8.24c2.32,2.87,4.49,5.86,6.55,8.92,1,1.53,2,3.1,3,4.66s1.91,3.16,2.76,4.79a88.65,88.65,0,0,1,4.76,10l-5.91-9.3c-2-3.09-4-6.16-6-9.19s-4.1-6.06-6.19-9.08Z" style="fill:#fff;opacity:0.5"></path><path d="M235,63.14,232.54,39l-2.47,24.19h0a1.24,1.24,0,0,0,.73,1,3.84,3.84,0,0,0,3.49,0,1.23,1.23,0,0,0,.72-1Z" style="fill:#455a64"></path><path d="M226.15,94.9a.62.62,0,0,1-.14-.5.66.66,0,0,1,.26-.45l5.41-4.26.41-.29a.82.82,0,0,1,.46-.13h1.94a.66.66,0,0,1,.48.19.69.69,0,0,1,.2.48V106a.66.66,0,0,1-.2.48.67.67,0,0,1-.48.2h-2a.67.67,0,0,1-.48-.2.66.66,0,0,1-.2-.48V93.73l-3.53,2.76a.64.64,0,0,1-.49.14.74.74,0,0,1-.46-.26Z" style="fill:#263238"></path><path d="M234.13,177a2.8,2.8,0,0,0,1-1.22,3.65,3.65,0,0,0,.21-1.15,2.55,2.55,0,0,0-.62-1.73,3.36,3.36,0,0,0-4.08,0,4,4,0,0,0-.91,1.72.8.8,0,0,1-.3.49.72.72,0,0,1-.44.16h-2a.69.69,0,0,1-.49-.19.56.56,0,0,1-.19-.48,5.54,5.54,0,0,1,.58-2.12,5.68,5.68,0,0,1,1.33-1.75,6.59,6.59,0,0,1,4.37-1.62,6.63,6.63,0,0,1,2.72.52,5.72,5.72,0,0,1,1.89,1.32,5.26,5.26,0,0,1,1.11,1.79,5.69,5.69,0,0,1,.36,2,8.91,8.91,0,0,1-.07,1.18,3.72,3.72,0,0,1-.35,1.12,5.2,5.2,0,0,1-.8,1.17,10,10,0,0,1-1.39,1.31l-4.61,4.21h6.92a.67.67,0,0,1,.48.2.65.65,0,0,1,.2.47v1.77a.68.68,0,0,1-.68.68H226.73a.69.69,0,0,1-.48-.2.66.66,0,0,1-.19-.48v-1.52a1.16,1.16,0,0,1,.24-.73,2.57,2.57,0,0,1,.43-.44Z" style="fill:#263238"></path><path d="M237.93,246.85a.68.68,0,0,1,.67.67v1.77a.79.79,0,0,1-.19.51,3,3,0,0,1-.36.41l-3.63,3.84a7.47,7.47,0,0,1,2,.55,5.12,5.12,0,0,1,1.55,1,4.33,4.33,0,0,1,1,1.51,5.23,5.23,0,0,1,.35,1.94,5.07,5.07,0,0,1-.51,2.31,5,5,0,0,1-1.42,1.7,6.58,6.58,0,0,1-2.15,1.08,9.12,9.12,0,0,1-2.67.37,10,10,0,0,1-3-.41,7.25,7.25,0,0,1-2.14-1.06,4.52,4.52,0,0,1-1.31-1.47,4.2,4.2,0,0,1-.52-1.62.55.55,0,0,1,.18-.49.72.72,0,0,1,.49-.18h2a.56.56,0,0,1,.41.16,2,2,0,0,1,.33.46,2.39,2.39,0,0,0,.4.56,2.43,2.43,0,0,0,.66.47,4,4,0,0,0,1,.34,8.13,8.13,0,0,0,1.52.12,4.38,4.38,0,0,0,2.45-.61,1.94,1.94,0,0,0,.93-1.73,1.67,1.67,0,0,0-.93-1.6,5.23,5.23,0,0,0-2.45-.49h-2.07a.65.65,0,0,1-.47-.2.61.61,0,0,1-.2-.47v-1.77A.84.84,0,0,1,230,254c.13-.16.25-.3.36-.41l3.49-3.67H227a.62.62,0,0,1-.48-.2.65.65,0,0,1-.2-.47v-1.77a.68.68,0,0,1,.68-.67Z" style="fill:#263238"></path><path d="M234.32,332.23a.67.67,0,0,1-.48-.2.65.65,0,0,1-.2-.47v-3h-7.72a.65.65,0,0,1-.47-.2.61.61,0,0,1-.2-.47V326.1a1.11,1.11,0,0,1,.16-.61c.11-.18.24-.36.38-.56l7.63-9.52a1.37,1.37,0,0,1,1-.62h1.89a.63.63,0,0,1,.48.2.65.65,0,0,1,.2.47v10h2.14a.68.68,0,0,1,.67.67v1.77a.61.61,0,0,1-.2.47.65.65,0,0,1-.47.2H237v3a.65.65,0,0,1-.2.47.67.67,0,0,1-.48.2Zm-.68-6.8v-5.34l-4.26,5.34Z" style="fill:#263238"></path><path d="M227.43,368.74a.63.63,0,0,1,.2-.48.65.65,0,0,1,.47-.2h9.37a.65.65,0,0,1,.47.2.67.67,0,0,1,.2.48v1.76a.68.68,0,0,1-.67.68h-7l-.28,3.19a4.4,4.4,0,0,1,1.33-.33c.45,0,.81-.05,1.09-.05a8.62,8.62,0,0,1,2.59.38,5.88,5.88,0,0,1,2.07,1.11,5.2,5.2,0,0,1,1.37,1.8,5.86,5.86,0,0,1,.5,2.47,6.65,6.65,0,0,1-.51,2.73,5.18,5.18,0,0,1-1.4,1.87,5.63,5.63,0,0,1-2.08,1.07,9.5,9.5,0,0,1-2.54.33,9.81,9.81,0,0,1-3-.39,6,6,0,0,1-2-1.09,4.67,4.67,0,0,1-1.22-1.57,5,5,0,0,1-.46-1.85.55.55,0,0,1,.19-.49.73.73,0,0,1,.48-.19h2a.68.68,0,0,1,.45.17.81.81,0,0,1,.28.43,2.14,2.14,0,0,0,.47.94,2.33,2.33,0,0,0,.75.57,3,3,0,0,0,.94.28,7.8,7.8,0,0,0,1.1.08,3.34,3.34,0,0,0,2.29-.77,2.69,2.69,0,0,0,.87-2.12,2.36,2.36,0,0,0-.87-1.87,3.44,3.44,0,0,0-2.29-.77,5.18,5.18,0,0,0-1.18.11,2.73,2.73,0,0,0-.71.26l-.5.26a1.22,1.22,0,0,1-.58.12h-2.29a.65.65,0,0,1-.47-.2.63.63,0,0,1-.2-.48Z" style="fill:#e0e0e0"></path></g><g id="freepik--Closure--inject-16"><path d="M161.53,388.72a2.61,2.61,0,1,1-2.6-2.6A2.61,2.61,0,0,1,161.53,388.72Z" style="fill:#CE6691"></path><path d="M158.93,389.19H82.7a.47.47,0,0,1,0-.93h76.23a.47.47,0,0,1,0,.93Z" style="fill:#CE6691"></path><circle cx="57.49" cy="388.72" r="25.21" style="fill:#fff"></circle><path d="M57.49,414.49a25.77,25.77,0,1,1,25.76-25.77A25.8,25.8,0,0,1,57.49,414.49Zm0-50.42a24.66,24.66,0,1,0,24.65,24.65A24.68,24.68,0,0,0,57.49,364.07Z" style="fill:#CE6691"></path><g id="freepik--Check--inject-16"><path d="M52.94,402.39a2.49,2.49,0,0,1-2-1l-8-10.29a2.52,2.52,0,1,1,4-3.1l6,7.73L68,376.05a2.52,2.52,0,1,1,4,3.06L54.94,401.4a2.53,2.53,0,0,1-2,1Z" style="fill:#455a64"></path></g><path d="M104.64,381.88a.26.26,0,0,1,.09-.18.27.27,0,0,1,.17-.06h.72a.24.24,0,0,1,.18.07.21.21,0,0,1,.07.17,2.19,2.19,0,0,1-.19.74,1.81,1.81,0,0,1-.48.67,2.34,2.34,0,0,1-.82.48,3.27,3.27,0,0,1-1.19.19,3.09,3.09,0,0,1-1.1-.18,2.25,2.25,0,0,1-1.33-1.3,3.24,3.24,0,0,1-.22-1c0-.23,0-.48,0-.76s0-.52,0-.75a3.18,3.18,0,0,1,.22-1,2.27,2.27,0,0,1,.52-.79,2.24,2.24,0,0,1,.81-.51,3.09,3.09,0,0,1,1.1-.19,3.49,3.49,0,0,1,1.19.19,2.52,2.52,0,0,1,.82.49,1.81,1.81,0,0,1,.48.67,2.26,2.26,0,0,1,.19.73.24.24,0,0,1-.07.18.29.29,0,0,1-.18.07h-.72a.32.32,0,0,1-.18-.06.26.26,0,0,1-.09-.18.93.93,0,0,0-.13-.35,1.31,1.31,0,0,0-.27-.31,1.44,1.44,0,0,0-.43-.22,2.25,2.25,0,0,0-.61-.08,1.67,1.67,0,0,0-.62.11,1.19,1.19,0,0,0-.43.28,1.16,1.16,0,0,0-.27.44,1.52,1.52,0,0,0-.11.53c0,.23,0,.48,0,.75s0,.53,0,.76a1.62,1.62,0,0,0,.11.54,1.17,1.17,0,0,0,.27.42,1.21,1.21,0,0,0,.43.29,1.67,1.67,0,0,0,.62.11,1.91,1.91,0,0,0,.61-.09,1.24,1.24,0,0,0,.43-.22,1.13,1.13,0,0,0,.28-.3A1.25,1.25,0,0,0,104.64,381.88Z" style="fill:#455a64"></path><path d="M111.11,382.75a.23.23,0,0,1,.17.07.28.28,0,0,1,.07.17v.64a.26.26,0,0,1-.07.17.23.23,0,0,1-.17.07h-4a.23.23,0,0,1-.17-.07.22.22,0,0,1-.07-.17v-5.81a.21.21,0,0,1,.07-.17.25.25,0,0,1,.17-.08h.73a.28.28,0,0,1,.25.25v4.93Z" style="fill:#455a64"></path><path d="M111.9,379.92a3.34,3.34,0,0,1,.19-.95,2.3,2.3,0,0,1,.49-.77,2.4,2.4,0,0,1,.81-.52,3.11,3.11,0,0,1,1.15-.2,3.34,3.34,0,0,1,1.15.19,2.4,2.4,0,0,1,.81.52,2.34,2.34,0,0,1,.49.78,2.92,2.92,0,0,1,.2.95c0,.12,0,.24,0,.38s0,.28,0,.43,0,.29,0,.43,0,.26,0,.37a3.21,3.21,0,0,1-.19,1,2.25,2.25,0,0,1-.49.78,2.2,2.2,0,0,1-.82.51,3.58,3.58,0,0,1-2.3,0,2.11,2.11,0,0,1-1.3-1.29,3.21,3.21,0,0,1-.19-1c0-.11,0-.24,0-.37v-.86C111.89,380.16,111.89,380,111.9,379.92ZM116,380a1.44,1.44,0,0,0-.41-1,1.49,1.49,0,0,0-1-.35,1.46,1.46,0,0,0-1,.35,1.49,1.49,0,0,0-.42,1c0,.23,0,.48,0,.76s0,.53,0,.76a1.32,1.32,0,0,0,1.43,1.35,1.49,1.49,0,0,0,1-.35,1.42,1.42,0,0,0,.41-1c0-.23,0-.48,0-.76S116,380.2,116,380Z" style="fill:#455a64"></path><path d="M120.54,377.48a3.14,3.14,0,0,1,1.06.17,2.54,2.54,0,0,1,.77.4,1.79,1.79,0,0,1,.46.54,1.39,1.39,0,0,1,.17.55.2.2,0,0,1-.06.18.28.28,0,0,1-.18.06h-.63a.37.37,0,0,1-.23-.06.67.67,0,0,1-.14-.15,1.21,1.21,0,0,0-.41-.4,1.59,1.59,0,0,0-.81-.16,2.14,2.14,0,0,0-.45.05,1.35,1.35,0,0,0-.37.14.76.76,0,0,0-.24.23.54.54,0,0,0-.09.31.59.59,0,0,0,.08.34.69.69,0,0,0,.29.22,3.37,3.37,0,0,0,.54.18l.82.18a5.45,5.45,0,0,1,.93.28,1.87,1.87,0,0,1,.64.38,1.24,1.24,0,0,1,.37.51,1.67,1.67,0,0,1,.12.65,1.6,1.6,0,0,1-.18.75,1.72,1.72,0,0,1-.51.6,2.72,2.72,0,0,1-.82.39,3.69,3.69,0,0,1-1.09.14,3.83,3.83,0,0,1-1-.12,2.72,2.72,0,0,1-.81-.35,2,2,0,0,1-.58-.55,1.54,1.54,0,0,1-.24-.72.21.21,0,0,1,.07-.18.28.28,0,0,1,.17-.07h.63a.4.4,0,0,1,.24.06.42.42,0,0,1,.13.16,1.19,1.19,0,0,0,.16.23.83.83,0,0,0,.24.21,1.5,1.5,0,0,0,.38.15,2.26,2.26,0,0,0,.57.06,4.22,4.22,0,0,0,.52,0,1.49,1.49,0,0,0,.45-.14,1,1,0,0,0,.3-.23.51.51,0,0,0,.12-.35.41.41,0,0,0-.13-.32.91.91,0,0,0-.38-.22c-.17-.06-.38-.11-.63-.17s-.55-.12-.88-.21a4.21,4.21,0,0,1-.78-.25,1.66,1.66,0,0,1-.56-.37,1.25,1.25,0,0,1-.33-.51,2,2,0,0,1-.11-.69,1.6,1.6,0,0,1,.18-.75,1.74,1.74,0,0,1,.5-.58,2.42,2.42,0,0,1,.75-.39A3.14,3.14,0,0,1,120.54,377.48Z" style="fill:#455a64"></path><path d="M129.08,377.57a.25.25,0,0,1,.17.08.21.21,0,0,1,.07.17v3.69a2.87,2.87,0,0,1-.16,1,2,2,0,0,1-.49.78,2.19,2.19,0,0,1-.81.5,3.43,3.43,0,0,1-1.12.17,3.49,3.49,0,0,1-1.13-.17,2.36,2.36,0,0,1-.81-.5,2.14,2.14,0,0,1-.48-.78,3.13,3.13,0,0,1-.15-1v-3.69a.21.21,0,0,1,.07-.17.23.23,0,0,1,.17-.08h.73a.25.25,0,0,1,.17.08.21.21,0,0,1,.07.17v3.64a1.67,1.67,0,0,0,.1.63,1.11,1.11,0,0,0,.28.43,1.07,1.07,0,0,0,.43.24,1.93,1.93,0,0,0,1.1,0,1,1,0,0,0,.72-.67,1.65,1.65,0,0,0,.11-.63v-3.64a.21.21,0,0,1,.07-.17.23.23,0,0,1,.17-.08Z" style="fill:#455a64"></path><path d="M133.25,377.57a2.48,2.48,0,0,1,1.71.53,1.82,1.82,0,0,1,.58,1.44,2,2,0,0,1-.3,1.12,1.78,1.78,0,0,1-.89.69l1.24,2.23a.19.19,0,0,1,0,.1.2.2,0,0,1-.06.14.22.22,0,0,1-.14.05h-.76a.36.36,0,0,1-.27-.08l-.12-.16-1.18-2.1H131.9v2.1a.23.23,0,0,1-.08.17.21.21,0,0,1-.17.07h-.73a.23.23,0,0,1-.17-.07.22.22,0,0,1-.07-.17v-5.81a.21.21,0,0,1,.07-.17.25.25,0,0,1,.17-.08Zm-1.35,2.84h1.3a1.61,1.61,0,0,0,.82-.18.74.74,0,0,0,.31-.69.71.71,0,0,0-.31-.67,1.73,1.73,0,0,0-.82-.17h-1.3Z" style="fill:#455a64"></path><path d="M140.91,382.75a.23.23,0,0,1,.17.07.28.28,0,0,1,.07.17v.64a.26.26,0,0,1-.07.17.23.23,0,0,1-.17.07h-4a.23.23,0,0,1-.17-.07.22.22,0,0,1-.07-.17v-5.81a.21.21,0,0,1,.07-.17.25.25,0,0,1,.17-.08h3.88a.28.28,0,0,1,.25.25v.64a.25.25,0,0,1-.08.17.24.24,0,0,1-.17.07h-2.9v1.43h2.71a.23.23,0,0,1,.17.07.28.28,0,0,1,.07.17V381a.26.26,0,0,1-.07.17.23.23,0,0,1-.17.07h-2.71v1.5Z" style="fill:#455a64"></path></g><g id="freepik--Control--inject-16"><path d="M161.53,314.09a2.61,2.61,0,1,1-2.6-2.61A2.61,2.61,0,0,1,161.53,314.09Z" style="fill:#CE6691"></path><path d="M158.93,314.55H82.7a.46.46,0,0,1-.46-.46.45.45,0,0,1,.46-.46h76.23a.46.46,0,0,1,.46.46A.47.47,0,0,1,158.93,314.55Z" style="fill:#CE6691"></path><circle cx="57.49" cy="314.09" r="25.21" style="fill:#fff"></circle><path d="M57.49,339.85a25.77,25.77,0,1,1,25.76-25.76A25.8,25.8,0,0,1,57.49,339.85Zm0-50.42a24.66,24.66,0,1,0,24.65,24.66A24.68,24.68,0,0,0,57.49,289.43Z" style="fill:#CE6691"></path><g id="freepik--Glass--inject-16"><path d="M61.55,321.47a12.9,12.9,0,1,1,9.12-3.78A12.82,12.82,0,0,1,61.55,321.47Zm0-24.86A12,12,0,1,0,70,300.12,11.9,11.9,0,0,0,61.55,296.61Z" style="fill:#455a64"></path><path d="M61.55,318.29a9.72,9.72,0,1,1,6.87-2.84A9.71,9.71,0,0,1,61.55,318.29Zm0-18.51a8.8,8.8,0,1,0,6.22,2.58A8.75,8.75,0,0,0,61.55,299.78Z" style="fill:#455a64"></path><path d="M43,329.6a2.49,2.49,0,0,1-1.77-.74,2.52,2.52,0,0,1,0-3.54l7.61-7.6a.46.46,0,0,1,.65,0l2.89,2.89a.48.48,0,0,1,.13.32.47.47,0,0,1-.13.33l-7.61,7.6A2.46,2.46,0,0,1,43,329.6Zm6.16-10.9L41.92,326a1.57,1.57,0,0,0,0,2.23,1.61,1.61,0,0,0,2.23,0l7.28-7.28Z" style="fill:#455a64"></path><path d="M50.64,320a.46.46,0,0,1-.33-.78L52.44,317a.46.46,0,1,1,.65.65L51,319.82A.44.44,0,0,1,50.64,320Z" style="fill:#455a64"></path></g><path d="M103.62,307.19a.26.26,0,0,1,.09-.18.27.27,0,0,1,.17-.06h.73a.23.23,0,0,1,.17.07.19.19,0,0,1,.07.17,2.43,2.43,0,0,1-.18.74,2,2,0,0,1-.49.67,2.46,2.46,0,0,1-.81.49,3.53,3.53,0,0,1-1.2.18,3.09,3.09,0,0,1-1.1-.18,2.24,2.24,0,0,1-.81-.51,2.41,2.41,0,0,1-.52-.79,3.56,3.56,0,0,1-.22-1c0-.23,0-.48,0-.76s0-.52,0-.75a3.56,3.56,0,0,1,.22-1,2.41,2.41,0,0,1,.52-.79,2.24,2.24,0,0,1,.81-.51,3.09,3.09,0,0,1,1.1-.19,3.51,3.51,0,0,1,1.2.19,2.46,2.46,0,0,1,.81.49,2,2,0,0,1,.49.67,2.52,2.52,0,0,1,.18.73.21.21,0,0,1-.07.18.28.28,0,0,1-.17.07h-.73a.27.27,0,0,1-.17-.06.24.24,0,0,1-.1-.18,1,1,0,0,0-.13-.35,1,1,0,0,0-.27-.3,1.45,1.45,0,0,0-.43-.23,2.2,2.2,0,0,0-.61-.08,1.58,1.58,0,0,0-.61.11,1.22,1.22,0,0,0-.71.72,1.85,1.85,0,0,0-.11.53c0,.23,0,.48,0,.75s0,.53,0,.76a1.92,1.92,0,0,0,.11.54,1.17,1.17,0,0,0,.27.42,1.25,1.25,0,0,0,.44.29,1.58,1.58,0,0,0,.61.11,1.87,1.87,0,0,0,.61-.09,1.4,1.4,0,0,0,.44-.22,1.08,1.08,0,0,0,.27-.3A1,1,0,0,0,103.62,307.19Z" style="fill:#455a64"></path><path d="M105.69,305.23a3.34,3.34,0,0,1,.19-1,2.3,2.3,0,0,1,.49-.77,2.4,2.4,0,0,1,.81-.52,3.11,3.11,0,0,1,1.15-.2,3.34,3.34,0,0,1,1.15.19,2.28,2.28,0,0,1,.81.53,2.2,2.2,0,0,1,.49.77,2.92,2.92,0,0,1,.2,1c0,.12,0,.24,0,.38s0,.28,0,.43,0,.29,0,.43,0,.26,0,.37a3.21,3.21,0,0,1-.19,1,2.25,2.25,0,0,1-.49.78,2.35,2.35,0,0,1-.82.52,3.76,3.76,0,0,1-2.3,0,2.4,2.4,0,0,1-.81-.52,2.25,2.25,0,0,1-.49-.78,3.21,3.21,0,0,1-.19-1c0-.11,0-.24,0-.37v-.86C105.68,305.47,105.68,305.35,105.69,305.23Zm4.07,0a1.44,1.44,0,0,0-.41-1,1.49,1.49,0,0,0-1-.35,1.46,1.46,0,0,0-1,.35,1.49,1.49,0,0,0-.42,1c0,.23,0,.48,0,.76s0,.53,0,.76a1.32,1.32,0,0,0,1.43,1.35,1.49,1.49,0,0,0,1-.35,1.42,1.42,0,0,0,.41-1c0-.23,0-.48,0-.76S109.78,305.51,109.76,305.28Z" style="fill:#455a64"></path><path d="M116.25,309.18a.28.28,0,0,1-.23-.08l-.12-.12-2.52-3.75v3.71a.24.24,0,0,1-.24.24h-.73a.24.24,0,0,1-.24-.24v-5.81a.21.21,0,0,1,.07-.17.23.23,0,0,1,.17-.08H113a.29.29,0,0,1,.23.09l.12.12,2.52,3.75v-3.71A.21.21,0,0,1,116,303a.25.25,0,0,1,.17-.08h.73a.28.28,0,0,1,.25.25v5.81a.23.23,0,0,1-.08.17.21.21,0,0,1-.17.07Z" style="fill:#455a64"></path><path d="M122.72,302.88a.25.25,0,0,1,.18.08.24.24,0,0,1,.07.17v.64a.28.28,0,0,1-.07.17.29.29,0,0,1-.18.07H121.1v4.93a.24.24,0,0,1-.24.24h-.73a.23.23,0,0,1-.17-.07.22.22,0,0,1-.07-.17V304h-1.62a.26.26,0,0,1-.17-.07.23.23,0,0,1-.07-.17v-.64a.21.21,0,0,1,.07-.17.23.23,0,0,1,.17-.08Z" style="fill:#455a64"></path><path d="M126.43,302.88a2.48,2.48,0,0,1,1.71.53,1.83,1.83,0,0,1,.59,1.44,2,2,0,0,1-.3,1.13,1.87,1.87,0,0,1-.89.68l1.24,2.23a.19.19,0,0,1,0,.1.2.2,0,0,1-.06.14.24.24,0,0,1-.14.05h-.77a.34.34,0,0,1-.26-.08.51.51,0,0,1-.12-.16l-1.18-2.1h-1.2v2.1a.24.24,0,0,1-.24.24h-.73a.24.24,0,0,1-.24-.24v-5.81a.21.21,0,0,1,.07-.17.23.23,0,0,1,.17-.08Zm-1.35,2.84h1.31a1.63,1.63,0,0,0,.82-.18.74.74,0,0,0,.3-.69.7.7,0,0,0-.3-.67,1.75,1.75,0,0,0-.82-.17h-1.31Z" style="fill:#455a64"></path><path d="M129.68,305.23a3.34,3.34,0,0,1,.19-1,2.3,2.3,0,0,1,.49-.77,2.35,2.35,0,0,1,.82-.52,3,3,0,0,1,1.15-.2,3.28,3.28,0,0,1,1.14.19,2.28,2.28,0,0,1,.81.53,2.07,2.07,0,0,1,.49.77,2.92,2.92,0,0,1,.2,1c0,.12,0,.24,0,.38v.86c0,.13,0,.26,0,.37a3.21,3.21,0,0,1-.19,1,2.25,2.25,0,0,1-.49.78,2.35,2.35,0,0,1-.82.52,3.73,3.73,0,0,1-2.29,0,2.35,2.35,0,0,1-.82-.52,2.25,2.25,0,0,1-.49-.78,3.21,3.21,0,0,1-.19-1c0-.11,0-.24,0-.37s0-.28,0-.43,0-.29,0-.43S129.67,305.35,129.68,305.23Zm4.08,0a1.49,1.49,0,0,0-.42-1,1.46,1.46,0,0,0-1-.35,1.49,1.49,0,0,0-1,.35,1.44,1.44,0,0,0-.41,1c0,.23,0,.48,0,.76s0,.53,0,.76a1.42,1.42,0,0,0,.41,1,1.49,1.49,0,0,0,1,.35,1.32,1.32,0,0,0,1.43-1.35c0-.23,0-.48,0-.76S133.77,305.51,133.76,305.28Z" style="fill:#455a64"></path><path d="M140.35,308.06a.23.23,0,0,1,.17.07.28.28,0,0,1,.07.17v.64a.26.26,0,0,1-.07.17.23.23,0,0,1-.17.07H136.4a.23.23,0,0,1-.17-.07.22.22,0,0,1-.07-.17v-5.81a.21.21,0,0,1,.07-.17.25.25,0,0,1,.17-.08h.73a.28.28,0,0,1,.25.25v4.93Z" style="fill:#455a64"></path></g><g id="freepik--Excecution--inject-16"><path d="M161.53,239.45a2.61,2.61,0,1,1-2.6-2.61A2.6,2.6,0,0,1,161.53,239.45Z" style="fill:#CE6691"></path><path d="M158.93,239.91H82.7a.46.46,0,0,1-.46-.46.45.45,0,0,1,.46-.46h76.23a.46.46,0,0,1,.46.46A.47.47,0,0,1,158.93,239.91Z" style="fill:#CE6691"></path><circle cx="57.49" cy="239.45" r="25.21" style="fill:#fff"></circle><path d="M57.49,265.21a25.77,25.77,0,1,1,25.76-25.76A25.8,25.8,0,0,1,57.49,265.21Zm0-50.42a24.66,24.66,0,1,0,24.65,24.66A24.68,24.68,0,0,0,57.49,214.79Z" style="fill:#CE6691"></path><g id="freepik--Gear--inject-16"><path d="M59.72,256.42H55a.46.46,0,0,1-.46-.41l-.48-4.65A12.84,12.84,0,0,1,51,250.08L47.34,253a.46.46,0,0,1-.62,0l-3.33-3.33a.47.47,0,0,1,0-.62l2.95-3.63A12.84,12.84,0,0,1,45,242.32l-4.65-.48a.47.47,0,0,1-.41-.46v-4.72a.46.46,0,0,1,.41-.46l4.65-.48a13.09,13.09,0,0,1,1.28-3.1L43.35,229a.47.47,0,0,1,0-.62L46.72,225a.47.47,0,0,1,.62,0L51,228a12.84,12.84,0,0,1,3.09-1.28l.48-4.65a.47.47,0,0,1,.46-.42h4.72a.47.47,0,0,1,.46.42l.48,4.65A12.84,12.84,0,0,1,63.75,228l3.63-3a.47.47,0,0,1,.62,0l3.33,3.34a.47.47,0,0,1,0,.62l-3,3.62a13.09,13.09,0,0,1,1.28,3.1l4.65.48a.46.46,0,0,1,.41.46v4.72a.47.47,0,0,1-.41.46l-4.65.48a12.84,12.84,0,0,1-1.28,3.09l3,3.63a.47.47,0,0,1,0,.62L68,253a.46.46,0,0,1-.62,0l-3.63-2.94a12.84,12.84,0,0,1-3.09,1.28L60.18,256A.46.46,0,0,1,59.72,256.42Zm-4.3-.92H59.3l.47-4.56a.47.47,0,0,1,.35-.4,11.74,11.74,0,0,0,3.43-1.42.47.47,0,0,1,.54,0l3.55,2.89,2.75-2.75-2.89-3.56a.45.45,0,0,1,0-.53,11.58,11.58,0,0,0,1.42-3.43.47.47,0,0,1,.41-.35l4.55-.47v-3.88l-4.55-.47a.48.48,0,0,1-.41-.36,11.69,11.69,0,0,0-1.42-3.43.45.45,0,0,1,0-.53l2.89-3.55L67.64,226l-3.55,2.89a.49.49,0,0,1-.54,0,11.61,11.61,0,0,0-3.43-1.43.45.45,0,0,1-.35-.4l-.47-4.55H55.42L55,227.09a.45.45,0,0,1-.35.4,11.61,11.61,0,0,0-3.43,1.43.49.49,0,0,1-.54,0L47.08,226l-2.75,2.75,2.89,3.55a.45.45,0,0,1,0,.53,11.54,11.54,0,0,0-1.42,3.43.48.48,0,0,1-.41.36l-4.55.47V241l4.55.47a.47.47,0,0,1,.41.35,11.32,11.32,0,0,0,1.42,3.43.45.45,0,0,1,0,.53l-2.89,3.56,2.75,2.75,3.55-2.89a.47.47,0,0,1,.54,0,11.74,11.74,0,0,0,3.43,1.42.47.47,0,0,1,.35.4ZM74.3,241.38h0Z" style="fill:#455a64"></path><path d="M57.36,247.29A8.27,8.27,0,1,1,65.63,239,8.28,8.28,0,0,1,57.36,247.29Zm0-15.62A7.35,7.35,0,1,0,64.71,239,7.36,7.36,0,0,0,57.36,231.67Z" style="fill:#455a64"></path><circle cx="57.36" cy="239.02" r="3.61" style="fill:#455a64"></circle></g><path d="M97.66,233.37a.23.23,0,0,1,.17.07.28.28,0,0,1,.07.17v.64a.26.26,0,0,1-.07.17.23.23,0,0,1-.17.07h-4a.23.23,0,0,1-.17-.07.22.22,0,0,1-.07-.17v-5.81a.22.22,0,0,1,.07-.17.25.25,0,0,1,.17-.08h3.88a.21.21,0,0,1,.17.08.23.23,0,0,1,.08.17v.64a.25.25,0,0,1-.08.17.21.21,0,0,1-.17.07h-2.9v1.43h2.71a.23.23,0,0,1,.17.07.28.28,0,0,1,.07.17v.64a.24.24,0,0,1-.07.17.25.25,0,0,1-.17.08H94.68v1.49Z" style="fill:#455a64"></path><path d="M103.09,234.49a.33.33,0,0,1-.26-.09l-.12-.13-1.43-2-1.42,2-.12.13a.33.33,0,0,1-.26.09h-.75a.24.24,0,0,1-.18-.07.26.26,0,0,1-.07-.17.22.22,0,0,1,0-.1l2.06-2.87-2-2.74a.22.22,0,0,1,0-.1.26.26,0,0,1,.07-.17.25.25,0,0,1,.18-.08h.75a.37.37,0,0,1,.26.09l.12.14,1.36,1.9,1.35-1.9.12-.14a.37.37,0,0,1,.26-.09h.75a.21.21,0,0,1,.17.08.23.23,0,0,1,.08.17.22.22,0,0,1,0,.1l-2,2.78,2,2.83a.22.22,0,0,1,0,.1.22.22,0,0,1-.07.17.23.23,0,0,1-.17.07Z" style="fill:#455a64"></path><path d="M108.57,232.5a.27.27,0,0,1,.1-.18.25.25,0,0,1,.16-.06h.73a.24.24,0,0,1,.18.07.19.19,0,0,1,.06.18,2,2,0,0,1-.18.73,1.81,1.81,0,0,1-.48.67,2.63,2.63,0,0,1-.82.49,3.53,3.53,0,0,1-1.2.18,3,3,0,0,1-1.09-.18,2.24,2.24,0,0,1-.81-.51,2.14,2.14,0,0,1-.52-.79,3,3,0,0,1-.22-1c0-.23,0-.48,0-.76s0-.52,0-.75a3,3,0,0,1,.22-1,2.14,2.14,0,0,1,.52-.79,2.24,2.24,0,0,1,.81-.51,3,3,0,0,1,1.09-.19,3.51,3.51,0,0,1,1.2.19,2.63,2.63,0,0,1,.82.49,1.81,1.81,0,0,1,.48.67,2,2,0,0,1,.18.73.19.19,0,0,1-.06.18.29.29,0,0,1-.18.07h-.73a.29.29,0,0,1-.17-.06.32.32,0,0,1-.1-.18,1,1,0,0,0-.12-.35,1.27,1.27,0,0,0-.27-.3,1.34,1.34,0,0,0-.43-.22,1.93,1.93,0,0,0-.62-.09,1.62,1.62,0,0,0-.61.11,1.35,1.35,0,0,0-.44.29,1.43,1.43,0,0,0-.27.43,1.85,1.85,0,0,0-.11.53c0,.23,0,.48,0,.75s0,.53,0,.76a1.92,1.92,0,0,0,.11.54,1.51,1.51,0,0,0,.27.42,1.35,1.35,0,0,0,.44.29,1.62,1.62,0,0,0,.61.11,1.93,1.93,0,0,0,.62-.09,1.34,1.34,0,0,0,.43-.22,1.13,1.13,0,0,0,.28-.3A1.21,1.21,0,0,0,108.57,232.5Z" style="fill:#455a64"></path><path d="M115.05,233.37a.22.22,0,0,1,.17.07.23.23,0,0,1,.07.17v.64a.24.24,0,0,1-.24.24h-4a.24.24,0,0,1-.24-.24v-5.81a.22.22,0,0,1,.07-.17.23.23,0,0,1,.17-.08H115a.23.23,0,0,1,.17.08.22.22,0,0,1,.07.17v.64a.23.23,0,0,1-.07.17.22.22,0,0,1-.17.07h-2.91v1.43h2.71a.22.22,0,0,1,.17.07.23.23,0,0,1,.07.17v.64a.21.21,0,0,1-.07.17.23.23,0,0,1-.17.08h-2.71v1.49Z" style="fill:#455a64"></path><path d="M120.23,232.5a.26.26,0,0,1,.09-.18.27.27,0,0,1,.17-.06h.73a.23.23,0,0,1,.17.07.2.2,0,0,1,.07.18,2.19,2.19,0,0,1-.19.73,1.81,1.81,0,0,1-.48.67,2.52,2.52,0,0,1-.82.49,3.47,3.47,0,0,1-1.19.18,3.09,3.09,0,0,1-1.1-.18,2.24,2.24,0,0,1-.81-.51,2.27,2.27,0,0,1-.52-.79,3.56,3.56,0,0,1-.22-1c0-.23,0-.48,0-.76s0-.52,0-.75a3.56,3.56,0,0,1,.22-1,2.27,2.27,0,0,1,.52-.79,2.24,2.24,0,0,1,.81-.51,3.09,3.09,0,0,1,1.1-.19,3.45,3.45,0,0,1,1.19.19,2.52,2.52,0,0,1,.82.49,1.81,1.81,0,0,1,.48.67,2.26,2.26,0,0,1,.19.73.2.2,0,0,1-.07.18.28.28,0,0,1-.17.07h-.73a.27.27,0,0,1-.17-.06.24.24,0,0,1-.1-.18,1,1,0,0,0-.13-.35,1,1,0,0,0-.27-.3,1.24,1.24,0,0,0-.43-.22,1.87,1.87,0,0,0-.61-.09,1.58,1.58,0,0,0-.61.11,1.25,1.25,0,0,0-.44.29,1.12,1.12,0,0,0-.27.43,1.85,1.85,0,0,0-.11.53c0,.23,0,.48,0,.75s0,.53,0,.76a1.92,1.92,0,0,0,.11.54,1.17,1.17,0,0,0,.27.42,1.25,1.25,0,0,0,.44.29,1.58,1.58,0,0,0,.61.11,1.87,1.87,0,0,0,.61-.09,1.4,1.4,0,0,0,.44-.22,1.27,1.27,0,0,0,.27-.3A1,1,0,0,0,120.23,232.5Z" style="fill:#455a64"></path><path d="M127.38,228.19a.21.21,0,0,1,.17.08.23.23,0,0,1,.08.17v3.69a2.93,2.93,0,0,1-.17,1,2.18,2.18,0,0,1-.48.77,2.22,2.22,0,0,1-.81.5,3.28,3.28,0,0,1-1.13.17,3.24,3.24,0,0,1-1.13-.17,2.1,2.1,0,0,1-.8-.5,1.93,1.93,0,0,1-.48-.77,2.93,2.93,0,0,1-.16-1v-3.69a.22.22,0,0,1,.07-.17.23.23,0,0,1,.17-.08h.73a.23.23,0,0,1,.17.08.22.22,0,0,1,.07.17v3.64a1.89,1.89,0,0,0,.1.63,1.11,1.11,0,0,0,.28.43,1.07,1.07,0,0,0,.43.24,1.93,1.93,0,0,0,1.1,0,1,1,0,0,0,.44-.24,1.13,1.13,0,0,0,.29-.43,1.89,1.89,0,0,0,.1-.63v-3.64a.22.22,0,0,1,.07-.17.25.25,0,0,1,.17-.08Z" style="fill:#455a64"></path><path d="M133.18,228.19a.25.25,0,0,1,.17.08.22.22,0,0,1,.07.17v.64a.24.24,0,0,1-.24.24h-1.62v4.93a.26.26,0,0,1-.07.17.24.24,0,0,1-.18.07h-.72a.24.24,0,0,1-.18-.07.26.26,0,0,1-.07-.17v-4.93h-1.62a.24.24,0,0,1-.24-.24v-.64a.22.22,0,0,1,.07-.17.25.25,0,0,1,.17-.08Z" style="fill:#455a64"></path><path d="M134.56,234.49a.23.23,0,0,1-.17-.07.22.22,0,0,1-.07-.17v-5.81a.22.22,0,0,1,.07-.17.25.25,0,0,1,.17-.08h.73a.21.21,0,0,1,.17.08.23.23,0,0,1,.08.17v5.81a.23.23,0,0,1-.08.17.21.21,0,0,1-.17.07Z" style="fill:#455a64"></path><path d="M136.72,230.54a3.35,3.35,0,0,1,.2-.95,2.15,2.15,0,0,1,.49-.77,2.22,2.22,0,0,1,.81-.52,3.07,3.07,0,0,1,1.15-.2,3.24,3.24,0,0,1,1.14.19,2.12,2.12,0,0,1,.81.53,2.33,2.33,0,0,1,.5.77,3.21,3.21,0,0,1,.2.95c0,.12,0,.24,0,.38v.86c0,.13,0,.26,0,.37a3.21,3.21,0,0,1-.2.95,2.11,2.11,0,0,1-.49.78,2.31,2.31,0,0,1-.81.52,3.35,3.35,0,0,1-1.15.18,3.31,3.31,0,0,1-1.15-.18,2.22,2.22,0,0,1-.81-.52,2.11,2.11,0,0,1-.49-.78,3.21,3.21,0,0,1-.2-.95c0-.11,0-.24,0-.37v-.86C136.71,230.78,136.72,230.66,136.72,230.54Zm4.08.05a1.36,1.36,0,0,0-.42-1,1.6,1.6,0,0,0-2,0,1.36,1.36,0,0,0-.42,1c0,.23,0,.48,0,.76s0,.53,0,.76a1.38,1.38,0,0,0,.42,1,1.63,1.63,0,0,0,2,0,1.38,1.38,0,0,0,.42-1c0-.23,0-.48,0-.76S140.81,230.82,140.8,230.59Z" style="fill:#455a64"></path><path d="M147.29,234.49a.32.32,0,0,1-.24-.08l-.11-.12-2.52-3.75v3.71a.26.26,0,0,1-.07.17.23.23,0,0,1-.17.07h-.73a.21.21,0,0,1-.17-.07.23.23,0,0,1-.08-.17v-5.81a.23.23,0,0,1,.08-.17.21.21,0,0,1,.17-.08h.63a.29.29,0,0,1,.23.09l.12.12,2.52,3.75v-3.71a.22.22,0,0,1,.07-.17.23.23,0,0,1,.17-.08h.73a.23.23,0,0,1,.17.08.22.22,0,0,1,.07.17v5.81a.24.24,0,0,1-.24.24Z" style="fill:#455a64"></path></g><g id="freepik--Planning--inject-16"><path d="M161.53,164.81a2.61,2.61,0,1,1-2.6-2.6A2.6,2.6,0,0,1,161.53,164.81Z" style="fill:#CE6691"></path><path d="M158.93,165.27H82.7a.45.45,0,0,1-.46-.46.46.46,0,0,1,.46-.46h76.23a.47.47,0,0,1,.46.46A.46.46,0,0,1,158.93,165.27Z" style="fill:#CE6691"></path><circle cx="57.49" cy="164.81" r="25.21" transform="translate(-114.4 195.15) rotate(-80.78)" style="fill:#fff"></circle><path d="M57.49,190.58a25.77,25.77,0,1,1,25.76-25.77A25.8,25.8,0,0,1,57.49,190.58Zm0-50.43a24.66,24.66,0,1,0,24.65,24.66A24.68,24.68,0,0,0,57.49,140.15Z" style="fill:#CE6691"></path><g id="freepik--Pencil--inject-16"><path d="M54.93,175.79a.46.46,0,0,1-.33-.13L45,166.1a.47.47,0,0,1,0-.66l15.72-15.72a.46.46,0,0,1,.65,0L71,159.28a.47.47,0,0,1,0,.66L55.25,175.66A.44.44,0,0,1,54.93,175.79Zm-8.91-10,8.91,8.91L70,159.61l-8.91-8.91Z" style="fill:#455a64"></path><path d="M41.82,179.34a.51.51,0,0,1-.33-.13.47.47,0,0,1-.12-.45l3.55-13.11a.46.46,0,1,1,.89.24l-3.34,12.34,12.34-3.34a.45.45,0,0,1,.56.32.46.46,0,0,1-.32.57l-13.11,3.55Z" style="fill:#455a64"></path><polygon points="42.85 175.07 45.63 177.85 41.82 178.88 42.85 175.07" style="fill:#455a64"></polygon><path d="M51.74,172.61a.47.47,0,0,1-.33-.14.46.46,0,0,1,0-.65L67.14,156.1a.46.46,0,0,1,.65.65L52.07,172.47A.47.47,0,0,1,51.74,172.61Z" style="fill:#455a64"></path><path d="M48.55,169.42a.45.45,0,0,1-.32-.14.46.46,0,0,1,0-.65L64,152.91a.46.46,0,0,1,.65.65L48.88,169.28A.47.47,0,0,1,48.55,169.42Z" style="fill:#455a64"></path><path d="M70.65,160.07a.44.44,0,0,1-.32-.13.46.46,0,0,1,0-.66l.14-.13a6.3,6.3,0,1,0-8.91-8.91l-.14.13a.45.45,0,0,1-.65,0,.46.46,0,0,1,0-.65l.14-.14A7.22,7.22,0,1,1,71.11,159.8l-.13.14A.46.46,0,0,1,70.65,160.07Z" style="fill:#455a64"></path><rect x="58.04" y="154.39" width="13.52" height="3.02" transform="translate(129.21 -0.16) rotate(45)" style="fill:#455a64"></rect></g><path d="M101.35,153.51A2.53,2.53,0,0,1,103,154a1.86,1.86,0,0,1,.6,1.5A1.88,1.88,0,0,1,103,157a2.48,2.48,0,0,1-1.69.53H99.91v2a.21.21,0,0,1-.07.17.25.25,0,0,1-.17.08h-.73a.28.28,0,0,1-.25-.25v-5.81a.23.23,0,0,1,.08-.17.21.21,0,0,1,.17-.07Zm-1.44,2.92h1.39a1.48,1.48,0,0,0,.82-.2.78.78,0,0,0,.31-.71.76.76,0,0,0-.31-.7,1.58,1.58,0,0,0-.82-.19H99.91Z" style="fill:#455a64"></path><path d="M108.81,158.68a.26.26,0,0,1,.17.07.23.23,0,0,1,.07.17v.64a.21.21,0,0,1-.07.17.23.23,0,0,1-.17.08h-3.94a.23.23,0,0,1-.17-.08.21.21,0,0,1-.07-.17v-5.81a.24.24,0,0,1,.24-.24h.73a.23.23,0,0,1,.17.07.22.22,0,0,1,.07.17v4.93Z" style="fill:#455a64"></path><path d="M112.88,153.51a.27.27,0,0,1,.21.07.7.7,0,0,1,.13.23l2.21,5.69v.06a.21.21,0,0,1-.07.17.23.23,0,0,1-.17.08h-.65a.34.34,0,0,1-.25-.08.44.44,0,0,1-.1-.15l-.39-1H111l-.39,1a.33.33,0,0,1-.1.15.32.32,0,0,1-.25.08h-.64a.25.25,0,0,1-.18-.08.24.24,0,0,1-.07-.17s0,0,0-.06l2.21-5.69a.55.55,0,0,1,.12-.23.29.29,0,0,1,.22-.07Zm.49,4-1-2.57-1,2.57Z" style="fill:#455a64"></path><path d="M120.34,159.81a.36.36,0,0,1-.24-.08l-.11-.13-2.52-3.75v3.71a.24.24,0,0,1-.07.17.25.25,0,0,1-.18.08h-.72a.28.28,0,0,1-.25-.25v-5.81a.23.23,0,0,1,.08-.17.21.21,0,0,1,.17-.07h.63a.28.28,0,0,1,.23.08l.12.12,2.52,3.75v-3.71a.24.24,0,0,1,.24-.24H121a.24.24,0,0,1,.24.24v5.81a.21.21,0,0,1-.07.17.23.23,0,0,1-.17.08Z" style="fill:#455a64"></path><path d="M126.7,159.81a.32.32,0,0,1-.23-.08l-.12-.13-2.52-3.75v3.71a.21.21,0,0,1-.07.17.25.25,0,0,1-.17.08h-.73a.23.23,0,0,1-.17-.08.21.21,0,0,1-.07-.17v-5.81a.24.24,0,0,1,.24-.24h.63a.28.28,0,0,1,.23.08.66.66,0,0,1,.12.12l2.52,3.75v-3.71a.22.22,0,0,1,.07-.17.23.23,0,0,1,.17-.07h.73a.21.21,0,0,1,.17.07.23.23,0,0,1,.08.17v5.81a.28.28,0,0,1-.25.25Z" style="fill:#455a64"></path><path d="M129.22,159.81a.25.25,0,0,1-.17-.08.21.21,0,0,1-.07-.17v-5.81a.22.22,0,0,1,.07-.17.23.23,0,0,1,.17-.07H130a.24.24,0,0,1,.24.24v5.81a.21.21,0,0,1-.07.17.23.23,0,0,1-.17.08Z" style="fill:#455a64"></path><path d="M135.68,159.81a.32.32,0,0,1-.23-.08l-.12-.13-2.52-3.75v3.71a.21.21,0,0,1-.07.17.23.23,0,0,1-.17.08h-.73a.23.23,0,0,1-.17-.08.21.21,0,0,1-.07-.17v-5.81a.24.24,0,0,1,.24-.24h.63a.28.28,0,0,1,.23.08.66.66,0,0,1,.12.12l2.52,3.75v-3.71a.26.26,0,0,1,.07-.17.24.24,0,0,1,.18-.07h.72a.21.21,0,0,1,.17.07.23.23,0,0,1,.08.17v5.81a.28.28,0,0,1-.25.25Z" style="fill:#455a64"></path><path d="M137.74,155.84a2.86,2.86,0,0,1,.19-1,2,2,0,0,1,.53-.76,2.19,2.19,0,0,1,.84-.5,3.68,3.68,0,0,1,1.16-.17,3.39,3.39,0,0,1,1.29.2,2.59,2.59,0,0,1,.81.48,1.61,1.61,0,0,1,.43.59,2.2,2.2,0,0,1,.14.51.21.21,0,0,1-.07.17.24.24,0,0,1-.18.07h-.72a.25.25,0,0,1-.16-.05.41.41,0,0,1-.09-.1,1,1,0,0,0-.09-.16,1,1,0,0,0-.25-.25,1.34,1.34,0,0,0-.43-.23,1.9,1.9,0,0,0-.68-.11,1.52,1.52,0,0,0-1.08.37,1.32,1.32,0,0,0-.43,1c0,.23,0,.47,0,.74s0,.5,0,.73a1.39,1.39,0,0,0,.43,1.08,1.61,1.61,0,0,0,1.08.34,2.45,2.45,0,0,0,.62-.07,1.53,1.53,0,0,0,.48-.23,1.13,1.13,0,0,0,.31-.43,1.61,1.61,0,0,0,.11-.65v-.08h-1.09a.21.21,0,0,1-.17-.07.23.23,0,0,1-.08-.17v-.64a.23.23,0,0,1,.08-.17.21.21,0,0,1,.17-.07H143a.23.23,0,0,1,.17.07.22.22,0,0,1,.07.17v1a3,3,0,0,1-.17,1,2.18,2.18,0,0,1-.52.78,2.25,2.25,0,0,1-.85.51,4,4,0,0,1-2.39,0,2.24,2.24,0,0,1-.83-.51,2.12,2.12,0,0,1-.51-.78,2.86,2.86,0,0,1-.19-1c0-.11,0-.24,0-.38v-.84C137.73,156.08,137.73,156,137.74,155.84Z" style="fill:#455a64"></path></g><g id="freepik--Idea--inject-16"><path d="M161.53,90.17a2.61,2.61,0,1,1-2.6-2.6A2.61,2.61,0,0,1,161.53,90.17Z" style="fill:#CE6691"></path><path d="M158.93,90.63H82.7a.45.45,0,0,1-.46-.46.46.46,0,0,1,.46-.46h76.23a.47.47,0,0,1,.46.46A.46.46,0,0,1,158.93,90.63Z" style="fill:#CE6691"></path><circle cx="57.49" cy="90.16" r="25.21" style="fill:#fff"></circle><path d="M57.49,115.92A25.77,25.77,0,1,1,83.25,90.16,25.79,25.79,0,0,1,57.49,115.92Zm0-50.42A24.66,24.66,0,1,0,82.14,90.16,24.68,24.68,0,0,0,57.49,65.5Z" style="fill:#CE6691"></path><g id="freepik--light-bulb--inject-16"><path d="M62.41,102.13l-10.1-.07v-.46c0-1.46-1.21-2.66-2.75-4.18C47.08,95,43.67,91.62,43.72,85a13.69,13.69,0,0,1,4.11-9.7,13.49,13.49,0,0,1,9.76-4A13.78,13.78,0,0,1,71.25,85.17c0,6.65-3.5,10-6,12.37-1.56,1.49-2.8,2.68-2.81,4.13Zm-9.2-1,8.31.06c.23-1.62,1.55-2.88,3.07-4.33,2.53-2.43,5.69-5.44,5.74-11.71A12.84,12.84,0,0,0,44.65,85c0,6.26,3.06,9.33,5.56,11.79C51.7,98.23,53,99.52,53.21,101.14Z" style="fill:#455a64"></path><path d="M59.62,101.93a.34.34,0,0,1-.34-.34,41.41,41.41,0,0,1,1.27-9.7,18.77,18.77,0,0,1,.86-2.68L61.5,89l-.23-.08a7.61,7.61,0,0,1-1.43-.71,10,10,0,0,1-2.2-1.88l-.18-.21-.18.21a10,10,0,0,1-2.23,1.84,7.27,7.27,0,0,1-1.44.69l-.23.08.09.23a22.06,22.06,0,0,1,.82,2.69,41.86,41.86,0,0,1,1.12,9.72.36.36,0,0,1-.38.33.33.33,0,0,1-.31-.35A42,42,0,0,0,53.62,92a19.93,19.93,0,0,0-.85-2.75l-.07-.17-.18,0a4.64,4.64,0,0,1-.63,0,3.18,3.18,0,0,1-2.39-.94,1.62,1.62,0,0,1-.22-2.09,1.33,1.33,0,0,1,1.07-.59,1.24,1.24,0,0,1,.27,0c.83.17,1.66,1,2.39,2.54l.09.19.2-.07a7,7,0,0,0,1.4-.65,9,9,0,0,0,2.23-1.9l.12-.14-.1-.14a4.07,4.07,0,0,1-.79-3.07,1.39,1.39,0,0,1,2.66,0A4.1,4.1,0,0,1,58,85.4l-.1.14.11.14a9.22,9.22,0,0,0,2.21,1.93,7.12,7.12,0,0,0,1.39.68l.2.06.09-.18c.74-1.46,1.6-2.35,2.42-2.51l.25,0a1.34,1.34,0,0,1,1.09.6,1.61,1.61,0,0,1-.25,2.09,3.18,3.18,0,0,1-2.35.91,4.08,4.08,0,0,1-.68-.06l-.18,0-.07.17a18.59,18.59,0,0,0-.9,2.73A40.62,40.62,0,0,0,60,101.58a.35.35,0,0,1-.34.35Zm4.81-15.59c-.53.1-1.18.77-1.78,1.85l-.18.32.38,0h.22a2.47,2.47,0,0,0,1.82-.69.94.94,0,0,0,.19-1.22.64.64,0,0,0-.52-.32h0Zm-14.07-.13a.67.67,0,0,0-.53.32A1,1,0,0,0,50,87.75a2.52,2.52,0,0,0,1.86.71H52l.37,0-.17-.33C51.66,87,51,86.34,50.49,86.23ZM57.48,82a.62.62,0,0,0-.66.48,3,3,0,0,0,.44,2.08l.21.39.21-.38a3,3,0,0,0,.48-2.08.64.64,0,0,0-.67-.49Z" style="fill:#455a64"></path><path d="M57.45,109a3.68,3.68,0,0,1-3.68-3.68v-.46h7.37v.46A3.69,3.69,0,0,1,57.45,109Zm-2.72-3.22a2.76,2.76,0,0,0,5.45,0Z" style="fill:#455a64"></path><path d="M60.55,105.79H54.17a1.86,1.86,0,0,1-1.86-1.86v-2.79h10.1v2.79A1.86,1.86,0,0,1,60.55,105.79Zm-7.32-3.73v1.87a1,1,0,0,0,.94.94h6.38a1,1,0,0,0,.94-.94v-1.87Z" style="fill:#455a64"></path></g><path d="M98.84,85.12a.23.23,0,0,1-.17-.08.21.21,0,0,1-.07-.17V79.06a.24.24,0,0,1,.24-.24h.73a.23.23,0,0,1,.17.07.22.22,0,0,1,.07.17v5.81a.21.21,0,0,1-.07.17.25.25,0,0,1-.17.08Z" style="fill:#455a64"></path><path d="M105.3,85.12a.32.32,0,0,1-.23-.08l-.12-.13-2.52-3.74v3.7a.21.21,0,0,1-.07.17.25.25,0,0,1-.17.08h-.73a.23.23,0,0,1-.17-.08.21.21,0,0,1-.07-.17V79.06a.24.24,0,0,1,.24-.24h.63a.28.28,0,0,1,.23.08.66.66,0,0,1,.12.12L105,82.77V79.06a.22.22,0,0,1,.07-.17.23.23,0,0,1,.17-.07h.73a.24.24,0,0,1,.24.24v5.81a.21.21,0,0,1-.07.17.23.23,0,0,1-.17.08Z" style="fill:#455a64"></path><path d="M107.82,85.12a.23.23,0,0,1-.17-.08.21.21,0,0,1-.07-.17V79.06a.24.24,0,0,1,.24-.24h.73a.24.24,0,0,1,.24.24v5.81a.21.21,0,0,1-.07.17.23.23,0,0,1-.17.08Z" style="fill:#455a64"></path><path d="M114.39,78.82a.24.24,0,0,1,.24.24v.64a.24.24,0,0,1-.24.24h-1.62v4.93a.21.21,0,0,1-.07.17.25.25,0,0,1-.17.08h-.73a.23.23,0,0,1-.17-.08.21.21,0,0,1-.08-.17V79.94h-1.61a.24.24,0,0,1-.18-.07.26.26,0,0,1-.07-.17v-.64a.26.26,0,0,1,.07-.17.24.24,0,0,1,.18-.07Z" style="fill:#455a64"></path><path d="M115.78,85.12a.28.28,0,0,1-.25-.25V79.06a.23.23,0,0,1,.08-.17.21.21,0,0,1,.17-.07h.73a.23.23,0,0,1,.17.07.26.26,0,0,1,.07.17v5.81a.24.24,0,0,1-.07.17.25.25,0,0,1-.17.08Z" style="fill:#455a64"></path><path d="M121.11,78.82a.29.29,0,0,1,.22.07.7.7,0,0,1,.13.23l2.2,5.69a.13.13,0,0,1,0,.06.21.21,0,0,1-.07.17.25.25,0,0,1-.17.08h-.65a.32.32,0,0,1-.25-.08.44.44,0,0,1-.1-.15l-.39-1H119.2l-.39,1a.44.44,0,0,1-.1.15.34.34,0,0,1-.25.08h-.65a.23.23,0,0,1-.17-.08.21.21,0,0,1-.07-.17.13.13,0,0,1,0-.06l2.2-5.69a.7.7,0,0,1,.13-.23.28.28,0,0,1,.21-.07Zm.5,4-1-2.57-1,2.57Z" style="fill:#455a64"></path><path d="M128,78.82a.21.21,0,0,1,.17.07.23.23,0,0,1,.08.17v.64a.23.23,0,0,1-.08.17.21.21,0,0,1-.17.07h-1.62v4.93a.21.21,0,0,1-.07.17.23.23,0,0,1-.17.08h-.73a.25.25,0,0,1-.17-.08.21.21,0,0,1-.07-.17V79.94h-1.62a.22.22,0,0,1-.17-.07.23.23,0,0,1-.08-.17v-.64a.23.23,0,0,1,.08-.17.22.22,0,0,1,.17-.07Z" style="fill:#455a64"></path><path d="M129.43,85.12a.23.23,0,0,1-.17-.08.21.21,0,0,1-.07-.17V79.06a.24.24,0,0,1,.24-.24h.73a.23.23,0,0,1,.17.07.22.22,0,0,1,.07.17v5.81a.21.21,0,0,1-.07.17.25.25,0,0,1-.17.08Z" style="fill:#455a64"></path><path d="M131.59,81.17a3.21,3.21,0,0,1,.19-1,2.25,2.25,0,0,1,.49-.78,2.4,2.4,0,0,1,.81-.52,3.58,3.58,0,0,1,2.3,0,2.26,2.26,0,0,1,.81.52,2.3,2.3,0,0,1,.49.77,3,3,0,0,1,.2,1c0,.11,0,.24,0,.37s0,.28,0,.43,0,.29,0,.43,0,.26,0,.38a3.34,3.34,0,0,1-.19,1,2.3,2.3,0,0,1-.49.77,2.35,2.35,0,0,1-.82.52,3.58,3.58,0,0,1-2.3,0,2.4,2.4,0,0,1-.81-.52,2.3,2.3,0,0,1-.49-.77,3.34,3.34,0,0,1-.19-1c0-.12,0-.24,0-.38s0-.28,0-.43,0-.29,0-.43S131.58,81.28,131.59,81.17Zm4.08,0a1.34,1.34,0,0,0-1.44-1.36,1.42,1.42,0,0,0-1,.36,1.45,1.45,0,0,0-.42,1c0,.23,0,.48,0,.76s0,.53,0,.76a1.32,1.32,0,0,0,1.43,1.35,1.49,1.49,0,0,0,1-.35,1.45,1.45,0,0,0,.42-1c0-.23,0-.48,0-.76S135.68,81.44,135.67,81.21Z" style="fill:#455a64"></path><path d="M142.15,85.12a.32.32,0,0,1-.23-.08l-.12-.13-2.52-3.74v3.7a.21.21,0,0,1-.07.17.23.23,0,0,1-.17.08h-.73a.25.25,0,0,1-.17-.08.21.21,0,0,1-.07-.17V79.06a.22.22,0,0,1,.07-.17.23.23,0,0,1,.17-.07h.63a.32.32,0,0,1,.24.08l.11.12,2.52,3.75V79.06a.26.26,0,0,1,.07-.17.24.24,0,0,1,.18-.07h.72a.24.24,0,0,1,.18.07.26.26,0,0,1,.07.17v5.81A.24.24,0,0,1,143,85a.25.25,0,0,1-.18.08Z" style="fill:#455a64"></path></g></svg>