<?xml version="1.0" encoding="UTF-8" standalone="no"?>
<!-- Created with Inkscape (http://www.inkscape.org/) -->

<svg
   width="24"
   height="24"
   viewBox="0 0 24 24"
   version="1.1"
   id="svg1"
   xml:space="preserve"
   inkscape:version="1.3 (1:1.3+202307231459+0e150ed6c4)"
   sodipodi:docname="sample.svg"
   inkscape:dataloss="true"
   xmlns:inkscape="http://www.inkscape.org/namespaces/inkscape"
   xmlns:sodipodi="http://sodipodi.sourceforge.net/DTD/sodipodi-0.dtd"
   xmlns="http://www.w3.org/2000/svg"
   xmlns:svg="http://www.w3.org/2000/svg"><sodipodi:namedview
     id="namedview1"
     pagecolor="#ffffff"
     bordercolor="#000000"
     borderopacity="0.25"
     inkscape:showpageshadow="2"
     inkscape:pageopacity="0.0"
     inkscape:pagecheckerboard="0"
     inkscape:deskcolor="#d1d1d1"
     inkscape:document-units="px"
     showgrid="false"
     inkscape:zoom="12.999327"
     inkscape:cx="13.693017"
     inkscape:cy="13.539163"
     inkscape:window-width="1280"
     inkscape:window-height="656"
     inkscape:window-x="0"
     inkscape:window-y="27"
     inkscape:window-maximized="1"
     inkscape:current-layer="svg1"><inkscape:grid
       id="grid1"
       units="px"
       originx="0"
       originy="0"
       spacingx="1"
       spacingy="1"
       empcolor="#0099e5"
       empopacity="0.30196078"
       color="#0099e5"
       opacity="0.14901961"
       empspacing="5"
       dotted="false"
       gridanglex="30"
       gridanglez="30"
       visible="false"
       snapvisiblegridlinesonly="false" /></sodipodi:namedview><defs
     id="defs1" /><path
     d="M 3.4545,0 20.5455,11.9955 3.4545,24 Z"
     id="path1"
     style="fill:#000000;stroke-width:1.5" /><rect
     style="font-variation-settings:'wght' 600;fill:#ffffff;fill-opacity:1;stroke:#ffffff;stroke-width:2.79597;stroke-linejoin:round;stroke-miterlimit:20;stroke-dasharray:none;stroke-opacity:1;paint-order:markers fill stroke"
     id="rect1"
     width="103.39577"
     height="11.765857"
     x="-56.108292"
     y="128.416" /><path
     style="fill:#000000;stroke-width:0;stroke-dasharray:none"
     d="M 53.416171,60.148133 H 49.723865 V 76.763518 H 68.185402 V 73.071197 H 53.416171 Z"
     id="path15" /><path
     id="path16"
     style="fill:#000000;stroke-width:0;stroke-dasharray:none"
     d="M 55.261719 54.609375 L 55.261719 71.224609 L 73.724609 71.224609 L 73.724609 54.609375 L 55.261719 54.609375 z M 60.052734 61.417969 A 1.4997457 1.4997457 0 0 1 60.179688 61.427734 A 1.4997457 1.4997457 0 0 1 60.306641 61.449219 A 1.4997457 1.4997457 0 0 1 60.429688 61.480469 A 1.4997457 1.4997457 0 0 1 60.550781 61.523438 A 1.4997457 1.4997457 0 0 1 60.667969 61.574219 A 1.4997457 1.4997457 0 0 1 60.779297 61.636719 A 1.4997457 1.4997457 0 0 1 60.884766 61.708984 A 1.4997457 1.4997457 0 0 1 60.984375 61.787109 A 1.4997457 1.4997457 0 0 1 61.078125 61.876953 A 1.4997457 1.4997457 0 0 1 61.162109 61.972656 A 1.4997457 1.4997457 0 0 1 61.238281 62.074219 A 1.4997457 1.4997457 0 0 1 61.306641 62.183594 A 1.4997457 1.4997457 0 0 1 61.363281 62.296875 A 1.4997457 1.4997457 0 0 1 61.412109 62.416016 A 1.4997457 1.4997457 0 0 1 61.449219 62.537109 A 1.4997457 1.4997457 0 0 1 61.476562 62.662109 A 1.4997457 1.4997457 0 0 1 61.492188 62.789062 A 1.4997457 1.4997457 0 0 1 61.498047 62.917969 A 1.5019759 1.5019759 0 0 1 61.458984 63.25 A 1.5019759 1.5019759 0 0 1 61.349609 63.566406 A 1.5019759 1.5019759 0 0 1 61.169922 63.851562 A 1.5019759 1.5019759 0 0 1 60.933594 64.087891 A 1.5019759 1.5019759 0 0 1 60.648438 64.267578 A 1.5019759 1.5019759 0 0 1 60.332031 64.378906 A 1.5019759 1.5019759 0 0 1 60 64.417969 A 1.4997457 1.4997457 0 0 1 59.644531 64.376953 A 1.4997457 1.4997457 0 0 1 59.310547 64.251953 A 1.4997457 1.4997457 0 0 1 59.013672 64.054688 A 1.4997457 1.4997457 0 0 1 58.773438 63.791016 A 1.4997457 1.4997457 0 0 1 58.601562 63.478516 A 1.4997457 1.4997457 0 0 1 58.507812 63.132812 A 1.4997457 1.4997457 0 0 1 58.5 62.777344 A 1.4997457 1.4997457 0 0 1 58.576172 62.427734 A 1.4997457 1.4997457 0 0 1 58.730469 62.107422 A 1.4997457 1.4997457 0 0 1 58.958984 61.832031 A 1.4997457 1.4997457 0 0 1 59.244141 61.617188 A 1.4997457 1.4997457 0 0 1 59.572266 61.478516 A 1.4997457 1.4997457 0 0 1 59.923828 61.419922 A 1.4997457 1.4997457 0 0 1 60.052734 61.417969 z M 69.046875 61.417969 A 1.4997457 1.4997457 0 0 1 69.175781 61.427734 A 1.4997457 1.4997457 0 0 1 69.300781 61.449219 A 1.4997457 1.4997457 0 0 1 69.425781 61.480469 A 1.4997457 1.4997457 0 0 1 69.544922 61.523438 A 1.4997457 1.4997457 0 0 1 69.662109 61.574219 A 1.4997457 1.4997457 0 0 1 69.773438 61.636719 A 1.4997457 1.4997457 0 0 1 69.880859 61.708984 A 1.4997457 1.4997457 0 0 1 69.980469 61.787109 A 1.4997457 1.4997457 0 0 1 70.072266 61.876953 A 1.4997457 1.4997457 0 0 1 70.158203 61.972656 A 1.4997457 1.4997457 0 0 1 70.234375 62.074219 A 1.4997457 1.4997457 0 0 1 70.300781 62.183594 A 1.4997457 1.4997457 0 0 1 70.359375 62.296875 A 1.4997457 1.4997457 0 0 1 70.40625 62.416016 A 1.4997457 1.4997457 0 0 1 70.445312 62.537109 A 1.4997457 1.4997457 0 0 1 70.470703 62.662109 A 1.4997457 1.4997457 0 0 1 70.488281 62.789062 A 1.4997457 1.4997457 0 0 1 70.492188 62.917969 A 1.5019759 1.5019759 0 0 1 70.455078 63.251953 A 1.5019759 1.5019759 0 0 1 70.34375 63.568359 A 1.5019759 1.5019759 0 0 1 70.164062 63.851562 A 1.5019759 1.5019759 0 0 1 69.927734 64.089844 A 1.5019759 1.5019759 0 0 1 69.642578 64.269531 A 1.5019759 1.5019759 0 0 1 69.326172 64.378906 A 1.5019759 1.5019759 0 0 1 68.992188 64.417969 A 1.4997457 1.4997457 0 0 1 68.636719 64.375 A 1.4997457 1.4997457 0 0 1 68.302734 64.251953 A 1.4997457 1.4997457 0 0 1 68.007812 64.052734 A 1.4997457 1.4997457 0 0 1 67.767578 63.789062 A 1.4997457 1.4997457 0 0 1 67.595703 63.476562 A 1.4997457 1.4997457 0 0 1 67.503906 63.130859 A 1.4997457 1.4997457 0 0 1 67.496094 62.775391 A 1.4997457 1.4997457 0 0 1 67.572266 62.425781 A 1.4997457 1.4997457 0 0 1 67.726562 62.105469 A 1.4997457 1.4997457 0 0 1 67.955078 61.832031 A 1.4997457 1.4997457 0 0 1 68.240234 61.617188 A 1.4997457 1.4997457 0 0 1 68.568359 61.478516 A 1.4997457 1.4997457 0 0 1 68.919922 61.419922 A 1.4997457 1.4997457 0 0 1 69.046875 61.417969 z M 64.429688 61.419922 A 1.4993741 1.4993741 0 0 1 64.572266 61.419922 A 1.4993741 1.4993741 0 0 1 64.714844 61.433594 A 1.4993741 1.4993741 0 0 1 64.855469 61.460938 A 1.4993741 1.4993741 0 0 1 64.992188 61.501953 A 1.4993741 1.4993741 0 0 1 65.125 61.554688 A 1.4993741 1.4993741 0 0 1 65.251953 61.619141 A 1.4993741 1.4993741 0 0 1 65.371094 61.697266 A 1.4993741 1.4993741 0 0 1 65.482422 61.785156 A 1.4993741 1.4993741 0 0 1 65.585938 61.884766 A 1.4993741 1.4993741 0 0 1 65.679688 61.992188 A 1.4993741 1.4993741 0 0 1 65.763672 62.107422 A 1.4993741 1.4993741 0 0 1 65.833984 62.232422 A 1.4993741 1.4993741 0 0 1 65.892578 62.361328 A 1.4993741 1.4993741 0 0 1 65.939453 62.496094 A 1.4993741 1.4993741 0 0 1 65.972656 62.634766 A 1.4993741 1.4993741 0 0 1 65.994141 62.777344 A 1.4993741 1.4993741 0 0 1 66 62.919922 A 1.5004891 1.5004891 0 0 1 65.962891 63.251953 A 1.5004891 1.5004891 0 0 1 65.851562 63.568359 A 1.5004891 1.5004891 0 0 1 65.671875 63.853516 A 1.5004891 1.5004891 0 0 1 65.435547 64.089844 A 1.5004891 1.5004891 0 0 1 65.150391 64.269531 A 1.5004891 1.5004891 0 0 1 64.833984 64.378906 A 1.5004891 1.5004891 0 0 1 64.5 64.417969 A 1.4993741 1.4993741 0 0 1 64.130859 64.369141 A 1.4993741 1.4993741 0 0 1 63.783203 64.232422 A 1.4993741 1.4993741 0 0 1 63.480469 64.013672 A 1.4993741 1.4993741 0 0 1 63.242188 63.726562 A 1.4993741 1.4993741 0 0 1 63.080078 63.390625 A 1.4993741 1.4993741 0 0 1 63.007812 63.023438 A 1.4993741 1.4993741 0 0 1 63.027344 62.652344 A 1.4993741 1.4993741 0 0 1 63.138672 62.294922 A 1.4993741 1.4993741 0 0 1 63.335938 61.978516 A 1.4993741 1.4993741 0 0 1 63.603516 61.71875 A 1.4993741 1.4993741 0 0 1 63.927734 61.533203 A 1.4993741 1.4993741 0 0 1 64.289062 61.433594 A 1.4993741 1.4993741 0 0 1 64.429688 61.419922 z " /><text
     xml:space="preserve"
     style="font-style:normal;font-variant:normal;font-weight:normal;font-stretch:normal;font-size:8px;line-height:0.56px;font-family:Roboto;-inkscape-font-specification:'Roboto, @wght=600';font-variant-ligatures:normal;font-variant-caps:normal;font-variant-numeric:normal;font-variant-east-asian:normal;font-variation-settings:'wght' 600;letter-spacing:0px;word-spacing:0px;fill:#000000;fill-opacity:1;stroke:#ffffff;stroke-width:0;stroke-linejoin:round;stroke-miterlimit:20;stroke-dasharray:none;stroke-opacity:1;paint-order:markers fill stroke"
     x="-51.777065"
     y="136.48643"
     id="text1"><tspan
       sodipodi:role="line"
       id="tspan1"
       x="-51.777065"
       y="136.48643">Request Free Audit</tspan></text><path
     style="fill:#000000;fill-opacity:1;stroke:none;stroke-width:0;stroke-dasharray:none"
     d="m 100.91884,107.80952 h -1.999995 v 9 h 9.999995 v -2 h -8 z"
     id="path3" /><path
     id="path7"
     style="fill:#000000;stroke-width:0.444346"
     d="M 15.085938 84.150391 A 1.7929349 1.7929349 0 0 0 15.175781 87.734375 A 1.795601 1.795601 0 0 0 16.96875 85.941406 A 1.7929349 1.7929349 0 0 0 15.085938 84.150391 z M 25.839844 84.150391 A 1.7929349 1.7929349 0 0 0 25.927734 87.734375 A 1.795601 1.795601 0 0 0 27.720703 85.941406 A 1.7929349 1.7929349 0 0 0 25.839844 84.150391 z M 20.304688 84.167969 A 1.7924906 1.7924906 0 0 0 20.556641 87.734375 L 20.556641 87.732422 A 1.7938236 1.7938236 0 0 0 22.351562 85.943359 A 1.7924906 1.7924906 0 0 0 20.304688 84.167969 z " /><path
     d="m 11.928748,99.419832 a 0.54832259,0.54832259 0 0 0 0.02622,0.177739 0.48078205,0.48078205 0 0 0 0.167962,-0.07554 l 6.641191,-4.270162 h -6.83537 z"
     id="chatting_writing"
     style="fill:#000000;stroke-width:0.444346" /><path
     d="m 154.41857,91.385618 h -22.67985 a 0.66296378,0.66296378 0 0 0 -0.65986,0.660298 v 15.103754 a 0.66385248,0.66385248 0 0 0 0.65986,0.65985 h 22.68029 a 0.66385248,0.66385248 0 0 0 0.65985,-0.66029 V 92.044583 a 0.66340813,0.66340813 0 0 0 -0.66029,-0.658965 z"
     id="path9"
     style="fill:#000000;stroke-width:0.444346" /><path
     d="m 117.53103,155.28395 a 0.54832259,0.54832259 0 0 0 0.0262,0.17773 0.48078205,0.48078205 0 0 0 0.16796,-0.0755 l 6.64119,-4.27016 h -6.83537 z"
     id="chatting_writing-2"
     style="fill:#000000;stroke-width:0.444346" /></svg>
