<svg width="600" height="350" version="1.1" viewBox="0 0 158.75 92.604" xmlns="http://www.w3.org/2000/svg" xmlns:xlink="http://www.w3.org/1999/xlink"><defs><linearGradient id="a" x2="761.75" y1="214.91" y2="214.91" gradientTransform="translate(2.7397,14.53)" gradientUnits="userSpaceOnUse"><stop stop-color="#808999" offset="0"/><stop stop-color="#cb8096" offset=".875"/></linearGradient></defs><g transform="matrix(.26458 0 0 .26458 .48739 .0016723)"><g fill-opacity="0" stroke="#8c95a1" stroke-linejoin="round" stroke-miterlimit="20"><rect transform="matrix(1.095,0,0,1.095,24.649,-89.447)" x="32.524" y="140.08" width="428.29" height="236.65" ry="15.247" opacity=".4" stroke-dasharray="5.47955, 0.913258" stroke-linecap="round" stroke-width=".91326" style="font-variation-settings:'wght' 700;paint-order:markers fill stroke"/><rect transform="matrix(.99996 0 0 .99996 -1.8306 .00017628)" x=".99548" y=".9955" width="598.01" height="348.01" opacity=".5" stroke-dasharray="1.09504, 26.281" stroke-linecap="square" stroke-width="1.095" style="font-variation-settings:'wght' 700;paint-order:markers fill stroke"/><rect x="99.573" y="102.08" width="199.62" height="113.3" opacity=".4" stroke-dasharray="1.9, 22.8" stroke-linecap="square" stroke-width="1.9" style="font-variation-settings:'wght' 700;paint-order:markers fill stroke"/></g><g transform="translate(4.4651,-56.35)"><path d="m166.3 378.46h-107.02c-4.165 0-7.541-3.376-7.541-7.542v-11.253c0-4.165 3.376-7.542 7.541-7.542h107.02c4.165 0 7.542 3.376 7.542 7.542v11.253c-1e-3 4.166-3.377 7.542-7.542 7.542z" fill="#d4d4d4" stroke="#5d6774" stroke-miterlimit="10" stroke-width=".75"/><path d="m124.54 371.16h-57.45c-2.438 0-4.415-1.977-4.415-4.415v-2.899c0-2.438 1.977-4.415 4.415-4.415h57.45c2.438 0 4.415 1.977 4.415 4.415v2.899c0 2.438-1.977 4.415-4.415 4.415z" fill="#fff"/><path d="m165.93 365.29c0 2.766-2.45 5.009-5.472 5.009s-5.472-2.243-5.472-5.009 2.45-5.009 5.472-5.009 5.472 2.243 5.472 5.009z" fill="#fff"/><path d="m150.03 351.71h-107.02c-4.165 0-7.542-3.376-7.542-7.542v-11.253c0-4.165 3.376-7.542 7.542-7.542h107.02c4.165 0 7.542 3.377 7.542 7.542v11.253c-1e-3 4.165-3.378 7.542-7.543 7.542z" fill="#d2798f" stroke="#5d6774" stroke-miterlimit="10" stroke-width=".75"/><path d="m108.26 344.41h-57.45c-2.438 0-4.415-1.977-4.415-4.415v-2.899c0-2.438 1.977-4.415 4.415-4.415h57.45c2.438 0 4.415 1.977 4.415 4.415v2.899c0 2.438-1.977 4.415-4.415 4.415z" fill="#fff"/><path d="m149.66 338.54c0 2.766-2.243 5.009-5.009 5.009s-5.009-2.243-5.009-5.009 2.243-5.009 5.009-5.009 5.009 2.242 5.009 5.009z" fill="#fff"/></g><g transform="matrix(.4625 0 0 .4625 -71.281 -69.367)"><g><path transform="translate(634.09,321.94)" d="m353.1 370.94a27.478 27.478 0 0 1-54.387 0h-69.572v153.83h193.53v-153.83z" fill="#c9cacc" stroke="#717e8e" stroke-width="1.6216"/><path transform="translate(560,209.09)" d="m789.21 487.74h-778.42a10.8 10.8 0 0 1-10.789-10.789v-444.25a10.8 10.8 0 0 1 10.789-10.789h778.42a10.8 10.8 0 0 1 10.786 10.789v444.25a10.8 10.8 0 0 1-10.789 10.789z" fill="#d2d3d5"/><rect transform="translate(580.09,249)" width="761.75" height="429.82" fill="url(#a)"/><rect transform="translate(609,273)" width="108" height="360" rx="4" fill="#d2798f"/></g><path transform="translate(647,288)" d="m6 0h20a6 6 0 0 1 6 6v4a6 6 0 0 1-6 6h-20a6 6 0 0 1-6-6v-4a6 6 0 0 1 6-6z" fill="#fff"/><path transform="translate(623,601)" d="m4 0h72a4 4 0 0 1 4 4v8a4 4 0 0 1-4 4h-72a4 4 0 0 1-4-4v-8a4 4 0 0 1 4-4z" fill="#fff"/><path transform="translate(750,273)" d="m4 0h72a4 4 0 0 1 4 4v8a4 4 0 0 1-4 4h-72a4 4 0 0 1-4-4v-8a4 4 0 0 1 4-4z" fill="#f2f2f2"/><rect transform="translate(750,311)" width="160" height="88" rx="8" fill="#d2798f"/><rect transform="translate(623,320)" width="80" height="16" rx="8" fill="#fff"/><rect transform="translate(750,567)" width="528" height="66" rx="16" fill="#e0e3e6"/><path transform="translate(1198,273)" d="m4 0h72a4 4 0 0 1 4 4v8a4 4 0 0 1-4 4h-72a4 4 0 0 1-4-4v-8a4 4 0 0 1 4-4z" fill="#c65370"/><g fill="#fff"><rect transform="translate(623,344)" width="80" height="16" rx="8" opacity=".149"/><rect transform="translate(623,368)" width="80" height="16" rx="8" opacity=".149"/><rect transform="translate(623,392)" width="80" height="16" rx="8" opacity=".149"/><rect transform="translate(623,416)" width="80" height="16" rx="8" opacity=".149"/></g><g><rect transform="translate(1118,311)" width="160" height="88" rx="8" fill="#d2798f"/><rect transform="translate(934,311)" width="160" height="88" rx="8" fill="#d2798f"/><rect transform="translate(750,489)" width="528" height="66" rx="16" fill="#e0e3e6"/><rect transform="translate(750,411)" width="528" height="66" rx="16" fill="#e0e3e6"/></g></g><g transform="matrix(.33738 0 0 .33738 38.144 94.874)"><path d="m179.34 61.47c-37.396 0-72.553 14.562-98.996 41.004-54.584 54.585-54.584 143.4 0 197.99 26.443 26.442 61.6 41.004 98.996 41.004s72.553-14.561 98.995-41.004c54.584-54.587 54.584-143.4 0-197.99-26.442-26.443-61.6-41.004-98.995-41.004zm77.782 217.78c-20.776 20.775-48.4 32.217-77.782 32.217-29.383 0-57.007-11.441-77.782-32.217-42.889-42.89-42.889-112.68-1e-3 -155.56 20.776-20.775 48.4-32.217 77.783-32.217 29.382 0 57.006 11.441 77.782 32.217 42.889 42.888 42.888 112.67 0 155.56z" fill="#d2798f"/><path d="m237.21 136.59c-22.619 16.857-49.848 37.341-58.857 44.921-4.787 0.234-9.506 2.156-13.161 5.812-7.811 7.811-7.811 20.475 0 28.285 7.811 7.811 20.475 7.811 28.284 0 3.656-3.655 5.578-8.375 5.812-13.161 7.578-9.008 28.063-36.238 44.921-58.859 1.482-1.99 1.281-4.768-0.475-6.522-1.756-1.759-4.534-1.959-6.524-0.476z" fill="#c65370"/><path d="m383.73 179.41c-1.166-7.912-2.544-15.734-4.513-23.488-5.835-22.967-15.779-44.793-29.342-64.23-13.123-18.807-29.456-35.342-48.225-48.535-18.921-13.303-40.19-23.199-62.568-29.061-12.207-3.197-24.781-5.289-37.388-5.957-7.982-0.422-15.858-0.375-23.828 0.039-9.674 0.503-19.252 2.036-28.729 3.976-7.975 1.632-15.927 3.919-23.568 6.724-6.023 2.209-12.05 4.51-17.8 7.377-4.413 2.201-8.775 4.459-13.104 6.828-3.728 2.037-7.34 4.404-10.85 6.785-5.002 3.395-9.864 6.941-14.551 10.764-14.073 11.475-26.649 24.973-36.784 40.061-6.06 9.021-11.402 18.387-15.916 28.285-9.957 21.83-15.518 45.664-16.432 69.631-0.463 12.109 0.336 24.193 2.151 36.166 1.889 12.445 5.257 24.576 9.619 36.371 6.376 17.23 15.721 33.32 26.919 47.846 14.908 19.338 34.262 35.602 55.623 47.371 20.627 11.363 43.615 18.652 67.045 21.115l-12.557-9.871c-18.468-4.537-36.207-12.221-52.097-22.619-20.388-13.344-38.025-31.142-50.921-51.834-10.021-16.078-17.358-33.799-21.433-52.311-4.519-20.531-4.952-41.691-1.673-62.422 2.818-17.818 8.749-35.326 17.449-51.127 4.958-8.93 10.488-17.527 17.035-25.387 6.186-7.426 12.848-14.4 20.221-20.666 9.127-7.758 19.05-14.346 29.585-20.023 15.679-8.447 32.999-13.836 50.582-16.453 22.586-3.363 45.942-1.682 67.824 4.838 21.839 6.508 42.192 17.848 59.151 33.078 17.131 15.389 30.85 34.701 39.526 56.045 4.544 11.178 7.757 22.809 9.533 34.744l51.616 26.361c-0.352-6.802-0.606-13.675-1.6-20.421z" fill="#d4d4d4"/></g></g></svg>
