<?xml version="1.0" encoding="UTF-8" standalone="no"?>
<svg
   width="500"
   height="500"
   viewBox="0 0 500 499.99999"
   role="img"
   artist="Katerina Limpitsouni"
   source="https://undraw.co/"
   version="1.1"
   id="svg233"
   sodipodi:docname="opensourcecto.svg"
   inkscape:version="1.3 (1:1.3+202307231459+0e150ed6c4)"
   xml:space="preserve"
   xmlns:inkscape="http://www.inkscape.org/namespaces/inkscape"
   xmlns:sodipodi="http://sodipodi.sourceforge.net/DTD/sodipodi-0.dtd"
   xmlns="http://www.w3.org/2000/svg"
   xmlns:svg="http://www.w3.org/2000/svg"
   xmlns:rdf="http://www.w3.org/1999/02/22-rdf-syntax-ns#"
   xmlns:cc="http://creativecommons.org/ns#"
   xmlns:dc="http://purl.org/dc/elements/1.1/"><defs
     id="defs233" /><sodipodi:namedview
     id="namedview233"
     pagecolor="#ffffff"
     bordercolor="#000000"
     borderopacity="0.25"
     inkscape:showpageshadow="2"
     inkscape:pageopacity="0.0"
     inkscape:pagecheckerboard="0"
     inkscape:deskcolor="#d1d1d1"
     inkscape:zoom="0.52815315"
     inkscape:cx="443.0533"
     inkscape:cy="221.52665"
     inkscape:window-width="1280"
     inkscape:window-height="656"
     inkscape:window-x="0"
     inkscape:window-y="27"
     inkscape:window-maximized="1"
     inkscape:current-layer="svg233" /><title
     id="title1">next_js</title><metadata
     id="metadata233"><rdf:RDF><cc:Work
         rdf:about=""><dc:title>next_js</dc:title></cc:Work></rdf:RDF></metadata><g
     id="g235"
     transform="matrix(0.44887988,0,0,0.44887988,2.3038023e-5,112.58797)"><rect
       x="476.90167"
       y="96.25"
       width="452"
       height="93"
       fill="none"
       stroke="#3f3d56"
       stroke-miterlimit="10"
       id="rect1" /><path
       d="M 250.22415,372.229 C 263.11336,352.08825 287.517,338.5 315.5,338.5 c 41.42136,0 75,29.77306 75,66.5 0,23.48168 -13.72626,44.12077 -34.45252,55.9533"
       transform="translate(-43.05632,-143.875)"
       fill="none"
       stroke="#3f3d56"
       stroke-miterlimit="10"
       id="path1-6" /><rect
       x="444.90167"
       y="114.25"
       width="452"
       height="93"
       fill="#737e8c"
       id="rect2" /><circle
       cx="159.17107"
       cy="18.49996"
       r="7.0000901"
       fill="#737e8c"
       id="circle2" /><circle
       cx="183.17107"
       cy="18.49996"
       r="7.0000901"
       fill="#737e8c"
       id="circle3" /><circle
       cx="207.17107"
       cy="18.49996"
       r="7.0000901"
       fill="#737e8c"
       id="circle4" /><rect
       x="140.17142"
       y="0.5"
       width="840"
       height="546"
       fill="none"
       stroke="#3f3d56"
       stroke-miterlimit="10"
       id="rect4-2" /><line
       x1="140.17142"
       y1="30.835051"
       x2="980.17145"
       y2="30.835051"
       fill="none"
       stroke="#3f3d56"
       stroke-miterlimit="10"
       id="line4" /><circle
       cx="161.17107"
       cy="15.49996"
       r="7.0000901"
       fill="none"
       stroke="#3f3d56"
       stroke-miterlimit="10"
       id="circle5" /><circle
       cx="185.17107"
       cy="15.49996"
       r="7.0000901"
       fill="none"
       stroke="#3f3d56"
       stroke-miterlimit="10"
       id="circle6" /><circle
       cx="209.17107"
       cy="15.49996"
       r="7.0000901"
       fill="none"
       stroke="#3f3d56"
       stroke-miterlimit="10"
       id="circle7" /><path
       d="m 75.27267,348.42356 a 21.61922,21.61922 0 1 0 -26.639,-31.90264 l 8.0969,7.65194 -10.4022,-3.23286 a 21.53767,21.53767 0 0 0 0.42814,16.46985 21.19971,21.19971 0 0 0 3.15322,5.07973 21.6151,21.6151 0 0 0 25.36294,5.93398 z"
       transform="translate(-43.05632,-143.875)"
       fill="#57b894"
       id="path7" /><path
       d="m 183.44639,423.47872 c -7.89466,-5.53929 -7.89618,-17.16828 -5.93507,-26.61092 1.96111,-9.44264 4.95464,-19.74456 0.50306,-28.29983 -6.3977,-12.29544 -23.21458,-13.035 -37.01248,-14.349 a 130.15616,130.15616 0 0 1 -30.04827,-6.5136 c -3.8984,-1.344 -7.80228,-2.91353 -10.99464,-5.52363 -4.59737,-3.75884 -7.29414,-9.30238 -9.81237,-14.68041 Q 77.56317,300.62766 66.25742,273.18"
       transform="translate(-43.05632,-143.875)"
       fill="none"
       stroke="#3f3d56"
       stroke-miterlimit="10"
       id="path8" /><path
       d="m 73.9308,345.7404 a 21.61922,21.61922 0 1 0 -26.639,-31.90265 l 8.0969,7.65194 -10.4022,-3.23284 a 21.53767,21.53767 0 0 0 0.42814,16.46985 21.19919,21.19919 0 0 0 3.15322,5.07973 21.61509,21.61509 0 0 0 25.36294,5.93397 z"
       transform="translate(-43.05632,-143.875)"
       fill="none"
       stroke="#3f3d56"
       stroke-miterlimit="10"
       id="path9-9" /><path
       d="m 47.58089,285.78442 a 21.594,21.594 0 0 1 1.72991,-20.66591 l 8.61043,6.39795 -5.3141,-10.29993 a 21.61655,21.61655 0 1 1 -5.02624,24.56789 z"
       transform="translate(-43.05632,-143.875)"
       fill="#57b894"
       id="path10-1" /><path
       d="M 45.79173,282.20686 A 21.594,21.594 0 0 1 47.52164,261.541 l 8.61043,6.398 -5.31407,-10.3 a 21.61656,21.61656 0 1 1 -5.02623,24.56789 z"
       transform="translate(-43.05632,-143.875)"
       fill="none"
       stroke="#3f3d56"
       stroke-miterlimit="10"
       id="path11-2" /><path
       d="m 138.41288,357.002 a 21.61661,21.61661 0 0 0 -12.83334,-40.99231 l 4.08388,7.915 -8.70985,-6.47535 a 0.37577,0.37577 0 0 0 -0.0541,0.023 21.61779,21.61779 0 1 0 17.51346,39.52966 z"
       transform="translate(-43.05632,-143.875)"
       fill="#57b894"
       id="path12-7" /><path
       d="m 136.47525,353.49867 a 21.61661,21.61661 0 0 0 -12.83334,-40.9923 l 4.08388,7.915 -8.70986,-6.47536 a 0.378,0.378 0 0 0 -0.0541,0.0231 21.61777,21.61777 0 1 0 17.51347,39.52961 z"
       transform="translate(-43.05632,-143.875)"
       fill="none"
       stroke="#3f3d56"
       stroke-miterlimit="10"
       id="path13-0" /><path
       d="m 147.04276,398.48755 a 21.60757,21.60757 0 1 0 -8.71949,-15.097 l 16.98867,3.78678 -14.82289,3.56438 a 21.41544,21.41544 0 0 0 6.55371,7.74584 z"
       transform="translate(-43.05632,-143.875)"
       fill="#57b894"
       id="path14-9" /><path
       d="m 145.70089,395.80438 a 21.60757,21.60757 0 1 0 -8.71949,-15.097 l 16.98867,3.78678 -14.82289,3.56438 a 21.41544,21.41544 0 0 0 6.55371,7.74584 z"
       transform="translate(-43.05632,-143.875)"
       fill="none"
       stroke="#3f3d56"
       stroke-miterlimit="10"
       id="path15-3" /><path
       d="m 1084.6129,602.26517 a 20.81252,20.81252 0 1 0 8.3387,-39.13277 l -0.9856,10.67947 -3.7314,-9.80018 a 20.73405,20.73405 0 0 0 -12.2213,10.10949 20.40828,20.40828 0 0 0 -1.9744,5.40651 20.80854,20.80854 0 0 0 10.574,22.73748 z"
       transform="translate(-43.05632,-143.875)"
       fill="#57b894"
       id="path16-6" /><path
       d="m 1092.0289,728.797 c -0.4945,-9.27109 8.3133,-16.18134 16.6311,-20.306 8.3178,-4.12466 17.8998,-7.97772 21.7355,-16.43263 5.5125,-12.15118 -3.9187,-25.32906 -11.121,-36.56135 a 125.3002,125.3002 0 0 1 -12.9186,-26.63091 c -1.2981,-3.75147 -2.4286,-7.64108 -2.3482,-11.61 0.1159,-5.71565 2.7128,-11.052 5.2904,-16.15471 q 12.8801,-25.49811 26.9542,-50.36938"
       transform="translate(-43.05632,-143.875)"
       fill="none"
       stroke="#3f3d56"
       stroke-miterlimit="10"
       id="path17-0" /><path
       d="m 1085.8481,599.65459 a 20.81252,20.81252 0 1 0 8.3387,-39.13278 l -0.9856,10.67948 -3.7314,-9.80018 a 20.734,20.734 0 0 0 -12.2213,10.10949 20.40859,20.40859 0 0 0 -1.9744,5.4065 20.80855,20.80855 0 0 0 10.574,22.73749 z"
       transform="translate(-43.05632,-143.875)"
       fill="none"
       stroke="#3f3d56"
       stroke-miterlimit="10"
       id="path18-6" /><path
       d="m 1115.6084,544.07357 a 20.78822,20.78822 0 0 1 16.6818,-10.96779 l 0.2694,10.32343 4.6448,-10.1448 a 20.81,20.81 0 1 1 -21.596,10.78916 z"
       transform="translate(-43.05632,-143.875)"
       fill="#57b894"
       id="path19-2" /><path
       d="m 1117.2554,540.59279 a 20.78824,20.78824 0 0 1 16.6818,-10.96779 l 0.2693,10.32344 4.6448,-10.14481 a 20.81,20.81 0 1 1 -21.5959,10.78916 z"
       transform="translate(-43.05632,-143.875)"
       fill="none"
       stroke="#3f3d56"
       stroke-miterlimit="10"
       id="path20-6" /><path
       d="m 1115.6282,655.18935 a 20.81,20.81 0 0 0 23.4262,-34.07564 l -3.5691,7.796 -0.2698,-10.44473 a 0.36282,0.36282 0 0 0 -0.05,-0.0273 20.81113,20.81113 0 1 0 -19.5377,36.75172 z"
       transform="translate(-43.05632,-143.875)"
       fill="#57b894"
       id="path21-1" /><path
       d="m 1117.1307,651.64023 a 20.81,20.81 0 0 0 23.4262,-34.07565 l -3.5691,7.796 -0.2698,-10.44474 a 0.36409,0.36409 0 0 0 -0.05,-0.0273 20.81113,20.81113 0 1 0 -19.5377,36.75173 z"
       transform="translate(-43.05632,-143.875)"
       fill="none"
       stroke="#3f3d56"
       stroke-miterlimit="10"
       id="path22-8" /><path
       d="m 1089.3309,686.374 a 20.80131,20.80131 0 1 0 6.2552,-15.57438 l 7.225,15.11843 -11.5066,-9.11037 a 20.61639,20.61639 0 0 0 -1.9736,9.56632 z"
       transform="translate(-43.05632,-143.875)"
       fill="#57b894"
       id="path23-7" /><path
       d="m 1090.5661,683.76343 a 20.80131,20.80131 0 1 0 6.2552,-15.57438 l 7.225,15.11842 -11.5066,-9.11037 a 20.61655,20.61655 0 0 0 -1.9736,9.56633 z"
       transform="translate(-43.05632,-143.875)"
       fill="none"
       stroke="#3f3d56"
       stroke-miterlimit="10"
       id="path24-9" /><path
       d="m 158.27267,262.42356 a 21.61922,21.61922 0 1 0 -26.639,-31.90264 l 8.0969,7.65194 -10.4022,-3.23286 a 21.53767,21.53767 0 0 0 0.42814,16.46985 21.19971,21.19971 0 0 0 3.15322,5.07973 21.6151,21.6151 0 0 0 25.36294,5.93398 z"
       transform="translate(-43.05632,-143.875)"
       fill="#57b894"
       id="path25-2" /><path
       d="m 182.959,256.18177 c -4.59737,-3.75884 -7.29414,-9.30238 -9.81237,-14.68041 q -12.58345,-26.8737 -23.8892,-54.32135"
       transform="translate(-43.05632,-143.875)"
       fill="none"
       stroke="#3f3d56"
       stroke-miterlimit="10"
       id="path26-0" /><path
       d="m 156.9308,259.7404 a 21.61922,21.61922 0 1 0 -26.639,-31.90265 l 8.0969,7.65194 -10.40218,-3.23284 a 21.53767,21.53767 0 0 0 0.42814,16.46985 21.19919,21.19919 0 0 0 3.15322,5.07973 21.61509,21.61509 0 0 0 25.36292,5.93397 z"
       transform="translate(-43.05632,-143.875)"
       fill="none"
       stroke="#3f3d56"
       stroke-miterlimit="10"
       id="path27-2" /><path
       d="m 130.58089,199.78442 a 21.594,21.594 0 0 1 1.72991,-20.66591 l 8.61043,6.398 -5.3141,-10.29993 a 21.61655,21.61655 0 1 1 -5.02624,24.56789 z"
       transform="translate(-43.05632,-143.875)"
       fill="#57b894"
       id="path28-3" /><path
       d="m 128.79173,196.20686 a 21.594,21.594 0 0 1 1.72991,-20.66591 l 8.61043,6.398 L 133.818,171.639 a 21.61656,21.61656 0 1 1 -5.02623,24.56789 z"
       transform="translate(-43.05632,-143.875)"
       fill="none"
       stroke="#3f3d56"
       stroke-miterlimit="10"
       id="path29-7" /><line
       x1="403.89774"
       y1="30.835051"
       x2="403.89774"
       y2="547.27594"
       fill="none"
       stroke="#3f3d56"
       stroke-miterlimit="10"
       id="line29" /><rect
       x="498.40167"
       y="284.75"
       width="147"
       height="20"
       fill="#f2f2f2"
       id="rect29" /><rect
       x="729.40167"
       y="284.75"
       width="147"
       height="20"
       fill="#f2f2f2"
       id="rect30" /><rect
       x="506.40167"
       y="274.75"
       width="147"
       height="20"
       fill="none"
       stroke="#3f3d56"
       stroke-miterlimit="10"
       id="rect31" /><rect
       x="498.40167"
       y="439.75"
       width="147"
       height="20"
       fill="#f2f2f2"
       id="rect32" /><rect
       x="506.40167"
       y="429.75"
       width="147"
       height="20"
       fill="none"
       stroke="#3f3d56"
       stroke-miterlimit="10"
       id="rect33" /><rect
       x="498.90167"
       y="360.25"
       width="378"
       height="20"
       fill="#f2f2f2"
       id="rect34" /><rect
       x="506.90167"
       y="352.25"
       width="378"
       height="20"
       fill="none"
       stroke="#3f3d56"
       stroke-miterlimit="10"
       id="rect35" /><rect
       x="737.40167"
       y="274.75"
       width="147"
       height="20"
       fill="none"
       stroke="#3f3d56"
       stroke-miterlimit="10"
       id="rect36" /><path
       d="m 974.12309,360.06179 a 20.52086,20.52086 0 0 0 1.20129,3.14327 52.96337,52.96337 0 0 1 0.65343,39.86623 c 3.58806,-0.22468 7.17109,0.35557 10.75575,0.63294 3.58466,0.27737 7.295,0.23158 10.62749,-1.17133 3.33245,-1.40291 6.23335,-4.40851 6.71885,-8.11679 0.6555,-5.00687 -2.9883,-9.37369 -6.18735,-13.17378 -3.25983,-3.87234 -6.40947,-8.14314 -7.37416,-13.19348 -1.06041,-5.55146 0.44893,-12.06057 -3.058,-16.38555 a 3.38957,3.38957 0 0 0 -1.16552,-0.9944 c -1.88372,-0.86332 -6.788,-0.83559 -8.68394,0.23344 -2.91844,1.64556 -4.20511,5.98553 -3.48784,9.15945 z"
       transform="translate(-43.05632,-143.875)"
       fill="#3f3d56"
       id="path36-5" /><path
       d="m 1073.4274,722.20289 a 25.20426,25.20426 0 0 1 -1.1777,4.90714 c 0,0 -3.6334,8.36175 -18.5773,6.10666 -9.7619,-1.47433 -9.6965,-6.05 -8.0782,-9.59182 a 22.85,22.85 0 0 1 2.6651,-4.14817 c 1.4525,-1.96285 1.3085,-9.45225 1.8189,-16.283 0.506,-6.83509 3.5942,-7.184 3.5942,-7.184 l 0.1832,7.69 c 5.8188,-7.63333 9.8884,1.30857 9.8884,1.30857 0,0 8.2744,0.172 7.2626,-4.06964 -1.0778,-4.51822 -2.687,-11.67244 -2.687,-11.67244 0,0 4.0043,1.85817 4.7284,3.16674 0.7284,1.30857 -0.144,18.83031 -0.7983,20.50093 -0.6543,1.67062 0,6.1808 0.9466,7.48937 a 2.854,2.854 0 0 1 0.2311,1.77966 z"
       transform="translate(-43.05632,-143.875)"
       fill="#3f3d56"
       id="path37-9" /><path
       d="m 1070.6663,700.48935 a 8.14784,8.14784 0 0 1 -5.6966,7.76417 10.97309,10.97309 0 0 1 -9.583,-1.46123 5.62468,5.62468 0 0 1 -2.3686,-5.27354 l 0.2312,-1.93232 0.8375,-7.04445 1.1515,-9.70523 c 0,0 12.3834,-6.30731 11.559,-3.92571 -0.3097,0.88982 0.3751,4.894 1.3565,9.56128 0.698,3.33686 1.5442,7.00957 2.29,10.124 a 8.06769,8.06769 0 0 1 0.2225,1.89303 z"
       transform="translate(-43.05632,-143.875)"
       fill="#fbbebe"
       id="path38-2" /><path
       d="m 1052.2577,699.95721 c 0,0 10.723,-12.595 19.5013,1.145 l -1.4721,8.80255 h -18.0292 z"
       transform="translate(-43.05632,-143.875)"
       opacity="0.1"
       id="path39-2" /><path
       d="m 1052.2577,700.82959 c 0,0 10.723,-12.595 19.5013,1.145 l -1.4721,8.80255 h -18.0292 z"
       transform="translate(-43.05632,-143.875)"
       fill="#3f3d56"
       id="path40-8" /><circle
       cx="1023.1405"
       cy="563.6308"
       r="1.09047"
       fill="#f2f2f2"
       id="circle40" /><circle
       cx="1009.2014"
       cy="561.88324"
       r="1.09047"
       fill="#f2f2f2"
       id="circle41" /><circle
       cx="1019.3791"
       cy="571.02173"
       r="1.09047"
       fill="#f2f2f2"
       id="circle42" /><circle
       cx="1009.8615"
       cy="569.74011"
       r="1.09047"
       fill="#f2f2f2"
       id="circle43" /><circle
       cx="1021.4874"
       cy="567.55914"
       r="1.09047"
       fill="#f2f2f2"
       id="circle44" /><circle
       cx="1009.2014"
       cy="565.81165"
       r="1.09047"
       fill="#f2f2f2"
       id="circle45" /><circle
       cx="1018.2887"
       cy="575.07727"
       r="1.09047"
       fill="#f2f2f2"
       id="circle46" /><circle
       cx="1009.8616"
       cy="573.66858"
       r="1.09051"
       fill="#f2f2f2"
       id="circle47" /><path
       d="m 980.43174,735.39764 -14.83046,5.01618 c 0,0 -7.85141,-7.85142 -5.67047,-10.25046 0.92909,-1.02507 1.7404,-4.42734 2.35981,-7.99537 0.20063,-1.12538 0.37948,-2.27256 0.5365,-3.363 0.51473,-3.54622 0.81131,-6.52538 0.81131,-6.52538 0,0 17.2295,-8.28761 14.39427,0 a 20.40919,20.40919 0 0 0 -0.81568,7.24947 48.10707,48.10707 0 0 0 0.92036,7.25821 69.13914,69.13914 0 0 0 2.29436,8.61035 z"
       transform="translate(-43.05632,-143.875)"
       fill="#fbbebe"
       id="path47" /><path
       d="m 980.43174,735.39764 -14.83046,5.01618 c 0,0 -7.85141,-7.85142 -5.67047,-10.25046 0.92909,-1.02507 1.7404,-4.42734 2.35981,-7.99537 a 15.499,15.499 0 0 1 1.73166,4.833 c 12.81089,7.03574 13.029,2.83523 13.029,2.83523 a 7.787,7.787 0 0 1 1.08611,-3.049 69.13914,69.13914 0 0 0 2.29435,8.61042 z"
       transform="translate(-43.05632,-143.875)"
       opacity="0.1"
       id="path48" /><path
       d="m 983.70316,746.84762 c 0,0 -2.56479,1.90615 -10.0847,2.18095 a 39.65312,39.65312 0 0 0 -5.86591,0.66064 73.28862,73.28862 0 0 1 -24.05818,0.64958 52.18363,52.18363 0 0 1 -6.11829,-1.20117 c -7.74237,-2.12861 -1.8538,-7.03138 -1.8538,-7.03138 0,0 0.3708,-0.32278 1.012,-0.807 1.64007,-1.23006 5.04232,-3.49822 8.53184,-4.04783 4.85043,-0.76333 9.32138,-9.37808 9.32138,-9.37808 l 3.05333,-5.50908 c 4.74138,-4.0871 6.38146,5.50908 6.38146,5.50908 12.81089,7.03574 13.029,2.83523 13.029,2.83523 0.711,-3.76432 2.01956,-3.76432 2.01956,-3.76432 0,0 3.19289,8.59729 4.34885,10.74336 a 2.12653,2.12653 0 0 0 0.28348,0.43619 c 0.76332,0.76336 -2e-5,8.72383 -2e-5,8.72383 z"
       transform="translate(-43.05632,-143.875)"
       fill="#3f3d56"
       id="path49" /><circle
       cx="920.90924"
       cy="587.59692"
       r="1.09047"
       fill="#f2f2f2"
       id="circle49" /><circle
       cx="914.66382"
       cy="590.65027"
       r="1.09047"
       fill="#f2f2f2"
       id="circle50" /><circle
       cx="918.02118"
       cy="589.08643"
       r="1.09047"
       fill="#f2f2f2"
       id="circle51" /><circle
       cx="911.14954"
       cy="592.44952"
       r="1.09047"
       fill="#f2f2f2"
       id="circle52" /><path
       d="m 978.0327,712.27957 a 20.40919,20.40919 0 0 0 -0.81568,7.24947 c -3.869,-1.29983 -10.20685,-1.073 -14.3899,-0.72409 0.51473,-3.54622 0.81131,-6.52538 0.81131,-6.52538 0,0 17.2295,-8.28757 14.39427,0 z"
       transform="translate(-43.05632,-143.875)"
       opacity="0.1"
       id="path52" /><path
       d="m 1068.1539,688.47232 c -5.3608,5.25608 -10.486,5.58322 -14.0671,4.06966 l 1.1515,-9.70523 c 0,0 12.3834,-6.30731 11.559,-3.92571 -0.3096,0.88982 0.3752,4.89404 1.3566,9.56128 z"
       transform="translate(-43.05632,-143.875)"
       opacity="0.1"
       id="path53" /><path
       d="m 974.108,509.45127 c 0,0 -8.50669,4.79809 -10.03335,14.17618 -1.52666,9.37809 -4.14381,21.3733 -6.10666,23.55425 -1.96285,2.18095 -8.06951,9.16 -5.67047,12.8676 2.39904,3.7076 2.83524,16.35712 2.83524,16.35712 0,0 -0.87238,11.34094 1.52666,15.04855 2.39904,3.70761 4.3619,27.26187 -0.87238,34.24091 0,0 -1.74476,16.139 -1.09047,17.66569 0.65429,1.52669 -2.83524,5.45237 -1.74476,8.7238 1.09048,3.27143 6.32475,63.46563 5.67047,65.86467 0,0 16.57521,-2.399 20.93711,1.52666 0,0 0.87238,-6.54284 0,-11.12284 -0.87238,-4.58 0.65428,-22.68187 2.61714,-27.26187 1.96286,-4.58 2.399,-22.02758 1.74476,-23.77234 0,0 3.48952,-15.48475 2.181,-18.53807 -1.30852,-3.05332 5.67047,-31.18758 5.67047,-31.18758 0,0 3.48952,-6.76094 2.61714,-7.63332 0,0 5.6705,-3.70762 5.01618,-6.54285 -0.65428,-2.83523 5.23432,-6.10666 5.23432,-6.10666 0,0 5.2342,12.8676 6.979,14.83046 1.7447,1.96286 1.8132,14.61236 3.9599,17.2295 2.1467,2.61714 4.982,16.35712 7.8172,20.06473 2.8352,3.70761 14.1761,13.52189 15.9209,24.64473 0,0 10.2505,15.92093 9.8143,20.93711 -0.4362,5.01618 11.559,14.17617 23.1181,-2.83523 a 15.11356,15.11356 0 0 1 -6.1067,-12.43141 c 0,-8.50571 -9.16,-35.76757 -9.16,-35.76757 0,0 -5.2343,-7.63333 -3.2714,-11.34094 1.9628,-3.70761 0.2181,-14.61236 0.2181,-14.61236 l 4.1438,-6.76094 c 0,0 0.6543,-6.54285 1.3085,-13.3038 0.6543,-6.76095 -3.9257,-14.17617 -1.7447,-17.44759 2.1809,-3.27142 -0.8724,-19.61656 -0.8724,-19.61656 0,0 -2.7143,-28.17483 -6.7609,-29.891 -4.0467,-1.71617 -75.8961,-11.55903 -75.8961,-11.55903 z"
       transform="translate(-43.05632,-143.875)"
       fill="#3f3d56"
       id="path54" /><path
       d="m 993.97982,469.97609 c 0,0 -4.47968,0.51033 -9.91895,1.025 -7.86888,0.74152 -17.74859,1.49176 -18.92634,0.71972 -1.989,-1.30857 0,-17.88379 0,-17.88379 0,0 0.68485,-18.10188 0.0306,-30.75138 -0.53214,-10.26356 6.26368,-17.80091 8.84158,-20.27847 0.60195,-0.57577 0.9727,-0.87674 0.9727,-0.87674 l 2.18095,1.74476 12.43141,21.15521 z"
       transform="translate(-43.05632,-143.875)"
       fill="#fbbebe"
       id="path55" /><path
       d="m 1042.5888,400.4038 -12.2133,7.41523 -20.0648,15.26665 c 0,0 -20.71895,-10.90475 -15.48469,-17.2295 a 9.80613,9.80613 0 0 0 1.91488,-4.279 c 1.57463,-7.28437 -1.91488,-17.74856 -1.91488,-17.74856 0,0 27.29679,-36.86241 25.73519,-8.28761 -0.6281,11.48052 2.8047,17.74857 7.1361,21.14211 6.4512,5.05106 14.8915,3.72068 14.8915,3.72068 z"
       transform="translate(-43.05632,-143.875)"
       fill="#fbbebe"
       id="path56" /><path
       d="m 1042.5888,400.4038 -12.2133,7.41523 -20.0648,15.26665 c 0,0 -20.71895,-10.90475 -15.48469,-17.2295 a 9.80613,9.80613 0 0 0 1.91488,-4.279 c 1.57463,-7.28437 -1.91488,-17.74856 -1.91488,-17.74856 0,0 27.29679,-36.86241 25.73519,-8.28761 -0.6281,11.48052 2.8047,17.74857 7.1361,21.14211 6.4512,5.05106 14.8915,3.72068 14.8915,3.72068 z"
       transform="translate(-43.05632,-143.875)"
       opacity="0.1"
       id="path57" /><ellipse
       cx="962.06079"
       cy="223.74844"
       rx="25.258341"
       ry="26.75955"
       opacity="0.1"
       id="ellipse57" /><ellipse
       cx="962.06079"
       cy="222.87605"
       rx="25.258341"
       ry="26.75955"
       fill="#fbbebe"
       id="ellipse58" /><path
       d="m 1042.5888,400.4038 -12.2133,7.41523 -20.0648,15.26665 c 0,0 -20.71895,-10.90475 -15.48469,-17.2295 a 9.80613,9.80613 0 0 0 1.91488,-4.279 c 22.85631,19.54131 29.80051,-0.68482 30.95641,-4.89406 6.4512,5.05106 14.8915,3.72068 14.8915,3.72068 z"
       transform="translate(-43.05632,-143.875)"
       opacity="0.1"
       id="path58" /><path
       d="m 993.97982,469.97609 c 0,0 -4.47968,0.51033 -9.91895,1.025 -0.21373,-4.69341 -0.92477,-10.00184 -0.7939,-13.23836 0.2181,-5.45237 0.2181,-6.10666 -1.52666,-9.16 -1.74476,-3.05334 -1.52667,-5.45238 -1.30857,-9.37809 0.20936,-3.76 -0.78516,-4.51892 -4.3226,-10.52526 -0.15271,-0.26173 -0.30973,-0.53217 -0.47549,-0.81567 -1.736,-2.99226 -2.23329,-8.40539 -2.2507,-13.51752 a 0.12429,0.12429 0 0 0 0,-0.0567 c -0.004,-1.217 0.0174,-2.41651 0.061,-3.55933 0.004,-0.048 0.004,-0.0959 0.004,-0.14392 0.12651,-3.45464 0.41,-6.39892 0.55833,-7.79908 0.60195,-0.57577 0.9727,-0.87674 0.9727,-0.87674 l 2.18095,1.74476 12.43141,21.15521 z"
       transform="translate(-43.05632,-143.875)"
       opacity="0.1"
       id="path59" /><path
       d="m 1058.458,403.625 c -0.017,-0.009 2.634,1.99562 2.6165,1.99128 -7.895,-3.40664 -12.3747,13.753 -13.5742,19.15308 -0.2225,0.99453 -0.3315,1.58774 -0.3315,1.58774 0,0 0.1396,1.44815 0.314,3.75122 0.5889,7.71184 1.6008,24.98061 -0.7502,29.18112 a 6.51339,6.51339 0 0 0 -0.5627,1.40015 c -0.7415,2.55173 -0.6543,6.38583 -0.2704,10.11091 a 101.26535,101.26535 0 0 0 1.9235,11.38891 c 0,0 5.2343,13.30379 3.0534,22.02759 a 32.36341,32.36341 0 0 0 -0.6369,9.89278 58.504,58.504 0 0 0 1.3827,9.02477 c 0.205,0.868 0.3446,1.36528 0.3446,1.36528 q -4.9333,1.688 -9.6441,2.80033 a 93.54989,93.54989 0 0 1 -18.6515,2.52553 c -29.4908,0.93782 -49.12807,-13.19475 -53.76477,-17.04628 -0.36639,-0.30534 -0.64119,-0.54524 -0.81568,-0.711 -3.05333,-2.83523 2.83524,-5.01618 2.181,-6.979 -0.65424,-1.96282 2.98358,-6.32476 2.98358,-6.32476 0,0 -0.80263,-7.19713 2.4688,-8.7238 3.27143,-1.52667 5.67046,-6.76094 7.51554,-11.12284 1.84071,-4.3619 -0.31841,-15.70283 -0.10032,-21.15521 0.21809,-5.45238 0.2181,-6.10666 -1.52666,-9.16 -1.74476,-3.05334 -1.52667,-5.45238 -1.30857,-9.37809 0.20936,-3.76 -0.78516,-4.51892 -4.3226,-10.52526 -0.15271,-0.26173 -0.30974,-0.53217 -0.47549,-0.81567 -1.736,-2.99226 0.96938,-8.14664 0.952,-13.25877 0.004,-0.0175 1.00436,0.0174 1,0 -0.004,-1.217 -2.04361,-2.85718 -2,-4 0.004,-0.048 -1,-0.952 -1,-1 a 32.39519,32.39519 0 0 0 -0.47863,-7.69453 c 17.44759,-8.94189 21.5914,0.37511 21.5914,0.37511 25.5171,21.96215 31.3097,-5.48291 31.3097,-5.48291 13.8883,-4.74574 32.1559,8.039 33.1984,8.78051 0.031,0.0218 -2.6209,-1.97819 -2.6209,-1.97819 z"
       transform="translate(-43.05632,-143.875)"
       fill="#55536e"
       id="path60" /><path
       d="m 964.838,467.75249 c 0,0 -2.183,11.64719 4.13051,18.14557 a 7.1,7.1 0 0 0 8.21306,1.41145 c 2.09688,-1.031 4.44194,-2.56084 5.32212,-4.52342 1.73472,-3.86809 -3.70769,-22.77597 -17.66569,-15.0336 z"
       transform="translate(-43.05632,-143.875)"
       fill="#fbbebe"
       id="path61" /><path
       d="m 1046.7326,459.28944 a 6.51339,6.51339 0 0 0 -0.5627,1.40015 l 0.9989,-25.49964 0.314,-5.08163 c 0.5889,7.71184 1.6009,24.98061 -0.7502,29.18112 z"
       transform="translate(-43.05632,-143.875)"
       opacity="0.1"
       id="path62" /><path
       d="m 1050.8764,504.217 a 32.36341,32.36341 0 0 0 -0.6368,9.89278 c -1.4133,2.56043 -2.6215,4.73265 -3.4067,6.1459 -0.615,1.09921 -0.9727,1.736 -0.9727,1.736 a 41.19653,41.19653 0 0 0 -3.5375,5.30843 10.2626,10.2626 0 0 0 -1.4787,4.31392 c 0,3.3543 -3.3804,25.709 -19.4104,20.14761 -10.3508,-3.58986 -3.7425,-14.59055 2.2377,-21.936 a 82.14651,82.14651 0 0 1 6.377,-6.96158 c 0,0 1.8495,-2.35543 3.6248,-4.81989 a 29.27006,29.27006 0 0 0 3.1362,-4.99438 c 0.7633,-2.18095 5.797,-11.77713 5.797,-11.77713 0,0 4.9987,-10.5776 3.9082,-15.48474 -0.6106,-2.748 -0.6761,-9.53947 -0.615,-14.98747 a 101.26535,101.26535 0 0 0 1.9236,11.38891 c 0,0 5.2343,13.30384 3.0533,22.02764 z"
       transform="translate(-43.05632,-143.875)"
       opacity="0.1"
       id="path63" /><path
       d="m 1061.1269,405.63808 c 0,0 7.8514,5.45238 7.6333,19.62855 -0.2181,14.17617 -2.8352,38.71185 -2.8352,38.71185 l -1.6357,15.26664 c 0,0 -2.072,6.21571 -1.7448,8.06952 0.3271,1.85381 -17.1205,32.93236 -17.1205,32.93236 0,0 -5.0162,6.27168 -5.0162,9.62417 0,3.35249 -3.3805,25.70721 -19.4104,20.14579 -16.03,-5.56142 8.6147,-28.89758 8.6147,-28.89758 0,0 5.9976,-7.63332 6.761,-9.81427 0.7633,-2.18095 5.7989,-11.77711 5.7989,-11.77711 0,0 4.9968,-10.5776 3.9064,-15.48474 -1.0905,-4.90714 -0.4362,-22.723 -0.4362,-22.723 l 1.0905,-27.875 0.4361,-7.08809 c 0,0 4.0348,-23.55432 13.9581,-20.71909 z"
       transform="translate(-43.05632,-143.875)"
       fill="#fbbebe"
       id="path64" /><path
       d="m 977.84205,457.6742 11.9011,-4.323 a 5.63319,5.63319 0 0 1 5.79116,1.19929 l 15.79419,14.91676 c 0,0 0.8724,2.39429 -0.2908,2.28762 -1.1631,-0.10667 -18.17455,-17.11807 -18.17455,-17.11807 l -16.866,5.67046 v 0 a 2.80135,2.80135 0 0 1 1.8449,-2.63306 z"
       transform="translate(-43.05632,-143.875)"
       fill="#737e8c"
       id="path65" /><polygon
       points="932.941,316.432 951.624,333.807 967.981,327.88 949.807,310.762 "
       fill="#4b4b5b"
       id="polygon65" /><circle
       cx="927.05231"
       cy="381.35187"
       r="1.45397"
       fill="#f2f2f2"
       id="circle65" /><circle
       cx="917.16528"
       cy="400.03391"
       r="1.45398"
       fill="#f2f2f2"
       id="circle66" /><circle
       cx="996.14624"
       cy="406.82578"
       r="1.4539599"
       fill="#f2f2f2"
       id="circle67" /><circle
       cx="1004.3696"
       cy="433.21875"
       r="1.45398"
       fill="#f2f2f2"
       id="circle68" /><circle
       cx="1001.1666"
       cy="425.79111"
       r="1.45398"
       fill="#f2f2f2"
       id="circle69" /><circle
       cx="998.38702"
       cy="416.30841"
       r="1.45399"
       fill="#f2f2f2"
       id="circle70" /><circle
       cx="921.78107"
       cy="390.19629"
       r="1.45398"
       fill="#f2f2f2"
       id="circle71" /><circle
       cx="911.39801"
       cy="409.73367"
       r="1.45398"
       fill="#f2f2f2"
       id="circle72" /><path
       d="m 1061.0789,405.60318 v 0.0131 c -7.895,-3.40664 -12.3747,13.753 -13.5742,19.15308 l -12.4008,-17.74856 c 0,0 -5.086,8.13929 -21.5173,9.37808 -16.43127,1.23442 -20.42678,-12.50556 -20.42678,-12.50556 -2.25512,-0.17448 -12.46629,18.20656 -16.1739,24.80612 -0.15271,-0.26173 -0.30974,-0.53217 -0.47549,-0.81567 -1.736,-2.99226 -2.23329,-8.40539 -2.2507,-13.51752 a 0.12429,0.12429 0 0 0 0,-0.0567 c 0.013,-1.18645 0.0349,-2.37724 0.061,-3.55933 0.004,-0.048 0.004,-0.0959 0.004,-0.14392 0.17885,-4.84172 0.65865,-8.67582 0.65865,-8.67582 17.44759,-8.94189 21.5914,0.37511 21.5914,0.37511 25.51712,21.96215 31.30972,-5.48291 31.30972,-5.48291 13.8883,-4.74574 32.1559,8.03898 33.1984,8.78051 z"
       transform="translate(-43.05632,-143.875)"
       fill="#737e8c"
       id="path72" /><path
       d="m 964.29271,565.06548 c 0.2181,0.54524 18.53807,21.70045 25.299,22.79093 6.76093,1.09048 -25.299,-22.79093 -25.299,-22.79093 z"
       transform="translate(-43.05632,-143.875)"
       opacity="0.1"
       id="path73" /><path
       d="m 977.41051,532.61723 c 0,0 0.186,14.91558 -4.394,18.28407 -4.58,3.36849 4.394,-18.28407 4.394,-18.28407 z"
       transform="translate(-43.05632,-143.875)"
       opacity="0.1"
       id="path74" /><path
       d="m 985.88411,537.91266 c 0,0 -0.43619,17.55665 6.10666,21.70045 0,0 -11.99522,-11.66811 -6.10666,-21.70045 z"
       transform="translate(-43.05632,-143.875)"
       opacity="0.1"
       id="path75" /><path
       d="m 977.8146,628.09492 c 0,0 -12.21332,9.05094 -15.59379,9.70523 -3.38047,0.65429 15.59379,-9.70523 15.59379,-9.70523 z"
       transform="translate(-43.05632,-143.875)"
       opacity="0.1"
       id="path76" /><path
       d="m 974.7656,351.1462 c -2.63128,2.21724 -1.68359,6.81984 1.00475,8.96755 2.68834,2.14771 6.36411,2.47745 9.80386,2.56616 6.62084,0.17075 13.3493,-0.21329 19.76899,1.41531 a 16.02656,16.02656 0 0 1 7.5833,3.88476 17.06661,17.06661 0 0 1 3.9413,7.84032 42.93649,42.93649 0 0 1 1.3482,13.14281 c -0.1564,2.97384 -0.622,5.9661 -0.1952,8.9133 a 28.50494,28.50494 0 0 0 2.7817,7.92946 329.46177,329.46177 0 0 0 16.8476,31.2541 5.81707,5.81707 0 0 0 2.195,2.40209 c 1.575,0.76033 3.4266,-0.0105 4.9996,-0.77495 a 37.53645,37.53645 0 0 1 -1.5427,-9.47076 4.23362,4.23362 0 0 0 4.475,-1.56345 12.41834,12.41834 0 0 0 2.0386,-4.58284 l 2.9345,-10.11141 c 0.9075,-3.12675 2.2533,-6.71538 5.3762,-7.63591 a 19.4711,19.4711 0 0 0 3.2979,-0.76858 4.222,4.222 0 0 0 2.0369,-4.15955 8.98407,8.98407 0 0 0 -1.969,-4.44041 c -4.415,-5.94025 -11.7772,-9.463 -15.2235,-16.013 -2.9596,-5.62487 -2.4457,-12.39362 -1.4693,-18.67415 0.9764,-6.28053 2.3348,-12.73739 0.8326,-18.91328 a 25.05861,25.05861 0 0 0 -9.7256,-13.93155 39.2308,39.2308 0 0 0 -15.9071,-6.54037 15.882,15.882 0 0 0 -8.04,0.0545 c -1.983,0.67016 -3.6814,1.99317 -5.6169,2.79005 -4.3973,1.81041 -9.46616,0.72907 -14.07979,1.88146 a 18.934,18.934 0 0 0 -10.41411,7.52417 39.942,39.942 0 0 0 -5.4535,11.86079 c -0.84961,2.773 0.51305,3.88235 -1.96436,5.39029"
       transform="translate(-43.05632,-143.875)"
       opacity="0.1"
       id="path77" /><path
       d="m 975.20179,350.27382 c -2.63128,2.21724 -1.68359,6.81984 1.00475,8.96755 2.68834,2.14771 6.36411,2.47745 9.80386,2.56616 6.62084,0.17075 13.3493,-0.21329 19.769,1.41531 a 16.02656,16.02656 0 0 1 7.5833,3.88476 17.0665,17.0665 0 0 1 3.9413,7.84032 42.93618,42.93618 0 0 1 1.3482,13.14281 c -0.1565,2.97384 -0.622,5.9661 -0.1952,8.9133 a 28.50494,28.50494 0 0 0 2.7817,7.92946 329.46177,329.46177 0 0 0 16.8476,31.2541 5.81707,5.81707 0 0 0 2.195,2.40209 c 1.575,0.76033 3.4266,-0.0105 4.9996,-0.77495 a 37.53645,37.53645 0 0 1 -1.5427,-9.47076 4.23362,4.23362 0 0 0 4.475,-1.56345 12.41834,12.41834 0 0 0 2.0386,-4.58284 l 2.9345,-10.11141 c 0.9074,-3.12675 2.2533,-6.71538 5.3762,-7.63591 a 19.4711,19.4711 0 0 0 3.2979,-0.76858 4.222,4.222 0 0 0 2.0369,-4.15955 8.98407,8.98407 0 0 0 -1.969,-4.44041 c -4.415,-5.94025 -11.7772,-9.463 -15.2235,-16.013 -2.9596,-5.62487 -2.4457,-12.39362 -1.4693,-18.67415 0.9764,-6.28053 2.3348,-12.73739 0.8326,-18.91328 a 25.05861,25.05861 0 0 0 -9.7256,-13.93155 39.2308,39.2308 0 0 0 -15.9071,-6.54037 15.88208,15.88208 0 0 0 -8.04,0.0545 c -1.983,0.67016 -3.6814,1.99317 -5.6169,2.79 -4.3973,1.81041 -9.46617,0.72907 -14.0798,1.88146 a 18.934,18.934 0 0 0 -10.41411,7.52417 39.942,39.942 0 0 0 -5.4535,11.86079 c -0.84961,2.773 0.51305,3.88235 -1.96436,5.39029"
       transform="translate(-43.05632,-143.875)"
       fill="#3f3d56"
       id="path78" /><path
       d="m 972.47127,469.10371 c 0,0 19.95569,-13.30379 25.62616,-5.12523 5.67047,8.17856 -17.55664,18.21093 -17.55664,18.21093 z"
       transform="translate(-43.05632,-143.875)"
       fill="#fbbebe"
       id="path79" /><path
       d="m 978.99355,405.88405 c -0.0733,1.2825 -0.31892,2.85493 -1.03355,3.08753 1.86215,-0.0444 3.69756,1.32583 5.54553,0.9164 1.37608,-0.30488 2.67021,-1.63957 3.50053,-3.61023 a 1.68346,1.68346 0 0 1 0.46864,-0.77027 c 0.19416,-0.11365 0.40484,-2.9e-4 0.59884,0.11421 a 58.21646,58.21646 0 0 1 10.03848,7.57769 c 1.02241,0.95219 2.15678,1.98367 3.27698,1.4863 a 25.02257,25.02257 0 0 0 -2.14163,-10.49378 13.41106,13.41106 0 0 0 -5.7166,-6.25441 17.50943,17.50943 0 0 0 -6.72279,-1.74968 6.73487,6.73487 0 0 1 -2.89766,-0.72075 c -0.99141,-0.58255 -4.1566,-4.365 -4.86728,-1.61053 -0.34311,1.32981 0.0991,4.16256 0.10954,5.63366 0.0151,2.13432 -0.0377,4.27023 -0.15903,6.39386 z"
       transform="translate(-43.05632,-143.875)"
       fill="#3f3d56"
       id="path80" /><g
       opacity="0.1"
       id="g85"><path
         d="m 1042.1484,436.40872 a 5.81721,5.81721 0 0 1 -2.195,-2.40208 329.45713,329.45713 0 0 1 -16.8475,-31.25411 28.50429,28.50429 0 0 1 -2.7817,-7.92945 c -0.4268,-2.94721 0.039,-5.93946 0.1951,-8.9133 a 42.93606,42.93606 0 0 0 -1.3482,-13.1428 17.06665,17.06665 0 0 0 -3.9412,-7.84034 16.02653,16.02653 0 0 0 -7.5833,-3.88474 c -6.4197,-1.6286 -13.14818,-1.24457 -19.76902,-1.41533 -3.43977,-0.0887 -7.11554,-0.41846 -9.80387,-2.56615 a 6.7741,6.7741 0 0 1 -2.23992,-7.1847 4.331,4.331 0 0 1 -0.55751,0.445 c -2.56679,2.23375 -1.61785,6.78717 1.05267,8.92063 2.68833,2.14769 6.3641,2.47744 9.80387,2.56615 6.62082,0.17076 13.34929,-0.21327 19.76898,1.41533 a 16.02653,16.02653 0 0 1 7.5833,3.88474 17.06665,17.06665 0 0 1 3.9413,7.84034 42.93606,42.93606 0 0 1 1.3482,13.1428 c -0.1564,2.97383 -0.622,5.96609 -0.1952,8.9133 a 28.5044,28.5044 0 0 0 2.7817,7.92945 329.45713,329.45713 0 0 0 16.8476,31.25411 5.81721,5.81721 0 0 0 2.195,2.40208 c 1.575,0.76035 3.4267,-0.0105 4.9996,-0.77494 -0.1307,-0.43853 -0.2511,-0.88 -0.3657,-1.32308 a 3.98394,3.98394 0 0 1 -2.8892,-0.0829 z"
         transform="translate(-43.05632,-143.875)"
         id="path81" /><path
         d="m 974.98919,350.51078 c 0.10561,-0.0643 0.195,-0.127 0.28715,-0.19 0.0171,-0.0149 0.0305,-0.0322 0.0479,-0.0469 z"
         transform="translate(-43.05632,-143.875)"
         id="path82" /><path
         d="m 977.0211,348.1398 c -0.0921,0.063 -0.18154,0.12574 -0.28715,0.19 l 0.33507,-0.23694 c -0.0174,0.0147 -0.0308,0.032 -0.0479,0.0469 2.06887,-1.41469 0.86384,-2.54547 1.67722,-5.20026 a 40.34835,40.34835 0 0 1 5.32256,-11.66747 23.1343,23.1343 0 0 0 -1.61383,1.98764 39.94176,39.94176 0 0 0 -5.45349,11.86078 18.56117,18.56117 0 0 0 -0.42682,3.53473 4.17039,4.17039 0 0 1 0.49436,-0.51539 z"
         transform="translate(-43.05632,-143.875)"
         id="path83" /><path
         d="m 1063.7277,401.50083 a 19.47132,19.47132 0 0 1 -3.298,0.76858 6.36053,6.36053 0 0 0 -3.6485,3.22129 5.23728,5.23728 0 0 1 1.9038,-1.04035 19.47108,19.47108 0 0 0 3.2979,-0.76857 3.71942,3.71942 0 0 0 1.8076,-2.21615 c -0.021,0.0112 -0.041,0.0244 -0.063,0.0352 z"
         transform="translate(-43.05632,-143.875)"
         id="path84" /><path
         d="m 1045.6053,426.163 q 0.038,1.13406 0.146,2.26425 a 4.91225,4.91225 0 0 0 2.5843,-1.64676 7.28053,7.28053 0 0 0 0.8668,-1.34871 3.88793,3.88793 0 0 1 -3.5971,0.73122 z"
         transform="translate(-43.05632,-143.875)"
         id="path85" /></g><path
       d="m 967.64432,466.50791 c 0,0 5.26224,-2.13014 8.35282,-1.657"
       transform="translate(-43.05632,-143.875)"
       opacity="0.1"
       id="path86" /><path
       d="m 982.8158,490.477 c 0,0 2.67087,4.14381 16.17338,5.88857 13.50252,1.74476 -16.17338,-5.88857 -16.17338,-5.88857 z"
       transform="translate(-43.05632,-143.875)"
       opacity="0.1"
       id="path87" /><path
       d="m 977.96,505.96176 c 0,0 12.14489,10.68665 31.6259,6.76094 19.481,-3.92571 -31.6259,-6.76094 -31.6259,-6.76094 z"
       transform="translate(-43.05632,-143.875)"
       opacity="0.1"
       id="path88" /><line
       x1="880.40167"
       y1="611.75"
       x2="1080.4017"
       y2="580.75"
       fill="none"
       stroke="#3f3d56"
       stroke-miterlimit="10"
       id="line88" /><path
       d="m 224.36673,418.99808 c 0,26.13213 17.16823,48.71308 42.0635,59.41566 l -35.6018,-86.28266 a 59.38557,59.38557 0 0 0 -6.4617,26.867 z m 125.01888,-3.33137 c 0,-8.15883 -3.31321,-13.80909 -6.15494,-18.207 -3.78329,-5.438 -7.328,-10.04309 -7.328,-15.48106 0,-6.06857 5.202,-11.71757 12.53142,-11.71757 0.3309,0 0.64476,0.0364 0.96855,0.0528 a 79.973,79.973 0 0 0 -50.40123,-17.33015 c -26.074,0 -49.01373,11.83314 -62.3589,29.7562 1.751,0.0465 3.40268,0.0779 4.803,0.0779 7.80658,0 19.89066,-0.83786 19.89066,-0.83786 4.0233,-0.20978 4.49763,5.01715 0.48,5.438 0,0 -4.0446,0.42082 -8.54364,0.62934 L 280.45141,459.55482 296.786,416.2257 285.15637,388.046 c -4.019,-0.20853 -7.82646,-0.62934 -7.82646,-0.62934 -4.02188,-0.20853 -3.55039,-5.64775 0.47149,-5.438 0,0 12.3255,0.83787 19.65918,0.83787 7.80516,0 19.89065,-0.83787 19.89065,-0.83787 4.02613,-0.20978 4.499,5.01715 0.47859,5.438 0,0 -4.05169,0.42081 -8.54222,0.62934 l 26.97154,70.96617 7.443,-22.00436 c 3.228,-9.13111 5.68345,-15.68958 5.68345,-21.3411 z"
       transform="translate(-43.05632,-143.875)"
       fill="#737e8c"
       id="path89" /><path
       d="m 300.31082,424.7727 -22.393,57.55528 a 83.94664,83.94664 0 0 0 45.8681,-1.05142 5.38774,5.38774 0 0 1 -0.53114,-0.90947 z m 64.17954,-37.4477 a 44.91214,44.91214 0 0 1 0.50273,6.78835 c 0,6.69916 -1.41448,14.22991 -5.67493,23.64617 l -22.79772,58.3027 c 22.18847,-11.445 37.11286,-32.70821 37.11286,-57.06411 a 59.7826,59.7826 0 0 0 -9.143,-31.67312 z"
       transform="translate(-43.05632,-143.875)"
       fill="#737e8c"
       id="path90" /></g></svg>
