<?xml version="1.0" encoding="UTF-8" standalone="no"?>
<svg
   width="32"
   height="32"
   version="1.1"
   viewBox="0 0 8.4666 8.4666"
   xml:space="preserve"
   id="svg36"
   sodipodi:docname="icon.svg"
   inkscape:version="1.3 (1:1.3+202307231459+0e150ed6c4)"
   xmlns:inkscape="http://www.inkscape.org/namespaces/inkscape"
   xmlns:sodipodi="http://sodipodi.sourceforge.net/DTD/sodipodi-0.dtd"
   xmlns="http://www.w3.org/2000/svg"
   xmlns:svg="http://www.w3.org/2000/svg"><sodipodi:namedview
     id="namedview36"
     pagecolor="#ffffff"
     bordercolor="#000000"
     borderopacity="0.25"
     inkscape:showpageshadow="2"
     inkscape:pageopacity="0.0"
     inkscape:pagecheckerboard="0"
     inkscape:deskcolor="#d1d1d1"
     inkscape:zoom="12.25"
     inkscape:cx="15.959184"
     inkscape:cy="15.918367"
     inkscape:window-width="1280"
     inkscape:window-height="656"
     inkscape:window-x="0"
     inkscape:window-y="27"
     inkscape:window-maximized="1"
     inkscape:current-layer="svg36" /><defs
     id="defs18"><radialGradient
       id="radialGradient237-6"
       cx="98.484"
       cy="129.09"
       r="92.487"
       gradientTransform="matrix(1.8595,1.9653,-2.0381,1.9283,-867.82,-239.22)"
       gradientUnits="userSpaceOnUse"><stop
         stop-color="#fff"
         offset=".47324"
         id="stop1" /><stop
         stop-color="#fff"
         stop-opacity="0"
         offset=".93477"
         id="stop2" /></radialGradient><linearGradient
       id="linearGradient12"
       x1="478.76"
       x2="505.22"
       y1="145.78"
       y2="144.89"
       gradientUnits="userSpaceOnUse"><stop
         stop-color="#fff"
         offset="0"
         id="stop3" /><stop
         stop-color="#fff"
         stop-opacity="0"
         offset="1"
         id="stop4" /></linearGradient><clipPath
       id="SvgjsClipPath1059"><rect
         width="1e3"
         height="1e3"
         rx="350"
         ry="350"
         id="rect4" /></clipPath><clipPath
       id="SvgjsClipPath1060"><rect
         width="1e3"
         height="1e3"
         rx="350"
         ry="350"
         id="rect5" /></clipPath><mask
       id=":r8:mask0_408_134"
       x="0"
       y="0"
       width="180"
       height="180"
       maskUnits="userSpaceOnUse"><circle
         cx="90"
         cy="90"
         r="90"
         id="circle5" /></mask><linearGradient
       id=":r8:paint0_linear_408_134"
       x1="109"
       x2="144.5"
       y1="116.5"
       y2="160.5"
       gradientUnits="userSpaceOnUse"><stop
         stop-color="#fff"
         offset="0"
         id="stop5" /><stop
         stop-color="#fff"
         stop-opacity="0"
         offset="1"
         id="stop6" /></linearGradient><linearGradient
       id=":r8:paint1_linear_408_134"
       x1="121"
       x2="120.8"
       y1="54"
       y2="106.88"
       gradientUnits="userSpaceOnUse"><stop
         stop-color="#fff"
         offset="0"
         id="stop7" /><stop
         stop-color="#fff"
         stop-opacity="0"
         offset="1"
         id="stop8" /></linearGradient><radialGradient
       id="radialGradient203-4"
       cx="76.419"
       cy="154.84"
       r="88.296"
       gradientTransform="matrix(2.6359,2.7695,-2.6999,2.5696,84.901,374.48)"
       gradientUnits="userSpaceOnUse"><stop
         stop-color="#fff"
         offset=".48159"
         id="stop9" /><stop
         stop-color="#fff"
         stop-opacity="0"
         offset=".81352"
         id="stop10" /></radialGradient><radialGradient
       id="radialGradient203-8"
       cx="76.419"
       cy="154.84"
       r="88.296"
       gradientTransform="matrix(2.6359,2.7695,-2.6999,2.5696,691.94,133.72)"
       gradientUnits="userSpaceOnUse"><stop
         stop-color="#fff"
         offset=".48159"
         id="stop11" /><stop
         stop-color="#fff"
         stop-opacity="0"
         offset=".81352"
         id="stop12" /></radialGradient><radialGradient
       id="radialGradient237"
       cx="98.484"
       cy="129.09"
       r="92.487"
       gradientTransform="matrix(1.659,1.5062,-1.462,1.6102,125.12,-227.18)"
       gradientUnits="userSpaceOnUse"><stop
         stop-color="#fff"
         offset=".47324"
         id="stop13" /><stop
         stop-color="#fff"
         stop-opacity="0"
         offset=".93477"
         id="stop14" /></radialGradient><radialGradient
       id="radialGradient237-2"
       cx="98.484"
       cy="129.09"
       r="92.487"
       gradientTransform="matrix(1.659,1.5062,-1.462,1.6102,-53.88,115.76)"
       gradientUnits="userSpaceOnUse"><stop
         stop-color="#fff"
         offset=".47324"
         id="stop15" /><stop
         stop-color="#fff"
         stop-opacity="0"
         offset=".93477"
         id="stop16" /></radialGradient><radialGradient
       id="radialGradient36"
       cx="98.484"
       cy="129.09"
       r="92.487"
       gradientTransform="matrix(.022312 .02607 -.027481 .023518 3.0265 -3.5489)"
       gradientUnits="userSpaceOnUse"><stop
         stop-color="#fff"
         offset="0.47323999"
         id="stop17"
         style="stop-color:#000000;stop-opacity:1;" /><stop
         stop-color="#fff"
         stop-opacity="0"
         offset="0.93476999"
         id="stop18"
         style="stop-color:#f6f7f8;stop-opacity:0;" /></radialGradient></defs><g
     transform="matrix(3.218,0,0,3.218,-1203.4,-2032.5)"
     display="none"
     stroke-miterlimit="50"
     stroke-width="0"
     id="g20"><path
       transform="translate(-2.4673,366.19)"
       d="m505.21 113.81-43.225 14.605-0.34961 33.604 43.342 13.984a11.511 11.511 0 0 0 0.27149-2.0684v-59.268a11.522 11.522 0 0 0-0.0391-0.85742z"
       display="inline"
       style="font-variation-settings:'wdth' 75, 'wght' 450"
       id="path18" /><path
       transform="translate(-2.4673,366.19)"
       d="m500.47 105.33-50.127 16.959 0.17383 47.465 47.676 14.693a11.511 11.511 0 0 0 6.793-8.4434l-43.342-13.984 0.34961-33.604 43.225-14.605a11.522 11.522 0 0 0-4.748-8.4805z"
       display="inline"
       fill="url(#linearGradient12)"
       style="font-variation-settings:'wdth' 75, 'wght' 450"
       id="path19" /><path
       transform="translate(-2.4673,366.19)"
       d="m434.54 103.15a11.511 11.511 0 0 0-11.51 11.51v59.268a11.522 11.522 0 0 0 11.521 11.523h59.188a11.511 11.511 0 0 0 4.4453-1l-47.676-14.693-0.17383-47.465 50.127-16.959a11.522 11.522 0 0 0-6.7344-2.1836z"
       display="inline"
       style="font-variation-settings:'wdth' 75, 'wght' 450"
       id="path20" /></g><style
     id="style20">&#10;    #light-icon {&#10;      display: inline;&#10;    }&#10;    #dark-icon {&#10;      display: none;&#10;    }&#10;&#10;    @media (prefers-color-scheme: dark) {&#10;      #light-icon {&#10;        display: none;&#10;      }&#10;      #dark-icon {&#10;        display: inline;&#10;      }&#10;    }&#10;  </style><g
     transform="matrix(.26458 0 0 .26458 -376.36 363.55)"
     display="none"
     id="g28"><g
       id="light-icon"><svg
         width="1e3"
         height="1e3"
         version="1.1"
         id="svg24"><g
           clip-path="url(#SvgjsClipPath1059)"
           id="g24"><rect
             width="1e3"
             height="1e3"
             id="rect20" /><g
             transform="matrix(5,0,0,5,192.5,150)"
             id="g23"><svg
               width="123"
               height="140"
               version="1.1"
               id="svg23"><svg
                 width="123"
                 height="140"
                 fill="#ffffff"
                 version="1.1"
                 viewBox="0 0 123 140"
                 id="svg22"><path
                   d="m60.257 118.76-41.353-23.766c-0.5019-0.3-0.8365-0.8334-0.8365-1.4334v-36.733c0-0.6333 0.7026-1.0333 1.2379-0.7333l48.012 27.6c0.6691 0.4 1.5056-0.1 1.5056-0.8667v-17.9c0-0.7-0.3681-1.3667-1.0038-1.7333l-57.748-33.2c-0.50187-0.3-1.171-0.3-1.6729 0l-7.5614 4.3666c-0.50186 0.3-0.83644 0.8334-0.83644 1.4334v68.233c0 0.6 0.33457 1.133 0.83644 1.433l59.32 34.134c0.5018 0.3 1.171 0.3 1.6728 0l49.818-28.667c0.67-0.4 0.67-1.333 0-1.733l-15.524-8.934c-0.6357-0.3663-1.3717-0.3663-2.0074 0l-32.153 18.5c-0.5019 0.3-1.171 0.3-1.6729 0z"
                   id="path21" /><path
                   d="m121.15 34.325-59.32-34.1c-0.5019-0.3-1.171-0.3-1.6729 0l-31.35 18.033c-0.6691 0.4-0.6691 1.3334 0 1.7334l15.39 8.8666c0.6357 0.3667 1.3718 0.3667 2.0075 0l14.052-8.0666c0.5019-0.3 1.171-0.3 1.6729 0l41.353 23.767c0.502 0.3 0.837 0.8334 0.837 1.4334v36.9c0 0.7 0.368 1.3666 1.003 1.7333l15.391 8.8333c0.669 0.4 1.505-0.1 1.505-0.8666v-56.8c0-0.6-0.334-1.1334-0.836-1.4334z"
                   id="path22" /></svg></svg></g></g></svg></g><g
       id="dark-icon"><svg
         width="1e3"
         height="1e3"
         version="1.1"
         id="svg27"><g
           clip-path="url(#SvgjsClipPath1060)"
           id="g27"><rect
             width="1e3"
             height="1e3"
             id="rect24" /><g
             transform="matrix(5,0,0,5,192.5,150)"
             id="g26"><svg
               width="123"
               height="140"
               version="1.1"
               id="svg26"><svg
                 width="123"
                 height="140"
                 fill="#ffffff"
                 version="1.1"
                 viewBox="0 0 123 140"
                 id="svg25"><path
                   d="m60.257 118.76-41.353-23.766c-0.5019-0.3-0.8365-0.8334-0.8365-1.4334v-36.733c0-0.6333 0.7026-1.0333 1.2379-0.7333l48.012 27.6c0.6691 0.4 1.5056-0.1 1.5056-0.8667v-17.9c0-0.7-0.3681-1.3667-1.0038-1.7333l-57.748-33.2c-0.50187-0.3-1.171-0.3-1.6729 0l-7.5614 4.3666c-0.50186 0.3-0.83644 0.8334-0.83644 1.4334v68.233c0 0.6 0.33457 1.133 0.83644 1.433l59.32 34.134c0.5018 0.3 1.171 0.3 1.6728 0l49.818-28.667c0.67-0.4 0.67-1.333 0-1.733l-15.524-8.934c-0.6357-0.3663-1.3717-0.3663-2.0074 0l-32.153 18.5c-0.5019 0.3-1.171 0.3-1.6729 0z"
                   id="path24" /><path
                   d="m121.15 34.325-59.32-34.1c-0.5019-0.3-1.171-0.3-1.6729 0l-31.35 18.033c-0.6691 0.4-0.6691 1.3334 0 1.7334l15.39 8.8666c0.6357 0.3667 1.3718 0.3667 2.0075 0l14.052-8.0666c0.5019-0.3 1.171-0.3 1.6729 0l41.353 23.767c0.502 0.3 0.837 0.8334 0.837 1.4334v36.9c0 0.7 0.368 1.3666 1.003 1.7333l15.391 8.8333c0.669 0.4 1.505-0.1 1.505-0.8666v-56.8c0-0.6-0.334-1.1334-0.836-1.4334z"
                   id="path25" /></svg></svg></g></g></svg></g></g><g
     transform="matrix(.026458 0 0 .026458 589.49 1243.5)"
     display="none"
     mask="url(#:r8:mask0_408_134)"
     id="g29"><circle
       cx="90"
       cy="90"
       r="90"
       data-circle="true"
       id="circle28" /><path
       d="m149.51 157.52-80.366-103.52h-15.142v71.97h12.114v-56.586l73.885 95.461c3.334-2.231 6.51-4.68 9.509-7.325z"
       fill="url(#:r8:paint0_linear_408_134)"
       id="path28" /><rect
       x="115"
       y="54"
       width="12"
       height="72"
       fill="url(#:r8:paint1_linear_408_134)"
       id="rect28" /></g><g
     transform="translate(-189.58 292.31)"
     display="none"
     id="g30"><path
       d="m30 0h204.58a30 30 0 0 1 30 30v204.58a30 30 0 0 1-30 30h-204.58a30 30 0 0 1-30-30v-204.58a30 30 0 0 1 30-30z"
       fill="#010713"
       stroke-miterlimit="50"
       stroke-width="0"
       style="font-variation-settings:'wdth' 75, 'wght' 900"
       id="path29" /><path
       d="m241.78 1.1818-159.41 61.226 0.53973 147.3 154.07 55.018 39.586-2.4148 8.4785-10.846-167.6-65.76 1.5413-102.45 200.54-79.463-44.746 6.638z"
       fill="url(#radialGradient237)"
       stroke-width=".8582"
       style="font-variation-settings:'wdth' 75, 'wght' 900"
       id="path30" /></g><g
     transform="scale(2)"
     id="g32"><path
       style="font-variation-settings:'wdth' 75, 'wght' 900;display:inline;fill:#f6f7f8;fill-opacity:1"
       d="m 0.48,5e-8 h 3.2733 a 0.48,0.48 0 0 1 0.48,0.48 V 3.7533001 a 0.48,0.48 0 0 1 -0.48,0.48 H 0.48 A 0.48,0.48 0 0 1 0,3.7533001 V 0.48000005 A 0.48,0.48 0 0 1 0.48,5e-8 Z"
       id="path31" /><path
       d="m3.9187 0.03579-2.5172 0.96684 0.00852 2.3261 2.433 0.86881 0.35809-0.1272 0.00966-0.2066-2.2553-0.91405 0.024338-1.6179 2.2535-0.8873-0.22076-0.40724z"
       fill="url(#radialGradient36)"
       stroke-width=".013552"
       style="font-variation-settings:'wdth' 75, 'wght' 900"
       id="path32" /></g><path
     d="m100.25 336.99-196.88 68.356 0.53973 147.3 169.3 61.45-11.089-23.005 39.514 0.047-163.19-62.495 1.0848-104.29 171.57-60.066-48.988-0.26686z"
     display="none"
     fill="url(#radialGradient237-2)"
     stroke-width=".8582"
     style="font-variation-settings:'wdth' 75, 'wght' 900"
     id="path33" /><path
     d="m-812.68 64.015-157.55 53.303 0.69627 190.02 160.93 49.595h43.164v-29.084l-159.55-51.476 1.3994-134.54 158.14-53.434v-24.397z"
     display="none"
     fill="url(#radialGradient237-6)"
     stroke-width="1.1071"
     style="font-variation-settings:'wdth' 75, 'wght' 900"
     id="path34" /><path
     d="m699.59 605.63-181.27 61.326 0.62859 171.64 172.4 53.132a41.625 41.625 0 0 0 24.564-30.532l-156.73-50.568 1.2642-121.52 156.31-52.814a41.665 41.665 0 0 0-17.169-30.667z"
     display="none"
     fill="url(#radialGradient203-8)"
     style="font-variation-settings:'wdth' 75, 'wght' 450"
     id="path35" /><path
     d="m92.548 846.39-181.27 61.326 0.62859 171.64 172.4 53.132a41.625 41.625 0 0 0 24.564-30.532l-156.73-50.568 1.2642-121.52 156.31-52.814a41.665 41.665 0 0 0-17.169-30.667z"
     display="none"
     fill="url(#radialGradient203-4)"
     style="font-variation-settings:'wdth' 75, 'wght' 450"
     id="path36" /></svg>
