<svg enable-background="new 0 0 500 500" version="1.1" viewBox="0 0 500 500" xml:space="preserve" xmlns="http://www.w3.org/2000/svg">


<rect x="-220.58" y="-80.614" width="813.32" height="705.38" display="none" fill="#fff" stroke="#6f7082" stroke-linecap="round" stroke-linejoin="round" stroke-miterlimit="50" stroke-width="1.1" style="font-variation-settings:'wdth' 75, 'wght' 324"/><g transform="matrix(.86661 0 0 .86661 29.685 54.638)"><g fill="#e0e0e0"><path d="m269.23 426.21h-38.47a1.86 1.86 0 0 1-1.89-2.43l0.78-3.1a3.36 3.36 0 0 1 3.11-2.42h34.47a3.35 3.35 0 0 1 3.1 2.42l0.79 3.1a1.86 1.86 0 0 1-1.89 2.43z"/><ellipse cx="437.5" cy="391.01" rx="21.96" ry="12.68"/><ellipse cx="70.95" cy="392.43" rx="21.96" ry="12.68"/><path d="m147.9 384.18-19.22 11.13a2.39 2.39 0 0 1-2.15 0l-56.76-32.73a0.65 0.65 0 0 1 0-1.24l19.23-11.13a2.39 2.39 0 0 1 2.15 0l56.77 32.73a0.66 0.66 0 0 1-0.02 1.24z"/><path d="m434.55 351.3-55.79 32.23a2.1 2.1 0 0 1-1.89 0l-46.85-27c-0.53-0.31-0.53-0.79 0-1.09l55.79-32.23a2.1 2.1 0 0 1 1.89 0l46.85 27a0.58 0.58 0 0 1 0 1.09z"/><path d="m168.42 375.32 13.12-7.57a0.51 0.51 0 0 0 0-1l-72.31-41.75a1.89 1.89 0 0 0-1.67 0l-13.12 7.58c-0.47 0.26-0.47 0.7 0 1l72.3 41.74a1.84 1.84 0 0 0 1.68 0z"/></g><path d="m319.91 143.1a74.33 74.33 0 1 1-52.3-44.81 74.31 74.31 0 0 1 52.3 44.81z" fill="#455a64"/><g fill="#8697c4"><path d="m242 107.29c-3.4 0.06-7.76 1.26-4.6 3.19s5.17 2.12 5.2 4.62-1.61 5.14-0.81 6.92 2.13 3.85 3.43 3.25 4.83-4.55 6.85-4.37 8.9 0.49 9.9-1.76 2-2.1 3.66-4.6 1.56-5.83-0.45-5.85-2.28 0.85-5.64 0.6-4.92-2.46-8.19-1.88-6.84-0.16-9.35-0.12z"/><path d="m229.37 108.18c-3.85 2.06-12 5.17-15.73 4.12-1.87-0.53-4.09-1.27-6.46-1.71a74.51 74.51 0 0 0-28.75 43.41 24.59 24.59 0 0 0 3.36 5.2c2.94 3.45 6 3.89 9.71 4.61s2.56 2.82 4.39 5 2.62 3.48 4.71 4.66-0.74 3.39-1.56 5.8-1.06 3.76 0.66 8.64 6.7 8.86 8.18 10.75-1 4.09-0.39 8 0.44 14.49 4.24 20.4 6.08 5.23 5.77 1.24-1.59-7.76 0.71-10.76 7-2.2 8.58-7.68 2.61-5.21 5.15-7.07 1.4-3.46 3.76-7.69 3.05-8.22-0.44-10-5.79-1.56-8.79-5.68a38.42 38.42 0 0 0-12-10.45c-4.32-2.34-11.18 0.52-13.92-0.28s-4.48-6-4.3-8-1.86-2.54-3.83-2.05-3.07-0.76-3.61-3.4 3.56-6 6.89-6.22 5.11 1.29 5.77 5.58a8.35 8.35 0 0 0 6.57 7.19c3.07 0.77 1.15-2.42-1-4.6s-2.33-4.17-0.69-9 5.68-4.45 8.69-8.87 3.59-1.1 6.63-0.66 2.59-1.2 3.71-4 5-0.38 8.16-2.63-3.45-5.76-3-8.8 3.46-2.93 1.78-7.49 0.64-4.73 1.84-6.43-0.93-3.19-4.79-1.13zm-4.5 11.12c-1 2.25-1.86 1.82-3.51 4.28a9.3 9.3 0 0 1-5.88 4c-1.66 0.2-4.39-2.75-4.53-4.58s2.49-2.37 5.47-2.75a16.7 16.7 0 0 0 8.24-3.81c2.14-1.64 1.22 0.62 0.21 2.86z"/><path d="m325 165.07v0.21a5.25 5.25 0 0 0-2.94 2.92c-1.69 4.15-2 2.33-6 5.15s-2.45 5-2.24 7.85-4.38 6-6.65 7-3.28 7.44-2.53 10.57-3 4.4-5.3 7.25-3.6 7.63-5.1 9.92a7 7 0 0 1-6.93 3.21c-2.72-0.46-5.24-5-6.7-8.86a22.68 22.68 0 0 1-1.12-12.45c0.85-4.24 0.55-3.71-0.46-10.33a10.56 10.56 0 0 0-8.23-9.23c-2.56-0.64-6.79 0.85-9.07-0.48s-3.25-3.26-4.74-9.49 1.6-7.65 4-11a23.24 23.24 0 0 1 11.42-8.07 12.57 12.57 0 0 1 9.78 1.26c2.61 1.3 3.84 4.22 5.7 4.42s3.45-0.77 5.31-0.41 3.11 1.27 4.92 1 0.66-2.39 0.4-3.54-1.9-0.86-4.08-0.88-2.72-0.61-3.49-2.06-2-0.17-3.07-0.76-0.85 2.07-0.94 3.1-0.89-0.79-0.89-0.79-0.9 1.41-1.29 0.76 0.51-2.2 0.38-3.8-2.43-1.22-3.87-2.45a5.5 5.5 0 0 0-5.4-0.75c-2 0.65-2.32 0.18-3.19 1.91s-5.14 2.9-6.49 2.67-0.4-3 0.76-5.4 3.55-1.62 5-4.07-0.55-2.8-1.92-3.19-1.8-1.71-0.37-4.83 3.33-2.26 4.12-0.82a4.81 4.81 0 0 0 4.35 2.18c1.83 0 1.4-1.27 1.36-4s1.19-4.1 3.62-5.12 6.49-2.67 8-4.13 4.31-0.5 5.76 1.07 4.68 2.15 8.07 2.72a2.79 2.79 0 0 0 2.4-0.79 74 74 0 0 1 17.66 42.53z"/><path d="m311.09 201.65c-1.81-0.31-1.65 0.29-2.71 1.71s-2.61 3-2.33 4.52 0.42 3.31 1.67 2.22 0.82-2.41 2.6-3.21 3.48-4.78 0.77-5.24z"/></g><path d="m270.26 104.85c-47.33-13.67-56.17 18.6-31.08 38.93s68.08 27 73.87 13.63-7.6-42.41-42.79-52.56z" fill="#fff" opacity=".4" style="mix-blend-mode:soft-light"/><path d="m230.75 208c-36.79-30.18-35.64-88.78-3.4-107.72-1.36 0.46-2.72 0.94-4.07 1.48a74.32 74.32 0 1 0 96.17 97.7c-10.39 14.37-51.94 38.66-88.7 8.54z" opacity=".05" style="mix-blend-mode:multiply"/><g fill="#8697c4"><path d="m423.08 101.12c-2.48-1.44-5.91-1.23-9.69 0.95-7.56 4.37-13.69 15-13.69 23.72 0 4.38 1.54 7.46 4 8.88l4.82 2.8c2.48 1.43 5.9 1.23 9.68-1 7.57-4.36 13.7-15 13.7-23.72 0-4.36-1.53-7.43-4-8.86"/><path d="m418.24 104.88c-7.56 4.37-13.69 15-13.69 23.73s6.13 12.27 13.69 7.9 13.71-15 13.7-23.72-6.14-12.27-13.7-7.91z"/><path d="m425.8 124.26v1a21.94 21.94 0 0 1-7.56 7.92c-2.94 1.7-5.61 1.88-7.56 0.8v-2.06a13.47 13.47 0 0 1 6.16-10.68l2-1.15c1.77-1 3.48-1.15 4.82-0.37s2.14 2.44 2.14 4.54z"/></g><path d="m423.08 101.12 4.85 2.81c-2.48-1.44-5.9-1.23-9.69 0.95-4.95 2.87-9.29 8.41-11.69 14.35l-4.86-2.82c2.41-5.94 6.75-11.48 11.7-14.34 3.78-2.18 7.21-2.39 9.69-0.95z" fill="#fff" opacity=".4"/><path d="m408.38 137.36-4.64-2.69c-2.5-1.42-4-4.5-4-8.88l4.85 2.82c-0.04 4.25 1.41 7.28 3.79 8.75z" opacity=".2"/><path d="m401.69 116.41 4.86 2.82a25.36 25.36 0 0 0-2 9.38l-4.85-2.82a25.58 25.58 0 0 1 1.99-9.38z" opacity=".1"/><path d="m416.52 119.63a2.65 2.65 0 0 1-1.32-0.34 3.25 3.25 0 0 1-1.43-3 8.52 8.52 0 0 1 3.92-6.77 2.92 2.92 0 0 1 4.71 2.73 8.51 8.51 0 0 1-3.91 6.77 4 4 0 0 1-1.97 0.61z" fill="#fff"/><path d="m423.65 119.72c-1.34-0.78-3-0.64-4.82 0.37l-2 1.15a13.47 13.47 0 0 0-6.16 10.68v2.08c1.95 1.08 4.62 0.9 7.56-0.8a21.94 21.94 0 0 0 7.56-7.92v-1c0.01-2.12-0.79-3.77-2.14-4.56z" fill="#fff"/><path d="m352.78 219.16a24.25 24.25 0 0 0 2.13-10.07 18.94 18.94 0 0 0 1.74-3.42 12.61 12.61 0 0 1-2 1.89 9.24 9.24 0 0 0 1.53-3.46 13.21 13.21 0 0 1-2.22 2.41 2.13 2.13 0 0 0-2.54 0 8.26 8.26 0 0 0-3.4 7.68c-2.9 1.48-5.47 1.11-7.19-0.71-0.92 2.62-0.48 5.1 1.08 5.59a2.59 2.59 0 0 1-1.58 0.33c0 2.17 1.12 3.52 2.79 3a4.32 4.32 0 0 1-1.57 1 2.06 2.06 0 0 0 3.26 1.35 12.1 12.1 0 0 1-5.17 4.91 7 7 0 0 0 5.35-1c3.45-2 6.1-5.59 7.79-9.49" fill="#8697c4"/><path d="m86.54 206.57c2.48-1.43 5.9-1.23 9.69 1 7.56 4.37 13.69 15 13.69 23.73 0 4.38-1.55 7.45-4 8.87l-4.83 2.8c-2.47 1.43-5.9 1.23-9.68-0.95-7.56-4.37-13.69-15-13.69-23.73 0-4.36 1.53-7.43 4-8.86" fill="#8697c4"/><path d="m91.37 210.34c7.56 4.37 13.7 15 13.7 23.72s-6.14 12.27-13.7 7.91-13.7-15-13.69-23.73 6.14-12.24 13.69-7.9z" fill="#8697c4"/><g fill="#fff"><path d="m90.4 221.64c-1.68-1-3 0.06-3 2.3a7.28 7.28 0 0 0 3 5.81c1.68 1 3-0.06 3-2.3a7.28 7.28 0 0 0-3-5.81zm0 6.69a4.73 4.73 0 0 1-2-3.78c0-1.45 0.88-2.12 2-1.49a4.74 4.74 0 0 1 2 3.77c-0.02 1.46-0.91 2.17-2 1.5z"/><path d="m94.87 223.28c0 0.53-0.32 0.77-0.71 0.54a1.69 1.69 0 0 1-0.72-1.36c0-0.52 0.32-0.76 0.72-0.53a1.69 1.69 0 0 1 0.71 1.35"/><path d="m96.1 219.66-10.55-6.1c-0.75-0.43-1.35 0-1.35 1v14.07a3.21 3.21 0 0 0 1.35 2.57l3.78 2.19 3.14 1.81 3.63 2.09c0.74 0.43 1.35 0 1.35-1v-14.06a3.22 3.22 0 0 0-1.35-2.57zm0 15.93-10.08-5.82a1.1 1.1 0 0 1-0.54-0.94v-13.54l10.08 5.82a1.07 1.07 0 0 1 0.54 0.94z"/><path d="m86.54 206.57-4.85 2.81c2.48-1.43 5.9-1.23 9.68 1 4.95 2.86 9.29 8.4 11.7 14.34l4.85-2.82c-2.4-5.93-6.74-11.48-11.69-14.34-3.79-2.22-7.23-2.42-9.69-0.99z" opacity=".4"/></g><path d="m101.24 242.82 4.64-2.7c2.49-1.42 4-4.49 4-8.87l-4.85 2.81c0.03 4.26-1.43 7.28-3.79 8.76z" opacity=".2"/><path d="m107.92 221.86-4.85 2.82a25.4 25.4 0 0 1 2 9.38l4.85-2.81a25.41 25.41 0 0 0-2-9.39z" opacity=".1"/><path d="m345.79 34c-2.47-1.44-5.9-1.23-9.68 0.95-7.57 4.37-13.7 15-13.7 23.72 0 4.39 1.55 7.46 4 8.88l4.83 2.8c2.48 1.43 5.9 1.23 9.68-0.95 7.56-4.37 13.7-15 13.7-23.73 0-4.36-1.54-7.43-4-8.86" fill="#8697c4"/><path d="m341 37.8c-7.56 4.37-13.69 15-13.69 23.72s6.09 12.27 13.69 7.91 13.7-15 13.7-23.73-6.18-12.27-13.7-7.9z" fill="#8697c4"/><path d="m345.79 34 4.86 2.81c-2.48-1.43-5.91-1.23-9.69 1-4.95 2.86-9.29 8.4-11.7 14.34l-4.85-2.82c2.41-5.93 6.74-11.48 11.7-14.34 3.78-2.19 7.21-2.4 9.68-0.99z" fill="#fff" opacity=".4"/><path d="m331.1 70.28-4.65-2.7c-2.49-1.42-4-4.49-4-8.87l4.86 2.81c-0.04 4.26 1.42 7.28 3.79 8.76z" opacity=".2"/><path d="m324.41 49.32 4.85 2.82a25.58 25.58 0 0 0-2 9.38l-4.86-2.81a25.41 25.41 0 0 1 2.01-9.39z" opacity=".1"/><path d="m338.78 66.93 3.48-2v-11.65l2.43-1.4 0.26-4-2.69 1.55v-2.26c0-0.92 0.14-1.36 0.81-1.74l1.93-1.09v-4.05l-2.41 1.4a7.07 7.07 0 0 0-3.76 6.61v3.1l-1.83 1.05v3.94l1.81-1z" fill="#fff"/><path d="m306.39 270.49c-2.47-1.44-5.9-1.23-9.68 0.95-7.57 4.37-13.7 15-13.7 23.72 0 4.39 1.55 7.46 4 8.88l4.83 2.8c2.48 1.43 5.9 1.23 9.68-1 7.56-4.36 13.7-15 13.7-23.72 0-4.36-1.54-7.43-4-8.86" fill="#8697c4"/><path d="m301.56 274.26c-7.56 4.36-13.69 15-13.69 23.72s6.13 12.27 13.69 7.9 13.7-15 13.7-23.72-6.14-12.27-13.7-7.9z" fill="#8697c4"/><path d="m306.39 270.49 4.86 2.81c-2.48-1.43-5.91-1.23-9.69 0.95-4.95 2.87-9.29 8.41-11.7 14.35l-4.86-2.82c2.41-5.94 6.74-11.48 11.7-14.34 3.79-2.18 7.22-2.39 9.69-0.95z" fill="#fff" opacity=".4"/><path d="m291.7 306.73-4.65-2.73c-2.49-1.42-4-4.49-4-8.88l4.86 2.82c-0.04 4.3 1.42 7.32 3.79 8.79z" opacity=".2"/><path d="m285 285.78 4.85 2.82a25.54 25.54 0 0 0-2 9.38l-4.85-2.82a25.4 25.4 0 0 1 2-9.38z" opacity=".1"/><path d="m298.38 289.25s2.22-5.1 2.43-5.84a22.76 22.76 0 0 0 0-3.8c0-0.49 2-1.85 2.67-0.45a7.41 7.41 0 0 1 0.34 4.72l4.92-2.87c1-0.61 1.47 0.25 1.47 0.92a3.73 3.73 0 0 1-0.79 2.12s1-0.3 1 1a3.46 3.46 0 0 1-1.19 2.41s0.32 0.25 0.33 1.17a3.92 3.92 0 0 1-1.38 2.46 3 3 0 0 1 0.22 1.16 3.78 3.78 0 0 1-1.8 2.83l-8.14 4.75z" fill="#fff"/><polygon points="297.21 289.63 293.66 291.69 293.71 304.03 297.26 301.96" fill="#fff"/><path d="m136.68 143.91 2.26-0.18c3-0.24 6.53-1.41 6.53-5.67a10 10 0 0 0-4.52-7.83c-1.95-1.12-3.61-0.66-4.25 1a10 10 0 0 0-4.24-5.86c-2.5-1.44-4.52-0.27-4.52 2.61 0 4.18 3.53 9.46 6.49 13.16z" fill="#8697c4"/><path d="m189.32 267.54c2.48-1.43 5.9-1.23 9.69 1 7.56 4.37 13.69 15 13.69 23.72 0 4.38-1.55 7.45-4 8.88l-4.83 2.8c-2.47 1.43-5.9 1.22-9.68-1-7.56-4.37-13.69-15-13.69-23.72 0-4.37 1.53-7.43 4-8.86" fill="#8697c4"/><path d="m194.15 271.31c7.57 4.37 13.7 15 13.7 23.72s-6.14 12.28-13.7 7.91-13.7-15-13.69-23.72 6.14-12.22 13.69-7.91z" fill="#8697c4"/><path d="m189.32 267.54-4.85 2.82c2.48-1.44 5.9-1.23 9.68 0.95 4.95 2.86 9.29 8.41 11.7 14.34l4.85-2.81c-2.4-5.94-6.7-11.48-11.7-14.34-3.78-2.19-7.2-2.39-9.68-0.96z" fill="#fff" opacity=".4"/><path d="m204 303.79 4.64-2.69c2.49-1.43 4-4.5 4-8.88l-4.79 2.78c-0.01 4.29-1.47 7.32-3.85 8.79z" opacity=".2"/><path d="m210.7 282.84-4.85 2.81a25.4 25.4 0 0 1 2 9.38l4.85-2.82a25.4 25.4 0 0 0-2-9.37z" opacity=".1"/><path d="m189.84 278.43v13.27c0 1 0.39 1.72 0.88 1.63l9.19-1.77c0.48-0.1 0.28-1-0.47-2l-8.25-11.12c-0.75-0.99-1.35-1-1.35-0.01z" fill="#fff"/><path d="m78.34 94.18c2.48-1.44 5.9-1.23 9.69 0.95 7.56 4.37 13.69 15 13.69 23.72 0 4.39-1.54 7.46-4 8.88l-4.82 2.8c-2.48 1.43-5.9 1.23-9.69-1-7.56-4.36-13.69-15-13.69-23.72 0-4.36 1.53-7.43 4-8.86" fill="#8697c4"/><path d="m83.18 98c7.56 4.37 13.69 15 13.69 23.72s-6.13 12.27-13.7 7.9-13.7-15-13.69-23.72 6.14-12.32 13.7-7.9z" fill="#8697c4"/><path d="m78.34 94.18-4.85 2.82c2.48-1.43 5.9-1.23 9.68 1 5 2.86 9.3 8.4 11.7 14.34l4.85-2.82c-2.4-5.99-6.72-11.52-11.72-14.39-3.76-2.13-7.18-2.39-9.66-0.95z" fill="#fff" opacity=".4"/><path d="m93 130.42 4.64-2.69c2.5-1.42 4-4.49 4-8.88l-4.85 2.82c0.08 4.26-1.38 7.33-3.79 8.75z" opacity=".2"/><path d="m99.72 109.47-4.85 2.82a25.4 25.4 0 0 1 2 9.38l4.85-2.82a25.4 25.4 0 0 0-2-9.38z" opacity=".1"/><path d="m80 102.05v13.6a4.7 4.7 0 0 0-0.9-0.69c-1-0.6-1.87 0.21-1.87 1.8a4.91 4.91 0 0 0 1.87 3.95c1 0.6 2.27 0 2.27-1.58v-12.47l6 3.52v9.76a5.14 5.14 0 0 0-0.9-0.69c-1-0.6-1.53 0.39-1.53 2a4.93 4.93 0 0 0 1.87 4c1 0.6 1.87-0.21 1.87-1.8v-16.3z" fill="#fff"/><path d="m416.87 212.34c-2.48-1.43-5.91-1.23-9.69 1-7.56 4.37-13.69 15-13.69 23.72 0 4.38 1.54 7.45 4 8.88l4.82 2.8c2.48 1.43 5.9 1.22 9.68-1 7.57-4.37 13.7-15 13.7-23.72 0-4.37-1.53-7.43-4-8.86" fill="#8697c4"/><path d="m412 216.11c-7.56 4.37-13.69 15-13.69 23.72s6.13 12.28 13.69 7.91 13.71-15 13.7-23.72-6.11-12.27-13.7-7.91z" fill="#8697c4"/><path d="m416.87 212.34 4.85 2.82c-2.48-1.44-5.9-1.23-9.69 1-4.95 2.86-9.29 8.41-11.69 14.34l-4.86-2.81c2.41-5.94 6.75-11.48 11.7-14.34 3.82-2.24 7.21-2.44 9.69-1.01z" fill="#fff" opacity=".4"/><path d="m402.17 248.59-4.64-2.69c-2.5-1.43-4-4.5-4-8.88l4.85 2.82c-0.04 4.25 1.42 7.28 3.79 8.75z" opacity=".2"/><path d="m395.48 227.64 4.86 2.81a25.4 25.4 0 0 0-2 9.38l-4.85-2.83a25.58 25.58 0 0 1 1.99-9.36z" opacity=".1"/><g fill="#fff"><path d="m405.19 227.28v17.2c0 0.52 0.36 0.73 0.81 0.47l12.07-7a1.79 1.79 0 0 0 0.81-1.4v-17.18c0-0.51-0.36-0.72-0.81-0.47l-12.07 7a1.76 1.76 0 0 0-0.81 1.38zm12.12 10-10.55 6.1c-0.45 0.25-0.81 0-0.81-0.47v-14.91a1.78 1.78 0 0 1 0.81-1.4l10.55-6.09c0.45-0.26 0.81-0.05 0.81 0.46v14.87a1.76 1.76 0 0 1-0.81 1.4z"/><polygon points="418.12 233.42 418.12 236.78 405.95 243.8 405.95 238.96 409.79 231.59 413.78 235.97 412.92 233.85 414.5 230.94"/><path d="m415.1 224.94c0.48-0.28 0.88 0.1 0.88 0.85a2.34 2.34 0 0 1-0.88 1.86c-0.49 0.28-0.88-0.1-0.88-0.85a2.3 2.3 0 0 1 0.88-1.86z"/></g><path d="m169.48 74.73-2.71-5.09 2.23-6.28v-3.85l-6.67 3.85v3.84l2.87 5a0.41 0.41 0 0 0 0.2 0.17z" fill="#8697c4"/><path d="m169.48 74.73-2.71-5.09 2.23-6.28v-3.85l-6.67 3.85v3.84l2.87 5a0.41 0.41 0 0 0 0.2 0.17z" opacity=".2"/><path d="m198.14 29.53a4.44 4.44 0 0 0-2-3.46l-1.63-0.94a4.41 4.41 0 0 0-4 0l-37.69 21.78a4.4 4.4 0 0 0-2 3.46v19.49a4.41 4.41 0 0 0 2 3.47l1.63 0.94a4.45 4.45 0 0 0 4 0l8-4.64 2.86 5a0.42 0.42 0 0 0 0.77-0.07l3-8.73 23-13.29a4.44 4.44 0 0 0 2-3.46z" fill="#8697c4"/><path d="m150.82 69.86a4.41 4.41 0 0 0 2 3.47l1.63 0.94a4.5 4.5 0 0 0 3.65 0.16c-0.94 0.35-1.66-0.18-1.66-1.32v-19.49a4.08 4.08 0 0 1 0.59-2l-5.62-3.25a4 4 0 0 0-0.59 2z" opacity=".2"/><g fill="#fff"><path d="m198.07 29c-0.23-0.85-1-1.12-1.93-0.59l-37.7 21.79a3.91 3.91 0 0 0-1.44 1.45l-5.62-3.25a4.14 4.14 0 0 1 1.41-1.49l37.69-21.78a4.47 4.47 0 0 1 4 0l1.63 0.94a4.39 4.39 0 0 1 1.96 2.93z" opacity=".2"/><path d="m167.46 53.93a5.88 5.88 0 0 0-2.67 4.62c0 1.7 1.19 2.39 2.67 1.54a5.9 5.9 0 0 0 2.66-4.62c0-1.7-1.19-2.39-2.66-1.54z"/><path d="m177.29 48.24a5.91 5.91 0 0 0-2.67 4.62c0 1.7 1.2 2.39 2.67 1.54a5.91 5.91 0 0 0 2.71-4.62c0-1.7-1.24-2.39-2.71-1.54z"/><path d="m187.13 42.55a5.88 5.88 0 0 0-2.67 4.62c0 1.7 1.19 2.39 2.67 1.54a5.9 5.9 0 0 0 2.66-4.62c0-1.7-1.19-2.39-2.66-1.54z"/></g><path d="m352.62 141.21 17.31-10a1.46 1.46 0 0 0 0.59-1.15v-15.56c0-0.44-0.26-0.64-0.59-0.45l-17.31 10a1.43 1.43 0 0 0-0.6 1.14v15.58c-0.02 0.43 0.27 0.63 0.6 0.44z" fill="#8697c4"/><path d="m352 140.76v-0.31l7.16-11.86-7.06-3.91a0.5 0.5 0 0 1 0.05-0.13l8.8 3.67c0.18 0.08 0.42-0.06 0.61-0.36l8.79-13.8a0.12 0.12 0 0 1 0.05 0l-7.05 12.06 7.15 3.6v0.3a1.59 1.59 0 0 1-0.18 0.71l-7.33-4-1 1.78c-0.42 0.7-1 1-1.39 0.8l-1-0.58-7.32 12.44a0.55 0.55 0 0 1-0.28-0.41z" fill="#fff"/><path d="m156 204.87a11.31 11.31 0 0 1 1.44 1.82 15.57 15.57 0 0 1 1.11 2.09 14.12 14.12 0 0 1 0.72 2.1 8.64 8.64 0 0 1 0.29 1.86 0.62 0.62 0 0 1-0.12 0.42 0.19 0.19 0 0 1-0.26 0.06l-2.31-1.34a1.16 1.16 0 0 1-0.4-0.36 3.71 3.71 0 0 1-0.31-0.55l-0.17-0.41a4.28 4.28 0 0 0-0.32-0.65 4.76 4.76 0 0 0-0.54-0.71 3 3 0 0 0-0.77-0.62 3.71 3.71 0 0 0-0.65-0.3 1.1 1.1 0 0 0-0.55-0.06 0.54 0.54 0 0 0-0.39 0.26 1.28 1.28 0 0 0-0.15 0.7 2.34 2.34 0 0 0 0.17 0.88 3.69 3.69 0 0 0 0.57 0.91 10.19 10.19 0 0 0 1 1.12c0.44 0.42 1 0.94 1.63 1.54a16 16 0 0 1 1.69 1.86 10.06 10.06 0 0 1 1.21 2 10.29 10.29 0 0 1 0.73 2.3 14.12 14.12 0 0 1 0.24 2.7 8.25 8.25 0 0 1-0.28 2.26 3.84 3.84 0 0 1-0.8 1.49 2.25 2.25 0 0 1-1.24 0.7 3.38 3.38 0 0 1-1.59-0.1v2.23a0.8 0.8 0 0 1-0.14 0.51 0.23 0.23 0 0 1-0.34 0.06l-2.31-1.34a0.9 0.9 0 0 1-0.34-0.44 1.8 1.8 0 0 1-0.14-0.68v-2.33a10.75 10.75 0 0 1-1.48-1.85 15.36 15.36 0 0 1-1.17-2.14 13.09 13.09 0 0 1-0.75-2.21 10.12 10.12 0 0 1-0.28-2.09 0.68 0.68 0 0 1 0.11-0.42 0.2 0.2 0 0 1 0.26-0.06l2.32 1.34a1.42 1.42 0 0 1 0.39 0.33 4.27 4.27 0 0 1 0.28 0.5c0 0.11 0.12 0.28 0.21 0.53a6.24 6.24 0 0 0 0.38 0.8 5.15 5.15 0 0 0 0.6 0.86 3.23 3.23 0 0 0 0.89 0.74 3.36 3.36 0 0 0 1.57 0.54c0.42 0 0.63-0.31 0.63-0.94a2.05 2.05 0 0 0-0.23-0.92 6 6 0 0 0-0.69-1c-0.31-0.35-0.7-0.75-1.18-1.2s-1-1-1.69-1.6a10.9 10.9 0 0 1-2.66-3.85 12.84 12.84 0 0 1-0.84-4.8 8.06 8.06 0 0 1 0.23-2 4.55 4.55 0 0 1 0.67-1.49 2.38 2.38 0 0 1 1.06-0.86 2.64 2.64 0 0 1 1.42-0.16v-2.32a0.83 0.83 0 0 1 0.14-0.52 0.25 0.25 0 0 1 0.34-0.06l2.31 1.34a0.93 0.93 0 0 1 0.34 0.45 1.75 1.75 0 0 1 0.14 0.67z" fill="#8697c4"/><path d="m262.62 42.81-3.19-1.81c-1.51-1-3.62-1-6 0.37-4.63 2.67-8.37 9.45-8.37 15.14v1.29c0 5.69 7.65 11.88 7.65 11.88l3.13 1.77s-1.88-2.14-1.67-2.58c2-4.21 7.63-16.09 7.63-20.73v-1.3a10.19 10.19 0 0 0-0.36-2.78l0.36 0.21zm-9.14 13c-2.31 1.33-4.19 0.25-4.19-2.42 1.25-0.19 4.38-5.53 4.19-7.25 2.31-1.33 4.18-0.25 4.18 2.42a9.26 9.26 0 0 1-4.18 7.3z" fill="#8697c4"/><g opacity=".2"><path d="m262.62 42.81-3.19-1.81c-1.51-1-3.62-1-6 0.37-4.63 2.67-8.37 9.45-8.37 15.14v1.29c0 5.69 7.65 11.88 7.65 11.88l3.13 1.77s-1.88-2.14-1.67-2.58c2-4.21 7.63-16.09 7.63-20.73v-1.3a10.19 10.19 0 0 0-0.36-2.78l0.36 0.21zm-9.14 13c-2.31 1.33-4.19 0.25-4.19-2.42 1.25-0.19 4.38-5.53 4.19-7.25 2.31-1.33 4.18-0.25 4.18 2.42a9.26 9.26 0 0 1-4.18 7.3z"/></g><path d="m265.2 48.76c0-5.69-3.75-8.14-8.37-5.47s-8.38 9.45-8.38 15.14v1.3c0 4.38 5 9.46 7.25 11.57a1.13 1.13 0 0 0 1.78-0.33c2-4 7.72-16.2 7.72-20.91zm-8.37 9c-2.32 1.34-4.19 0.26-4.19-2.41a9.23 9.23 0 0 1 4.19-7.25c2.31-1.34 4.18-0.26 4.18 2.41a9.24 9.24 0 0 1-4.18 7.28z" fill="#8697c4"/><g fill="#8697c4" opacity=".8"><path d="m411.21 107.57a0.38 0.38 0 0 1-0.24-0.09l-61.81-50.29a0.37326 0.37326 0 1 1 0.47-0.58l61.82 50.3a0.37 0.37 0 0 1-0.24 0.66z"/><path d="m410.16 214.37a0.38 0.38 0 0 1-0.35-0.39l3.61-78.28a0.38 0.38 0 0 1 0.39-0.36 0.38 0.38 0 0 1 0.36 0.39l-3.64 78.27a0.37 0.37 0 0 1-0.37 0.37z"/><path d="m404.6 219.17a0.35 0.35 0 0 1-0.33-0.2l-40.93-77a0.38 0.38 0 0 1 0.16-0.5 0.37 0.37 0 0 1 0.5 0.15l40.92 77a0.36 0.36 0 0 1-0.15 0.5 0.37 0.37 0 0 1-0.17 0.05z"/><path d="m373.39 122.35a0.36 0.36 0 0 1-0.36-0.3 0.38 0.38 0 0 1 0.29-0.44l30.68-6.08a0.36 0.36 0 0 1 0.43 0.29 0.38 0.38 0 0 1-0.29 0.44l-30.64 6.08z"/><path d="m357.61 116.78a0.37 0.37 0 0 1-0.34-0.22l-20.08-46.14a0.37 0.37 0 0 1 0.19-0.49 0.37 0.37 0 0 1 0.49 0.2l20.13 46.13a0.36 0.36 0 0 1-0.19 0.49 0.4 0.4 0 0 1-0.2 0.03z"/><path d="m265.38 56.21a0.38 0.38 0 0 1-0.37-0.31 0.36 0.36 0 0 1 0.31-0.43l65.68-10.75a0.37 0.37 0 0 1 0.42 0.31 0.37 0.37 0 0 1-0.3 0.43l-65.68 10.74z"/><path d="m352.81 119.83a0.41 0.41 0 0 1-0.2-0.06l-88.07-56.51a0.37165 0.37165 0 1 1 0.41-0.62l88.05 56.51a0.37 0.37 0 0 1-0.21 0.68z"/><path d="m352.46 202.16a0.38 0.38 0 0 1-0.33-0.42l6.75-60a0.37 0.37 0 0 1 0.42-0.33 0.36 0.36 0 0 1 0.32 0.41l-6.75 60a0.37 0.37 0 0 1-0.41 0.34z"/><path d="m312.22 287.89a0.37 0.37 0 0 1-0.32-0.19 0.37 0.37 0 0 1 0.13-0.51l84-48.9a0.37 0.37 0 0 1 0.51 0.13 0.37 0.37 0 0 1-0.14 0.51l-84 48.91a0.45 0.45 0 0 1-0.18 0.05z"/><path d="m397.83 229.37h-0.11l-39.41-11.47a0.38 0.38 0 0 1-0.25-0.46 0.37 0.37 0 0 1 0.46-0.26l39.41 11.47a0.38 0.38 0 0 1 0.26 0.46 0.38 0.38 0 0 1-0.36 0.26z"/><path d="m311.25 273.67a0.39 0.39 0 0 1-0.23-0.07 0.38 0.38 0 0 1-0.07-0.52l29.79-40a0.37 0.37 0 0 1 0.52-0.08 0.38 0.38 0 0 1 0.08 0.53l-29.79 40a0.38 0.38 0 0 1-0.3 0.14z"/><path d="m195.5 269.82a0.35 0.35 0 0 1-0.29-0.15l-32.85-42.07a0.37014 0.37014 0 1 1 0.58-0.46l32.86 42.07a0.38 0.38 0 0 1-0.3 0.61z"/><path d="m106.49 228.8a0.38 0.38 0 0 1-0.34-0.23 0.37 0.37 0 0 1 0.21-0.49l35.64-14.19a0.38 0.38 0 0 1 0.28 0.7l-35.62 14.19z"/><path d="m151.52 194.67a0.36 0.36 0 0 1-0.36-0.28l-10.89-44.67a0.37 0.37 0 0 1 0.27-0.45 0.38 0.38 0 0 1 0.45 0.28l10.89 44.66a0.37 0.37 0 0 1-0.27 0.45z"/><path d="m96.17 211.23a0.35 0.35 0 0 1-0.17 0 0.37 0.37 0 0 1-0.16-0.5l34-67.79a0.38 0.38 0 0 1 0.5-0.17 0.39 0.39 0 0 1 0.17 0.51l-34.01 67.72a0.35 0.35 0 0 1-0.33 0.23z"/><path d="m91.37 208.84a0.37 0.37 0 0 1-0.37-0.34l-7.75-81a0.37 0.37 0 0 1 0.34-0.41 0.36 0.36 0 0 1 0.4 0.34l7.75 81a0.37 0.37 0 0 1-0.33 0.41z"/><path d="m186.9 287a0.34 0.34 0 0 1-0.19-0.05l-81.83-47.24a0.37397 0.37397 0 0 1 0.37-0.65l81.84 47.25a0.37 0.37 0 0 1-0.19 0.69z"/><path d="m139.73 126.07a0.4 0.4 0 0 1-0.15 0 0.38 0.38 0 0 1-0.19-0.49l21.79-49.79a0.37 0.37 0 0 1 0.49-0.19 0.36 0.36 0 0 1 0.19 0.49l-21.78 49.79a0.38 0.38 0 0 1-0.35 0.19z"/><path d="m243.53 55.74h-0.09l-41.35-10.2a0.38 0.38 0 0 1-0.28-0.45 0.39 0.39 0 0 1 0.46-0.28l41.35 10.19a0.38 0.38 0 0 1 0.28 0.45 0.38 0.38 0 0 1-0.37 0.29z"/><path d="m92 103.54a0.36 0.36 0 0 1-0.3-0.15 0.38 0.38 0 0 1 0.08-0.53l55.59-40.15a0.39 0.39 0 0 1 0.53 0.08 0.38 0.38 0 0 1-0.09 0.53l-55.55 40.15a0.36 0.36 0 0 1-0.26 0.07z"/><path d="m125.21 127a0.28 0.28 0 0 1-0.15 0l-25.88-12.19a0.37 0.37 0 0 1 0.31-0.67l25.88 12.11a0.37 0.37 0 0 1 0.18 0.5 0.38 0.38 0 0 1-0.34 0.25z"/><path d="m146.09 131.86a0.4 0.4 0 0 1-0.31-0.16 0.37 0.37 0 0 1 0.09-0.52l94-67.13a0.37316 0.37316 0 0 1 0.43 0.61l-94 67.13a0.33 0.33 0 0 1-0.21 0.07z"/><path d="m286.44 286.83-77.17-0.05a0.36 0.36 0 0 1 0-0.72l77.17 0.06a0.36 0.36 0 1 1 0 0.71z"/></g><path d="m333.48 353.85a2.89 2.89 0 0 0 1.34 2.23l37.68 21.75a3 3 0 0 0 2.68 0l51.55-29.76a2.53 2.53 0 0 0 0-4.47l-37.67-21.75a3 3 0 0 0-2.69 0l-51.55 29.76a2.89 2.89 0 0 0-1.34 2.24z" fill="#37474f"/><path d="m373.84 375.24v2.91a2.77 2.77 0 0 1-1.34-0.32l-37.68-21.75a2.52 2.52 0 0 1-0.13-4.38c-0.61 0.43-0.56 1.07 0.13 1.47l37.68 21.75a2.77 2.77 0 0 0 1.34 0.32z" fill="#263238"/><path d="m332.22 351.66a2.86 2.86 0 0 1-1.26-2.28v-44.95a3 3 0 0 1 1.34-2.33l51.55-29.76a2.52 2.52 0 0 1 3.86 2.23v44.95a3 3 0 0 1-1.34 2.33l-51.55 29.76a2.87 2.87 0 0 1-2.6 0.05z" fill="#455a64"/><path d="m334.67 351.69a2.51 2.51 0 0 1-3.71-2.31v-45a2.78 2.78 0 0 1 0.39-1.32l2.52 1.45a2.75 2.75 0 0 0-0.39 1.32v45c0 0.8 0.52 1.17 1.19 0.86z" fill="#263238"/><path d="m333.48 305.88v45c0 0.85 0.6 1.2 1.34 0.77l51.55-29.76a3 3 0 0 0 1.34-2.33v-44.99c0-0.86-0.6-1.2-1.34-0.78l-51.55 29.76a3 3 0 0 0-1.34 2.33z" fill="#37474f"/><path d="m334.82 353.17 37.68 21.74a3 3 0 0 0 2.68 0l51.55-29.75a0.83 0.83 0 0 0 0-1.56l-37.67-21.75a3 3 0 0 0-2.69 0l-51.55 29.76a0.83 0.83 0 0 0 0 1.56z" fill="#455a64"/><path d="m335.55 306.05 49.69-28.69c0.45-0.25 0.81 0 0.81 0.47v38.91a1.78 1.78 0 0 1-0.81 1.4l-49.69 28.69c-0.45 0.25-0.81 0-0.81-0.47v-38.91a1.78 1.78 0 0 1 0.81-1.4z" fill="#8697c4"/><g fill="#fff"><path d="m367.66 298.57-0.13-0.11c-1.9-1.43-4.43-1.36-7.12 0.19a19.5 19.5 0 0 0-6.89 7.62l-0.16 0.29-0.08 0.15a24.77 24.77 0 0 0-2.95 11.22c0 3.59 1 6.37 2.95 7.81s4.44 1.37 7.13-0.18a19.88 19.88 0 0 0 7.14-8.06 24.77 24.77 0 0 0 3-11.22c-0.07-3.52-1.07-6.28-2.89-7.71zm-5.66 25.62a11.83 11.83 0 0 1-1.11 0.79l-0.47 0.29-0.46 0.25a10.48 10.48 0 0 1-1.11 0.49c-4.67 1.69-8.25-1.62-8.3-8.07v-0.28a24.55 24.55 0 0 1 3-11l0.16-0.29a21.1 21.1 0 0 1 5.17-6.38 11.83 11.83 0 0 1 1.11-0.79l0.46-0.29 0.47-0.25a10.48 10.48 0 0 1 1.11-0.49 5.53 5.53 0 0 1 5.38 0.56 1.67 1.67 0 0 1 0.16 0.12c1.69 1.36 2.74 3.92 2.76 7.39v0.28c-0.11 6.53-3.69 13.97-8.33 17.67z"/><path d="m360.39 326.16c-2.81 1.62-5.46 1.69-7.45 0.18s-3.09-4.4-3.09-8.16a26 26 0 0 1 3.09-11.72l0.08-0.16 0.17-0.31a20.5 20.5 0 0 1 7.2-8c2.81-1.62 5.45-1.69 7.44-0.2l0.14 0.1c1.9 1.54 2.95 4.4 2.95 8.06a26 26 0 0 1-3.09 11.72 20.73 20.73 0 0 1-7.44 8.49zm0-26.63-0.44 0.27c-0.35 0.23-0.71 0.48-1.06 0.76a20.17 20.17 0 0 0-4.93 6.08l-0.15 0.28a23.37 23.37 0 0 0-2.81 10.48v0.27c0 6.1 3.38 9.34 7.92 7.7a9.81 9.81 0 0 0 1.06-0.47c0.29-0.15 0.6-0.33 0.89-0.51s0.71-0.49 1.06-0.76c4.54-3.6 7.87-10.68 7.92-16.84v-0.27c0-3.2-1-5.7-2.64-7l-0.15-0.12a5.26 5.26 0 0 0-5.13-0.53 9.81 9.81 0 0 0-1.06 0.47z"/><path d="m367.83 298.25-0.13-0.1-0.16-0.12-0.16 0.31-0.16 0.28a25.26 25.26 0 0 1-1.84 2.88 1.88 1.88 0 0 0-0.18 0.24 18.78 18.78 0 0 1-2.92 3l-0.21 0.16a13.87 13.87 0 0 1-1.43 1 9.68 9.68 0 0 1-1.85 0.83l-0.2 0.06a5.82 5.82 0 0 1-2.85 0.15h-0.18a4.88 4.88 0 0 1-1.72-0.82l-0.14-0.11-0.16-0.14-0.17 0.31c0 0.09-0.11 0.19-0.16 0.3l-0.17 0.31 0.16 0.13 0.14 0.11a5.37 5.37 0 0 0 1.87 0.89h0.19a6.29 6.29 0 0 0 3.05-0.19l0.21-0.06a10.49 10.49 0 0 0 2-0.88 15.65 15.65 0 0 0 1.52-1l0.22-0.17a19.56 19.56 0 0 0 3.12-3.22l0.19-0.26a23.78 23.78 0 0 0 2-3.12c0.06-0.09 0.11-0.19 0.17-0.3l0.16-0.31z"/><path d="m367.83 316.91a0.91 0.91 0 0 1-0.16-0.11 5.09 5.09 0 0 0-2-0.8 1.08 1.08 0 0 0-0.19 0 6.51 6.51 0 0 0-3.12 0.38l-0.22 0.08a10 10 0 0 0-1.52 0.73 13.55 13.55 0 0 0-1.95 1.37l-0.22 0.18a20.18 20.18 0 0 0-3.05 3.34l-0.19 0.26a27 27 0 0 0-1.87 3.05v0.05c-0.05 0.08-0.09 0.17-0.14 0.26l-0.2 0.3 0.17 0.12a1.67 1.67 0 0 0 0.16 0.12l0.17 0.11 0.3-0.6a25.38 25.38 0 0 1 1.72-2.81l0.18-0.25a19.29 19.29 0 0 1 2.85-3.13l0.2-0.17a12.49 12.49 0 0 1 1.85-1.3 9.81 9.81 0 0 1 1.43-0.69l0.21-0.07a6.15 6.15 0 0 1 2.92-0.35h0.18a4.78 4.78 0 0 1 1.84 0.75l0.16 0.1 0.16 0.12 0.16-0.3v-0.05c0-0.08 0.09-0.17 0.13-0.26l0.21-0.34z"/><path d="m364.22 300.24c-1-2.07-2.37-2.75-3.82-1.91s-2.82 3.09-3.83 6.33a36.39 36.39 0 0 0-1.52 10.52 21.19 21.19 0 0 0 1.52 8.77c1 2.07 2.37 2.75 3.83 1.91s2.81-3.09 3.82-6.33a36.39 36.39 0 0 0 1.52-10.53 21.19 21.19 0 0 0-1.52-8.76zm-3.82 24.76c-1.26 0.73-2.44 0.09-3.35-1.78a20.24 20.24 0 0 1-1.43-8.32 34.66 34.66 0 0 1 1.43-10c0.91-2.92 2.09-4.92 3.35-5.64s2.43-0.09 3.34 1.78a20.24 20.24 0 0 1 1.43 8.32 34.66 34.66 0 0 1-1.43 10c-0.91 2.87-2.09 4.87-3.34 5.64z"/><path d="m370.38 305.87-20 11.53a0.87 0.87 0 0 0-0.34 0.68c0 0.25 0.15 0.4 0.34 0.29l20-11.53a0.87 0.87 0 0 0 0.34-0.68c0-0.25-0.15-0.4-0.34-0.29z"/><path d="m360.75 325.22v-26.62c0-0.25-0.17-0.35-0.36-0.24a0.84 0.84 0 0 0-0.37 0.66v26.62c0 0.25 0.18 0.36 0.37 0.25a0.87 0.87 0 0 0 0.36-0.67z"/></g><path d="m339.2 352 47.8-27.62a1.46 1.46 0 0 1 1.35 0l2.44 1.41a0.41 0.41 0 0 1 0 0.78l-47.79 27.62a1.5 1.5 0 0 1-1.34 0l-2.44-1.41a0.41 0.41 0 0 1-0.02-0.78z" fill="#37474f"/><path d="m345.5 355.64 47.85-27.64a1.44 1.44 0 0 1 1.34 0l15.05 8.69c0.37 0.21 0.37 0.56 0 0.78l-47.74 27.6a1.47 1.47 0 0 1-1.34 0l-15.11-8.65a0.41 0.41 0 0 1-0.05-0.78z" fill="#263238"/><path d="m388.39 340.45 1.5-0.87c0.06 0 0.06-0.1 0-0.14l-1.73-1a0.25 0.25 0 0 0-0.24 0l-1.5 0.86c-0.06 0-0.06 0.1 0 0.14l1.73 1a0.29 0.29 0 0 0 0.24 0.01zm-3-3.44-1.49 0.87c-0.07 0-0.06 0.09 0 0.13l1.73 1a0.29 0.29 0 0 0 0.24 0l1.49-0.87c0.07 0 0.06-0.1 0-0.13l-1.74-1a0.25 0.25 0 0 0-0.19-0.01zm-4.83 2.79-2.54 1.47c-0.06 0-0.06 0.1 0 0.14l1.73 1a0.25 0.25 0 0 0 0.24 0l2.54-1.46c0.06 0 0.05-0.1 0-0.14l-1.74-1a0.27 0.27 0 0 0-0.19-0.01zm2.65-1.53-1.5 0.87c-0.07 0-0.06 0.1 0 0.14l1.73 1a0.25 0.25 0 0 0 0.24 0l1.5-0.86c0.06 0 0.06-0.1 0-0.14l-1.74-1a0.27 0.27 0 0 0-0.19-0.01zm-5.88 3.4-1.5 0.86c-0.06 0-0.06 0.1 0 0.14l1.73 1a0.29 0.29 0 0 0 0.24 0l1.5-0.87c0.06 0 0.06-0.1 0-0.14l-1.73-1a0.25 0.25 0 0 0-0.2 0.01zm-2.19 1.26-1.5 0.87c-0.06 0-0.06 0.09 0 0.13l1.73 1a0.26 0.26 0 0 0 0.24 0l1.5-0.87c0.06 0 0.06-0.09 0-0.13l-1.73-1a0.26 0.26 0 0 0-0.2 0zm6.86 4.07 1.5-0.87c0.06 0 0.06-0.1 0-0.13l-1.73-1a0.26 0.26 0 0 0-0.24 0l-1.5 0.87c-0.06 0-0.06 0.09 0 0.13l1.73 1a0.29 0.29 0 0 0 0.24 0zm-2.19 1.26 1.5-0.86c0.07 0 0.06-0.1 0-0.14l-1.73-1a0.29 0.29 0 0 0-0.24 0l-1.5 0.87c-0.06 0-0.06 0.1 0 0.14l1.73 1a0.25 0.25 0 0 0 0.23-0.01zm-2.19 1.27 1.5-0.87c0.07 0 0.06-0.1 0-0.14l-1.73-1a0.26 0.26 0 0 0-0.24 0l-1.5 0.86c-0.06 0-0.06 0.1 0 0.14l1.74 1a0.27 0.27 0 0 0 0.22 0.01zm-2.19 1.26 1.5-0.86c0.07 0 0.06-0.1 0-0.14l-1.73-1a0.29 0.29 0 0 0-0.24 0l-1.49 0.87c-0.07 0-0.06 0.1 0 0.14l1.74 1a0.27 0.27 0 0 0 0.21-0.01zm10.78-9.08 1.5-0.86c0.06 0 0.06-0.1 0-0.14l-1.73-1a0.29 0.29 0 0 0-0.24 0l-1.5 0.87c-0.06 0-0.06 0.1 0 0.14l1.73 1a0.25 0.25 0 0 0 0.23-0.01zm-2 4 3.34-1.93c0.07 0 0.06-0.09 0-0.13l-4.21-2.43a0.29 0.29 0 0 0-0.24 0l-1.73 1c-0.06 0-0.06 0.1 0 0.14l2.23 1.28c0.07 0 0.07 0.11 0 0.14l-1.39 0.8c-0.06 0-0.06 0.1 0 0.14l1.73 1a0.25 0.25 0 0 0 0.24 0.01zm-11.21-1.51-1.5 0.86c-0.06 0-0.06 0.1 0 0.14l1.73 1a0.25 0.25 0 0 0 0.24 0l1.5-0.86c0.06 0 0.06-0.1 0-0.14l-1.73-1a0.25 0.25 0 0 0-0.24 0zm-2.19 1.26-1.5 0.86c-0.06 0-0.06 0.1 0 0.14l1.73 1a0.29 0.29 0 0 0 0.24 0l1.5-0.87c0.06 0 0.06-0.1 0-0.14l-1.73-1a0.29 0.29 0 0 0-0.25 0.01zm-10.94 14.17a0.26 0.26 0 0 0 0.24 0l1.5-0.87c0.06 0 0.06-0.09 0-0.13l-1.73-1a0.26 0.26 0 0 0-0.24 0l-1.5 0.87c-0.06 0-0.06 0.09 0 0.13zm-6.57-4.06-1.5 0.87c-0.07 0-0.06 0.1 0 0.13l1.73 1a0.26 0.26 0 0 0 0.24 0l1.5-0.87c0.06 0 0.06-0.09 0-0.13l-1.74-1a0.24 0.24 0 0 0-0.24 0zm3.52 3a0.25 0.25 0 0 0 0.24 0l1.5-0.86c0.06 0 0.06-0.1 0-0.14l-1.73-1a0.29 0.29 0 0 0-0.24 0l-1.5 0.87c-0.06 0-0.06 0.1 0 0.14zm6.92 1.86 1.49-0.86c0.07 0 0.06-0.1 0-0.14l-1.74-1a0.29 0.29 0 0 0-0.24 0l-1.49 0.87c-0.07 0-0.06 0.1 0 0.14l1.74 1a0.26 0.26 0 0 0 0.23-0.04zm-2.43 1.26a0.29 0.29 0 0 0 0.24 0l1.49-0.87c0.07 0 0.06-0.1 0-0.14l-1.74-1a0.25 0.25 0 0 0-0.24 0l-1.49 0.86c-0.07 0-0.06 0.1 0 0.14zm-5.82-7.35-1.5 0.86c-0.07 0-0.06 0.1 0 0.14l1.73 1a0.29 0.29 0 0 0 0.24 0l1.49-0.87c0.07 0 0.06-0.1 0-0.14l-1.74-1a0.24 0.24 0 0 0-0.23-0.02zm10.93-6.34-1.5 0.86c-0.06 0-0.06 0.1 0 0.14l1.73 1a0.29 0.29 0 0 0 0.24 0l1.5-0.87c0.07 0 0.06-0.1 0-0.14l-1.73-1a0.25 0.25 0 0 0-0.24 0.01zm-8.76 5-1.49 0.87c-0.07 0-0.06 0.1 0 0.14l1.74 1a0.25 0.25 0 0 0 0.24 0l1.49-0.86c0.07 0 0.06-0.1 0-0.14l-1.74-1a0.29 0.29 0 0 0-0.24-0.01zm10.95-6.32-1.5 0.87c-0.06 0-0.06 0.1 0 0.14l1.73 1a0.25 0.25 0 0 0 0.24 0l1.5-0.86c0.06 0 0.06-0.1 0-0.14l-1.73-1a0.29 0.29 0 0 0-0.24 0.03zm-4.38 2.53-1.5 0.87c-0.06 0-0.06 0.1 0 0.13l1.74 1a0.24 0.24 0 0 0 0.23 0l1.5-0.87c0.07 0 0.06-0.09 0-0.13l-1.73-1a0.26 0.26 0 0 0-0.24 0.04zm-2.23 1.31-1.49 0.86c-0.07 0-0.06 0.1 0 0.14l1.74 1a0.24 0.24 0 0 0 0.23 0l1.5-0.86c0.07 0 0.06-0.1 0-0.14l-1.73-1a0.25 0.25 0 0 0-0.25 0zm-2.19 1.26-1.49 0.86c-0.07 0-0.06 0.1 0 0.14l1.74 1a0.29 0.29 0 0 0 0.24 0l1.49-0.87c0.07 0 0.06-0.1 0-0.14l-1.73-1a0.29 0.29 0 0 0-0.21 0.01zm11.2 1.54 1.49-0.87c0.07 0 0.06-0.1 0-0.13l-1.74-1a0.25 0.25 0 0 0-0.24 0l-1.49 0.87c-0.07 0-0.06 0.09 0 0.13l1.73 1a0.26 0.26 0 0 0 0.29 0zm19.22-19.1-1.49 0.86c-0.07 0-0.06 0.1 0 0.14l1.73 1a0.25 0.25 0 0 0 0.24 0l1.49-0.86c0.07 0 0.06-0.1 0-0.14l-1.74-1a0.25 0.25 0 0 0-0.19 0zm-2.65 1.53-1.49 0.86c-0.07 0-0.06 0.1 0 0.14l1.73 1a0.26 0.26 0 0 0 0.24 0l1.49-0.86c0.07 0 0.06-0.1 0-0.14l-1.74-1a0.25 0.25 0 0 0-0.19 0zm4.84-2.8-1.49 0.87c-0.07 0-0.06 0.1 0 0.13l1.74 1a0.26 0.26 0 0 0 0.24 0l1.49-0.86c0.07 0 0.06-0.1 0-0.14l-1.74-1a0.29 0.29 0 0 0-0.2 0.05zm-11.33 11.69 1.5-0.87c0.06 0 0.06-0.1 0-0.13l-1.73-1a0.26 0.26 0 0 0-0.24 0l-1.5 0.87c-0.06 0-0.06 0.09 0 0.13l1.73 1a0.29 0.29 0 0 0 0.28 0zm13.76-12.95a0.26 0.26 0 0 0-0.24 0l-1.49 0.86c-0.07 0-0.06 0.1 0 0.14l1.74 1a0.29 0.29 0 0 0 0.24 0l1.49-0.87c0.07 0 0.06-0.1 0-0.14zm-21.65 20.36 1.49-0.86c0.07 0 0.06-0.1 0-0.14l-1.73-1a0.25 0.25 0 0 0-0.24 0l-1.49 0.86c-0.07 0-0.06 0.1 0 0.14l1.74 1a0.25 0.25 0 0 0 0.27 0zm26.84-15.5 1.5-0.86c0.07 0 0.06-0.1 0-0.14l-1.73-1a0.26 0.26 0 0 0-0.24 0l-1.5 0.86c-0.06 0-0.06 0.1 0 0.14l1.74 1a0.24 0.24 0 0 0 0.27 0zm-4.66-0.16 1.5-0.87c0.06 0 0.06-0.09 0-0.13l-1.73-1a0.26 0.26 0 0 0-0.24 0l-1.5 0.87c-0.06 0-0.06 0.09 0 0.13l1.73 1a0.26 0.26 0 0 0 0.28 0zm1.95-3.27a0.25 0.25 0 0 0-0.24 0l-1.5 0.86c-0.06 0-0.06 0.1 0 0.14l1.73 1a0.25 0.25 0 0 0 0.24 0l1.5-0.86c0.06 0 0.06-0.1 0-0.14zm0.46-0.26 4.2 2.42a0.26 0.26 0 0 0 0.24 0l1.5-0.87c0.07 0 0.06-0.09 0-0.13l-4.2-2.43a0.29 0.29 0 0 0-0.24 0l-1.5 0.87c-0.03 0.03-0.03 0.1 0.04 0.14zm-5.08 2.78-1.5 0.87c-0.06 0-0.06 0.1 0 0.14l1.73 1a0.25 0.25 0 0 0 0.24 0l1.5-0.86c0.06 0 0.06-0.1 0-0.14l-1.73-1a0.29 0.29 0 0 0-0.2-0.01zm-16.48 9.52-1.5 0.86c-0.06 0-0.06 0.1 0 0.14l1.73 1a0.29 0.29 0 0 0 0.24 0l1.5-0.87c0.06 0 0.06-0.1 0-0.14l-1.73-1a0.25 0.25 0 0 0-0.2 0.01zm21.39-7.35a0.27 0.27 0 0 0 0.23 0l1.5-0.87c0.07 0 0.06-0.1 0-0.14l-1.73-1a0.26 0.26 0 0 0-0.24 0l-1.49 0.86c-0.07 0-0.06 0.1 0 0.14zm-19.2 6.08-1.5 0.87c-0.06 0-0.06 0.1 0 0.14l1.73 1a0.25 0.25 0 0 0 0.24 0l1.5-0.86c0.06 0 0.06-0.1 0-0.14l-1.73-1a0.29 0.29 0 0 0-0.2-0.01zm-16.41 14.48a0.25 0.25 0 0 0 0.24 0l1.5-0.86c0.06 0 0.06-0.1 0-0.14l-1.73-1a0.25 0.25 0 0 0-0.24 0l-1.5 0.86c-0.06 0-0.06 0.1 0 0.14zm-3.29-3.1-1.5 0.87c-0.07 0-0.06 0.09 0 0.13l1.73 1a0.26 0.26 0 0 0 0.24 0l1.5-0.87c0.06 0 0.06-0.09 0-0.13l-1.73-1a0.26 0.26 0 0 0-0.2 0zm5.72 1.84 1.5-0.86c0.06 0 0.06-0.1 0-0.14l-1.73-1a0.29 0.29 0 0 0-0.24 0l-1.5 0.87c-0.07 0-0.06 0.1 0 0.14l1.73 1a0.25 0.25 0 0 0 0.28-0.01zm2.19-1.26 1.5-0.87c0.06 0 0.06-0.1 0-0.14l-1.74-1a0.24 0.24 0 0 0-0.23 0l-1.5 0.86c-0.07 0-0.06 0.1 0 0.14l1.73 1a0.29 0.29 0 0 0 0.28 0.01zm2.19-1.27 1.49-0.86c0.07 0 0.06-0.1 0-0.14l-1.74-1a0.27 0.27 0 0 0-0.23 0l-1.5 0.87c-0.07 0-0.06 0.1 0 0.14l1.73 1a0.26 0.26 0 0 0 0.29-0.01zm-7.82-0.58-1.5 0.86c-0.07 0-0.06 0.1 0 0.14l1.73 1a0.25 0.25 0 0 0 0.24 0l1.5-0.86c0.06 0 0.06-0.1 0-0.14l-1.74-1a0.24 0.24 0 0 0-0.23 0zm2.19-1.27-1.5 0.87c-0.07 0-0.06 0.1 0 0.14l1.73 1a0.26 0.26 0 0 0 0.24 0l1.49-0.86c0.07 0 0.06-0.1 0-0.14l-1.74-1a0.27 0.27 0 0 0-0.27 0zm8.75-5.05-1.5 0.86c-0.06 0-0.06 0.1 0 0.14l1.74 1a0.24 0.24 0 0 0 0.23 0l1.5-0.86c0.07 0 0.06-0.1 0-0.14l-1.73-1a0.25 0.25 0 0 0-0.29 0.01zm-2.24 1.32-1.49 0.87c-0.07 0-0.06 0.09 0 0.13l1.74 1a0.27 0.27 0 0 0 0.23 0l1.5-0.87c0.07 0 0.06-0.1 0-0.13l-1.73-1a0.26 0.26 0 0 0-0.25 0zm4.38-2.53-1.5 0.87c-0.06 0-0.06 0.1 0 0.14l1.73 1a0.29 0.29 0 0 0 0.24 0l1.5-0.86c0.07 0 0.06-0.1 0-0.14l-1.73-1a0.29 0.29 0 0 0-0.24-0.06zm-8.76 5.06-1.49 0.86c-0.07 0-0.06 0.1 0 0.14l1.74 1a0.29 0.29 0 0 0 0.24 0l1.49-0.87c0.07 0 0.06-0.1 0-0.14l-1.74-1a0.25 0.25 0 0 0-0.24-0.04zm2.19-1.27-1.49 0.87c-0.07 0-0.06 0.1 0 0.14l1.74 1a0.25 0.25 0 0 0 0.24 0l1.49-0.86c0.07 0 0.06-0.1 0-0.14l-1.73-1a0.29 0.29 0 0 0-0.25-0.06zm-1.59 8.93 1.49-0.87c0.07 0 0.06-0.1 0-0.13l-1.73-1a0.26 0.26 0 0 0-0.24 0l-1.49 0.86c-0.07 0-0.06 0.1 0 0.14l1.74 1a0.29 0.29 0 0 0 0.23-0.05zm-12.85-1.3-1.73-1a0.25 0.25 0 0 0-0.24 0l-1.5 0.86c-0.07 0-0.06 0.1 0 0.14l1.73 1a0.26 0.26 0 0 0 0.24 0l1.5-0.86c0.07-0.09 0.07-0.15 0-0.19zm3.28 1-1.73-1a0.25 0.25 0 0 0-0.24 0l-2.31 1.33c-0.06 0-0.06 0.1 0 0.14l1.73 1a0.25 0.25 0 0 0 0.24 0l2.31-1.33c0.07-0.13 0.07-0.19 0-0.23zm-5.94-2.89-1.73-1a0.29 0.29 0 0 0-0.24 0l-1.85 1c-0.06 0 0 0.1 0 0.13l1.74 1a0.24 0.24 0 0 0 0.23 0l1.85-1.06c0.07-0.07 0.07-0.07 0-0.16zm1.41-0.82a0.29 0.29 0 0 0 0.24 0l1.5-0.87c0.06 0 0.06-0.1 0-0.14l-1.73-1a0.25 0.25 0 0 0-0.24 0l-1.5 0.86c-0.06 0-0.06 0.1 0 0.14zm7.58 4.81-1.73-1a0.25 0.25 0 0 0-0.24 0l-2.88 1.66c-0.07 0-0.06 0.1 0 0.14l1.73 1a0.26 0.26 0 0 0 0.24 0l2.88-1.66c0.07-0.13 0.07-0.19 0-0.23zm1.44 2-1.74-1a0.27 0.27 0 0 0-0.23 0l-1.87 1.01c-0.06 0-0.06 0.1 0 0.13l1.73 1a0.26 0.26 0 0 0 0.24 0l1.85-1.06c0.09-0.07 0.08-0.07 0.02-0.14zm7.26-16.24a0.29 0.29 0 0 0 0.24 0l1.5-0.87c0.06 0 0.06-0.1 0-0.13l-1.73-1a0.26 0.26 0 0 0-0.24 0l-1.5 0.86c-0.06 0-0.06 0.1 0 0.14zm-4.38 2.53a0.29 0.29 0 0 0 0.24 0l1.5-0.87c0.06 0 0.06-0.1 0-0.14l-1.73-1a0.25 0.25 0 0 0-0.24 0l-1.5 0.86c-0.06 0-0.06 0.1 0 0.14zm-9.72 5.55a0.25 0.25 0 0 0 0.24 0l1.5-0.86c0.06 0 0.06-0.1 0-0.14l-1.73-1a0.29 0.29 0 0 0-0.24 0l-1.5 0.87c-0.06 0-0.06 0.1 0 0.14zm11.9-6.87a0.25 0.25 0 0 0 0.24 0l1.5-0.86c0.06 0 0.06-0.1 0-0.14l-1.73-1a0.29 0.29 0 0 0-0.24 0l-1.5 0.87c-0.06 0-0.06 0.1 0 0.14zm-4.38 2.53a0.29 0.29 0 0 0 0.24 0l1.5-0.86c0.06 0 0.06-0.1 0-0.14l-1.73-1a0.29 0.29 0 0 0-0.24 0l-1.5 0.87c-0.06 0-0.06 0.1 0 0.14zm0.51 12.6a0.29 0.29 0 0 0-0.24 0l-2.3 1.34c-0.07 0-0.06 0.09 0 0.13l1.74 1a0.26 0.26 0 0 0 0.24 0l2.3-1.33c0.06 0 0.06-0.1 0-0.14zm-3.65-10.79a0.25 0.25 0 0 0 0.24 0l1.5-0.86c0.06 0 0.06-0.1 0-0.14l-1.73-1a0.25 0.25 0 0 0-0.24 0l-1.5 0.86c-0.06 0-0.06 0.1 0 0.14zm-2.19 1.26a0.29 0.29 0 0 0 0.24 0l1.5-0.87c0.06 0 0.06-0.1 0-0.13l-1.73-1a0.26 0.26 0 0 0-0.24 0l-1.5 0.87c-0.06 0-0.06 0.09 0 0.13zm46.4-13.89a0.25 0.25 0 0 0-0.24 0l-3.69 2.13c-0.06 0-0.06 0.09 0 0.13l1.74 1a0.24 0.24 0 0 0 0.23 0l3.69-2.13c0.07 0 0.06-0.1 0-0.14zm-4.84 2.8a0.26 0.26 0 0 0-0.24 0l-1.5 0.87c-0.06 0-0.06 0.09 0 0.13l1.74 1a0.24 0.24 0 0 0 0.23 0l1.5-0.87c0.07 0 0.06-0.09 0-0.13zm-29.66 16.4 1.5-0.86c0.07 0 0.06-0.1 0-0.14l-1.73-1a0.26 0.26 0 0 0-0.24 0l-1.49 0.86c-0.07 0-0.06 0.1 0 0.14l1.74 1a0.24 0.24 0 0 0 0.23 0zm25.29-13.87a0.26 0.26 0 0 0-0.24 0l-1.49 0.86c-0.07 0-0.06 0.1 0 0.14l1.74 1a0.29 0.29 0 0 0 0.24 0l1.49-0.87c0.07 0 0.06-0.1 0-0.14zm11.41-6.58a0.29 0.29 0 0 0-0.24 0l-1.5 0.87c-0.06 0-0.06 0.1 0 0.14l1.73 1a0.25 0.25 0 0 0 0.24 0l1.5-0.86c0.06 0 0.06-0.1 0-0.14zm3.92-0.27-4.2-2.43a0.29 0.29 0 0 0-0.24 0l-1.5 0.86c-0.07 0-0.06 0.1 0 0.14l4.2 2.43a0.29 0.29 0 0 0 0.24 0l1.5-0.87c0.07-0.04 0.07-0.1 0-0.14zm-23.51 11.57a0.29 0.29 0 0 0-0.24 0l-1.84 1.07c-0.06 0-0.06 0.1 0 0.14l1.73 1a0.26 0.26 0 0 0 0.24 0l1.84-1.06c0.07 0 0.06-0.1 0-0.14zm5.53-3.2a0.26 0.26 0 0 0-0.24 0l-2.3 1.33c-0.06 0-0.06 0.1 0 0.14l1.73 1a0.26 0.26 0 0 0 0.24 0l2.3-1.33c0.07 0 0.06-0.1 0-0.14zm-10.6 6.12a0.29 0.29 0 0 0-0.24 0l-12.33 7.12c-0.06 0-0.06 0.1 0 0.14l1.73 1a0.25 0.25 0 0 0 0.24 0l12.33-7.12c0.07 0 0.06-0.1 0-0.14zm-13 7.52a0.25 0.25 0 0 0-0.24 0l-1.89 1.06c-0.07 0-0.06 0.1 0 0.14l1.73 1a0.25 0.25 0 0 0 0.24 0l1.84-1.06c0.06 0 0.06-0.1 0-0.14zm15.56-9a0.25 0.25 0 0 0-0.24 0l-1.85 1.06c-0.06 0-0.06 0.1 0 0.14l1.73 1a0.25 0.25 0 0 0 0.24 0l1.85-1.06c0.06 0 0.06-0.1 0-0.14zm-18.09 10.45a0.26 0.26 0 0 0-0.24 0l-1.85 1.07c-0.06 0-0.06 0.09 0 0.13l1.73 1a0.26 0.26 0 0 0 0.24 0l1.85-1.07c0.06 0 0.06-0.09 0-0.13zm23.16-13.38a0.25 0.25 0 0 0-0.24 0l-1.85 1.06c-0.06 0-0.06 0.1 0 0.14l1.73 1a0.29 0.29 0 0 0 0.24 0l1.85-1.07c0.06 0 0.06-0.1 0-0.14zm7.83-4.52a0.25 0.25 0 0 0-0.24 0l-1.49 0.86c-0.07 0-0.06 0.1 0 0.14l1.74 1a0.24 0.24 0 0 0 0.23 0l1.5-0.86c0.07 0 0.06-0.1 0-0.14zm4.8-3.48 1.5-0.87c0.06 0 0.06-0.1 0-0.14l-1.73-1a0.25 0.25 0 0 0-0.24 0l-1.5 0.86c-0.06 0-0.06 0.1 0 0.14l1.73 1a0.29 0.29 0 0 0 0.22 0.03zm-9.79-0.07 1.5-0.86c0.06 0 0.06-0.1 0-0.14l-1.73-1a0.25 0.25 0 0 0-0.24 0l-1.5 0.86c-0.06 0-0.06 0.1 0 0.14l1.73 1a0.25 0.25 0 0 0 0.22 0.02zm-5 8.58 4.38-2.53c0.06 0 0.06-0.09 0-0.13l-1.73-1a0.26 0.26 0 0 0-0.24 0l-4.38 2.53c-0.06 0-0.06 0.1 0 0.14l1.73 1a0.25 0.25 0 0 0 0.26 0.01zm12.32-7.25a0.29 0.29 0 0 0 0.24 0l1.5-0.86c0.06 0 0.06-0.1 0-0.14l-1.73-1a0.29 0.29 0 0 0-0.24 0l-1.5 0.87c-0.06 0-0.06 0.1 0 0.14zm-2.23-1.43 1.49-0.86c0.07 0 0.06-0.1 0-0.14l-1.73-1a0.29 0.29 0 0 0-0.24 0l-1.49 0.87c-0.07 0-0.06 0.1 0 0.14l1.74 1a0.25 0.25 0 0 0 0.25 0.01zm-12.26 9.94 1.5-0.87c0.06 0 0.06-0.1 0-0.14l-1.73-1a0.25 0.25 0 0 0-0.24 0l-1.5 0.86c-0.06 0-0.06 0.1 0 0.14l1.73 1a0.29 0.29 0 0 0 0.24 0.01zm9.67-5.73a0.25 0.25 0 0 0 0.24 0l1.5-0.86c0.06 0 0.06-0.1 0-0.14l-1.73-1a0.25 0.25 0 0 0-0.24 0l-1.5 0.86c-0.06 0-0.06 0.1 0 0.14zm-20.62 12.05 1.5-0.87c0.07 0 0.06-0.1 0-0.14l-1.73-1a0.26 0.26 0 0 0-0.24 0l-1.5 0.86c-0.06 0-0.06 0.1 0 0.14l1.73 1a0.29 0.29 0 0 0 0.24 0.04zm2.19-1.27 1.5-0.86c0.06 0 0.06-0.1 0-0.14l-1.73-1a0.29 0.29 0 0 0-0.24 0l-1.5 0.87c-0.06 0-0.06 0.1 0 0.14l1.73 1a0.25 0.25 0 0 0 0.24 0.02zm-4.38 2.53 1.5-0.87c0.07 0 0.06-0.09 0-0.13l-1.73-1a0.29 0.29 0 0 0-0.24 0l-1.5 0.87c-0.06 0-0.06 0.1 0 0.13l1.74 1a0.27 0.27 0 0 0 0.23 0.03zm8.76-5.06 1.5-0.86c0.06 0 0.06-0.1 0-0.14l-1.73-1a0.25 0.25 0 0 0-0.24 0l-1.5 0.86c-0.06 0-0.06 0.1 0 0.14l1.73 1a0.25 0.25 0 0 0 0.24 0.03zm-2.19 1.27 1.5-0.87c0.06 0 0.06-0.1 0-0.14l-1.73-1a0.29 0.29 0 0 0-0.24 0l-1.5 0.86c-0.06 0-0.06 0.1 0 0.14l1.73 1a0.29 0.29 0 0 0 0.24 0.04zm4.38-2.53 1.5-0.87c0.06 0 0.06-0.09 0-0.13l-1.73-1a0.26 0.26 0 0 0-0.24 0l-1.5 0.87c-0.06 0-0.06 0.1 0 0.13l1.73 1a0.26 0.26 0 0 0 0.24 0.03zm10-18.7a0.29 0.29 0 0 0 0.24 0l1.49-0.87c0.07 0 0.06-0.1 0-0.14l-0.47-0.26a0.24 0.24 0 0 0-0.23 0l-1.5 0.87c-0.07 0-0.06 0.09 0 0.13zm-10.77 7a0.24 0.24 0 0 0 0.23 0l1.5-0.87c0.07 0 0.06-0.1 0-0.13l-1.73-1a0.26 0.26 0 0 0-0.24 0l-1.5 0.87c-0.06 0-0.06 0.09 0 0.13zm4.37-2.52a0.29 0.29 0 0 0 0.24 0l1.5-0.86c0.06 0 0.06-0.1 0-0.14l-1.73-1a0.29 0.29 0 0 0-0.24 0l-1.5 0.87c-0.06 0-0.06 0.1 0 0.14zm-7.05 4.07a0.25 0.25 0 0 0 0.24 0l1.5-0.86c0.06 0 0.06-0.1 0-0.14l-1.73-1a0.29 0.29 0 0 0-0.24 0l-1.5 0.87c-0.06 0-0.06 0.1 0 0.14zm4.86-2.81a0.25 0.25 0 0 0 0.24 0l1.5-0.86c0.07 0 0.06-0.1 0-0.14l-1.73-1a0.26 0.26 0 0 0-0.24 0l-1.5 0.86c-0.06 0-0.06 0.1 0 0.14zm-9.24 5.33a0.26 0.26 0 0 0 0.24 0l1.5-0.86c0.06 0 0.06-0.1 0-0.14l-1.73-1a0.29 0.29 0 0 0-0.24 0l-1.5 0.87c-0.06 0-0.06 0.1 0 0.13zm2.19-1.26a0.29 0.29 0 0 0 0.24 0l1.5-0.87c0.06 0 0.06-0.1 0-0.14l-1.73-1a0.25 0.25 0 0 0-0.24 0l-1.5 0.86c-0.06 0-0.06 0.1 0 0.14zm11.26-7.23a0.25 0.25 0 0 0 0.24 0l1.5-0.86c0.06 0 0.06-0.1 0-0.14l-0.46-0.27a0.25 0.25 0 0 0-0.24 0l-1.5 0.86c-0.06 0-0.06 0.1 0 0.14zm6.57-3.79a0.26 0.26 0 0 0 0.24 0l1.49-0.86c0.07 0 0.06-0.1 0-0.14l-0.47-0.27a0.24 0.24 0 0 0-0.23 0l-1.5 0.86c-0.07 0-0.06 0.1 0 0.14zm3.64 2.1a0.24 0.24 0 0 0 0.23 0l1.5-0.86c0.07 0 0.06-0.1 0-0.14l-1.73-1a0.29 0.29 0 0 0-0.24 0l-1.5 0.87c-0.06 0-0.06 0.1 0 0.14zm5.47 5.55 1.5-0.86c0.06 0 0.06-0.1 0-0.14l-1.73-1a0.29 0.29 0 0 0-0.24 0l-1.5 0.87c-0.06 0-0.06 0.1 0 0.14l1.73 1a0.25 0.25 0 0 0 0.26-0.01zm-13.49-5.13a0.26 0.26 0 0 0 0.24 0l1.5-0.87c0.06 0 0.05-0.09 0-0.13l-0.46-0.27a0.25 0.25 0 0 0-0.24 0l-1.5 0.86c-0.07 0-0.06 0.1 0 0.14zm-17.83 11a0.25 0.25 0 0 0 0.24 0l1.54-0.87c0.06 0 0.06-0.1 0-0.14l-1.73-1a0.25 0.25 0 0 0-0.24 0l-1.5 0.86c-0.06 0-0.06 0.1 0 0.14z" fill="#455a64"/><path d="m381 357 14.79-8.53a1.76 1.76 0 0 1 1.61 0l8.48 4.89a0.49 0.49 0 0 1 0 0.93l-14.88 8.56a1.82 1.82 0 0 1-1.61 0l-8.39-4.85a0.5 0.5 0 0 1 0-1z" fill="#263238"/><rect x="230.8" y="350.29" width="38.4" height="71.97" rx="2.88" fill="#455a64"/><rect x="231.89" y="354.72" width="36.21" height="63.11" rx="1.89" fill="#8697c4"/><g fill="#fff"><path d="m258.39 377-0.15-0.16a11.65 11.65 0 0 0-16.18-0.24l-0.18 0.17-0.09 0.09a11.65 11.65 0 1 0 16.63 0.16zm-6.57 19.34a10.89 10.89 0 0 1-1.28 0.14h-1.08a10.89 10.89 0 0 1-1.28-0.14 11.42 11.42 0 0 1-9.59-11.14v-0.24a11.43 11.43 0 0 1 3.44-8l0.18-0.17a11.37 11.37 0 0 1 6-2.94 10.88 10.88 0 0 1 1.28-0.13h1.08a10.88 10.88 0 0 1 1.28 0.13 11.38 11.38 0 0 1 6.21 3.17l0.18 0.18a11.43 11.43 0 0 1 3.2 7.79v0.24a11.42 11.42 0 0 1-9.62 11.06z"/><path d="m250 397.21a12.18 12.18 0 0 1-8.61-20.79l0.1-0.09 0.19-0.19a12.17 12.17 0 0 1 16.9 0.25l0.16 0.16a12.18 12.18 0 0 1-8.74 20.66zm0-23.06h-0.51a10.24 10.24 0 0 0-1.23 0.12 10.86 10.86 0 0 0-5.69 2.8l-0.17 0.17a10.79 10.79 0 0 0-3.28 7.66v0.23a10.85 10.85 0 0 0 9.14 10.62 10.26 10.26 0 0 0 1.23 0.13 8.68 8.68 0 0 0 1 0 10.26 10.26 0 0 0 1.23-0.13 10.85 10.85 0 0 0 9.14-10.62v-0.24a10.8 10.8 0 0 0-3.05-7.42l-0.17-0.17a10.73 10.73 0 0 0-5.92-3 10.24 10.24 0 0 0-1.23-0.12z"/><path d="m258.59 376.76-0.35-0.35-0.18 0.19-0.18 0.17a11.21 11.21 0 0 1-2.13 1.56l-0.21 0.12a11 11 0 0 1-3.37 1.16h-0.24a11.38 11.38 0 0 1-1.66 0.13 10.73 10.73 0 0 1-2.12-0.21l-0.24-0.05a11 11 0 0 1-3.29-1.29l-0.2-0.12a11.66 11.66 0 0 1-2-1.57l-0.17-0.18-0.18-0.19-0.2 0.18-0.18 0.18-0.2 0.19 0.35 0.35a11.77 11.77 0 0 0 2.16 1.71l0.22 0.13a11.56 11.56 0 0 0 3.52 1.37l0.25 0.05a12.08 12.08 0 0 0 2.25 0.21 11.53 11.53 0 0 0 1.77-0.13h0.24a11.52 11.52 0 0 0 3.61-1.23l0.22-0.12a12 12 0 0 0 2.31-1.7l0.38-0.36z"/><path d="m258.58 392.92-0.18-0.17a12.39 12.39 0 0 0-2.32-1.71l-0.22-0.12a11.81 11.81 0 0 0-3.6-1.23h-0.25a12.94 12.94 0 0 0-1.77-0.13 12.17 12.17 0 0 0-2.25 0.22l-0.25 0.05a11.8 11.8 0 0 0-3.52 1.36l-0.22 0.13a12.22 12.22 0 0 0-2.16 1.71l-0.15 0.15-0.19 0.2 0.2 0.19 0.18 0.17 0.2 0.19 0.18-0.2 0.17-0.17a10.75 10.75 0 0 1 2-1.57l0.2-0.13a11.22 11.22 0 0 1 3.29-1.29l0.24-0.05a11.54 11.54 0 0 1 2.12-0.2 11.38 11.38 0 0 1 1.66 0.12h0.24a11 11 0 0 1 3.37 1.17l0.21 0.11a11.26 11.26 0 0 1 2.13 1.57l0.18 0.17 0.18 0.18 0.19-0.18 0.16-0.16 0.18-0.19z"/><path d="m254.41 376.68c-1.16-2.3-2.73-3.57-4.41-3.57s-3.25 1.27-4.41 3.57a20.71 20.71 0 0 0 0 16.71c1.16 2.3 2.73 3.56 4.41 3.56s3.25-1.26 4.41-3.56a20.71 20.71 0 0 0 0-16.71zm-4.41 19.49c-1.45 0-2.82-1.14-3.86-3.21a19.86 19.86 0 0 1 0-15.85c1-2.07 2.41-3.21 3.86-3.21s2.82 1.14 3.86 3.21a19.86 19.86 0 0 1 0 15.85c-1.04 2.04-2.41 3.21-3.86 3.21z"/><path d="m261.53 384.63h-23.06a0.43 0.43 0 0 0 0 0.85h23.06a0.43 0.43 0 0 0 0-0.85z"/><path d="m250.41 396.58v-23.06a0.42 0.42 0 0 0-0.42-0.39 0.42 0.42 0 0 0-0.42 0.39v23.06a0.42 0.42 0 0 0 0.42 0.39 0.41 0.41 0 0 0 0.42-0.39z"/></g><g fill="#263238"><path d="m247.53 351.44h5.64a0.6 0.6 0 0 1 0.61 0.57 0.59 0.59 0 0 1-0.61 0.57h-5.64a0.59 0.59 0 0 1-0.61-0.57 0.6 0.6 0 0 1 0.61-0.57z"/><path d="m257.2 351.44a0.56 0.56 0 0 1 0.57 0.57 0.57 0.57 0 0 1-0.57 0.57 0.58 0.58 0 0 1-0.57-0.57 0.57 0.57 0 0 1 0.57-0.57z"/><circle cx="259.49" cy="352.01" r=".57"/><circle cx="241.21" cy="352.01" r=".57"/><path d="m243.5 351.44a0.57 0.57 0 0 1 0.57 0.57 0.58 0.58 0 0 1-0.57 0.57 0.57 0.57 0 0 1-0.57-0.57 0.56 0.56 0 0 1 0.57-0.57z"/></g><path d="m127.11 363.14-11.11-6.42a2.9 2.9 0 0 1-1.71-2.39v-1.54l11.52-6.5a2.44 2.44 0 0 0 1.11-1.91v-13.69l19.39 11.2v13.69a2.44 2.44 0 0 1-1.1 1.92l-9.8 5.64a9.11 9.11 0 0 1-8.3 0z" fill="#263238"/><path d="m141.65 358v1.54l3.55-2.05a2.45 2.45 0 0 0 1.11-1.92v-13.68l-3.7-2.13c-0.08 0.94-0.16 1.91-0.24 2.86l2.6 1.49v10.7a2.43 2.43 0 0 1-1.11 1.91z" opacity=".3"/><path d="m145 354.81a2.46 2.46 0 0 1-1.11 1.92l-8.46 4.87a9.17 9.17 0 0 1-8.29 0l-11.14-6.42c-2.29-1.32-2.29-3.46 0-4.78l8.47-4.88a2.43 2.43 0 0 0 1.1-1.91v-10.7l19.43 11.21z" fill="#455a64"/><path d="m122.21 346.82 2.26-1.3a2.43 2.43 0 0 0 1.1-1.91v-10.7l19.43 11.21v10.69a2.46 2.46 0 0 1-1.11 1.92l-2.24 1.27z" fill="#37474f"/><path d="m114.29 352.79v1.54a2.93 2.93 0 0 0 1.71 2.4l11.11 6.41a8.2 8.2 0 0 0 4 1v-1.53a8.2 8.2 0 0 1-4-1l-11.11-6.43a2.9 2.9 0 0 1-1.71-2.39z" fill="#37474f"/><path d="m95.63 262v59.52a3.09 3.09 0 0 0 1.38 2.4l75.89 43.73 0.13 0.06c0.68 0.3 1.21-0.07 1.21-0.88v1.17a2.57 2.57 0 0 0 1.3-0.29 3 3 0 0 0 1.29-2.35v-59.51a3.06 3.06 0 0 0-1.38-2.39l-75.84-43.73a3 3 0 0 0-2.68-0.05 2.93 2.93 0 0 0-1.28 2.1 1.94 1.94 0 0 0-0.02 0.22z" fill="#455a64"/><path d="m95.63 262v59.52a3.09 3.09 0 0 0 1.38 2.4l75.89 43.73 0.13 0.06c0.68 0.3 1.21-0.07 1.21-0.88v-59.48a3.07 3.07 0 0 0-1.38-2.4l-75.86-43.73c-0.69-0.4-1.26-0.14-1.36 0.56a1.94 1.94 0 0 0-0.01 0.22z" fill="#37474f"/><path d="m174.28 366.87v-4.05l2.59-1.5v4.05a3 3 0 0 1-1.29 2.35 2.57 2.57 0 0 1-1.3 0.29 1.62 1.62 0 0 1-0.31 0h-0.31l-0.24-0.06h-0.08l-0.23-0.1c0.64 0.2 1.17-0.17 1.17-0.98z" fill="#263238"/><path d="m95.63 317.48v4.06a3.09 3.09 0 0 0 1.38 2.4l75.89 43.73 0.13 0.06c0.68 0.3 1.21-0.07 1.21-0.88v-4.05z" fill="#455a64"/><path d="m173.88 306a2.8 2.8 0 0 1 0.4 1.36v55.48l2.6-1.5v-55.49a2.8 2.8 0 0 0-0.4-1.36z" fill="#263238"/><path d="m171.69 355.89v-47.68a1.83 1.83 0 0 0-0.83-1.44l-71.81-41.38c-0.45-0.26-0.82-0.05-0.82 0.48v47.68a1.83 1.83 0 0 0 0.83 1.44l71.81 41.37c0.45 0.27 0.82 0.05 0.82-0.47z" fill="#8697c4"/><g fill="#fff"><path d="m122.15 303.49a31.52 31.52 0 0 0 3.75 14.24c2.42 4.62 5.64 8.25 9.06 10.22s6.63 2.06 9 0.23 3.75-5.35 3.75-9.91a31.52 31.52 0 0 0-3.71-14.27c0-0.06-0.07-0.12-0.1-0.19l-0.2-0.37a24.85 24.85 0 0 0-8.7-9.64c-3.41-2-6.62-2.05-9-0.24l-0.17 0.13c-2.41 1.88-3.68 5.31-3.68 9.8zm0.27 0.33v-0.36c0-4.41 1.37-7.66 3.51-9.38a1.3 1.3 0 0 1 0.2-0.15 7 7 0 0 1 6.83-0.71 12.14 12.14 0 0 1 1.41 0.62l0.59 0.32 0.59 0.36a16.61 16.61 0 0 1 1.41 1 26.8 26.8 0 0 1 6.56 8.09l0.2 0.37a31.09 31.09 0 0 1 3.77 13.95v0.36c-0.06 8.19-4.61 12.39-10.53 10.24a12.14 12.14 0 0 1-1.41-0.62l-0.59-0.32-0.59-0.36c-0.48-0.31-1-0.65-1.41-1-5.96-4.69-10.47-14.14-10.54-22.41z"/><path d="m125.49 318a32.88 32.88 0 0 1-3.92-14.88c0-4.64 1.33-8.27 3.75-10.22l0.17-0.14c2.53-1.89 5.88-1.79 9.44 0.26 3.41 2 6.66 5.56 9.15 10.11l0.21 0.38 0.1 0.2a32.92 32.92 0 0 1 3.92 14.89c0 4.77-1.39 8.44-3.92 10.35s-5.89 1.83-9.46-0.23-6.93-5.85-9.44-10.72zm8.9-23.4a11.91 11.91 0 0 0-1.34-0.59 6.65 6.65 0 0 0-6.52 0.67l-0.18 0.14c-2.13 1.72-3.32 4.9-3.35 8.95v0.35c0.06 7.82 4.29 16.8 10.05 21.37a15.13 15.13 0 0 0 1.35 1 11.59 11.59 0 0 0 1.12 0.65 11.29 11.29 0 0 0 1.35 0.59c5.76 2.09 10-2 10-9.76a1.09 1.09 0 0 0 0-0.18 1 1 0 0 0 0-0.17 29.49 29.49 0 0 0-3.6-13.3 3.9 3.9 0 0 0-0.19-0.35 25.42 25.42 0 0 0-6.25-7.72q-0.68-0.53-1.35-1l-0.56-0.35z"/><path d="m125.52 293.31 0.17-0.13 0.21-0.14 0.21 0.38c0.06 0.13 0.13 0.25 0.19 0.36a30.36 30.36 0 0 0 2.34 3.65l0.23 0.31a22.66 22.66 0 0 0 3.71 3.84l0.26 0.21a15.73 15.73 0 0 0 1.82 1.23 11.72 11.72 0 0 0 2.34 0.98l0.26 0.08a7.34 7.34 0 0 0 3.61 0.19l0.23-0.05a6.18 6.18 0 0 0 2.18-1l0.19-0.15 0.2-0.16 0.22 0.39 0.2 0.38 0.21 0.39-0.2 0.17-0.18 0.14a6.52 6.52 0 0 1-2.38 1.13 2.1 2.1 0 0 1-0.24 0.06 7.94 7.94 0 0 1-3.87-0.23l-0.27-0.09a12.86 12.86 0 0 1-2.48-1.12 17.28 17.28 0 0 1-1.94-1.3l-0.27-0.22a24.14 24.14 0 0 1-4-4.09l-0.25-0.32a32.71 32.71 0 0 1-2.54-4c-0.07-0.12-0.13-0.25-0.2-0.38l-0.21-0.4z"/><path d="m125.53 317 0.2-0.14a6.41 6.41 0 0 1 2.54-1h0.25a8.44 8.44 0 0 1 4 0.49l0.27 0.1a12.67 12.67 0 0 1 1.94 0.93 16.86 16.86 0 0 1 2.47 1.74 2.6 2.6 0 0 1 0.28 0.23 25.62 25.62 0 0 1 3.87 4.23l0.24 0.34a35 35 0 0 1 2.38 3.87l0.18 0.34 0.2 0.4-0.21 0.15-0.2 0.14-0.22 0.15-0.2-0.41c-0.06-0.1-0.12-0.22-0.19-0.36a31.6 31.6 0 0 0-2.18-3.56l-0.23-0.31a23.76 23.76 0 0 0-3.62-4l-0.25-0.22a17 17 0 0 0-2.34-1.65 12.11 12.11 0 0 0-1.83-0.87l-0.25-0.1a8 8 0 0 0-3.71-0.43h-0.23a6.2 6.2 0 0 0-2.34 0.94l-0.19 0.14-0.21 0.15-0.21-0.39v-0.06l-0.17-0.33-0.2-0.4z"/><path d="m128.17 307a46.38 46.38 0 0 0 1.93 13.36c1.29 4.11 3 7 4.86 8s3.57 0.21 4.85-2.43 1.93-6.51 1.93-11.12a46 46 0 0 0-1.93-13.36c-1.28-4.11-3-7-4.85-8s-3.57-0.21-4.86 2.42-1.93 6.48-1.93 11.13zm2.55 13a44 44 0 0 1-1.82-12.66c0-4.38 0.65-8.14 1.82-10.56s2.65-3.18 4.24-2.26 3.09 3.46 4.24 7.16a44 44 0 0 1 1.8 12.7c0 4.38-0.64 8.13-1.81 10.56s-2.65 3.18-4.24 2.26-3.09-3.46-4.23-7.2z"/><path d="m122.29 303 25.34 14.63a1.12 1.12 0 0 1 0.43 0.87c0 0.31-0.19 0.5-0.43 0.37l-25.34-14.64a1.11 1.11 0 0 1-0.44-0.86c0-0.37 0.2-0.53 0.44-0.37z"/><path d="m134.5 327.54v-33.79c0-0.32 0.23-0.45 0.47-0.31a1.13 1.13 0 0 1 0.46 0.84v33.8c0 0.31-0.23 0.44-0.46 0.31a1.11 1.11 0 0 1-0.47-0.85z"/></g><path d="m71.42 359.54a0.73 0.73 0 0 1 0.44-0.62l17.82-10.28a2.33 2.33 0 0 1 2.12 0l54.37 31.44a0.73 0.73 0 0 1 0.44 0.61v1.87a0.73 0.73 0 0 1-0.44 0.62l-17.81 10.28a2.33 2.33 0 0 1-2.12 0l-54.38-31.39a0.73 0.73 0 0 1-0.44-0.61c-0.01-0.23 0-1.7 0-1.92z" fill="#8697c4"/><path d="m71.42 359.54a0.73 0.73 0 0 1 0.44-0.62l17.82-10.28a2.33 2.33 0 0 1 2.12 0l54.37 31.44a0.73 0.73 0 0 1 0.44 0.61v1.87a0.73 0.73 0 0 1-0.44 0.62l-17.81 10.28a2.33 2.33 0 0 1-2.12 0l-54.38-31.39a0.73 0.73 0 0 1-0.44-0.61c-0.01-0.23 0-1.7 0-1.92z" opacity=".5"/><path d="m128.36 391.55 17.81-10.24a0.65 0.65 0 0 0 0-1.23l-54.37-31.44a2.33 2.33 0 0 0-2.12 0l-17.82 10.28a0.65 0.65 0 0 0 0 1.23l54.38 31.39a2.36 2.36 0 0 0 2.12 0.01z" fill="#8697c4"/><path d="m128.36 391.55 17.81-10.24a0.65 0.65 0 0 0 0-1.23l-54.37-31.44a2.33 2.33 0 0 0-2.12 0l-17.82 10.28a0.65 0.65 0 0 0 0 1.23l54.38 31.39a2.36 2.36 0 0 0 2.12 0.01z" opacity=".3"/><path d="m127.37 391.8v1.91a2.18 2.18 0 0 0 1-0.25l17.8-10.28a0.73 0.73 0 0 0 0.44-0.61v-1.88a0.76 0.76 0 0 1-0.44 0.62l-17.8 10.24a2.18 2.18 0 0 1-1 0.25z" fill="#8697c4"/><path d="m127.37 391.8v1.91a2.18 2.18 0 0 0 1-0.25l17.8-10.28a0.73 0.73 0 0 0 0.44-0.61v-1.88a0.76 0.76 0 0 1-0.44 0.62l-17.8 10.24a2.18 2.18 0 0 1-1 0.25z" opacity=".7"/><g fill="#37474f"><path d="m123.41 372.76-2 1.17s-0.06 0.06-0.06 0.07l1.81 1.09 2.13-1.27z"/><path d="m125.85 374.17-2 1.18a0.07 0.07 0 0 0 0 0.07l1.79 1 2.13-1.26z"/><path d="m119.29 370.38-2 1.18s-0.05 0-0.05 0.07l3 1.75 2.13-1.26z"/><path d="m116.85 369-2 1.18a0.08 0.08 0 0 0 0 0.07l1.8 1.08 2.05-1.33z"/><path d="m84.89 362.53 1.8 1.08 2.13-1.26-1.82-1.07-2 1.18a0.09 0.09 0 0 0-0.11 0.07z"/><path d="m114.41 367.56-2 1.17s-0.06 0.06-0.06 0.08l1.81 1.08 2.13-1.26z"/><path d="m122.49 375.42-1.84-1.07-2 1.18v0.07l1.81 1.08z"/><path d="m105.9 371.48 1.81 1.08 2.12-1.26-1.83-1.07-2 1.18s-0.1 0.04-0.1 0.07z"/><path d="m121 377 1.8 1.08 2.13-1.26-1.85-1.07-2 1.18a0.08 0.08 0 0 0-0.08 0.07z"/><path d="m103.46 370.07 1.8 1.08 2.13-1.26-1.85-1.07-2 1.17s-0.08 0.06-0.08 0.08z"/><path d="m101 368.66 1.8 1.08 2.13-1.26-1.85-1.07-2 1.18a0.08 0.08 0 0 0-0.08 0.07z"/><path d="m110.79 374.3 3.86 2.27 4.89-2.86-2.11-1.21-2.58 1.5a0.34 0.34 0 0 1-0.18 0 0.29 0.29 0 0 1-0.17 0l-1.63-0.94-2 1.17s-0.08 0.05-0.08 0.07z"/><path d="m109.52 364.74-2 1.18v0.07l1.8 1.08 2.13-1.26z"/><path d="m108.35 372.89 1.8 1.08 2.13-1.26-1.85-1.07-2 1.17c-0.08 0.03-0.08 0.06-0.08 0.08z"/><path d="m86 356.82 1.8 1.08 2.2-1.26-1.85-1.07-2 1.17a0.09 0.09 0 0 0-0.15 0.08z"/><path d="m90 353.46-2 1.18a0.08 0.08 0 0 0 0 0.07l1.79 1 2.13-1.26z"/><path d="m83.92 358.78v0.05l1.79 1 2.13-1.27-1.84-1.02-2 1.18a0.08 0.08 0 0 0-0.08 0.06z"/><path d="m80 359.71 1.81 1.08 2.12-1.26-1.85-1.07-2 1.17a0.11 0.11 0 0 0-0.08 0.08z"/><path d="m92.42 354.87-2 1.18v0.07l1.81 1.08 2.12-1.26z"/><path d="m82.44 361.12 1.81 1.08 2.12-1.26-1.84-1.07-2 1.18a0.1 0.1 0 0 0-0.09 0.07z"/><path d="m99.75 359.1-2 1.18v0.07l1.8 1.08 2.13-1.26z"/><path d="m102.2 360.51-2 1.17a0.1 0.1 0 0 0 0 0.08l1.8 1.08 2.13-1.26z"/><path d="m104.64 361.92-2 1.17s-0.06 0.06-0.06 0.08l1.81 1.08 2.12-1.26z"/><path d="m97.31 357.69-2 1.17a0.08 0.08 0 0 0 0 0.08l1.69 1.06 2.13-1.26z"/><path d="m107.08 363.33-2 1.18a0.09 0.09 0 0 0 0 0.07l1.8 1.08 2.13-1.26z"/><path d="m94.87 356.28-2 1.18v0.07l1.81 1.08 2.12-1.26z"/><path d="m112 366.15-2 1.18a0.1 0.1 0 0 0 0 0.07l1.81 1.08 2.12-1.26z"/><path d="m112.55 369.68-2 1.17a0.09 0.09 0 0 0-0.06 0.07v0.08l1.8 1 2.12-1.26z"/><path d="m131.25 377.29-2 1.17c-0.05 0-0.05 0.06-0.05 0.07l1.8 1.08 2.13-1.26z"/><path d="m133.69 378.7-2 1.17a0.1 0.1 0 0 0 0 0.07l1.8 1.08 2.13-1.26z"/><path d="m110.1 368.27-2 1.17a0.11 0.11 0 0 0 0 0.07l1.81 1.08 2.12-1.26z"/><path d="m136.14 380.11-2 1.17c-0.05 0-0.06 0.06-0.06 0.07l1.81 1.08 2.12-1.26z"/><path d="m112.91 372.33v0.05l1.79 1 2.13-1.26-1.83-1.03-2 1.17s-0.09 0.06-0.09 0.07z"/><path d="m128.49 378.88-2 1.17c-0.06 0-0.06 0.06-0.06 0.08l1.8 1.08 2.13-1.26z"/><path d="m133.38 381.7-2 1.17s-0.06 0.06-0.06 0.08l1.78 1.05 2.12-1.26z"/><path d="m128.85 381.54 1.8 1.08 2.13-1.26-1.85-1.07-2 1.18s-0.08 0.04-0.08 0.07z"/><path d="m131 385.88a0.13 0.13 0 0 0 0 0.07v0.05l1.8 1 4.89-2.85-1.85-1.07z"/><path d="m107.66 366.86-2 1.17a0.09 0.09 0 0 0 0 0.07l1.79 1 2.13-1.26z"/><path d="m126.09 383.13 1.79 1 2.12-1.13-1.85-1.07-2 1.18a0.08 0.08 0 0 0-0.06 0.02z"/><path d="m128.53 384.54 1.81 1.08 2.12-1.26-1.85-1.07-2 1.17c-0.07 0.03-0.08 0.06-0.08 0.08z"/><path d="m95.45 359.8-2 1.17s-0.06 0.06-0.06 0.08l1.81 1.08 2.13-1.26z"/><path d="m90.56 357-2 1.17c-0.05 0-0.06 0.06-0.06 0.08l1.79 1 2.13-1.26z"/><path d="m88.8 361.61 1.81 1.08 2.12-1.26-1.84-1.07-2 1.18a0.08 0.08 0 0 0-0.09 0.07z"/><path d="m86.36 360.19 1.81 1.09 2.12-1.28-1.84-1-2 1.18a0.07 0.07 0 0 0-0.09 0.01z"/><path d="m91.25 363 1.79 1 2.13-1.26-1.85-1.07-2 1.17z"/><path d="m105.22 365.44-2 1.18v0.07 0.05l1.8 1 2.13-1.26z"/><path d="m96.13 365.84 1.81 1.08 2.12-1.26-1.84-1.07-2 1.17s-0.09 0.06-0.09 0.08z"/><path d="m93.69 364.43 1.8 1.08 2.13-1.26-1.85-1.07-2 1.18s-0.08 0.04-0.08 0.07z"/><path d="m100.33 362.62-2 1.18s-0.06 0.05-0.06 0.07l1.81 1.08 2.12-1.26z"/><path d="m93 358.39-2 1.17s-0.06 0.06-0.06 0.08l1.81 1.08 2.12-1.26z"/><path d="m102.78 364-2 1.18a0.09 0.09 0 0 0-0.06 0.07l1.81 1.08 2.12-1.26z"/><path d="m97.89 361.21-2 1.17a0.1 0.1 0 0 0 0 0.08l1.79 1 2.13-1.26z"/><path d="m98.57 367.25 1.81 1.08 2.13-1.26-1.85-1.07-2 1.17a0.1 0.1 0 0 0-0.09 0.08z"/><path d="m128.29 375.58-2 1.18s-0.05 0-0.05 0.07l1.8 1.08 2.13-1.26z"/><path d="m89.39 353.12-1.85-1.07-2 1.18a0.08 0.08 0 0 0 0 0.07l1.8 1z"/><path d="m87.53 355.23-2.75-1.59-2 1.18v0.07l2.7 1.56z"/><path d="m93.12 351.4-2.23-1.29-2 1.18a0.07 0.07 0 0 0 0 0.07l2.19 1.3z"/><path d="m81.49 358.12-2.23-1.29-2 1.17s-0.06 0.06-0.06 0.08l2.19 1.3z"/><path d="m85.41 357.19-3.41-1.95-2 1.17a0.1 0.1 0 0 0 0 0.07l3.34 1.93z"/><path d="m92.7 353.61 1.8 1.08 2.13-1.26-1.85-1.07-2 1.17a0.08 0.08 0 0 0-0.08 0.08z"/><path d="m76.49 358.43-2 1.17s-0.06 0-0.06 0.07l2.71 1.6 2.1-1.27z"/><path d="m95.14 355 1.8 1.08 2.13-1.26-1.85-1.07-2 1.18a0.1 0.1 0 0 0-0.08 0.07z"/><path d="m106 361.27v0.05l1.8 1 2.12-1.26-1.86-1.06-2 1.17a0.1 0.1 0 0 0-0.06 0.1z"/><path d="m108.42 362.68 1.8 1.08 2.13-1.26-1.85-1.06-2 1.17s-0.08 0.06-0.08 0.07z"/><path d="m103.53 359.86v0.05l1.8 1 2.12-1.26-1.85-1.06-2 1.17a0.09 0.09 0 0 0-0.07 0.1z"/><path d="m100 357.84 1.8 1 2.13-1.26-1.85-1.07-2 1.18a0.085 0.085 0 0 0-0.08 0.15z"/><path d="m97.58 356.43 1.81 1.08 2.12-1.26-1.84-1.07-2 1.18s-0.09 0.04-0.09 0.07z"/><path d="m125.09 386.48-2 1.18a0.09 0.09 0 0 0 0 0.07l1.79 1 2.13-1.26z"/><path d="m112.37 379.13-2 1.17s-0.06 0.06-0.06 0.08l1.8 1.08 2.13-1.26z"/><path d="m120.21 383.66-2 1.17a0.11 0.11 0 0 0-0.06 0.08l4.24 2.45 2.13-1.26z"/><path d="m114.81 380.54-2 1.17s-0.06 0.06-0.06 0.08l1.81 1.08 2.12-1.26z"/><path d="m117.25 382-2 1.17c-0.06 0-0.06 0.06-0.06 0.08l1.8 1.08 2.11-1.33z"/><path d="m110.86 364.09v0.05l1.79 1 2.13-1.26-1.85-1.06-2 1.17a0.09 0.09 0 0 0-0.07 0.1z"/><path d="m132.14 387.37-1.84-1.07-4.81 2.77a0.13 0.13 0 0 0 0 0.07l1.8 1z"/><path d="m82.67 362-2 1.17s-0.06 0.06-0.06 0.07l2.19 1.31 2.13-1.26z"/><path d="m85.49 363.62-2 1.17s-0.06 0.06-0.06 0.08l13.88 8 2.13-1.27z"/><path d="m87.33 363.94 1.8 1.08 2.13-1.26-1.85-1.07-2 1.18a0.1 0.1 0 0 0-0.08 0.07z"/><path d="m79.84 360.36-2 1.17s-0.06 0.05-0.06 0.07l2.19 1.3 2.13-1.26z"/><path d="m100 372-2 1.17a0.1 0.1 0 0 0 0 0.08l2.18 1.26 2.13-1.26z"/><path d="m105.68 375.27-2 1.18a0.08 0.08 0 0 0 0 0.07l2.19 1.26 2.12-1.26z"/><path d="m102.85 373.64-2 1.18a0.08 0.08 0 0 0 0 0.07l2.19 1.3 2.12-1.26z"/><path d="m108.51 376.91-2 1.17s-0.06 0.06-0.06 0.07v0.05l2.7 1.55 2.13-1.26z"/><path d="m123.45 378.42 1.79 1 2.13-1.26-1.85-1.07-2 1.18s-0.07 0.12-0.07 0.15z"/><path d="m115.48 380.2 1.8 1 2.13-1.26-1.84-0.94-2 1.17a0.1 0.1 0 0 0-0.09 0.03z"/><path d="m106.87 375.22 5 2.94 2.13-1.26-5-2.9-2 1.18a0.068007 0.068007 0 0 0-0.13 0.04z"/><path d="m120.88 383.31v0.05l1.8 1 2.13-1.27-1.81-1.02-2 1.18a0.07 0.07 0 0 0-0.12 0.06z"/><path d="m123.33 384.72 1.79 1 2.13-1.27-1.85-1.06-2 1.17s-0.07 0.15-0.07 0.16z"/><path d="m104.43 373.81 1.8 1.08 2.13-1.26-1.85-1.06-2 1.17a0.1 0.1 0 0 0-0.08 0.07z"/><path d="m123.65 381.72 1.8 1 2.12-1.26-1.84-1.07-2 1.17c-0.08 0.11-0.08 0.14-0.08 0.16z"/><path d="m92.21 366.76 1.79 1.08 2.12-1.26-1.84-1.06-2 1.17a0.1 0.1 0 0 0-0.07 0.07z"/><path d="m102 372.4 1.81 1.08 2.13-1.26-1.85-1.06-2 1.18s-0.09 0.03-0.09 0.06z"/><path d="m89.77 365.35 1.8 1 2.12-1.26-1.84-1.06-2 1.17a0.1 0.1 0 0 0-0.08 0.15z"/><path d="m94.66 368.17 1.8 1.08 2.13-1.25-1.85-1.06-2 1.18a0.07 0.07 0 0 0-0.08 0.05z"/><path d="m97.1 369.58v0.05l1.8 1 2.1-1.23-1.85-1.06-2 1.17a0.09 0.09 0 0 0-0.05 0.07z"/><path d="m99.54 371 1.8 1 2.12-1.26-1.84-1.06-2 1.17a0.1 0.1 0 0 0-0.08 0.15z"/><path d="m116.81 367.53 1.8 1.08 2.13-1.26-1.85-1.07-2 1.17a0.08 0.08 0 0 0-0.08 0.08z"/><path d="m125.77 386.14 1.79 1 2.14-1.14-1.85-1.07-2 1.18s-0.08 0-0.08 0.03z"/><path d="m121.69 370.35 1.81 1.08 2.12-1.26-1.84-1.07-2 1.17s-0.09 0.06-0.09 0.08z"/><path d="m127.12 373.48 1.8 1.08 2.13-1.26-1.85-1.07-2 1.18a0.08 0.08 0 0 0-0.08 0.07z"/><path d="m124.68 372.07 1.8 1.08 2.13-1.26-1.85-1.07-2 1.18a0.07 0.07 0 0 0-0.08 0.07z"/><path d="m114.36 366.12 1.81 1.08 2.13-1.26-1.85-1.07-2 1.17s-0.09 0.06-0.09 0.08z"/><path d="m119.25 368.94 1.79 1 2.13-1.26-1.85-1.07-2 1.17s-0.07 0.14-0.07 0.16z"/><path d="m129.56 374.89 1.81 1.08 2.12-1.26-1.85-1.07-2 1.18c-0.07 0.02-0.08 0.05-0.08 0.07z"/><path d="m140.55 380.42 1.81 1.08 1.11-0.69-1.85-1.06-1 0.6s-0.07 0.04-0.07 0.07z"/><path d="m136.49 382.76 1.81 1.08 2.13-1.26-1.85-1.06-2 1.17c-0.08 0.03-0.09 0.06-0.09 0.07z"/><path d="m133.23 376.19 1.79 1 1.11-0.69-1.85-1.06-1 0.59a0.083815 0.083815 0 0 0-0.05 0.16z"/><path d="m135.67 377.6 1.79 1 1.11-0.69-1.84-1.06-1 0.6a0.1 0.1 0 0 0-0.06 0.15z"/><path d="m138.11 379 1.81 1.08 1.11-0.69-1.85-1.06-1 0.6z"/></g><path d="m440.21 381.86a4.77 4.77 0 0 0 0.13 2.17 4.86 4.86 0 0 0 1.75 2.11 8.62 8.62 0 0 1 1.46 1.77 7.5 7.5 0 0 0 1.52 1.9 3.06 3.06 0 0 0 2.46 0.18c0.64-0.27 0.86-0.52 0.82-1.55s-3.16-1.38-3.16-1.38z" fill="#37474f"/><path d="m448 385.37c0.26 0.1 0.33 0.61 0.37 1.62 0 0.76 0.35 1.88-0.7 2.36a2.57 2.57 0 0 1-2.78-0.59 34 34 0 0 0-2.22-2.78c-0.88-1-1.81-1.27-2.2-3.18-0.25-1.22-0.05-1.72 0.77-2.07 1.13-0.49 2.91 1.09 3.79 1.34s2.65 3.2 2.97 3.3z" fill="#455a64"/><g fill="#fafafa"><path d="m445 382.07-0.15-0.06a3 3 0 0 0-2.45 1.61c-0.15 0.33 0.32 0.59 0.59 0.33a3.12 3.12 0 0 1 2.45-1.59 1.26 1.26 0 0 0-0.44-0.29z"/><path d="m445.71 382.64a2.91 2.91 0 0 0-2.27 1.59c-0.15 0.34 0.31 0.6 0.59 0.34a3 3 0 0 1 2-1.53c-0.03-0.14-0.2-0.28-0.32-0.4z"/><path d="m440.94 384.21s0.09-2.26 3.15-2.58l0.17 0.1a2.68 2.68 0 0 0-1.5-1.16 2.1 2.1 0 0 0-2.36 0.68c-0.53 0.69 0.01 2.52 0.54 2.96z"/></g><path d="m448 383.74v1.94a3 3 0 0 1-3.13 0.08c-0.06-0.12-0.22-2-0.22-2z" fill="#ffa8a7"/><path d="m424.2 396.36c-0.18 0.86 0.13 1.31 1.24 1.94a6.14 6.14 0 0 0 4.66 0.33c1.82-0.53 2.69-1.33 3.45-1.52s2.63-0.2 3.38-0.42 0.73-0.6 0.73-1.5z" fill="#37474f"/><path d="m436.93 390.85s0.35 1.08 0.54 2a5.51 5.51 0 0 1 0.11 2.56c-0.26 0.57-1.29 0.93-2.87 0.92a9.33 9.33 0 0 0-3.73 1.3 5.7 5.7 0 0 1-3.55 0.49c-1.42-0.16-2.88-1-3.11-1.57s-0.28-1 3-2.44c0 0 3.86-1.42 5.47-3.2z" fill="#455a64"/><g fill="#fafafa"><path d="m430.53 397.87s-0.29-2.86-2.61-3.67c-2.1-0.74-3.93 0.81-3.72 2.16 0.13 0.91 2.69 2.98 6.33 1.51z"/><path d="m428.51 393.66a2.73 2.73 0 0 1 1.59 0.7c0.66 0.57 0.68 0.94 0.68 0.94a0.35 0.35 0 0 0 0.61-0.29 2.18 2.18 0 0 0-2.05-1.73 0.78 0.78 0 0 0-0.83 0.38z"/><path d="m429.84 393a2.42 2.42 0 0 1 1.6 0.64c0.67 0.56 0.67 1 0.67 1a0.36 0.36 0 0 0 0.61-0.29 2.19 2.19 0 0 0-2.05-1.74 0.77 0.77 0 0 0-0.83 0.39z"/><path d="m431.16 392.27a2.37 2.37 0 0 1 1.64 0.53c0.7 0.51 0.74 1 0.74 1 0.16 0.22 0.65 0.06 0.58-0.34a2.18 2.18 0 0 0-2.17-1.59 0.77 0.77 0 0 0-0.79 0.4z"/></g><path d="m436.93 389.51v1.44c0 0.52-0.62 1.31-2.23 1.26-1.13 0-1.91-0.35-1.87-1.28v-1.34z" fill="#ffa8a7"/><path d="m451.66 333.47c0.34-12.67-0.67-15.71-4.05-18l-1.3 7.34s1.53 8.65 1.37 11.54a40 40 0 0 1-1 7.74 1.57 1.57 0 0 1-0.67 0.87 9.2 9.2 0 0 0-1.86 1.76c-0.5 0.53-0.93 0.67-0.87 0.83a0.84 0.84 0 0 0 1.07 0.38 5.63 5.63 0 0 0 1.22-0.66 7.73 7.73 0 0 1-1.25 2.15c-1.2 1.47-1.26 2.38 1.18 2.4 1.52 0 2.74-0.92 3.88-4.28a27.24 27.24 0 0 0 1.07-3.77 67.67 67.67 0 0 0 1.21-8.3z" fill="#ffa8a7"/><path d="m451.12 338a26.24 26.24 0 0 1-0.66 3.74 5.77 5.77 0 0 1-3.52-0.7l0.45-3.49z" fill="#263238"/><path d="m446.43 314.76c1.82-0.19 4 2.4 4.82 5.43s1 13.49-0.13 17.81a5.3 5.3 0 0 1-3.73-0.45 46.47 46.47 0 0 0-0.31-7.38c-0.47-2.41-1.6-8.13-1.35-9s0.7-6.41 0.7-6.41z" fill="#37474f"/><path d="m450 368.11c-0.15-3.76-0.55-3.84-1.16-6.79 0.31-3.58 0.6-6.6 0.72-10.49 0.14-4.19 0-9.24 0-13.7-4.59-0.31-16.08-4.11-17.52 3.11-0.42 5.83 0.16 17.37 0.23 25.32s0 15.77 0.49 24.3a5.17 5.17 0 0 0 4.45-0.33 146.14 146.14 0 0 0 2.52-15.15c0.45-4-0.2-4.33 0-7.5s0.5-6.63 0.75-9.74 0.56-5.7 0.7-8.72a2.16 2.16 0 0 0 0.37-0.19c0.24 3.69 0.33 6.87 0.58 10.65s0.56 6.62 1 10.94c0.37 4 0.53 9.27 1.28 14.09 1.09 0.52 2.69 1 3.73 0.12 0.91-4.36 2.02-12.16 1.86-15.92z" fill="#8697c4"/><g opacity=".3"><path d="m450 368.11c-0.15-3.76-0.55-3.84-1.16-6.79 0.31-3.58 0.6-6.6 0.72-10.49 0.14-4.19 0-9.24 0-13.7-4.59-0.31-16.08-4.11-17.52 3.11-0.42 5.83 0.16 17.37 0.23 25.32s0 15.77 0.49 24.3a5.17 5.17 0 0 0 4.45-0.33 146.14 146.14 0 0 0 2.52-15.15c0.45-4-0.2-4.33 0-7.5s0.5-6.63 0.75-9.74 0.56-5.7 0.7-8.72a2.16 2.16 0 0 0 0.37-0.19c0.24 3.69 0.33 6.87 0.58 10.65s0.56 6.62 1 10.94c0.37 4 0.53 9.27 1.28 14.09 1.09 0.52 2.69 1 3.73 0.12 0.91-4.36 2.02-12.16 1.86-15.92z"/></g><g opacity=".2"><path d="m441.16 348.43a34.46 34.46 0 0 0 6.39-4 18.13 18.13 0 0 1-4.58 4.2c0 1-0.86 8.95-0.87 8.8-0.23-1.78-0.29-6.3-0.58-9-0.12-0.05-0.24 0.01-0.36 0z"/></g><path d="m449 317.43c-0.52-1.57-2.5-3.27-4.48-2.9a58.56 58.56 0 0 0-8.69 2.17c-1.82 0.65-3.48 2.22-3.63 8.2 0 0-0.61 13.93-0.62 16.62a22 22 0 0 0 11.93 1.18c5.46-1.19 6.12-3.46 6.12-3.46s0.07-10-0.09-14.34c-0.14-3.68-0.19-6.4-0.54-7.47z" fill="#455a64"/><polygon points="443.13 318.07 442.55 311.75 437.54 312.48 438.13 318.06" fill="#ffa8a7"/><path d="m436.36 316.52c0.36-0.76 0.64-1.77 1.34-1.9a9.39 9.39 0 0 0 3.67-0.14 3.15 3.15 0 0 0 1.54-1.08 1.69 1.69 0 0 1 1.8 0.33c0.73 0.77 2.91 2.06 3.48 4.34s1 6.49-1.59 7.3c-3.86 1.19-6.6-0.62-7.52-3.81-1.01-3.5-0.73-4.41-2.72-5.04z" fill="#37474f"/><path d="m439.37 316.81c0.63 0.86 1.3 4.62 2.8 6.09s4.74 1.11 5.33-0.38a2.41 2.41 0 0 1-2.4 2.13 4.68 4.68 0 0 1-4.88-3.63c-0.57-2.23-0.49-3.2-0.85-4.21z" fill="#263238"/><path d="m433.52 306s-1.27 2-1.11 2.21 1.12 0.35 1.12 0.35z" fill="#f28f8f"/><path d="m437 300.4c-2.64 0.62-3.38 1.8-3.53 6-0.16 4.4 0.32 5.78 0.91 6.36 0.4 0.39 2.57 0.41 3.65 0.08 1.36-0.4 4.43-1.57 5.83-3.82 1.65-2.64 2-6.17 0.16-7.58-2.58-1.96-5.92-1.29-7.02-1.04z" fill="#ffa8a7"/><path d="m433.16 302.36a3.26 3.26 0 0 0 1.76 0.34c-0.12 0-0.08 0.5-0.06 0.56a0.92 0.92 0 0 0 0.32 0.52 1 1 0 0 0 1.19 0.21c-0.36 0.29-0.09 1.19 0 1.55s0.21 0.9 0.7 1.1c0 0 0.38-1.64 1.76-1.46s1.61 1.93 0.76 3-1.66 0.7-1.66 0.7a7.2 7.2 0 0 0 1.15 3.62 6.23 6.23 0 0 0 7.23-3.94c1.58-3.75 1.62-7.09-0.77-8a3.22 3.22 0 0 0-1.6-3.42 3.14 3.14 0 0 0-3.25 0c-0.07 0-0.41-0.63-0.44-0.68a2.29 2.29 0 0 0-0.89-0.71 3.51 3.51 0 0 0-3.26 0.35 2.26 2.26 0 0 0-0.93 1.52 4.32 4.32 0 0 0-2.68 0.63 2.45 2.45 0 0 0-0.49 3.06 2.85 2.85 0 0 0 1.16 1.05z" fill="#263238"/><path d="m445.63 301.11 1.56-1a0.9265 0.9265 0 1 0-1.56 1z" fill="#263238"/><path d="m413.87 327.05c0.85 0.38 10.91 7.82 12.48 6.95s9.65-10.27 9.65-10.27a6.51 6.51 0 0 0 0-7.05 5.46 5.46 0 0 0-4.59 2.4c-1.44 2-6.6 8.74-6.6 8.74-1.44-0.72-6.59-2.68-7.75-3.34a3.78 3.78 0 0 1-0.9-0.56c-0.57-0.56-0.48-1.92-0.47-2.66v-1c0-0.31 0.13-1.46-0.63-1.13a1.06 1.06 0 0 0-0.36 0.31 1.61 1.61 0 0 0-0.27 0.52c-0.15 0.44-0.1 0.93-0.23 1.39a0.46 0.46 0 0 1-0.1 0.18 0.38 0.38 0 0 1-0.24 0.07c-1.1 0-2.15-1.59-2.66-2.41a2.25 2.25 0 0 0-0.84-1 1.5 1.5 0 0 0-1.73 0.66 3.52 3.52 0 0 0-0.55 2.45 4.88 4.88 0 0 0 1.45 3.06 14.78 14.78 0 0 0 4.34 2.69z" fill="#ffa8a7"/><path d="m421.18 326.29-2.52-1.05a4.18 4.18 0 0 0-2 3.66l2.44 1.62z" fill="#263238"/><path d="m436.36 316.52a6 6 0 0 0-3.89 1.05c-1.44 1.26-7.77 9.91-7.77 9.91l-3.52-1.19a4.92 4.92 0 0 0-2.07 4.23s2.48 1.84 3.83 2.63a8 8 0 0 0 3.29 1.26c0.59 0 9.49-9.74 9.49-9.74a7.78 7.78 0 0 0 1.61-4.54 8.8 8.8 0 0 0-0.97-3.61z" fill="#37474f"/><path d="m62.45 318c-2.21 0.43-3.22 1.19-4.48 4.26s-4 10.48-4 12.59c0 1.62 5.58 9.14 5.33 9-0.08 0 3.17-3.8 3.17-3.8l-3.37-5.33 2.67-5.2z" fill="#ffa8a7"/><path d="m67.37 383.8a4.72 4.72 0 0 1-0.13 2.16 4.83 4.83 0 0 1-1.75 2.1 8.48 8.48 0 0 0-1.44 1.76 7.65 7.65 0 0 1-1.52 1.89 3 3 0 0 1-2.44 0.17c-0.64-0.26-0.86-0.51-0.82-1.53s3.15-1.35 3.15-1.35z" fill="#455a64"/><path d="m59.68 387.3c-0.27 0.1-0.34 0.6-0.38 1.6 0 0.76-0.35 1.87 0.7 2.35a2.55 2.55 0 0 0 2.76-0.58 33.65 33.65 0 0 1 2.24-2.77c0.88-0.95 1.79-1.27 2.18-3.15 0.26-1.22 0.06-1.72-0.76-2.07-1.12-0.48-2.89 1.09-3.77 1.33s-2.71 3.19-2.97 3.29z" fill="#8697c4"/><path d="m59.68 387.3c-0.27 0.1-0.34 0.6-0.38 1.6 0 0.76-0.35 1.87 0.7 2.35a2.55 2.55 0 0 0 2.76-0.58 33.65 33.65 0 0 1 2.24-2.77c0.88-0.95 1.79-1.27 2.18-3.15 0.26-1.22 0.06-1.72-0.76-2.07-1.12-0.48-2.89 1.09-3.77 1.33s-2.71 3.19-2.97 3.29z" opacity=".2"/><g fill="#fafafa"><path d="m62.62 384 0.15-0.05a2.88 2.88 0 0 1 2.43 1.6c0.15 0.33-0.31 0.58-0.58 0.33a3.1 3.1 0 0 0-2.43-1.59 1.29 1.29 0 0 1 0.43-0.29z"/><path d="m61.9 384.58a2.89 2.89 0 0 1 2.26 1.59c0.15 0.33-0.32 0.58-0.59 0.33a3 3 0 0 0-2-1.52c0.09-0.14 0.21-0.28 0.33-0.4z"/><path d="m66.64 386.14s-0.09-2.24-3.13-2.56l-0.17 0.1a2.6 2.6 0 0 1 1.49-1.15 2.06 2.06 0 0 1 2.34 0.67c0.53 0.68-0.01 2.51-0.53 2.94z"/></g><path d="m81.49 399.32c0.17 0.85-0.14 1.29-1.23 1.93a6.12 6.12 0 0 1-4.63 0.32c-1.81-0.52-2.68-1.32-3.43-1.5s-2.62-0.21-3.36-0.43-0.73-0.59-0.73-1.49z" fill="#455a64"/><path d="m68.84 393.84s-0.35 1.07-0.54 2a5.33 5.33 0 0 0-0.11 2.55c0.26 0.56 1.28 0.92 2.85 0.91a9.18 9.18 0 0 1 3.7 1.29 5.67 5.67 0 0 0 3.54 0.49c1.4-0.16 2.86-1 3.08-1.56s0.29-1-3-2.42c0 0-3.83-1.42-5.43-3.19z" fill="#8697c4"/><g opacity=".2"><path d="m68.84 393.84s-0.35 1.07-0.54 2a5.33 5.33 0 0 0-0.11 2.55c0.26 0.56 1.28 0.92 2.85 0.91a9.18 9.18 0 0 1 3.7 1.29 5.67 5.67 0 0 0 3.54 0.49c1.4-0.16 2.86-1 3.08-1.56s0.29-1-3-2.42c0 0-3.83-1.42-5.43-3.19z"/></g><g fill="#fafafa"><path d="m75.2 400.82s0.28-2.84 2.59-3.65c2.08-0.74 3.9 0.81 3.7 2.15-0.14 0.91-2.68 2.96-6.29 1.5z"/><path d="m77.2 396.63a2.68 2.68 0 0 0-1.57 0.7c-0.67 0.56-0.69 0.94-0.69 0.94a0.35 0.35 0 0 1-0.6-0.29 2.18 2.18 0 0 1 2-1.73 0.76 0.76 0 0 1 0.86 0.38z"/><path d="m75.88 396a2.35 2.35 0 0 0-1.59 0.63c-0.66 0.56-0.67 1-0.67 1a0.35 0.35 0 0 1-0.6-0.28 2.18 2.18 0 0 1 2-1.73 0.76 0.76 0 0 1 0.86 0.38z"/><path d="m74.57 395.26a2.36 2.36 0 0 0-1.63 0.52c-0.7 0.51-0.73 1-0.73 1a0.35 0.35 0 0 1-0.58-0.33 2.16 2.16 0 0 1 2.15-1.58 0.77 0.77 0 0 1 0.79 0.39z"/></g><path d="m59.68 385.67v1.93a3 3 0 0 0 3.11 0.08c0.05-0.12 0.21-2 0.21-2z" fill="#ffa8a7"/><path d="m68.84 392.51v1.43c0 0.53 0.61 1.31 2.21 1.25 1.12 0 1.9-0.34 1.86-1.27v-1.33z" fill="#ffa8a7"/><path d="m57.6 369.33a16 16 0 0 1 0.94-5.84s-0.6-5-1-11.16c-0.56-9 1.46-11.93 3.31-16.13 0 0 14.56-1 14.77 5.6 0.28 8.88 0.1 24.82-0.11 27.7s-0.22 0.22-0.92 6c-0.55 4.61-1.69 17-1.69 17a4.32 4.32 0 0 1-4.07-0.08s-1.28-15.13-1.14-18.42a37.2 37.2 0 0 1 0.39-5.09s-1.84-13.16-2.08-15.27c0 0-0.26 3.78-0.48 6.66s-0.19 5.2-0.8 11.15c-0.48 4.67-1.63 14.75-1.63 14.75a3.88 3.88 0 0 1-3.43-0.25s-2.15-13.33-2.06-16.62z" fill="#455a64"/><path d="m66 353.64-0.3-3.18a11.92 11.92 0 0 1-4.8-1.82 6.52 6.52 0 0 0 3.79 2.36l0.63 3.1 0.16 6.17z" fill="#37474f"/><polygon points="64.43 321.5 65.04 314.75 70.51 315.91 69.77 321.99" fill="#ffa8a7"/><path d="m59.21 321c0.59-1.6 1.94-3.28 4-2.9l1.51 0.28c0.05 1.4 2.69 2.13 5.32 1.28 0.79 0.22 1.52 0.46 2.17 0.69 1.89 0.67 3.53 4.26 3.57 9.49s-0.89 13.55-0.89 13.55-3.42 4.81-10.58 2.48c-5.22-1.7-6.1-3.17-6.1-3.17s1.82-4.34 3.09-7.91c-2.85-7.57-2.96-11.45-2.09-13.79z" fill="#ffa8a7"/><path d="m59.21 321c0.59-1.6 1.94-3.28 4-2.9l1.51 0.28c0.05 1.4 2.69 2.13 5.32 1.28 0.79 0.22 1.52 0.46 2.17 0.69 1.89 0.67 3.53 4.26 3.57 9.49s0.22 20.86 0.22 20.86-1.52-1.05-2.64-5.93a8.16 8.16 0 0 1-10.43 6.93c-5.22-1.69-5.4-3.95-5.73-6.45 0.26-2 2.11-6.67 4.13-10.49-2.88-7.54-2.99-11.42-2.12-13.76z" fill="#8697c4"/><path d="m74.49 308.18a4.68 4.68 0 0 0-0.41-4.52c-1.79-2.82-5.25-3.3-9.35-2.2a7.25 7.25 0 0 0-5.13 6.6c-0.2 3 8.19 5.23 8 7.29z" fill="#263238"/><path d="m74.67 309.32s1.14 1.83 1 2a2.76 2.76 0 0 1-0.92 0.37z" fill="#f28f8f"/><path d="m74.44 310.36a1.4 1.4 0 1 1 1.4-1.4 1.4 1.4 0 0 1-1.4 1.4zm0-2.6a1.21 1.21 0 1 0 1.21 1.2 1.2 1.2 0 0 0-1.21-1.2z" fill="#263238"/><path d="m71.2 303.54c1.13 0.63 3.1 1.78 3.49 6s-0.6 5.86-1.21 6.41c-0.41 0.38-2.48 0.46-3.56 0.1a11.28 11.28 0 0 1-5.54-4.27c-1.54-2.69-1.78-6.23 0.12-7.56a7 7 0 0 1 6.7-0.68z" fill="#ffa8a7"/><path d="m70.67 315.35-0.2 0.88a6.35 6.35 0 0 0 2.82-0.12 4.84 4.84 0 0 1-1-0.12 6.79 6.79 0 0 1-1.62-0.64z" fill="#f28f8f"/><path d="m71.14 308.69a4.33 4.33 0 0 0 2.78-3.49c0.42-2.78-3-4-3-4z" fill="#263238"/><path d="m71.53 303.73s0.9 4-0.37 6.49c0 0-0.67-1.57-2-1.16a1.81 1.81 0 0 0-0.39 3.15 1.36 1.36 0 0 0 1.75 0 9 9 0 0 1-2 3.2s-3.52 2.06-7-1.83c-3.13-3.54-2.23-9.84 2.25-11.16a8.28 8.28 0 0 1 7.76 1.31z" fill="#263238"/><g fill="#ffa8a7"><path d="m85.74 330c0.77-0.88 0.9-2.84 1.94-4.19s0.84-2.7 1.49-2.1 0.17 2.81 0.17 2.81a13.19 13.19 0 0 1 1.3 3.38c0.1 1.14-2.92 4-2.92 4z"/><path d="m89.17 326.32s1.23 1.71 6.75-0.52c1.52-0.62 0.49 2.66-1.38 4s-3.89 1.65-5.63 2.82c0-0.16 0.26-6.3 0.26-6.3z"/><path d="m71.74 320.16c2.38 0.43 3.58 0.68 4.9 3.8 1.56 3.7 4.82 10.62 4.82 10.62l4.28-4.58s0.62-0.87 1.78 1 0.64 2.44 0.64 2.44-5 6.66-5.88 7.5-2.41 0.19-3.39-1.14-6.21-9.72-6.21-9.72-3.17-6.57-0.94-9.92z"/></g><path d="m60 306c-1 2.43-1.83 12.69-0.08 16s6.71 5.51 9.9 4.36c2-0.7 4.6-2.36 3-4.75a8.23 8.23 0 0 0-1.53-1.61 3.94 3.94 0 0 1-1.09-1.59c-0.71-1.55 0.25-6.06 0.31-6.21s-0.52 1.93-4.15 0.89c-1.66-0.43-6.36-7.09-6.36-7.09z" fill="#263238"/></g></svg>
