<?xml version="1.0" encoding="UTF-8" standalone="no"?>
<svg
   viewBox="0 0 500 500"
   version="1.1"
   id="svg193"
   sodipodi:docname="11.svg"
   width="500"
   height="500"
   xml:space="preserve"
   inkscape:version="1.3 (1:1.3+202307231459+0e150ed6c4)"
   xmlns:inkscape="http://www.inkscape.org/namespaces/inkscape"
   xmlns:sodipodi="http://sodipodi.sourceforge.net/DTD/sodipodi-0.dtd"
   xmlns="http://www.w3.org/2000/svg"
   xmlns:svg="http://www.w3.org/2000/svg"><defs
     id="defs193"><linearGradient
       gradientUnits="userSpaceOnUse"
       id=":r8:paint0_linear_408_134"
       x1="109"
       x2="144.5"
       y1="116.5"
       y2="160.5"><stop
         stop-color="white"
         id="stop2" /><stop
         offset="1"
         stop-color="white"
         stop-opacity="0"
         id="stop3" /></linearGradient><linearGradient
       gradientUnits="userSpaceOnUse"
       id=":r8:paint1_linear_408_134"
       x1="121"
       x2="120.799"
       y1="54"
       y2="106.875"><stop
         stop-color="white"
         id="stop4" /><stop
         offset="1"
         stop-color="white"
         stop-opacity="0"
         id="stop5" /></linearGradient></defs><sodipodi:namedview
     id="namedview193"
     pagecolor="#ffffff"
     bordercolor="#000000"
     borderopacity="0.25"
     inkscape:showpageshadow="2"
     inkscape:pageopacity="0.0"
     inkscape:pagecheckerboard="0"
     inkscape:deskcolor="#d1d1d1"
     inkscape:zoom="0.62933333"
     inkscape:cx="212.92373"
     inkscape:cy="249.47034"
     inkscape:window-width="1280"
     inkscape:window-height="656"
     inkscape:window-x="0"
     inkscape:window-y="27"
     inkscape:window-maximized="1"
     inkscape:current-layer="g193" /><g
     id="g193"
     transform="matrix(0.65080272,0,0,0.65080272,9.6217447,112.08999)"><g
       id="freepik--Article--inject-6"
       style="display:inline"
       transform="matrix(1.3317147,0,0,1.3317147,-118.36496,-131.92163)"><path
         d="M 593.31,375 H 237.56 A 19.63,19.63 0 0 1 217.94,355.38 V 57.68 h 375.37 z"
         style="display:inline;fill:#e0e0e0;fill-opacity:1"
         id="path26" /><path
         d="m 593.31,375 c 0,-1.84 -0.09,-126.19 -0.22,-317.3 l 0.22,0.22 H 222.19 218 l 0.26,-0.26 c 0,94.6 0,184.67 0,266.55 v 30.32 a 20.81,20.81 0 0 0 1.11,7.24 19.43,19.43 0 0 0 16.19,12.84 c 2.37,0.2 4.81,0.09 7.21,0.12 h 49.15 l 101.19,0.05 200.28,0.17 -200.15,0.17 H 291.97 242.7 c -2.42,0 -4.81,0.08 -7.27,-0.12 a 19.84,19.84 0 0 1 -16.57,-13 21.15,21.15 0 0 1 -1.15,-7.4 v -30.37 c 0,-81.88 0,-172 0,-266.55 v -0.26 h 4.51 371.12 0.22 v 0.22 c -0.16,191.15 -0.25,315.5 -0.25,317.36 z"
         style="display:inline;fill:#263238;fill-opacity:1"
         id="path27" /><path
         d="m 593.31,86.39 c 0,0.14 -84,0.26 -187.67,0.26 -103.67,0 -187.7,-0.12 -187.7,-0.26 0,-0.14 84,-0.26 187.7,-0.26 103.7,0 187.67,0.11 187.67,0.26 z"
         style="fill:#263238"
         id="path28" /><path
         d="m 475,72.22 c 0,0.14 -29.81,0.26 -66.56,0.26 -36.75,0 -66.56,-0.12 -66.56,-0.26 0,-0.14 29.8,-0.26 66.56,-0.26 36.76,0 66.56,0.11 66.56,0.26 z"
         style="display:inline;fill:#6f7082"
         id="path29" /><circle
         cx="230.55"
         cy="71.809998"
         r="3.5799999"
         style="fill:#e0e0e0"
         id="circle29" /><circle
         cx="242.69"
         cy="71.809998"
         r="3.5799999"
         style="fill:#e0e0e0"
         id="circle30" /><circle
         cx="254.82001"
         cy="71.809998"
         r="3.5799999"
         style="fill:#e0e0e0"
         id="circle31" /><path
         d="m 365.85,127.92 h -7.42 l -1.43,3.42 h -3.79 l 7.12,-16 H 364 l 7.15,16 h -3.88 z m -1.16,-2.81 -2.54,-6.11 -2.53,6.12 z"
         style="fill:#bf4059;fill-opacity:1"
         id="path31" /><path
         d="m 383,131.34 -3.08,-4.45 h -3.4 v 4.45 h -3.7 v -16 h 6.92 c 4.26,0 6.94,2.22 6.94,5.8 a 5.2,5.2 0 0 1 -3.29,5 l 3.58,5.13 z m -3.47,-13 h -3 V 124 h 3 c 2.26,0 3.4,-1 3.4,-2.79 0,-1.79 -1.15,-2.83 -3.41,-2.83 z"
         style="fill:#bf4059;fill-opacity:1"
         id="path32"
         inkscape:label="path32" /><path
         d="m 392.67,118.38 h -5.12 v -3 h 13.93 v 3 h -5.12 v 13 h -3.69 z"
         style="fill:#bf4059;fill-opacity:1"
         id="path33" /><path
         d="m 403.46,115.36 h 3.7 v 16 h -3.7 z"
         style="fill:#bf4059;fill-opacity:1"
         id="path34" /><path
         d="m 409.94,123.35 c 0,-4.81 3.7,-8.26 8.68,-8.26 a 8.24,8.24 0 0 1 6.57,2.83 l -2.37,2.19 a 5.16,5.16 0 0 0 -4,-1.87 5.12,5.12 0 0 0 0,10.23 5.1,5.1 0 0 0 4,-1.9 l 2.37,2.19 a 8.22,8.22 0 0 1 -6.6,2.86 c -4.95,0 -8.65,-3.45 -8.65,-8.27 z"
         style="fill:#bf4059;fill-opacity:1"
         id="path35" /><path
         d="m 427.68,115.36 h 3.69 v 13 h 8 v 3 h -11.69 z"
         style="fill:#bf4059;fill-opacity:1"
         id="path36" /><path
         d="m 453.83,128.38 v 3 h -12.37 v -16 h 12.08 v 3 h -8.4 v 3.47 h 7.42 v 2.88 h -7.42 v 3.7 z"
         style="fill:#bf4059;fill-opacity:1"
         id="path37" /><path
         d="m 396.29,166.59 c 0,0.15 -7.44,0.26 -16.62,0.26 -9.18,0 -16.62,-0.11 -16.62,-0.26 0,-0.15 7.44,-0.26 16.62,-0.26 9.18,0 16.62,0.12 16.62,0.26 z"
         style="fill:#263238"
         id="path38" /><path
         d="m 442.18,166.59 c 0,0.15 -8.15,0.26 -18.2,0.26 -10.05,0 -18.2,-0.11 -18.2,-0.26 0,-0.15 8.15,-0.26 18.2,-0.26 10.05,0 18.2,0.12 18.2,0.26 z"
         style="fill:#263238"
         id="path39" /><path
         d="m 440.6,183.37 c 0,0.14 -17.29,0.26 -38.61,0.26 -21.32,0 -38.62,-0.12 -38.62,-0.26 0,-0.14 17.29,-0.26 38.62,-0.26 21.33,0 38.61,0.11 38.61,0.26 z"
         style="fill:#263238"
         id="path40" /><path
         d="m 442.18,198.24 c 0,0.15 -17.5,0.26 -39.09,0.26 -21.59,0 -39.09,-0.11 -39.09,-0.26 0,-0.15 17.5,-0.26 39.09,-0.26 21.59,0 39.09,0.12 39.09,0.26 z"
         style="fill:#263238"
         id="path41" /><path
         d="m 396,214.39 c 0,0.14 -7.09,0.26 -15.82,0.26 -8.73,0 -15.83,-0.12 -15.83,-0.26 0,-0.14 7.08,-0.26 15.83,-0.26 8.75,0 15.82,0.11 15.82,0.26 z"
         style="fill:#263238"
         id="path42" /><path
         d="m 437.43,214.07 c 0,0.14 -7.79,0.26 -17.4,0.26 -9.61,0 -17.41,-0.12 -17.41,-0.26 0,-0.14 7.79,-0.26 17.41,-0.26 9.62,0 17.4,0.12 17.4,0.26 z"
         style="fill:#263238"
         id="path43" /><path
         d="m 437.43,230.53 c 0,0.14 -16.44,0.26 -36.71,0.26 -20.27,0 -36.72,-0.12 -36.72,-0.26 0,-0.14 16.44,-0.26 36.72,-0.26 20.28,0 36.71,0.11 36.71,0.26 z"
         style="fill:#263238"
         id="path44" /><path
         d="m 298.17,261.23 c 0,0.14 -6.87,0.26 -15.35,0.26 -8.48,0 -15.35,-0.12 -15.35,-0.26 0,-0.14 6.87,-0.26 15.35,-0.26 8.48,0 15.35,0.12 15.35,0.26 z"
         style="fill:#263238"
         id="path45" /><path
         d="m 344.38,262.18 c 0,0.14 -7.94,0.26 -17.72,0.26 -9.78,0 -17.73,-0.12 -17.73,-0.26 0,-0.14 7.94,-0.26 17.73,-0.26 9.79,0 17.72,0.08 17.72,0.26 z"
         style="fill:#263238"
         id="path46" /><path
         d="m 345.33,277.37 c 0,0.15 -17.22,0.26 -38.45,0.26 -21.23,0 -38.46,-0.11 -38.46,-0.26 0,-0.15 17.21,-0.26 38.46,-0.26 21.25,0 38.45,0.12 38.45,0.26 z"
         style="fill:#263238"
         id="path47" /><path
         d="m 350.08,292.88 c 0,0.14 -18.57,0.26 -41.46,0.26 -22.89,0 -41.47,-0.12 -41.47,-0.26 0,-0.14 18.56,-0.26 41.47,-0.26 22.91,0 41.46,0.12 41.46,0.26 z"
         style="fill:#263238"
         id="path48" /><path
         d="m 416.23,244.77 c 0,0.14 -11.77,0.26 -26.27,0.26 -14.5,0 -26.27,-0.12 -26.27,-0.26 0,-0.14 11.76,-0.26 26.27,-0.26 14.51,0 26.27,0.12 26.27,0.26 z"
         style="fill:#263238"
         id="path49" /><path
         d="m 442.18,244.77 a 140.55,140.55 0 0 1 -17.09,0 140.55,140.55 0 0 1 17.09,0 z"
         style="fill:#263238"
         id="path50" /><path
         d="m 438.38,261.86 c 0,0.15 -16.15,0.26 -36.08,0.26 -19.93,0 -36.08,-0.11 -36.08,-0.26 0,-0.15 16.15,-0.26 36.08,-0.26 19.93,0 36.08,0.12 36.08,0.26 z"
         style="fill:#263238"
         id="path51" /><path
         d="m 399.14,277.69 c 0,0.14 -7.94,0.26 -17.73,0.26 -9.79,0 -17.72,-0.12 -17.72,-0.26 0,-0.14 7.93,-0.26 17.72,-0.26 9.79,0 17.73,0.11 17.73,0.26 z"
         style="fill:#263238"
         id="path52" /><path
         d="m 442.81,293.83 c 0,0.14 -17.36,0.26 -38.77,0.26 -21.41,0 -38.77,-0.12 -38.77,-0.26 0,-0.14 17.36,-0.26 38.77,-0.26 21.41,0 38.77,0.12 38.77,0.26 z"
         style="fill:#263238"
         id="path53" /><path
         d="m 446,278 c 0,0.15 -8.5,0.26 -19,0.26 -10.5,0 -19,-0.11 -19,-0.26 0,-0.15 8.5,-0.26 19,-0.26 10.5,0 19,0.12 19,0.26 z"
         style="fill:#263238"
         id="path54" /><path
         d="m 539,166.91 c 0,0.14 -18.07,0.26 -40.35,0.26 -22.28,0 -40.36,-0.12 -40.36,-0.26 0,-0.14 18.07,-0.26 40.36,-0.26 22.29,0 40.35,0.12 40.35,0.26 z"
         style="fill:#263238"
         id="path55" /><path
         d="m 475.1,182.1 a 125.37,125.37 0 0 1 -16.14,0 125.37,125.37 0 0 1 16.14,0 z"
         style="fill:#263238"
         id="path56" /><path
         d="m 534.92,197.61 c 0,0.15 -16.51,0.26 -36.87,0.26 -20.36,0 -36.88,-0.11 -36.88,-0.26 0,-0.15 16.51,-0.26 36.88,-0.26 20.37,0 36.87,0.12 36.87,0.26 z"
         style="fill:#263238"
         id="path58" /><path
         d="m 539,182.42 c 0,0.14 -12.68,0.26 -28.32,0.26 -15.64,0 -28.33,-0.12 -28.33,-0.26 0,-0.14 12.68,-0.26 28.33,-0.26 15.65,0 28.32,0.12 28.32,0.26 z"
         style="display:inline;fill:#263238"
         id="path57" /><path
         d="m 537.45,212.8 c 0,0.15 -17,0.26 -38,0.26 -21,0 -38,-0.11 -38,-0.26 0,-0.15 17,-0.26 38,-0.26 21,0 38,0.12 38,0.26 z"
         style="fill:#263238"
         id="path59" /><path
         d="m 496.62,229 c 0,0.14 -7.94,0.26 -17.72,0.26 -9.78,0 -17.73,-0.12 -17.73,-0.26 0,-0.14 7.94,-0.26 17.73,-0.26 9.79,0 17.72,0.06 17.72,0.26 z"
         style="fill:#263238"
         id="path60" /><path
         d="m 537.45,229.26 c 0,0.15 -7.09,0.26 -15.83,0.26 -8.74,0 -15.82,-0.11 -15.82,-0.26 0,-0.15 7.08,-0.26 15.82,-0.26 8.74,0 15.83,0.12 15.83,0.26 z"
         style="fill:#263238"
         id="path61" /><path
         d="m 548.87,124.78 c 0,0.15 -18,0.26 -40.19,0.26 -22.19,0 -40.19,-0.11 -40.19,-0.26 0,-0.15 18,-0.26 40.19,-0.26 22.19,0 40.19,0.12 40.19,0.26 z"
         style="fill:#263238"
         id="path63" /><path
         d="m 331.46747,125.12608 c 0,0.13001 -15.6003,0.22534 -34.83201,0.22534 -19.23171,0 -34.83201,-0.0953 -34.83201,-0.22534 0,-0.13 15.6003,-0.22533 34.83201,-0.22533 19.23171,0 34.83201,0.104 34.83201,0.22533 z"
         style="display:inline;fill:#263238;stroke-width:0.866684"
         id="path63-7" /><path
         d="m 546.74,247.48 c 0,0.08 -1.24,-0.62 -3.6,-1.37 a 23.29,23.29 0 0 0 -10.33,-0.76 22.33,22.33 0 0 0 -6.82,2.19 32,32 0 0 0 -6.7,4.82 c -2.2,1.94 -4.38,4.14 -6.9,6.17 a 23.67,23.67 0 0 1 -8.8,4.77 13.53,13.53 0 0 1 -5.14,0.31 16.91,16.91 0 0 1 -4.76,-1.47 81.85,81.85 0 0 1 -8,-4.75 25.11,25.11 0 0 0 -7.5,-3.36 22.51,22.51 0 0 0 -7.14,-0.55 23,23 0 0 0 -9.85,3.21 c -2.11,1.29 -3.11,2.26 -3.17,2.2 a 5,5 0 0 1 0.72,-0.71 16.67,16.67 0 0 1 2.29,-1.74 22.43,22.43 0 0 1 17.29,-3 25.45,25.45 0 0 1 7.73,3.38 81.68,81.68 0 0 0 7.92,4.66 13.51,13.51 0 0 0 9.4,1.1 23.05,23.05 0 0 0 8.51,-4.6 c 2.48,-2 4.67,-4.18 6.9,-6.12 a 32.28,32.28 0 0 1 6.91,-4.86 22.83,22.83 0 0 1 17.53,-1.14 18.17,18.17 0 0 1 2.65,1.14 4.44,4.44 0 0 1 0.86,0.48 z"
         style="fill:#6f7082"
         id="path64" /><rect
         x="475.16"
         y="264.66"
         width="9.5299997"
         height="25.77"
         style="fill:#6f7082"
         id="rect64" /><rect
         x="515.59003"
         y="264.66"
         width="9.5299997"
         height="25.77"
         style="fill:#6f7082"
         id="rect65" /><rect
         x="529.06"
         y="249.53"
         width="9.5299997"
         height="40.900002"
         style="fill:#bf4059;fill-opacity:1"
         id="rect66" /><rect
         x="462.82999"
         y="282.31"
         width="9.5299997"
         height="8.6700001"
         style="fill:#bf4059;fill-opacity:1"
         id="rect67" /><rect
         x="488.64001"
         y="276.29999"
         width="9.5299997"
         height="14.13"
         style="fill:#bf4059;fill-opacity:1"
         id="rect68" /><rect
         x="502.10999"
         y="273.04999"
         width="9.5299997"
         height="17.370001"
         style="fill:#bf4059;fill-opacity:1"
         id="rect69" /><rect
         x="268.73001"
         y="166.59"
         width="80.400002"
         height="77.790001"
         style="display:none;fill:#455a64"
         id="rect70" /><g
         style="display:none;opacity:0.3"
         id="g70"><polygon
           points="326.45,209.69 342.9,237.73 274.96,237.73 297.2,197.7 315.4,223.28 "
           id="polygon70" /></g><g
         style="display:none;opacity:0.3"
         id="g71"><path
           d="m 321.6,185.67 c 4.72,6.2 -2.28,13.2 -8.48,8.48 -4.71,-6.15 2.29,-13.15 8.48,-8.48 z"
           id="path70" /></g><g
         style="display:none;opacity:0.3"
         id="g72"><path
           d="m 342.9,237.94 a 2,2 0 0 1 0,-0.32 c 0,-0.23 0,-0.53 0,-0.9 0,-0.83 0,-2 0,-3.5 0,-3.09 0,-7.55 -0.08,-13.22 0,-11.36 -0.1,-27.54 -0.17,-47 l 0.33,0.32 -67.93,0.06 c -0.09,0.08 0.72,-0.72 0.38,-0.37 v 0 4.4 c 0,1.47 0,2.93 0,4.39 v 8.66 q 0,8.58 0,16.76 c 0,10.9 0,21.2 0,30.67 l -0.34,-0.33 49.12,0.17 13.86,0.09 h 3.67 0.95 0.34 a 1.45,1.45 0 0 1 -0.3,0 h -0.91 -3.61 l -13.78,0.09 -49.34,0.17 h -0.33 v -0.34 c 0,-9.47 0,-19.77 0,-30.67 q 0,-8.18 0,-16.76 v -17.25 0 c -0.34,0.33 0.46,-0.48 0.39,-0.4 l 67.93,0.06 h 0.33 V 173 c -0.07,19.51 -0.13,35.76 -0.17,47.17 0,5.64 -0.07,10.07 -0.09,13.14 0,1.48 0,2.63 0,3.44 0,0.36 0,0.65 0,0.87 a 1.32,1.32 0 0 1 -0.25,0.32 z"
           id="path71" /></g><path
         d="m 350.21,309.22 c 0,0.14 -18.49,0.26 -41.28,0.26 -22.79,0 -41.27,-0.12 -41.27,-0.26 0,-0.14 18.47,-0.26 41.27,-0.26 22.8,0 41.28,0.11 41.28,0.26 z"
         style="fill:#e0e0e0"
         id="path72" /><path
         d="m 446.6,308.68 c 0,0.15 -17.78,0.26 -39.71,0.26 -21.93,0 -39.73,-0.11 -39.73,-0.26 0,-0.15 17.78,-0.26 39.73,-0.26 21.95,0 39.71,0.12 39.71,0.26 z"
         style="fill:#e0e0e0"
         id="path73" /><path
         d="m 544.9,307.17 c 0,0.15 -17.67,0.26 -39.47,0.26 -21.8,0 -39.47,-0.11 -39.47,-0.26 0,-0.15 17.67,-0.26 39.47,-0.26 21.8,0 39.47,0.09 39.47,0.26 z"
         style="fill:#e0e0e0"
         id="path74" /><path
         d="m 350.21,322.6 c 0,0.15 -18.49,0.26 -41.28,0.26 -22.79,0 -41.27,-0.11 -41.27,-0.26 0,-0.15 18.47,-0.26 41.27,-0.26 22.8,0 41.28,0.12 41.28,0.26 z"
         style="fill:#e0e0e0"
         id="path75" /><path
         d="m 446.6,322.07 c 0,0.14 -17.78,0.26 -39.71,0.26 -21.93,0 -39.73,-0.12 -39.73,-0.26 0,-0.14 17.78,-0.26 39.73,-0.26 21.95,0 39.71,0.11 39.71,0.26 z"
         style="fill:#e0e0e0"
         id="path76" /><path
         d="m 544.9,320.56 c 0,0.14 -17.67,0.26 -39.47,0.26 -21.8,0 -39.43,-0.12 -39.43,-0.26 0,-0.14 17.67,-0.26 39.47,-0.26 21.8,0 39.43,0.12 39.43,0.26 z"
         style="fill:#e0e0e0"
         id="path77" /></g><g
       id="freepik--Button--inject-6"><rect
         x="319.98999"
         y="341.20999"
         width="183.63"
         height="53.93"
         rx="26.969999"
         style="fill:#8c96a1;fill-opacity:1"
         id="rect77" /><path
         d="m 386.31,368.1 c 0,2.41 -1.81,3.9 -4.69,3.9 h -2.18 v 3 h -2.5 v -10.8 h 4.68 c 2.88,-0.02 4.69,1.48 4.69,3.9 z m -2.53,0 c 0,-1.19 -0.77,-1.88 -2.3,-1.88 h -2 V 370 h 2 c 1.52,0 2.3,-0.73 2.3,-1.9 z"
         style="fill:#ffffff"
         id="path78" /><path
         d="m 388,370.23 v -6.05 h 2.5 v 6 c 0,2.05 0.89,2.9 2.41,2.9 1.52,0 2.4,-0.85 2.4,-2.9 v -6 h 2.47 v 6.05 c 0,3.18 -1.82,4.94 -4.89,4.94 -3.07,0 -4.89,-1.76 -4.89,-4.94 z"
         style="fill:#ffffff"
         id="path79" /><path
         d="m 410.11,372 c 0,1.87 -1.48,3 -4.32,3 h -5.59 v -10.8 h 5.28 c 2.7,0 4.09,1.13 4.09,2.81 a 2.59,2.59 0 0 1 -1.44,2.37 2.68,2.68 0 0 1 1.98,2.62 z m -7.42,-6 v 2.55 h 2.48 c 1.22,0 1.88,-0.43 1.88,-1.28 0,-0.85 -0.66,-1.27 -1.88,-1.27 z m 4.9,5.71 c 0,-0.91 -0.69,-1.34 -2,-1.34 h -2.91 v 2.67 h 2.91 c 1.31,0.06 2,-0.34 2,-1.27 z"
         style="fill:#ffffff"
         id="path80" /><path
         d="m 412,364.18 h 2.5 v 8.76 h 5.41 v 2 H 412 Z"
         style="fill:#ffffff"
         id="path81" /><path
         d="m 421.33,364.18 h 2.5 V 375 h -2.5 z"
         style="fill:#ffffff"
         id="path82" /><path
         d="m 425.55,373.92 0.84,-1.89 a 6.31,6.31 0 0 0 3.57,1.13 c 1.48,0 2.08,-0.49 2.08,-1.16 0,-2 -6.28,-0.63 -6.28,-4.64 0,-1.84 1.48,-3.36 4.55,-3.36 a 7.26,7.26 0 0 1 3.75,0.95 l -0.77,1.9 a 6.11,6.11 0 0 0 -3,-0.85 c -1.48,0 -2.05,0.56 -2.05,1.24 0,2 6.27,0.61 6.27,4.58 0,1.8 -1.49,3.35 -4.58,3.35 a 7.67,7.67 0 0 1 -4.38,-1.25 z"
         style="fill:#ffffff"
         id="path83" /><path
         d="M 446.15,364.18 V 375 h -2.5 v -4.43 h -4.91 V 375 h -2.5 v -10.8 h 2.5 v 4.26 h 4.91 v -4.26 z"
         style="fill:#ffffff"
         id="path84" /></g><g
       id="freepik--Cursor--inject-6"><path
         d="m 469.12,394.76 a 15.66,15.66 0 0 1 1.74,5.39 h 3.23 l 13.56,-0.23 -0.1,0.24 c 0,0 2.21,-10.4 2.61,-13.49 0.34,-2.55 1.91,-8.65 0,-11.34 a 2.82,2.82 0 0 0 -3.11,-1 2.19,2.19 0 0 0 -1.55,1.7 c 0,0 -0.16,-3.6 -2.75,-3.66 -2.59,-0.06 -2.68,2 -2.68,2 0,0 -0.71,-4.12 -3.59,-4.08 a 2.76,2.76 0 0 0 -2.38,2 v -7.78 a 3,3 0 0 0 -2.8,-3 2.91,2.91 0 0 0 -3,2.87 l -0.3,18 -4.4,-5.64 c -1.15,-1.46 -3.89,-0.73 -4.24,0.52 0,0 -0.79,1.66 0.84,4.09 1.27,1.83 8.92,13.41 8.92,13.41 z"
         style="fill:#ebebeb"
         id="path85" /><path
         d="m 469.12,394.76 a 3.54,3.54 0 0 1 -0.22,-0.29 l -0.59,-0.86 -2.26,-3.37 -3.56,-5.34 -2.23,-3.34 a 6.72,6.72 0 0 1 -1,-2 3.71,3.71 0 0 1 0,-2.35 v 0 a 1.94,1.94 0 0 1 1,-1.05 3.42,3.42 0 0 1 1.41,-0.36 2.73,2.73 0 0 1 1.47,0.35 2.57,2.57 0 0 1 0.32,0.22 l 0.28,0.29 0.46,0.6 3.93,5 -0.23,0.08 c 0.06,-5.05 0.12,-10.59 0.19,-16.49 v -1.11 a 5.61,5.61 0 0 1 0.08,-1.14 3.06,3.06 0 0 1 6,0.19 7,7 0 0 1 0.06,1.2 v 7.18 h -0.31 a 3,3 0 0 1 1.34,-1.72 3.09,3.09 0 0 1 0.87,-0.34 1.34,1.34 0 0 1 0.49,0 2.42,2.42 0 0 1 0.46,0.06 3,3 0 0 1 1.6,0.92 6.72,6.72 0 0 1 1.52,3.22 h -0.31 a 2.25,2.25 0 0 1 1.33,-1.85 3.43,3.43 0 0 1 1.13,-0.25 2.18,2.18 0 0 1 0.57,0 h 0.29 l 0.28,0.08 a 2.78,2.78 0 0 1 1.6,1.55 6.07,6.07 0 0 1 0.53,2.13 h -0.3 a 2.37,2.37 0 0 1 1.46,-1.74 3,3 0 0 1 2.25,0 3,3 0 0 1 0.94,0.65 4.08,4.08 0 0 1 0.62,0.93 6.81,6.81 0 0 1 0.55,2.09 31.76,31.76 0 0 1 -0.77,8.14 c -0.36,2.6 -0.88,5.07 -1.34,7.42 l -1.39,6.69 -0.22,-0.07 0.1,-0.24 0.11,0.16 -13.55,0.2 0.07,-0.08 v 0 0.07 h -3.36 v -0.06 a 15.72,15.72 0 0 0 -1.08,-4 c -0.18,-0.45 -0.34,-0.78 -0.45,-1 a 2.94,2.94 0 0 1 -0.15,-0.34 11.43,11.43 0 0 1 0.66,1.31 15.76,15.76 0 0 1 1.15,4.07 l -0.07,-0.06 h 3.23 l -0.07,0.08 v 0 -0.07 h 0.07 l 13.56,-0.28 h 0.17 l -0.07,0.16 c 0,0.08 -0.06,0.15 -0.09,0.24 l -0.22,-0.07 c 0.43,-2.1 0.88,-4.34 1.36,-6.69 0.48,-2.35 1,-4.81 1.32,-7.41 a 32,32 0 0 0 0.75,-8.06 6.93,6.93 0 0 0 -0.52,-2 4.08,4.08 0 0 0 -0.57,-0.85 2.76,2.76 0 0 0 -0.85,-0.57 2.62,2.62 0 0 0 -2,0 2.07,2.07 0 0 0 -1.27,1.53 l -0.22,1 -0.08,-1.07 a 5.68,5.68 0 0 0 -0.51,-2 2.44,2.44 0 0 0 -1.42,-1.38 3.11,3.11 0 0 0 -2,0.12 1.91,1.91 0 0 0 -1.15,1.58 l -0.1,1 -0.21,-1 a 6.42,6.42 0 0 0 -1.44,-3.06 2.38,2.38 0 0 0 -3,-0.54 2.71,2.71 0 0 0 -1.2,1.55 l -0.3,0.95 V 365 a 7.09,7.09 0 0 0 -0.05,-1.14 2.87,2.87 0 0 0 -0.4,-1 2.71,2.71 0 0 0 -3.81,-0.87 2.77,2.77 0 0 0 -1.19,1.72 5.38,5.38 0 0 0 -0.08,1.08 c 0,0.37 0,0.74 0,1.11 -0.08,5.89 -0.16,11.43 -0.23,16.49 v 0.37 l -0.24,-0.29 c -1.36,-1.75 -2.66,-3.44 -3.91,-5 a 3.9,3.9 0 0 0 -1,-1.06 2.51,2.51 0 0 0 -1.34,-0.32 3.15,3.15 0 0 0 -1.32,0.34 1.64,1.64 0 0 0 -0.86,0.9 v 0 a 3.52,3.52 0 0 0 0,2.2 6.61,6.61 0 0 0 0.95,1.94 l 2.2,3.36 3.53,5.37 c 0.95,1.47 1.69,2.61 2.21,3.39 l 0.56,0.89 z"
         style="fill:#263238"
         id="path86" /><rect
         x="468.51999"
         y="399.94"
         width="21.639999"
         height="4.8299999"
         rx="2.3299999"
         style="fill:#ebebeb"
         id="rect86" /><path
         d="m 487.83,404.78 c 0,0 0.17,0 0.48,-0.09 a 2.24,2.24 0 0 0 1.18,-0.7 2.44,2.44 0 0 0 0.49,-0.87 2.82,2.82 0 0 0 0.07,-1.17 2.25,2.25 0 0 0 -1.91,-1.87 h -17.28 a 2.17,2.17 0 0 0 -2.18,2.24 2.12,2.12 0 0 0 0.23,1.09 2.22,2.22 0 0 0 1.74,1.19 c 0.74,0 1.51,0 2.23,0 h 7.78 l 5.24,0.05 h 1.43 0.5 a 3.21,3.21 0 0 1 -0.5,0 h -1.43 l -5.24,0.05 h -7.78 c -0.74,0 -1.47,0 -2.26,0 a 2.57,2.57 0 0 1 0.24,-5.13 c 6.76,0 12.86,0 17.31,0.07 a 2.42,2.42 0 0 1 2.05,2.06 3,3 0 0 1 -0.09,1.25 2.5,2.5 0 0 1 -0.55,0.9 2.33,2.33 0 0 1 -1.25,0.69 1.72,1.72 0 0 1 -0.5,0.24 z"
         style="fill:#263238"
         id="path87" /><path
         d="m 474,378.86 a 38.47,38.47 0 0 1 0,-7 38.47,38.47 0 0 1 0,7 z"
         style="fill:#263238"
         id="path88" /><path
         d="m 480,378.38 a 13.67,13.67 0 0 1 0,-4.17 14.57,14.57 0 0 1 0,4.17 z"
         style="fill:#263238"
         id="path89" /><path
         d="m 485.49,380.13 a 14.5,14.5 0 0 1 0,-4.16 13.6,13.6 0 0 1 0,4.16 z"
         style="fill:#263238"
         id="path90" /><path
         d="m 467,361.12 a 21,21 0 0 1 -3.31,-1.51 21.8,21.8 0 0 1 -3.17,-1.79 21,21 0 0 1 3.31,1.51 21.8,21.8 0 0 1 3.17,1.79 z"
         style="fill:#263238"
         id="path91" /><path
         d="m 470,359.47 a 37.2,37.2 0 0 1 -0.87,-4.59 36.22,36.22 0 0 1 -0.57,-4.63 33.69,33.69 0 0 1 0.88,4.58 33.17,33.17 0 0 1 0.56,4.64 z"
         style="fill:#263238"
         id="path92" /><path
         d="m 473.62,359.89 a 22.63,22.63 0 0 1 2,-3.19 23,23 0 0 1 2.3,-3 23,23 0 0 1 -2,3.2 23.29,23.29 0 0 1 -2.3,2.99 z"
         style="fill:#263238"
         id="path93" /></g><g
       id="freepik--Plant--inject-6"
       transform="translate(-36.240521,20.049681)"><path
         d="m 708.83,267.6 c -10,5.17 -17.65,14.07 -23.15,23.88 -5.5,9.81 -9,20.56 -12.57,31.24 L 670,377.81 c 11.61,-19.76 20.94,-43 23.46,-65.78 l -7.73,-0.69 c 5.18,-0.79 9.53,-4.55 12.3,-9 2.77,-4.45 4.19,-9.59 5.58,-14.65 l -9.43,1.4 a 35,35 0 0 0 14.65,-21.49 z"
         style="fill:#455a64"
         id="path94" /><g
         style="opacity:0.3"
         id="g95"><path
           d="m 708.83,267.6 c -10,5.17 -17.65,14.07 -23.15,23.88 -5.5,9.81 -9,20.56 -12.57,31.24 L 670,377.81 c 11.61,-19.76 20.94,-43 23.46,-65.78 l -7.73,-0.69 c 5.18,-0.79 9.53,-4.55 12.3,-9 2.77,-4.45 4.19,-9.59 5.58,-14.65 l -9.43,1.4 a 35,35 0 0 0 14.65,-21.49 z"
           id="path95" /></g><path
         d="m 668.32,390.72 c 0,0 -25.22,-30.18 -24.93,-59 h 10.19 c 0,0 -11.07,-7.27 -10.19,-11.35 0.88,-4.08 1.16,-19.5 1.16,-19.5 l 9.32,2.33 c 0,0 -7,-3.49 -7.86,-9 -0.86,-5.51 2,-31.14 2,-31.14 0,0 11.39,11.94 14.88,24.13 3.49,12.19 12.66,26.49 10,63.74 -2.66,37.25 -4.57,39.79 -4.57,39.79 z"
         style="fill:#455a64"
         id="path96" /><path
         d="m 681.1,393.57 c 0,0 27.32,-18.2 33.39,-41.43 l -8.19,-2.23 c 0,0 10.49,-3.43 10.7,-6.91 0.21,-3.48 3.32,-15.94 3.32,-15.94 l -8,-0.16 c 0,0 6.38,-1.28 8.29,-5.54 1.91,-4.26 5.17,-25.48 5.17,-25.48 0,0 -11.78,7.12 -17.22,16.19 -5.44,9.07 -16,18.53 -22,49.07 -6,30.54 -5.46,32.43 -5.46,32.43 z"
         style="fill:#455a64"
         id="path97" /><path
         d="m 654.93,289.35 a 1.93,1.93 0 0 1 0.1,0.32 c 0.05,0.23 0.13,0.54 0.22,0.92 l 0.8,3.58 c 0.36,1.56 0.76,3.47 1.21,5.69 0.45,2.22 1,4.74 1.48,7.54 1.08,5.6 2.23,12.29 3.4,19.73 1.17,7.44 2.27,15.66 3.28,24.3 1.01,8.64 1.76,16.89 2.35,24.41 0.59,7.52 1,14.29 1.19,20 0.14,2.85 0.21,5.43 0.28,7.69 0.07,2.26 0.11,4.21 0.12,5.81 0.01,1.6 0,2.79 0,3.67 0,0.39 0,0.71 0,0.95 a 1.19,1.19 0 0 1 0,0.33 2.77,2.77 0 0 1 0,-0.33 c 0,-0.24 0,-0.56 -0.05,-0.95 0,-0.87 -0.07,-2.1 -0.13,-3.67 -0.06,-1.57 -0.11,-3.54 -0.21,-5.8 -0.1,-2.26 -0.19,-4.83 -0.35,-7.68 -0.27,-5.69 -0.73,-12.46 -1.31,-20 -0.58,-7.54 -1.4,-15.76 -2.38,-24.39 -0.98,-8.63 -2.13,-16.84 -3.24,-24.28 -1.11,-7.44 -2.25,-14.14 -3.29,-19.74 -0.49,-2.81 -1,-5.33 -1.41,-7.56 -0.41,-2.23 -0.79,-4.13 -1.11,-5.69 -0.32,-1.56 -0.54,-2.75 -0.71,-3.6 -0.07,-0.39 -0.13,-0.7 -0.17,-0.94 -0.04,-0.24 -0.07,-0.31 -0.07,-0.31 z"
         style="fill:#263238"
         id="path98" /><path
         d="m 664.82,409.2 c 0,0 -23.08,-26.18 -30.24,-42 l 5.4,-2.31 c -3.92,0.65 -7.93,-1 -11,-3.6 -3.07,-2.6 -5.28,-5.92 -7.47,-9.24 l 7.13,-1.2 a 26.5,26.5 0 0 1 -15.57,-12.06 c 8.41,1.38 16,6 22.29,11.77 a 111.48,111.48 0 0 1 13.5,15.65 53,53 0 0 1 5.24,8.62 c 3.9,8.01 10.73,24.76 10.72,34.37 z"
         style="fill:#455a64"
         id="path99" /><path
         d="m 714.85,311.14 a 0.93,0.93 0 0 1 -0.1,0.27 l -0.35,0.76 c -0.34,0.7 -0.81,1.67 -1.4,2.91 -1.24,2.51 -3,6.17 -5.11,10.71 -4.24,9.07 -9.83,21.74 -15.35,36 -5.52,14.26 -9.89,27.4 -12.86,37 -1.48,4.78 -2.65,8.66 -3.43,11.35 -0.39,1.32 -0.69,2.35 -0.92,3.1 -0.1,0.32 -0.18,0.59 -0.25,0.8 a 1.36,1.36 0 0 1 -0.1,0.27 1.2,1.2 0 0 1 0,-0.29 l 0.2,-0.81 0.83,-3.12 c 0.72,-2.71 1.83,-6.61 3.27,-11.41 2.88,-9.6 7.21,-22.77 12.73,-37.05 5.52,-14.28 11.17,-26.92 15.5,-36 2.16,-4.52 4,-8.16 5.25,-10.64 0.64,-1.22 1.14,-2.18 1.49,-2.87 0.17,-0.3 0.3,-0.54 0.4,-0.74 a 2.41,2.41 0 0 1 0.2,-0.24 z"
         style="fill:#263238"
         id="path100" /><path
         d="m 666.78,420.42 a 1.5,1.5 0 0 1 -0.12,-0.48 c -0.06,-0.37 -0.14,-0.83 -0.23,-1.39 -0.18,-1.2 -0.48,-2.95 -0.91,-5.09 -0.43,-2.14 -1,-4.67 -1.76,-7.45 -0.76,-2.78 -1.74,-5.8 -2.91,-8.92 -1.17,-3.12 -2.46,-6 -3.71,-8.61 -1.25,-2.61 -2.5,-4.88 -3.6,-6.77 -1.1,-1.89 -2,-3.39 -2.69,-4.41 l -0.74,-1.2 c -0.17,-0.28 -0.25,-0.43 -0.23,-0.44 a 2,2 0 0 1 0.31,0.38 l 0.83,1.14 c 0.72,1 1.69,2.48 2.83,4.35 1.14,1.87 2.42,4.15 3.72,6.74 1.3,2.59 2.58,5.51 3.77,8.64 1.19,3.13 2.12,6.18 2.88,9 0.76,2.82 1.29,5.36 1.67,7.52 0.38,2.16 0.62,3.91 0.74,5.13 l 0.13,1.4 a 2.27,2.27 0 0 1 0.02,0.46 z"
         style="fill:#263238"
         id="path101" /><rect
         x="646.71997"
         y="414.26999"
         width="50.509998"
         height="10.3"
         style="fill:#6f7082"
         id="rect101" /><polygon
         points="692.61,424.57 651.53,424.57 657,459.22 687.51,459.22 "
         style="fill:#bf4059;fill-opacity:1"
         id="polygon101" /><path
         d="m 694.13,424.57 c 0,0.14 -9.56,0.26 -21.34,0.26 -11.78,0 -21.34,-0.12 -21.34,-0.26 0,-0.14 9.55,-0.26 21.34,-0.26 11.79,0 21.34,0.11 21.34,0.26 z"
         style="fill:#bf4059;fill-opacity:1"
         id="path102" /></g><g
       id="freepik--Character--inject-6"><path
         d="m 50.6,355.61 -1.42,-72.25 a 33.25,33.25 0 0 1 33.2,-33.9 v 0 a 33.25,33.25 0 0 1 33.3,33.08 l 0.37,73.07 -65.45,2.8"
         style="fill:#455a64"
         id="path103" /><path
         d="m 50.6,367.94 h 101.82 c 0,-6.81 -4.59,-11.94 -11.4,-11.94 L 50.6,355.61 Z"
         style="fill:#455a64"
         id="path104" /><rect
         x="134.82001"
         y="367.94"
         width="7.1500001"
         height="90.650002"
         transform="rotate(180,138.395,413.265)"
         style="fill:#455a64"
         id="rect104" /><rect
         x="58.669998"
         y="367.94"
         width="7.1500001"
         height="90.650002"
         transform="rotate(180,62.245,413.265)"
         style="fill:#455a64"
         id="rect105" /><path
         d="m 58.91,356 c 0,-0.13 18.94,-0.23 42.3,-0.23 23.36,0 42.31,0.1 42.31,0.23 0,0.13 -18.94,0.24 -42.31,0.24 -23.37,0 -42.3,-0.11 -42.3,-0.24 z"
         style="fill:#263238"
         id="path105" /><path
         d="m 52.32,368 c 0,-0.13 22.26,-0.23 49.71,-0.23 27.45,0 49.72,0.1 49.72,0.23 0,0.13 -22.25,0.24 -49.72,0.24 -27.47,0 -49.71,-0.13 -49.71,-0.24 z"
         style="fill:#263238"
         id="path106" /><path
         d="m 57.76,262.33 c 0.13,0 0.23,20.62 0.23,46.06 0,25.44 -0.1,46.06 -0.23,46.06 -0.13,0 -0.24,-20.62 -0.24,-46.06 0,-25.44 0.1,-46.06 0.24,-46.06 z"
         style="fill:#263238"
         id="path107" /><path
         d="m 118.79,315.06 c 0,0 57.3,-0.24 61.84,0 8.07,0.44 13.49,9.46 14.57,14.13 1.08,4.67 26.12,76.68 26.12,76.68 l -19.46,12.58 -26.1,-58.89 -13.14,-22.85 -71.46,12.49 z"
         style="fill:#936760"
         id="path108" /><path
         d="m 163,334.6 c 0,0 10.58,0 16.29,8.46 3.36,5 2.18,13.86 2.25,20.57 0.09,9.14 -2.29,80 -2.29,80 -6.74,4.79 -14.27,5.35 -22.5,2.13 l -5.82,-78.44 1.5,-11.71 -39.08,0.87 c 0,0 -7,-13 2.71,-23.36 1.24,-1.33 46.94,1.48 46.94,1.48 z"
         style="fill:#936760"
         id="path109" /><path
         d="m 167.92,335 h 0.3 l 0.86,0.14 a 12.92,12.92 0 0 1 3.16,1.12 16,16 0 0 1 4.24,3.17 20.22,20.22 0 0 1 3.89,5.84 24,24 0 0 1 1.95,8.27 64.87,64.87 0 0 1 -0.27,9.76 c -0.31,3.42 -0.47,7 -0.6,10.73 -0.13,3.73 -0.26,7.59 -0.39,11.55 -0.48,15.81 -0.91,30.13 -1.22,40.52 -0.17,5.17 -0.3,9.35 -0.4,12.28 -0.06,1.43 -0.1,2.55 -0.13,3.34 0,0.36 0,0.65 -0.05,0.87 a 1.16,1.16 0 0 1 0,0.3 1.5,1.5 0 0 1 0,-0.3 c 0,-0.22 0,-0.51 0,-0.87 0,-0.8 0,-1.91 0,-3.34 0.06,-2.93 0.14,-7.12 0.24,-12.29 0.24,-10.37 0.59,-24.7 1.09,-40.53 0.13,-3.95 0.26,-7.81 0.39,-11.54 0.13,-3.73 0.32,-7.34 0.64,-10.76 a 65.63,65.63 0 0 0 0.31,-9.69 23.9,23.9 0 0 0 -1.87,-8.17 20.29,20.29 0 0 0 -3.77,-5.79 16.12,16.12 0 0 0 -4.14,-3.19 15.21,15.21 0 0 0 -4.23,-1.42 z"
         style="fill:#6f4c47"
         id="path110" /><path
         d="m 179.23,442.9 v 1.44 c 0,0 24.53,9.56 24.83,14.2 l -48.5,0.23 0.58,-16.14 c 7.25,3.3 14.8,3.64 23.09,0.27 z"
         style="fill:#bf4059;fill-opacity:1"
         id="path111" /><path
         d="m 155.58,458.77 0.14,-3.88 46.44,1.19 c 0,0 2.16,0.93 1.92,2.46 z"
         style="fill:#e0e0e0"
         id="path112" /><path
         d="m 220.37,402.87 0.55,1.33 c 0,0 26.33,-0.14 28.32,4.05 l -45,18.1 -5.41,-15.22 c 7.93,0.41 15.08,-2.06 21.54,-8.26 z"
         style="fill:#bf4059;fill-opacity:1"
         id="path113" /><path
         d="m 204.24,426.35 -1.31,-3.66 43.61,-16 c 0,0 2.36,0.07 2.7,1.57 z"
         style="fill:#bf4059;fill-opacity:1"
         id="path114" /><path
         d="m 222.75,409.73 c -0.06,0 -0.29,-0.26 -0.48,-0.81 a 4.64,4.64 0 0 1 -0.17,-2.27 4.82,4.82 0 0 1 0.9,-2.1 c 0.36,-0.46 0.67,-0.65 0.72,-0.61 a 11.55,11.55 0 0 0 -1.1,2.79 11.2,11.2 0 0 0 0.13,3 z"
         style="fill:#263238"
         id="path115" /><path
         d="m 220.17,410.17 a 5.22,5.22 0 0 1 1,-5.91 25.68,25.68 0 0 0 -0.92,2.88 25.22,25.22 0 0 0 -0.08,3.03 z"
         style="fill:#263238"
         id="path116" /><path
         d="m 226.66,409.4 a 3.19,3.19 0 0 1 -1.14,-2.37 3.26,3.26 0 0 1 0.51,-2.58 c 0.15,0.05 -0.18,1.15 0,2.51 0.18,1.36 0.76,2.36 0.63,2.44 z"
         style="fill:#263238"
         id="path117" /><path
         d="m 224,404.33 c 0,0.05 -0.68,-0.28 -1.34,-1.21 a 9.42,9.42 0 0 1 -0.94,-1.72 c -0.15,-0.34 -0.29,-0.69 -0.43,-1.06 a 3.11,3.11 0 0 1 -0.2,-0.63 0.91,0.91 0 0 1 0.23,-0.79 0.71,0.71 0 0 1 0.87,-0.11 1.64,1.64 0 0 1 0.53,0.47 5.4,5.4 0 0 1 0.61,1 5.79,5.79 0 0 1 0.54,1.91 3.08,3.08 0 0 1 -0.19,1.79 c -0.08,0 0,-0.69 -0.17,-1.74 a 6.55,6.55 0 0 0 -0.61,-1.75 5,5 0 0 0 -0.59,-0.91 c -0.21,-0.3 -0.53,-0.47 -0.62,-0.32 -0.09,0.15 -0.08,0.5 0.08,0.88 l 0.39,1.06 a 11.32,11.32 0 0 0 0.81,1.7 c 0.52,0.94 1.03,1.36 1.03,1.43 z"
         style="fill:#263238"
         id="path118" /><path
         d="m 224.24,404.07 c 0,0 0,0.11 -0.18,0.26 l -0.1,0.11 v -0.17 a 5.93,5.93 0 0 1 0.12,-2 7.54,7.54 0 0 1 0.51,-1.52 7.81,7.81 0 0 1 0.43,-0.8 1.33,1.33 0 0 1 0.35,-0.42 0.78,0.78 0 0 1 0.66,-0.16 0.7,0.7 0 0 1 0.5,0.69 2.59,2.59 0 0 1 -0.1,0.62 6.81,6.81 0 0 1 -0.35,1.05 6.46,6.46 0 0 1 -1,1.56 c -0.7,0.8 -1.3,1.1 -1.33,1.05 -0.03,-0.05 0.45,-0.46 1,-1.27 a 7.25,7.25 0 0 0 0.84,-1.53 8.08,8.08 0 0 0 0.3,-1 c 0.1,-0.35 0.08,-0.71 0,-0.68 -0.28,-0.1 -0.64,0.65 -0.87,1.08 a 7.42,7.42 0 0 0 -0.55,1.41 11.62,11.62 0 0 0 -0.37,1.94 l -0.13,-0.06 c 0.16,-0.14 0.25,-0.18 0.27,-0.16 z"
         style="fill:#263238"
         id="path119" /><path
         d="m 178.82,449.86 c -0.07,0 -0.11,-0.37 0,-0.94 a 4.74,4.74 0 0 1 1,-2 4.66,4.66 0 0 1 1.86,-1.31 c 0.55,-0.21 0.92,-0.21 0.93,-0.15 a 11.68,11.68 0 0 0 -2.4,1.8 11.27,11.27 0 0 0 -1.39,2.6 z"
         style="fill:#263238"
         id="path120" /><path
         d="m 176.39,448.89 a 4.23,4.23 0 0 1 1.27,-2.88 4.17,4.17 0 0 1 2.68,-1.63 27.09,27.09 0 0 0 -2.29,2 25.65,25.65 0 0 0 -1.66,2.51 z"
         style="fill:#263238"
         id="path121" /><path
         d="m 182.32,451.63 a 3.27,3.27 0 0 1 0.27,-2.62 c 0.62,-1.39 1.73,-2.05 1.79,-1.93 0.06,0.12 -0.76,0.89 -1.31,2.15 -0.55,1.26 -0.6,2.4 -0.75,2.4 z"
         style="fill:#263238"
         id="path122" /><path
         d="m 182.69,445.91 a 3,3 0 0 1 -0.51,-1.73 9.7,9.7 0 0 1 0.1,-2 c 0.05,-0.37 0.12,-0.75 0.19,-1.13 a 4,4 0 0 1 0.16,-0.64 0.93,0.93 0 0 1 0.61,-0.56 0.72,0.72 0 0 1 0.8,0.37 1.51,1.51 0 0 1 0.2,0.68 5.15,5.15 0 0 1 0,1.18 5.75,5.75 0 0 1 -0.54,1.91 c -0.5,1 -1.06,1.47 -1.1,1.43 -0.04,-0.04 0.38,-0.58 0.77,-1.58 a 6.66,6.66 0 0 0 0.4,-1.8 5.72,5.72 0 0 0 0,-1.09 c 0,-0.36 -0.21,-0.67 -0.36,-0.6 -0.15,0.07 -0.33,0.39 -0.4,0.79 -0.07,0.4 -0.15,0.75 -0.22,1.11 a 12.86,12.86 0 0 0 -0.2,1.87 c -0.05,1.12 0.18,1.76 0.1,1.79 z"
         style="fill:#263238"
         id="path123" /><path
         d="m 183.05,445.82 c 0,0 -0.09,0.07 -0.29,0.13 h -0.15 l 0.07,-0.16 a 6,6 0 0 1 1.17,-1.68 8.25,8.25 0 0 1 1.23,-1 8.55,8.55 0 0 1 0.79,-0.45 1.69,1.69 0 0 1 0.51,-0.18 0.82,0.82 0 0 1 0.65,0.21 0.7,0.7 0 0 1 0.06,0.85 2.21,2.21 0 0 1 -0.4,0.48 6.15,6.15 0 0 1 -0.85,0.71 6.26,6.26 0 0 1 -1.67,0.82 3,3 0 0 1 -1.67,0.19 c 0,-0.08 0.62,-0.15 1.55,-0.54 a 7,7 0 0 0 1.51,-0.86 6.82,6.82 0 0 0 0.77,-0.68 c 0.27,-0.24 0.44,-0.56 0.33,-0.6 -0.19,-0.23 -0.88,0.22 -1.31,0.47 a 9.53,9.53 0 0 0 -1.21,0.91 12.46,12.46 0 0 0 -1.32,1.46 l -0.08,-0.12 c 0.2,0 0.26,0.01 0.31,0.04 z"
         style="fill:#263238"
         id="path124" /><path
         d="m 183.73,281 8.75,1.41 5.69,7.87 -1.66,6 -1,0.34 0.21,2.25 a 2.48,2.48 0 0 1 -1.3,2.42 v 0 l -4.53,-7.85 1.87,8 a 4,4 0 0 1 -3.05,-0.52 c -1.93,-1 -4,-9.86 -4,-9.86 l -3,-1.89 3,9.88 a 3.33,3.33 0 0 1 -2.58,0.92 c -1.67,-0.09 -5.08,-9.05 -5.08,-9.05 l -45.56,6.38 -0.1,-5.89 11.06,-18.31 z"
         style="fill:#936760"
         id="path125" /><path
         d="m 84.87,207.5 a 15.69,15.69 0 0 1 -9.63,-11.42 c -0.42,-2.16 -0.39,-4.41 -1,-6.51 -0.94,-3 -3.27,-5.61 -3.39,-8.77 -0.07,-2.09 0.86,-4.09 1,-6.18 0.14,-2.09 -0.34,-4 -0.38,-6.05 a 13.1,13.1 0 0 1 8,-12.11 l 12.6,-5.11 19.42,7.92 c 0,0 11,10.72 7.87,32.78 z"
         style="fill:#6f7082"
         id="path126" /><path
         d="m 117.27,194 a 3.61,3.61 0 0 1 1.39,-1.11 h -0.11 a 1.77,1.77 0 0 1 0.31,-0.08 1.48,1.48 0 0 1 1.17,0 v 0 a 2.76,2.76 0 0 1 1.62,1.17 3.26,3.26 0 0 1 -0.08,3.38 2.49,2.49 0 0 1 -4.63,-0.45 3.1,3.1 0 0 1 0.33,-2.91 z"
         style="fill:#455a64"
         id="path127" /><path
         d="m 117,173.81 c -1.28,-7.05 -7,-15.19 -14,-13.61 l -21.41,8.2 a 4.18,4.18 0 0 0 -3.23,4.66 l 6.35,47.21 a 13.07,13.07 0 0 0 12.06,11.29 v 0 a 13.07,13.07 0 0 0 13.92,-14 c -0.25,-3.26 -0.42,-5.7 -0.42,-5.69 0,0.01 8.89,-2.58 9.36,-14.63 0.28,-6 -1.16,-15.61 -2.63,-23.43 z"
         style="fill:#936760"
         id="path128" /><path
         d="m 114.81,184.21 a 1.52,1.52 0 0 1 -1.29,1.7 1.45,1.45 0 0 1 -1.72,-1.18 1.52,1.52 0 0 1 1.28,-1.7 1.46,1.46 0 0 1 1.73,1.18 z"
         style="fill:#263238"
         id="path129" /><path
         d="m 115.54,179.07 c -0.16,0.22 -1.41,-0.49 -3,-0.29 -1.59,0.2 -2.73,1.15 -2.93,1 -0.2,-0.15 0.05,-0.46 0.52,-0.9 a 4.17,4.17 0 0 1 2.32,-1 4,4 0 0 1 2.46,0.48 c 0.5,0.27 0.72,0.64 0.63,0.71 z"
         style="fill:#263238"
         id="path130" /><path
         d="m 100.32,185.68 a 1.52,1.52 0 0 1 -1.28,1.7 1.46,1.46 0 0 1 -1.73,-1.18 1.53,1.53 0 0 1 1.28,-1.7 1.45,1.45 0 0 1 1.73,1.18 z"
         style="fill:#263238"
         id="path131" /><path
         d="m 99.54,181.28 c -0.17,0.22 -1.42,-0.5 -3.05,-0.3 -1.63,0.2 -2.73,1.16 -2.93,1 -0.2,-0.16 0,-0.46 0.53,-0.9 a 4.21,4.21 0 0 1 2.31,-1 4.12,4.12 0 0 1 2.46,0.48 c 0.54,0.28 0.76,0.62 0.68,0.72 z"
         style="fill:#263238"
         id="path132" /><path
         d="m 106.89,192.68 a 11.06,11.06 0 0 1 2.6,-0.79 c 0.41,-0.09 0.79,-0.22 0.83,-0.52 a 2.14,2.14 0 0 0 -0.42,-1.2 l -1.61,-3 c -2.25,-4.31 -3.93,-7.88 -3.75,-8 0.18,-0.12 2.13,3.34 4.38,7.65 0.54,1.07 1.07,2.08 1.56,3.06 a 2.44,2.44 0 0 1 0.41,1.61 1.08,1.08 0 0 1 -0.61,0.69 3.14,3.14 0 0 1 -0.7,0.18 11,11 0 0 1 -2.69,0.32 z"
         style="fill:#263238"
         id="path133" /><path
         d="M 110.31,211.86 A 30.24,30.24 0 0 1 94,209.51 c 0,0 4.8,7.67 16.51,5.16 z"
         style="fill:#6f4c47"
         id="path134" /><path
         d="m 107.11,196.59 a 4,4 0 0 0 -3.51,-1.36 2.6,2.6 0 0 0 -2,1.42 2.41,2.41 0 0 0 3.11,3.27 6,6 0 0 0 2.23,-1.77 1.78,1.78 0 0 0 0.44,-0.67 0.82,0.82 0 0 0 -0.16,-0.82"
         style="fill:#6f4c47"
         id="path135" /><path
         d="m 102.22,194.38 c 0.27,0 0.48,1.72 2.15,2.8 1.67,1.08 3.52,0.66 3.57,0.91 0,0.1 -0.38,0.39 -1.18,0.51 a 4.44,4.44 0 0 1 -3,-0.66 3.89,3.89 0 0 1 -1.68,-2.36 c -0.08,-0.74 0.02,-1.2 0.14,-1.2 z"
         style="fill:#263238"
         id="path136" /><path
         d="m 99.46,174.47 c -0.11,0.46 -1.76,0.45 -3.65,0.9 -1.89,0.45 -3.37,1.17 -3.68,0.8 -0.13,-0.18 0.09,-0.63 0.66,-1.13 a 6.26,6.26 0 0 1 2.64,-1.29 6.15,6.15 0 0 1 2.94,0 c 0.74,0.25 1.14,0.5 1.09,0.72 z"
         style="fill:#263238"
         id="path137" /><path
         d="m 114.3,173.52 c -0.24,0.41 -1.41,0.16 -2.76,0.3 -1.35,0.14 -2.47,0.54 -2.78,0.19 -0.14,-0.18 0,-0.57 0.46,-1 a 3.88,3.88 0 0 1 2.17,-0.88 3.79,3.79 0 0 1 2.29,0.49 c 0.53,0.38 0.73,0.71 0.62,0.9 z"
         style="fill:#263238"
         id="path138" /><path
         d="m 93.89,162.93 a 42.29,42.29 0 0 0 -15.69,4 7.67,7.67 0 0 0 -3.72,3 7.58,7.58 0 0 0 -0.52,4.17 c 0.38,4.45 2.57,9.76 4.56,13.74 l 2.33,3.41 c 3,-0.95 5.16,-9.05 4.69,-12.74 a 8.77,8.77 0 0 0 4.53,-8.09 9.72,9.72 0 0 0 3.82,-7.49 z"
         style="fill:#263238"
         id="path139" /><path
         d="m 84.12,189.2 c -0.35,-2.53 -3.51,-2.8 -5.6,-1.33 -1.14,0.81 -1.94,2.3 -1.59,5 0.94,7.17 7.94,4.74 7.93,4.53 -0.01,-0.21 -0.32,-5.24 -0.74,-8.2 z"
         style="fill:#936760"
         id="path140" /><path
         d="m 82.31,195 c 0,0 -0.11,0.1 -0.31,0.23 a 1.27,1.27 0 0 1 -0.93,0.14 3.12,3.12 0 0 1 -1.79,-2.59 4.1,4.1 0 0 1 0.11,-1.83 1.44,1.44 0 0 1 0.81,-1.08 0.65,0.65 0 0 1 0.79,0.24 c 0.12,0.19 0.09,0.34 0.13,0.35 0.04,0.01 0.14,-0.14 0,-0.43 a 0.76,0.76 0 0 0 -0.34,-0.41 0.94,0.94 0 0 0 -0.71,-0.1 1.77,1.77 0 0 0 -1.07,1.26 4.21,4.21 0 0 0 -0.17,2.05 c 0.23,1.44 1.15,2.69 2.23,2.86 a 1.34,1.34 0 0 0 1.11,-0.34 c 0.15,-0.21 0.17,-0.35 0.14,-0.35 z"
         style="fill:#6f4c47"
         id="path141" /><path
         d="m 78.4,196.87 a 3.92,3.92 0 0 1 1.4,-1.11 h -0.11 a 1.57,1.57 0 0 1 0.31,-0.08 1.48,1.48 0 0 1 1.17,0 v 0 a 2.72,2.72 0 0 1 1.61,1.17 3.24,3.24 0 0 1 -0.08,3.37 2.71,2.71 0 0 1 -2.59,1.35 2.74,2.74 0 0 1 -2,-1.79 3.09,3.09 0 0 1 0.29,-2.91 z"
         style="fill:#455a64"
         id="path142" /><path
         d="m 72.92,164.27 c 1.49,-3.38 5,-5.5 8.66,-6.22 a 19.36,19.36 0 0 1 3.22,-0.36 11.93,11.93 0 0 1 -0.46,-4.37 12.65,12.65 0 0 1 7,-10 15.7,15.7 0 0 1 11.86,-0.3 15.27,15.27 0 0 1 8.84,7.31 c 1.81,3.63 1.67,8.55 -0.94,11.55 -3,2.77 -6.52,4 -10.41,4.75 a 14.49,14.49 0 0 1 -10.08,-1.44 c -9,7.43 -11.32,19.72 -12.82,30.84 -3.94,-6.92 -4.79,-15.11 -5.56,-23 -0.23,-2.95 -0.51,-6.03 0.69,-8.76 z"
         style="fill:#6f7082"
         id="path143" /><path
         d="m 83.62,165.09 c -0.11,-0.1 0.39,-0.81 1.12,-1.59 0.73,-0.78 1.39,-1.32 1.5,-1.22 0.11,0.1 -0.4,0.8 -1.12,1.58 -0.72,0.78 -1.4,1.32 -1.5,1.23 z"
         style="fill:#263238"
         id="path144" /><path
         d="m 104.53,161.43 c -0.06,-0.07 0.71,-0.79 1.61,-2.19 a 13.37,13.37 0 0 0 2.09,-6.07 13.51,13.51 0 0 0 -1,-6.34 c -0.66,-1.53 -1.3,-2.37 -1.23,-2.43 0.07,-0.06 0.22,0.17 0.51,0.55 a 10.69,10.69 0 0 1 1.05,1.73 12.45,12.45 0 0 1 -1.06,12.77 11,11 0 0 1 -1.33,1.53 c -0.4,0.32 -0.61,0.47 -0.64,0.45 z"
         style="fill:#263238"
         id="path145" /><path
         d="m 100,155.22 a 7.25,7.25 0 0 1 1.21,-1.38 29.6,29.6 0 0 0 2.83,-3.31 11.67,11.67 0 0 0 1.79,-3.9 c 0.26,-1.07 0.24,-1.77 0.33,-1.78 a 3.73,3.73 0 0 1 0,1.85 10,10 0 0 1 -1.74,4.12 18.42,18.42 0 0 1 -3,3.28 6.08,6.08 0 0 1 -1.42,1.12 z"
         style="fill:#263238"
         id="path146" /><g
         style="opacity:0.3"
         id="g147"><path
           d="m 84.3,154.18 a 13.24,13.24 0 0 0 6.31,11.08 l -0.13,0.21 A 7.27,7.27 0 0 1 84.3,154.18 Z"
           id="path147" /></g><path
         d="m 75.66,170 a 12.31,12.31 0 0 1 2.41,1.18 12.78,12.78 0 0 1 2.38,1.25 5,5 0 0 1 -2.61,-0.78 5.12,5.12 0 0 1 -2.18,-1.65 z"
         style="fill:#ffffff"
         id="path148" /><path
         d="m 71.23,177.39 a 20.93,20.93 0 0 1 3.21,0.3 22.39,22.39 0 0 1 3.23,0.28 6.83,6.83 0 0 1 -3.27,0.24 6.84,6.84 0 0 1 -3.17,-0.82 z"
         style="fill:#ffffff"
         id="path149" /><path
         d="m 80.16,156.31 c 0.15,0 -0.38,2 -0.57,4.42 -0.19,2.42 0,4.44 -0.17,4.46 a 14.1,14.1 0 0 1 0.74,-8.88 z"
         style="fill:#ffffff"
         id="path150" /><path
         d="m 82.83,169 c 0,-0.15 0.92,-0.09 2,-0.12 1.08,-0.03 2,-0.12 2,0 a 4.79,4.79 0 0 1 -4,0.09 z"
         style="fill:#ffffff"
         id="path151" /><path
         d="m 76.08,182.71 a 6.15,6.15 0 0 1 2,2.13 6.27,6.27 0 0 1 1.25,2.64 12.66,12.66 0 0 1 -1.68,-2.34 12.64,12.64 0 0 1 -1.57,-2.43 z"
         style="fill:#ffffff"
         id="path152" /><path
         d="m 94.53,162.31 a 18.65,18.65 0 0 1 1,-2.85 c 0.71,-1.89 1.58,-4.23 2.55,-6.8 0.97,-2.57 1.77,-4.94 2.46,-6.84 a 18,18 0 0 1 1.1,-2.81 15.62,15.62 0 0 1 -0.75,2.92 c -0.54,1.79 -1.35,4.23 -2.33,6.9 -0.98,2.67 -1.94,5.06 -2.69,6.77 a 16.38,16.38 0 0 1 -1.34,2.71 z"
         style="fill:#ffffff"
         id="path153" /><path
         d="m 88.28,148.48 a 7.2,7.2 0 0 1 1.72,-1.24 35.19,35.19 0 0 1 4.62,-2.31 35.73,35.73 0 0 1 4.91,-1.61 7.74,7.74 0 0 1 2.11,-0.35 c 0,0.16 -3.13,0.92 -6.82,2.44 -3.69,1.52 -6.46,3.2 -6.54,3.07 z"
         style="fill:#ffffff"
         id="path154" /><path
         d="m 108.84,152.73 a 9.43,9.43 0 0 1 3,7.68 c -0.16,0 -0.26,-1.87 -1.09,-4 -0.83,-2.13 -2.03,-3.58 -1.91,-3.68 z"
         style="fill:#ffffff"
         id="path155" /><path
         d="m 95.24,166.72 a 15.57,15.57 0 0 0 2.87,-0.77 16,16 0 0 0 2.43,-1.72 4.63,4.63 0 0 1 -5.3,2.49 z"
         style="fill:#ffffff"
         id="path156" /><path
         d="m 85.22,159.28 a 4.34,4.34 0 0 1 0.8,-2.75 c 0.82,-1.39 2,-2.13 2,-2 0,0.13 -0.81,1 -1.57,2.29 -0.76,1.29 -1.08,2.49 -1.23,2.46 z"
         style="fill:#ffffff"
         id="path157" /><path
         d="m 117.17,174.38 c -0.09,-0.12 0.23,-0.49 0.54,-1 0.31,-0.51 0.52,-0.93 0.66,-0.91 0.14,0.02 0.16,0.61 -0.22,1.19 -0.38,0.58 -0.91,0.84 -0.98,0.72 z"
         style="fill:#ffffff"
         id="path158" /><path
         d="m 87.23,163.11 c 0.06,0.06 -1.08,1.33 -2.73,3.52 a 56.42,56.42 0 0 0 -5.5,9.16 55.32,55.32 0 0 0 -3.6,10.07 c -0.67,2.67 -0.92,4.36 -1,4.34 a 6,6 0 0 1 0.09,-1.2 c 0.08,-0.76 0.27,-1.87 0.56,-3.22 a 47.43,47.43 0 0 1 9.2,-19.37 c 0.87,-1.08 1.6,-1.92 2.15,-2.47 a 5,5 0 0 1 0.83,-0.83 z"
         style="fill:#263238"
         id="path159" /><path
         d="m 71.89,175.31 a 12.76,12.76 0 0 1 1.43,-2.67 38.94,38.94 0 0 1 4.47,-5.79 38,38 0 0 1 5.49,-4.85 13,13 0 0 1 2.57,-1.6 26,26 0 0 1 -2.35,1.89 52.58,52.58 0 0 0 -5.33,4.91 51.34,51.34 0 0 0 -4.55,5.63 28.49,28.49 0 0 1 -1.73,2.48 z"
         style="fill:#263238"
         id="path160" /><path
         d="m 90.12,144.39 c 0,0 -0.31,0.5 -0.77,1.43 a 12.14,12.14 0 0 0 -1.14,4.18 12.46,12.46 0 0 0 1.06,6.28 13,13 0 0 0 5.23,5.72 14.68,14.68 0 0 0 7.52,2.06 15.38,15.38 0 0 0 6.28,-1.27 10.22,10.22 0 0 0 3.49,-2.54 c 0.68,-0.78 0.94,-1.31 1,-1.27 0.06,0.04 0,0.14 -0.17,0.38 a 6.85,6.85 0 0 1 -0.66,1 9.87,9.87 0 0 1 -3.49,2.75 15.51,15.51 0 0 1 -6.44,1.41 14.87,14.87 0 0 1 -7.78,-2.09 13.35,13.35 0 0 1 -5.41,-6 12.64,12.64 0 0 1 -1,-6.52 11.55,11.55 0 0 1 1.33,-4.24 9.19,9.19 0 0 1 0.67,-1 c 0.16,-0.18 0.26,-0.29 0.28,-0.28 z"
         style="fill:#263238"
         id="path161" /><path
         d="m 84.74,151.74 c 0.09,0 -0.09,1.08 -0.06,2.8 a 14.1,14.1 0 0 0 1.57,6.46 10.23,10.23 0 0 0 4.75,4.4 17.73,17.73 0 0 0 2.65,0.79 1.81,1.81 0 0 1 -0.76,0 7.27,7.27 0 0 1 -2,-0.47 10,10 0 0 1 -5.08,-4.53 13.24,13.24 0 0 1 -1.48,-6.67 13.75,13.75 0 0 1 0.22,-2.06 2.13,2.13 0 0 1 0.19,-0.72 z"
         style="fill:#263238"
         id="path162" /><g
         style="opacity:0.3;fill:#bf4059;fill-opacity:1"
         id="g163"><path
           d="m 79.5,174.14 a 76.79,76.79 0 0 0 -4.1,11.57 7.08,7.08 0 0 0 -0.38,4 c 0.07,0.25 0.28,0.56 0.54,0.47 0.26,-0.09 0.22,-0.25 0.26,-0.42 A 173.56,173.56 0 0 1 82,170.23 Z"
           id="path163"
           style="fill:#bf4059;fill-opacity:1" /></g><g
         style="opacity:0.3"
         id="g164"><path
           d="m 107.08,145.78 c 2,5.3 1.76,11.11 -2.27,15.51 a 5.39,5.39 0 0 0 3.92,-3.47 12.76,12.76 0 0 0 -1.65,-12.04 z"
           id="path164" /></g><path
         d="m 182.21,314.84 q -27.77,-0.68 -53.57,0.12 l 0.19,-0.12 6,-56.19 -22.7,-38.09 -1.36,-1.28 c -4.73,2.26 -9.12,3.3 -14.29,2.41 l -13.19,-2.25 v 0 c -6,5.22 -16.91,16.4 -16.91,16.79 0,0.39 14.62,71.66 14.62,71.66 l 8.72,8.56 -24.67,17.36 c 0,0 0.5,17.13 12.08,21.8 11.58,4.67 63.06,1.14 69.07,0.39 0,0 22.49,-8.74 25.61,-11.41 3.12,-2.67 11.29,-23.92 10.4,-29.75 z"
         style="fill:#8c96a1;fill-opacity:1"
         id="path165" /><path
         d="m 120.58,322.76 a 3.45,3.45 0 0 1 0.54,0.06 l 1.51,0.23 c 1.32,0.22 3.22,0.57 5.55,1.05 4.68,0.94 11.1,2.43 18.15,4.21 l 18,4.67 5.46,1.43 1.48,0.4 a 3.32,3.32 0 0 1 0.51,0.17 1.92,1.92 0 0 1 -0.53,-0.08 l -1.5,-0.31 c -1.31,-0.29 -3.18,-0.72 -5.5,-1.28 -4.64,-1.12 -11,-2.76 -18.07,-4.54 -7.07,-1.78 -13.44,-3.32 -18.09,-4.34 -2.33,-0.52 -4.22,-0.92 -5.52,-1.19 l -1.5,-0.33 a 2.08,2.08 0 0 1 -0.49,-0.15 z"
         style="fill:#455a64"
         id="path166" /><path
         d="m 115.59,314.53 a 19.92,19.92 0 0 1 4.33,0.07 20.06,20.06 0 0 1 4.29,0.54 19.92,19.92 0 0 1 -4.33,-0.07 20.06,20.06 0 0 1 -4.29,-0.54 z"
         style="fill:#455a64"
         id="path167" /><path
         d="m 115.33,304.29 c 0.12,-0.09 1.55,1.82 3.7,3.8 2.15,1.98 4.14,3.28 4.06,3.4 a 14.71,14.71 0 0 1 -4.38,-3.06 14.87,14.87 0 0 1 -3.38,-4.14 z"
         style="fill:#455a64"
         id="path168" /><path
         d="m 114.09,274.79 c -0.06,-0.07 0.73,-0.79 1.8,-2.13 a 21.08,21.08 0 0 0 4.49,-12.33 c 0.05,-1.71 -0.09,-2.77 0,-2.78 a 2.56,2.56 0 0 1 0.17,0.74 13.7,13.7 0 0 1 0.16,2 19,19 0 0 1 -4.57,12.53 14.28,14.28 0 0 1 -1.44,1.46 2.5,2.5 0 0 1 -0.61,0.51 z"
         style="fill:#455a64"
         id="path169" /><path
         d="m 120.47,221.72 v 0 c 6.42,4 12.76,14.2 14.35,25.07 l 3.56,16.84 c 0,0 2.69,-1.45 4.35,0.6 a 6.57,6.57 0 0 1 1.42,5.08 l 7.39,5.16 -11.81,8.59 -8.08,9.94 c 0,0 6.93,20.36 8.08,22.36 1.15,2 3.43,5.46 3.43,5.46 l -10.58,-2 c 0,0 -7.14,-5.14 -6.86,-13.72 0.28,-8.58 1.13,-41.44 0,-45.73 -1.13,-4.29 -15,-40.06 -15,-40.06 z"
         style="fill:#6f7082"
         id="path170" /><path
         d="m 132.88,292.83 a 2.5,2.5 0 0 1 -0.07,-0.5 c 0,-0.38 -0.07,-0.85 -0.11,-1.43 -0.06,-1.24 -0.09,-3 0,-5.27 0.13,-4.46 0.62,-10.59 0.93,-17.36 a 159.74,159.74 0 0 0 -0.09,-17.35 c -0.17,-2.22 -0.31,-4 -0.47,-5.24 0,-0.58 -0.1,-1.05 -0.14,-1.43 a 2.37,2.37 0 0 1 0,-0.5 1.77,1.77 0 0 1 0.12,0.49 l 0.22,1.42 c 0.22,1.22 0.41,3 0.63,5.23 a 135.22,135.22 0 0 1 0.22,17.4 c -0.31,6.79 -0.85,12.91 -1.06,17.35 -0.11,2.22 -0.13,4 -0.13,5.26 0,0.58 0,1.05 0,1.43 a 1.61,1.61 0 0 1 -0.05,0.5 z"
         style="fill:#263238"
         id="path171" /><path
         d="m 110,284.27 -5,-19.09 -21.74,-45.74 -18.53,8.95 a 8.32,8.32 0 0 0 -1.41,0.68 v 0 a 13.55,13.55 0 0 0 -4.43,4.74 22.22,22.22 0 0 0 -2.72,14.87 l 7.13,45.25 a 117.87,117.87 0 0 0 7,15 l -10.81,32.55 c 0,0 27.57,13.78 36.51,13.74 7.53,0 14.11,-0.08 15.35,-14.76 1.24,-14.68 -1.35,-56.19 -1.35,-56.19 z"
         style="fill:#6f7082"
         id="path172" /><path
         d="m 87,292.83 c -0.06,0 0.27,-0.9 0.7,-2.37 a 23.16,23.16 0 0 1 0.91,-2.55 6.93,6.93 0 0 1 2,-2.73 5.45,5.45 0 0 1 3.11,-1.18 6.09,6.09 0 0 1 2.7,0.5 5,5 0 0 1 1.55,1 c 0.31,0.31 0.44,0.51 0.42,0.53 a 9.18,9.18 0 0 0 -2.09,-1.23 6.23,6.23 0 0 0 -2.55,-0.38 5.29,5.29 0 0 0 -2.9,1.08 7,7 0 0 0 -1.85,2.6 c -0.42,0.89 -0.71,1.75 -1,2.47 a 9.17,9.17 0 0 1 -1,2.26 z"
         style="fill:#263238"
         id="path173" /><path
         d="m 81,275.12 c 0,0 0.21,-0.13 0.64,-0.25 a 6.79,6.79 0 0 1 1.86,-0.21 7.73,7.73 0 0 1 7.68,8.17 6.62,6.62 0 0 1 -0.33,1.85 c -0.14,0.41 -0.26,0.63 -0.29,0.62 A 15.64,15.64 0 0 0 90.85,282.82 7.74,7.74 0 0 0 83.5,275 18.58,18.58 0 0 0 81,275.12 Z"
         style="fill:#263238"
         id="path174" /><path
         d="m 81,239.09 a 7.05,7.05 0 0 1 0.43,1.37 c 0.25,0.89 0.58,2.18 0.95,3.78 0.74,3.21 1.59,7.68 2.22,12.66 0.63,4.98 0.9,9.54 1,12.83 0,1.64 0,3 0,3.89 a 8.59,8.59 0 0 1 -0.08,1.43 8.23,8.23 0 0 1 -0.1,-1.43 c 0,-1 -0.1,-2.31 -0.17,-3.88 -0.16,-3.28 -0.49,-7.81 -1.11,-12.78 -0.62,-4.97 -1.43,-9.43 -2.08,-12.65 -0.32,-1.54 -0.59,-2.83 -0.8,-3.81 A 8.62,8.62 0 0 1 81,239.09 Z"
         style="fill:#263238"
         id="path175" /><path
         d="m 64.85,230 a 6.15,6.15 0 0 1 2.1,-0.23 14.85,14.85 0 0 1 9.41,3.46 6.19,6.19 0 0 1 1.44,1.53 22.31,22.31 0 0 0 -6,-3.63 22.57,22.57 0 0 0 -6.95,-1.13 z"
         style="fill:#263238"
         id="path176" /><path
         d="m 71.11,310.31 a 3,3 0 0 1 0.37,0.46 l 1,1.37 a 15.59,15.59 0 0 0 4.7,3.9 16.38,16.38 0 0 0 8.82,1.62 21.84,21.84 0 0 0 10.31,-3.89 25.33,25.33 0 0 0 2.16,-1.7 l -0.07,0.18 c 0,-7.33 -0.06,-13.85 -0.08,-18.6 0,-2.31 0,-4.19 0,-5.55 0,-0.62 0,-1.11 0,-1.5 a 2.15,2.15 0 0 1 0,-0.52 2.54,2.54 0 0 1 0,0.52 c 0,0.39 0,0.88 0.06,1.5 0,1.36 0.07,3.24 0.12,5.54 0.06,4.76 0.14,11.28 0.23,18.6 v 0.12 l -0.08,0.06 a 25,25 0 0 1 -2.21,1.74 21.91,21.91 0 0 1 -10.44,3.93 16.43,16.43 0 0 1 -9,-1.76 15.18,15.18 0 0 1 -4.69,-4.07 c -0.41,-0.61 -0.7,-1.11 -0.91,-1.44 a 2.85,2.85 0 0 1 -0.29,-0.51 z"
         style="fill:#263238"
         id="path177" /><g
         style="opacity:0.3"
         id="g178"><path
           d="m 111.23,309.06 c -3.27,1.37 -7.39,2.66 -8.07,6.14 a 25.11,25.11 0 0 1 -0.47,3.48 c -0.92,2.65 -4.26,3.41 -7.06,3.67 -4.72,0.43 -9.6,0.62 -14.11,-0.86 -4.51,-1.48 -8.63,-4.93 -9.71,-9.55 4.11,2.54 6,5.44 10.81,6.23 2.67,0.45 7.66,-1.29 10.23,-2.14 2.57,-0.85 5.75,-4.32 5.75,-4.32 0.23,-0.89 0,-3.85 -0.21,-2.95 -0.07,0.3 4.36,-2.53 6.57,-3.36 2.63,-1 6.27,-2.74 6.27,-2.74"
           id="path178" /></g><g
         style="opacity:0.3"
         id="g179"><path
           d="m 89.72,286.18 c -0.71,3.22 -2.76,8.27 -3.83,11.39 a 5,5 0 0 1 -0.76,1.55 1.75,1.75 0 0 1 -1.52,0.69 1.77,1.77 0 0 1 -1.28,-2 5,5 0 0 1 1.06,-2.32 l 6.33,-9.35"
           id="path179" /></g><path
         d="m 72.73,326.14 a 9.06,9.06 0 0 1 0.85,-1.56 c 0.58,-1 1.43,-2.37 2.46,-4 l 0.08,-0.13 h 0.16 c 2.1,0.77 4.64,1.64 7.4,2.49 3.77,1.17 7.24,2.05 9.76,2.66 l 3,0.71 a 4.81,4.81 0 0 1 1.09,0.31 5.65,5.65 0 0 1 -1.12,-0.13 c -0.72,-0.11 -1.76,-0.3 -3,-0.56 -2.54,-0.53 -6,-1.37 -9.82,-2.54 -2.77,-0.85 -5.31,-1.76 -7.4,-2.57 l 0.23,-0.08 c -1.06,1.65 -2,3 -2.59,3.95 a 10.37,10.37 0 0 1 -1.1,1.45 z"
         style="fill:#263238"
         id="path180" /><path
         d="m 95.64,334.69 a 32.41,32.41 0 0 1 1.41,-3.77 32.82,32.82 0 0 1 1.41,-3.78 17.51,17.51 0 0 1 -2.82,7.55 z"
         style="fill:#263238"
         id="path181" /><path
         d="m 72.77,326.79 c 0,-0.07 1.2,0.63 3.14,1.61 a 52,52 0 0 0 7.84,3.2 56.88,56.88 0 0 0 8.25,1.95 c 2.15,0.34 3.49,0.46 3.49,0.54 a 3.5,3.5 0 0 1 -0.95,0 c -0.61,0 -1.5,-0.09 -2.58,-0.22 a 46.83,46.83 0 0 1 -8.35,-1.82 44,44 0 0 1 -7.86,-3.36 c -1,-0.53 -1.71,-1 -2.22,-1.34 a 3.66,3.66 0 0 1 -0.76,-0.56 z"
         style="fill:#263238"
         id="path182" /><g
         style="opacity:0.3"
         id="g183"><path
           d="m 93.94,334 a 1.22,1.22 0 0 1 -0.57,1.56 3.35,3.35 0 0 1 -1.8,0.29 32.07,32.07 0 0 1 -18.46,-6.74 c -0.54,-0.41 -1.09,-1.18 -0.63,-1.68 0.46,-0.5 1.07,-0.14 1.57,0.14 a 51.15,51.15 0 0 0 20.48,6.71"
           id="path183" /></g><path
         d="m 98.6,286.83 41.17,-8.9 8.6,-2.14 6.79,4.1 a 3.7,3.7 0 0 1 1.77,2.69 l 0.59,4.4 -0.83,0.72 1.08,2 a 2.51,2.51 0 0 1 -0.25,2.75 v 0 l -6.94,-5.21 4.53,6.36 a 3.94,3.94 0 0 1 -3,0.71 c -2.15,-0.14 -7.52,-7.51 -7.52,-7.51 l -3.52,-0.55 7.41,8 c 0,0 0.33,0.67 -1.25,1.24 -1.58,0.57 -9.79,-5.76 -9.79,-5.76 l -38.65,18.83"
         style="fill:#936760"
         id="path184" /><path
         d="m 98.79,308.56 a 0.65,0.65 0 0 1 0.17,-0.1 l 0.52,-0.27 2,-1 7.82,-3.88 28,-13.77 a 0.18,0.18 0 0 1 0.21,0 c 1.67,1.26 3.44,2.54 5.32,3.74 a 24.16,24.16 0 0 0 2.94,1.66 c 0.5,0.19 1.07,0.47 1.49,0.26 a 2.76,2.76 0 0 0 0.7,-0.39 c 0.21,-0.15 0.31,-0.4 0.27,-0.49 v 0.05 l -7.41,-8 a 0.24,0.24 0 0 1 0,-0.33 0.23,0.23 0 0 1 0.19,-0.06 l 3.52,0.55 a 0.26,0.26 0 0 1 0.15,0.09 54.9,54.9 0 0 0 4.37,5.24 9.79,9.79 0 0 0 2.66,2.1 4.11,4.11 0 0 0 3.16,-0.57 v 0.3 l -1.34,-1.88 -3.19,-4.48 a 0.23,0.23 0 0 1 0.06,-0.33 0.23,0.23 0 0 1 0.27,0 l 5.62,4.22 0.69,0.52 0.34,0.26 0.18,0.13 0.08,0.06 v 0 0 h -0.32 v 0 0 a 2.29,2.29 0 0 0 0.45,-1.45 3.11,3.11 0 0 0 -0.54,-1.49 l -0.8,-1.48 a 0.23,0.23 0 0 1 0,-0.29 l 0.83,-0.71 -0.08,0.2 c -0.18,-1.36 -0.36,-2.7 -0.54,-4 a 3.62,3.62 0 0 0 -1.94,-3 l -6.55,-4 h 0.16 l -5.25,1.36 c -1.75,0.43 -3.47,0.87 -5.16,1.21 l -9.62,2.06 -15.72,3.4 -10.24,2.15 -2.72,0.55 -0.7,0.14 H 98.6 l 0.23,-0.07 0.7,-0.16 2.7,-0.62 10.22,-2.28 15.73,-3.45 9.61,-2.1 c 1.69,-0.35 3.4,-0.79 5.16,-1.23 l 5.37,-1.33 a 0.18,0.18 0 0 1 0.16,0 l 6.57,3.95 a 4.1,4.1 0 0 1 1.51,1.39 4.29,4.29 0 0 1 0.64,2 c 0.18,1.33 0.36,2.67 0.55,4 a 0.23,0.23 0 0 1 -0.08,0.2 l -0.83,0.72 v -0.28 l 0.81,1.48 a 3.72,3.72 0 0 1 0.6,1.69 2.76,2.76 0 0 1 -0.55,1.75 v 0.05 0 h -0.33 v 0 l -0.09,-0.07 -0.17,-0.13 -0.34,-0.26 -0.69,-0.52 -5.62,-4.22 0.34,-0.32 3.19,4.48 c 0.46,0.64 0.91,1.29 1.34,1.88 v 0 a 0.22,0.22 0 0 1 0,0.28 3.66,3.66 0 0 1 -1.77,0.74 7,7 0 0 1 -0.92,0.07 h -0.46 a 4.31,4.31 0 0 1 -0.49,-0.11 9.68,9.68 0 0 1 -2.85,-2.21 53.86,53.86 0 0 1 -4.4,-5.29 l 0.15,0.09 -3.52,-0.55 0.21,-0.39 c 2.55,2.76 5,5.44 7.4,8 v 0 a 0.91,0.91 0 0 1 -0.38,1 2.87,2.87 0 0 1 -0.82,0.45 1.09,1.09 0 0 1 -0.5,0.11 1.79,1.79 0 0 1 -0.48,-0.07 4.78,4.78 0 0 1 -0.85,-0.31 22.86,22.86 0 0 1 -3,-1.69 c -1.89,-1.22 -3.66,-2.5 -5.34,-3.78 h 0.22 l -28.06,13.62 -7.87,3.78 -2.08,1 -0.54,0.25 z"
         style="fill:#6f4c47"
         id="path185" /><path
         d="m 155.11,293.58 a 16.14,16.14 0 0 1 -1.67,-2.1 c -1,-1.33 -2.31,-3.18 -3.75,-5.25 a 4.51,4.51 0 0 0 -2.49,-2.18 c -1,-0.28 -2,-0.45 -2.8,-0.65 a 13.29,13.29 0 0 1 -2.58,-0.69 15.8,15.8 0 0 1 2.65,0.36 c 0.82,0.16 1.77,0.28 2.86,0.57 a 4.82,4.82 0 0 1 2.76,2.35 c 1.44,2.05 2.72,3.93 3.63,5.31 a 13.82,13.82 0 0 1 1.39,2.28 z"
         style="fill:#6f4c47"
         id="path186" /><path
         d="m 156.5,287.81 a 16.9,16.9 0 0 1 -1.6,-1.8 49.89,49.89 0 0 0 -4,-4.17 l -1.22,-1.11 -0.58,-0.52 -0.29,-0.26 c 0,0 -0.1,-0.1 -0.13,-0.1 h -0.08 c -0.92,-0.11 -1.84,-0.09 -2.57,-0.12 a 13.17,13.17 0 0 1 -2.41,-0.11 11.4,11.4 0 0 1 2.41,-0.22 19.61,19.61 0 0 1 2.64,0 h 0.11 l 0.16,0.07 a 0.84,0.84 0 0 1 0.17,0.13 l 0.29,0.25 0.59,0.51 1.23,1.11 a 35.36,35.36 0 0 1 3.94,4.31 9.27,9.27 0 0 1 1.34,2.03 z"
         style="fill:#6f4c47"
         id="path187" /><path
         d="m 214.63,302.87 14.42,-39.82 a 5.2,5.2 0 0 0 -4.81,-7.18 h -42.61 a 5.2,5.2 0 0 0 -4.93,3.53 l -13.63,40.16 -23.71,0.08 c -1.29,0 -2.41,1.73 -2.41,3 h 7.8 17.59 z"
         style="fill:#e0e0e0"
         id="path188" /><path
         d="M 214.63,302.87 H 214.27 193 l -24.6,-0.05 c -9.45,-0.05 -20,0.06 -31.43,0 h -0.24 v -0.24 a 3.78,3.78 0 0 1 0.47,-1.68 3.45,3.45 0 0 1 1.2,-1.29 2,2 0 0 1 0.9,-0.29 h 2.53 6.89 l 14.37,-0.05 -0.24,0.17 6.17,-18.2 c 1.39,-4.08 2.75,-8.12 4.1,-12.09 q 1,-3 2,-5.92 l 1,-2.92 c 0.18,-0.49 0.31,-1 0.52,-1.46 a 6,6 0 0 1 0.85,-1.36 5.54,5.54 0 0 1 4.2,-1.91 h 18.89 21.2 2.47 a 5.34,5.34 0 0 1 2.43,0.58 5.44,5.44 0 0 1 2.87,3.76 5.22,5.22 0 0 1 -0.05,2.36 c -0.22,0.75 -0.5,1.44 -0.75,2.14 -0.51,1.39 -1,2.75 -1.49,4.08 L 218,293.73 c -1.09,2.94 -1.93,5.23 -2.52,6.8 -0.28,0.76 -0.5,1.35 -0.66,1.76 -0.16,0.41 -0.23,0.58 -0.23,0.58 0,0 0.06,-0.22 0.2,-0.62 l 0.63,-1.8 c 0.56,-1.59 1.39,-3.9 2.44,-6.87 2.13,-6 5.21,-14.55 9,-25.16 0.48,-1.32 1,-2.68 1.46,-4.07 0.25,-0.69 0.53,-1.4 0.73,-2.09 a 5,5 0 0 0 0,-2.18 5.09,5.09 0 0 0 -2.67,-3.47 c -1.37,-0.75 -3.05,-0.47 -4.71,-0.52 h -21.2 -17.3 a 11.19,11.19 0 0 0 -2.92,0.2 5,5 0 0 0 -2.39,1.55 4.84,4.84 0 0 0 -0.77,1.22 c -0.18,0.44 -0.33,1 -0.5,1.43 l -1,2.92 q -1,2.94 -2,5.92 -2,6 -4.1,12.08 c -2.11,6.24 -4.19,12.36 -6.18,18.21 l -0.05,0.17 h -0.19 -14.36 -6.89 -2.52 a 1.4,1.4 0 0 0 -0.67,0.22 3.26,3.26 0 0 0 -1.44,2.55 l -0.24,-0.24 c 11.42,0 22,-0.05 31.4,0 l 24.52,0.17 16,0.15 4.26,0.05 h 1.11 z"
         style="fill:#263238"
         id="path189" /><path
         d="m 182,256 a 1.61,1.61 0 0 1 -0.11,0.48 l -0.44,1.37 c -0.43,1.25 -1,2.94 -1.7,5 -1.46,4.21 -3.51,10 -5.8,16.39 -2.29,6.39 -4.39,12.16 -5.94,16.34 l -1.86,4.93 -0.52,1.33 a 2.69,2.69 0 0 1 -0.22,0.45 1.47,1.47 0 0 1 0.12,-0.49 l 0.43,-1.36 c 0.43,-1.26 1,-2.94 1.7,-5 1.46,-4.2 3.51,-10 5.8,-16.39 2.29,-6.39 4.39,-12.16 5.94,-16.33 l 1.86,-4.93 c 0.21,-0.53 0.38,-1 0.53,-1.33 A 2,2 0 0 1 182,256 Z"
         style="fill:#263238"
         id="path190" /><path
         d="m 128.08,309.92 h 134.24 a 3.63,3.63 0 0 0 3.63,-3.63 v 0 a 3.64,3.64 0 0 0 -3.63,-3.63 H 128.08 a 3.63,3.63 0 0 0 -3.63,3.63 v 0 a 3.62,3.62 0 0 0 3.63,3.63 z"
         style="fill:#455a64"
         id="path191" /><rect
         x="190.53999"
         y="308.56"
         width="11.71"
         height="150.03"
         transform="rotate(180,196.39,383.575)"
         style="fill:#8c96a1;fill-opacity:1"
         id="rect191" /><path
         d="m 235.9,458.59 h -79.66 c 0.52,0 34.3,-8.95 34.3,-8.95 h 11.71 z"
         style="fill:#8c96a1;fill-opacity:1"
         id="path192" /><path
         d="m 127.73,309.61 c 0,-0.13 30.35,-0.23 67.79,-0.23 37.44,0 67.8,0.1 67.8,0.23 0,0.13 -30.35,0.24 -67.8,0.24 -37.45,0 -67.79,-0.11 -67.79,-0.24 z"
         style="fill:#263238"
         id="path193" /></g></g><g
     style="fill:#8c96a1;fill-opacity:1"
     id="g194"
     transform="matrix(2.9166605,0,0,2.9166605,160.34596,166.72004)"><path
       d="m 4.459,4.208 c 0.746,0.606 1.026,0.56 2.428,0.466 L 20.102,3.881 c 0.28,0 0.047,-0.28 -0.046,-0.326 L 17.86,1.968 C 17.44,1.642 16.879,1.268 15.805,1.361 L 3.01,2.295 C 2.544,2.341 2.45,2.575 2.636,2.761 Z m 0.793,3.08 v 13.904 c 0,0.747 0.373,1.027 1.214,0.98 l 14.523,-0.84 c 0.841,-0.046 0.935,-0.56 0.935,-1.167 V 6.354 c 0,-0.606 -0.233,-0.933 -0.748,-0.887 L 5.999,6.354 C 5.439,6.401 5.252,6.681 5.252,7.287 Z m 14.337,0.745 c 0.093,0.42 0,0.84 -0.42,0.888 l -0.7,0.14 v 10.264 c -0.608,0.327 -1.168,0.514 -1.635,0.514 -0.748,0 -0.935,-0.234 -1.495,-0.933 L 10.762,11.72 v 6.952 L 12.21,19 c 0,0 0,0.84 -1.168,0.84 L 7.82,20.026 c -0.093,-0.186 0,-0.653 0.327,-0.746 l 0.84,-0.233 V 9.854 L 7.822,9.76 C 7.728,9.34 7.962,8.734 8.615,8.687 l 3.456,-0.233 4.764,7.279 V 9.293 L 15.62,9.154 C 15.527,8.64 15.9,8.267 16.367,8.221 Z M 1.936,1.035 15.246,0.055 c 1.634,-0.14 2.055,-0.047 3.082,0.7 l 4.249,2.986 c 0.7,0.513 0.934,0.653 0.934,1.213 v 16.378 c 0,1.026 -0.373,1.634 -1.68,1.726 L 6.373,23.992 C 5.393,24.039 4.925,23.899 4.411,23.245 L 1.282,19.185 C 0.722,18.438 0.489,17.879 0.489,17.225 V 2.667 c 0,-0.839 0.374,-1.54 1.447,-1.632 z"
       id="path1"
       style="fill:#8c96a1;fill-opacity:1" /></g><g
     mask="url(#:r8:mask0_408_134)"
     id="g2"
     transform="matrix(0.38888889,0,0,0.38888889,246.82351,188.42188)"><circle
       cx="90"
       cy="90"
       data-circle="true"
       fill="#000000"
       r="90"
       id="circle2"
       style="fill:#8c96a1;fill-opacity:1" /><path
       d="M 149.508,157.52 69.142,54 H 54 v 71.97 H 66.1136 V 69.3836 l 73.8854,95.4614 c 3.334,-2.231 6.51,-4.68 9.509,-7.325 z"
       fill="url(#:r8:paint0_linear_408_134)"
       id="path2"
       style="fill:url(#:r8:paint0_linear_408_134)" /><rect
       fill="url(#:r8:paint1_linear_408_134)"
       height="72"
       width="12"
       x="115"
       y="54"
       id="rect2"
       style="fill:url(#:r8:paint1_linear_408_134)" /></g></svg>
