<?xml version="1.0" encoding="UTF-8" standalone="no"?>
<svg
   enable-background="new 0 0 500 500"
   version="1.1"
   viewBox="0 0 500 500"
   xml:space="preserve"
   id="svg85"
   sodipodi:docname="3.svg"
   inkscape:version="1.3 (1:1.3+202307231459+0e150ed6c4)"
   xmlns:inkscape="http://www.inkscape.org/namespaces/inkscape"
   xmlns:sodipodi="http://sodipodi.sourceforge.net/DTD/sodipodi-0.dtd"
   xmlns="http://www.w3.org/2000/svg"
   xmlns:svg="http://www.w3.org/2000/svg"><defs
   id="defs85" /><sodipodi:namedview
   id="namedview85"
   pagecolor="#ffffff"
   bordercolor="#000000"
   borderopacity="0.25"
   inkscape:showpageshadow="2"
   inkscape:pageopacity="0.0"
   inkscape:pagecheckerboard="0"
   inkscape:deskcolor="#d1d1d1"
   inkscape:zoom="0.472"
   inkscape:cx="209.74576"
   inkscape:cy="247.88136"
   inkscape:window-width="1280"
   inkscape:window-height="656"
   inkscape:window-x="0"
   inkscape:window-y="27"
   inkscape:window-maximized="1"
   inkscape:current-layer="svg85" />&#10;&#10;&#10;<rect
   style="font-variation-settings:'wdth' 75, 'wght' 324;display:none;fill:#ffffff;stroke:#6f7082;stroke-width:1.1;stroke-linecap:round;stroke-linejoin:round;stroke-miterlimit:50"
   id="rect87"
   width="813.31653"
   height="705.37531"
   x="-220.58244"
   y="-80.61364" /><g
   id="g1"
   transform="matrix(0.8211114,0,0,0.8211114,39.687254,38.118698)"><g
     id="freepik--Window--inject-184"><path
       d="m 384.08,265.21 c 0.14,0 0.26,5 0.26,11.26 0,6.26 -0.12,11.26 -0.26,11.26 -0.14,0 -0.26,-5 -0.26,-11.26 0,-6.26 0.11,-11.26 0.26,-11.26 z"
       style="fill:#263238"
       id="path1" /><rect
       x="355.23999"
       y="312.01999"
       width="25.360001"
       height="25.360001"
       style="fill:#e0e0e0"
       id="rect1" /><rect
       x="386.98999"
       y="313.56"
       width="26.120001"
       height="2.1700001"
       style="fill:#e0e0e0"
       id="rect2" /><rect
       x="386.98999"
       y="318.57001"
       width="26.120001"
       height="2.1700001"
       style="fill:#e0e0e0"
       id="rect3" /><rect
       x="386.98999"
       y="323.59"
       width="26.120001"
       height="2.1700001"
       style="fill:#e0e0e0"
       id="rect4" /><rect
       x="386.98999"
       y="328.60999"
       width="26.120001"
       height="2.1700001"
       style="fill:#e0e0e0"
       id="rect5" /><rect
       x="386.98999"
       y="333.62"
       width="26.120001"
       height="2.1700001"
       style="fill:#e0e0e0"
       id="rect6" /><path
       d="m 355.52,288.18 h 55.26 a 7.05,7.05 0 0 1 7.05,7.05 v 9.91 h -69.26 v -10 a 7,7 0 0 1 6.95,-6.96 z"
       style="fill:#e0e0e0"
       id="path6" /><path
       d="m 411.37,349.13 a 7.56,7.56 0 0 0 2.45,-0.54 6.49,6.49 0 0 0 2.42,-1.8 6.32,6.32 0 0 0 1.47,-3.78 c 0,-6.32 0,-15.44 -0.06,-26.7 0,-5.64 0,-11.81 0,-18.44 0,-0.83 0,-1.67 0,-2.51 a 7.51,7.51 0 0 0 -0.27,-2.46 6.31,6.31 0 0 0 -5.6,-4.46 c -0.86,-0.05 -1.79,0 -2.69,0 h -5.52 -48.5 a 6.36,6.36 0 0 0 -3,0.73 6.21,6.21 0 0 0 -2.23,2.06 6,6 0 0 0 -1,2.85 c -0.05,1 0,2.1 0,3.13 v 12.38 c 0,8.11 0,15.94 0,23.4 v 8.22 a 13.24,13.24 0 0 0 0.12,2.62 6.41,6.41 0 0 0 2.77,4.05 6.3,6.3 0 0 0 2.27,0.91 12.49,12.49 0 0 0 2.46,0.12 h 18.44 l 26.71,0.09 7.26,0.05 h 1.89 0.64 c 0,0 -0.22,0 -0.64,0 h -1.89 l -7.26,0.05 -26.71,0.08 h -18.44 a 13.65,13.65 0 0 1 -2.54,-0.11 6.87,6.87 0 0 1 -5.41,-5.31 13.81,13.81 0 0 1 -0.14,-2.71 v -2.7 c 0,-1.82 0,-3.66 0,-5.52 0,-7.46 0,-15.29 0,-23.4 v -12.22 c 0,-1 0,-2.08 0,-3.17 a 6.63,6.63 0 0 1 1.05,-3.1 6.82,6.82 0 0 1 2.42,-2.23 6.91,6.91 0 0 1 3.22,-0.79 h 48.5 5.52 c 0.92,0 1.79,0 2.72,0 a 6.53,6.53 0 0 1 2.64,0.75 6.74,6.74 0 0 1 3.35,4 7.94,7.94 0 0 1 0.29,2.59 v 2.51 c 0,6.63 0,12.8 0,18.44 0,11.28 0,20.4 -0.1,26.71 a 6.54,6.54 0 0 1 -1.56,3.87 6.62,6.62 0 0 1 -2.5,1.8 6.44,6.44 0 0 1 -1.84,0.43 z"
       style="fill:#263238"
       id="path7" /><path
       d="m 387,288.18 a 2.92,2.92 0 1 1 -2.91,-2.91 2.91,2.91 0 0 1 2.91,2.91 z"
       style="fill:#263238"
       id="path8" /></g><g
     id="freepik--Chart--inject-184"><path
       d="m 270.36,189.55 a 5.4,5.4 0 0 1 -0.69,0 l -2,0.05 -7.3,0.08 -24.09,0.08 h -3.48 a 12.82,12.82 0 0 1 -1.74,-0.06 6,6 0 0 1 -1.67,-0.49 7.81,7.81 0 0 1 -4.14,-4.89 10.14,10.14 0 0 1 -0.43,-3 c 0,-1 0,-1.9 0,-2.81 0,-1.8 0,-3.49 0.07,-5 0,-3 0.1,-5.51 0.13,-7.3 q 0,-1.23 0.06,-2 a 3,3 0 0 1 0.06,-0.69 3.62,3.62 0 0 1 0,0.69 q 0,0.75 0,2 c 0,1.79 0,4.27 0,7.3 0,1.55 0,3.24 0,5.05 0,1.81 -0.21,3.78 0.43,5.67 a 7.4,7.4 0 0 0 3.88,4.57 5.9,5.9 0 0 0 1.54,0.44 13,13 0 0 0 1.67,0.06 h 3.48 l 24.09,0.07 7.3,0.08 2,0.05 a 3.15,3.15 0 0 1 0.83,0.05 z"
       style="fill:#263238"
       id="path9" /><rect
       x="183.97"
       y="97.790001"
       width="60.950001"
       height="60.950001"
       rx="10.38"
       style="fill:#ffffff"
       id="rect9" /><path
       d="m 234.53,158.73 a 19.46,19.46 0 0 0 2.26,-0.31 10.36,10.36 0 0 0 5.49,-3.33 10,10 0 0 0 2.16,-4.13 21.88,21.88 0 0 0 0.32,-5.6 c 0,-4.06 0,-8.69 0,-13.79 0,-5.1 0,-10.71 0,-16.72 v -4.59 a 18,18 0 0 0 -0.34,-4.64 10.15,10.15 0 0 0 -6.2,-6.91 9.36,9.36 0 0 0 -2.41,-0.6 23.72,23.72 0 0 0 -2.55,-0.08 h -38.91 a 10.14,10.14 0 0 0 -5.35,1.57 9.48,9.48 0 0 0 -2.14,1.8 9.37,9.37 0 0 0 -1.56,2.29 10.11,10.11 0 0 0 -0.88,2.62 14.73,14.73 0 0 0 -0.18,2.75 v 5.57 c 0,7.35 0,14.45 0,21.21 0,3.38 0,6.67 0,9.87 a 26.65,26.65 0 0 0 0.2,4.68 10.36,10.36 0 0 0 1.83,4.05 10.11,10.11 0 0 0 7.22,4 c 2.75,0.1 5.45,0 8,0.07 l 24.21,0.08 6.58,0.05 h 1.71 0.59 -0.59 -1.71 l -6.58,0.05 -24.21,0.09 c -2.56,0 -5.22,0.05 -8,0 a 10.48,10.48 0 0 1 -7.52,-4.18 10.6,10.6 0 0 1 -1.92,-4.23 25.23,25.23 0 0 1 -0.22,-4.76 q 0,-4.8 0,-9.87 c 0,-6.76 0,-13.86 0,-21.21 v -5.57 a 14.51,14.51 0 0 1 0.18,-2.85 10.86,10.86 0 0 1 0.92,-2.75 10.37,10.37 0 0 1 1.64,-2.41 10.18,10.18 0 0 1 2.25,-1.89 10.71,10.71 0 0 1 5.65,-1.63 h 38.84 a 22.92,22.92 0 0 1 2.61,0.09 10.34,10.34 0 0 1 2.52,0.63 10.59,10.59 0 0 1 6.47,7.25 17.88,17.88 0 0 1 0.34,4.75 v 4.59 c 0,6 0,11.6 0,16.72 0,5.12 0,9.73 0,13.79 a 22.45,22.45 0 0 1 -0.38,5.66 10.07,10.07 0 0 1 -2.25,4.2 10.26,10.26 0 0 1 -5.62,3.3 9,9 0 0 1 -1.7,0.21 c -0.58,0.12 -0.77,0.11 -0.77,0.11 z"
       style="fill:#263238"
       id="path10" /><rect
       x="193.67999"
       y="140.39999"
       width="7.6900001"
       height="5.8899999"
       style="fill:#8697c4"
       id="rect10" /><rect
       x="203.41"
       y="126.82"
       width="7.6900001"
       height="19.469999"
       style="fill:#8697c4"
       id="rect11" /><rect
       x="214.11"
       y="135.2"
       width="7.6900001"
       height="11.08"
       style="fill:#8697c4"
       id="rect12" /><rect
       x="224.32001"
       y="121.17"
       width="7.6900001"
       height="25.110001"
       style="fill:#8697c4"
       id="rect13" /><path
       d="m 197,134.33 a 3.83,3.83 0 1 1 3.83,-3.83 3.83,3.83 0 0 1 -3.83,3.83 z m 0,-6.65 a 2.83,2.83 0 1 0 2.83,2.82 2.83,2.83 0 0 0 -2.83,-2.82 z"
       style="fill:#8697c4"
       id="path13" /><path
       d="m 208,119.77 a 3.83,3.83 0 1 1 3.83,-3.83 3.84,3.84 0 0 1 -3.83,3.83 z m 0,-6.66 a 2.83,2.83 0 1 0 2.83,2.83 2.83,2.83 0 0 0 -2.83,-2.83 z"
       style="fill:#8697c4"
       id="path14" /><path
       d="m 218,129 a 3.83,3.83 0 1 1 3.83,-3.83 A 3.84,3.84 0 0 1 218,129 Z m 0,-6.65 a 2.83,2.83 0 1 0 2.83,2.82 2.83,2.83 0 0 0 -2.83,-2.83 z"
       style="fill:#8697c4"
       id="path15" /><path
       d="m 228.59,115.62 a 3.83,3.83 0 1 1 3.83,-3.83 3.84,3.84 0 0 1 -3.83,3.83 z m 0,-6.66 a 2.83,2.83 0 1 0 2.83,2.83 2.83,2.83 0 0 0 -2.83,-2.79 z"
       style="fill:#8697c4"
       id="path16" /><rect
       x="217.87"
       y="118.12"
       width="10.74"
       height="1"
       transform="rotate(-54.9,223.23517,118.61371)"
       style="fill:#8697c4"
       id="rect16" /><rect
       x="212.42"
       y="117.67"
       width="1"
       height="6.8000002"
       transform="rotate(-43.72,212.93672,121.07889)"
       style="fill:#8697c4"
       id="rect17" /><rect
       x="196.66"
       y="122.77"
       width="11.3"
       height="1"
       transform="rotate(-52.18,202.30348,123.26801)"
       style="fill:#8697c4"
       id="rect18" /><path
       d="m 229.24,159.45 a 2.92,2.92 0 1 1 -2.91,-2.91 2.91,2.91 0 0 1 2.91,2.91 z"
       style="fill:#263238"
       id="path18" /></g><g
     id="freepik--Search--inject-184"><path
       d="m 299.36,145.07 c -0.14,0 -0.26,-8.4 -0.26,-18.76 0,-10.36 0.12,-18.76 0.26,-18.76 0.14,0 0.26,8.4 0.26,18.76 0,10.36 -0.12,18.76 -0.26,18.76 z"
       style="fill:#263238"
       id="path19" /><rect
       x="267.16"
       y="46.400002"
       width="60.950001"
       height="60.950001"
       rx="10.38"
       style="fill:#ffffff"
       id="rect19" /><path
       d="M 317.72,107.34 A 19.46,19.46 0 0 0 320,107 a 10.36,10.36 0 0 0 5.49,-3.33 10,10 0 0 0 2.16,-4.13 A 21.88,21.88 0 0 0 328,94 c 0,-4.06 0,-8.69 0,-13.79 0,-5.1 0,-10.71 0,-16.72 v -4.62 a 18,18 0 0 0 -0.34,-4.64 10.18,10.18 0 0 0 -6.2,-6.92 9.77,9.77 0 0 0 -2.41,-0.59 21.39,21.39 0 0 0 -2.55,-0.08 h -38.96 a 10.14,10.14 0 0 0 -5.37,1.55 9.48,9.48 0 0 0 -2.17,1.81 9.37,9.37 0 0 0 -1.56,2.29 10.11,10.11 0 0 0 -0.88,2.62 14.73,14.73 0 0 0 -0.18,2.75 v 5.57 c 0,7.35 0,14.45 0,21.21 0,3.37 0,6.67 0,9.87 a 26.54,26.54 0 0 0 0.2,4.67 10.34,10.34 0 0 0 1.83,4.06 10.15,10.15 0 0 0 7.22,4 c 2.75,0.1 5.45,0 8,0.07 l 24.21,0.08 6.58,0.05 h 1.71 0.59 -0.59 -1.71 -6.58 l -24.21,0.08 c -2.56,0 -5.22,0.06 -8,0 a 10.62,10.62 0 0 1 -9.44,-8.41 25.23,25.23 0 0 1 -0.22,-4.76 c 0,-3.2 0,-6.5 0,-9.87 0,-6.76 0,-13.86 0,-21.21 v -5.4 a 14.51,14.51 0 0 1 0.18,-2.85 10.86,10.86 0 0 1 0.92,-2.75 10.37,10.37 0 0 1 1.64,-2.41 10.18,10.18 0 0 1 2.25,-1.89 10.71,10.71 0 0 1 5.65,-1.63 h 38.84 a 22.92,22.92 0 0 1 2.61,0.09 10.34,10.34 0 0 1 2.52,0.63 10.59,10.59 0 0 1 6.42,7.26 17.88,17.88 0 0 1 0.34,4.75 v 4.59 c 0,6 0,11.6 0,16.72 0,5.12 0,9.73 0,13.79 a 22.45,22.45 0 0 1 -0.38,5.66 10.07,10.07 0 0 1 -2.25,4.2 10.26,10.26 0 0 1 -5.62,3.3 9,9 0 0 1 -1.7,0.21 z"
       style="fill:#263238"
       id="path20" /><path
       d="m 302.22,107.34 a 2.91,2.91 0 1 1 -2.91,-2.91 2.91,2.91 0 0 1 2.91,2.91 z"
       style="fill:#263238"
       id="path21" /><path
       d="m 295.33,84.65 a 11.11,11.11 0 1 1 3.42,-21.65 11.1,11.1 0 0 1 7.16,14 v 0 a 11.13,11.13 0 0 1 -10.58,7.65 z m 0,-20.23 A 9.11,9.11 0 1 0 304,76.33 v 0 a 9.12,9.12 0 0 0 -5.88,-11.47 9,9 0 0 0 -2.78,-0.44 z"
       style="fill:#263238"
       id="path22" /><path
       d="m 310,91.32 a 1,1 0 0 1 -0.73,-0.33 L 301,82 a 1,1 0 0 1 1.47,-1.35 l 8.26,9 a 1,1 0 0 1 -0.06,1.41 1,1 0 0 1 -0.67,0.26 z"
       style="fill:#263238"
       id="path23" /></g><g
     id="freepik--Cloud--inject-184"><rect
       x="342.39999"
       y="67.309998"
       width="60.950001"
       height="60.950001"
       rx="10.38"
       style="fill:#ffffff"
       id="rect23" /><path
       d="m 393,128.26 a 19.43,19.43 0 0 0 2.27,-0.31 10.36,10.36 0 0 0 5.49,-3.33 10.08,10.08 0 0 0 2.16,-4.14 22.26,22.26 0 0 0 0.32,-5.59 c 0,-4.07 0,-8.69 0,-13.8 0,-5.11 0,-10.71 0,-16.71 v -4.59 a 17.57,17.57 0 0 0 -0.35,-4.64 10.12,10.12 0 0 0 -6.19,-6.92 10,10 0 0 0 -2.41,-0.59 19.53,19.53 0 0 0 -2.55,-0.08 h -38.95 a 10.22,10.22 0 0 0 -5.37,1.56 9.43,9.43 0 0 0 -2.14,1.79 9.34,9.34 0 0 0 -1.56,2.3 9.8,9.8 0 0 0 -0.88,2.61 14.89,14.89 0 0 0 -0.18,2.76 v 5.57 c 0,7.35 0,14.44 0,21.2 0,3.38 0,6.68 0,9.88 a 25.61,25.61 0 0 0 0.2,4.67 10.34,10.34 0 0 0 1.83,4.06 10.15,10.15 0 0 0 7.21,4 c 2.76,0.1 5.46,0 8,0.07 l 24.21,0.08 6.58,0.05 h 1.71 c 0.39,0 0.58,0 0.58,0 0,0 -0.19,0 -0.58,0 h -1.71 l -6.58,0.05 -24.21,0.08 c -2.56,0 -5.22,0.06 -8,0 a 10.5,10.5 0 0 1 -7.52,-4.18 10.68,10.68 0 0 1 -1.93,-4.23 27,27 0 0 1 -0.22,-4.76 c 0,-3.2 0,-6.5 0,-9.88 0,-6.76 0,-13.85 0,-21.2 v -5.45 a 14.51,14.51 0 0 1 0.18,-2.85 10.86,10.86 0 0 1 0.92,-2.75 10.37,10.37 0 0 1 1.64,-2.41 10.18,10.18 0 0 1 2.25,-1.89 10.72,10.72 0 0 1 5.65,-1.64 h 38.84 a 25.45,25.45 0 0 1 2.61,0.08 10.82,10.82 0 0 1 2.52,0.63 10.65,10.65 0 0 1 6.39,7.24 18,18 0 0 1 0.34,4.76 c 0,1.55 0,3.08 0,4.59 0,6 0,11.6 0,16.71 0,5.11 0,9.73 0,13.8 a 22,22 0 0 1 -0.37,5.66 10.43,10.43 0 0 1 -7.87,7.5 10.06,10.06 0 0 1 -1.7,0.21 c -0.47,0.04 -0.63,0.03 -0.63,0.03 z"
       style="fill:#263238"
       id="path24" /><path
       d="m 376.55,128.69 a 2.92,2.92 0 1 1 -2.92,-2.91 2.92,2.92 0 0 1 2.92,2.91 z"
       style="fill:#263238"
       id="path25" /><path
       d="m 395.92,100.19 c 1.53,5.36 -2,10.6 -7.45,10.6 h -28.88 a 7.21,7.21 0 0 1 -7,-9.07 5.27,5.27 0 0 1 0.25,-0.7 7.62,7.62 0 0 1 8.28,-4.5 13.12,13.12 0 0 1 25.39,-2.8 c 0,0 7.49,-0.4 9.41,6.47 z"
       style="fill:#8697c4"
       id="path26" /><path
       d="m 371.49,115.91 v -11.08 h -4.34 a 0.63,0.63 0 0 1 -0.51,-1 l 7.15,-10.09 a 0.62,0.62 0 0 1 1,0 l 7.14,10 a 0.63,0.63 0 0 1 -0.51,1 h -4.23 v 11.16 z"
       style="fill:#ffffff"
       id="path27" /></g><g
     id="freepik--Globe--inject-184"><rect
       x="408.69"
       y="140.91"
       width="60.950001"
       height="60.950001"
       rx="10.38"
       style="fill:#ffffff"
       id="rect27" /><path
       d="m 459.25,201.85 a 17,17 0 0 0 2.26,-0.31 10.36,10.36 0 0 0 5.49,-3.33 10,10 0 0 0 2.16,-4.13 21.88,21.88 0 0 0 0.32,-5.6 c 0,-4.06 0,-8.68 0,-13.79 0,-5.11 0,-10.71 0,-16.72 v -4.58 a 18.07,18.07 0 0 0 -0.34,-4.65 10.15,10.15 0 0 0 -6.2,-6.91 9.36,9.36 0 0 0 -2.41,-0.6 23.72,23.72 0 0 0 -2.55,-0.08 h -38.91 a 10.14,10.14 0 0 0 -5.37,1.55 9.74,9.74 0 0 0 -2.14,1.8 9.37,9.37 0 0 0 -1.56,2.29 10.24,10.24 0 0 0 -0.88,2.62 14.84,14.84 0 0 0 -0.18,2.76 v 5.56 c 0,7.35 0,14.45 0,21.21 0,3.38 0,6.67 0,9.87 a 26.65,26.65 0 0 0 0.2,4.68 10.3,10.3 0 0 0 1.83,4.05 10.16,10.16 0 0 0 7.22,4.05 c 2.75,0.09 5.45,0 8,0.06 l 24.21,0.08 6.58,0.05 h 1.71 c 0.39,0 0.59,0 0.59,0 h -0.59 -1.71 -6.58 l -24.21,0.09 c -2.56,0 -5.22,0.06 -8,0 a 10.64,10.64 0 0 1 -9.44,-8.42 25.23,25.23 0 0 1 -0.22,-4.76 q 0,-4.8 0,-9.87 c 0,-6.76 0,-13.86 0,-21.21 v -5.56 a 14.57,14.57 0 0 1 0.18,-2.86 10.86,10.86 0 0 1 0.92,-2.75 10.37,10.37 0 0 1 1.64,-2.41 10.18,10.18 0 0 1 2.25,-1.89 10.71,10.71 0 0 1 5.65,-1.63 h 38.84 a 22.92,22.92 0 0 1 2.61,0.09 10.34,10.34 0 0 1 2.52,0.63 10.59,10.59 0 0 1 6.47,7.25 17.92,17.92 0 0 1 0.34,4.76 V 158 c 0,6 0,11.6 0,16.72 0,5.12 0,9.73 0,13.79 a 22.42,22.42 0 0 1 -0.38,5.66 10.07,10.07 0 0 1 -2.25,4.2 10.35,10.35 0 0 1 -5.62,3.31 9.72,9.72 0 0 1 -1.7,0.2 c -0.56,-0.02 -0.75,-0.03 -0.75,-0.03 z"
       style="fill:#263238"
       id="path28" /><path
       d="m 439.94,189.89 a 18.54,18.54 0 1 1 18.53,-18.53 18.56,18.56 0 0 1 -18.53,18.53 z m 0,-36.07 a 17.54,17.54 0 1 0 17.53,17.54 17.56,17.56 0 0 0 -17.53,-17.54 z"
       style="fill:#8697c4"
       id="path29" /><path
       d="m 439.38,189.83 a 17.46,17.46 0 0 1 -4.75,-4.38 21.87,21.87 0 0 1 -4.34,-14.45 22.72,22.72 0 0 1 5.08,-14.1 16.52,16.52 0 0 1 4.76,-4 l 0.44,0.9 c -0.09,0 -8.81,4.51 -9.28,17.25 -0.47,12.74 8.49,17.88 8.58,17.93 z"
       style="fill:#8697c4"
       id="path30" /><path
       d="m 440.2,189.82 -0.52,-0.85 c 0.08,-0.06 8.76,-5.59 8.29,-18.34 -0.47,-12.75 -8.82,-16.82 -8.9,-16.86 l 0.42,-0.9 c 0.37,0.17 9,4.36 9.48,17.73 0.48,13.37 -8.68,19.16 -8.77,19.22 z"
       style="fill:#8697c4"
       id="path31" /><path
       d="m 440.18,165.48 c -7.5,0 -12.34,-2.55 -15.08,-4.69 l 0.62,-0.79 c 2.61,2.05 7.24,4.48 14.46,4.48 7,0 11.42,-2.42 13.91,-4.45 l 0.63,0.77 c -2.61,2.14 -7.25,4.68 -14.54,4.68 z"
       style="fill:#8697c4"
       id="path32" /><path
       d="m 454.13,182.16 c -2.61,-2 -7.24,-4.34 -14.47,-4.34 -7,0 -11.42,2.34 -13.91,4.32 l -0.62,-0.79 c 2.61,-2.07 7.25,-4.53 14.53,-4.53 7.51,0 12.34,2.47 15.08,4.54 z"
       style="fill:#8697c4"
       id="path33" /><rect
       x="422.35001"
       y="170.91"
       width="35.639999"
       height="1"
       style="fill:#8697c4"
       id="rect33" /><path
       d="m 411.38,172.62 a 2.92,2.92 0 1 1 -2.91,-2.92 2.91,2.91 0 0 1 2.91,2.92 z"
       style="fill:#263238"
       id="path34" /><path
       d="m 410.1,172.62 c 0,0.14 -6.92,0.26 -15.45,0.26 -8.53,0 -15.45,-0.12 -15.45,-0.26 0,-0.14 6.92,-0.26 15.45,-0.26 8.53,0 15.45,0.11 15.45,0.26 z"
       style="fill:#263238"
       id="path35" /></g><g
     id="freepik--social-media-icon--inject-184"><rect
       x="412.72"
       y="220.23"
       width="44.98"
       height="44.98"
       rx="10.38"
       style="fill:#ffffff"
       id="rect35" /><path
       d="m 447.32,265.21 c 0,0 0.58,0 1.63,-0.19 a 10.5,10.5 0 0 0 4.29,-1.79 10.37,10.37 0 0 0 4,-6 19.05,19.05 0 0 0 0.27,-4.61 c 0,-1.65 0,-3.4 0,-5.23 0,-3.67 0,-7.69 0,-12 v -3.29 a 16.94,16.94 0 0 0 -0.19,-3.34 10.07,10.07 0 0 0 -3.4,-5.87 10.23,10.23 0 0 0 -6.69,-2.42 h -24.1 A 10.14,10.14 0 0 0 413,230.64 c 0,5.27 0,10.36 0,15.21 q 0,3.65 0,7.09 a 24.57,24.57 0 0 0 0.11,3.35 9.66,9.66 0 0 0 0.95,3.06 10.19,10.19 0 0 0 4.14,4.37 10.59,10.59 0 0 0 5.44,1.31 l 17.37,0.08 4.72,0.05 h 1.23 0.41 a 2.18,2.18 0 0 1 -0.41,0 h -1.23 -4.72 l -17.37,0.09 a 11,11 0 0 1 -5.63,-1.33 10.65,10.65 0 0 1 -4.34,-4.52 10.24,10.24 0 0 1 -1,-3.19 26.08,26.08 0 0 1 -0.13,-3.42 q 0,-3.45 0,-7.09 c 0,-4.85 0,-9.94 0,-15.21 A 10.65,10.65 0 0 1 423.11,220 h 24.1 a 10.79,10.79 0 0 1 7,2.55 10.56,10.56 0 0 1 3.54,6.16 17.3,17.3 0 0 1 0.18,3.42 c 0,1.12 0,2.21 0,3.29 0,4.31 0,8.33 0,12 0,1.83 0,3.58 0,5.23 a 18.65,18.65 0 0 1 -0.32,4.67 10.52,10.52 0 0 1 -4.19,6.1 10.2,10.2 0 0 1 -4.39,1.72 8.34,8.34 0 0 1 -1.23,0.1 2.76,2.76 0 0 1 -0.48,-0.03 z"
       style="fill:#263238"
       id="path36" /><path
       d="m 424.19,250.52 a 14.48,14.48 0 0 0 22.28,-12.86 10.63,10.63 0 0 0 2.53,-2.66 10,10 0 0 1 -2.93,0.8 5.09,5.09 0 0 0 2.24,-2.81 10.25,10.25 0 0 1 -3.23,1.23 5.1,5.1 0 0 0 -8.68,4.65 14.44,14.44 0 0 1 -10.49,-5.32 5.09,5.09 0 0 0 1.57,6.8 5.18,5.18 0 0 1 -2.31,-0.64 5.12,5.12 0 0 0 4.09,5.06 5.07,5.07 0 0 1 -2.3,0.08 5.09,5.09 0 0 0 4.76,3.54 10.23,10.23 0 0 1 -7.53,2.13 z"
       style="fill:#455a64"
       id="path37" /></g><g
     id="freepik--Device--inject-184"><path
       d="m 397.26,262.76 -13.05,-45.94 h -114.1 l -14.87,45.79 a 4.29,4.29 0 0 0 4,5.63 h 52.12 l 2.11,-2.11 h 24.61 l 2.11,2.11 h 53 a 4.28,4.28 0 0 0 4.07,-5.48 z"
       style="fill:#e0e0e0"
       id="path38" /><g
       style="opacity:0.3"
       id="g39"><path
         d="m 397.26,262.76 -13.05,-45.94 h -114.1 l -14.87,45.79 a 4.29,4.29 0 0 0 4,5.63 h 52.12 l 2.11,-2.11 h 24.61 l 2.11,2.11 h 53 a 4.28,4.28 0 0 0 4.07,-5.48 z"
         id="path39" /></g><path
       d="m 270.06,215.63 v -67.41 a 4.82,4.82 0 0 1 4.81,-4.84 h 104.85 a 4.82,4.82 0 0 1 4.81,4.84 v 67.41 z"
       style="fill:#e0e0e0"
       id="path40" /><rect
       x="276.98001"
       y="150.05"
       width="100.63"
       height="59.950001"
       style="fill:#ffffff"
       id="rect40" /><path
       d="m 377.61,210 c 0,0 0,-0.38 0,-1.09 0,-0.71 0,-1.78 0,-3.15 0,-2.77 0,-6.82 -0.06,-12 0,-10.39 -0.06,-25.35 -0.1,-43.69 l 0.2,0.2 -100.65,0.04 v 0 l 0.26,-0.26 c 0,21.23 0,41.5 0,59.95 l -0.24,-0.24 72.38,0.11 20.78,0.07 h 5.54 1.43 0.5 -0.47 -1.4 -5.5 l -20.72,0.06 -72.54,0.12 h -0.24 V 210 c 0,-18.45 0,-38.72 0,-59.95 v -0.26 H 277 l 100.62,0.06 h 0.2 v 0.2 c 0,18.4 -0.08,33.4 -0.11,43.82 0,5.18 0,9.21 -0.05,12 0,1.35 0,2.39 0,3.11 0,0.72 -0.05,1.02 -0.05,1.02 z"
       style="fill:#263238"
       id="path41" /><path
       d="m 329.15,146.89 a 1.86,1.86 0 1 1 -1.85,-1.82 1.83,1.83 0 0 1 1.85,1.82 z"
       style="fill:#263238"
       id="path42" /><path
       d="m 397.26,261.06 -13.05,-45.94 h -114.1 l -14.87,45.79 a 4.29,4.29 0 0 0 4,5.63 h 52.12 l 2.11,-2.11 h 24.61 l 2.11,2.11 h 53 a 4.28,4.28 0 0 0 4.07,-5.48 z"
       style="fill:#e0e0e0"
       id="path43" /><path
       d="m 376.11,218.06 -99.43,-0.33 a 2.31,2.31 0 0 0 -2.25,1.38 l -8,22.62 c -0.43,1.23 0.68,2.45 2.24,2.45 h 115.09 c 1.55,0 2.67,-1.21 2.24,-2.44 l -7.65,-22.28 a 2.34,2.34 0 0 0 -2.24,-1.4 z"
       style="fill:#ebebeb"
       id="path44" /><g
       style="opacity:0.1"
       id="g45"><path
         d="M 345.23,261.45 H 306 a 2.64,2.64 0 0 1 -2.38,-3.36 l 2.22,-9.29 a 2.5,2.5 0 0 1 2.38,-2 h 35.06 a 2.52,2.52 0 0 1 2.4,2.08 l 2,9.28 a 2.64,2.64 0 0 1 -2.45,3.29 z"
         id="path45" /></g><path
       d="m 345.1,225.22 -1,-4.74 a 0.7,0.7 0 0 0 -0.69,-0.55 h -6.12 a 0.7,0.7 0 0 0 -0.7,0.8 l 0.68,4.74 a 0.71,0.71 0 0 0 0.7,0.61 h 6.47 a 0.71,0.71 0 0 0 0.66,-0.86 z"
       style="fill:#263238"
       id="path46" /><path
       d="m 326.65,225.33 -0.44,-4.76 a 0.69,0.69 0 0 0 -0.7,-0.64 h -6.25 a 0.71,0.71 0 0 0 -0.71,0.73 l 0.17,4.76 a 0.71,0.71 0 0 0 0.71,0.68 H 326 a 0.71,0.71 0 0 0 0.65,-0.77 z"
       style="fill:#263238"
       id="path47" /><path
       d="m 336.36,225.28 -0.68,-4.75 a 0.7,0.7 0 0 0 -0.7,-0.6 h -7.2 a 0.7,0.7 0 0 0 -0.7,0.77 l 0.43,4.75 a 0.72,0.72 0 0 0 0.71,0.64 h 7.44 a 0.7,0.7 0 0 0 0.7,-0.81 z"
       style="fill:#263238"
       id="path48" /><path
       d="m 290.7,225.4 1,-4.32 a 1,1 0 0 0 -0.93,-1.15 h -5.93 a 1,1 0 0 0 -0.91,0.69 l -1.24,4.32 a 1,1 0 0 0 0.92,1.21 h 6.2 a 1,1 0 0 0 0.89,-0.75 z"
       style="fill:#263238"
       id="path49" /><path
       d="m 377.08,225.07 -1.8,-4.69 a 0.7,0.7 0 0 0 -0.66,-0.45 H 363 a 0.7,0.7 0 0 0 -0.66,0.95 l 1.75,4.7 a 0.69,0.69 0 0 0 0.66,0.46 h 11.69 a 0.71,0.71 0 0 0 0.64,-0.97 z"
       style="fill:#263238"
       id="path50" /><path
       d="m 317,219.93 h -6.76 a 0.71,0.71 0 0 0 -0.71,0.67 l -0.23,4.78 a 0.71,0.71 0 0 0 0.71,0.74 h 7.17 a 0.7,0.7 0 0 0 0.7,-0.73 l -0.17,-4.77 A 0.71,0.71 0 0 0 317,219.93 Z"
       style="fill:#263238"
       id="path51" /><path
       d="m 282,219.93 h -4.71 a 1,1 0 0 0 -0.9,0.63 l -1.55,4.34 a 1,1 0 0 0 0.89,1.27 h 5 a 1,1 0 0 0 0.91,-0.69 l 1.24,-4.33 A 1,1 0 0 0 282,219.93 Z"
       style="fill:#263238"
       id="path52" /><path
       d="m 299.45,225.52 0.63,-4.8 a 0.7,0.7 0 0 0 -0.7,-0.79 h -6 a 0.71,0.71 0 0 0 -0.69,0.55 l -1.07,4.8 a 0.7,0.7 0 0 0 0.69,0.86 h 6.47 a 0.69,0.69 0 0 0 0.67,-0.62 z"
       style="fill:#263238"
       id="path53" /><path
       d="m 301,220.54 -0.63,4.79 a 0.71,0.71 0 0 0 0.71,0.8 h 6.69 a 0.71,0.71 0 0 0 0.71,-0.67 l 0.23,-4.78 A 0.7,0.7 0 0 0 308,219.94 h -6.3 a 0.71,0.71 0 0 0 -0.7,0.6 z"
       style="fill:#263238"
       id="path54" /><path
       d="m 354.3,225.15 -1.4,-4.72 a 0.7,0.7 0 0 0 -0.68,-0.5 h -6.52 a 0.7,0.7 0 0 0 -0.69,0.85 l 1,4.73 a 0.71,0.71 0 0 0 0.69,0.56 h 6.9 a 0.71,0.71 0 0 0 0.7,-0.92 z"
       style="fill:#263238"
       id="path55" /><path
       d="m 363,225.09 -1.75,-4.7 a 0.71,0.71 0 0 0 -0.66,-0.46 h -6 a 0.7,0.7 0 0 0 -0.67,0.9 l 1.39,4.72 a 0.71,0.71 0 0 0 0.68,0.5 h 6.35 a 0.72,0.72 0 0 0 0.66,-0.96 z"
       style="fill:#263238"
       id="path56" /><path
       d="m 317.26,227.18 h -7.38 a 0.71,0.71 0 0 0 -0.71,0.67 l -0.24,4.94 a 0.71,0.71 0 0 0 0.71,0.74 h 7.8 a 0.72,0.72 0 0 0 0.71,-0.74 l -0.18,-4.92 a 0.71,0.71 0 0 0 -0.71,-0.69 z"
       style="fill:#263238"
       id="path57" /><path
       d="m 365.75,232.5 -1.81,-4.85 a 0.7,0.7 0 0 0 -0.66,-0.46 h -6.54 a 0.71,0.71 0 0 0 -0.68,0.91 l 1.44,4.9 a 0.71,0.71 0 0 0 0.68,0.5 h 6.91 a 0.71,0.71 0 0 0 0.66,-1 z"
       style="fill:#263238"
       id="path58" /><path
       d="m 356.5,232.56 -1.45,-4.87 a 0.69,0.69 0 0 0 -0.67,-0.5 h -7.11 a 0.7,0.7 0 0 0 -0.69,0.85 l 1.05,4.88 a 0.72,0.72 0 0 0 0.69,0.56 h 7.5 a 0.71,0.71 0 0 0 0.68,-0.92 z"
       style="fill:#263238"
       id="path59" /><path
       d="m 300.07,233.54 h 7.31 a 0.71,0.71 0 0 0 0.7,-0.67 l 0.24,-4.94 a 0.71,0.71 0 0 0 -0.71,-0.74 h -6.9 a 0.71,0.71 0 0 0 -0.7,0.62 l -0.64,4.94 a 0.7,0.7 0 0 0 0.7,0.79 z"
       style="fill:#263238"
       id="path60" /><path
       d="m 319.7,233.51 h 6.93 a 0.7,0.7 0 0 0 0.7,-0.77 l -0.45,-4.9 a 0.71,0.71 0 0 0 -0.7,-0.65 h -6.66 a 0.71,0.71 0 0 0 -0.7,0.74 l 0.18,4.91 a 0.7,0.7 0 0 0 0.7,0.67 z"
       style="fill:#263238"
       id="path61" /><path
       d="m 327.74,228 0.45,4.9 a 0.72,0.72 0 0 0 0.71,0.64 h 7.81 a 0.7,0.7 0 0 0 0.7,-0.8 l -0.7,-4.9 a 0.69,0.69 0 0 0 -0.69,-0.6 h -7.57 a 0.71,0.71 0 0 0 -0.71,0.76 z"
       style="fill:#263238"
       id="path62" /><path
       d="m 346.7,232.62 -1.06,-4.88 a 0.7,0.7 0 0 0 -0.69,-0.55 h -6.65 a 0.7,0.7 0 0 0 -0.7,0.8 l 0.7,4.89 a 0.71,0.71 0 0 0 0.7,0.61 h 7 a 0.71,0.71 0 0 0 0.7,-0.87 z"
       style="fill:#263238"
       id="path63" /><path
       d="m 289.42,227.18 h -14.74 a 0.72,0.72 0 0 0 -0.66,0.45 l -1.92,5 a 0.7,0.7 0 0 0 0.66,0.95 h 15.55 A 0.71,0.71 0 0 0 289,233 l 1.11,-5 a 0.71,0.71 0 0 0 -0.69,-0.82 z"
       style="fill:#263238"
       id="path64" /><path
       d="m 290.63,233.55 h 7.16 a 0.71,0.71 0 0 0 0.7,-0.61 l 0.64,-5 a 0.7,0.7 0 0 0 -0.7,-0.8 h -6.69 a 0.71,0.71 0 0 0 -0.69,0.55 l -1.11,5 a 0.71,0.71 0 0 0 0.69,0.86 z"
       style="fill:#263238"
       id="path65" /><path
       d="m 374.55,233.44 h 4.6 a 0.71,0.71 0 0 0 0.66,-1 l -1.94,-4.83 a 0.72,0.72 0 0 0 -0.66,-0.45 H 373 a 0.72,0.72 0 0 0 -0.68,0.93 l 1.57,4.83 a 0.72,0.72 0 0 0 0.66,0.52 z"
       style="fill:#263238"
       id="path66" /><path
       d="m 372.84,232.52 -1.57,-4.84 a 0.71,0.71 0 0 0 -0.67,-0.49 h -4.91 a 0.71,0.71 0 0 0 -0.66,0.95 l 1.8,4.85 a 0.71,0.71 0 0 0 0.67,0.46 h 4.67 a 0.7,0.7 0 0 0 0.67,-0.93 z"
       style="fill:#263238"
       id="path67" /><path
       d="m 299.39,241.85 h 7.24 a 1.05,1.05 0 0 0 1.06,-1 l 0.25,-5.15 a 1.05,1.05 0 0 0 -1.06,-1.11 h -6.82 a 1.06,1.06 0 0 0 -1.06,0.92 l -0.67,5.14 a 1.06,1.06 0 0 0 1.06,1.2 z"
       style="fill:#263238"
       id="path68" /><path
       d="M 380.08,234.59 H 369 a 1.06,1.06 0 0 0 -1,1.43 l 2,5.25 a 1.06,1.06 0 0 0 1,0.7 h 11.23 a 1.07,1.07 0 0 0 1,-1.45 l -2.06,-5.28 a 1.06,1.06 0 0 0 -1.09,-0.65 z"
       style="fill:#263238"
       id="path69" /><path
       d="m 289.33,235.42 -1.15,5.12 a 1.06,1.06 0 0 0 1,1.29 h 7.17 a 1.07,1.07 0 0 0 1.05,-0.93 l 0.67,-5.13 a 1.05,1.05 0 0 0 -1.05,-1.2 h -6.69 a 1.06,1.06 0 0 0 -1,0.85 z"
       style="fill:#263238"
       id="path70" /><path
       d="m 279.6,235.36 -1.51,5.29 a 0.92,0.92 0 0 0 0.88,1.17 h 7.32 a 0.91,0.91 0 0 0 0.89,-0.72 l 1.21,-5.39 a 0.91,0.91 0 0 0 -0.9,-1.12 l -7,0.09 a 0.92,0.92 0 0 0 -0.89,0.68 z"
       style="fill:#263238"
       id="path71" /><path
       d="m 348.27,235.87 1.13,5.23 a 1.05,1.05 0 0 0 1,0.83 h 7.42 a 1.07,1.07 0 0 0 1,-1.37 l -1.56,-5.23 a 1.05,1.05 0 0 0 -1,-0.76 h -7 a 1.05,1.05 0 0 0 -0.99,1.3 z"
       style="fill:#263238"
       id="path72" /><path
       d="m 308.8,235.6 -0.25,5.15 a 1.06,1.06 0 0 0 1.06,1.12 l 37.78,0.06 a 1.07,1.07 0 0 0 1,-1.29 l -1.13,-5.22 a 1.06,1.06 0 0 0 -1,-0.83 h -36.4 a 1.06,1.06 0 0 0 -1.06,1.01 z"
       style="fill:#263238"
       id="path73" /><path
       d="m 271.34,235.14 -2,5.53 a 0.84,0.84 0 0 0 0.79,1.13 h 6.14 a 0.86,0.86 0 0 0 0.81,-0.61 l 1.58,-5.54 a 0.84,0.84 0 0 0 -0.81,-1.07 h -5.69 a 0.84,0.84 0 0 0 -0.82,0.56 z"
       style="fill:#263238"
       id="path74" /><path
       d="m 358.39,236 1.55,5.24 a 1.07,1.07 0 0 0 1,0.76 h 6.77 a 1.06,1.06 0 0 0 1,-1.43 l -2,-5.25 a 1.06,1.06 0 0 0 -1,-0.69 h -6.37 a 1.06,1.06 0 0 0 -0.95,1.37 z"
       style="fill:#263238"
       id="path75" /><path
       d="m 384.62,215.29 c 0,0.14 -25.58,0.26 -57.13,0.26 -31.55,0 -57.13,-0.12 -57.13,-0.26 0,-0.14 25.57,-0.26 57.13,-0.26 31.56,0 57.13,0.11 57.13,0.26 z"
       style="fill:#263238"
       id="path76" /><path
       d="m 305.17,167.27 a 15,15 0 0 1 3.45,-2.15 l 0.21,-3.77 6.15,-1 1.43,3.49 a 15.69,15.69 0 0 1 4,0.91 l 2.81,-2.5 5.08,3.62 -1.46,3.47 a 15.35,15.35 0 0 1 2.16,3.45 l 3.76,0.21 1,6.15 -3.49,1.43 a 14.87,14.87 0 0 1 -0.91,4 l 2.51,2.81 -3.62,5.08 -3.49,-1.47 a 15.47,15.47 0 0 1 -3.44,2.15 l -0.22,3.76 -6.15,1 -1.43,-3.49 a 14.87,14.87 0 0 1 -4,-0.91 l -2.77,2.49 -5.08,-3.62 1.46,-3.47 a 15.81,15.81 0 0 1 -2.16,-3.45 l -3.76,-0.22 -1,-6.15 3.49,-1.43 a 15.69,15.69 0 0 1 0.91,-4 l -2.51,-2.81 3.62,-5.08 3.48,1.46 z m 4.51,7.72 a 6.69,6.69 0 1 0 9.34,-1.56 6.69,6.69 0 0 0 -9.34,1.57 z"
       style="fill:#f5f5f5"
       id="path77" /><path
       d="m 339.06,182.93 a 10.3,10.3 0 0 1 2.33,-1.45 l 0.15,-2.55 4.16,-0.7 1,2.36 a 10.43,10.43 0 0 1 2.68,0.62 l 1.9,-1.7 3.44,2.45 -1,2.35 a 10.36,10.36 0 0 1 1.45,2.34 l 2.55,0.14 0.7,4.17 -2.36,1 a 10.63,10.63 0 0 1 -0.62,2.68 l 1.7,1.9 -2.46,3.46 -2.36,-1 a 10.12,10.12 0 0 1 -2.33,1.46 l -0.14,2.55 -4.17,0.7 -1,-2.37 A 10.51,10.51 0 0 1 342,200.73 l -1.9,1.69 -3.44,-2.45 1,-2.35 a 10,10 0 0 1 -1.46,-2.33 l -2.55,-0.15 -0.7,-4.16 2.37,-1 a 10,10 0 0 1 0.61,-2.68 l -1.7,-1.9 2.46,-3.44 2.35,1 z m 3.06,5.23 a 4.53,4.53 0 1 0 6.31,-1.06 4.53,4.53 0 0 0 -6.31,1.06 z"
       style="fill:#f5f5f5"
       id="path78" /><path
       d="m 337.11,158.58 a 9.62,9.62 0 0 1 2.06,-1.29 l 0.13,-2.25 3.69,-0.62 0.85,2.09 a 9.55,9.55 0 0 1 2.38,0.55 l 1.68,-1.51 3,2.17 -0.87,2.09 a 8.89,8.89 0 0 1 1.29,2.06 l 2.26,0.13 0.61,3.69 -2.09,0.85 a 9,9 0 0 1 -0.54,2.38 l 1.5,1.68 -2.17,3.05 -2.08,-0.88 a 9,9 0 0 1 -2.07,1.29 l -0.13,2.26 -3.68,0.62 -0.86,-2.09 a 9.38,9.38 0 0 1 -2.37,-0.55 l -1.69,1.5 -3,-2.17 0.87,-2.08 a 9.3,9.3 0 0 1 -1.29,-2.07 l -2.25,-0.13 -0.62,-3.68 2.09,-0.86 a 9,9 0 0 1 0.55,-2.37 l -1.51,-1.69 2.17,-3 2.09,0.87 z m 2.7,4.63 a 4,4 0 1 0 5.59,-0.93 4,4 0 0 0 -5.59,0.93 z"
       style="fill:#f5f5f5"
       id="path79" /></g><g
     id="freepik--Character--inject-184"><path
       d="m 111.59,164 c -4.57,-2.81 -5.76,-9.46 -3.38,-14.26 2.38,-4.8 7.56,-7.78 12.84,-8.72 a 24.71,24.71 0 0 1 21.37,6.74 c 3,3 5.4,6.86 9.38,8.18 3.5,1.16 7.34,0 11,0.43 4.92,0.57 9.17,4 11.75,8.21 2.58,4.21 3.68,9.17 4.33,14.07 0.6,4.5 1,9.44 4.2,12.69 3.2,3.25 7.92,3.77 11.75,6 7.2,4.19 9.66,14.79 5.06,21.73 -1.47,2.21 -3.6,4.25 -3.73,6.9 -0.13,2.42 1.47,4.55 2.23,6.85 2,5.92 -2.79,13.06 -9,13.51 -3.15,0.23 -6.53,-0.95 -9.33,0.5 -2.8,1.45 -3.77,4.83 -5.53,7.42 a 13.47,13.47 0 0 1 -16.36,4.48 c -2.33,-1.1 -4.54,-2.94 -7.11,-2.73 -2.57,0.21 -4.55,2.43 -7.06,3 -3.3,0.69 -6.47,-1.7 -8.48,-4.4 -2.01,-2.7 -3.42,-5.9 -6,-8.1 -3.34,-2.89 -8,-3.54 -12.17,-4.92 A 34.09,34.09 0 0 1 97.43,194"
       style="fill:#263238"
       id="path80" /><path
       d="M 160.38,222.49 A 9.28,9.28 0 0 1 164,220 h -0.28 a 5.36,5.36 0 0 1 0.78,-0.15 3.68,3.68 0 0 1 2.88,0.32 v 0 a 6.82,6.82 0 0 1 3.77,3.19 8,8 0 0 1 -0.83,8.3 6.15,6.15 0 0 1 -11.32,-1.94 7.61,7.61 0 0 1 1.38,-7.23 z"
       style="fill:#455a64"
       id="path81" /><path
       d="m 101.44,273 -6.1,-88.28 a 7.5,7.5 0 0 1 6.38,-7.89 l 39.33,-11.76 c 12.68,-1.9 21.82,13.42 23.18,26.17 1.5,14.16 2.78,31.51 1.56,42.17 -2.47,21.45 -20,24.95 -20,24.95 0,0 0.19,21.81 0.43,29.55 l 5.22,23.95 z"
       style="fill:#ffbf9d"
       id="path82" /><path
       d="m 156.5,209.56 a 2.75,2.75 0 0 1 -2.52,2.87 2.61,2.61 0 0 1 -2.92,-2.34 2.74,2.74 0 0 1 2.51,-2.88 2.64,2.64 0 0 1 2.93,2.35 z"
       style="fill:#263238"
       id="path83" /><path
       d="m 160.72,199 c -0.32,0.37 -2.45,-1.07 -5.39,-0.93 -2.94,0.14 -5,1.69 -5.37,1.35 -0.16,-0.16 0.15,-0.81 1.06,-1.54 a 7.53,7.53 0 0 1 4.28,-1.52 7.24,7.24 0 0 1 4.32,1.19 c 0.93,0.63 1.26,1.26 1.1,1.45 z"
       style="fill:#263238"
       id="path84" /><path
       d="m 130,210.46 a 2.73,2.73 0 0 1 -2.51,2.87 2.63,2.63 0 0 1 -2.93,-2.34 2.75,2.75 0 0 1 2.52,-2.88 2.62,2.62 0 0 1 2.92,2.35 z"
       style="fill:#263238"
       id="path85" /><path
       d="m 131.85,200.77 c -0.33,0.37 -2.47,-1.07 -5.4,-0.94 -2.93,0.13 -5,1.7 -5.37,1.35 -0.16,-0.15 0.15,-0.81 1.07,-1.53 a 7.4,7.4 0 0 1 4.27,-1.53 7.24,7.24 0 0 1 4.32,1.19 c 0.93,0.69 1.26,1.29 1.11,1.46 z"
       style="fill:#263238"
       id="path86" /><path
       d="m 143.46,222.11 c 0,-0.16 1.79,-0.56 4.73,-1.07 0.75,-0.11 1.46,-0.29 1.56,-0.8 a 3.82,3.82 0 0 0 -0.6,-2.21 l -2.46,-5.62 c -3.44,-8 -6,-14.6 -5.63,-14.74 0.37,-0.14 3.37,6.25 6.8,14.25 l 2.38,5.66 a 4.33,4.33 0 0 1 0.51,2.93 1.88,1.88 0 0 1 -1.19,1.15 5,5 0 0 1 -1.26,0.24 c -2.98,0.29 -4.83,0.38 -4.84,0.21 z"
       style="fill:#263238"
       id="path87" /><path
       d="m 145.7,256.9 c 0,0 -13,1.46 -27.57,-6.47 0,0 6.4,15.77 27.63,12.86 z"
       style="fill:#ff9a6c"
       id="path88" /><path
       d="m 143.32,229.12 a 7.23,7.23 0 0 0 -6.09,-2.9 4.72,4.72 0 0 0 -3.78,2.27 4.32,4.32 0 0 0 5.12,6.26 10.71,10.71 0 0 0 4.22,-2.86 3.46,3.46 0 0 0 0.88,-1.15 1.51,1.51 0 0 0 -0.18,-1.48"
       style="fill:#ff9a6c"
       id="path89" /><path
       d="m 134.89,224.52 c 0.48,-0.05 0.62,3.14 3.45,5.29 2.83,2.15 6.21,1.65 6.26,2.09 0.05,0.2 -0.73,0.66 -2.17,0.76 a 8,8 0 0 1 -5.21,-1.57 6.9,6.9 0 0 1 -2.69,-4.45 c -0.18,-1.32 0.14,-2.13 0.36,-2.12 z"
       style="fill:#263238"
       id="path90" /><path
       d="m 132.63,188.61 c -0.26,0.81 -3.21,0.56 -6.64,1.12 -3.43,0.56 -6.18,1.62 -6.67,0.93 -0.22,-0.34 0.23,-1.11 1.32,-1.93 a 11.75,11.75 0 0 1 10.14,-1.57 c 1.29,0.46 1.95,1.06 1.85,1.45 z"
       style="fill:#263238"
       id="path91" /><path
       d="m 159.25,188.9 c -0.48,0.69 -2.54,0.08 -5,0.16 -2.46,0.08 -4.48,0.64 -5,0 -0.22,-0.33 0.07,-1 1,-1.68 a 7.2,7.2 0 0 1 8,-0.1 c 0.91,0.61 1.22,1.28 1,1.62 z"
       style="fill:#263238"
       id="path92" /><path
       d="m 178.41,185.09 a 14.67,14.67 0 0 0 -5.74,-8 c -1.55,-1 -3.35,-1.56 -4.79,-2.69 -3.11,-2.44 -3.89,-6.76 -5.84,-10.2 a 16.12,16.12 0 0 0 -12.39,-8 c -4.23,-0.37 -8.56,1 -12.69,0 -3.06,-0.73 -5.74,-2.66 -8.83,-3.2 -6,-1.06 -11.54,3.33 -15.83,7.69 0,4.29 3.51,7.12 6.84,9.83 a 14.94,14.94 0 0 0 12.12,3 c 3.27,-0.65 6.84,-2.36 9.71,-0.66 2.87,1.7 3.2,6.3 5.88,8.56 3.83,3.23 9.81,0.06 14.63,1.41 3.73,1.05 6.1,4.56 8.61,7.51 2.51,2.95 6.24,5.73 9.93,4.57 a 43.11,43.11 0 0 0 -1.61,-9.82 z"
       style="fill:#263238"
       id="path93" /><path
       d="m 133.06,167.58 c -2.7,-0.73 -8.24,-2.39 -9.71,-4.71 -3.21,-5 -8.79,-8.4 -14.44,-8 a 13.56,13.56 0 0 0 -12.06,10.91 19.53,19.53 0 0 0 -16.63,11 20.48,20.48 0 0 0 -1,2.52 14.87,14.87 0 0 0 -0.81,12.48 c 1,2.42 2.6,5.1 1.38,7.4 -1.22,2.3 -4.46,2.47 -7,3.37 a 9.86,9.86 0 0 0 -6,11.1 c 0.37,1.62 1.17,3.22 0.85,4.84 -0.32,1.62 -1.75,2.91 -2.84,4.24 a 12.29,12.29 0 0 0 7.49,19.88 c 1.92,0.32 4,0.21 5.67,1.2 1.92,1.14 2.78,3.42 4.15,5.18 a 10.6,10.6 0 0 0 11.53,3.43 10,10 0 0 0 2.29,-1.2 c 1.31,1.76 3.34,2.94 6.78,2.89 l -1.45,-44.93 a 3.72,3.72 0 0 0 2.75,2.09 c 7.24,1.53 8.08,-13.35 6.41,-17.36 a 41.77,41.77 0 0 0 7.13,-7.71 c 1.94,-3 3.58,-11 3.1,-14.63 2.58,0.15 13.6,-3.67 12.41,-3.99 z"
       style="fill:#263238"
       id="path94" /><path
       d="m 103.27,212.84 c -0.3,-4.56 -5.9,-5.46 -9.83,-3.11 -2.15,1.29 -3.78,3.84 -3.51,8.69 0.73,12.92 13.55,9.53 13.55,9.16 0,-0.37 0.13,-9.39 -0.21,-14.74 z"
       style="fill:#ffbf9d"
       id="path95" /><path
       d="m 99.26,222.9 c -0.06,0 -0.21,0.17 -0.58,0.37 a 2.31,2.31 0 0 1 -1.69,0.13 c -1.39,-0.43 -2.66,-2.53 -2.85,-4.86 a 7.37,7.37 0 0 1 0.45,-3.26 2.6,2.6 0 0 1 1.59,-1.82 1.16,1.16 0 0 1 1.37,0.54 c 0.19,0.36 0.12,0.62 0.19,0.64 0.07,0.02 0.27,-0.24 0.13,-0.76 a 1.4,1.4 0 0 0 -0.55,-0.79 1.71,1.71 0 0 0 -1.26,-0.25 3.16,3.16 0 0 0 -2.24,2.16 7.63,7.63 0 0 0 -0.58,3.65 c 0.23,2.6 1.7,5 3.59,5.39 a 2.42,2.42 0 0 0 2,-0.45 c 0.43,-0.37 0.48,-0.67 0.43,-0.69 z"
       style="fill:#ff9a6c"
       id="path96" /><path
       d="m 115.2,164.35 a 7.65,7.65 0 0 0 -2.55,2.2 c -1.25,1.78 -1.68,5.16 -0.82,8.95 l 0.08,0.33 -0.32,0.08 a 12.5,12.5 0 0 0 -8.22,7.47 9.66,9.66 0 0 0 -0.63,3.16 18.94,18.94 0 0 0 0.46,3.41 26.34,26.34 0 0 1 0.54,3.67 6.07,6.07 0 0 1 -1,3.84 c -1.57,2.47 -4.14,3.71 -6.34,4.91 a 21.82,21.82 0 0 0 -6,4 16.12,16.12 0 0 0 -4.67,10.91 16.91,16.91 0 0 0 1.82,8 c 0.89,1.76 1.62,2.59 1.55,2.64 -0.07,0.05 -0.22,-0.17 -0.56,-0.57 a 13,13 0 0 1 -1.3,-1.9 16.3,16.3 0 0 1 -2.15,-8.14 16.65,16.65 0 0 1 4.71,-11.49 22.43,22.43 0 0 1 6.2,-4.24 c 2.2,-1.2 4.62,-2.43 6,-4.61 1.4,-2 0.73,-4.54 0.32,-6.85 a 18.65,18.65 0 0 1 -0.45,-3.58 10.35,10.35 0 0 1 0.7,-3.46 13.12,13.12 0 0 1 8.85,-7.82 l -0.24,0.41 c -0.83,-4 -0.27,-7.48 1.17,-9.34 a 5.41,5.41 0 0 1 2,-1.68 3.14,3.14 0 0 1 0.85,-0.3 z"
       style="fill:#455a64"
       id="path97" /><path
       d="m 94.5,227.81 a 9.42,9.42 0 0 1 3.64,-2.47 h -0.28 a 5.24,5.24 0 0 1 0.79,-0.15 3.69,3.69 0 0 1 2.88,0.32 v 0 a 6.74,6.74 0 0 1 3.76,3.18 8,8 0 0 1 -0.82,8.3 6.15,6.15 0 0 1 -11.35,-1.99 7.67,7.67 0 0 1 1.38,-7.19 z"
       style="fill:#455a64"
       id="path98" /><path
       d="m 281.93,325.32 8.81,-3.38 c 0,0 2.41,-7.69 4,-9.94 1.59,-2.25 10.1,-9.17 10.6,-9.35 0.5,-0.18 6.09,-12.72 8.64,-12.32 2.55,0.4 4.3,2.2 3.59,5.6 -0.71,3.4 -6.36,10.19 -4.8,11.31 a 11.49,11.49 0 0 0 4.11,1.54 c 0,0 0.7,-3.91 2.84,-5.17 2.14,-1.26 4.59,0.83 4.59,0.83 l 0.06,1.69 2.12,-1.94 c 0,0 2.23,-7.85 5.6,-7.81 a 13.73,13.73 0 0 1 3.33,-4.48 2.91,2.91 0 0 1 4.48,1.31 v 0 l -6.05,17.79 -16.67,18.36 c 0,0 -7.81,3 -9.8,3.92 -1.99,0.92 -11,7.18 -15,8.52 -4,1.34 -8.65,3.37 -8.65,3.37 z"
       style="fill:#ffbf9d"
       id="path99" /><path
       d="m 305.31,319.84 a 10.8,10.8 0 0 0 -3.16,-0.32 14.7,14.7 0 0 0 -7.55,1.66 9.15,9.15 0 0 0 -3.13,3 15,15 0 0 0 -1.49,3.16 9.46,9.46 0 0 0 -0.72,3.1 15.6,15.6 0 0 0 1.29,-2.88 c 0.76,-1.73 2,-4.23 4.48,-5.65 a 16.23,16.23 0 0 1 7.13,-1.8 13.22,13.22 0 0 0 3.15,-0.27 z"
       style="fill:#ff9a6c"
       id="path100" /><path
       d="m 313,307.69 c 0.13,-0.18 -0.78,-1 -2.2,-1.43 -1.42,-0.43 -2.63,-0.24 -2.62,0 0.01,0.24 1.09,0.44 2.38,0.83 1.29,0.39 2.32,0.81 2.44,0.6 z"
       style="fill:#ff9a6c"
       id="path101" /><path
       d="m 331.89,311 a 18,18 0 0 1 0.39,-3.86 c 0.35,-2.4 0.89,-5.75 1.56,-9.6 l 0.25,0.5 c -0.59,-0.27 -1.3,-0.69 -1.83,-0.86 a 2.28,2.28 0 0 0 -1.77,0.23 5.14,5.14 0 0 0 -2.06,2.49 18,18 0 0 0 -1.1,3.07 c -0.48,2.06 -0.8,4 -1.09,5.56 a 33.73,33.73 0 0 1 -1.08,5.14 c -0.13,0 0,-2 0.4,-5.25 0.21,-1.61 0.46,-3.52 0.91,-5.65 a 18,18 0 0 1 1.1,-3.27 6,6 0 0 1 2.47,-2.95 3.28,3.28 0 0 1 2.49,-0.29 17.65,17.65 0 0 1 2,0.94 l 0.32,0.15 -0.07,0.35 c -0.72,3.85 -1.38,7.18 -1.89,9.55 a 18.08,18.08 0 0 1 -1,3.75 z"
       style="fill:#ff9a6c"
       id="path102" /><path
       d="m 310,326.19 c 0,0 0,-0.27 0.08,-0.76 a 10.43,10.43 0 0 1 0.71,-2 26.31,26.31 0 0 1 4.38,-6.38 l -0.1,0.16 c 1.16,-3.41 0.11,-8.35 3.2,-12.76 a 4,4 0 0 1 3.21,-1.43 5.83,5.83 0 0 1 3.11,1.09 l 0.22,0.15 v 0.27 c -0.62,5 -1.19,9.31 -1.64,12.37 a 8,8 0 0 1 -1.12,3.49 c -0.43,0.74 -0.74,1.08 -0.79,1 a 6.3,6.3 0 0 1 0.51,-1.2 8.63,8.63 0 0 0 0.82,-3.44 c 0.28,-3.07 0.73,-7.39 1.29,-12.37 l 0.19,0.43 a 5.08,5.08 0 0 0 -2.59,-0.88 3.06,3.06 0 0 0 -2.46,1.11 7.31,7.31 0 0 0 -1.44,3 30.17,30.17 0 0 0 -0.7,3.26 c -0.18,1.09 -0.23,2.09 -0.36,3.17 a 17.78,17.78 0 0 1 -0.65,2.94 v 0.09 l -0.06,0.07 a 29.77,29.77 0 0 0 -4.54,6 c -0.96,1.61 -1.16,2.65 -1.27,2.62 z"
       style="fill:#ff9a6c"
       id="path103" /><path
       d="m 95.76,270.81 c 0.54,-0.76 4.07,-7.59 4.07,-7.59 l 20.06,17.29 c 0,0 19.66,16.46 19.66,15.4 l 3.14,-15.84 3.86,-14.41 7.21,10.9 c 0,0 22.67,44.43 22.67,45 0,0.57 14,46.52 14,46.52 l -3,18.65 -0.36,66.05 L 144.82,451 136.48,437.69 122.1,353 Z"
       style="fill:#ffffff"
       id="path104" /><polygon
       points="193.5,439.67 200.63,469.93 131.4,469.93 148.48,439.67 "
       style="fill:#263238"
       id="polygon104" /><path
       d="m 147.06,426.9 c -1.41,-21.69 -0.82,-62.62 -9.12,-84 -8.3,-21.38 -41.64,-73.78 -41.64,-73.78 l -8.19,12.72 -21.45,8.05 29.1,118 c 0,0 -11.2,26.4 -16.54,41.82 -1.6,4.61 -3.75,12.43 -6.11,20.24 h 73.66 c 0.65,-17.18 0.96,-32.8 0.29,-43.05 z"
       style="fill:#8697c4"
       id="path105" /><path
       d="m 288.1,318.83 -56.78,31.56 -39.32,-56.15 -0.34,-0.45 c -4.48,-5.93 -8.88,-12.45 -16.12,-14.08 l -1.1,-0.25 2.1,67.21 c 0,0 28,30.84 43.67,43.59 4.67,3.8 16.51,1.43 22.15,-1.69 22.59,-12.47 61.19,-44.44 61.19,-44.44 z"
       style="fill:#8697c4"
       id="path106" /><path
       d="m 193.1,408.38 c 0,0 4.14,-32.08 5.5,-40.14 7.1,-42.16 -24.18,-88.78 -24.18,-88.78 l -14.3,-2.37 -12.34,-10.18 5.45,15.22 c 0,0 17.92,50.12 21.48,66.14 3.56,16.02 5.34,65.24 5.89,64.05 0.33,-0.69 2.48,29.73 5.19,57.61 h 30.35 z"
       style="fill:#8697c4"
       id="path107" /><path
       d="m 190.46,372.66 a 5.22,5.22 0 0 1 0,-1.05 c 0,-0.74 0.09,-1.73 0.16,-3 0,-0.66 0.08,-1.37 0.13,-2.15 0.05,-0.78 0,-1.65 0,-2.56 0,-1.84 0,-3.93 -0.14,-6.24 a 130,130 0 0 0 -7,-35.31 123.14,123.14 0 0 0 -5.7,-14 v 0 0 a 118.72,118.72 0 0 0 -6.58,-12.81 c -2.17,-3.78 -4.17,-7.06 -5.85,-9.78 l -4,-6.34 c -0.43,-0.7 -0.78,-1.26 -1.06,-1.7 a 2.83,2.83 0 0 1 -0.33,-0.61 3.35,3.35 0 0 1 0.43,0.55 c 0.29,0.42 0.67,1 1.15,1.63 1,1.44 2.39,3.56 4.12,6.25 1.73,2.69 3.78,6 6,9.71 a 116.32,116.32 0 0 1 6.7,12.85 v 0 a 117.91,117.91 0 0 1 5.76,14.1 124.93,124.93 0 0 1 6.86,35.52 c 0.15,2.32 0.07,4.42 0,6.26 0,0.92 0,1.78 -0.06,2.57 -0.06,0.79 -0.13,1.5 -0.19,2.16 -0.13,1.23 -0.22,2.22 -0.3,3 a 6.51,6.51 0 0 1 -0.1,0.95 z"
       style="fill:#263238"
       id="path108" /><path
       d="m 139.18,296.15 a 3.46,3.46 0 0 1 -0.8,-0.35 l -2.16,-1.14 -7.64,-4.23 0.45,-0.22 c -0.37,3.43 -1,7.44 -1.63,11.71 -0.26,1.74 -0.5,3.43 -0.7,5.06 l -0.07,0.62 -0.48,-0.4 c -4.08,-3.48 -7.64,-6.54 -10.15,-8.74 l -2.94,-2.62 a 7.08,7.08 0 0 1 -1,-1 5.67,5.67 0 0 1 1.16,0.82 l 3.07,2.46 c 2.59,2.12 6.2,5.11 10.31,8.56 l -0.56,0.22 c 0.19,-1.64 0.42,-3.34 0.68,-5.08 0.63,-4.28 1.3,-8.28 1.72,-11.68 l 0.06,-0.46 0.39,0.23 7.51,4.44 2.09,1.29 c 0.51,0.3 0.71,0.48 0.69,0.51 z"
       style="fill:#263238"
       id="path109" /><path
       d="m 150.85,276.56 a 8.45,8.45 0 0 1 0.06,1.8 c 0,1.3 0,2.95 -0.09,4.92 -0.1,4.16 -0.3,9.89 -0.55,16.23 0,0.15 0,0.31 0,0.46 l -0.05,1.11 -0.59,-0.94 c -2.87,-4.53 -5.5,-8.68 -7.59,-12 l 0.48,-0.06 -2.08,5.71 a 12.55,12.55 0 0 1 -0.87,2.08 12.23,12.23 0 0 1 0.59,-2.17 c 0.48,-1.51 1.1,-3.46 1.85,-5.79 l 0.17,-0.53 0.31,0.47 7.72,11.88 -0.63,0.17 c 0,-0.15 0,-0.31 0,-0.46 0.25,-6.33 0.52,-12.07 0.75,-16.22 0.13,-2 0.23,-3.61 0.31,-4.91 a 8.6,8.6 0 0 1 0.21,-1.75 z"
       style="fill:#263238"
       id="path110" /><path
       d="m 66.66,289.89 a 32.72,32.72 0 0 0 -5,3.83 34,34 0 0 0 -8.66,13.67 c -2,5.79 -4,12.91 -5.2,17.39 l -5.42,82.35 a 48.34,48.34 0 0 0 3.46,21.43 l 16.81,41.37 H 98.91 L 79.34,414.58 86,353.52 Z"
       style="fill:#8697c4"
       id="path111" /><polyline
       points="89 280.47 96.97 304.39 105.47 304.39 99.95 307.9 143.56 391.23"
       style="fill:#8697c4"
       id="polyline111" /><path
       d="m 143.56,391.23 c 0,0 -0.08,-0.09 -0.2,-0.29 l -0.5,-0.88 c -0.45,-0.84 -1.08,-2 -1.87,-3.44 l -6.77,-12.7 -22.1,-42 -12.45,-23.87 -0.14,-0.26 0.25,-0.16 5.52,-3.5 0.17,0.56 h -8.5 -0.2 l -0.06,-0.19 c -2.38,-7.3 -4.33,-13.28 -5.71,-17.49 -0.64,-2 -1.15,-3.65 -1.52,-4.81 -0.16,-0.52 -0.28,-0.93 -0.38,-1.26 a 1.53,1.53 0 0 1 -0.1,-0.44 3,3 0 0 1 0.18,0.41 c 0.11,0.32 0.26,0.73 0.45,1.24 l 1.67,4.76 c 1.42,4.2 3.45,10.15 5.93,17.42 l -0.26,-0.18 h 8.5 1 l -0.88,0.56 -5.51,3.53 0.12,-0.42 c 3.8,7.26 8,15.33 12.5,23.83 8.54,16.42 16.28,31.29 21.92,42.11 2.75,5.37 5,9.73 6.57,12.8 l 1.81,3.44 0.44,0.92 a 2.18,2.18 0 0 1 0.12,0.31 z"
       style="fill:#263238"
       id="path112" /><path
       d="m 72.91,301.55 a 53.17,53.17 0 0 1 11.77,45.26"
       style="fill:#8697c4"
       id="path113" /><path
       d="m 84.68,346.81 c -0.14,0 0.45,-2.69 0.7,-7 a 55.55,55.55 0 0 0 -0.11,-7.65 60.54,60.54 0 0 0 -1.57,-9.22 61.71,61.71 0 0 0 -3.12,-8.82 55.13,55.13 0 0 0 -3.58,-6.77 c -2.34,-3.68 -4.16,-5.71 -4,-5.8 a 9.55,9.55 0 0 1 1.31,1.39 20.4,20.4 0 0 1 1.42,1.73 c 0.52,0.7 1.15,1.48 1.73,2.41 a 51.61,51.61 0 0 1 3.8,6.74 56.8,56.8 0 0 1 3.2,8.91 56,56 0 0 1 1.54,9.34 49.17,49.17 0 0 1 0,7.73 c -0.05,1.1 -0.22,2.08 -0.33,2.95 a 21.8,21.8 0 0 1 -0.39,2.21 11,11 0 0 1 -0.6,1.85 z"
       style="fill:#263238"
       id="path114" /><path
       d="m 98.91,469.93 a 1.47,1.47 0 0 1 -0.13,-0.28 c -0.08,-0.21 -0.18,-0.48 -0.32,-0.82 -0.28,-0.77 -0.67,-1.84 -1.18,-3.2 -1,-2.82 -2.47,-6.84 -4.26,-11.8 -3.56,-10 -8.48,-23.84 -13.93,-39.16 v -0.06 -0.06 c 0,-0.42 0.1,-0.88 0.15,-1.35 1.84,-16.47 3.5,-31.38 4.71,-42.21 0.62,-5.37 1.13,-9.73 1.49,-12.79 0.18,-1.48 0.32,-2.64 0.43,-3.47 l 0.12,-0.9 a 1.41,1.41 0 0 1 0.06,-0.31 1,1 0 0 1 0,0.31 c 0,0.24 0,0.54 -0.07,0.91 -0.08,0.83 -0.19,2 -0.33,3.49 -0.32,3.06 -0.77,7.42 -1.33,12.8 -1.17,10.84 -2.78,25.75 -4.55,42.23 0,0.46 -0.11,0.92 -0.15,1.35 v -0.12 l 13.79,39.22 4.1,11.85 c 0.47,1.38 0.83,2.46 1.09,3.23 l 0.27,0.85 a 1.33,1.33 0 0 1 0.04,0.29 z"
       style="fill:#263238"
       id="path115" /><path
       d="m 184,300.84 a 81.06,81.06 0 0 1 5.89,11.2 c 0.84,1.77 1.54,3.8 2.4,5.93 0.86,2.13 1.58,4.49 2.24,7 0.66,2.51 1.32,5.13 2,7.88 0.25,1.39 0.51,2.8 0.77,4.23 0.26,1.43 0.42,2.9 0.64,4.37 a 141,141 0 0 1 0.4,30.52 c -0.22,1.93 -0.41,3.69 -0.59,5.24 -0.18,1.55 -0.41,2.86 -0.56,3.94 l -0.4,2.49 a 8.72,8.72 0 0 1 -0.17,0.86 4.45,4.45 0 0 1 0.07,-0.88 c 0.07,-0.61 0.17,-1.45 0.3,-2.49 0.13,-1.04 0.34,-2.41 0.47,-3.95 0.13,-1.54 0.33,-3.31 0.51,-5.24 a 148.91,148.91 0 0 0 -0.55,-30.42 c -0.22,-1.47 -0.37,-2.94 -0.63,-4.36 -0.26,-1.42 -0.51,-2.83 -0.76,-4.21 -0.62,-2.73 -1.18,-5.38 -1.92,-7.85 -0.74,-2.47 -1.48,-4.8 -2.18,-7 -0.7,-2.2 -1.51,-4.16 -2.33,-5.93 l -1.11,-2.56 c -0.35,-0.8 -0.74,-1.53 -1.07,-2.23 -0.68,-1.4 -1.25,-2.6 -1.8,-3.55 -0.55,-0.95 -0.89,-1.67 -1.19,-2.21 A 6.86,6.86 0 0 1 184,300.84 Z"
       style="fill:#263238"
       id="path116" /><path
       d="m 231.88,367.91 a 9.19,9.19 0 0 1 -1,-2.46 24.58,24.58 0 0 1 -0.56,-12.81 9.13,9.13 0 0 1 0.82,-2.54 c 0.08,0 -0.19,1 -0.46,2.61 a 29.32,29.32 0 0 0 0.56,12.64 c 0.36,1.58 0.76,2.53 0.64,2.56 z"
       style="fill:#263238"
       id="path117" /></g></g></svg>
