<?xml version="1.0" encoding="UTF-8" standalone="no"?>
<!-- Generator: Adobe Illustrator 27.5.0, SVG Export Plug-In . SVG Version: 6.00 Build 0)  -->

<svg
   version="1.1"
   x="0px"
   y="0px"
   viewBox="0 0 500 500"
   style="enable-background:new 0 0 500 500;"
   xml:space="preserve"
   id="svg132"
   sodipodi:docname="6.svg"
   inkscape:version="1.3 (1:1.3+202307231459+0e150ed6c4)"
   xmlns:inkscape="http://www.inkscape.org/namespaces/inkscape"
   xmlns:sodipodi="http://sodipodi.sourceforge.net/DTD/sodipodi-0.dtd"
   xmlns="http://www.w3.org/2000/svg"
   xmlns:svg="http://www.w3.org/2000/svg"><defs
   id="defs132" /><sodipodi:namedview
   id="namedview132"
   pagecolor="#ffffff"
   bordercolor="#000000"
   borderopacity="0.25"
   inkscape:showpageshadow="2"
   inkscape:pageopacity="0.0"
   inkscape:pagecheckerboard="0"
   inkscape:deskcolor="#d1d1d1"
   inkscape:zoom="0.944"
   inkscape:cx="208.15678"
   inkscape:cy="290.25424"
   inkscape:window-width="1280"
   inkscape:window-height="656"
   inkscape:window-x="0"
   inkscape:window-y="27"
   inkscape:window-maximized="1"
   inkscape:current-layer="g132" />&#10;&#10;<g
   id="Objects"
   transform="matrix(0.91421474,0,0,0.91421474,22.376986,27.910978)">&#10;	<g
   id="g132">&#10;		&#10;			<circle
   transform="matrix(0.7071,-0.7071,0.7071,0.7071,-103.8042,250.1515)"
   style="fill:none;stroke:#f63d69;stroke-width:2.9883;stroke-linecap:round;stroke-miterlimit:10;stroke-dasharray:0, 5.9766;stroke-opacity:1"
   cx="250.05701"
   cy="250.37801"
   id="ellipse1"
   r="178.23399" />&#10;		<g
   id="g38">&#10;			<path
   style="fill:#aeb6bf"
   d="M 353.914,156.812 H 167.33 c -5.293,0 -9.593,4.3 -9.593,9.593 v 189.088 c 0,5.293 4.3,9.582 9.593,9.582 h 186.584 c 5.293,0 9.593,-4.289 9.593,-9.582 V 166.404 c 0,-5.293 -4.3,-9.592 -9.593,-9.592 z"
   id="path1" />&#10;			<path
   style="fill:#caced4"
   d="M 343.35,135.682 H 156.765 c -5.293,0 -9.593,4.3 -9.593,9.593 v 189.088 c 0,5.293 4.3,9.582 9.593,9.582 H 343.35 c 5.293,0 9.593,-4.289 9.593,-9.582 V 145.275 c -10e-4,-5.293 -4.3,-9.593 -9.593,-9.593 z"
   id="path2" />&#10;			<g
   id="g9">&#10;				<path
   style="fill:#e6eaf0"
   d="m 342.378,155.84 v 189.088 c 0,5.293 -4.3,9.582 -9.593,9.582 H 146.2 c -5.293,0 -9.593,-4.289 -9.593,-9.582 V 155.84 c 0,-5.293 4.3,-9.593 9.593,-9.593 h 186.585 c 5.293,0 9.593,4.3 9.593,9.593 z"
   id="path3" />&#10;				<path
   style="fill:#d2d7de"
   d="m 342.378,155.84 v 8.505 h -205.77 v -8.505 c 0,-5.293 4.3,-9.593 9.593,-9.593 h 186.585 c 5.292,0 9.592,4.3 9.592,9.593 z"
   id="path4" />&#10;				<g
   id="Artwork_4_5_">&#10;					<g
   id="g8">&#10;						<g
   id="g7">&#10;							<path
   style="fill:#f63d69;fill-opacity:1"
   d="m 172.932,156.524 c 0,1.866 -1.512,3.378 -3.378,3.378 -1.866,0 -3.378,-1.512 -3.378,-3.378 0,-1.866 1.512,-3.378 3.378,-3.378 1.866,0 3.378,1.512 3.378,3.378 z"
   id="path5" />&#10;							<path
   style="fill:#42444f;fill-opacity:1"
   d="m 162.921,156.524 c 0,1.866 -1.512,3.378 -3.378,3.378 -1.866,0 -3.378,-1.512 -3.378,-3.378 0,-1.866 1.512,-3.378 3.378,-3.378 1.866,0 3.378,1.512 3.378,3.378 z"
   id="path6" />&#10;							<path
   style="fill:#f63d69;fill-opacity:1"
   d="m 152.909,156.524 c 0,1.866 -1.512,3.378 -3.378,3.378 -1.866,0 -3.378,-1.512 -3.378,-3.378 0,-1.866 1.512,-3.378 3.378,-3.378 1.866,0 3.378,1.512 3.378,3.378 z"
   id="path7" />&#10;						</g>&#10;					</g>&#10;				</g>&#10;			</g>&#10;			<g
   id="g37">&#10;				<g
   id="Text_5_">&#10;					<g
   id="g18">&#10;						<rect
   x="164.985"
   y="294.48599"
   style="fill:#42444f"
   width="24.886"
   height="5.5560002"
   id="rect9" />&#10;						<rect
   x="192.08099"
   y="294.48599"
   style="fill:#42444f"
   width="19.157"
   height="5.5560002"
   id="rect10" />&#10;						<rect
   x="213.285"
   y="294.48599"
   style="fill:#42444f"
   width="15.21"
   height="5.5560002"
   id="rect11" />&#10;						<rect
   x="177.263"
   y="307.33899"
   style="fill:#42444f"
   width="51.231998"
   height="5.5560002"
   id="rect12" />&#10;						<rect
   x="164.985"
   y="307.33899"
   style="fill:#42444f"
   width="9.4130001"
   height="5.5560002"
   id="rect13" />&#10;						<rect
   x="193.228"
   y="320.19199"
   style="fill:#42444f"
   width="24.233"
   height="5.5560002"
   id="rect14" />&#10;						<rect
   x="219.75301"
   y="320.19199"
   style="fill:#42444f"
   width="8.743"
   height="5.5560002"
   id="rect15" />&#10;						<rect
   x="164.985"
   y="320.19199"
   style="fill:#42444f"
   width="26.032"
   height="5.5560002"
   id="rect16" />&#10;						<rect
   x="183.24001"
   y="333.04501"
   style="fill:#42444f"
   width="21.105"
   height="5.5560002"
   id="rect17" />&#10;						<rect
   x="164.985"
   y="333.04501"
   style="fill:#42444f"
   width="15.88"
   height="5.5560002"
   id="rect18" />&#10;					</g>&#10;				</g>&#10;				<g
   id="Text_6_">&#10;					<g
   id="g28">&#10;						<rect
   x="250.386"
   y="186.383"
   style="fill:#42444f"
   width="24.886"
   height="5.5560002"
   id="rect19" />&#10;						<rect
   x="277.483"
   y="186.383"
   style="fill:#42444f"
   width="19.157"
   height="5.5560002"
   id="rect20" />&#10;						<rect
   x="298.686"
   y="186.383"
   style="fill:#42444f"
   width="15.21"
   height="5.5560002"
   id="rect21" />&#10;						<rect
   x="262.66501"
   y="199.23599"
   style="fill:#42444f"
   width="51.231998"
   height="5.5560002"
   id="rect22" />&#10;						<rect
   x="250.386"
   y="199.23599"
   style="fill:#42444f"
   width="9.4130001"
   height="5.5560002"
   id="rect23" />&#10;						<rect
   x="278.629"
   y="212.089"
   style="fill:#42444f"
   width="24.233"
   height="5.5560002"
   id="rect24" />&#10;						<rect
   x="305.15399"
   y="212.089"
   style="fill:#42444f"
   width="8.743"
   height="5.5560002"
   id="rect25" />&#10;						<rect
   x="250.386"
   y="212.089"
   style="fill:#42444f"
   width="26.032"
   height="5.5560002"
   id="rect26" />&#10;						<rect
   x="268.64099"
   y="224.94299"
   style="fill:#42444f"
   width="21.105"
   height="5.5560002"
   id="rect27" />&#10;						<rect
   x="250.386"
   y="224.94299"
   style="fill:#42444f"
   width="15.88"
   height="5.5560002"
   id="rect28" />&#10;					</g>&#10;				</g>&#10;				<g
   id="Text_7_">&#10;					<g
   id="g36">&#10;						<rect
   x="250.386"
   y="240.97501"
   style="fill:#42444f"
   width="24.886"
   height="5.5560002"
   id="rect29" />&#10;						<rect
   x="277.483"
   y="240.97501"
   style="fill:#42444f"
   width="19.157"
   height="5.5560002"
   id="rect30" />&#10;						<rect
   x="298.686"
   y="240.97501"
   style="fill:#42444f"
   width="15.21"
   height="5.5560002"
   id="rect31" />&#10;						<rect
   x="278.629"
   y="254.41499"
   style="fill:#42444f"
   width="24.233"
   height="5.5560002"
   id="rect32" />&#10;						<rect
   x="305.15399"
   y="254.41499"
   style="fill:#42444f"
   width="8.743"
   height="5.5560002"
   id="rect33" />&#10;						<rect
   x="250.386"
   y="254.41499"
   style="fill:#42444f"
   width="26.032"
   height="5.5560002"
   id="rect34" />&#10;						<rect
   x="268.64099"
   y="267.26901"
   style="fill:#42444f"
   width="21.105"
   height="5.5560002"
   id="rect35" />&#10;						<rect
   x="250.386"
   y="267.26901"
   style="fill:#42444f"
   width="15.88"
   height="5.5560002"
   id="rect36" />&#10;					</g>&#10;				</g>&#10;				<path
   style="fill:#42444f"
   d="m 310.457,339.707 h -56.528 c -1.957,0 -3.543,-1.586 -3.543,-3.543 v -38.986 c 0,-1.957 1.586,-3.543 3.543,-3.543 h 56.528 c 1.957,0 3.543,1.586 3.543,3.543 v 38.986 c 0,1.956 -1.586,3.543 -3.543,3.543 z"
   id="path36" />&#10;				<path
   style="display:inline;fill:#6f7082;fill-opacity:1"
   d="m 223.183,272.576 h -52.781 c -2.991,0 -5.416,-2.425 -5.416,-5.416 v -74.749 c 0,-2.991 2.425,-5.416 5.416,-5.416 h 52.781 c 2.991,0 5.416,2.425 5.416,5.416 v 74.749 c 0,2.991 -2.425,5.416 -5.416,5.416 z"
   id="path37" />&#10;			</g>&#10;		</g>&#10;		<g
   id="g39">&#10;			&#10;				<circle
   transform="matrix(0.2248,-0.9744,0.9744,0.2248,-68.334,662.2518)"
   style="fill:#e6eaf0"
   cx="382.04199"
   cy="374.07199"
   id="ellipse38"
   r="51.551998" />&#10;			<circle
   style="fill:#35363b"
   cx="382.04199"
   cy="374.07199"
   r="46.41"
   id="circle38" />&#10;			&#10;				&#10;		</g>&#10;		<g
   id="g41">&#10;			<g
   id="Artwork_2_7_">&#10;				<g
   id="g40">&#10;					<path
   style="fill:#42444f;fill-opacity:1"
   d="M 113.844,400.83 H 71.847 c -2.049,0 -3.711,-1.661 -3.711,-3.711 v -82.131 c 0,-2.049 1.661,-3.71 3.711,-3.71 h 41.997 c 2.049,0 3.71,1.661 3.71,3.71 v 82.131 c 0.001,2.05 -1.661,3.711 -3.71,3.711 z"
   id="path39" />&#10;					<rect
   x="70.293999"
   y="315.85599"
   style="fill:#e6eaf0;fill-opacity:1"
   width="45.104"
   height="73.426003"
   id="rect39" />&#10;				</g>&#10;			</g>&#10;			<path
   style="display:inline;fill:#f63d69;fill-opacity:0.727359"
   d="m 81.693,394.134 h -7.546 c -0.931,0 -1.692,0.762 -1.692,1.692 0,0.931 0.762,1.692 1.692,1.692 h 7.546 c 0.931,0 1.692,-0.762 1.692,-1.692 10e-4,-0.93 -0.761,-1.692 -1.692,-1.692 z m 14.925,0 h -7.546 c -0.931,0 -1.692,0.762 -1.692,1.692 0,0.931 0.761,1.692 1.692,1.692 h 7.546 c 0.931,0 1.692,-0.762 1.692,-1.692 0.001,-0.93 -0.761,-1.692 -1.692,-1.692 z m 14.925,0 h -7.546 c -0.931,0 -1.692,0.762 -1.692,1.692 0,0.931 0.761,1.692 1.692,1.692 h 7.546 c 0.931,0 1.692,-0.762 1.692,-1.692 0.001,-0.93 -0.761,-1.692 -1.692,-1.692 z"
   id="path40" />&#10;		</g>&#10;		<g
   id="_x30__12_">&#10;			<g
   id="g43">&#10;				<path
   style="fill:#6f7082"
   d="M 107.023,269.862 95.814,281.07 c -0.635,0.635 -1.674,0.635 -2.309,0 v 0 c -0.635,-0.635 -0.635,-1.674 0,-2.309 l 11.209,-11.209 c 0.635,-0.635 1.674,-0.635 2.309,0 v 0 c 0.635,0.636 0.635,1.675 0,2.31 z"
   id="path41" />&#10;				<path
   style="fill:#6f7082"
   d="m 112.354,264.53 -1.301,1.301 c -0.635,0.635 -1.674,0.635 -2.309,0 v 0 c -0.635,-0.635 -0.635,-1.674 0,-2.309 l 1.301,-1.301 c 0.635,-0.635 1.674,-0.635 2.309,0 v 0 c 0.635,0.635 0.635,1.674 0,2.309 z"
   id="path42" />&#10;				<path
   style="fill:#6f7082"
   d="m 118.926,257.959 -0.232,0.232 c -0.635,0.635 -1.674,0.635 -2.309,0 v 0 c -0.635,-0.635 -0.635,-1.674 0,-2.309 l 0.232,-0.232 c 0.635,-0.635 1.674,-0.635 2.309,0 v 0 c 0.635,0.635 0.635,1.674 0,2.309 z"
   id="path43" />&#10;			</g>&#10;		</g>&#10;		<g
   id="g48">&#10;			<g
   id="g47">&#10;				<g
   id="folder_file_3_">&#10;					<g
   id="g44">&#10;						<path
   style="fill:#35363b"
   d="m 66.499,211.188 3.597,3.597 c 0.522,0.522 1.23,0.815 1.967,0.815 h 23.808 c 1.537,0 2.783,1.246 2.783,2.783 v 20.655 c 0,1.537 -1.246,2.782 -2.783,2.782 H 54.669 c -1.537,0 -2.782,-1.246 -2.782,-2.782 v -25.882 c 0,-1.537 1.246,-2.783 2.782,-2.783 h 9.863 c 0.738,0 1.446,0.293 1.967,0.815 z"
   id="path44" />&#10;					</g>&#10;				</g>&#10;				<g
   id="folder_file_4_">&#10;					<g
   id="g45">&#10;						<path
   style="fill:#42444f"
   d="m 59.804,217.883 3.597,3.597 c 0.522,0.522 1.229,0.815 1.967,0.815 h 23.808 c 1.537,0 2.782,1.246 2.782,2.782 v 20.655 c 0,1.537 -1.246,2.783 -2.782,2.783 H 47.974 c -1.537,0 -2.782,-1.246 -2.782,-2.783 V 219.85 c 0,-1.537 1.246,-2.783 2.782,-2.783 h 9.863 c 0.738,0.001 1.446,0.294 1.967,0.816 z"
   id="path45" />&#10;					</g>&#10;				</g>&#10;				<g
   id="folder_file_5_">&#10;					<g
   id="g46">&#10;						<path
   style="fill:#6f7082"
   d="m 53.109,224.578 3.597,3.597 c 0.522,0.522 1.229,0.815 1.967,0.815 h 23.808 c 1.537,0 2.782,1.246 2.782,2.782 v 20.655 c 0,1.537 -1.246,2.783 -2.782,2.783 H 41.279 c -1.537,0 -2.782,-1.246 -2.782,-2.783 v -25.882 c 0,-1.537 1.246,-2.782 2.782,-2.782 h 9.863 c 0.738,0 1.446,0.293 1.967,0.815 z"
   id="path46" />&#10;					</g>&#10;				</g>&#10;			</g>&#10;			<path
   style="fill:#ffffff"
   d="m 58.32,239.167 v 7.249 c 0,0.53 0.576,0.858 1.032,0.588 l 5.851,-3.469 c 0.436,-0.259 0.449,-0.886 0.022,-1.162 l -5.851,-3.78 c -0.455,-0.294 -1.054,0.033 -1.054,0.574 z"
   id="path47" />&#10;		</g>&#10;		<g
   id="g54">&#10;			<g
   id="g53">&#10;				<g
   id="g52">&#10;					<g
   id="folder_file_8_">&#10;						<g
   id="g49">&#10;							<path
   style="fill:#35363b"
   d="m 87.322,151.004 3.597,3.597 c 0.522,0.522 1.229,0.815 1.967,0.815 h 23.808 c 1.537,0 2.783,1.246 2.783,2.783 v 20.655 c 0,1.537 -1.246,2.783 -2.783,2.783 H 75.492 c -1.537,0 -2.783,-1.246 -2.783,-2.783 v -25.882 c 0,-1.537 1.246,-2.783 2.783,-2.783 h 9.863 c 0.738,0 1.446,0.293 1.967,0.815 z"
   id="path48" />&#10;						</g>&#10;					</g>&#10;					<g
   id="folder_file_7_">&#10;						<g
   id="g50">&#10;							<path
   style="fill:#42444f"
   d="m 80.627,157.699 3.597,3.597 c 0.522,0.522 1.23,0.815 1.967,0.815 h 23.808 c 1.537,0 2.783,1.246 2.783,2.782 v 20.655 c 0,1.537 -1.246,2.783 -2.783,2.783 H 68.797 c -1.537,0 -2.783,-1.246 -2.783,-2.783 v -25.882 c 0,-1.537 1.246,-2.783 2.783,-2.783 h 9.863 c 0.738,10e-4 1.446,0.294 1.967,0.816 z"
   id="path49" />&#10;						</g>&#10;					</g>&#10;					<g
   id="folder_file_6_">&#10;						<g
   id="g51">&#10;							<path
   style="fill:#6f7082;fill-opacity:1"
   d="m 73.932,164.394 3.597,3.597 c 0.522,0.522 1.23,0.815 1.967,0.815 h 23.808 c 1.537,0 2.783,1.246 2.783,2.783 v 20.655 c 0,1.537 -1.246,2.783 -2.783,2.783 H 62.102 c -1.537,0 -2.782,-1.246 -2.782,-2.783 v -25.882 c 0,-1.537 1.246,-2.783 2.782,-2.783 h 9.863 c 0.738,0 1.446,0.293 1.967,0.815 z"
   id="path50" />&#10;						</g>&#10;					</g>&#10;				</g>&#10;			</g>&#10;			<path
   style="fill:#e6eaf0"
   d="m 73.467,181.219 h -2.631 v 1.138 h 2.631 z m 9.498,3.527 h 7.19 v -1.139 h -7.19 z m -8.69,-2.389 h 10.177 v -1.138 H 74.275 Z m 15.877,-5.916 H 73.34 v 1.138 h 16.813 v -1.138 z m -14.297,2.389 h -5.019 v 1.138 h 5.019 z m 5.75,4.777 h -10.77 v 1.139 h 10.77 z m 4.648,3.528 h 5.12 v -1.139 h -5.12 z m -15.418,0 h 6.526 v -1.139 h -6.526 z m 6.379,-7.167 H 94.247 V 178.83 H 77.214 Z m 13.625,-3.527 v 1.138 h 3.408 v -1.138 z m -5.579,5.916 h 8.988 v -1.138 H 85.26 Z m 6.254,2.389 h 2.733 v -1.139 h -2.733 z m -12.793,2.389 h 6.723 v -1.139 h -6.723 z"
   id="path53" />&#10;		</g>&#10;		<g
   id="g56">&#10;			<path
   style="fill:#6f7082"
   d="M 432.705,119.587 H 285.383 c -6.683,0 -12.101,-5.418 -12.101,-12.101 v 0 c 0,-6.683 5.418,-12.101 12.101,-12.101 h 147.322 c 6.683,0 12.101,5.418 12.101,12.101 v 0 c 0,6.683 -5.418,12.101 -12.101,12.101 z"
   id="path54" />&#10;			&#10;				<text
   transform="translate(302.7207,110.7549)"
   style="font-size:10.2813px;font-family:Montserrat-Black;fill:#e6eaf0"
   id="text54">yourwebsite</text>&#10;			<g
   id="Search_1_">&#10;				<g
   id="g55">&#10;					<path
   style="fill:#ffffff"
   d="m 439.352,112.595 -4.357,-4.357 -0.698,0.698 -0.793,-0.793 c 1.87,-2.436 1.717,-5.925 -0.513,-8.156 -2.426,-2.426 -6.358,-2.426 -8.784,0 -2.426,2.426 -2.426,6.358 0,8.784 2.256,2.256 5.8,2.386 8.238,0.446 l 0.786,0.786 -0.698,0.698 4.357,4.357 c 0.68,0.68 1.782,0.68 2.462,0 v 0 c 0.68,-0.68 0.68,-1.783 0,-2.463 z m -10.753,-3.67 c -0.494,0 -0.97,-0.079 -1.415,-0.225 -1.259,-0.412 -2.275,-1.359 -2.781,-2.572 -0.226,-0.538 -0.35,-1.128 -0.35,-1.749 0,-2.511 2.036,-4.546 4.546,-4.546 0.62,0 1.212,0.124 1.75,0.348 1.212,0.507 2.158,1.523 2.57,2.782 0.146,0.446 0.225,0.921 0.225,1.415 0,2.512 -2.035,4.547 -4.545,4.547 z"
   id="path55" />&#10;				</g>&#10;			</g>&#10;			<path
   style="fill:#42444f"
   d="m 417.201,116.244 v 0 c -0.222,0 -0.404,-0.182 -0.404,-0.404 V 98.342 c 0,-0.222 0.182,-0.404 0.404,-0.404 v 0 c 0.222,0 0.404,0.182 0.404,0.404 v 17.498 c 0,0.222 -0.182,0.404 -0.404,0.404 z"
   id="path56" />&#10;		</g>&#10;		<g
   id="g85">&#10;			<g
   id="g62">&#10;				<path
   style="fill:#42444f"
   d="m 456.159,200.427 h -61.441 c -1.961,0 -3.551,-1.59 -3.551,-3.551 v -16.595 c 0,-1.961 1.59,-3.551 3.551,-3.551 h 61.441 c 1.961,0 3.551,1.59 3.551,3.551 v 16.595 c 0,1.961 -1.589,3.551 -3.551,3.551 z"
   id="path57" />&#10;				<rect
   x="397.11401"
   y="180.556"
   style="fill:#e6eaf0"
   width="15.87"
   height="15.87"
   id="rect57" />&#10;				<g
   id="g61">&#10;					<rect
   x="418.06601"
   y="181.002"
   style="fill:#e6eaf0"
   width="34.861"
   height="2.1400001"
   id="rect58" />&#10;					<rect
   x="418.06601"
   y="185.28101"
   style="fill:#e6eaf0"
   width="29.43"
   height="2.1400001"
   id="rect59" />&#10;					<rect
   x="418.06601"
   y="189.561"
   style="fill:#e6eaf0"
   width="34.861"
   height="2.1400001"
   id="rect60" />&#10;					<rect
   x="418.06601"
   y="193.84"
   style="fill:#e6eaf0"
   width="18.01"
   height="2.1400001"
   id="rect61" />&#10;				</g>&#10;			</g>&#10;			<g
   id="g67">&#10;				<path
   style="fill:#42444f"
   d="m 456.159,231.661 h -61.441 c -1.961,0 -3.551,-1.59 -3.551,-3.551 v -16.595 c 0,-1.961 1.59,-3.551 3.551,-3.551 h 61.441 c 1.961,0 3.551,1.59 3.551,3.551 v 16.595 c 0,1.961 -1.589,3.551 -3.551,3.551 z"
   id="path62" />&#10;				<path
   style="fill:#e6eaf0"
   d="m 405.049,227.66 v 0 c -4.382,0 -7.935,-3.553 -7.935,-7.935 v 0 c 0,-4.382 3.553,-7.935 7.935,-7.935 v 0 c 4.382,0 7.935,3.553 7.935,7.935 v 0 c 0,4.382 -3.553,7.935 -7.935,7.935 z"
   id="path63" />&#10;				<g
   id="g66">&#10;					<rect
   x="422.09201"
   y="212.23599"
   style="fill:#e6eaf0"
   width="30.834"
   height="2.1400001"
   id="rect63" />&#10;					<rect
   x="418.06601"
   y="216.515"
   style="fill:#e6eaf0"
   width="34.861"
   height="2.1400001"
   id="rect64" />&#10;					<rect
   x="426.11801"
   y="220.795"
   style="fill:#e6eaf0"
   width="26.808001"
   height="2.1400001"
   id="rect65" />&#10;					<rect
   x="418.06601"
   y="225.07401"
   style="fill:#e6eaf0"
   width="18.01"
   height="2.1400001"
   id="rect66" />&#10;				</g>&#10;			</g>&#10;			<path
   style="fill:#42444f"
   d="m 402.441,217.154 v 5.346 c 0,0.39 0.425,0.633 0.761,0.433 l 4.315,-2.559 c 0.322,-0.191 0.331,-0.654 0.016,-0.857 l -4.315,-2.788 c -0.335,-0.215 -0.777,0.026 -0.777,0.425 z"
   id="path67" />&#10;			<g
   id="g73">&#10;				<path
   style="fill:#42444f"
   d="m 456.159,262.895 h -61.441 c -1.961,0 -3.551,-1.59 -3.551,-3.551 v -16.595 c 0,-1.961 1.59,-3.551 3.551,-3.551 h 61.441 c 1.961,0 3.551,1.59 3.551,3.551 v 16.595 c 0,1.961 -1.589,3.551 -3.551,3.551 z"
   id="path68" />&#10;				<rect
   x="397.11401"
   y="243.024"
   style="fill:#e6eaf0"
   width="15.87"
   height="15.87"
   id="rect68" />&#10;				<g
   id="g72">&#10;					<rect
   x="418.06601"
   y="243.47"
   style="fill:#e6eaf0"
   width="34.861"
   height="2.1400001"
   id="rect69" />&#10;					<rect
   x="418.06601"
   y="247.74899"
   style="fill:#e6eaf0"
   width="30.476999"
   height="2.1400001"
   id="rect70" />&#10;					<rect
   x="418.06601"
   y="252.02901"
   style="fill:#e6eaf0"
   width="31.908001"
   height="2.1400001"
   id="rect71" />&#10;					<rect
   x="418.06601"
   y="256.30899"
   style="fill:#e6eaf0"
   width="18.01"
   height="2.1400001"
   id="rect72" />&#10;				</g>&#10;			</g>&#10;			<g
   id="g79">&#10;				<g
   id="g78">&#10;					<path
   style="fill:#42444f"
   d="m 456.159,294.129 h -61.441 c -1.961,0 -3.551,-1.59 -3.551,-3.551 v -16.595 c 0,-1.961 1.59,-3.551 3.551,-3.551 h 61.441 c 1.961,0 3.551,1.59 3.551,3.551 v 16.595 c 0,1.961 -1.589,3.551 -3.551,3.551 z"
   id="path73" />&#10;					<path
   style="fill:#e6eaf0"
   d="m 405.049,290.128 v 0 c -4.382,0 -7.935,-3.553 -7.935,-7.935 v 0 c 0,-4.382 3.553,-7.935 7.935,-7.935 v 0 c 4.382,0 7.935,3.553 7.935,7.935 v 0 c 0,4.382 -3.553,7.935 -7.935,7.935 z"
   id="path74" />&#10;					<g
   id="g77">&#10;						<rect
   x="420.12399"
   y="274.70401"
   style="fill:#e6eaf0"
   width="29.403"
   height="2.1400001"
   id="rect74" />&#10;						<rect
   x="418.06601"
   y="278.983"
   style="fill:#e6eaf0"
   width="21.530001"
   height="2.1400001"
   id="rect75" />&#10;						<rect
   x="418.06601"
   y="283.263"
   style="fill:#e6eaf0"
   width="34.861"
   height="2.1400001"
   id="rect76" />&#10;						<rect
   x="418.06601"
   y="287.543"
   style="fill:#e6eaf0"
   width="18.01"
   height="2.1400001"
   id="rect77" />&#10;					</g>&#10;				</g>&#10;				<path
   style="fill:#42444f"
   d="m 402.441,279.182 v 5.346 c 0,0.391 0.425,0.633 0.761,0.434 l 4.315,-2.559 c 0.322,-0.191 0.331,-0.654 0.016,-0.857 l -4.315,-2.788 c -0.335,-0.216 -0.777,0.025 -0.777,0.424 z"
   id="path78" />&#10;			</g>&#10;			<g
   id="view_eye_1_">&#10;				<g
   id="g81">&#10;					<g
   id="g80">&#10;						<path
   style="fill:#f63d69;fill-opacity:1"
   d="m 459.061,211.437 c 2.67,0 5.031,-1.325 6.461,-3.352 -1.43,-2.028 -3.791,-3.353 -6.461,-3.353 -2.67,0 -5.031,1.325 -6.461,3.353 1.431,2.027 3.791,3.352 6.461,3.352 z"
   id="path79" />&#10;					</g>&#10;					<circle
   style="fill:#ffffff"
   cx="459.061"
   cy="208.084"
   r="2.062"
   id="circle80" />&#10;				</g>&#10;			</g>&#10;			<g
   id="g84">&#10;				<g
   id="view_eye_2_">&#10;					<g
   id="g83">&#10;						<g
   id="g82">&#10;							<path
   style="fill:#f63d69;fill-opacity:1"
   d="m 459.061,273.942 c 2.67,0 5.031,-1.325 6.461,-3.353 -1.43,-2.028 -3.791,-3.353 -6.461,-3.353 -2.67,0 -5.031,1.325 -6.461,3.353 1.431,2.029 3.791,3.353 6.461,3.353 z"
   id="path81" />&#10;						</g>&#10;						<circle
   style="fill:#ffffff"
   cx="459.061"
   cy="270.59"
   r="2.062"
   id="circle82" />&#10;					</g>&#10;				</g>&#10;				&#10;					<rect
   x="453.58899"
   y="269.89999"
   transform="matrix(0.7071,-0.7071,0.7071,0.7071,-56.7679,403.7737)"
   style="fill:#35363b"
   width="10.85"
   height="1.023"
   id="rect83" />&#10;			</g>&#10;		</g>&#10;		<path
   style="fill:#e6eaf0"
   d="M 285.123,433.256 H 176.264 c -13.723,0 -24.951,-11.228 -24.951,-24.951 v 0 c 0,-13.723 11.228,-24.951 24.951,-24.951 h 108.858 c 13.723,0 24.951,11.228 24.951,24.951 v 0 c 0.001,13.723 -11.227,24.951 -24.95,24.951 z"
   id="path85" />&#10;		<g
   id="g91">&#10;			<g
   id="setting_1_">&#10;				<g
   id="g86">&#10;					<polygon
   style="fill:#ffffff"
   points="211.673,415.685 210.156,416.528 208.302,419.392 209.482,420.572 212.347,418.718 213.189,417.202 220.773,409.618 219.256,408.102 "
   id="polygon85" />&#10;					<path
   style="fill:#42444f"
   d="m 227.598,408.86 7.791,-7.791 c 0.221,-0.221 0.375,-0.497 0.448,-0.801 0.25,-1.045 0.613,-3.453 -1.582,-5.648 -2.195,-2.195 -4.602,-1.832 -5.648,-1.582 -0.304,0.073 -0.58,0.227 -0.801,0.448 l -7.791,7.791 c 1.21,1.21 1.21,3.172 0,4.381 l -0.674,0.674 -1.18,-1.18 -1.264,1.264 5.561,5.561 1.264,-1.264 -1.18,-1.18 0.674,-0.674 c 1.21,-1.209 3.172,-1.209 4.382,0.001 z"
   id="path86" />&#10;				</g>&#10;				<g
   id="g88">&#10;					<path
   style="fill:#42444f"
   d="m 184.298,413.552 9.206,-9.206 c 0.554,-0.554 1.314,-0.836 2.098,-0.821 1.459,0.028 2.927,-0.514 4.04,-1.627 1.484,-1.484 1.954,-3.599 1.409,-5.483 l -2.737,2.737 -3.018,-0.809 -0.809,-3.018 2.716,-2.716 c -1.869,-0.519 -3.956,-0.045 -5.426,1.424 -1.113,1.113 -1.656,2.581 -1.627,4.04 0.015,0.784 -0.267,1.544 -0.821,2.098 l -9.206,9.206 c -0.554,0.554 -1.314,0.836 -2.098,0.821 -1.459,-0.029 -2.927,0.514 -4.04,1.627 -2.257,2.257 -2.168,5.971 0.265,8.114 2.123,1.87 5.38,1.822 7.452,-0.105 1.228,-1.142 1.819,-2.697 1.774,-4.236 -0.022,-0.767 0.281,-1.506 0.822,-2.046 z m -7.038,4.545 -1.731,-1.731 0.634,-2.365 2.365,-0.634 1.731,1.731 -0.634,2.365 z"
   id="path87" />&#10;					<path
   style="fill:#e6eaf0"
   d="m 184.517,409.157 v 0 c -0.318,-0.318 -0.318,-0.838 0,-1.155 l 2.952,-2.952 c 0.318,-0.318 0.838,-0.318 1.155,0 v 0 c 0.318,0.318 0.318,0.837 0,1.155 l -2.952,2.952 c -0.318,0.318 -0.837,0.318 -1.155,0 z"
   id="path88" />&#10;				</g>&#10;			</g>&#10;			<g
   id="g90">&#10;				<g
   id="gear_14_">&#10;					<path
   style="fill:#42444f"
   d="m 267.957,406.441 c 0.12,-0.627 0.181,-1.275 0.181,-1.937 0,-0.663 -0.061,-1.31 -0.181,-1.939 h -3.368 c -0.154,-0.54 -0.366,-1.055 -0.635,-1.534 l 2.38,-2.379 c -0.733,-1.077 -1.663,-2.008 -2.74,-2.742 l -2.381,2.382 c -0.479,-0.268 -0.994,-0.483 -1.534,-0.635 v -3.37 c -0.627,-0.12 -1.275,-0.181 -1.937,-0.181 -0.662,0 -1.31,0.061 -1.939,0.181 v 3.37 c -0.54,0.152 -1.053,0.366 -1.534,0.635 l -2.381,-2.382 c -1.077,0.735 -2.008,1.665 -2.739,2.742 l 2.38,2.379 c -0.268,0.479 -0.483,0.994 -0.635,1.534 h -3.368 c -0.12,0.629 -0.181,1.277 -0.181,1.939 0,0.662 0.061,1.31 0.181,1.937 h 3.368 c 0.152,0.54 0.366,1.055 0.635,1.534 l -2.38,2.38 c 0.731,1.077 1.662,2.008 2.739,2.742 l 2.381,-2.382 c 0.481,0.268 0.994,0.483 1.534,0.637 v 3.368 c 0.629,0.12 1.277,0.181 1.939,0.181 0.663,0 1.31,-0.061 1.937,-0.181 v -3.368 c 0.54,-0.154 1.055,-0.368 1.534,-0.637 l 2.381,2.382 c 1.077,-0.733 2.008,-1.663 2.74,-2.74 l -2.38,-2.382 c 0.268,-0.479 0.481,-0.994 0.635,-1.534 z m -10.216,0.159 c -1.159,0 -2.098,-0.939 -2.098,-2.098 0,-1.159 0.939,-2.098 2.098,-2.098 1.159,0 2.098,0.939 2.098,2.098 0,1.159 -0.939,2.098 -2.098,2.098 z"
   id="path89" />&#10;				</g>&#10;				<g
   id="gear_15_">&#10;					<path
   style="fill:#42444f"
   d="m 277.713,414.005 c 0.073,-0.381 0.11,-0.775 0.11,-1.177 0,-0.402 -0.037,-0.796 -0.11,-1.178 h -2.046 c -0.093,-0.328 -0.223,-0.641 -0.386,-0.932 l 1.446,-1.446 c -0.445,-0.654 -1.011,-1.22 -1.665,-1.666 l -1.447,1.447 c -0.291,-0.163 -0.604,-0.293 -0.932,-0.386 v -2.047 c -0.381,-0.073 -0.775,-0.11 -1.177,-0.11 -0.402,0 -0.796,0.037 -1.178,0.11 v 2.047 c -0.328,0.092 -0.64,0.223 -0.932,0.386 l -1.447,-1.447 c -0.654,0.446 -1.22,1.012 -1.664,1.666 l 1.446,1.446 c -0.163,0.291 -0.293,0.604 -0.386,0.932 h -2.046 c -0.073,0.382 -0.11,0.776 -0.11,1.178 0,0.403 0.037,0.796 0.11,1.177 h 2.046 c 0.092,0.328 0.223,0.641 0.386,0.932 l -1.446,1.446 c 0.444,0.654 1.01,1.22 1.664,1.666 l 1.447,-1.447 c 0.292,0.163 0.604,0.293 0.932,0.387 v 2.046 c 0.382,0.073 0.776,0.11 1.178,0.11 0.403,0 0.796,-0.037 1.177,-0.11 v -2.046 c 0.328,-0.093 0.641,-0.224 0.932,-0.387 l 1.447,1.447 c 0.654,-0.445 1.22,-1.011 1.665,-1.665 l -1.446,-1.447 c 0.163,-0.291 0.292,-0.604 0.386,-0.932 z m -6.207,0.097 c -0.704,0 -1.275,-0.571 -1.275,-1.275 0,-0.704 0.571,-1.275 1.275,-1.275 0.704,0 1.275,0.571 1.275,1.275 0,0.704 -0.571,1.275 -1.275,1.275 z"
   id="path90" />&#10;				</g>&#10;			</g>&#10;		</g>&#10;		<g
   id="_x30__13_">&#10;			<path
   style="fill:#6f7082"
   d="m 262.132,86.697 h -1.896 c -1.05,0 -1.901,-0.851 -1.901,-1.901 V 82.9 c 0,-0.925 -0.62,-1.778 -1.527,-1.958 -1.219,-0.242 -2.298,0.696 -2.298,1.874 v 1.98 c 0,1.05 -0.851,1.901 -1.901,1.901 h -1.896 c -0.925,0 -1.778,0.62 -1.958,1.527 -0.242,1.219 0.696,2.298 1.874,2.298 h 1.98 c 1.05,0 1.901,0.851 1.901,1.901 v 1.896 c 0,0.925 0.62,1.778 1.527,1.958 1.219,0.242 2.298,-0.696 2.298,-1.874 v -1.98 c 0,-1.05 0.851,-1.901 1.901,-1.901 h 1.98 c 1.178,0 2.116,-1.079 1.874,-2.298 -0.18,-0.907 -1.033,-1.527 -1.958,-1.527 z"
   id="path91" />&#10;		</g>&#10;		<g
   id="_x30__14_">&#10;			<path
   style="fill:#e6eaf0"
   d="m 380.856,305.483 h -1.162 c -0.644,0 -1.165,-0.522 -1.165,-1.165 v -1.162 c 0,-0.567 -0.38,-1.09 -0.936,-1.2 -0.747,-0.148 -1.408,0.427 -1.408,1.149 v 1.214 c 0,0.643 -0.522,1.165 -1.165,1.165 h -1.162 c -0.567,0 -1.09,0.38 -1.2,0.936 -0.148,0.747 0.427,1.408 1.149,1.408 h 1.214 c 0.644,0 1.165,0.522 1.165,1.165 v 1.162 c 0,0.567 0.38,1.09 0.936,1.2 0.747,0.148 1.408,-0.427 1.408,-1.149 v -1.213 c 0,-0.644 0.522,-1.165 1.165,-1.165 h 1.214 c 0.722,0 1.297,-0.661 1.149,-1.408 -0.112,-0.557 -0.635,-0.937 -1.202,-0.937 z"
   id="path92" />&#10;		</g>&#10;		<g
   id="_x30__15_">&#10;			<path
   style="fill:#6f7082"
   d="m 123.068,420.134 h -1.407 c -0.779,0 -1.411,-0.632 -1.411,-1.411 v -1.407 c 0,-0.686 -0.46,-1.319 -1.133,-1.453 -0.904,-0.18 -1.705,0.517 -1.705,1.391 v 1.469 c 0,0.779 -0.632,1.411 -1.411,1.411 h -1.407 c -0.686,0 -1.319,0.46 -1.453,1.133 -0.179,0.904 0.517,1.705 1.391,1.705 h 1.469 c 0.779,0 1.411,0.632 1.411,1.411 v 1.407 c 0,0.686 0.46,1.319 1.133,1.453 0.904,0.18 1.705,-0.517 1.705,-1.391 v -1.469 c 0,-0.779 0.632,-1.411 1.411,-1.411 h 1.469 c 0.874,0 1.57,-0.801 1.39,-1.705 -0.133,-0.673 -0.766,-1.133 -1.452,-1.133 z"
   id="path93" />&#10;		</g>&#10;		<g
   id="_x30__16_">&#10;			<path
   style="fill:#e6eaf0"
   d="m 121.538,294.059 h -1.285 c -0.711,0 -1.288,-0.577 -1.288,-1.288 v -1.284 c 0,-0.627 -0.42,-1.204 -1.034,-1.326 -0.825,-0.164 -1.557,0.472 -1.557,1.27 v 1.341 c 0,0.711 -0.577,1.288 -1.288,1.288 h -1.285 c -0.627,0 -1.204,0.42 -1.326,1.034 -0.164,0.825 0.472,1.557 1.27,1.557 h 1.341 c 0.711,0 1.288,0.577 1.288,1.288 v 1.284 c 0,0.627 0.42,1.204 1.034,1.326 0.826,0.164 1.557,-0.472 1.557,-1.27 v -1.341 c 0,-0.711 0.577,-1.288 1.288,-1.288 h 1.341 c 0.798,0 1.433,-0.731 1.27,-1.557 -0.121,-0.614 -0.699,-1.034 -1.326,-1.034 z"
   id="path94" />&#10;		</g>&#10;		<g
   id="_x30__17_">&#10;			<path
   style="fill:#6f7082"
   d="m 137.808,136.411 h -1.162 c -0.643,0 -1.165,-0.522 -1.165,-1.165 v -1.162 c 0,-0.567 -0.38,-1.09 -0.936,-1.2 -0.747,-0.148 -1.408,0.427 -1.408,1.149 v 1.214 c 0,0.644 -0.522,1.165 -1.165,1.165 h -1.162 c -0.567,0 -1.09,0.38 -1.2,0.936 -0.148,0.747 0.427,1.409 1.149,1.409 h 1.213 c 0.644,0 1.165,0.522 1.165,1.165 v 1.162 c 0,0.567 0.38,1.09 0.936,1.2 0.747,0.148 1.408,-0.427 1.408,-1.149 v -1.214 c 0,-0.644 0.522,-1.165 1.165,-1.165 h 1.214 c 0.722,0 1.297,-0.662 1.149,-1.409 -0.112,-0.556 -0.634,-0.936 -1.201,-0.936 z"
   id="path95" />&#10;		</g>&#10;		<g
   id="g104">&#10;			<path
   style="fill:#42444f"
   d="m 224.262,89.704 c -1.256,0 -2.478,0.142 -3.656,0.403 -2.021,-13.062 -12.832,-23.214 -26.197,-24.238 -6.398,-7.534 -15.934,-12.321 -26.593,-12.321 -17.434,0 -31.88,12.792 -34.466,29.502 -1.428,-0.317 -2.91,-0.489 -4.433,-0.489 -11.252,0 -20.373,9.121 -20.373,20.373 0,11.252 9.121,20.373 20.373,20.373 h 95.344 c 9.279,0 16.802,-7.522 16.802,-16.801 0,-9.28 -7.522,-16.802 -16.801,-16.802 z"
   id="path96" />&#10;			<g
   id="g103">&#10;				<g
   id="g101">&#10;					<g
   id="g97">&#10;						<path
   style="fill:#cfd3d9"
   d="m 152.213,102.294 v 8.771 c 0,1.762 7.859,3.191 17.553,3.191 9.695,0 17.553,-1.429 17.553,-3.191 v -8.771 z"
   id="path97" />&#10;						<ellipse
   style="fill:#e6eaf0"
   cx="169.76601"
   cy="102.294"
   rx="17.552999"
   ry="3.191"
   id="ellipse97" />&#10;					</g>&#10;					<g
   id="g98">&#10;						<path
   style="fill:#cfd3d9"
   d="m 152.213,89.916 v 8.771 c 0,1.763 7.859,3.192 17.553,3.192 9.695,0 17.553,-1.429 17.553,-3.192 v -8.771 z"
   id="path98" />&#10;						<ellipse
   style="fill:#e6eaf0"
   cx="169.76601"
   cy="89.916"
   rx="17.552999"
   ry="3.191"
   id="ellipse98" />&#10;					</g>&#10;					<g
   id="g100">&#10;						<path
   style="fill:#cfd3d9"
   d="m 152.213,77.537 v 8.771 c 0,1.762 7.859,3.191 17.553,3.191 9.695,0 17.553,-1.429 17.553,-3.191 v -8.771 z"
   id="path99" />&#10;						<path
   style="fill:#e6eaf0"
   d="m 187.32,77.537 c 0,1.763 -7.859,3.192 -17.553,3.192 -9.694,0 -17.553,-1.429 -17.553,-3.192 0,-1.763 7.859,-3.191 17.553,-3.191 9.694,0 17.553,1.429 17.553,3.191 z"
   id="path100" />&#10;					</g>&#10;				</g>&#10;				<path
   style="fill:#f63d69;fill-opacity:1"
   d="m 182.901,84.223 c 0,1.106 -0.896,2.002 -2.002,2.002 -1.106,0 -2.002,-0.896 -2.002,-2.002 0,-1.106 0.896,-2.002 2.002,-2.002 1.106,-0.001 2.002,0.896 2.002,2.002 z"
   id="path101" />&#10;				<path
   style="fill:#e6eaf0"
   d="m 182.901,96.373 c 0,1.106 -0.896,2.003 -2.002,2.003 -1.106,0 -2.002,-0.897 -2.002,-2.003 0,-1.106 0.896,-2.002 2.002,-2.002 1.106,0 2.002,0.896 2.002,2.002 z"
   id="path102" />&#10;				<path
   style="fill:#e6eaf0"
   d="m 182.901,109.063 c 0,1.106 -0.896,2.003 -2.002,2.003 -1.106,0 -2.002,-0.897 -2.002,-2.003 0,-1.106 0.896,-2.002 2.002,-2.002 1.106,-0.001 2.002,0.896 2.002,2.002 z"
   id="path103" />&#10;			</g>&#10;		</g>&#10;		<circle
   style="fill:#e6eaf0"
   cx="363.14401"
   cy="131.23599"
   r="3.4679999"
   id="circle104" />&#10;		<circle
   style="fill:#6f7082"
   cx="355.11099"
   cy="77.18"
   r="2.448"
   id="circle105" />&#10;		<path
   style="fill:#42444f"
   d="m 441.969,332.399 c 0,1.577 -1.279,2.856 -2.856,2.856 -1.577,0 -2.856,-1.279 -2.856,-2.856 0,-1.578 1.279,-2.856 2.856,-2.856 1.577,0 2.856,1.279 2.856,2.856 z"
   id="path105" />&#10;		<circle
   style="fill:#e6eaf0"
   cx="124.687"
   cy="392.04999"
   r="2.244"
   id="circle106" />&#10;		<path
   style="fill:#42444f"
   d="m 36.93,260.537 c 0,1.24 -1.005,2.244 -2.244,2.244 -1.24,0 -2.244,-1.005 -2.244,-2.244 0,-1.239 1.005,-2.244 2.244,-2.244 1.239,0 2.244,1.004 2.244,2.244 z"
   id="path106" />&#10;		<circle
   style="fill:#e6eaf0"
   cx="66.132004"
   cy="100.089"
   r="3.2639999"
   id="circle107" />&#10;		<g
   id="g109">&#10;			<path
   style="fill:none;stroke:#e6eaf0;stroke-width:1.4791;stroke-miterlimit:10"
   d="m 346.551,405.884 c 0,2.141 -1.736,3.876 -3.876,3.876 -2.141,0 -3.876,-1.736 -3.876,-3.876 0,-2.141 1.735,-3.876 3.876,-3.876 2.14,-10e-4 3.876,1.735 3.876,3.876 z"
   id="path107" />&#10;			<path
   style="fill:none;stroke:#e6eaf0;stroke-width:1.4791;stroke-miterlimit:10"
   d="m 55.202,333.25 c 0,1.916 -1.553,3.469 -3.468,3.469 -1.915,0 -3.469,-1.553 -3.469,-3.469 0,-1.916 1.553,-3.468 3.469,-3.468 1.916,0 3.468,1.553 3.468,3.468 z"
   id="path108" />&#10;			<path
   style="fill:none;stroke:#e6eaf0;stroke-width:1.4791;stroke-miterlimit:10"
   d="m 49.036,202.431 c 0,1.352 -1.096,2.448 -2.448,2.448 -1.352,0 -2.448,-1.096 -2.448,-2.448 0,-1.352 1.096,-2.448 2.448,-2.448 1.352,0 2.448,1.096 2.448,2.448 z"
   id="path109" />&#10;		</g>&#10;		<circle
   style="fill:none;stroke:#e6eaf0;stroke-width:1.4791;stroke-miterlimit:10"
   cx="296.173"
   cy="56.401001"
   r="3.0599999"
   id="circle109" />&#10;		<path
   style="fill:none;stroke:#42444f;stroke-width:1.4791;stroke-miterlimit:10"
   d="m 424.087,134.334 c 0,1.465 -1.188,2.652 -2.652,2.652 -1.465,0 -2.652,-1.188 -2.652,-2.652 0,-1.465 1.188,-2.652 2.652,-2.652 1.465,0 2.652,1.188 2.652,2.652 z"
   id="path110" />&#10;		<g
   id="transform_6_">&#10;			<g
   id="g127"
   style="display:inline">&#10;				<g
   id="g118"
   style="display:inline">&#10;					<g
   id="g117">&#10;						&#10;							<line
   style="fill:none;stroke:#42444f;stroke-width:1.3394;stroke-linecap:round;stroke-miterlimit:10"
   x1="234.89799"
   y1="277.52701"
   x2="234.89799"
   y2="277.52701"
   id="line110" />&#10;						&#10;							<line
   style="fill:none;stroke:#42444f;stroke-width:1.3394;stroke-linecap:round;stroke-miterlimit:10;stroke-dasharray:0, 2.6734"
   x1="232.22501"
   y1="277.52701"
   x2="158.707"
   y2="277.52701"
   id="line111" />&#10;						&#10;							<line
   style="fill:none;stroke:#42444f;stroke-width:1.3394;stroke-linecap:round;stroke-miterlimit:10"
   x1="157.37"
   y1="277.52701"
   x2="157.37"
   y2="277.52701"
   id="line112" />&#10;						&#10;							<line
   style="fill:none;stroke:#42444f;stroke-width:1.3394;stroke-linecap:round;stroke-miterlimit:10;stroke-dasharray:0, 2.6496"
   x1="157.37"
   y1="274.87701"
   x2="157.37"
   y2="183.464"
   id="line113" />&#10;						&#10;							<line
   style="fill:none;stroke:#42444f;stroke-width:1.3394;stroke-linecap:round;stroke-miterlimit:10"
   x1="157.37"
   y1="182.13901"
   x2="157.37"
   y2="182.13901"
   id="line114" />&#10;						&#10;							<line
   style="fill:none;stroke:#42444f;stroke-width:1.3394;stroke-linecap:round;stroke-miterlimit:10;stroke-dasharray:0, 2.6734"
   x1="160.04401"
   y1="182.13901"
   x2="233.561"
   y2="182.13901"
   id="line115" />&#10;						&#10;							<line
   style="fill:none;stroke:#42444f;stroke-width:1.3394;stroke-linecap:round;stroke-miterlimit:10"
   x1="234.89799"
   y1="182.13901"
   x2="234.89799"
   y2="182.13901"
   id="line116" />&#10;						&#10;							<line
   style="fill:none;stroke:#42444f;stroke-width:1.3394;stroke-linecap:round;stroke-miterlimit:10;stroke-dasharray:0, 2.6496"
   x1="234.89799"
   y1="184.789"
   x2="234.89799"
   y2="276.202"
   id="line117" />&#10;					</g>&#10;				</g>&#10;				<g
   id="g126"
   style="display:inline">&#10;					<g
   id="g120">&#10;						<rect
   x="155.17101"
   y="179.94099"
   style="fill:#42444f"
   width="4.3979998"
   height="4.3979998"
   id="rect118" />&#10;						<rect
   x="193.935"
   y="179.94099"
   style="fill:#42444f"
   width="4.3979998"
   height="4.3979998"
   id="rect119" />&#10;						<rect
   x="232.69901"
   y="179.94099"
   style="fill:#42444f"
   width="4.3979998"
   height="4.3979998"
   id="rect120" />&#10;					</g>&#10;					<g
   id="g122">&#10;						<rect
   x="155.17101"
   y="227.634"
   style="fill:#42444f"
   width="4.3979998"
   height="4.3979998"
   id="rect121" />&#10;						<rect
   x="232.69901"
   y="227.634"
   style="fill:#42444f"
   width="4.3979998"
   height="4.3979998"
   id="rect122" />&#10;					</g>&#10;					<g
   id="g125">&#10;						<rect
   x="155.17101"
   y="275.328"
   style="fill:#42444f"
   width="4.3979998"
   height="4.3979998"
   id="rect123" />&#10;						<rect
   x="193.935"
   y="275.328"
   style="fill:#42444f"
   width="4.3979998"
   height="4.3979998"
   id="rect124" />&#10;						<rect
   x="232.69901"
   y="275.328"
   style="fill:#42444f"
   width="4.3979998"
   height="4.3979998"
   id="rect125" />&#10;					</g>&#10;				</g>&#10;			</g>&#10;		</g>&#10;		<g
   id="g131">&#10;			<path
   style="fill:#35363b"
   d="m 222.652,270.733 h -18.987 c -2.192,0 -3.969,-1.777 -3.969,-3.969 V 259 c 0,-2.192 1.777,-3.969 3.969,-3.969 h 18.987 c 2.192,0 3.969,1.777 3.969,3.969 v 7.764 c 0,2.192 -1.777,3.969 -3.969,3.969 z"
   id="path127" />&#10;			<g
   id="setting_3_">&#10;				<g
   id="g128">&#10;					<polygon
   style="fill:#6f7082"
   points="213.869,266.164 213.324,266.467 212.658,267.496 213.082,267.92 214.111,267.254 214.414,266.709 217.139,263.984 216.594,263.44 "
   id="polygon127" />&#10;					<path
   style="fill:#ffffff"
   d="m 219.591,263.712 2.799,-2.799 c 0.079,-0.079 0.135,-0.179 0.161,-0.288 0.09,-0.376 0.22,-1.241 -0.569,-2.029 -0.789,-0.789 -1.654,-0.658 -2.029,-0.569 -0.109,0.026 -0.208,0.082 -0.288,0.161 l -2.799,2.799 c 0.435,0.435 0.435,1.14 0,1.574 l -0.242,0.242 -0.424,-0.424 -0.454,0.454 1.998,1.998 0.454,-0.454 -0.424,-0.424 0.242,-0.242 c 0.435,-0.434 1.14,-0.434 1.575,10e-4 z"
   id="path128" />&#10;				</g>&#10;				<g
   id="g130">&#10;					<path
   style="fill:#ffffff"
   d="m 207.61,265.398 3.308,-3.308 c 0.199,-0.199 0.472,-0.301 0.754,-0.295 0.524,0.01 1.052,-0.185 1.452,-0.585 0.533,-0.533 0.702,-1.293 0.506,-1.97 l -0.983,0.983 -1.085,-0.291 -0.291,-1.085 0.976,-0.976 c -0.672,-0.187 -1.422,-0.016 -1.95,0.512 -0.4,0.4 -0.595,0.927 -0.585,1.452 0.005,0.281 -0.096,0.555 -0.295,0.754 l -3.307,3.307 c -0.199,0.199 -0.472,0.301 -0.754,0.295 -0.524,-0.01 -1.052,0.185 -1.452,0.585 -0.811,0.811 -0.779,2.145 0.095,2.915 0.763,0.672 1.933,0.654 2.677,-0.038 0.441,-0.41 0.654,-0.969 0.638,-1.522 -0.007,-0.274 0.102,-0.539 0.296,-0.733 z m -2.529,1.633 -0.622,-0.622 0.228,-0.85 0.85,-0.228 0.622,0.622 -0.228,0.85 z"
   id="path129" />&#10;					<path
   style="fill:#6f7082"
   d="m 207.689,263.819 v 0 c -0.114,-0.114 -0.114,-0.301 0,-0.415 l 1.061,-1.061 c 0.114,-0.114 0.301,-0.114 0.415,0 v 0 c 0.114,0.114 0.114,0.301 0,0.415 l -1.061,1.061 c -0.114,0.114 -0.301,0.114 -0.415,0 z"
   id="path130" />&#10;				</g>&#10;			</g>&#10;		</g>&#10;	</g>&#10;</g>&#10;<style
   type="text/css"
   id="style1">&#10;	.st0{fill:#000000;}&#10;</style><g
   id="g5"
   transform="matrix(0.09765625,0,0,0.09765625,348.01093,343.82932)"
   style="fill:#e6eaf0;fill-opacity:1">&#10;	<path
   class="st0"
   d="M 256.004,0 C 114.8,0.008 0.025,114.801 0,255.996 0.025,397.183 114.8,511.975 256.004,512 397.191,511.975 511.984,397.183 512,255.996 511.984,114.801 397.191,0.008 256.004,0 Z M 420.735,420.72 C 378.479,462.961 320.279,489.074 256.004,489.082 191.72,489.074 133.513,462.961 91.272,420.72 49.032,378.479 22.927,320.264 22.918,255.996 22.926,191.72 49.032,133.521 91.272,91.265 133.513,49.04 191.72,22.927 256.004,22.918 c 64.276,0.008 122.475,26.122 164.731,68.346 42.224,42.256 68.338,100.447 68.346,164.731 -0.008,64.269 -26.121,122.484 -68.346,164.725 z"
   id="path1-0"
   style="fill:#e6eaf0;fill-opacity:1" />&#10;	<path
   class="st0"
   d="m 72.03,173.859 h -1.445 c -11.141,25.118 -17.37,52.885 -17.37,82.137 0,79.817 46.109,148.821 113.138,181.918 L 72.039,173.859 Z"
   id="path2-3"
   style="fill:#e6eaf0;fill-opacity:1" />&#10;	<path
   class="st0"
   d="m 371.166,182.392 c -17.484,-24.452 -14.891,-74.438 17.26,-79.914 -35.538,-30.672 -81.8,-49.272 -132.421,-49.272 -71.894,0 -135.006,37.432 -171.017,93.857 h 74.23 v 26.795 h -29.919 l 69.269,193.887 48.59,-129.884 -22.878,-64.004 h -34.607 v -26.795 h 124.225 v 26.795 H 281.54 l 69.855,195.573 35.401,-94.572 c 6.277,-25.492 2.608,-66.891 -15.63,-92.466 z"
   id="path3-7"
   style="fill:#e6eaf0;fill-opacity:1" />&#10;	<path
   class="st0"
   d="m 444.513,181.277 c -0.08,0.77 -0.16,1.549 -0.273,2.304 -4.905,32.92 -35.394,105.127 -35.394,105.127 l -44.143,117.996 -9.849,26.346 c 62.004,-34.686 103.939,-100.946 103.939,-177.054 10e-4,-26.402 -5.097,-51.592 -14.28,-74.719 z"
   id="path4-8"
   style="fill:#e6eaf0;fill-opacity:1" />&#10;	<path
   class="st0"
   d="m 211.861,404.962 -16.665,44.537 c 19.202,6.036 39.616,9.287 60.808,9.287 23.16,0 45.388,-3.925 66.122,-11.086 L 260.451,275.046 Z"
   id="path5-8"
   style="fill:#e6eaf0;fill-opacity:1" />&#10;</g></svg>
