<svg fill="none" version="1.1" viewBox="0 0 900 600" xml:space="preserve" xmlns="http://www.w3.org/2000/svg"><defs><style>.cls-1{fill:none;}</style><style>.cls-1{fill:none;}</style><style>.cls-1{fill:none;}</style><style>.cls-1{fill:none;}</style></defs><g fill="none"><g fill="none"><path d="m0 0h900v600h-900z" fill="transparent"/><g stroke-width="4"><path d="m168.92 69.575h617.36v439.98h-617.36z" fill="none" stroke="#737e8c" stroke-dasharray="9.99529, 24.9976" stroke-linecap="round" stroke-linejoin="bevel"/><rect x="295.62" y="130.62" width="537.38" height="400.71" rx="4" fill="#d2798f" stroke="#e1e4e5"/><g stroke="#e1e4e5"><rect x="295.62" y="130.62" width="537.38" height="46.594" rx="4" fill="#d2798f" stroke="#e1e4e5"/><g fill="#e0e3e6"><rect x="314.26" y="146.15" width="15.531" height="15.531" rx="7.766"/><rect x="342.21" y="146.15" width="15.531" height="15.531" rx="7.766"/><rect x="370.17" y="146.15" width="15.531" height="15.531" rx="7.766"/><g stroke="#e1e4e5"><rect x="336" y="203.62" width="116.48" height="46.594" rx="4"/><rect x="485.1" y="203.62" width="301.31" height="46.594" rx="4"/><rect x="336" y="433.48" width="116.48" height="46.594" rx="4"/><rect x="485.1" y="433.48" width="40.381" height="46.594" rx="4"/><rect x="550.33" y="433.48" width="40.381" height="46.594" rx="4"/><rect x="615.56" y="433.48" width="40.381" height="46.594" rx="4"/><rect x="680.79" y="433.48" width="40.381" height="46.594" rx="4"/><rect x="746.03" y="433.48" width="40.381" height="46.594" rx="4"/><rect x="336" y="276.61" width="116.48" height="130.46" rx="4"/><rect x="485.1" y="276.61" width="301.31" height="130.46" rx="4"/></g></g></g></g><path d="m256.14 457.01h-3.365a1.47 1.47 0 0 1-1.469-1.469v-3.365a1.47 1.47 0 0 1 1.469-1.468h3.365c0.807 0 1.468 0.662 1.468 1.468v3.365a1.465 1.465 0 0 1-1.468 1.469zm-11.707 0.264h-3.365a1.474 1.474 0 0 1-1.469-1.468v-3.365a1.47 1.47 0 0 1 1.469-1.469h3.365c0.806 0 1.468 0.662 1.468 1.469v3.365c0 0.806-0.662 1.468-1.468 1.468zm-11.633-0.264h-3.365a1.474 1.474 0 0 1-1.468-1.469v-3.365a1.47 1.47 0 0 1 1.468-1.468h3.365c0.807 0 1.469 0.662 1.469 1.468v3.365a1.466 1.466 0 0 1-1.469 1.469zm-11.667 0h-3.364a1.475 1.475 0 0 1-1.469-1.469v-3.365a1.47 1.47 0 0 1 1.469-1.468h3.364c0.814 0 1.476 0.662 1.476 1.468v3.365a1.485 1.485 0 0 1-1.476 1.469zm-11.666 0h-3.365a1.476 1.476 0 0 1-1.475-1.469v-3.365c0-0.813 0.662-1.468 1.475-1.468h3.365c0.807 0 1.469 0.662 1.469 1.468v3.365c0 0.807-0.662 1.469-1.469 1.469zm34.579-12.721h-3.365a1.474 1.474 0 0 1-1.469-1.468v-3.372c0-0.807 0.662-1.469 1.469-1.469h3.365a1.47 1.47 0 0 1 1.468 1.469v3.365a1.467 1.467 0 0 1-1.468 1.475zm-11.667 0h-3.364a1.474 1.474 0 0 1-1.469-1.468v-3.372c0-0.807 0.662-1.469 1.469-1.469h3.364c0.807 0 1.469 0.662 1.469 1.469v3.365a1.467 1.467 0 0 1-1.469 1.475zm-11.666 0h-3.365a1.476 1.476 0 0 1-1.475-1.468v-3.372c0-0.807 0.662-1.469 1.475-1.469h3.365c0.807 0 1.469 0.662 1.469 1.469v3.365c0 0.813-0.662 1.475-1.469 1.475zm12.087 26.388h-3.365a1.474 1.474 0 0 1-1.468-1.469v-3.365a1.47 1.47 0 0 1 1.468-1.468h3.365c0.807 0 1.469 0.662 1.469 1.468v3.365a1.466 1.466 0 0 1-1.469 1.469zm11.456 0h-3.365a1.475 1.475 0 0 1-1.469-1.469v-3.365a1.47 1.47 0 0 1 1.469-1.468h3.365c0.807 0 1.468 0.662 1.468 1.468v3.365a1.465 1.465 0 0 1-1.468 1.469zm-23.123 0h-3.364a1.475 1.475 0 0 1-1.469-1.469v-3.365a1.47 1.47 0 0 1 1.469-1.468h3.364c0.814 0 1.476 0.662 1.476 1.468v3.365a1.485 1.485 0 0 1-1.476 1.469z" clip-rule="evenodd" fill="#737e8c" fill-rule="evenodd"/><path d="m246.4 273.14v73.111h-104.69v-10.97c0-10.208-9.739-13.883-32.757-12.34-18.414 1.234-24.199-5.95-24.789-9.696v-46.937l-16.6-5.509c1.255-31.437 13.236-99.029 51.127-117.89 47.365-23.579 90.588-12.892 119.08 29.307 21.013 31.128 13.648 77.493 8.631 100.92z" fill="#737e8c"/><circle cx="121.47" cy="220.88" r="8.775" fill="#fff"/><path d="m653.57 354.61a8.9609 8.9609 0 0 0-4.6428 1.3232l-7.1734-7.1961a13.929 13.929 0 0 0 0-16.111l7.1734-7.1961a8.9609 8.9609 0 0 0 4.6428 1.3232 9.2859 9.2859 0 1 0-9.2859-9.2859 8.9609 8.9609 0 0 0 1.3232 4.6429l-7.1961 7.1734a13.929 13.929 0 0 0-16.111 0l-7.1961-7.1734a8.9609 8.9609 0 0 0 1.3232-4.6429 9.2859 9.2859 0 1 0-9.2859 9.2859 8.9609 8.9609 0 0 0 4.6429-1.3232l7.1734 7.1961a13.929 13.929 0 0 0 0 16.111l-7.1734 7.1961a8.9609 8.9609 0 0 0-4.6429-1.3232 9.2859 9.2859 0 1 0 9.2859 9.2858 8.9609 8.9609 0 0 0-1.3232-4.6428l7.1961-7.1734a13.929 13.929 0 0 0 16.111 0l7.1961 7.1734a8.9609 8.9609 0 0 0-1.3232 4.6428 9.2859 9.2859 0 1 0 9.2859-9.2858zm0-41.786a4.6429 4.6429 0 1 1-4.6428 4.6429 4.6429 4.6429 0 0 1 4.6428-4.6429zm-51.071 4.6429a4.6429 4.6429 0 1 1 4.6429 4.6429 4.6429 4.6429 0 0 1-4.6429-4.6429zm4.6429 51.071a4.6429 4.6429 0 1 1 4.6429-4.6429 4.6429 4.6429 0 0 1-4.6429 4.6429zm23.214-18.571a9.2859 9.2859 0 1 1 9.2858-9.2858 9.2859 9.2859 0 0 1-9.2858 9.2858zm23.214 18.571a4.6429 4.6429 0 1 1 4.6429-4.6429 4.6429 4.6429 0 0 1-4.6429 4.6429z" fill="#88929e" stroke-width="2.3214"/><path d="m635.37 340.29a4.9075 4.9622 0 0 1-4.9075 4.9622 4.9075 4.9622 0 0 1-4.9075-4.9622 4.9075 4.9622 0 0 1 4.9075-4.9622 4.9075 4.9622 0 0 1 4.9075 4.9622z" fill="#6a7481" stroke-miterlimit="43.8" stroke-width="0" style="font-variation-settings:'wght' 600"/></g></g></svg>
