<svg fill="none" version="1.1" viewBox="0 0 900 600" xml:space="preserve" xmlns="http://www.w3.org/2000/svg"><defs><style>.cls-1{fill:none;}</style><style>.cls-1{fill:none;}</style><style>.cls-1{fill:none;}</style><style>.cls-1{fill:none;}</style><style>.cls-1{fill:none;}</style><style>.cls-1{fill:none;}</style><style>.cls-1{fill:none;}</style><linearGradient id="a-6" x1="448.09" x2="340.32" y1="543.58" y2="57.383" gradientUnits="userSpaceOnUse"><stop stop-color="#fff" offset="0"/><stop stop-color="#EEE" offset="1"/></linearGradient><linearGradient id="b-3" x1="448.31" x2="394.14" y1="335.32" y2="91.894" gradientUnits="userSpaceOnUse"><stop stop-color="#fff" offset="0"/><stop stop-color="#EEE" offset="1"/></linearGradient><linearGradient id="c-8" x1="482.6" x2="659.52" y1="558.18" y2="418.24" gradientUnits="userSpaceOnUse"><stop stop-color="#fff" offset="0"/><stop stop-color="#EEE" offset="1"/></linearGradient><linearGradient id="d-6" x1="274.94" x2="131.3" y1="436.25" y2="302.78" gradientUnits="userSpaceOnUse"><stop stop-color="#fff" offset="0"/><stop stop-color="#EEE" offset="1"/></linearGradient></defs><g fill="none"><path d="m0 0h900v600h-900z" fill="transparent"/><path d="m516.94 366.95c1.599 29.468-56.012 89.387-127.02 67.209-33.026-10.316-30.228-27.437-55.341-50.002-14.969-13.449-36.476-23.619-42.458-43.168-5.167-16.874-1.998-35.011 6.961-46.808 20.148-26.53 60.823-44.697 100.9-2.896 40.078 41.801 112.82-0.333 116.96 75.665z" fill="url(#a-6)"/><path d="m489.25 265.02c-6.077 10.847-19.388 12.338-40.713 10.276-16.038-1.553-30.664-2.754-46.703-11.499-11.226-6.117-20.113-14.392-26.599-22.429-7.028-8.707-16.838-18.644-12.029-28.517 6.609-13.561 44.828-24.983 81.941-6.305 40.768 20.524 50.049 47.873 44.103 58.474z" fill="url(#b-3)"/><path d="m564.97 524.99c-21.451 10.641-49.921-3.041-49.921-3.041s6.327-30.928 27.789-41.554c21.451-10.641 49.91 3.026 49.91 3.026s-6.328 30.928-27.778 41.569z" fill="url(#c-8)"/><path d="m205.86 401.81c17.853 10.7 43.465 0.809 43.465 0.809s-3.349-27.235-21.212-37.922c-17.852-10.7-43.454-0.821-43.454-0.821s3.349 27.235 21.201 37.934z" fill="url(#d-6)"/><g fill="#c65370"><circle transform="rotate(180 772.64 106.64)" cx="772.64" cy="106.64" r="7.499"/><circle transform="rotate(180 309.08 222.66)" cx="309.08" cy="222.66" r="13.177"/><circle transform="matrix(-1 0 0 1 147.26 330.81)" r="10.98"/><circle transform="matrix(-1 0 0 1 772.41 440.65)" r="5.124"/></g><g fill="#e1e4e5"><circle transform="matrix(-1 0 0 1 709.59 419.62)" r="6.588"/><circle transform="matrix(-1 0 0 1 146.87 436.48)" r="9.516"/><circle transform="matrix(-1 0 0 1 345.72 127.53)" r="6.964"/><circle transform="matrix(-1 0 0 1 681.06 122.19)" r="8.052"/><circle transform="matrix(.25882 .96593 .96593 -.25882 240.48 321.19)" r="7.231"/><circle transform="matrix(-1 0 0 1 380.98 78.058)" r="9.62"/><ellipse transform="matrix(-1 0 0 1 755.4 503.59)" rx="7.4" ry="5.92"/><circle transform="matrix(.25882 .96593 .96593 -.25882 619.01 84.776)" r="8.392"/><path d="m798.72 314.47h0.194c1.146 16.241 13.225 16.491 13.225 16.491s-13.32 0.26-13.32 19.027c0-18.767-13.319-19.027-13.319-19.027s12.074-0.25 13.22-16.491zm-489.48-242.12h0.117c0.691 10.287 7.978 10.446 7.978 10.446s-8.035 0.164-8.035 12.051c0-11.887-8.035-12.051-8.035-12.051s7.283-0.159 7.975-10.446zm-111.42 141.41h0.117c0.691 10.288 7.978 10.446 7.978 10.446s-8.035 0.165-8.035 12.052c0-11.887-8.035-12.052-8.035-12.052s7.284-0.158 7.975-10.446z"/></g><path d="m121.28 484.81h303.18v38.567h-303.18zm81.42-38.567h303.18v38.567h-303.18zm81.42-38.567h303.18v38.567h-303.18zm81.419-38.567h303.18v38.567h-303.18zm81.42-38.568h303.18v38.567h-303.18z" fill="#fff" stroke="#e1e4e5" stroke-width="4"/><path d="m417.85 141.59c-0.505 2.019 0.165 4.117 1.269 5.881 0.781 1.245 1.873-0.13 3.464-0.351 2.461-0.345 4.02-2.95 4.553-9.298 0.246-4.637 0.13-6.95-0.128-7.355-0.92-1.449-3.285-1.934-5.149-1.794" fill="#58353e"/><g clip-rule="evenodd" fill-rule="evenodd"><path d="m422.32 417.5s-0.15 9.534 5.735 12.92c5.883 3.386 14.999 9.679 14.999 9.679l-34.678 1.169 0.989-23.853z" fill="#f8ae9d"/><path d="m407.17 428-0.564 15.466h8.054l0.552-1.993s3.033-0.124 4.785 0.737c1.853 0.91 2.102 1.352 2.102 1.352l25.549 0.053s1.261-4.998-6.528-8.614c-7.788-3.616-13.458-8.749-14.536-9.274-1.085-0.529-3.274-0.828-4.815 0.416-1.542 1.242-2.761 4.511-6.254 4.613-4.496 0.132-7.079-5.371-8.345-2.756zm-9.959-166.09s9.465 80.313 9.759 85.896c0.295 5.583-3.04 15.218-2.975 25.661s1.218 47.249 1.218 47.249l20.879 0.34s8.775-66.511 8.87-76.484c0.094-9.974 0.899-81.702 0.899-81.702z" fill="#58353e"/><path d="m371.67 415.82-4.069 24.711 15.001-0.075 0.474-25.023z" fill="#f8ae9d"/><path d="m369.85 426.56a3 3 0 0 0-2.361 2.833l-0.129 3.897c-2.129 2.368-3.131 9.222-3.231 9.939a0.539 0.539 0 0 0-5e-3 0.127c0.284 3.354 22.224 3.306 24.193 0.144 0.083-0.132 0.088-0.287 0.063-0.441-0.22-1.342-1.439-8.143-3.796-9.992l-0.014-3.859a3.002 3.002 0 0 0-2.221-2.886l-2.461-0.662c-2.193-3.206-5.182-3.093-7.742 0.401zm9.191-163.89s-6.685 54.794-6.594 65.288c0.091 10.493 2.057 15.102-0.741 22.629-2.8 7.528-5.186 67.612-5.186 67.612l20.696 1.724s13.222-64.294 14.66-73.207c1.438-8.914 19.208-84.803 19.208-84.803z" fill="#58353e"/><path d="m482.24 164.15s-1.729-9.63-1.107-11.581c0.531-1.685 5.547-4.115 5.547-4.115s8.724-13.782 10.634-12.379c1.553 1.138-4.544 11.298-4.544 11.298s5.56 5.833 5.482 8.44c-0.078 2.608-9.074 10.77-9.074 10.77zm-89.671 2.262s5.746-1.349 5.946-10.764c0.199-9.415 0.059-12.628 0.059-12.628l13.622-0.229s0.138 10.493 0.14 14.288c6e-3 8.263 6.142 10.495 6.142 10.495s-0.51 9.035-11.979 9.68c-8.954 0.504-13.93-10.842-13.93-10.842z" fill="#f8ae9d"/><path d="m397.32 138.26c-5.646-0.218-4.725 8.047 1.14 8.036 0 0 6.303 12.674 16.2 12.707 4.767 0.016 6.323-4.23 7.752-7.211s2.478-7.439 2.565-10.169c0.094-2.911 0.106-12.474 0.106-12.474l-27.983-0.013z" fill="#f8ae9d"/><path d="m418.69 167.01s14.675 4.581 18.212 10.053c11.392 10.008 25.64 23.752 25.64 23.752s13.57-34.058 18.007-37.941c3.035-2.657 9.083 0.629 10.21 4.005 1.447 4.336-7.847 29.772-12.237 41.785v2e-3a392 392 0 0 0-1.885 5.218c-2.676 7.765-9.189 12.219-17.114 7.283-3.195-1.989-12.702-8.508-20.813-14.418-0.127 6.208-0.34 12.751-0.543 18.965-0.493 15.097-0.923 28.252 0.109 29.962 5.116 8.472-1.686 14.289-24.205 16.426-22.52 2.137-42.499 0.387-38.873-10.92 0.756-2.357 0.746-7.428 0.369-14.017a262.27 262.27 0 0 1-6.613-0.436c-9.399-0.74-16.349-4.778-17.319-15.267-0.679-7.344 13.313-41.824 18.56-53.162 1.227-2.652 3.125-4.304 5.275-5.127 0.501-0.559 1.064-0.951 1.698-1.16 3.854-1.27 17.672-7.076 17.672-7.076l16.439 10.756zm-44.645 60.694-0.037 0.096 0.045 6e-3a3.5 3.5 0 0 1-8e-3 -0.102z" fill="#c65370"/><path d="m410.52 236.81s5.013-1.008 7.066-2.619c2.051-1.611 8.265-2.749 8.265-2.749l-1.988 4.186s15.231-1.429 15.591 0.073c0.361 1.503-4.044 3.136-4.044 3.136s-2.172 4.058-4.275 6.41c-1.99 2.226-11.876 1.961-15.342 0.572-2.994-1.2-6.25-0.6-6.25-0.6z" fill="#f8ae9d"/></g><path d="m398.86 129.53c0.825 1.08 2.279 1.318 3.478 1.532 1.61 0.286 2.407 0.884 3.243 2.489 0.53 1.025 1.059 2.148 2.007 2.703 0.772 0.454 0.748-0.695 0.862-1.584a2.173 2.173 0 0 1 0.049-0.246c0.184-0.71 0.938-0.591 1.157 0.109 0.2 0.635 0.629 1.172 1.176 1.471 0.089 0.049 0.184 0.091 0.278 0.073 0.128-0.018 0.229-0.14 0.312-0.25a8.15 8.15 0 0 0 0.525-0.825c0.59-1.014 1.715-0.658 2.374 0.312 0.412 0.604 0.903 1.227 1.577 1.367 0.217 0.049 0.49 0.012 0.591-0.201 0.128-0.263-0.073-0.525-0.039-0.793 0.028-0.251 0.133-0.36 0.251-0.574 0.456-0.824 1.514-0.854 2.159-0.167 0.449 0.479 0.917 0.937 1.402 1.375 0.206 0.183 0.507 0.366 0.713 0.183 0.112-0.097 0.14-0.262 0.162-0.421 0.117-0.775 0.229-1.55 0.346-2.324 0.066-0.434 0.295-1.001 0.685-0.891 0.19 0.055 0.301 0.256 0.407 0.439 0.128 0.232 2.419 2.874 2.464 2.672 0.356-1.5 1.086-2.867 1.443-4.368 2.307-9.659-7.931-17.426-15.751-17.469-1.739-0.012-3.327 0.017-5.016 0.426-1.8 0.439-3.701 1.136-5.334 2.119-2.29 1.372-4.024 3.868-3.578 6.845" fill="#58353e"/><path d="m405.22 126.4c1.102 1.261 1.394 3.036 1.497 4.712 0.151 2.528-0.054 5.154-1.211 7.398-0.33 0.638-0.573 3.799-1.081 3.625-0.162-0.055-0.135-2.506-0.562-3.827-0.659-2.048-3.697-2.829-5.065-1.535-2.183 2.059-0.902 4.559-0.178 6.115 0.432 0.939 1.119 1.993 1.238 2.987 0.146 1.272 0.189 5.907-0.633 6.988-0.686 0.906-1.416-3.472-2.037-4.335-4.6-6.426-9.011-22.789-1.157-26.337 1.194-0.541 4.881-0.819 6-0.131" fill="#58353e"/><g stroke="#e1e4e5"><g stroke-width="4"><path d="m223.41 264.98h61.564c5.504 0 7.875-7.142 3.371-10.31l-0.191-0.134c-6.413-4.417-14.829-4.016-14.829-4.016s-1.202-23.9-23.847-23.9c-20.473 0-28.637 20.137-31.582 31.232-0.957 3.604 1.792 7.128 5.514 7.128zm444.6-164.98h61.563c5.505 0 7.876-7.142 3.372-10.31a11.69 11.69 0 0 0-0.191-0.134c-6.413-4.417-14.829-4.015-14.829-4.015s-1.202-23.9-23.847-23.9c-20.473 0-28.638 20.137-31.582 31.231-0.957 3.605 1.792 7.128 5.514 7.128zm-560.3 166.05h61.564c5.504 0 7.875-7.142 3.371-10.31a9.147 9.147 0 0 0-0.19-0.134c-6.414-4.417-14.83-4.016-14.83-4.016s-1.201-23.9-23.846-23.9c-20.474 0-28.638 20.137-31.583 31.232-0.957 3.604 1.792 7.128 5.514 7.128zm43.974-76.927h-59.644c-4.828 0-6.91-6.183-2.958-8.927l0.168-0.115c5.627-3.825 13.012-3.478 13.012-3.478s1.055-20.691 20.924-20.691c9.823 0 17.762 16.606 17.762 16.606s13.364 0 15.575 10.433c0.669 3.161-1.573 6.172-4.839 6.172zm630.71-22.373h-74.189c-6.006 0-8.597-7.603-3.68-10.976l0.208-0.142c7-4.703 16.186-4.276 16.186-4.276s1.312-25.44 26.027-25.44c12.219 0 22.095 20.417 22.095 20.417s16.622 0 19.373 12.828c0.832 3.886-1.956 7.589-6.02 7.589zm-119.99-3.214h-74.189c-6.006 0-8.597-7.603-3.68-10.976l0.208-0.142c7-4.703 16.186-4.276 16.186-4.276s1.312-25.44 26.027-25.44c12.219 0 22.095 20.417 22.095 20.417s16.622 0 19.373 12.828c0.832 3.886-1.956 7.589-6.02 7.589z" clip-rule="evenodd" fill="#fff" fill-rule="evenodd"/><path d="m551.35 122.61-18.479 5.1c-18.371 5.071-37.373-5.711-42.444-24.081-5.07-18.37 5.711-37.373 24.082-42.444 18.37-5.07 37.373 5.711 42.443 24.082l1.531 5.543c1.408 5.103-1.587 10.382-6.69 11.79-5.103 1.409-10.381-1.586-11.79-6.689l-1.53-5.544c-2.253-8.164-10.699-12.956-18.864-10.703v0c-8.164 2.254-12.956 10.7-10.703 18.864 2.254 8.165 10.7 12.957 18.864 10.703 8.165-2.253 12.957-10.7 10.703-18.864" stroke-linecap="round" stroke-linejoin="round"/><path d="m194.21 190.2h139.99c13.141 0 12.538-10.8 8.246-14.564-4.4-3.857-13.092-2.293-13.092-2.293s-2.588-7.265-11.107-10.801c-7.535-3.129-15.429-1.64-15.429-1.64s0-4.986-4.824-9.116c-4.825-4.129-11.258-3.728-11.258-3.728s-4.422-27.493-33.973-27.493c-29.55 0-32.968 25.887-32.968 25.887s-6.634 0-11.458 4.416c-4.825 4.415-5.428 9.431-5.428 9.431s-16.135-2.17-20.907 11.724c-2.844 8.282 2.999 18.177 12.207 18.177z" clip-rule="evenodd" fill="#fff" fill-rule="evenodd"/></g><g stroke-linecap="round" stroke-linejoin="round" stroke-width="5.5"><path d="m537.31 207.47-12.04 12.028-5.85-5.832m43.977-11.953h35.585m-35.307 17.654h58.848m-85.213 29.296-12.04 12.029-5.85-5.832m43.977-11.953h35.585m-35.307 17.655h58.848m-1e-3 41.192h-59.125m59.126-17.654h-58.848"/><path d="m528.37 307.64c6.5 0 11.77-5.27 11.77-11.77s-5.27-11.77-11.77-11.77-11.77 5.27-11.77 11.77 5.27 11.77 11.77 11.77z" clip-rule="evenodd"/><path d="m689.44 207.47-12.041 12.028-5.849-5.832m43.977-11.953h35.585m-35.308 17.654h58.848m-85.212 29.296-12.041 12.029-5.849-5.832m43.977-11.953h35.585m-35.308 17.655h58.848m-1e-3 41.192h-59.124m59.125-17.654h-58.848"/><path d="m680.49 307.64c6.501 0 11.77-5.27 11.77-11.77s-5.269-11.77-11.77-11.77c-6.5 0-11.769 5.27-11.769 11.77s5.269 11.77 11.769 11.77z" clip-rule="evenodd"/></g></g><path d="m634.91 491.64h3.529c0.853 0 1.54 0.694 1.54 1.54v3.529c0 0.853-0.694 1.54-1.54 1.54h-3.529c-0.846 0-1.54-0.694-1.54-1.54v-3.529a1.536 1.536 0 0 1 1.54-1.54zm12.235 0h3.529c0.846 0 1.541 0.694 1.541 1.54v3.529c0 0.853-0.695 1.54-1.541 1.54h-3.529c-0.846 0-1.54-0.694-1.54-1.54v-3.529c0-0.846 0.694-1.54 1.54-1.54zm12.244 0h3.529c0.846 0 1.54 0.694 1.54 1.54v3.529c0 0.853-0.694 1.54-1.54 1.54h-3.529a1.547 1.547 0 0 1-1.541-1.54v-3.529a1.537 1.537 0 0 1 1.541-1.54zm12.235 0h3.529c0.846 0 1.54 0.694 1.54 1.54v3.529c0 0.853-0.694 1.54-1.54 1.54h-3.529a1.548 1.548 0 0 1-1.548-1.54v-3.529a1.558 1.558 0 0 1 1.548-1.54zm12.236 0h3.529c0.854 0 1.548 0.694 1.548 1.54v3.529c0 0.853-0.694 1.54-1.548 1.54h-3.529c-0.846 0-1.54-0.694-1.54-1.54v-3.529c0-0.846 0.694-1.54 1.54-1.54zm-36.266 13.342h3.529c0.846 0 1.54 0.694 1.54 1.54v3.536c0 0.847-0.694 1.541-1.54 1.541h-3.529c-0.853 0-1.54-0.694-1.54-1.541v-3.529a1.538 1.538 0 0 1 1.54-1.547zm12.235 0h3.529c0.846 0 1.541 0.694 1.541 1.54v3.536c0 0.847-0.695 1.541-1.541 1.541h-3.529c-0.846 0-1.54-0.694-1.54-1.541v-3.529a1.538 1.538 0 0 1 1.54-1.547zm12.236 0h3.529c0.854 0 1.548 0.694 1.548 1.54v3.536c0 0.847-0.694 1.541-1.548 1.541h-3.529c-0.846 0-1.54-0.694-1.54-1.541v-3.529c0-0.853 0.694-1.547 1.54-1.547zm-12.676-27.676h3.529c0.846 0 1.54 0.694 1.54 1.541v3.529c0 0.853-0.694 1.54-1.54 1.54h-3.529a1.547 1.547 0 0 1-1.541-1.54v-3.529a1.537 1.537 0 0 1 1.541-1.541zm12.235 0h3.529c0.846 0 1.54 0.694 1.54 1.541v3.529c0 0.853-0.694 1.54-1.54 1.54h-3.529a1.548 1.548 0 0 1-1.548-1.54v-3.529a1.558 1.558 0 0 1 1.548-1.541z" clip-rule="evenodd" fill="#e1e4e5" fill-rule="evenodd"/></g></svg>
