<svg fill="none" version="1.1" viewBox="0 0 900 600" xml:space="preserve" xmlns="http://www.w3.org/2000/svg"><defs><style>.cls-1{fill:none;}</style></defs><g transform="matrix(.88333 0 0 .88333 52.5 35)" fill="none"><path d="m0 0h900v600h-900z" fill="transparent"/><rect x="148" y="49.421" width="672.62" height="501.55" rx="4" fill="#8c95a1" stroke="#e1e4e5" stroke-width="4"/><path d="m692.25 167.66a30 30 0 0 1 30 0l37.765 21.803a30 30 0 0 1 15 25.981v43.607a29.999 29.999 0 0 1-15 25.98l-37.765 21.804a30 30 0 0 1-30 0l-37.764-21.804a29.999 29.999 0 0 1-15-25.98v-43.607a30 30 0 0 1 15-25.981z" fill="#c65370"/><path d="m731.45 222.63-28.562 28.333-17.137-17" stroke="#fff" stroke-linecap="round" stroke-linejoin="round" stroke-width="8.45"/><rect x="469" y="458.42" width="51" height="62" rx="4" fill="#c65370"/><rect x="536" y="424.42" width="51" height="96" rx="4" fill="#fff" stroke="#e1e4e5" stroke-width="4"/><rect x="603" y="396.42" width="51" height="124" rx="4" fill="#c65370"/><rect x="670" y="369.42" width="51" height="151" rx="4" fill="#fff" stroke="#e1e4e5" stroke-width="4"/><rect x="737" y="337.42" width="51" height="183" rx="4" fill="#c65370"/><g fill="#fff" stroke="#e1e4e5" stroke-width="4"><rect x="148.38" y="49" width="672.62" height="58.319" rx="4" fill="#8c95a1"/><rect x="171.71" y="68.44" width="19.44" height="19.44" rx="9.72"/><rect x="206.7" y="68.44" width="19.44" height="19.44" rx="9.72"/><rect x="241.69" y="68.44" width="19.44" height="19.44" rx="9.72"/></g><path d="m189.58 246.94h136.93v111.2h-136.93z" fill="#e1e4e5"/><path d="m314.86 255.51h-112.73a7.045 7.045 0 0 0-7.045 7.045v84.545a7.045 7.045 0 0 0 7.045 7.046h112.73a7.045 7.045 0 0 0 7.045-7.046v-84.545a7.045 7.045 0 0 0-7.045-7.045zm-112.73-14.091c-11.673 0-21.136 9.463-21.136 21.136v84.545c0 11.674 9.463 21.137 21.136 21.137h112.73c11.673 0 21.136-9.463 21.136-21.137v-84.545c0-11.673-9.463-21.136-21.136-21.136z" clip-rule="evenodd" fill="#e1e4e5" fill-rule="evenodd"/><path d="m210.82 272.14a7.046 7.046 0 0 1 9.923-0.902l33.252 27.71a7.045 7.045 0 0 0 9.02 0l33.252-27.71a7.046 7.046 0 0 1 9.021 10.825l-33.252 27.71c-7.838 6.532-19.224 6.532-27.062 0l-33.252-27.71a7.046 7.046 0 0 1-0.902-9.923z" clip-rule="evenodd" fill="#fff" fill-rule="evenodd"/><rect x="375" y="168.42" width="220" height="220" rx="110" stroke="#e1e4e5" stroke-dasharray="10.6, 26.51" stroke-linecap="round" stroke-linejoin="bevel" stroke-width="4.242"/><path d="m189.58 398.94h136.93v111.2h-136.93z" fill="#e1e4e5"/><path d="m314.86 407.51h-112.73a7.045 7.045 0 0 0-7.045 7.045v84.545a7.045 7.045 0 0 0 7.045 7.046h112.73a7.045 7.045 0 0 0 7.045-7.046v-84.545a7.045 7.045 0 0 0-7.045-7.045zm-112.73-14.091c-11.673 0-21.136 9.463-21.136 21.136v84.545c0 11.674 9.463 21.137 21.136 21.137h112.73c11.673 0 21.136-9.463 21.136-21.137v-84.545c0-11.673-9.463-21.136-21.136-21.136z" clip-rule="evenodd" fill="#e1e4e5" fill-rule="evenodd"/><path d="m210.82 424.14a7.046 7.046 0 0 1 9.923-0.902l33.252 27.71a7.045 7.045 0 0 0 9.02 0l33.252-27.71a7.046 7.046 0 0 1 9.021 10.825l-33.252 27.71c-7.838 6.532-19.224 6.532-27.062 0l-33.252-27.71a7.046 7.046 0 0 1-0.902-9.923z" clip-rule="evenodd" fill="#fff" fill-rule="evenodd"/><path d="m87.577 173.94h136.93v111.2h-136.93z" fill="#c65370"/><path d="m212.86 182.51h-112.73a7.045 7.045 0 0 0-7.045 7.045v84.545a7.045 7.045 0 0 0 7.045 7.046h112.73a7.045 7.045 0 0 0 7.045-7.046v-84.545a7.045 7.045 0 0 0-7.045-7.045zm-112.73-14.091c-11.673 0-21.136 9.463-21.136 21.136v84.545c0 11.674 9.463 21.137 21.136 21.137h112.73c11.673 0 21.136-9.463 21.136-21.137v-84.545c0-11.673-9.463-21.136-21.136-21.136z" clip-rule="evenodd" fill="#c65370" fill-rule="evenodd"/><path d="m108.82 199.14a7.046 7.046 0 0 1 9.923-0.902l33.252 27.71a7.045 7.045 0 0 0 9.02 0l33.252-27.71a7.046 7.046 0 0 1 9.021 10.825l-33.252 27.71c-7.838 6.532-19.224 6.532-27.062 0l-33.252-27.71a7.046 7.046 0 0 1-0.902-9.923z" clip-rule="evenodd" fill="#fff" fill-rule="evenodd"/><circle transform="rotate(180 484.26 278.69)" cx="484.27" cy="278.69" r="18.265" fill="#c65370"/><circle transform="matrix(-1 0 0 1 422.12 506.12)" r="17.124" fill="#c65370"/><g fill="#e1e4e5"><circle transform="matrix(.5 -.86603 -.86603 -.5 396.04 344.46)" r="10.274"/><circle transform="matrix(-1 0 0 1 374.84 414.26)" r="14.84"/><circle transform="matrix(-1 0 0 1 327 158.42)" r="15.001"/><path d="m258.87 355.42h0.261c1.55 12.346 17.873 12.536 17.873 12.536s-18 0.198-18 14.464c0-14.266-18-14.464-18-14.464s16.317-0.19 17.866-12.536z"/></g></g></svg>
