<svg fill="none" version="1.1" viewBox="0 0 900 600" xml:space="preserve" xmlns="http://www.w3.org/2000/svg"><defs><style>.cls-1{fill:none;}</style><style>.cls-1{fill:none;}</style><style>.cls-1{fill:none;}</style><style>.cls-1{fill:none;}</style><style>.cls-1{fill:none;}</style><style>.cls-1{fill:none;}</style><style>.cls-1{fill:none;}</style><style>.cls-1{fill:none;}</style><style>.cls-1{fill:none;}</style><clipPath id="a"><rect width="24" height="24" fill="#fff"/></clipPath><clipPath id="b"><rect width="24" height="24" fill="#fff"/></clipPath><clipPath id="c"><rect width="24" height="24" fill="#fff"/></clipPath><clipPath id="d"><rect width="24" height="24" fill="#fff"/></clipPath></defs><g fill="none"><g fill="none"><g transform="matrix(-1,0,0,1,900,0)"><path d="m0 0h900v600h-900z" fill="transparent"/><g stroke-width="4"><path d="m168.92 69.575h617.36v439.98h-617.36z" fill="none" stroke="#737e8c" stroke-dasharray="9.99529, 24.9976" stroke-linecap="round" stroke-linejoin="bevel"/><rect x="295.62" y="130.62" width="537.38" height="400.71" rx="4" fill="#d2798f" stroke="#e1e4e5"/><g stroke="#e1e4e5"><rect x="295.62" y="130.62" width="537.38" height="46.594" rx="4" fill="#d2798f" stroke="#e1e4e5"/><g fill="#e0e3e6"><rect x="314.26" y="146.15" width="15.531" height="15.531" rx="7.766"/><rect x="342.21" y="146.15" width="15.531" height="15.531" rx="7.766"/><rect x="370.17" y="146.15" width="15.531" height="15.531" rx="7.766"/></g><g fill="#e1e4e5" stroke="#e1e4e5"><rect x="336" y="203.62" width="116.48" height="46.594" rx="4"/><rect x="485.1" y="203.62" width="301.31" height="46.594" rx="4"/><rect x="336" y="433.48" width="116.48" height="46.594" rx="4"/><rect x="485.1" y="433.48" width="40.381" height="46.594" rx="4"/><rect x="550.33" y="433.48" width="40.381" height="46.594" rx="4"/><rect x="615.56" y="433.48" width="40.381" height="46.594" rx="4"/><rect x="680.79" y="433.48" width="40.381" height="46.594" rx="4"/><rect x="746.03" y="433.48" width="40.381" height="46.594" rx="4"/><rect x="336" y="276.61" width="116.48" height="130.46" rx="4"/><rect x="485.1" y="276.61" width="301.31" height="130.46" rx="4"/></g></g></g><path d="m256.14 457.01h-3.365a1.47 1.47 0 0 1-1.469-1.469v-3.365a1.47 1.47 0 0 1 1.469-1.468h3.365c0.807 0 1.468 0.662 1.468 1.468v3.365a1.465 1.465 0 0 1-1.468 1.469zm-11.707 0.264h-3.365a1.474 1.474 0 0 1-1.469-1.468v-3.365a1.47 1.47 0 0 1 1.469-1.469h3.365c0.806 0 1.468 0.662 1.468 1.469v3.365c0 0.806-0.662 1.468-1.468 1.468zm-11.633-0.264h-3.365a1.474 1.474 0 0 1-1.468-1.469v-3.365a1.47 1.47 0 0 1 1.468-1.468h3.365c0.807 0 1.469 0.662 1.469 1.468v3.365a1.466 1.466 0 0 1-1.469 1.469zm-11.667 0h-3.364a1.475 1.475 0 0 1-1.469-1.469v-3.365a1.47 1.47 0 0 1 1.469-1.468h3.364c0.814 0 1.476 0.662 1.476 1.468v3.365a1.485 1.485 0 0 1-1.476 1.469zm-11.666 0h-3.365a1.476 1.476 0 0 1-1.475-1.469v-3.365c0-0.813 0.662-1.468 1.475-1.468h3.365c0.807 0 1.469 0.662 1.469 1.468v3.365c0 0.807-0.662 1.469-1.469 1.469zm34.579-12.721h-3.365a1.474 1.474 0 0 1-1.469-1.468v-3.372c0-0.807 0.662-1.469 1.469-1.469h3.365a1.47 1.47 0 0 1 1.468 1.469v3.365a1.467 1.467 0 0 1-1.468 1.475zm-11.667 0h-3.364a1.474 1.474 0 0 1-1.469-1.468v-3.372c0-0.807 0.662-1.469 1.469-1.469h3.364c0.807 0 1.469 0.662 1.469 1.469v3.365a1.467 1.467 0 0 1-1.469 1.475zm-11.666 0h-3.365a1.476 1.476 0 0 1-1.475-1.468v-3.372c0-0.807 0.662-1.469 1.475-1.469h3.365c0.807 0 1.469 0.662 1.469 1.469v3.365c0 0.813-0.662 1.475-1.469 1.475zm12.087 26.388h-3.365a1.474 1.474 0 0 1-1.468-1.469v-3.365a1.47 1.47 0 0 1 1.468-1.468h3.365c0.807 0 1.469 0.662 1.469 1.468v3.365a1.466 1.466 0 0 1-1.469 1.469zm11.456 0h-3.365a1.475 1.475 0 0 1-1.469-1.469v-3.365a1.47 1.47 0 0 1 1.469-1.468h3.365c0.807 0 1.468 0.662 1.468 1.468v3.365a1.465 1.465 0 0 1-1.468 1.469zm-23.123 0h-3.364a1.475 1.475 0 0 1-1.469-1.469v-3.365a1.47 1.47 0 0 1 1.469-1.468h3.364c0.814 0 1.476 0.662 1.476 1.468v3.365a1.485 1.485 0 0 1-1.476 1.469z" clip-rule="evenodd" fill="#737e8c" fill-rule="evenodd"/><path d="m246.4 273.14v73.111h-104.69v-10.97c0-10.208-9.739-13.883-32.757-12.34-18.414 1.234-24.199-5.95-24.789-9.696v-46.937l-16.6-5.509c1.255-31.437 13.236-99.029 51.127-117.89 47.365-23.579 90.588-12.892 119.08 29.307 21.013 31.128 13.648 77.493 8.631 100.92z" fill="#8c95a1"/><circle cx="121.47" cy="220.88" r="8.775" fill="#fff"/></g><g transform="matrix(-1 0 0 1 910.57 4.7081)" stroke="#737e8c" stroke-linejoin="round"><path transform="matrix(-3.5234,0,0,3.5234,677.86,298.96)" d="m5.3333 6h14.534c0.6015 0 1.0669 0.52718 0.9923 1.124l-0.75 6c-0.0626 0.5005-0.488 0.876-0.9923 0.876h-11.117" clip-path="url(#a)" fill="none"/><path transform="matrix(-3.5234,0,0,3.5234,677.86,298.96)" d="m2 4h2.2336c0.45216 0 0.84807 0.30341 0.96562 0.74003l3.1015 11.52c0.11755 0.4366 0.51346 0.74 0.96562 0.74h9.7336" clip-path="url(#b)" fill="none" stroke-linecap="round"/><circle transform="matrix(-3.5234,0,0,3.5234,677.86,298.96)" cx="10" cy="20" r="1" clip-path="url(#c)" fill="#737e8c"/><circle transform="matrix(-3.5234,0,0,3.5234,677.86,298.96)" cx="17.5" cy="20" r="1" clip-path="url(#d)" fill="#737e8c"/></g></g></g></svg>
