<svg fill="none" version="1.1" viewBox="0 0 900 600" xml:space="preserve" xmlns="http://www.w3.org/2000/svg"><defs><style>.cls-1{fill:none;}</style><style>.cls-1{fill:none;}</style><style>.cls-1{fill:none;}</style><style>.cls-1{fill:none;}</style><style>.cls-1{fill:none;}</style><style>.cls-1{fill:none;}</style><style>.cls-1{fill:none;}</style><linearGradient id="a" x1="166.73" x2="9.252" y1="404.81" y2="258.5" gradientUnits="userSpaceOnUse"><stop stop-color="#fff" offset="0"/><stop stop-color="#EEE" offset="1"/></linearGradient></defs><g fill="none"><g fill="none"><path d="m0 0h900v600h-900z" fill="transparent"/><path d="m90.992 367.06c19.571 11.73 47.649 0.887 47.649 0.887s-3.671-29.857-23.254-41.573c-19.57-11.73-47.637-0.9-47.637-0.9s3.672 29.856 23.242 41.586z" fill="url(#a)"/><g fill="#c65370"><circle transform="rotate(180,594.02,505.83)" cx="594.02" cy="505.83" r="16.791"/><circle transform="matrix(-1,0,0,1,336.55,506.9)" r="15.742"/><circle transform="matrix(-1,0,0,1,786.2,350.57)" r="7.346"/></g><g fill="#e1e4e5"><circle transform="matrix(.5 -.86603 -.86603 -.5 380.75 356.29)" r="9.445"/><circle transform="matrix(-1,0,0,1,272.06,460.3)" r="13.643"/><circle transform="matrix(-1,0,0,1,738.13,190.36)" r="11.544"/><circle transform="matrix(.25882 .96593 .96593 -.25882 564.66 367.4)" r="10.366"/><circle transform="matrix(-1,0,0,1,211.24,105.51)" r="13.79"/><circle transform="matrix(.25882 .96593 .96593 -.25882 690.22 94.546)" r="14.756"/><path d="m216.71 179.01h0.151c0.895 12.679 10.324 12.874 10.324 12.874s-10.398 0.203-10.398 14.853c0-14.65-10.397-14.853-10.397-14.853s9.425-0.195 10.32-12.874zm38.646 164.19h0.145c0.859 12.641 9.912 12.836 9.912 12.836s-9.983 0.202-9.983 14.809c0-14.607-9.983-14.809-9.983-14.809s9.05-0.195 9.909-12.836zm388.6 81.677h0.145c0.859 12.642 9.912 12.836 9.912 12.836s-9.983 0.203-9.983 14.809c0-14.606-9.982-14.809-9.982-14.809s9.049-0.194 9.908-12.836z"/></g><g stroke="#e1e4e5" stroke-width="4"><rect x="266.98" y="118.95" width="376.71" height="280.9" rx="4" fill="#fff"/><g fill="#8c95a1"><rect x="266.98" y="118.95" width="376.71" height="32.663" rx="4" stroke="#e1e4e5"/><rect x="280.04" y="129.84" width="10.888" height="10.888" rx="5.444"/><rect x="299.64" y="129.84" width="10.888" height="10.888" rx="5.444"/><rect x="319.24" y="129.84" width="10.888" height="10.888" rx="5.444"/><g stroke="#e1e4e5"><rect x="295.29" y="170.12" width="81.657" height="32.663" rx="4"/><rect x="399.81" y="170.12" width="211.22" height="32.663" rx="4"/><rect x="295.29" y="331.26" width="81.657" height="32.663" rx="4"/></g><rect x="399.81" y="331.26" width="28.308" height="32.663" rx="4"/><rect x="445.54" y="331.26" width="28.308" height="32.663" rx="4"/><rect x="491.26" y="331.26" width="28.308" height="32.663" rx="4"/><g stroke="#e1e4e5"><rect x="536.99" y="331.26" width="28.308" height="32.663" rx="4"/><rect x="582.72" y="331.26" width="28.308" height="32.663" rx="4"/><rect x="295.29" y="221.3" width="81.657" height="91.456" rx="4"/><rect x="399.81" y="221.3" width="211.22" height="91.456" rx="4"/></g></g><path d="m192.94 326h76.213m450.75 0h-76.214m-498.65-56.616h124.12m498.66 0h-124.12m-541.12-48.261h166.58m541.12 0h-166.58m-448.39 185.27v-82.746m522.25 82.746v-82.746m-613.71-182.91v82.746m705.16-82.746v82.746"/></g><circle cx="102.57" cy="126.57" r="31.574" fill="#c65370"/><path d="m88.42 127.66c7.817-10.162 20.491-10.162 28.308 0" stroke="#fff" stroke-linecap="round" stroke-linejoin="round" stroke-width="4"/><path d="m107.19 121.96a6.5323 6.5323 0 1 1-9.238 9.238 6.5323 6.5323 0 0 1 9.238-9.238" stroke="#fff" stroke-linecap="round" stroke-linejoin="round" stroke-width="4"/><circle transform="matrix(-1,0,0,1,810.27,126.57)" r="31.574" fill="#c65370"/><circle cx="134.15" cy="271.38" r="31.574" fill="#c65370"/><path d="m134.14 279.08 5.75 3.012c1.118 0.586 2.428-0.36 2.213-1.603l-1.098-6.382 4.652-4.516c0.906-0.88 0.407-2.415-0.846-2.595l-6.426-0.931-2.875-5.811c-0.558-1.131-2.175-1.131-2.737 0l-2.872 5.811-6.426 0.931c-1.252 0.18-1.751 1.715-0.845 2.595l4.652 4.516-1.098 6.382c-0.215 1.243 1.095 2.189 2.213 1.603l5.749-3.012z" clip-rule="evenodd" fill="#fff" fill-rule="evenodd"/><circle transform="matrix(-1,0,0,1,778.7,271.38)" r="31.574" fill="#c65370"/><path d="m779.24 272.47v-13.065m-3e-3 22.591a0.817 0.817 0 1 0 7e-3 1.633 0.817 0.817 0 0 0-7e-3 -1.633" stroke="#fff" stroke-linecap="round" stroke-linejoin="round" stroke-width="5"/><circle cx="192.94" cy="399.85" r="31.574" fill="#c65370"/><path d="m208.65 398.7c0 4.151-2.014 7.846-5.18 10.36-0.517 0.411-0.848 1.021-0.848 1.681l-1e-3 1.127c-1e-3 1.484-1.561 2.452-2.891 1.791l-2.42-1.202a2.14 2.14 0 0 0-1.271-0.186 16.38 16.38 0 0 1-2.465 0.187c-8.295 0-15.076-6.126-15.076-13.758s6.781-13.758 15.076-13.758 15.076 6.126 15.076 13.758z" clip-rule="evenodd" fill="#fff" fill-rule="evenodd"/><circle transform="matrix(-1,0,0,1,719.9,399.85)" r="31.574" fill="#c65370"/><path d="m730.79 410.9v1.554c0 0.857-0.697 1.553-1.555 1.553h-18.665a1.554 1.554 0 0 1-1.555-1.553v-1.579c0-4.701 5.378-7.755 10.887-7.755s10.888 3.056 10.888 7.755m-7.038-21.404a5.4444 5.4444 0 1 1-7.7 7.699 5.4444 5.4444 0 0 1 7.7-7.699zm82.562-253.51v-2.18h2.719l2.309-2.314 3.187 1.357a3.07 3.07 0 0 0 3.378-0.658l4.527-4.537a3.092 3.092 0 0 0 0.657-3.386l-2.311-5.451a3.075 3.075 0 0 0-1.629-1.632l-5.439-2.316a3.07 3.07 0 0 0-3.378 0.659l-4.526 4.537a3.089 3.089 0 0 0-0.656 3.385l1.319 3.112-9.266 9.287v4.905h4.894l2.04-2.044v-2.726h2.175z" clip-rule="evenodd" fill="#fff" fill-rule="evenodd"/><path d="m814.07 121.5a2.36 2.36 0 0 0-2.352 2.363 2.354 2.354 0 0 0 2.363 2.351 2.358 2.358 0 0 0 0-4.714" clip-rule="evenodd" fill="#c65370" fill-rule="evenodd"/><circle cx="456.4" cy="387.68" r="103.25" fill="#c65370"/><path transform="matrix(2.256,0,0,2.256,421.9,354.69)" d="m31.514 11.177-15.514-7.467-15.514 7.467 2.186 1.318v11.529h1.066v-10.886l3.199 1.929v13.223h18.126v-13.219zm-15.514-6.284 13.275 6.39-13.267 8.008-13.282-8.009 13.274-6.39zm7.997 22.331h-15.994v-11.514l8.005 4.827 7.989-4.823z" fill="#fff" stroke="#fff" stroke-width="1.773"/></g></g></svg>
