<svg fill="none" version="1.1" viewBox="0 0 900 600" xml:space="preserve" xmlns="http://www.w3.org/2000/svg"><defs><style>.cls-1{fill:none;}</style><style>.cls-1{fill:none;}</style><style>.cls-1{fill:none;}</style><style>.cls-1{fill:none;}</style><style>.cls-1{fill:none;}</style><style>.cls-1{fill:none;}</style><style>.cls-1{fill:none;}</style></defs><g fill="none"><path d="m0 0h900v600h-900z" fill="transparent"/><path d="m420.29 113.18v-39.592c0-21.866-17.726-39.592-39.592-39.592h-197.96c-21.866 0-39.592 17.726-39.592 39.592v98.981" clip-rule="evenodd" fill="#fff" fill-rule="evenodd"/><path d="m420.29 113.18v-39.592c0-21.866-17.726-39.592-39.592-39.592h-197.96c-21.866 0-39.592 17.726-39.592 39.592v98.981" stroke="#e1e4e5" stroke-width="11"/><path d="m143.14 120.11h127.98a19.794 19.794 0 0 0 16.47-8.81l27.774-41.75a19.797 19.797 0 0 1 16.53-8.829h88.39c21.866 0 39.592 17.726 39.592 39.593v197.96c0 21.866-17.726 39.592-39.592 39.592h-277.15c-21.866 0-39.592-17.726-39.592-39.592v-138.57c0-21.866 17.726-39.592 39.592-39.592z" clip-rule="evenodd" fill="#fff" fill-rule="evenodd" stroke="#e1e4e5" stroke-width="11"/><g fill="#e1e4e5"><path d="m180.68 287.11v3.07h3.068a2.344 2.344 0 0 1 2.333 2.335 2.344 2.344 0 0 1-2.333 2.335h-3.068v3.07a2.344 2.344 0 0 1-2.333 2.335 2.344 2.344 0 0 1-2.332-2.335v-3.058h-3.081a2.344 2.344 0 0 1-2.333-2.334 2.344 2.344 0 0 1 2.333-2.335h3.068v-3.083a2.346 2.346 0 0 1 2.345-2.335 2.344 2.344 0 0 1 2.333 2.335zm-25.65-21.512v4.299h4.449c1.856 0 3.382 1.474 3.382 3.269 0 1.794-1.526 3.268-3.382 3.268h-4.449v4.299c0 1.794-1.526 3.268-3.382 3.268-1.857 0-3.383-1.474-3.383-3.268v-4.281h-4.467c-1.857 0-3.383-1.475-3.383-3.269s1.526-3.268 3.383-3.268h4.449v-4.317c0-1.794 1.525-3.268 3.401-3.268 1.856 0 3.382 1.474 3.382 3.268z" clip-rule="evenodd" fill-rule="evenodd"/><circle transform="matrix(-1 0 0 1 159.02 372.36)" r="3.59"/><circle transform="matrix(-1 0 0 1 371.37 112.12)" r="5.129"/><circle transform="matrix(.25882 .96593 .96593 -.25882 72.139 262.56)" r="5.012"/><circle transform="matrix(-1 0 0 1 103.62 77.356)" r="6.668"/></g><path d="m793.76 341.52v-39.593c0-21.866-17.726-39.592-39.592-39.592h-197.96c-21.866 0-39.592 17.726-39.592 39.592v98.981" clip-rule="evenodd" fill="#fff" fill-rule="evenodd"/><path d="m793.76 341.52v-39.593c0-21.866-17.726-39.592-39.592-39.592h-197.96c-21.866 0-39.592 17.726-39.592 39.592v98.981" stroke="#e1e4e5" stroke-width="11"/><path d="m516.62 348.45h127.98a19.797 19.797 0 0 0 16.47-8.809l27.774-41.75a19.799 19.799 0 0 1 16.53-8.83h88.39c21.866 0 39.592 17.726 39.592 39.593v197.96c0 21.866-17.726 39.592-39.592 39.592h-277.15c-21.866 0-39.592-17.726-39.592-39.592v-138.57c0-21.866 17.726-39.592 39.592-39.592z" clip-rule="evenodd" fill="#fff" fill-rule="evenodd" stroke="#e1e4e5" stroke-width="11"/><g fill="#e1e4e5"><path d="m554.15 515.45v3.071h3.068a2.344 2.344 0 0 1 2.333 2.335 2.344 2.344 0 0 1-2.333 2.334h-3.068v3.071a2.344 2.344 0 0 1-2.333 2.335 2.344 2.344 0 0 1-2.332-2.335v-3.058h-3.081a2.344 2.344 0 0 1-2.333-2.335 2.344 2.344 0 0 1 2.333-2.334h3.068v-3.084a2.346 2.346 0 0 1 2.345-2.334 2.344 2.344 0 0 1 2.333 2.334zm-25.65-21.512v4.299h4.449c1.856 0 3.382 1.474 3.382 3.269 0 1.794-1.526 3.268-3.382 3.268h-4.449v4.299c0 1.794-1.526 3.268-3.382 3.268-1.857 0-3.383-1.474-3.383-3.268v-4.281h-4.467c-1.857 0-3.383-1.475-3.383-3.269s1.526-3.268 3.383-3.268h4.449v-4.317c0-1.794 1.525-3.268 3.401-3.268 1.856 0 3.382 1.474 3.382 3.268z" clip-rule="evenodd" fill-rule="evenodd"/><circle transform="matrix(-1 0 0 1 441.05 404.47)" r="3.59"/><circle transform="matrix(-1 0 0 1 744.84 340.46)" r="5.129"/><circle transform="matrix(.25882 .96593 .96593 -.25882 303.46 513.33)" r="5.012"/><circle transform="matrix(-1 0 0 1 484.18 303.4)" r="6.668"/></g><g stroke="#e1e4e5" stroke-linecap="round" stroke-linejoin="round" stroke-width="11"><path d="m540.51 220.92h60.066c20.722 0 37.54-16.818 37.54-37.541 0-20.722-16.818-37.541-37.54-37.541h-82.59" stroke-miterlimit="10"/><path d="m535.25 164.6-19.221-19.221 19.221-19.221"/><path d="m394.92 380.64h-60.065c-20.723 0-37.541 16.818-37.541 37.541 0 20.722 16.818 37.54 37.541 37.54l82.59 1e-3" stroke-miterlimit="10"/><path d="m400.18 436.95 19.221 19.221-19.221 19.221"/></g><path d="m264.21 155.02a30 30 0 0 1 30 0l37.482 21.64a30 30 0 0 1 15 25.981v43.281a30 30 0 0 1-15 25.981l-37.482 21.641a30 30 0 0 1-30 0l-37.483-21.641a30 30 0 0 1-15-25.981v-43.281a30 30 0 0 1 15-25.981z" fill="#c65370"/><path d="m303.31 209.72-28.443 28.215-17.066-16.929" stroke="#fff" stroke-linecap="round" stroke-linejoin="round" stroke-width="8.45"/><path d="m641.4 386.61a30 30 0 0 1 30 0l37.482 21.641a30 30 0 0 1 15 25.981v43.281a29.999 29.999 0 0 1-15 25.98l-37.482 21.641a30 30 0 0 1-30 0l-37.483-21.641a29.999 29.999 0 0 1-15-25.98v-43.281a30 30 0 0 1 15-25.981z" fill="#c65370"/><path d="m680.5 441.31-28.443 28.215-17.066-16.929" stroke="#fff" stroke-linecap="round" stroke-linejoin="round" stroke-width="8.45"/></g></svg>
