<svg fill="none" version="1.1" viewBox="0 0 900 600" xml:space="preserve" xmlns="http://www.w3.org/2000/svg"><defs><style>.cls-1{fill:none;}</style><style>.cls-1{fill:none;}</style><style>.cls-1{fill:none;}</style><style>.cls-1{fill:none;}</style><style>.cls-1{fill:none;}</style><style>.cls-1{fill:none;}</style><style>.cls-1{fill:none;}</style><linearGradient id="a-9" x1="307.67" x2="18.253" y1="396.56" y2="127.66" gradientUnits="userSpaceOnUse"><stop stop-color="#fff" offset="0"/><stop stop-color="#EEE" offset="1"/></linearGradient></defs><g transform="matrix(.76834 -.022178 .022178 .76834 213.81 -237.35)"><rect transform="rotate(17.384)" x="497.85" y="582.33" width="179.38" height="118.69" rx="22.064" ry="18.503" fill="#fff" stroke="#e1e4e5" stroke-linecap="round" stroke-miterlimit="43.8" stroke-width="5.4256" style="font-variation-settings:'wght' 600"/><g transform="matrix(2.9457 0 0 2.9457 346.3 778.26)" fill="#b6bdbf" stroke-width=".3255"><path d="m3.2578 3.1168c0.4199 0.34112 0.57742 0.31509 1.3659 0.26249l7.4334-0.44634c0.1576 0 0.0265-0.15728-0.026-0.18342l-1.2346-0.89246c-0.2365-0.18364-0.5517-0.39396-1.1557-0.34135l-7.1978 0.52498c-0.26249 0.02603-0.31493 0.15727-0.21038 0.26248zm0.44629 1.7323v7.8212c0 0.4203 0.21005 0.5776 0.68283 0.5516l8.1693-0.4727c0.473-0.026 0.5257-0.3152 0.5257-0.6566v-7.7687c0-0.34091-0.1311-0.52476-0.4207-0.49852l-8.537 0.49852c-0.31504 0.02647-0.42012 0.18406-0.42012 0.5252zm8.0647 0.41955c0.0524 0.23646 0 0.4727-0.2369 0.49927l-0.3936 0.07842v5.7741c-0.3418 0.1837-0.6569 0.2887-0.9195 0.2887-0.42045 0-0.52575-0.1313-0.84068-0.5248l-2.5747-4.0419v3.9107l0.81471 0.1838s0 0.4722-0.6573 0.4722l-1.8121 0.1051c-0.05264-0.1051 0-0.3673 0.1838-0.4199l0.47287-0.131v-5.1706l-0.65656-0.05261c-0.05265-0.23646 0.07849-0.57737 0.4465-0.60384l1.944-0.13103 2.6794 4.0945v-3.6222l-0.68316-0.07841c-0.05244-0.28906 0.15741-0.49896 0.42012-0.52499zm-9.9301-3.9366 7.4868-0.55133c0.91943-0.078855 1.1559-0.026034 1.7338 0.39373l2.3898 1.6797c0.3944 0.28885 0.5258 0.36749 0.5258 0.68237v9.2127c0 0.5773-0.2103 0.9188-0.9457 0.971l-8.6944 0.5251c-0.55201 0.0263-0.81473-0.0524-1.1038-0.4201l-1.76-2.2834c-0.31536-0.4203-0.4465-0.7348-0.4465-1.1027v-8.1888c0-0.47216 0.21038-0.866 0.81408-0.91829z" fill="#b6bdbf" stroke-width=".3255"/></g></g><g fill="none"><path d="m0 0h900v600h-900z" fill="transparent"/><path d="m168.48 327.17c35.968 21.558 87.571 1.63 87.571 1.63s-6.747-54.872-42.737-76.404c-35.968-21.558-87.55-1.654-87.55-1.654s6.748 54.871 42.716 76.428z" fill="url(#a-9)"/><g fill="#c65370"><circle transform="rotate(180 604.31 531.48)" cx="604.31" cy="531.48" r="18.265"/><circle transform="matrix(-1 0 0 1 324.23 532.64)" r="17.124"/><circle transform="scale(-1,1)" cx="-581.62" cy="458.45" r="7.991"/></g><g fill="#e1e4e5"><circle transform="matrix(.5 -.86603 -.86603 -.5 338.43 310.55)" r="10.274"/><circle transform="matrix(-1 0 0 1 130.61 435.84)" r="14.84"/><circle transform="matrix(-1 0 0 1 716.33 233.04)" r="12.557"/></g><circle transform="matrix(.25882 .96593 .96593 -.25882 0 0)" cx="590.3" cy="620.35" r="11.276" fill="#c65370"/><g fill="#e1e4e5"><circle transform="matrix(-1 0 0 1 250.64 66.001)" r="15.001"/><circle transform="matrix(.25882 .96593 .96593 -.25882 614.79 97.032)" r="23.468"/><path d="m193.87 175.97h0.164c0.974 13.792 11.231 14.004 11.231 14.004s-11.311 0.221-11.311 16.157c0-15.936-11.31-16.157-11.31-16.157s10.252-0.212 11.226-14.004zm42.039 178.6h0.158c0.935 13.751 10.783 13.963 10.783 13.963s-10.86 0.22-10.86 16.109c0-15.889-10.859-16.109-10.859-16.109s9.844-0.212 10.778-13.963zm464.66 22.626h0.158c0.935 13.751 10.783 13.963 10.783 13.963s-10.86 0.22-10.86 16.109c0-15.889-10.859-16.109-10.859-16.109s9.844-0.212 10.778-13.963z"/></g><path d="m464.48 540-34.014-20.409a24.005 24.005 0 0 1-9.121-9.849l-2.341-4.682a24.014 24.014 0 0 1-2.534-10.736v-13.672m183.98-201.85v-19.996c0-22.095-17.897-39.992-39.993-39.992h-89.282a19.995 19.995 0 0 1-16.637-8.898l-28.115-42.172a19.99 19.99 0 0 0-16.636-8.918h-89.283c-22.096 0-39.992 17.896-39.992 39.992v257.01c0 12.678 10.258 22.936 22.935 22.936v0c10.118 0 19.057-6.639 21.956-16.337l46.531-155.11c5.079-16.937 20.656-28.515 38.313-28.515h196.78c26.695 0 45.891 25.635 38.373 51.25l-35.213 119.98c-4.999 17.037-20.616 28.735-38.373 28.735h-268.37" fill="none" stroke="#e1e4e5" stroke-linecap="round" stroke-linejoin="round" stroke-width="4"/><path d="m520.49 523.99-16.66-46.105a32.003 32.003 0 0 0-12.344-15.752l-35.912-23.948a13.17 13.17 0 0 0-16.618 1.644v0c-5.142 5.142-5.143 13.479-2e-3 18.622l17.522 17.529v16.003" stroke="#e1e4e5" stroke-linecap="round" stroke-linejoin="round" stroke-width="4"/><rect x="191.72" y="271.2" width="116.57" height="116.57" rx="50" fill="#c65370"/><g clip-rule="evenodd" fill-rule="evenodd"><path d="m276.49 353.94v3.897c0 2.152-1.723 3.898-3.847 3.898h-46.152c-2.123 0-3.846-1.746-3.846-3.898v-3.96c0-11.793 13.299-19.455 26.922-19.455s26.923 7.666 26.923 19.455m-17.266-53.692c5.333 5.333 5.333 13.98 0 19.313s-13.98 5.333-19.313 0-5.333-13.98 0-19.313 13.98-5.333 19.313 0z" fill="#fff"/><path d="m546.63 117.17-23.634-23.567a16.744 16.744 0 0 0-11.817-4.883h-59.938c-9.234 0-16.714 7.458-16.714 16.666v116.67c0 9.208 7.48 16.667 16.714 16.667h83.572c9.234 0 16.714-7.459 16.714-16.667v-93.1c0-4.417-1.763-8.658-4.897-11.783z" fill="#fff" stroke="#e1e4e5" stroke-width="4"/><path d="m504.18 179.21-28.749 16.27c-7.0778 4.0007-15.835-1.1421-15.835-9.3096v-32.531c0-8.1744 8.7427-13.31 15.835-9.3088l28.749 16.269c7.2212 4.0728 7.2212 14.524 0 18.611z" fill="#c65370" stroke-width=".75885"/><path d="m464.28 115.52-29.382-29.252a20.832 20.832 0 0 0-14.691-6.06h-74.515c-11.48 0-20.779 9.257-20.779 20.686v144.81c0 11.429 9.299 20.687 20.779 20.687h103.9c11.481 0 20.78-9.258 20.78-20.687v-115.56a20.645 20.645 0 0 0-6.089-14.626z" fill="#fff" stroke="#e1e4e5" stroke-width="4"/></g><g transform="matrix(.66896 0 0 .66896 133.75 57.413)" stroke="#fff" stroke-linecap="round" stroke-linejoin="round" stroke-width="10.982"><rect x="341.4" y="123.84" width="108.61" height="108.61" rx="21.963" fill="#c65370"/><path d="m378.23 156.43a3.018 3.018 0 0 1-2.123 5.165 3.019 3.019 0 0 1-2.124-5.165 3.03 3.03 0 0 1 4.269 0m71.756 10.311a57.65 57.65 0 0 0-66.37 57.409c0.017 2.779 0.239 5.552 0.663 8.298"/></g><path d="m576.77 290.93c-23.012 3.058-40.796 22.053-40.796 45.28 0 25.349 21.124 45.905 47.174 45.905h103.78c20.841 0 37.739-16.443 37.739-36.724 0-20.28-16.898-36.723-37.739-36.723 0-30.426-25.342-55.085-56.609-55.085-24.88 0-45.957 15.635-53.552 37.347z" clip-rule="evenodd" fill="#c65370" fill-rule="evenodd"/><path d="m220.64 493.98h-4.065a1.775 1.775 0 0 1-1.773-1.773v-4.065c0-0.982 0.799-1.773 1.773-1.773h4.065a1.78 1.78 0 0 1 1.773 1.773v4.065a1.769 1.769 0 0 1-1.773 1.773zm-14.091 0h-4.064a1.78 1.78 0 0 1-1.774-1.773v-4.065c0-0.982 0.799-1.773 1.774-1.773h4.064a1.78 1.78 0 0 1 1.774 1.773v4.065c0 0.974-0.8 1.773-1.774 1.773zm-14.1 0h-4.064a1.78 1.78 0 0 1-1.774-1.773v-4.065c0-0.982 0.8-1.773 1.774-1.773h4.064a1.78 1.78 0 0 1 1.774 1.773v4.065a1.769 1.769 0 0 1-1.774 1.773zm-14.091 0h-4.064a1.78 1.78 0 0 1-1.774-1.773v-4.065c0-0.982 0.8-1.773 1.774-1.773h4.064c0.983 0 1.782 0.799 1.782 1.773v4.065a1.792 1.792 0 0 1-1.782 1.773zm-14.091 0h-4.064a1.782 1.782 0 0 1-1.782-1.773v-4.065c0-0.982 0.799-1.773 1.782-1.773h4.064a1.78 1.78 0 0 1 1.774 1.773v4.065c0 0.974-0.8 1.773-1.774 1.773zm41.765-15.364h-4.064c-0.974 0-1.774-0.8-1.774-1.774v-4.073c0-0.974 0.8-1.773 1.774-1.773h4.064c0.983 0 1.774 0.799 1.774 1.773v4.065a1.772 1.772 0 0 1-1.774 1.782zm-14.091 0h-4.064c-0.974 0-1.774-0.8-1.774-1.774v-4.073c0-0.974 0.8-1.773 1.774-1.773h4.064a1.78 1.78 0 0 1 1.774 1.773v4.065a1.772 1.772 0 0 1-1.774 1.782zm-14.091 0h-4.064c-0.983 0-1.782-0.8-1.782-1.774v-4.073c0-0.974 0.799-1.773 1.782-1.773h4.064a1.78 1.78 0 0 1 1.774 1.773v4.065c0 0.982-0.8 1.782-1.774 1.782zm14.599 31.871h-4.064a1.78 1.78 0 0 1-1.774-1.774v-4.064c0-0.982 0.8-1.774 1.774-1.774h4.064c0.975 0 1.774 0.8 1.774 1.774v4.064a1.77 1.77 0 0 1-1.774 1.774zm-14.091 0h-4.064a1.78 1.78 0 0 1-1.774-1.774v-4.064c0-0.982 0.8-1.774 1.774-1.774h4.064c0.983 0 1.782 0.8 1.782 1.774v4.064a1.792 1.792 0 0 1-1.782 1.774zm548.71-16.507h-4.064a1.775 1.775 0 0 1-1.774-1.773v-4.065c0-0.982 0.8-1.773 1.774-1.773h4.064a1.78 1.78 0 0 1 1.774 1.773v4.065a1.77 1.77 0 0 1-1.774 1.773zm-14.091 0h-4.064a1.78 1.78 0 0 1-1.774-1.773v-4.065c0-0.982 0.8-1.773 1.774-1.773h4.064a1.78 1.78 0 0 1 1.774 1.773v4.065a1.78 1.78 0 0 1-1.774 1.773zm-14.099 0h-4.064a1.78 1.78 0 0 1-1.774-1.773v-4.065c0-0.982 0.8-1.773 1.774-1.773h4.064a1.78 1.78 0 0 1 1.774 1.773v4.065a1.77 1.77 0 0 1-1.774 1.773zm-14.091 0h-4.064a1.78 1.78 0 0 1-1.774-1.773v-4.065c0-0.982 0.799-1.773 1.774-1.773h4.064c0.983 0 1.782 0.799 1.782 1.773v4.065a1.793 1.793 0 0 1-1.782 1.773zm-14.091 0h-4.065a1.782 1.782 0 0 1-1.782-1.773v-4.065c0-0.982 0.8-1.773 1.782-1.773h4.065a1.78 1.78 0 0 1 1.773 1.773v4.065a1.78 1.78 0 0 1-1.773 1.773zm41.765-15.364h-4.064a1.78 1.78 0 0 1-1.774-1.774v-4.073a1.78 1.78 0 0 1 1.774-1.773h4.064c0.983 0 1.774 0.799 1.774 1.773v4.065a1.772 1.772 0 0 1-1.774 1.782zm-14.091 0h-4.064a1.78 1.78 0 0 1-1.774-1.774v-4.073a1.78 1.78 0 0 1 1.774-1.773h4.064a1.78 1.78 0 0 1 1.774 1.773v4.065a1.773 1.773 0 0 1-1.774 1.782zm-14.091 0h-4.064c-0.983 0-1.783-0.8-1.783-1.774v-4.073c0-0.974 0.8-1.773 1.783-1.773h4.064a1.78 1.78 0 0 1 1.774 1.773v4.065c0 0.982-0.8 1.782-1.774 1.782zm14.599 31.871h-4.064a1.78 1.78 0 0 1-1.774-1.774v-4.064c0-0.982 0.8-1.774 1.774-1.774h4.064c0.974 0 1.774 0.8 1.774 1.774v4.064a1.77 1.77 0 0 1-1.774 1.774zm-14.091 0h-4.064a1.78 1.78 0 0 1-1.774-1.774v-4.064c0-0.982 0.799-1.774 1.774-1.774h4.064c0.983 0 1.782 0.8 1.782 1.774v4.064a1.793 1.793 0 0 1-1.782 1.774z" clip-rule="evenodd" fill="#e1e4e5" fill-rule="evenodd"/><path transform="matrix(5.4053 0 0 5.4053 412.48 331.91)" d="m3.2578 3.1168c0.4199 0.34112 0.57742 0.31509 1.3659 0.26249l7.4334-0.44634c0.1576 0 0.0265-0.15728-0.026-0.18342l-1.2346-0.89246c-0.2365-0.18364-0.5517-0.39396-1.1557-0.34135l-7.1978 0.52498c-0.26249 0.02603-0.31493 0.15727-0.21038 0.26248zm0.44629 1.7323v7.8212c0 0.4203 0.21005 0.5776 0.68283 0.5516l8.1693-0.4727c0.473-0.026 0.5257-0.3152 0.5257-0.6566v-7.7687c0-0.34091-0.1311-0.52476-0.4207-0.49852l-8.537 0.49852c-0.31504 0.02647-0.42012 0.18406-0.42012 0.5252zm8.0647 0.41955c0.0524 0.23646 0 0.4727-0.2369 0.49927l-0.3936 0.07842v5.7741c-0.3418 0.1837-0.6569 0.2887-0.9195 0.2887-0.42045 0-0.52575-0.1313-0.84068-0.5248l-2.5747-4.0419v3.9107l0.81471 0.1838s0 0.4722-0.6573 0.4722l-1.8121 0.1051c-0.05264-0.1051 0-0.3673 0.1838-0.4199l0.47287-0.131v-5.1706l-0.65656-0.05261c-0.05265-0.23646 0.07849-0.57737 0.4465-0.60384l1.944-0.13103 2.6794 4.0945v-3.6222l-0.68316-0.07841c-0.05244-0.28906 0.15741-0.49896 0.42012-0.52499zm-9.9301-3.9366 7.4868-0.55133c0.91943-0.078855 1.1559-0.026034 1.7338 0.39373l2.3898 1.6797c0.3944 0.28885 0.5258 0.36749 0.5258 0.68237v9.2127c0 0.5773-0.2103 0.9188-0.9457 0.971l-8.6944 0.5251c-0.55201 0.0263-0.81473-0.0524-1.1038-0.4201l-1.76-2.2834c-0.31536-0.4203-0.4465-0.7348-0.4465-1.1027v-8.1888c0-0.47216 0.21038-0.866 0.81408-0.91829z" fill="none"/></g></svg>
