<svg fill="none" version="1.1" viewBox="0 0 900 600" xml:space="preserve" xmlns="http://www.w3.org/2000/svg"><defs><style>.cls-1{fill:none;}</style><style>.cls-1{fill:none;}</style><style>.cls-1{fill:none;}</style><style>.cls-1{fill:none;}</style><style>.cls-1{fill:none;}</style><style>.cls-1{fill:none;}</style><style>.cls-1{fill:none;}</style></defs><g fill="none"><path d="m0 0h900v600h-900z" fill="transparent"/><path d="m500.78 368.86h189.81c26.218 0 47.453 21.235 47.453 47.453v71.18c0 26.217-21.235 47.452-47.453 47.452h-47.453m-248.14-183.9h-189.81c-26.218 0-47.453 21.235-47.453 47.452v71.18c0 26.217 21.235 47.453 47.453 47.453h47.453m142.36-208.28h-189.81c-26.218 0-47.453-21.235-47.453-47.453v-71.179c0-26.218 21.235-47.453 47.453-47.453h47.453m228.09 166.08h189.81c26.217 0 47.453-21.235 47.453-47.453v-71.179c0-26.218-21.236-47.453-47.453-47.453h-47.453" stroke="#e1e4e5" stroke-linecap="round" stroke-linejoin="round" stroke-width="3.855"/><path d="m324.8 327.09c0 69.208 56.094 125.3 125.3 125.3s125.3-56.093 125.3-125.3-56.093-125.3-125.3-125.3-125.3 56.093-125.3 125.3z" clip-rule="evenodd" fill="#c65370" fill-rule="evenodd"/><path d="m361.5 415.7 84.523-84.523a13.91 13.91 0 0 0 4.079-9.843v-119.54m-0.974 124.74-107.48-62.094" stroke="#fff" stroke-linecap="round" stroke-linejoin="round" stroke-width="18.071"/><path d="m743.31 93.53-30.233-30.26a21.377 21.377 0 0 0-15.116-6.27h-76.673c-11.813 0-21.381 9.577-21.381 21.4v149.8c0 11.824 9.568 21.4 21.381 21.4h106.91c11.813 0 21.381-9.576 21.381-21.4v-119.54a21.417 21.417 0 0 0-6.265-15.13z" clip-rule="evenodd" fill="#fff" fill-rule="evenodd" stroke="#e1e4e5" stroke-linecap="round" stroke-linejoin="round" stroke-width="3.855"/><g fill="#e1e4e5"><rect x="629.06" y="189.27" width="91.952" height="10.818" rx="5.409"/><rect x="629.06" y="167.79" width="91.952" height="10.818" rx="5.409"/><rect x="629.06" y="146.26" width="91.952" height="10.818" rx="5.409"/><rect x="629.06" y="124.73" width="91.952" height="10.818" rx="5.409"/><rect x="629.06" y="103.2" width="91.952" height="10.818" rx="5.409"/><rect x="629.06" y="210.9" width="91.952" height="10.818" rx="5.409"/></g><path d="m274.4 93.53-30.233-30.26a21.38 21.38 0 0 0-15.117-6.27h-76.673c-11.813 0-21.381 9.577-21.381 21.4v149.8c0 11.824 9.568 21.4 21.381 21.4h106.91c11.813 0 21.381-9.576 21.381-21.4v-119.54a21.416 21.416 0 0 0-6.264-15.13z" clip-rule="evenodd" fill="#fff" fill-rule="evenodd" stroke="#e1e4e5" stroke-linecap="round" stroke-linejoin="round" stroke-width="3.855"/><g fill="#e1e4e5"><rect x="160.16" y="189.27" width="91.952" height="10.818" rx="5.409"/><rect x="160.16" y="167.79" width="91.952" height="10.818" rx="5.409"/><rect x="160.16" y="146.26" width="91.952" height="10.818" rx="5.409"/><rect x="160.16" y="124.73" width="91.952" height="10.818" rx="5.409"/><rect x="333.71" y="167.8" width="231.67" height="11.138" rx="5.569"/><rect x="333.71" y="505.86" width="231.67" height="11.138" rx="5.569"/><rect x="160.16" y="103.2" width="91.952" height="10.818" rx="5.409"/><rect x="333.71" y="146.63" width="231.67" height="11.138" rx="5.569"/><rect x="333.71" y="484.7" width="231.67" height="11.138" rx="5.569"/><rect x="160.16" y="210.9" width="91.952" height="10.818" rx="5.409"/></g><path d="m763.36 387.57-30.233-30.26a21.377 21.377 0 0 0-15.117-6.27h-76.673c-11.813 0-21.381 9.576-21.381 21.4v149.8c0 11.823 9.568 21.4 21.381 21.4h106.91c11.813 0 21.381-9.577 21.381-21.4v-119.54a21.413 21.413 0 0 0-6.264-15.129z" clip-rule="evenodd" fill="#fff" fill-rule="evenodd" stroke="#e1e4e5" stroke-linecap="round" stroke-linejoin="round" stroke-width="3.855"/><g fill="#e1e4e5"><rect x="649.11" y="483.31" width="91.952" height="10.818" rx="5.409"/><rect x="649.11" y="461.83" width="91.952" height="10.818" rx="5.409"/><rect x="649.11" y="440.3" width="91.952" height="10.818" rx="5.409"/><rect x="649.11" y="418.77" width="91.952" height="10.818" rx="5.409"/><rect x="649.11" y="397.24" width="91.952" height="10.818" rx="5.409"/><rect x="649.11" y="504.94" width="91.952" height="10.818" rx="5.409"/></g><path d="m294.45 387.57-30.233-30.26a21.377 21.377 0 0 0-15.117-6.27h-76.673c-11.813 0-21.381 9.576-21.381 21.4v149.8c0 11.823 9.568 21.4 21.381 21.4h106.91c11.814 0 21.382-9.577 21.382-21.4v-119.54a21.414 21.414 0 0 0-6.265-15.129z" clip-rule="evenodd" fill="#fff" fill-rule="evenodd" stroke="#e1e4e5" stroke-linecap="round" stroke-linejoin="round" stroke-width="3.855"/><g fill="#e1e4e5"><rect x="180.2" y="483.31" width="91.952" height="10.818" rx="5.409"/><rect x="180.2" y="461.83" width="91.952" height="10.818" rx="5.409"/><rect x="180.2" y="440.3" width="91.952" height="10.818" rx="5.409"/><rect x="180.2" y="418.77" width="91.952" height="10.818" rx="5.409"/><rect x="180.2" y="397.24" width="91.952" height="10.818" rx="5.409"/><rect x="180.2" y="504.94" width="91.952" height="10.818" rx="5.409"/></g></g></svg>
