<svg fill="none" version="1.1" viewBox="0 0 900 600" xml:space="preserve" xmlns="http://www.w3.org/2000/svg"><defs><linearGradient id="a" x1="302.75" x2="210.8" y1="616.19" y2="190.93" gradientUnits="userSpaceOnUse"><stop stop-color="#fff" offset="0"/><stop stop-color="#EEE" offset="1"/></linearGradient><linearGradient id="b" x1="661.02" x2="834.66" y1="239.51" y2="157.47" gradientUnits="userSpaceOnUse"><stop stop-color="#fff" offset="0"/><stop stop-color="#EEE" offset="1"/></linearGradient><linearGradient id="c" x1="812.6" x2="671.05" y1="468.78" y2="319.51" gradientUnits="userSpaceOnUse"><stop stop-color="#fff" offset="0"/><stop stop-color="#EEE" offset="1"/></linearGradient><linearGradient id="d" x1="209.99" x2="69.05" y1="368.34" y2="147.4" gradientUnits="userSpaceOnUse"><stop stop-color="#fff" offset="0"/><stop stop-color="#EEE" offset="1"/></linearGradient><style>.cls-1{fill:none;}</style></defs><path d="m0 0h900v600h-900z" fill="transparent"/><path d="m334.05 487.47c-28.028-39.21-56.732-80.884-94.312-101.41-38.762-21.182-45.91-8.127-48.594 12.628-2.683 20.756 9.276 69.932 62.176 97.912 52.913 27.989 106.96 27.569 80.73-9.129z" fill="url(#a)"/><path d="m735.71 227.82c-19.835 4.699-40.814-12.123-40.814-12.123s11.196-24.431 31.037-29.116c19.835-4.698 40.808 12.109 40.808 12.109s-11.196 24.431-31.031 29.13z" fill="url(#b)"/><path d="m742.55 428.14c17.983 12.387 45.456 3.728 45.456 3.728s-1.701-28.738-19.696-41.112c-17.983-12.387-45.444-3.74-45.444-3.74s1.701 28.738 19.684 41.124z" fill="url(#c)"/><path d="m132.21 300.56c19.496 19.842 55.952 15.658 55.952 15.658s4.824-36.354-14.69-56.184c-19.495-19.843-55.933-15.671-55.933-15.671s-4.824 36.354 14.671 56.197z" fill="url(#d)"/><g fill="#c65370"><ellipse transform="rotate(180 700.46 347.18)" cx="700.46" cy="347.17" rx="14.488" ry="13.858"/><ellipse transform="rotate(180 293.67 438.99)" cx="293.67" cy="438.99" rx="19.528" ry="18.898"/><circle transform="matrix(-1 0 0 1 229.7 183.62)" r="14.221"/></g><g fill="#e1e4e5"><circle transform="matrix(-1 0 0 1 699.98 446.36)" r="11.897"/><circle transform="matrix(-1 0 0 1 202.24 353.12)" r="12.514"/><circle transform="matrix(-1 0 0 1 339.54 501)" r="6.166"/><circle transform="matrix(-1 0 0 1 637.54 138.05)" r="9.411"/><circle transform="matrix(.25882 .96593 .96593 -.25882 262.23 214.66)" r="6.156"/><ellipse transform="matrix(-1 0 0 1 629.6 300.7)" rx="6.299" ry="5.039"/><path d="m776 249.4h0.164c0.976 13.826 11.259 14.039 11.259 14.039s-11.339 0.222-11.339 16.198c0-15.976-11.339-16.198-11.339-16.198s10.279-0.213 11.255-14.039zm-447.06-186.04h0.283c1.681 24.196 19.39 24.568 19.39 24.568s-19.528 0.388-19.528 28.346c0-27.958-19.528-28.346-19.528-28.346s17.702-0.372 19.383-24.568z"/></g><path d="m295.97 222.13c-9.273 24.201-13.363 50.997-10.925 79.04a170.06 170.06 0 0 0 4.978 28.612l24.22-6.94a31.393 31.393 0 0 1 31.174 8.312l41.2 42.442a26.799 26.799 0 0 0 20.776 8.088l0.673-0.039c19.544-1.131 35.345 15.706 32.977 35.14l-5.208 42.736c2.82 0.389 5.66 0.709 8.518 0.958 8.851 0.769 17.578 0.888 26.139 0.4a31.393 31.393 0 0 1-7.463-30.051l8.136-29.135c4.12-14.756 18.29-24.383 33.526-22.778l33.568 3.536c22.419 2.362 34.784 26.66 24.444 45.949a176.16 176.16 0 0 0 24.29-20.989l-20.344-59.579a26.796 26.796 0 0 0-16.036-16.463l-37.557-13.939c-21.568-8.005-27.486-35.722-11.069-51.837l93.783-92.056c-15.797-19.068-35.506-34.832-57.792-45.958l-25.611 82.299a31.394 31.394 0 0 1-24.054 21.502l-66.906 12.853a26.794 26.794 0 0 0-18.155 12.924l-2.767 4.795c-9.771 16.936-32.481 20.916-47.43 8.312zm135.32 236.7 5.192-42.601c2.021-16.588-11.466-30.96-28.149-29.995l-0.672 0.039a31.392 31.392 0 0 1-24.34-9.475l-41.2-42.442a26.798 26.798 0 0 0-26.609-7.095l-24.257 6.95c18.669 63.867 73.538 113.6 140.04 124.62zm204.17-189.46c4.508 51.856-13.3 99.437-44.91 134.24l-19.552-57.261a31.392 31.392 0 0 0-18.786-19.288l-37.558-13.939c-18.409-6.832-23.461-30.491-9.447-44.246l93.463-91.742c20.473 26.047 33.8 57.858 36.79 92.239zm-337.7-51.74 58.254 49.118c12.759 10.759 32.144 7.362 40.485-7.095l2.766-4.794a31.396 31.396 0 0 1 21.27-15.142l66.906-12.852a26.8 26.8 0 0 0 20.532-18.354l25.814-82.953c-17.873-8.338-37.307-13.723-57.64-15.496-80.125-6.967-150.06 39.364-178.39 107.57zm178.77 242.8c27.936-2.55 53.954-11.589 76.539-25.606l4.191-6.288c11.177-16.764 0.548-39.403-19.489-41.514l-33.567-3.536c-13.005-1.37-25.1 6.847-28.617 19.443l-8.136 29.134a26.796 26.796 0 0 0 6.891 26.185z" clip-rule="evenodd" fill="#c65370" fill-rule="evenodd"/><path d="m619.35 467.63c7.655-5.243 8.412-17.46 8.412-17.46s-11.657-3.708-19.31 1.541c-7.655 5.243-8.415 17.453-8.415 17.453s11.657 3.709 19.313-1.534z" fill="#e1e4e5"/><circle transform="rotate(180 437.46 282.01)" cx="437.46" cy="282.01" r="7.166" fill="#c65370"/><circle transform="matrix(-1 0 0 1 590.35 113.89)" r="12.204" fill="#c65370"/><g fill="#e1e4e5"><circle transform="matrix(-1 0 0 1 756.68 314.59)" r="9.772"/><circle transform="matrix(-1 0 0 1 471.42 511.63)" r="10.412"/><circle transform="matrix(-1 0 0 1 198.58 269.52)" r="8.351"/><circle transform="matrix(-1 0 0 1 699.26 161.59)" r="12.747"/><circle transform="matrix(-1 0 0 1 286.33 142.61)" r="11.092"/><ellipse transform="matrix(-1 0 0 1 670.36 391.72)" rx="8.532" ry="6.826"/><ellipse transform="matrix(-.89875 .43847 .43847 .89875 560.39 503.03)" rx="13.887" ry="10.964"/><circle transform="matrix(.25882 .96593 .96593 -.25882 514.39 78.745)" r="16.147"/><path d="m399.37 469.09h0.223c1.322 18.727 15.25 19.016 15.25 19.016s-15.358 0.3-15.358 21.939c0-21.639-15.358-21.939-15.358-21.939s13.921-0.289 15.243-19.016z"/></g><rect x="381.26" y="100.12" width="92.62" height="92.62" rx="46.31" fill="#c65370" stroke="#fff" stroke-width="6"/><path d="m447.25 164.6v2.896c0 1.599-1.28 2.896-2.858 2.896h-34.295c-1.578 0-2.858-1.297-2.858-2.896v-2.942c0-8.763 9.883-14.457 20.005-14.457 10.123 0 20.006 5.697 20.006 14.457m-12.833-39.898c3.963 3.962 3.963 10.388 0 14.35-3.962 3.963-10.388 3.963-14.35 0-3.963-3.962-3.963-10.388 0-14.35 3.962-3.963 10.388-3.963 14.35 0z" clip-rule="evenodd" fill="#fff" fill-rule="evenodd"/><rect x="589.59" y="215.28" width="92.62" height="92.62" rx="46.31" fill="#c65370" stroke="#fff" stroke-width="6"/><path d="m655.58 279.76v2.896c0 1.598-1.28 2.896-2.858 2.896h-34.295c-1.577 0-2.858-1.298-2.858-2.896v-2.943c0-8.763 9.883-14.457 20.006-14.457s20.005 5.697 20.005 14.457m-12.832-39.898c3.963 3.963 3.963 10.388 0 14.351s-10.388 3.963-14.351 0-3.963-10.388 0-14.351 10.388-3.963 14.351 0z" clip-rule="evenodd" fill="#fff" fill-rule="evenodd"/><rect x="219.9" y="271.45" width="92.62" height="92.62" rx="46.31" fill="#c65370" stroke="#fff" stroke-width="6"/><path d="m285.9 335.93v2.896c0 1.599-1.281 2.896-2.858 2.896h-34.295c-1.578 0-2.858-1.297-2.858-2.896v-2.942c0-8.764 9.883-14.457 20.005-14.457 10.123 0 20.006 5.696 20.006 14.457m-12.833-39.899c3.963 3.963 3.963 10.388 0 14.351s-10.388 3.963-14.351 0-3.963-10.388 0-14.351 10.388-3.963 14.351 0z" clip-rule="evenodd" fill="#fff" fill-rule="evenodd"/></svg>
