<?xml version="1.0" encoding="UTF-8" standalone="no"?>
<svg
   viewBox="0 0 500 500"
   version="1.1"
   id="svg208"
   sodipodi:docname="wordpress.svg"
   xml:space="preserve"
   inkscape:version="1.3 (1:1.3+202307231459+0e150ed6c4)"
   xmlns:inkscape="http://www.inkscape.org/namespaces/inkscape"
   xmlns:sodipodi="http://sodipodi.sourceforge.net/DTD/sodipodi-0.dtd"
   xmlns="http://www.w3.org/2000/svg"
   xmlns:svg="http://www.w3.org/2000/svg"><sodipodi:namedview
     id="namedview208"
     pagecolor="#ffffff"
     bordercolor="#000000"
     borderopacity="0.25"
     inkscape:showpageshadow="2"
     inkscape:pageopacity="0.0"
     inkscape:pagecheckerboard="0"
     inkscape:deskcolor="#d1d1d1"
     inkscape:zoom="0.784"
     inkscape:cx="248.72449"
     inkscape:cy="248.72449"
     inkscape:window-width="1280"
     inkscape:window-height="656"
     inkscape:window-x="0"
     inkscape:window-y="27"
     inkscape:window-maximized="1"
     inkscape:current-layer="freepik--background-complete--inject-493" /><defs
     id="defs1"><linearGradient
       id="swatch1"
       inkscape:swatch="solid"><stop
         style="stop-color:#708090;stop-opacity:1;"
         offset="0"
         id="stop1" /></linearGradient><clipPath
       id="freepik--clip-path--inject-493"><path
         d="M354.38,195.51A59.93,59.93,0,0,0,272,140.45a72.41,72.41,0,0,0-135.76,16A62.32,62.32,0,0,0,140.33,281H338.65a44.18,44.18,0,0,0,15.73-85.47Z"
         style="fill:none"
         id="path1" /></clipPath></defs><g
     id="g208"
     transform="translate(0,5.8272514)"><g
       id="freepik--background-complete--inject-493"><rect
         y="382.39999"
         width="500"
         height="0.25"
         style="fill:#ebebeb"
         id="rect1"
         x="0" /><rect
         x="394.67001"
         y="398.48999"
         width="55.23"
         height="0.25"
         style="fill:#ebebeb"
         id="rect2" /><rect
         x="321.81"
         y="393.25"
         width="8.6899996"
         height="0.25"
         style="fill:#ebebeb"
         id="rect3" /><rect
         x="372.47"
         y="389.20999"
         width="19.190001"
         height="0.25"
         style="fill:#ebebeb"
         id="rect4" /><rect
         x="52.459999"
         y="390.89001"
         width="43.189999"
         height="0.25"
         style="fill:#ebebeb"
         id="rect5" /><rect
         x="215.33"
         y="397.35001"
         width="45.720001"
         height="0.25"
         style="fill:#ebebeb"
         id="rect6" /><rect
         x="140.46001"
         y="393.12"
         width="93.68"
         height="0.25"
         style="fill:#ebebeb"
         id="rect7" /><path
         d="M 242.72,332.09 A 5.71,5.71 0 0 1 237,337.8 H 43.91 a 5.71,5.71 0 0 1 -5.7,-5.71 V 60.66 A 5.71,5.71 0 0 1 43.91,55 H 237 a 5.71,5.71 0 0 1 5.71,5.71 m -0.25,0 A 5.47,5.47 0 0 0 237,55.2 H 43.91 a 5.46,5.46 0 0 0 -5.45,5.46 v 271.43 a 5.46,5.46 0 0 0 5.45,5.46 H 237 a 5.47,5.47 0 0 0 5.46,-5.46"
         style="fill:#ebebeb"
         id="path7" /><path
         d="m 453.31,337.8 h -193.1 a 5.72,5.72 0 0 1 -5.71,-5.71 V 60.66 A 5.72,5.72 0 0 1 260.21,55 h 193.1 a 5.71,5.71 0 0 1 5.69,5.66 v 271.43 a 5.71,5.71 0 0 1 -5.69,5.71 z M 260.21,55.2 a 5.47,5.47 0 0 0 -5.46,5.46 v 271.43 a 5.47,5.47 0 0 0 5.46,5.46 h 193.1 a 5.47,5.47 0 0 0 5.46,-5.46 V 60.66 a 5.47,5.47 0 0 0 -5.46,-5.46 z"
         style="fill:#ebebeb"
         id="path8" /><path
         d="m 128.16012,178.75412 a 13.4056,13.4056 0 0 0 -18.43093,-12.32032 16.208461,16.208461 0 0 0 -30.387914,3.58615 13.948242,13.948242 0 0 0 0.910693,27.83986 h 44.388061 a 9.9091026,9.9091026 0 0 0 3.52009,-19.12929 z"
         style="fill:#ecc6ce;fill-opacity:1;stroke-width:0.471862"
         id="path9-6" /><path
         d="m 188.54939,143.17004 a 25.361994,25.361994 0 0 0 -34.8694,-23.30876 30.664712,30.664712 0 0 0 -57.490762,6.78463 26.388614,26.388614 0 0 0 1.722937,52.6701 h 83.977575 a 18.746986,18.746986 0 0 0 6.65965,-36.19061 z"
         style="fill:#ebebeb;fill-opacity:1;stroke-width:0.892714"
         id="path9" /><path
         d="m 434,284 a 28.41,28.41 0 0 0 -39,-26.11 34.35,34.35 0 0 0 -64.4,7.6 29.56,29.56 0 0 0 1.93,59.06 H 426.6 A 21,21 0 0 0 434,284 Z"
         style="fill:#f5f5f5"
         id="path10" /><path
         d="m 420.71282,120.0709 a 14.75,14.75 0 0 0 -20.26,-13.55 17.81,17.81 0 0 0 -33.4,3.95 15.33,15.33 0 0 0 1,30.63 h 48.79 a 10.87,10.87 0 0 0 3.87,-21 z"
         style="fill:#ecc6ce;fill-opacity:1"
         id="path11" /><path
         d="M 412.77,103.83 A 19.49,19.49 0 0 0 386,85.93 a 23.54,23.54 0 0 0 -44.13,5.21 20.26,20.26 0 0 0 1.32,40.47 h 64.46 a 14.36,14.36 0 0 0 5.12,-27.78 z"
         style="fill:#ebebeb"
         id="path12" /><path
         d="m 206.09,275.22 a 19.47,19.47 0 0 0 -26.77,-17.89 23.53,23.53 0 0 0 -44.12,5.2 20.26,20.26 0 0 0 1.31,40.47 H 201 a 14.36,14.36 0 0 0 5.12,-27.78 z"
         style="fill:#f5f5f5"
         id="path13" /><path
         d="m 131,175.06 a 0.51,0.51 0 0 1 -0.35,-0.15 0.42,0.42 0 0 1 -0.11,-0.16 0.43,0.43 0 0 1 0,-0.19 0.48,0.48 0 0 1 0,-0.2 0.42,0.42 0 0 1 0.11,-0.16 0.53,0.53 0 0 1 0.54,-0.11 0.64,0.64 0 0 1 0.16,0.11 0.49,0.49 0 0 1 0.15,0.36 0.43,0.43 0 0 1 0,0.19 0.42,0.42 0 0 1 -0.11,0.16 0.51,0.51 0 0 1 -0.39,0.15 z"
         style="fill:#e0e0e0"
         id="path14" /><path
         d="m 130.5,196.6 a 0.5,0.5 0 0 1 0.5,-0.5 v 0 a 0.5,0.5 0 0 1 0.5,0.5 v 0 a 0.5,0.5 0 0 1 -0.5,0.5 v 0 a 0.5,0.5 0 0 1 -0.5,-0.5 z m 0,-5.51 a 0.5,0.5 0 0 1 0.5,-0.5 v 0 a 0.5,0.5 0 0 1 0.5,0.5 v 0 a 0.5,0.5 0 0 1 -0.5,0.5 v 0 a 0.51,0.51 0 0 1 -0.5,-0.5 z m 0,-5.51 a 0.5,0.5 0 0 1 0.5,-0.5 v 0 a 0.5,0.5 0 0 1 0.5,0.5 v 0 a 0.5,0.5 0 0 1 -0.5,0.5 v 0 a 0.51,0.51 0 0 1 -0.5,-0.5 z m 0,-5.51 a 0.5,0.5 0 0 1 0.5,-0.5 v 0 a 0.5,0.5 0 0 1 0.5,0.5 v 0 a 0.5,0.5 0 0 1 -0.5,0.5 v 0 a 0.51,0.51 0 0 1 -0.5,-0.5 z"
         style="fill:#e0e0e0"
         id="path15" /><path
         d="m 131,202.61 a 0.43,0.43 0 0 1 -0.19,0 0.53,0.53 0 0 1 -0.27,-0.27 0.41,0.41 0 0 1 0,-0.19 0.43,0.43 0 0 1 0,-0.19 0.36,0.36 0 0 1 0.11,-0.16 0.46,0.46 0 0 1 0.16,-0.11 0.5,0.5 0 0 1 0.38,0 0.46,0.46 0 0 1 0.16,0.11 0.36,0.36 0 0 1 0.11,0.16 0.43,0.43 0 0 1 0,0.19 0.47,0.47 0 0 1 -0.15,0.35 0.36,0.36 0 0 1 -0.16,0.11 0.41,0.41 0 0 1 -0.15,0 z"
         style="fill:#e0e0e0"
         id="path16" /><path
         d="m 222.17,202.11 a 0.5,0.5 0 0 1 0.49,-0.5 v 0 a 0.51,0.51 0 0 1 0.51,0.5 v 0 a 0.5,0.5 0 0 1 -0.51,0.5 v 0 a 0.49,0.49 0 0 1 -0.49,-0.5 z m -6.11,0 a 0.5,0.5 0 0 1 0.5,-0.5 v 0 a 0.5,0.5 0 0 1 0.49,0.5 v 0 a 0.49,0.49 0 0 1 -0.49,0.5 v 0 a 0.5,0.5 0 0 1 -0.5,-0.5 z m -6.11,0 a 0.5,0.5 0 0 1 0.5,-0.5 v 0 a 0.51,0.51 0 0 1 0.5,0.5 v 0 a 0.5,0.5 0 0 1 -0.5,0.5 v 0 a 0.5,0.5 0 0 1 -0.45,-0.5 z m -6.12,0 a 0.51,0.51 0 0 1 0.5,-0.5 v 0 a 0.5,0.5 0 0 1 0.5,0.5 v 0 a 0.5,0.5 0 0 1 -0.5,0.5 v 0 a 0.5,0.5 0 0 1 -0.5,-0.5 z m -6.11,0 a 0.51,0.51 0 0 1 0.5,-0.5 v 0 a 0.5,0.5 0 0 1 0.5,0.5 v 0 a 0.5,0.5 0 0 1 -0.5,0.5 v 0 a 0.5,0.5 0 0 1 -0.5,-0.5 z m -6.11,0 a 0.5,0.5 0 0 1 0.5,-0.5 v 0 a 0.5,0.5 0 0 1 0.5,0.5 v 0 a 0.5,0.5 0 0 1 -0.5,0.5 v 0 a 0.5,0.5 0 0 1 -0.5,-0.5 z m -6.11,0 a 0.5,0.5 0 0 1 0.5,-0.5 v 0 a 0.5,0.5 0 0 1 0.5,0.5 v 0 a 0.5,0.5 0 0 1 -0.5,0.5 v 0 a 0.5,0.5 0 0 1 -0.5,-0.5 z m -6.11,0 a 0.5,0.5 0 0 1 0.5,-0.5 v 0 a 0.51,0.51 0 0 1 0.5,0.5 v 0 a 0.5,0.5 0 0 1 -0.5,0.5 v 0 a 0.5,0.5 0 0 1 -0.5,-0.5 z m -6.11,0 a 0.5,0.5 0 0 1 0.5,-0.5 v 0 a 0.51,0.51 0 0 1 0.5,0.5 v 0 a 0.5,0.5 0 0 1 -0.5,0.5 v 0 a 0.5,0.5 0 0 1 -0.5,-0.5 z m -6.11,0 a 0.5,0.5 0 0 1 0.5,-0.5 v 0 a 0.51,0.51 0 0 1 0.5,0.5 v 0 a 0.5,0.5 0 0 1 -0.5,0.5 v 0 a 0.5,0.5 0 0 1 -0.5,-0.5 z m -6.12,0 a 0.51,0.51 0 0 1 0.5,-0.5 v 0 a 0.51,0.51 0 0 1 0.51,0.5 v 0 a 0.5,0.5 0 0 1 -0.51,0.5 v 0 a 0.5,0.5 0 0 1 -0.5,-0.5 z m -6.1,0 a 0.5,0.5 0 0 1 0.5,-0.5 v 0 a 0.5,0.5 0 0 1 0.49,0.5 v 0 a 0.49,0.49 0 0 1 -0.49,0.5 v 0 a 0.5,0.5 0 0 1 -0.45,-0.5 z m -6.12,0 a 0.51,0.51 0 0 1 0.5,-0.5 v 0 a 0.5,0.5 0 0 1 0.5,0.5 v 0 a 0.5,0.5 0 0 1 -0.5,0.5 v 0 a 0.5,0.5 0 0 1 -0.5,-0.5 z m -6.11,0 a 0.51,0.51 0 0 1 0.5,-0.5 v 0 a 0.5,0.5 0 0 1 0.5,0.5 v 0 a 0.5,0.5 0 0 1 -0.5,0.5 v 0 a 0.5,0.5 0 0 1 -0.5,-0.5 z m -6.11,0 a 0.51,0.51 0 0 1 0.5,-0.5 v 0 a 0.5,0.5 0 0 1 0.5,0.5 v 0 a 0.5,0.5 0 0 1 -0.5,0.5 v 0 a 0.5,0.5 0 0 1 -0.5,-0.5 z"
         style="fill:#e0e0e0"
         id="path17" /><path
         d="m 228.78,202.61 a 0.41,0.41 0 0 1 -0.19,0 0.45,0.45 0 0 1 -0.17,-0.11 0.44,0.44 0 0 1 -0.1,-0.16 0.41,0.41 0 0 1 0,-0.19 0.55,0.55 0 0 1 0.14,-0.35 0.45,0.45 0 0 1 0.17,-0.11 0.5,0.5 0 0 1 0.38,0 0.36,0.36 0 0 1 0.16,0.11 0.5,0.5 0 0 1 0.15,0.35 0.51,0.51 0 0 1 -0.15,0.35 0.36,0.36 0 0 1 -0.16,0.11 0.43,0.43 0 0 1 -0.23,0 z"
         style="fill:#e0e0e0"
         id="path18" /><path
         d="m 228.28,196.16 a 0.5,0.5 0 0 1 0.5,-0.5 v 0 a 0.5,0.5 0 0 1 0.5,0.5 v 0 a 0.51,0.51 0 0 1 -0.5,0.5 v 0 a 0.5,0.5 0 0 1 -0.5,-0.5 z m 0,-6 a 0.5,0.5 0 0 1 0.5,-0.5 v 0 a 0.5,0.5 0 0 1 0.5,0.5 v 0 a 0.5,0.5 0 0 1 -0.5,0.5 v 0 a 0.5,0.5 0 0 1 -0.5,-0.46 z m 0,-6 a 0.5,0.5 0 0 1 0.5,-0.5 v 0 a 0.51,0.51 0 0 1 0.5,0.5 v 0 a 0.5,0.5 0 0 1 -0.5,0.5 v 0 a 0.5,0.5 0 0 1 -0.5,-0.42 z m 0,-6 a 0.5,0.5 0 0 1 0.5,-0.5 v 0 a 0.5,0.5 0 0 1 0.5,0.5 v 0 a 0.5,0.5 0 0 1 -0.5,0.5 v 0 a 0.5,0.5 0 0 1 -0.5,-0.37 z m 0,-6 a 0.5,0.5 0 0 1 0.5,-0.5 v 0 a 0.51,0.51 0 0 1 0.5,0.5 v 0 a 0.5,0.5 0 0 1 -0.5,0.5 v 0 a 0.5,0.5 0 0 1 -0.5,-0.33 z m 0,-6 a 0.5,0.5 0 0 1 0.5,-0.5 v 0 a 0.5,0.5 0 0 1 0.5,0.5 v 0 a 0.51,0.51 0 0 1 -0.5,0.5 v 0 a 0.5,0.5 0 0 1 -0.5,-0.28 z m 0,-6 a 0.5,0.5 0 0 1 0.5,-0.5 v 0 a 0.51,0.51 0 0 1 0.5,0.5 v 0 a 0.5,0.5 0 0 1 -0.5,0.5 v 0 a 0.5,0.5 0 0 1 -0.5,-0.24 z m 0,-5.95 a 0.5,0.5 0 0 1 0.5,-0.5 v 0 a 0.5,0.5 0 0 1 0.5,0.5 v 0 a 0.51,0.51 0 0 1 -0.5,0.5 v 0 a 0.5,0.5 0 0 1 -0.5,-0.24 z m 0,-6 a 0.5,0.5 0 0 1 0.5,-0.5 v 0 a 0.5,0.5 0 0 1 0.5,0.5 v 0 a 0.5,0.5 0 0 1 -0.5,0.5 v 0 a 0.5,0.5 0 0 1 -0.5,-0.2 z"
         style="fill:#e0e0e0"
         id="path19" /><path
         d="m 228.78,143.06 a 0.58,0.58 0 0 1 -0.19,0 l -0.17,-0.11 a 0.54,0.54 0 0 1 -0.1,-0.16 0.43,0.43 0 0 1 0,-0.19 0.48,0.48 0 0 1 0,-0.2 0.54,0.54 0 0 1 0.1,-0.16 l 0.17,-0.11 a 0.5,0.5 0 0 1 0.38,0 0.64,0.64 0 0 1 0.16,0.11 0.55,0.55 0 0 1 0.15,0.36 0.51,0.51 0 0 1 -0.5,0.5 z"
         style="fill:#e0e0e0"
         id="path20" /><path
         d="m 366,142.56 a 0.5,0.5 0 0 1 0.5,-0.51 v 0 a 0.51,0.51 0 0 1 0.5,0.51 v 0 a 0.51,0.51 0 0 1 -0.5,0.5 v 0 a 0.5,0.5 0 0 1 -0.5,-0.5 z m -6,0 a 0.5,0.5 0 0 1 0.5,-0.51 v 0 a 0.5,0.5 0 0 1 0.5,0.51 v 0 a 0.5,0.5 0 0 1 -0.5,0.5 v 0 a 0.5,0.5 0 0 1 -0.5,-0.5 z m -6,0 a 0.51,0.51 0 0 1 0.5,-0.51 v 0 a 0.5,0.5 0 0 1 0.5,0.51 v 0 a 0.5,0.5 0 0 1 -0.5,0.5 v 0 a 0.51,0.51 0 0 1 -0.5,-0.5 z m -6,0 a 0.5,0.5 0 0 1 0.5,-0.51 v 0 a 0.5,0.5 0 0 1 0.49,0.51 v 0 a 0.5,0.5 0 0 1 -0.49,0.5 v 0 a 0.5,0.5 0 0 1 -0.5,-0.5 z m -6,0 a 0.5,0.5 0 0 1 0.5,-0.51 v 0 a 0.51,0.51 0 0 1 0.5,0.51 v 0 a 0.51,0.51 0 0 1 -0.5,0.5 v 0 a 0.5,0.5 0 0 1 -0.5,-0.5 z m -6,0 a 0.5,0.5 0 0 1 0.5,-0.51 v 0 a 0.5,0.5 0 0 1 0.5,0.51 v 0 a 0.5,0.5 0 0 1 -0.5,0.5 v 0 a 0.5,0.5 0 0 1 -0.45,-0.5 z m -6,0 a 0.51,0.51 0 0 1 0.5,-0.51 v 0 a 0.5,0.5 0 0 1 0.5,0.51 v 0 a 0.5,0.5 0 0 1 -0.5,0.5 v 0 a 0.51,0.51 0 0 1 -0.44,-0.5 z m -6,0 a 0.5,0.5 0 0 1 0.5,-0.51 v 0 a 0.51,0.51 0 0 1 0.5,0.51 v 0 a 0.51,0.51 0 0 1 -0.5,0.5 v 0 a 0.5,0.5 0 0 1 -0.42,-0.5 z m -6,0 a 0.5,0.5 0 0 1 0.5,-0.51 v 0 a 0.51,0.51 0 0 1 0.5,0.51 v 0 a 0.51,0.51 0 0 1 -0.5,0.5 v 0 a 0.5,0.5 0 0 1 -0.41,-0.5 z m -6,0 a 0.51,0.51 0 0 1 0.5,-0.51 v 0 a 0.5,0.5 0 0 1 0.5,0.51 v 0 a 0.5,0.5 0 0 1 -0.5,0.5 v 0 a 0.51,0.51 0 0 1 -0.4,-0.5 z m -6,0 a 0.51,0.51 0 0 1 0.51,-0.51 v 0 a 0.5,0.5 0 0 1 0.49,0.51 v 0 a 0.5,0.5 0 0 1 -0.49,0.5 v 0 a 0.51,0.51 0 0 1 -0.4,-0.5 z m -6,0 a 0.5,0.5 0 0 1 0.5,-0.51 v 0 a 0.51,0.51 0 0 1 0.5,0.51 v 0 a 0.51,0.51 0 0 1 -0.5,0.5 v 0 a 0.5,0.5 0 0 1 -0.37,-0.5 z m -6,0 a 0.5,0.5 0 0 1 0.5,-0.51 v 0 a 0.5,0.5 0 0 1 0.5,0.51 v 0 a 0.5,0.5 0 0 1 -0.5,0.5 v 0 a 0.5,0.5 0 0 1 -0.36,-0.5 z m -6,0 a 0.51,0.51 0 0 1 0.5,-0.51 v 0 a 0.5,0.5 0 0 1 0.5,0.51 v 0 a 0.5,0.5 0 0 1 -0.5,0.5 v 0 a 0.51,0.51 0 0 1 -0.35,-0.5 z m -6,0 a 0.51,0.51 0 0 1 0.5,-0.51 v 0 a 0.51,0.51 0 0 1 0.51,0.51 v 0 a 0.51,0.51 0 0 1 -0.51,0.5 v 0 a 0.51,0.51 0 0 1 -0.34,-0.5 z m -6,0 a 0.5,0.5 0 0 1 0.5,-0.51 v 0 a 0.51,0.51 0 0 1 0.5,0.51 v 0 a 0.51,0.51 0 0 1 -0.5,0.5 v 0 a 0.5,0.5 0 0 1 -0.32,-0.5 z m -6,0 a 0.5,0.5 0 0 1 0.5,-0.51 v 0 a 0.51,0.51 0 0 1 0.5,0.51 v 0 a 0.51,0.51 0 0 1 -0.5,0.5 v 0 a 0.5,0.5 0 0 1 -0.31,-0.5 z m -6,0 a 0.51,0.51 0 0 1 0.5,-0.51 v 0 a 0.5,0.5 0 0 1 0.5,0.51 v 0 a 0.5,0.5 0 0 1 -0.5,0.5 v 0 a 0.51,0.51 0 0 1 -0.3,-0.5 z m -6,0 a 0.5,0.5 0 0 1 0.5,-0.51 v 0 a 0.5,0.5 0 0 1 0.49,0.51 v 0 a 0.5,0.5 0 0 1 -0.49,0.5 v 0 a 0.5,0.5 0 0 1 -0.28,-0.5 z m -6,0 a 0.5,0.5 0 0 1 0.5,-0.51 v 0 a 0.51,0.51 0 0 1 0.5,0.51 v 0 a 0.51,0.51 0 0 1 -0.5,0.5 v 0 a 0.5,0.5 0 0 1 -0.27,-0.5 z m -6,0 a 0.5,0.5 0 0 1 0.5,-0.51 v 0 a 0.5,0.5 0 0 1 0.5,0.51 v 0 a 0.5,0.5 0 0 1 -0.5,0.5 v 0 a 0.5,0.5 0 0 1 -0.26,-0.5 z m -6,0 a 0.51,0.51 0 0 1 0.5,-0.51 v 0 a 0.5,0.5 0 0 1 0.5,0.51 v 0 a 0.5,0.5 0 0 1 -0.5,0.5 v 0 a 0.51,0.51 0 0 1 -0.25,-0.5 z m -6,0 a 0.5,0.5 0 0 1 0.5,-0.51 v 0 a 0.51,0.51 0 0 1 0.5,0.51 v 0 a 0.51,0.51 0 0 1 -0.5,0.5 v 0 a 0.5,0.5 0 0 1 -0.23,-0.5 z"
         style="fill:#e0e0e0"
         id="path21" /><path
         d="m 372.48,143.06 a 0.5,0.5 0 0 1 -0.5,-0.5 0.54,0.54 0 0 1 0.14,-0.36 0.91,0.91 0 0 1 0.16,-0.11 0.52,0.52 0 0 1 0.55,0.11 0.71,0.71 0 0 1 0.11,0.17 0.58,0.58 0 0 1 0,0.19 0.5,0.5 0 0 1 -0.14,0.35 0.51,0.51 0 0 1 -0.32,0.15 z"
         style="fill:#e0e0e0"
         id="path22" /><path
         d="m 372,136.78 a 0.5,0.5 0 0 1 0.5,-0.49 v 0 a 0.5,0.5 0 0 1 0.51,0.49 v 0 a 0.5,0.5 0 0 1 -0.51,0.5 v 0 a 0.5,0.5 0 0 1 -0.5,-0.5 z m 0,-5.77 a 0.51,0.51 0 0 1 0.5,-0.5 v 0 a 0.51,0.51 0 0 1 0.51,0.5 v 0 a 0.51,0.51 0 0 1 -0.51,0.51 v 0 A 0.51,0.51 0 0 1 372,131 Z m 0,-5.77 a 0.51,0.51 0 0 1 0.5,-0.5 v 0 a 0.51,0.51 0 0 1 0.51,0.5 v 0 a 0.5,0.5 0 0 1 -0.51,0.5 v 0 a 0.5,0.5 0 0 1 -0.5,-0.5 z m 0,-5.77 a 0.51,0.51 0 0 1 0.5,-0.5 v 0 a 0.51,0.51 0 0 1 0.51,0.5 v 0 a 0.5,0.5 0 0 1 -0.51,0.5 v 0 a 0.5,0.5 0 0 1 -0.5,-0.5 z m 0,-5.77 a 0.51,0.51 0 0 1 0.5,-0.5 v 0 a 0.51,0.51 0 0 1 0.51,0.5 v 0 a 0.5,0.5 0 0 1 -0.51,0.5 v 0 a 0.5,0.5 0 0 1 -0.5,-0.5 z m 0,-5.77 a 0.51,0.51 0 0 1 0.5,-0.5 v 0 a 0.51,0.51 0 0 1 0.51,0.5 v 0 a 0.5,0.5 0 0 1 -0.51,0.5 v 0 a 0.5,0.5 0 0 1 -0.5,-0.5 z"
         style="fill:#e0e0e0"
         id="path23" /><path
         d="m 372.48,102.66 a 0.49,0.49 0 0 1 -0.36,-0.15 0.5,0.5 0 0 1 -0.14,-0.35 0.58,0.58 0 0 1 0,-0.19 0.64,0.64 0 0 1 0.11,-0.16 0.51,0.51 0 0 1 0.71,0 0.5,0.5 0 0 1 0.14,0.35 0.58,0.58 0 0 1 0,0.19 0.64,0.64 0 0 1 -0.11,0.16 0.42,0.42 0 0 1 -0.16,0.11 0.43,0.43 0 0 1 -0.19,0.04 z"
         style="fill:#e0e0e0"
         id="path24" /><path
         d="m 165.8,290.83 a 0.51,0.51 0 0 1 -0.36,-0.14 0.5,0.5 0 0 1 -0.11,-0.17 0.58,0.58 0 0 1 0,-0.19 0.51,0.51 0 0 1 0.15,-0.35 0.53,0.53 0 0 1 0.55,-0.11 0.57,0.57 0 0 1 0.16,0.11 0.5,0.5 0 0 1 0.14,0.35 0.58,0.58 0 0 1 0,0.19 0.71,0.71 0 0 1 -0.11,0.17 0.54,0.54 0 0 1 -0.16,0.1 0.43,0.43 0 0 1 -0.26,0.04 z"
         style="fill:#e0e0e0"
         id="path25" /><path
         d="m 165.3,314.87 a 0.5,0.5 0 0 1 0.5,-0.5 v 0 a 0.49,0.49 0 0 1 0.49,0.5 v 0 a 0.5,0.5 0 0 1 -0.49,0.5 v 0 a 0.5,0.5 0 0 1 -0.5,-0.5 z m 0,-6.14 a 0.5,0.5 0 0 1 0.5,-0.5 v 0 a 0.5,0.5 0 0 1 0.49,0.5 v 0 a 0.49,0.49 0 0 1 -0.49,0.5 v 0 a 0.5,0.5 0 0 1 -0.5,-0.5 z m 0,-6.13 a 0.5,0.5 0 0 1 0.5,-0.5 v 0 a 0.5,0.5 0 0 1 0.49,0.5 v 0 a 0.5,0.5 0 0 1 -0.49,0.5 v 0 a 0.5,0.5 0 0 1 -0.5,-0.5 z m 0,-6.13 a 0.5,0.5 0 0 1 0.5,-0.5 v 0 a 0.49,0.49 0 0 1 0.49,0.5 v 0 a 0.5,0.5 0 0 1 -0.49,0.5 v 0 a 0.5,0.5 0 0 1 -0.5,-0.5 z"
         style="fill:#e0e0e0"
         id="path26" /><path
         d="m 165.8,321.5 a 0.48,0.48 0 0 1 -0.36,-0.15 0.46,0.46 0 0 1 -0.11,-0.16 0.58,0.58 0 0 1 0,-0.19 0.65,0.65 0 0 1 0,-0.19 0.46,0.46 0 0 1 0.11,-0.16 0.51,0.51 0 0 1 0.55,-0.11 0.42,0.42 0 0 1 0.16,0.11 0.64,0.64 0 0 1 0.11,0.16 0.63,0.63 0 0 1 0,0.19 0.58,0.58 0 0 1 0,0.19 0.64,0.64 0 0 1 -0.11,0.16 0.42,0.42 0 0 1 -0.16,0.11 0.43,0.43 0 0 1 -0.19,0.04 z"
         style="fill:#e0e0e0"
         id="path27" /><path
         d="m 222.55,321 a 0.5,0.5 0 0 1 0.5,-0.5 v 0 a 0.5,0.5 0 0 1 0.5,0.5 v 0 a 0.5,0.5 0 0 1 -0.5,0.5 v 0 a 0.5,0.5 0 0 1 -0.5,-0.5 z m -5.72,0 a 0.5,0.5 0 0 1 0.5,-0.5 v 0 a 0.5,0.5 0 0 1 0.5,0.5 v 0 a 0.5,0.5 0 0 1 -0.5,0.5 v 0 a 0.5,0.5 0 0 1 -0.5,-0.5 z m -5.73,0 a 0.5,0.5 0 0 1 0.5,-0.5 v 0 a 0.5,0.5 0 0 1 0.5,0.5 v 0 a 0.5,0.5 0 0 1 -0.5,0.5 v 0 a 0.5,0.5 0 0 1 -0.5,-0.5 z m -5.72,0 a 0.5,0.5 0 0 1 0.5,-0.5 v 0 a 0.5,0.5 0 0 1 0.5,0.5 v 0 a 0.5,0.5 0 0 1 -0.5,0.5 v 0 a 0.5,0.5 0 0 1 -0.5,-0.5 z m -5.73,0 a 0.5,0.5 0 0 1 0.5,-0.5 v 0 a 0.5,0.5 0 0 1 0.5,0.5 v 0 a 0.5,0.5 0 0 1 -0.5,0.5 v 0 a 0.5,0.5 0 0 1 -0.5,-0.5 z m -5.73,0 a 0.5,0.5 0 0 1 0.51,-0.5 v 0 a 0.49,0.49 0 0 1 0.49,0.5 v 0 a 0.49,0.49 0 0 1 -0.49,0.5 v 0 a 0.5,0.5 0 0 1 -0.51,-0.5 z m -5.72,0 a 0.5,0.5 0 0 1 0.5,-0.5 v 0 a 0.5,0.5 0 0 1 0.5,0.5 v 0 a 0.5,0.5 0 0 1 -0.5,0.5 v 0 a 0.5,0.5 0 0 1 -0.5,-0.5 z m -5.73,0 a 0.5,0.5 0 0 1 0.5,-0.5 v 0 a 0.5,0.5 0 0 1 0.5,0.5 v 0 a 0.5,0.5 0 0 1 -0.5,0.5 v 0 a 0.5,0.5 0 0 1 -0.5,-0.5 z m -5.72,0 a 0.5,0.5 0 0 1 0.5,-0.5 v 0 a 0.5,0.5 0 0 1 0.5,0.5 v 0 a 0.5,0.5 0 0 1 -0.5,0.5 v 0 a 0.5,0.5 0 0 1 -0.5,-0.5 z m -5.75,0 a 0.5,0.5 0 0 1 0.5,-0.5 v 0 a 0.5,0.5 0 0 1 0.5,0.5 v 0 a 0.5,0.5 0 0 1 -0.5,0.5 v 0 A 0.5,0.5 0 0 1 171,321 Z"
         style="fill:#e0e0e0"
         id="path28" /><path
         d="m 228.78,321.5 a 0.41,0.41 0 0 1 -0.19,0 0.45,0.45 0 0 1 -0.17,-0.11 0.44,0.44 0 0 1 -0.1,-0.16 0.41,0.41 0 0 1 0,-0.19 0.5,0.5 0 0 1 0.14,-0.35 0.45,0.45 0 0 1 0.17,-0.11 0.5,0.5 0 0 1 0.38,0 0.36,0.36 0 0 1 0.16,0.11 0.51,0.51 0 0 1 0.15,0.35 0.43,0.43 0 0 1 0,0.19 0.46,0.46 0 0 1 -0.11,0.16 0.36,0.36 0 0 1 -0.16,0.11 0.43,0.43 0 0 1 -0.27,0 z"
         style="fill:#e0e0e0"
         id="path29" /><path
         d="m 228.28,315.18 a 0.5,0.5 0 0 1 0.5,-0.5 v 0 a 0.5,0.5 0 0 1 0.5,0.5 v 0 a 0.51,0.51 0 0 1 -0.5,0.5 v 0 a 0.5,0.5 0 0 1 -0.5,-0.5 z m 0,-5.82 a 0.5,0.5 0 0 1 0.5,-0.51 v 0 a 0.51,0.51 0 0 1 0.5,0.51 v 0 a 0.51,0.51 0 0 1 -0.5,0.5 v 0 a 0.5,0.5 0 0 1 -0.5,-0.5 z m 0,-5.83 a 0.5,0.5 0 0 1 0.5,-0.5 v 0 a 0.51,0.51 0 0 1 0.5,0.5 v 0 a 0.5,0.5 0 0 1 -0.5,0.5 v 0 a 0.5,0.5 0 0 1 -0.5,-0.5 z m 0,-5.82 a 0.5,0.5 0 0 1 0.5,-0.5 v 0 a 0.51,0.51 0 0 1 0.5,0.5 v 0 a 0.5,0.5 0 0 1 -0.5,0.5 v 0 a 0.5,0.5 0 0 1 -0.5,-0.5 z m 0,-5.82 a 0.5,0.5 0 0 1 0.5,-0.5 v 0 a 0.5,0.5 0 0 1 0.5,0.5 v 0 a 0.51,0.51 0 0 1 -0.5,0.5 v 0 a 0.5,0.5 0 0 1 -0.5,-0.5 z m 0,-5.82 a 0.5,0.5 0 0 1 0.5,-0.5 v 0 a 0.5,0.5 0 0 1 0.5,0.5 v 0 a 0.51,0.51 0 0 1 -0.5,0.5 v 0 a 0.5,0.5 0 0 1 -0.5,-0.5 z m 0,-5.82 a 0.5,0.5 0 0 1 0.5,-0.5 v 0 a 0.5,0.5 0 0 1 0.5,0.5 v 0 a 0.51,0.51 0 0 1 -0.5,0.5 v 0 a 0.5,0.5 0 0 1 -0.5,-0.5 z m 0,-5.83 a 0.5,0.5 0 0 1 0.5,-0.5 v 0 a 0.51,0.51 0 0 1 0.5,0.5 v 0 a 0.5,0.5 0 0 1 -0.5,0.5 v 0 a 0.5,0.5 0 0 1 -0.5,-0.5 z m 0,-5.82 a 0.5,0.5 0 0 1 0.5,-0.5 v 0 a 0.5,0.5 0 0 1 0.5,0.5 v 0 a 0.5,0.5 0 0 1 -0.5,0.5 v 0 a 0.5,0.5 0 0 1 -0.5,-0.5 z m 0,-5.82 a 0.5,0.5 0 0 1 0.5,-0.5 v 0 a 0.5,0.5 0 0 1 0.5,0.5 v 0 a 0.51,0.51 0 0 1 -0.5,0.5 v 0 a 0.5,0.5 0 0 1 -0.5,-0.5 z m 0,-5.82 a 0.5,0.5 0 0 1 0.5,-0.5 v 0 a 0.5,0.5 0 0 1 0.5,0.5 v 0 a 0.51,0.51 0 0 1 -0.5,0.5 v 0 a 0.5,0.5 0 0 1 -0.5,-0.46 z m 0,-5.83 a 0.5,0.5 0 0 1 0.5,-0.5 v 0 a 0.51,0.51 0 0 1 0.5,0.5 v 0 a 0.5,0.5 0 0 1 -0.5,0.5 v 0 a 0.5,0.5 0 0 1 -0.5,-0.5 z m 0,-5.82 a 0.5,0.5 0 0 1 0.5,-0.5 v 0 a 0.5,0.5 0 0 1 0.5,0.5 v 0 a 0.5,0.5 0 0 1 -0.5,0.5 v 0 a 0.5,0.5 0 0 1 -0.5,-0.5 z m 0,-5.82 a 0.5,0.5 0 0 1 0.5,-0.5 v 0 a 0.5,0.5 0 0 1 0.5,0.5 v 0 a 0.5,0.5 0 0 1 -0.5,0.5 v 0 a 0.5,0.5 0 0 1 -0.5,-0.5 z"
         style="fill:#e0e0e0"
         id="path30" /><path
         d="m 228.78,234.17 a 0.58,0.58 0 0 1 -0.19,0 0.62,0.62 0 0 1 -0.17,-0.11 0.54,0.54 0 0 1 -0.1,-0.16 0.43,0.43 0 0 1 0,-0.19 0.52,0.52 0 0 1 0.14,-0.36 0.59,0.59 0 0 1 0.17,-0.1 0.5,0.5 0 0 1 0.38,0 0.44,0.44 0 0 1 0.16,0.1 0.55,0.55 0 0 1 0.15,0.36 0.43,0.43 0 0 1 0,0.19 0.57,0.57 0 0 1 -0.11,0.16 0.5,0.5 0 0 1 -0.35,0.15 z"
         style="fill:#e0e0e0"
         id="path31" /><path
         d="m 306.91,233.67 a 0.5,0.5 0 0 1 0.5,-0.5 v 0 a 0.5,0.5 0 0 1 0.5,0.5 v 0 a 0.5,0.5 0 0 1 -0.5,0.5 v 0 a 0.51,0.51 0 0 1 -0.5,-0.5 z m -6.05,0 a 0.5,0.5 0 0 1 0.5,-0.5 v 0 a 0.5,0.5 0 0 1 0.51,0.5 v 0 a 0.51,0.51 0 0 1 -0.51,0.5 v 0 a 0.51,0.51 0 0 1 -0.5,-0.5 z m -6.05,0 a 0.5,0.5 0 0 1 0.5,-0.5 v 0 a 0.5,0.5 0 0 1 0.5,0.5 v 0 a 0.5,0.5 0 0 1 -0.5,0.5 v 0 a 0.51,0.51 0 0 1 -0.5,-0.5 z m -6,0 a 0.49,0.49 0 0 1 0.49,-0.5 v 0 a 0.5,0.5 0 0 1 0.5,0.5 v 0 a 0.5,0.5 0 0 1 -0.5,0.5 v 0 a 0.5,0.5 0 0 1 -0.53,-0.5 z m -6,0 a 0.5,0.5 0 0 1 0.5,-0.5 v 0 a 0.5,0.5 0 0 1 0.5,0.5 v 0 a 0.51,0.51 0 0 1 -0.5,0.5 v 0 a 0.5,0.5 0 0 1 -0.59,-0.5 z m -6.05,0 a 0.5,0.5 0 0 1 0.5,-0.5 v 0 a 0.5,0.5 0 0 1 0.5,0.5 v 0 a 0.51,0.51 0 0 1 -0.5,0.5 v 0 a 0.5,0.5 0 0 1 -0.59,-0.5 z m -6.05,0 a 0.5,0.5 0 0 1 0.5,-0.5 v 0 a 0.5,0.5 0 0 1 0.5,0.5 v 0 a 0.51,0.51 0 0 1 -0.5,0.5 v 0 a 0.5,0.5 0 0 1 -0.59,-0.5 z m -6.05,0 a 0.5,0.5 0 0 1 0.5,-0.5 v 0 a 0.5,0.5 0 0 1 0.5,0.5 v 0 a 0.5,0.5 0 0 1 -0.5,0.5 v 0 a 0.51,0.51 0 0 1 -0.59,-0.5 z m -6.05,0 a 0.5,0.5 0 0 1 0.5,-0.5 v 0 a 0.5,0.5 0 0 1 0.5,0.5 v 0 a 0.5,0.5 0 0 1 -0.5,0.5 v 0 a 0.5,0.5 0 0 1 -0.59,-0.5 z m -6,0 a 0.5,0.5 0 0 1 0.5,-0.5 v 0 a 0.5,0.5 0 0 1 0.5,0.5 v 0 a 0.5,0.5 0 0 1 -0.5,0.5 v 0 a 0.51,0.51 0 0 1 -0.64,-0.5 z m -6.05,0 a 0.5,0.5 0 0 1 0.5,-0.5 v 0 a 0.5,0.5 0 0 1 0.5,0.5 v 0 a 0.5,0.5 0 0 1 -0.5,0.5 v 0 a 0.51,0.51 0 0 1 -0.64,-0.5 z m -6,0 a 0.5,0.5 0 0 1 0.5,-0.5 v 0 a 0.5,0.5 0 0 1 0.5,0.5 v 0 a 0.51,0.51 0 0 1 -0.5,0.5 v 0 a 0.5,0.5 0 0 1 -0.68,-0.5 z m -6,0 a 0.5,0.5 0 0 1 0.5,-0.5 v 0 a 0.5,0.5 0 0 1 0.5,0.5 v 0 a 0.51,0.51 0 0 1 -0.5,0.5 v 0 a 0.5,0.5 0 0 1 -0.73,-0.5 z"
         style="fill:#e0e0e0"
         id="path32" /><path
         d="m 313.46,234.17 a 0.51,0.51 0 0 1 -0.35,-0.15 0.57,0.57 0 0 1 -0.11,-0.16 0.65,0.65 0 0 1 0,-0.19 0.58,0.58 0 0 1 0,-0.19 0.5,0.5 0 0 1 0.11,-0.17 0.44,0.44 0 0 1 0.16,-0.1 0.42,0.42 0 0 1 0.38,0 0.59,0.59 0 0 1 0.17,0.1 0.48,0.48 0 0 1 0.1,0.17 0.41,0.41 0 0 1 0,0.19 0.5,0.5 0 0 1 -0.14,0.35 0.55,0.55 0 0 1 -0.32,0.15 z"
         style="fill:#e0e0e0"
         id="path33" /><path
         d="m 313,227.36 a 0.5,0.5 0 0 1 0.5,-0.5 v 0 a 0.5,0.5 0 0 1 0.5,0.5 v 0 a 0.5,0.5 0 0 1 -0.5,0.5 v 0 a 0.51,0.51 0 0 1 -0.5,-0.5 z m 0,-6.31 a 0.5,0.5 0 0 1 0.5,-0.5 v 0 a 0.5,0.5 0 0 1 0.5,0.5 v 0 a 0.49,0.49 0 0 1 -0.5,0.49 v 0 a 0.5,0.5 0 0 1 -0.5,-0.49 z m 0,-6.32 a 0.51,0.51 0 0 1 0.5,-0.5 v 0 a 0.5,0.5 0 0 1 0.5,0.5 v 0 a 0.5,0.5 0 0 1 -0.5,0.5 v 0 a 0.5,0.5 0 0 1 -0.5,-0.5 z m 0,-6.31 a 0.51,0.51 0 0 1 0.5,-0.5 v 0 a 0.5,0.5 0 0 1 0.5,0.5 v 0 a 0.5,0.5 0 0 1 -0.5,0.5 v 0 a 0.5,0.5 0 0 1 -0.5,-0.5 z"
         style="fill:#e0e0e0"
         id="path34" /><path
         d="m 313.46,202.61 a 0.5,0.5 0 0 1 -0.35,-0.14 0.62,0.62 0 0 1 -0.11,-0.17 0.58,0.58 0 0 1 0,-0.19 0.65,0.65 0 0 1 0,-0.19 0.53,0.53 0 0 1 0.27,-0.27 0.52,0.52 0 0 1 0.55,0.11 0.55,0.55 0 0 1 0.14,0.35 0.48,0.48 0 0 1 -0.5,0.5 z"
         style="fill:#e0e0e0"
         id="path35" /><path
         d="m 372.48,313.17 a 0.51,0.51 0 0 1 -0.36,-0.15 0.5,0.5 0 0 1 -0.14,-0.35 0.54,0.54 0 0 1 0.14,-0.36 0.52,0.52 0 0 1 0.55,-0.1 0.54,0.54 0 0 1 0.16,0.1 0.71,0.71 0 0 1 0.11,0.17 0.58,0.58 0 0 1 0,0.19 0.5,0.5 0 0 1 -0.14,0.35 0.51,0.51 0 0 1 -0.32,0.15 z"
         style="fill:#e0e0e0"
         id="path36" /><path
         d="m 372,347.24 a 0.5,0.5 0 0 1 0.5,-0.5 v 0 a 0.5,0.5 0 0 1 0.51,0.5 v 0 a 0.5,0.5 0 0 1 -0.51,0.5 v 0 a 0.5,0.5 0 0 1 -0.5,-0.5 z m 0,-5.76 a 0.5,0.5 0 0 1 0.5,-0.5 v 0 a 0.5,0.5 0 0 1 0.51,0.5 v 0 a 0.51,0.51 0 0 1 -0.51,0.5 v 0 a 0.51,0.51 0 0 1 -0.5,-0.5 z m 0,-5.77 a 0.51,0.51 0 0 1 0.5,-0.5 v 0 a 0.51,0.51 0 0 1 0.51,0.5 v 0 a 0.51,0.51 0 0 1 -0.51,0.51 v 0 a 0.51,0.51 0 0 1 -0.5,-0.51 z m 0,-5.76 a 0.51,0.51 0 0 1 0.5,-0.5 v 0 a 0.51,0.51 0 0 1 0.51,0.5 v 0 a 0.5,0.5 0 0 1 -0.51,0.5 v 0 A 0.5,0.5 0 0 1 372,330 Z m 0,-5.76 a 0.5,0.5 0 0 1 0.5,-0.5 v 0 a 0.5,0.5 0 0 1 0.51,0.5 v 0 a 0.5,0.5 0 0 1 -0.51,0.5 v 0 a 0.5,0.5 0 0 1 -0.5,-0.5 z m 0,-5.76 a 0.5,0.5 0 0 1 0.5,-0.5 v 0 a 0.5,0.5 0 0 1 0.51,0.5 v 0 a 0.51,0.51 0 0 1 -0.51,0.5 v 0 a 0.51,0.51 0 0 1 -0.5,-0.5 z"
         style="fill:#e0e0e0"
         id="path37" /><path
         d="m 372.48,353.5 a 0.49,0.49 0 0 1 -0.36,-0.15 0.5,0.5 0 0 1 -0.12,-0.35 0.58,0.58 0 0 1 0,-0.19 0.64,0.64 0 0 1 0.11,-0.16 0.51,0.51 0 0 1 0.71,0 0.5,0.5 0 0 1 0.14,0.35 0.63,0.63 0 0 1 0,0.19 0.64,0.64 0 0 1 -0.11,0.16 0.42,0.42 0 0 1 -0.16,0.11 0.43,0.43 0 0 1 -0.21,0.04 z"
         style="fill:#e0e0e0"
         id="path38" /><path
         d="m 366,353 a 0.5,0.5 0 0 1 0.5,-0.5 v 0 a 0.5,0.5 0 0 1 0.5,0.5 v 0 a 0.5,0.5 0 0 1 -0.5,0.5 v 0 A 0.5,0.5 0 0 1 366,353 Z m -6,0 a 0.5,0.5 0 0 1 0.5,-0.5 v 0 a 0.5,0.5 0 0 1 0.5,0.5 v 0 a 0.5,0.5 0 0 1 -0.5,0.5 v 0 A 0.5,0.5 0 0 1 360,353 Z m -6,0 a 0.5,0.5 0 0 1 0.5,-0.5 v 0 a 0.5,0.5 0 0 1 0.5,0.5 v 0 a 0.5,0.5 0 0 1 -0.5,0.5 v 0 A 0.5,0.5 0 0 1 354,353 Z m -6,0 a 0.5,0.5 0 0 1 0.5,-0.5 v 0 a 0.5,0.5 0 0 1 0.5,0.5 v 0 a 0.5,0.5 0 0 1 -0.5,0.5 v 0 A 0.5,0.5 0 0 1 348,353 Z m -6,0 a 0.5,0.5 0 0 1 0.5,-0.5 v 0 a 0.5,0.5 0 0 1 0.5,0.5 v 0 a 0.5,0.5 0 0 1 -0.5,0.5 v 0 A 0.5,0.5 0 0 1 342,353 Z m -6,0 a 0.5,0.5 0 0 1 0.5,-0.5 v 0 a 0.5,0.5 0 0 1 0.5,0.5 v 0 a 0.5,0.5 0 0 1 -0.5,0.5 v 0 a 0.5,0.5 0 0 1 -0.45,-0.5 z m -6,0 a 0.5,0.5 0 0 1 0.5,-0.5 v 0 a 0.5,0.5 0 0 1 0.5,0.5 v 0 a 0.5,0.5 0 0 1 -0.5,0.5 v 0 a 0.5,0.5 0 0 1 -0.44,-0.5 z m -6,0 a 0.5,0.5 0 0 1 0.51,-0.5 v 0 a 0.5,0.5 0 0 1 0.5,0.5 v 0 a 0.5,0.5 0 0 1 -0.5,0.5 v 0 a 0.5,0.5 0 0 1 -0.44,-0.5 z m -6,0 a 0.5,0.5 0 0 1 0.5,-0.5 v 0 a 0.5,0.5 0 0 1 0.5,0.5 v 0 a 0.5,0.5 0 0 1 -0.5,0.5 v 0 a 0.5,0.5 0 0 1 -0.41,-0.5 z m -6,0 a 0.5,0.5 0 0 1 0.5,-0.5 v 0 a 0.5,0.5 0 0 1 0.5,0.5 v 0 a 0.5,0.5 0 0 1 -0.5,0.5 v 0 a 0.5,0.5 0 0 1 -0.4,-0.5 z m -6,0 a 0.5,0.5 0 0 1 0.5,-0.5 v 0 a 0.5,0.5 0 0 1 0.5,0.5 v 0 a 0.5,0.5 0 0 1 -0.5,0.5 v 0 a 0.5,0.5 0 0 1 -0.39,-0.5 z m -6,0 a 0.5,0.5 0 0 1 0.5,-0.5 v 0 a 0.5,0.5 0 0 1 0.51,0.5 v 0 a 0.5,0.5 0 0 1 -0.51,0.5 v 0 a 0.5,0.5 0 0 1 -0.38,-0.5 z m -6,0 a 0.5,0.5 0 0 1 0.5,-0.5 v 0 a 0.5,0.5 0 0 1 0.5,0.5 v 0 a 0.5,0.5 0 0 1 -0.5,0.5 v 0 a 0.5,0.5 0 0 1 -0.36,-0.5 z m -6,0 a 0.5,0.5 0 0 1 0.5,-0.5 v 0 a 0.5,0.5 0 0 1 0.5,0.5 v 0 a 0.5,0.5 0 0 1 -0.5,0.5 v 0 a 0.5,0.5 0 0 1 -0.35,-0.5 z m -6,0 a 0.5,0.5 0 0 1 0.5,-0.5 v 0 a 0.5,0.5 0 0 1 0.5,0.5 v 0 a 0.5,0.5 0 0 1 -0.5,0.5 v 0 a 0.5,0.5 0 0 1 -0.34,-0.5 z m -6,0 a 0.5,0.5 0 0 1 0.5,-0.5 v 0 a 0.5,0.5 0 0 1 0.5,0.5 v 0 a 0.5,0.5 0 0 1 -0.5,0.5 v 0 a 0.5,0.5 0 0 1 -0.32,-0.5 z m -6,0 a 0.5,0.5 0 0 1 0.5,-0.5 v 0 a 0.5,0.5 0 0 1 0.5,0.5 v 0 a 0.5,0.5 0 0 1 -0.5,0.5 v 0 a 0.5,0.5 0 0 1 -0.31,-0.5 z m -6,0 a 0.5,0.5 0 0 1 0.5,-0.5 v 0 a 0.5,0.5 0 0 1 0.5,0.5 v 0 a 0.5,0.5 0 0 1 -0.5,0.5 v 0 a 0.5,0.5 0 0 1 -0.3,-0.5 z m -6,0 a 0.49,0.49 0 0 1 0.49,-0.5 v 0 a 0.5,0.5 0 0 1 0.5,0.5 v 0 a 0.5,0.5 0 0 1 -0.5,0.5 v 0 a 0.49,0.49 0 0 1 -0.27,-0.5 z m -6,0 a 0.5,0.5 0 0 1 0.5,-0.5 v 0 a 0.5,0.5 0 0 1 0.5,0.5 v 0 a 0.5,0.5 0 0 1 -0.5,0.5 v 0 a 0.5,0.5 0 0 1 -0.27,-0.5 z m -6,0 a 0.5,0.5 0 0 1 0.5,-0.5 v 0 a 0.5,0.5 0 0 1 0.5,0.5 v 0 a 0.5,0.5 0 0 1 -0.5,0.5 v 0 a 0.5,0.5 0 0 1 -0.26,-0.5 z m -6,0 a 0.5,0.5 0 0 1 0.5,-0.5 v 0 a 0.5,0.5 0 0 1 0.5,0.5 v 0 a 0.5,0.5 0 0 1 -0.5,0.5 v 0 a 0.5,0.5 0 0 1 -0.25,-0.5 z m -6,0 a 0.5,0.5 0 0 1 0.5,-0.5 v 0 a 0.5,0.5 0 0 1 0.51,0.5 v 0 a 0.5,0.5 0 0 1 -0.51,0.5 v 0 a 0.5,0.5 0 0 1 -0.24,-0.5 z"
         style="fill:#e0e0e0"
         id="path39" /><path
         d="m 228.78,353.5 a 0.41,0.41 0 0 1 -0.19,0 0.45,0.45 0 0 1 -0.17,-0.11 0.52,0.52 0 0 1 0,-0.7 0.45,0.45 0 0 1 0.17,-0.11 0.5,0.5 0 0 1 0.38,0 0.36,0.36 0 0 1 0.16,0.11 0.49,0.49 0 0 1 0,0.7 0.36,0.36 0 0 1 -0.16,0.11 0.43,0.43 0 0 1 -0.19,0 z"
         style="fill:#e0e0e0"
         id="path40" /><path
         d="m 228.28,346.6 a 0.5,0.5 0 0 1 0.5,-0.5 v 0 a 0.5,0.5 0 0 1 0.5,0.5 v 0 a 0.5,0.5 0 0 1 -0.5,0.5 v 0 a 0.5,0.5 0 0 1 -0.5,-0.5 z m 0,-6.4 a 0.5,0.5 0 0 1 0.5,-0.5 v 0 a 0.5,0.5 0 0 1 0.5,0.5 v 0 a 0.5,0.5 0 0 1 -0.5,0.5 v 0 a 0.5,0.5 0 0 1 -0.5,-0.5 z m 0,-6.4 a 0.5,0.5 0 0 1 0.5,-0.5 v 0 a 0.5,0.5 0 0 1 0.5,0.5 v 0 a 0.5,0.5 0 0 1 -0.5,0.5 v 0 a 0.5,0.5 0 0 1 -0.5,-0.5 z m 0,-6.4 a 0.5,0.5 0 0 1 0.5,-0.5 v 0 a 0.5,0.5 0 0 1 0.5,0.5 v 0 a 0.5,0.5 0 0 1 -0.5,0.5 v 0 a 0.5,0.5 0 0 1 -0.5,-0.5 z"
         style="fill:#e0e0e0"
         id="path41" /><path
         d="m 228.78,321.5 a 0.41,0.41 0 0 1 -0.19,0 0.45,0.45 0 0 1 -0.17,-0.11 0.44,0.44 0 0 1 -0.1,-0.16 0.41,0.41 0 0 1 0,-0.19 0.5,0.5 0 0 1 0.14,-0.35 0.45,0.45 0 0 1 0.17,-0.11 0.5,0.5 0 0 1 0.38,0 0.36,0.36 0 0 1 0.16,0.11 0.51,0.51 0 0 1 0.15,0.35 0.43,0.43 0 0 1 0,0.19 0.46,0.46 0 0 1 -0.11,0.16 0.36,0.36 0 0 1 -0.16,0.11 0.43,0.43 0 0 1 -0.27,0 z"
         style="fill:#e0e0e0"
         id="path42" /><path
         d="m 228.78,202.61 a 0.41,0.41 0 0 1 -0.19,0 0.45,0.45 0 0 1 -0.17,-0.11 0.44,0.44 0 0 1 -0.1,-0.16 0.41,0.41 0 0 1 0,-0.19 0.55,0.55 0 0 1 0.14,-0.35 0.45,0.45 0 0 1 0.17,-0.11 0.5,0.5 0 0 1 0.38,0 0.36,0.36 0 0 1 0.16,0.11 0.5,0.5 0 0 1 0.15,0.35 0.51,0.51 0 0 1 -0.15,0.35 0.36,0.36 0 0 1 -0.16,0.11 0.43,0.43 0 0 1 -0.23,0 z"
         style="fill:#e0e0e0"
         id="path43" /><path
         d="m 228.28,227.36 a 0.5,0.5 0 0 1 0.5,-0.51 v 0 a 0.51,0.51 0 0 1 0.5,0.51 v 0 a 0.51,0.51 0 0 1 -0.5,0.5 v 0 a 0.5,0.5 0 0 1 -0.5,-0.5 z m 0,-6.31 a 0.5,0.5 0 0 1 0.5,-0.5 v 0 a 0.5,0.5 0 0 1 0.5,0.5 v 0 a 0.51,0.51 0 0 1 -0.5,0.5 v 0 a 0.5,0.5 0 0 1 -0.5,-0.5 z m 0,-6.32 a 0.5,0.5 0 0 1 0.5,-0.5 v 0 a 0.51,0.51 0 0 1 0.5,0.5 v 0 a 0.5,0.5 0 0 1 -0.5,0.5 v 0 a 0.5,0.5 0 0 1 -0.5,-0.5 z m 0,-6.31 a 0.5,0.5 0 0 1 0.5,-0.5 v 0 a 0.51,0.51 0 0 1 0.5,0.5 v 0 a 0.5,0.5 0 0 1 -0.5,0.5 v 0 a 0.5,0.5 0 0 1 -0.5,-0.5 z"
         style="fill:#e0e0e0"
         id="path44" /><path
         d="m 228.78,234.17 a 0.58,0.58 0 0 1 -0.19,0 0.62,0.62 0 0 1 -0.17,-0.11 0.54,0.54 0 0 1 -0.1,-0.16 0.43,0.43 0 0 1 0,-0.19 0.52,0.52 0 0 1 0.14,-0.36 0.59,0.59 0 0 1 0.17,-0.1 0.5,0.5 0 0 1 0.38,0 0.44,0.44 0 0 1 0.16,0.1 0.55,0.55 0 0 1 0.15,0.36 0.43,0.43 0 0 1 0,0.19 0.57,0.57 0 0 1 -0.11,0.16 0.5,0.5 0 0 1 -0.35,0.15 z"
         style="fill:#e0e0e0"
         id="path45" /></g><g
       id="freepik--Monitors--inject-493"
       transform="translate(-4.9202977,65.792317)"><path
         d="m 123.3,353.48 2,-34.24 a 3.89,3.89 0 0 1 3.83,-3.62 h 55.57 a 3.38,3.38 0 0 1 3.41,3.62 l -2,34.24 a 3.89,3.89 0 0 1 -3.83,3.63 h -55.56 a 3.4,3.4 0 0 1 -3.42,-3.63 z"
         style="fill:#708090"
         id="path46" /><path
         d="m 120.49,353.48 2,-34.24 a 3.89,3.89 0 0 1 3.84,-3.62 h 57.79 a 3.39,3.39 0 0 1 3.42,3.62 l -2,34.24 a 3.89,3.89 0 0 1 -3.83,3.63 h -57.8 a 3.4,3.4 0 0 1 -3.42,-3.63 z"
         style="fill:#ffffff"
         id="path47" /><path
         d="m 120.49,353.48 2,-34.24 a 3.89,3.89 0 0 1 3.84,-3.62 h 57.79 a 3.39,3.39 0 0 1 3.42,3.62 l -2,34.24 a 3.89,3.89 0 0 1 -3.83,3.63 h -57.8 a 3.4,3.4 0 0 1 -3.42,-3.63 z"
         style="opacity:0.3;fill:#708090"
         id="path48" /><rect
         x="154.44"
         y="350.17001"
         width="7.6999998"
         height="28.15"
         rx="3.6199999"
         transform="rotate(90,158.29,364.24)"
         style="fill:#708090"
         id="rect48" /><g
         style="opacity:0.6"
         id="g49"><rect
           x="154.44"
           y="350.17001"
           width="7.6999998"
           height="28.15"
           rx="3.6199999"
           transform="rotate(90,158.29,364.24)"
           style="fill:#ffffff"
           id="rect49" /></g><rect
         x="146.97"
         y="349.04999"
         width="7.6999998"
         height="30.379999"
         rx="3.6199999"
         transform="rotate(90,150.82,364.24)"
         style="fill:#ffffff"
         id="rect50" /><rect
         x="146.97"
         y="349.04999"
         width="7.6999998"
         height="30.379999"
         rx="3.6199999"
         transform="rotate(90,150.82,364.24)"
         style="opacity:0.3;fill:#ecc6ce;fill-opacity:1"
         id="rect51" /><path
         d="M 182.52,355.35 H 123.3 a 1.5,1.5 0 0 1 -1.51,-1.6 l 2,-34.78 a 1.72,1.72 0 0 1 1.69,-1.6 h 59.22 a 1.5,1.5 0 0 1 1.51,1.6 l -2,34.78 a 1.72,1.72 0 0 1 -1.69,1.6 z"
         style="opacity:0.9;fill:#ffffff"
         id="path51" /><polygon
         points="139.36,317.37 151.14,317.37 140.37,355.35 128.59,355.35 "
         style="opacity:0.1;fill:#708090"
         id="polygon51" /><polygon
         points="152.55,317.37 160.78,317.37 150.01,355.35 141.78,355.35 "
         style="opacity:0.1;fill:#708090"
         id="polygon52" /><polygon
         points="170.49,317.37 178.72,317.37 167.95,355.35 159.72,355.35 "
         style="opacity:0.1;fill:#708090"
         id="polygon53" /><path
         d="m 219,353.48 2,-34.24 a 3.88,3.88 0 0 1 3.83,-3.62 h 55.56 a 3.38,3.38 0 0 1 3.42,3.62 l -2,34.24 a 3.9,3.9 0 0 1 -3.83,3.63 H 222.43 A 3.38,3.38 0 0 1 219,353.48 Z"
         style="fill:#708090"
         id="path53" /><path
         d="m 216.21,353.48 2,-34.24 a 3.89,3.89 0 0 1 3.83,-3.62 h 57.8 a 3.38,3.38 0 0 1 3.41,3.62 l -2,34.24 a 3.89,3.89 0 0 1 -3.83,3.63 h -57.79 a 3.39,3.39 0 0 1 -3.42,-3.63 z"
         style="fill:#ffffff"
         id="path54" /><path
         d="m 216.21,353.48 2,-34.24 a 3.89,3.89 0 0 1 3.83,-3.62 h 57.8 a 3.38,3.38 0 0 1 3.41,3.62 l -2,34.24 a 3.89,3.89 0 0 1 -3.83,3.63 h -57.79 a 3.39,3.39 0 0 1 -3.42,-3.63 z"
         style="opacity:0.3;fill:#708090"
         id="path55" /><rect
         x="250.14999"
         y="350.17001"
         width="7.6999998"
         height="28.15"
         rx="3.6199999"
         transform="rotate(90,254,364.24)"
         style="fill:#708090"
         id="rect55" /><g
         style="opacity:0.6"
         id="g56"><rect
           x="250.14999"
           y="350.17001"
           width="7.6999998"
           height="28.15"
           rx="3.6199999"
           transform="rotate(90,254,364.24)"
           style="fill:#ffffff"
           id="rect56" /></g><rect
         x="242.67999"
         y="349.04999"
         width="7.6999998"
         height="30.379999"
         rx="3.6199999"
         transform="rotate(90,246.53,364.24)"
         style="fill:#ffffff"
         id="rect57" /><rect
         x="242.67999"
         y="349.04999"
         width="7.6999998"
         height="30.379999"
         rx="3.6199999"
         transform="rotate(90,246.53,364.24)"
         style="opacity:0.3;fill:#bf4059;fill-opacity:1"
         id="rect58" /><path
         d="M 278.23,355.35 H 219 a 1.49,1.49 0 0 1 -1.5,-1.6 l 2,-34.78 a 1.72,1.72 0 0 1 1.69,-1.6 h 59.22 a 1.49,1.49 0 0 1 1.5,1.6 l -2,34.78 a 1.71,1.71 0 0 1 -1.68,1.6 z"
         style="opacity:0.9;fill:#ffffff"
         id="path58" /><polygon
         points="235.08,317.37 246.85,317.37 236.08,355.35 224.31,355.35 "
         style="opacity:0.1;fill:#708090"
         id="polygon58" /><polygon
         points="248.27,317.37 256.5,317.37 245.72,355.35 237.5,355.35 "
         style="opacity:0.1;fill:#708090"
         id="polygon59" /><polygon
         points="266.21,317.37 274.44,317.37 263.66,355.35 255.44,355.35 "
         style="opacity:0.1;fill:#708090"
         id="polygon60" /><path
         d="m 314.73,353.48 2,-34.24 a 3.88,3.88 0 0 1 3.83,-3.62 h 55.56 a 3.39,3.39 0 0 1 3.42,3.62 l -2,34.24 a 3.9,3.9 0 0 1 -3.84,3.63 h -55.55 a 3.4,3.4 0 0 1 -3.42,-3.63 z"
         style="fill:#708090"
         id="path60" /><path
         d="m 311.93,353.48 2,-34.24 a 3.88,3.88 0 0 1 3.83,-3.62 h 57.79 a 3.39,3.39 0 0 1 3.42,3.62 l -2,34.24 a 3.9,3.9 0 0 1 -3.83,3.63 h -57.8 a 3.38,3.38 0 0 1 -3.41,-3.63 z"
         style="fill:#ffffff"
         id="path61" /><path
         d="m 311.93,353.48 2,-34.24 a 3.88,3.88 0 0 1 3.83,-3.62 h 57.79 a 3.39,3.39 0 0 1 3.42,3.62 l -2,34.24 a 3.9,3.9 0 0 1 -3.83,3.63 h -57.8 a 3.38,3.38 0 0 1 -3.41,-3.63 z"
         style="opacity:0.3;fill:#708090"
         id="path62" /><rect
         x="345.87"
         y="350.17001"
         width="7.6999998"
         height="28.15"
         rx="3.6199999"
         transform="rotate(90,349.72,364.24)"
         style="fill:#708090"
         id="rect62" /><g
         style="opacity:0.6"
         id="g63"><rect
           x="345.87"
           y="350.17001"
           width="7.6999998"
           height="28.15"
           rx="3.6199999"
           transform="rotate(90,349.72,364.24)"
           style="fill:#ffffff"
           id="rect63" /></g><rect
         x="338.39999"
         y="349.04999"
         width="7.6999998"
         height="30.379999"
         rx="3.6199999"
         transform="rotate(90,342.25,364.24)"
         style="fill:#ffffff"
         id="rect64" /><rect
         x="338.39999"
         y="349.04999"
         width="7.6999998"
         height="30.379999"
         rx="3.6199999"
         transform="rotate(90,342.25,364.24)"
         style="opacity:0.3;fill:#ecc6ce;fill-opacity:1"
         id="rect65" /><path
         d="m 374,355.35 h -59.27 a 1.5,1.5 0 0 1 -1.51,-1.6 l 2,-34.78 a 1.71,1.71 0 0 1 1.69,-1.6 h 59.21 a 1.49,1.49 0 0 1 1.51,1.6 l -2,34.78 a 1.72,1.72 0 0 1 -1.63,1.6 z"
         style="opacity:0.9;fill:#ffffff"
         id="path65" /><polygon
         points="330.79,317.37 342.57,317.37 331.8,355.35 320.02,355.35 "
         style="opacity:0.1;fill:#708090"
         id="polygon65" /><polygon
         points="343.99,317.37 352.21,317.37 341.44,355.35 333.21,355.35 "
         style="opacity:0.1;fill:#708090"
         id="polygon66" /><polygon
         points="361.93,317.37 370.15,317.37 359.38,355.35 351.15,355.35 "
         style="opacity:0.1;fill:#708090"
         id="polygon67" /></g><g
       id="freepik--Connection--inject-493"><path
         d="m 153.68,308.8 a 0.58,0.58 0 0 1 -0.19,0 l -0.17,-0.11 a 0.54,0.54 0 0 1 -0.1,-0.16 0.46,0.46 0 0 1 0,-0.19 0.51,0.51 0 0 1 0.14,-0.36 0.53,0.53 0 0 1 0.55,-0.11 0.46,0.46 0 0 1 0.16,0.11 0.42,0.42 0 0 1 0.11,0.16 0.45,0.45 0 0 1 0,0.2 0.46,0.46 0 0 1 0,0.19 0.42,0.42 0 0 1 -0.11,0.16 0.5,0.5 0 0 1 -0.35,0.15 z"
         style="fill:#708090"
         id="path67" /><path
         d="m 153.18,304.63 a 0.5,0.5 0 0 1 0.5,-0.5 v 0 a 0.5,0.5 0 0 1 0.5,0.5 v 0 a 0.5,0.5 0 0 1 -0.5,0.5 v 0 a 0.5,0.5 0 0 1 -0.5,-0.5 z"
         style="fill:#708090"
         id="path68" /><path
         d="m 153.68,301.47 a 0.51,0.51 0 0 1 -0.36,-0.15 0.44,0.44 0 0 1 -0.1,-0.16 0.41,0.41 0 0 1 0,-0.19 0.5,0.5 0 0 1 0.14,-0.35 0.51,0.51 0 0 1 0.55,-0.11 0.46,0.46 0 0 1 0.16,0.11 0.36,0.36 0 0 1 0.11,0.16 0.43,0.43 0 0 1 0,0.19 0.41,0.41 0 0 1 0,0.19 0.53,0.53 0 0 1 -0.27,0.27 0.43,0.43 0 0 1 -0.23,0.04 z"
         style="fill:#708090"
         id="path69" /><path
         d="m 245.49,301 a 0.5,0.5 0 0 1 0.49,-0.5 v 0 a 0.5,0.5 0 0 1 0.5,0.5 v 0 a 0.5,0.5 0 0 1 -0.5,0.5 v 0 a 0.49,0.49 0 0 1 -0.49,-0.5 z m -4,0 a 0.51,0.51 0 0 1 0.5,-0.5 v 0 a 0.5,0.5 0 0 1 0.5,0.5 v 0 a 0.5,0.5 0 0 1 -0.5,0.5 v 0 a 0.5,0.5 0 0 1 -0.52,-0.5 z m -4,0 a 0.5,0.5 0 0 1 0.5,-0.5 v 0 a 0.51,0.51 0 0 1 0.5,0.5 v 0 a 0.5,0.5 0 0 1 -0.5,0.5 v 0 a 0.5,0.5 0 0 1 -0.53,-0.5 z m -4,0 a 0.5,0.5 0 0 1 0.5,-0.5 v 0 a 0.5,0.5 0 0 1 0.49,0.5 v 0 a 0.49,0.49 0 0 1 -0.49,0.5 v 0 a 0.5,0.5 0 0 1 -0.54,-0.5 z m -4,0 a 0.51,0.51 0 0 1 0.5,-0.5 v 0 a 0.5,0.5 0 0 1 0.5,0.5 v 0 a 0.5,0.5 0 0 1 -0.5,0.5 v 0 a 0.5,0.5 0 0 1 -0.56,-0.5 z m -4,0 a 0.5,0.5 0 0 1 0.5,-0.5 v 0 a 0.51,0.51 0 0 1 0.5,0.5 v 0 a 0.5,0.5 0 0 1 -0.5,0.5 v 0 a 0.5,0.5 0 0 1 -0.57,-0.5 z m -4,0 a 0.5,0.5 0 0 1 0.5,-0.5 v 0 a 0.51,0.51 0 0 1 0.5,0.5 v 0 a 0.5,0.5 0 0 1 -0.5,0.5 v 0 a 0.5,0.5 0 0 1 -0.58,-0.5 z m -4,0 a 0.51,0.51 0 0 1 0.5,-0.5 v 0 a 0.5,0.5 0 0 1 0.5,0.5 v 0 a 0.5,0.5 0 0 1 -0.5,0.5 v 0 a 0.5,0.5 0 0 1 -0.6,-0.5 z m -4,0 a 0.5,0.5 0 0 1 0.5,-0.5 v 0 a 0.51,0.51 0 0 1 0.5,0.5 v 0 a 0.5,0.5 0 0 1 -0.5,0.5 v 0 a 0.5,0.5 0 0 1 -0.61,-0.5 z m -4,0 a 0.5,0.5 0 0 1 0.5,-0.5 v 0 a 0.51,0.51 0 0 1 0.5,0.5 v 0 a 0.5,0.5 0 0 1 -0.5,0.5 v 0 a 0.5,0.5 0 0 1 -0.62,-0.5 z m -4,0 a 0.51,0.51 0 0 1 0.5,-0.5 v 0 a 0.5,0.5 0 0 1 0.5,0.5 v 0 a 0.5,0.5 0 0 1 -0.5,0.5 v 0 a 0.5,0.5 0 0 1 -0.64,-0.5 z m -4,0 a 0.5,0.5 0 0 1 0.5,-0.5 v 0 a 0.51,0.51 0 0 1 0.5,0.5 v 0 a 0.5,0.5 0 0 1 -0.5,0.5 v 0 a 0.5,0.5 0 0 1 -0.65,-0.5 z m -4,0 a 0.51,0.51 0 0 1 0.51,-0.5 v 0 a 0.51,0.51 0 0 1 0.5,0.5 v 0 a 0.5,0.5 0 0 1 -0.5,0.5 v 0 a 0.5,0.5 0 0 1 -0.68,-0.5 z m -4,0 a 0.51,0.51 0 0 1 0.5,-0.5 v 0 a 0.5,0.5 0 0 1 0.5,0.5 v 0 a 0.5,0.5 0 0 1 -0.5,0.5 v 0 a 0.5,0.5 0 0 1 -0.68,-0.5 z m -4,0 a 0.5,0.5 0 0 1 0.5,-0.5 v 0 a 0.5,0.5 0 0 1 0.5,0.5 v 0 a 0.5,0.5 0 0 1 -0.5,0.5 v 0 A 0.5,0.5 0 0 1 189.3,301 Z m -4,0 a 0.51,0.51 0 0 1 0.5,-0.5 v 0 a 0.51,0.51 0 0 1 0.51,0.5 v 0 a 0.5,0.5 0 0 1 -0.51,0.5 v 0 a 0.5,0.5 0 0 1 -0.71,-0.5 z m -4,0 a 0.5,0.5 0 0 1 0.5,-0.5 v 0 a 0.5,0.5 0 0 1 0.5,0.5 v 0 a 0.5,0.5 0 0 1 -0.5,0.5 v 0 a 0.5,0.5 0 0 1 -0.72,-0.5 z m -4,0 a 0.5,0.5 0 0 1 0.5,-0.5 v 0 a 0.51,0.51 0 0 1 0.5,0.5 v 0 a 0.5,0.5 0 0 1 -0.5,0.5 v 0 a 0.5,0.5 0 0 1 -0.73,-0.5 z m -4,0 a 0.51,0.51 0 0 1 0.5,-0.5 v 0 a 0.5,0.5 0 0 1 0.5,0.5 v 0 a 0.5,0.5 0 0 1 -0.5,0.5 v 0 a 0.5,0.5 0 0 1 -0.75,-0.5 z m -4,0 a 0.51,0.51 0 0 1 0.5,-0.5 v 0 a 0.5,0.5 0 0 1 0.5,0.5 v 0 a 0.5,0.5 0 0 1 -0.5,0.5 v 0 a 0.5,0.5 0 0 1 -0.76,-0.5 z m -4,0 a 0.5,0.5 0 0 1 0.5,-0.5 v 0 a 0.51,0.51 0 0 1 0.5,0.5 v 0 a 0.5,0.5 0 0 1 -0.5,0.5 v 0 a 0.5,0.5 0 0 1 -0.77,-0.5 z m -4,0 a 0.5,0.5 0 0 1 0.49,-0.5 v 0 a 0.5,0.5 0 0 1 0.5,0.5 v 0 a 0.5,0.5 0 0 1 -0.5,0.5 v 0 a 0.49,0.49 0 0 1 -0.77,-0.5 z m -4,0 a 0.51,0.51 0 0 1 0.5,-0.5 v 0 a 0.5,0.5 0 0 1 0.5,0.5 v 0 a 0.5,0.5 0 0 1 -0.5,0.5 v 0 a 0.5,0.5 0 0 1 -0.8,-0.5 z"
         style="fill:#708090"
         id="path70" /><path
         d="m 250,301.47 a 0.41,0.41 0 0 1 -0.19,0 0.44,0.44 0 0 1 -0.16,-0.1 0.45,0.45 0 0 1 -0.11,-0.17 0.41,0.41 0 0 1 0,-0.19 0.43,0.43 0 0 1 0,-0.19 0.42,0.42 0 0 1 0.11,-0.16 0.46,0.46 0 0 1 0.16,-0.11 0.5,0.5 0 0 1 0.38,0 0.46,0.46 0 0 1 0.16,0.11 0.47,0.47 0 0 1 0.15,0.35 0.41,0.41 0 0 1 0,0.19 0.45,0.45 0 0 1 -0.11,0.17 0.44,0.44 0 0 1 -0.16,0.1 0.41,0.41 0 0 1 -0.23,0 z"
         style="fill:#708090"
         id="path71" /><path
         d="m 250,301.47 a 0.41,0.41 0 0 1 -0.19,0 0.44,0.44 0 0 1 -0.16,-0.1 0.45,0.45 0 0 1 -0.11,-0.17 0.41,0.41 0 0 1 0,-0.19 0.43,0.43 0 0 1 0,-0.19 0.42,0.42 0 0 1 0.11,-0.16 0.46,0.46 0 0 1 0.16,-0.11 0.5,0.5 0 0 1 0.38,0 0.46,0.46 0 0 1 0.16,0.11 0.47,0.47 0 0 1 0.15,0.35 0.41,0.41 0 0 1 0,0.19 0.45,0.45 0 0 1 -0.11,0.17 0.44,0.44 0 0 1 -0.16,0.1 0.41,0.41 0 0 1 -0.23,0 z"
         style="fill:#708090"
         id="path72" /><path
         d="M 249.5,297.5 A 0.5,0.5 0 0 1 250,297 v 0 a 0.5,0.5 0 0 1 0.5,0.5 v 0 A 0.5,0.5 0 0 1 250,298 v 0 a 0.5,0.5 0 0 1 -0.5,-0.5 z m 0,-3.47 a 0.5,0.5 0 0 1 0.5,-0.5 v 0 a 0.5,0.5 0 0 1 0.5,0.5 v 0 a 0.5,0.5 0 0 1 -0.5,0.5 v 0 A 0.5,0.5 0 0 1 249.5,294 Z m 0,-3.47 a 0.5,0.5 0 0 1 0.5,-0.5 v 0 a 0.5,0.5 0 0 1 0.5,0.5 v 0 a 0.5,0.5 0 0 1 -0.5,0.5 v 0 a 0.5,0.5 0 0 1 -0.5,-0.5 z"
         style="fill:#708090"
         id="path73" /><path
         d="m 250,287.59 a 0.47,0.47 0 0 1 -0.35,-0.15 0.36,0.36 0 0 1 -0.11,-0.16 0.43,0.43 0 0 1 0,-0.19 0.41,0.41 0 0 1 0,-0.19 0.39,0.39 0 0 1 0.11,-0.17 0.44,0.44 0 0 1 0.16,-0.1 0.46,0.46 0 0 1 0.38,0 0.44,0.44 0 0 1 0.16,0.1 0.45,0.45 0 0 1 0.11,0.17 0.41,0.41 0 0 1 0,0.19 0.43,0.43 0 0 1 0,0.19 0.36,0.36 0 0 1 -0.11,0.16 0.47,0.47 0 0 1 -0.35,0.15 z"
         style="fill:#708090"
         id="path74" /><path
         d="m 250,301.47 a 0.41,0.41 0 0 1 -0.19,0 0.44,0.44 0 0 1 -0.16,-0.1 0.45,0.45 0 0 1 -0.11,-0.17 0.41,0.41 0 0 1 0,-0.19 0.43,0.43 0 0 1 0,-0.19 0.42,0.42 0 0 1 0.11,-0.16 0.46,0.46 0 0 1 0.16,-0.11 0.5,0.5 0 0 1 0.38,0 0.46,0.46 0 0 1 0.16,0.11 0.47,0.47 0 0 1 0.15,0.35 0.41,0.41 0 0 1 0,0.19 0.45,0.45 0 0 1 -0.11,0.17 0.44,0.44 0 0 1 -0.16,0.1 0.41,0.41 0 0 1 -0.23,0 z"
         style="fill:#708090"
         id="path75" /><path
         d="m 249.5,304.63 a 0.51,0.51 0 0 1 0.5,-0.5 v 0 a 0.5,0.5 0 0 1 0.5,0.5 v 0 a 0.5,0.5 0 0 1 -0.5,0.5 v 0 a 0.5,0.5 0 0 1 -0.5,-0.5 z"
         style="fill:#708090"
         id="path76" /><path
         d="m 250,308.8 a 0.51,0.51 0 0 1 -0.35,-0.15 0.42,0.42 0 0 1 -0.11,-0.16 0.45,0.45 0 0 1 0,-0.2 0.43,0.43 0 0 1 0,-0.19 0.42,0.42 0 0 1 0.11,-0.16 0.51,0.51 0 0 1 0.7,0 0.42,0.42 0 0 1 0.11,0.16 0.43,0.43 0 0 1 0,0.19 0.45,0.45 0 0 1 0,0.2 0.42,0.42 0 0 1 -0.11,0.16 0.51,0.51 0 0 1 -0.35,0.15 z"
         style="fill:#708090"
         id="path77" /><path
         d="m 346.32,308.8 a 0.51,0.51 0 0 1 -0.35,-0.15 0.55,0.55 0 0 1 -0.15,-0.36 0.5,0.5 0 0 1 0.85,-0.35 0.42,0.42 0 0 1 0.11,0.16 0.43,0.43 0 0 1 0,0.19 0.51,0.51 0 0 1 -0.5,0.51 z"
         style="fill:#708090"
         id="path78" /><path
         d="m 345.82,304.63 a 0.51,0.51 0 0 1 0.5,-0.5 v 0 a 0.5,0.5 0 0 1 0.5,0.5 v 0 a 0.5,0.5 0 0 1 -0.5,0.5 v 0 a 0.5,0.5 0 0 1 -0.5,-0.5 z"
         style="fill:#708090"
         id="path79" /><path
         d="m 346.32,301.47 a 0.5,0.5 0 0 1 -0.35,-0.14 0.55,0.55 0 0 1 -0.15,-0.36 0.51,0.51 0 0 1 0.15,-0.35 0.5,0.5 0 0 1 0.7,0 0.47,0.47 0 0 1 0.15,0.35 0.51,0.51 0 0 1 -0.15,0.36 0.5,0.5 0 0 1 -0.35,0.14 z"
         style="fill:#708090"
         id="path80" /><path
         d="m 341.81,301 a 0.5,0.5 0 0 1 0.5,-0.5 v 0 a 0.5,0.5 0 0 1 0.5,0.5 v 0 a 0.5,0.5 0 0 1 -0.5,0.5 v 0 a 0.5,0.5 0 0 1 -0.5,-0.5 z m -4,0 a 0.5,0.5 0 0 1 0.51,-0.5 v 0 a 0.5,0.5 0 0 1 0.5,0.5 v 0 a 0.5,0.5 0 0 1 -0.5,0.5 v 0 a 0.5,0.5 0 0 1 -0.53,-0.5 z m -4,0 a 0.5,0.5 0 0 1 0.5,-0.5 v 0 a 0.5,0.5 0 0 1 0.5,0.5 v 0 a 0.5,0.5 0 0 1 -0.5,0.5 v 0 a 0.5,0.5 0 0 1 -0.53,-0.5 z m -4,0 a 0.5,0.5 0 0 1 0.5,-0.5 v 0 a 0.5,0.5 0 0 1 0.5,0.5 v 0 a 0.5,0.5 0 0 1 -0.5,0.5 v 0 a 0.5,0.5 0 0 1 -0.54,-0.5 z m -4,0 a 0.5,0.5 0 0 1 0.5,-0.5 v 0 a 0.5,0.5 0 0 1 0.51,0.5 v 0 a 0.5,0.5 0 0 1 -0.51,0.5 v 0 a 0.5,0.5 0 0 1 -0.56,-0.5 z m -4,0 a 0.5,0.5 0 0 1 0.5,-0.5 v 0 a 0.5,0.5 0 0 1 0.5,0.5 v 0 a 0.5,0.5 0 0 1 -0.5,0.5 v 0 a 0.5,0.5 0 0 1 -0.57,-0.5 z m -4,0 a 0.5,0.5 0 0 1 0.5,-0.5 v 0 a 0.5,0.5 0 0 1 0.5,0.5 v 0 a 0.5,0.5 0 0 1 -0.5,0.5 v 0 a 0.5,0.5 0 0 1 -0.58,-0.5 z m -4,0 a 0.5,0.5 0 0 1 0.5,-0.5 v 0 a 0.5,0.5 0 0 1 0.51,0.5 v 0 a 0.5,0.5 0 0 1 -0.51,0.5 v 0 a 0.5,0.5 0 0 1 -0.6,-0.5 z m -4,0 a 0.5,0.5 0 0 1 0.5,-0.5 v 0 a 0.5,0.5 0 0 1 0.5,0.5 v 0 a 0.5,0.5 0 0 1 -0.5,0.5 v 0 A 0.5,0.5 0 0 1 309.7,301 Z m -4,0 a 0.5,0.5 0 0 1 0.5,-0.5 v 0 a 0.5,0.5 0 0 1 0.5,0.5 v 0 a 0.5,0.5 0 0 1 -0.5,0.5 v 0 a 0.5,0.5 0 0 1 -0.62,-0.5 z m -4,0 a 0.5,0.5 0 0 1 0.5,-0.5 v 0 a 0.5,0.5 0 0 1 0.5,0.5 v 0 a 0.5,0.5 0 0 1 -0.5,0.5 v 0 a 0.5,0.5 0 0 1 -0.64,-0.5 z m -4,0 a 0.5,0.5 0 0 1 0.5,-0.5 v 0 a 0.5,0.5 0 0 1 0.5,0.5 v 0 a 0.5,0.5 0 0 1 -0.5,0.5 v 0 a 0.5,0.5 0 0 1 -0.65,-0.5 z m -4,0 a 0.5,0.5 0 0 1 0.5,-0.5 v 0 a 0.5,0.5 0 0 1 0.5,0.5 v 0 a 0.5,0.5 0 0 1 -0.5,0.5 v 0 a 0.5,0.5 0 0 1 -0.66,-0.5 z m -4,0 a 0.5,0.5 0 0 1 0.5,-0.5 v 0 a 0.5,0.5 0 0 1 0.5,0.5 v 0 a 0.5,0.5 0 0 1 -0.5,0.5 v 0 a 0.5,0.5 0 0 1 -0.68,-0.5 z m -4,0 a 0.5,0.5 0 0 1 0.5,-0.5 v 0 a 0.5,0.5 0 0 1 0.5,0.5 v 0 a 0.5,0.5 0 0 1 -0.5,0.5 v 0 a 0.5,0.5 0 0 1 -0.69,-0.5 z m -4,0 a 0.5,0.5 0 0 1 0.5,-0.5 v 0 a 0.5,0.5 0 0 1 0.5,0.5 v 0 a 0.5,0.5 0 0 1 -0.5,0.5 v 0 a 0.5,0.5 0 0 1 -0.7,-0.5 z m -4,0 a 0.5,0.5 0 0 1 0.5,-0.5 v 0 a 0.5,0.5 0 0 1 0.51,0.5 v 0 a 0.5,0.5 0 0 1 -0.51,0.5 v 0 a 0.5,0.5 0 0 1 -0.72,-0.5 z m -4,0 a 0.5,0.5 0 0 1 0.5,-0.5 v 0 a 0.5,0.5 0 0 1 0.5,0.5 v 0 a 0.5,0.5 0 0 1 -0.5,0.5 v 0 a 0.5,0.5 0 0 1 -0.73,-0.5 z m -4,0 a 0.5,0.5 0 0 1 0.5,-0.5 v 0 a 0.5,0.5 0 0 1 0.5,0.5 v 0 a 0.5,0.5 0 0 1 -0.5,0.5 v 0 a 0.5,0.5 0 0 1 -0.74,-0.5 z m -4,0 a 0.5,0.5 0 0 1 0.5,-0.5 v 0 a 0.5,0.5 0 0 1 0.51,0.5 v 0 a 0.5,0.5 0 0 1 -0.51,0.5 v 0 a 0.5,0.5 0 0 1 -0.76,-0.5 z m -4,0 a 0.5,0.5 0 0 1 0.5,-0.5 v 0 a 0.5,0.5 0 0 1 0.5,0.5 v 0 a 0.5,0.5 0 0 1 -0.5,0.5 v 0 a 0.5,0.5 0 0 1 -0.77,-0.5 z m -4,0 a 0.5,0.5 0 0 1 0.5,-0.5 v 0 a 0.5,0.5 0 0 1 0.5,0.5 v 0 a 0.5,0.5 0 0 1 -0.5,0.5 v 0 a 0.5,0.5 0 0 1 -0.78,-0.5 z m -4,0 a 0.5,0.5 0 0 1 0.5,-0.5 v 0 a 0.5,0.5 0 0 1 0.51,0.5 v 0 a 0.5,0.5 0 0 1 -0.51,0.5 v 0 a 0.5,0.5 0 0 1 -0.8,-0.5 z"
         style="fill:#708090"
         id="path81" /><path
         d="m 250,301.47 a 0.41,0.41 0 0 1 -0.19,0 0.44,0.44 0 0 1 -0.16,-0.1 0.45,0.45 0 0 1 -0.11,-0.17 0.41,0.41 0 0 1 0,-0.19 0.43,0.43 0 0 1 0,-0.19 0.42,0.42 0 0 1 0.11,-0.16 0.46,0.46 0 0 1 0.16,-0.11 0.5,0.5 0 0 1 0.38,0 0.46,0.46 0 0 1 0.16,0.11 0.47,0.47 0 0 1 0.15,0.35 0.41,0.41 0 0 1 0,0.19 0.45,0.45 0 0 1 -0.11,0.17 0.44,0.44 0 0 1 -0.16,0.1 0.41,0.41 0 0 1 -0.23,0 z"
         style="fill:#708090"
         id="path82" /><path
         d="m 402.87675,106.46318 c 0.43,3.18999 0.67,6.59999 0.67,10.27999 0,17.58001 -1.63,18.57001 -38.15,124.14002 29.73,-17.34001 49.73,-49.55001 49.73,-86.44001 0,-17.39 -4.44,-33.74 -12.25,-47.98 z m -85.99,56.73 -30.01,87.18001 c 20.25,5.96 41.71,5.35 61.46,-1.58998 -0.27,-0.43002 -0.51,-0.89 -0.71,-1.38002 z m 65.75,-13.8 c 0,-12.36 -4.44,-20.92 -8.25,-27.58 -5.06,-8.24001 -9.82,-15.21 -9.82,-23.449998 0,-9.190004 6.98,-17.750004 16.8,-17.750004 0.44,0 0.86,0.1 1.29,0.1 -17.79,-16.3 -41.49,-26.25 -67.53,-26.25 -34.93,0 -65.67,17.92 -83.55,45.070004 6.37,0.2 14.92,0.28 33.09,-1.14 5.39,-0.32 6.02,7.599998 0.64,8.229998 0,0 -5.42,0.64 -11.45,0.96 l 36.42,108.32 21.88,-65.64 -15.58,-42.69 c -5.38,-0.31 -10.48,-0.95 -10.48,-0.95 -5.39,-0.32 -4.76,-8.559998 0.63,-8.239998 20.67,1.59 31.25,1.709998 52.99,0 5.39,-0.32 6.03,7.599998 0.64,8.239998 0,0 -5.43,0.64 -11.45,0.95 l 36.14,107.5 c 14.27,-47.68 17.59,-55.66 17.59,-65.66 z m -167.51,5.05 c 0,39.58 23,73.79 56.36,90.00001 l -47.7,-130.70002 c -5.55,12.44001 -8.66,26.20001 -8.66,40.70001 z"
         id="wordpress-[#139]"
         style="fill:#708090;fill-opacity:1;fill-rule:evenodd;stroke:none;stroke-width:10" /></g><g
       id="freepik--Cloud--inject-493"
       transform="translate(-0.46453671,81.114866)"><path
         d="M 402.55,195.51 A 59.91,59.91 0 0 0 342.64,136.1 H 317.89 A 72.38,72.38 0 0 0 255.12,99.79 H 207 v 18.37 A 72.4,72.4 0 0 0 184.48,156.47 62.32,62.32 0 0 0 188.5,281 h 198.32 a 44.18,44.18 0 0 0 15.73,-85.47 z"
         style="fill:#708090"
         id="path83" /><path
         d="M 402.55,195.51 A 59.91,59.91 0 0 0 342.64,136.1 H 317.89 A 72.38,72.38 0 0 0 255.12,99.79 H 207 v 18.37 A 72.4,72.4 0 0 0 184.48,156.47 62.32,62.32 0 0 0 188.5,281 h 198.32 a 44.18,44.18 0 0 0 15.73,-85.47 z"
         style="opacity:0.7;fill:#ffffff"
         id="path84" /><path
         d="M 354.38,195.51 A 59.93,59.93 0 0 0 272,140.45 a 72.41,72.41 0 0 0 -135.76,16 62.32,62.32 0 0 0 4.09,124.55 h 198.32 a 44.18,44.18 0 0 0 15.73,-85.47 z"
         style="fill:#708090"
         id="path85" /><g
         clip-path="url(#freepik--clip-path--inject-493)"
         id="g86"><path
           d="m 402.55,195.51 a 59.93,59.93 0 0 0 -82.34,-55.06 72.42,72.42 0 0 0 -135.77,16 62.32,62.32 0 0 0 4.06,124.55 h 198.32 a 44.18,44.18 0 0 0 15.73,-85.47 z"
           style="opacity:0.1"
           id="path86" /></g><path
         d="M 338.65,282 H 140.33 A 63.29,63.29 0 0 1 135.49,155.6 73.41,73.41 0 0 1 207,98.82 a 72.92,72.92 0 0 1 65.55,40.4 60.89,60.89 0 0 1 82.84,55.62 A 45.16,45.16 0 0 1 338.65,282 Z M 207,100.76 a 71.85,71.85 0 0 0 -69.73,55.92 1,1 0 0 1 -0.89,0.76 61.35,61.35 0 0 0 4,122.57 h 198.27 a 43.21,43.21 0 0 0 15.35,-83.59 1,1 0 0 1 -0.63,-0.9 59,59 0 0 0 -81,-54.17 1,1 0 0 1 -1.24,-0.47 A 71,71 0 0 0 207,100.76 Z"
         style="fill:#708090"
         id="path87" /><path
         d="M 338.65,282 H 140.33 A 63.29,63.29 0 0 1 135.49,155.6 73.41,73.41 0 0 1 207,98.82 a 72.92,72.92 0 0 1 65.55,40.4 60.89,60.89 0 0 1 82.84,55.62 A 45.16,45.16 0 0 1 338.65,282 Z M 207,100.76 a 71.85,71.85 0 0 0 -69.73,55.92 1,1 0 0 1 -0.89,0.76 61.35,61.35 0 0 0 4,122.57 h 198.27 a 43.21,43.21 0 0 0 15.35,-83.59 1,1 0 0 1 -0.63,-0.9 59,59 0 0 0 -81,-54.17 1,1 0 0 1 -1.24,-0.47 A 71,71 0 0 0 207,100.76 Z"
         style="opacity:0.7;fill:#ffffff"
         id="path88" /><path
         d="M 186.12,192.6 H 202 V 280 h -15.88 a 4.45,4.45 0 0 1 -4.45,-4.45 V 197 a 4.45,4.45 0 0 1 4.45,-4.4 z"
         transform="rotate(180,191.86,236.3)"
         style="fill:#e0e0e0"
         id="path89" /><rect
         x="144.53"
         y="192.60001"
         width="43.18"
         height="87.410004"
         rx="4.4499998"
         style="fill:#ffffff"
         id="rect89" /><rect
         x="144.53"
         y="261.87"
         width="43.18"
         height="0.81"
         style="fill:#e0e0e0"
         id="rect90" /><rect
         x="144.53"
         y="244.55"
         width="43.18"
         height="0.81"
         style="fill:#e0e0e0"
         id="rect91" /><rect
         x="144.53"
         y="227.24001"
         width="43.18"
         height="0.81"
         style="fill:#e0e0e0"
         id="rect92" /><rect
         x="144.53"
         y="209.92"
         width="43.18"
         height="0.81"
         style="fill:#e0e0e0"
         id="rect93" /><path
         d="M 166.06,204.3 H 151.62 A 1.65,1.65 0 0 0 150,206 v 0 a 1.65,1.65 0 0 0 1.65,1.65 h 14.44 a 1.65,1.65 0 0 0 1.65,-1.65 v 0 a 1.65,1.65 0 0 0 -1.68,-1.7 z"
         style="opacity:0.6;fill:#708090"
         id="path93" /><path
         d="m 166.06,200 h -14.44 a 1.65,1.65 0 0 0 -1.65,1.65 v 0 a 1.65,1.65 0 0 0 1.65,1.65 h 14.44 a 1.65,1.65 0 0 0 1.65,-1.65 v 0 A 1.65,1.65 0 0 0 166.06,200 Z"
         style="opacity:0.6;fill:#708090"
         id="path94" /><path
         d="m 166.06,195.73 h -14.44 a 1.65,1.65 0 0 0 -1.65,1.65 v 0 a 1.65,1.65 0 0 0 1.65,1.65 h 14.44 a 1.65,1.65 0 0 0 1.65,-1.65 v 0 a 1.65,1.65 0 0 0 -1.65,-1.65 z"
         style="opacity:0.6;fill:#708090"
         id="path95" /><rect
         x="169.22"
         y="204.3"
         width="6.0300002"
         height="3.3"
         transform="rotate(180,172.24,205.945)"
         style="fill:#ebebeb"
         id="rect95" /><rect
         x="169.22"
         y="200.00999"
         width="6.0300002"
         height="3.3"
         transform="rotate(180,172.24,201.66)"
         style="fill:#708090"
         id="rect96" /><rect
         x="169.22"
         y="195.73"
         width="6.0300002"
         height="3.3"
         transform="rotate(180,172.24,197.375)"
         style="fill:#ebebeb"
         id="rect97" /><rect
         x="176.24001"
         y="204.3"
         width="6.0300002"
         height="3.3"
         transform="rotate(180,179.255,205.945)"
         style="fill:#ebebeb"
         id="rect98" /><rect
         x="176.24001"
         y="200.00999"
         width="6.0300002"
         height="3.3"
         transform="rotate(180,179.255,201.66)"
         style="fill:#ebebeb"
         id="rect99" /><rect
         x="176.24001"
         y="195.73"
         width="6.0300002"
         height="3.3"
         transform="rotate(180,179.255,197.375)"
         style="fill:#708090"
         id="rect100" /><path
         d="m 166.06,221.62 h -14.44 a 1.65,1.65 0 0 0 -1.65,1.65 v 0 a 1.65,1.65 0 0 0 1.65,1.65 h 14.44 a 1.65,1.65 0 0 0 1.65,-1.65 v 0 a 1.65,1.65 0 0 0 -1.65,-1.65 z"
         style="fill:#ebebeb"
         id="path100" /><path
         d="M 166.06,217.33 H 151.62 A 1.65,1.65 0 0 0 150,219 v 0 a 1.65,1.65 0 0 0 1.65,1.65 h 14.44 a 1.65,1.65 0 0 0 1.65,-1.65 v 0 a 1.65,1.65 0 0 0 -1.68,-1.67 z"
         style="opacity:0.6;fill:#708090"
         id="path101" /><path
         d="M 166.06,213.05 H 151.62 A 1.65,1.65 0 0 0 150,214.7 v 0 a 1.65,1.65 0 0 0 1.65,1.65 h 14.44 a 1.65,1.65 0 0 0 1.65,-1.65 v 0 a 1.65,1.65 0 0 0 -1.68,-1.65 z"
         style="opacity:0.6;fill:#708090"
         id="path102" /><rect
         x="169.22"
         y="221.62"
         width="6.0300002"
         height="3.3"
         transform="rotate(180,172.24,223.265)"
         style="fill:#ebebeb"
         id="rect102" /><rect
         x="169.22"
         y="217.33"
         width="6.0300002"
         height="3.3"
         transform="rotate(180,172.24,218.98)"
         style="fill:#ebebeb"
         id="rect103" /><rect
         x="169.22"
         y="213.05"
         width="6.0300002"
         height="3.3"
         transform="rotate(180,172.24,214.695)"
         style="fill:#708090"
         id="rect104" /><rect
         x="176.24001"
         y="221.62"
         width="6.0300002"
         height="3.3"
         transform="rotate(180,179.255,223.265)"
         style="fill:#ebebeb"
         id="rect105" /><rect
         x="176.24001"
         y="217.33"
         width="6.0300002"
         height="3.3"
         transform="rotate(180,179.255,218.98)"
         style="fill:#ebebeb"
         id="rect106" /><rect
         x="176.24001"
         y="213.05"
         width="6.0300002"
         height="3.3"
         transform="rotate(180,179.255,214.695)"
         style="fill:#ebebeb"
         id="rect107" /><path
         d="m 166.06,238.94 h -14.44 a 1.65,1.65 0 0 0 -1.65,1.65 v 0 a 1.65,1.65 0 0 0 1.65,1.65 h 14.44 a 1.65,1.65 0 0 0 1.65,-1.65 v 0 a 1.65,1.65 0 0 0 -1.65,-1.65 z"
         style="opacity:0.6;fill:#708090"
         id="path107" /><path
         d="M 166.06,234.65 H 151.62 A 1.65,1.65 0 0 0 150,236.3 v 0 a 1.65,1.65 0 0 0 1.65,1.65 h 14.44 a 1.65,1.65 0 0 0 1.65,-1.65 v 0 a 1.65,1.65 0 0 0 -1.68,-1.65 z"
         style="opacity:0.6;fill:#708090"
         id="path108" /><path
         d="M 166.06,230.37 H 151.62 A 1.65,1.65 0 0 0 150,232 v 0 a 1.65,1.65 0 0 0 1.65,1.65 h 14.44 a 1.65,1.65 0 0 0 1.65,-1.65 v 0 a 1.65,1.65 0 0 0 -1.68,-1.63 z"
         style="opacity:0.6;fill:#708090"
         id="path109" /><rect
         x="169.22"
         y="238.94"
         width="6.0300002"
         height="3.3"
         transform="rotate(180,172.24,240.585)"
         style="fill:#ebebeb"
         id="rect109" /><rect
         x="169.22"
         y="234.64999"
         width="6.0300002"
         height="3.3"
         transform="rotate(180,172.24,236.3)"
         style="fill:#708090"
         id="rect110" /><rect
         x="169.22"
         y="230.37"
         width="6.0300002"
         height="3.3"
         transform="rotate(180,172.24,232.015)"
         style="fill:#ebebeb"
         id="rect111" /><rect
         x="176.24001"
         y="238.94"
         width="6.0300002"
         height="3.3"
         transform="rotate(180,179.255,240.585)"
         style="fill:#ebebeb"
         id="rect112" /><rect
         x="176.24001"
         y="234.64999"
         width="6.0300002"
         height="3.3"
         transform="rotate(180,179.255,236.3)"
         style="fill:#ebebeb"
         id="rect113" /><rect
         x="176.24001"
         y="230.37"
         width="6.0300002"
         height="3.3"
         transform="rotate(180,179.255,232.015)"
         style="fill:#708090"
         id="rect114" /><path
         d="m 166.06,256.26 h -14.44 a 1.65,1.65 0 0 0 -1.65,1.65 v 0 a 1.65,1.65 0 0 0 1.65,1.65 h 14.44 a 1.65,1.65 0 0 0 1.65,-1.65 v 0 a 1.65,1.65 0 0 0 -1.65,-1.65 z"
         style="opacity:0.6;fill:#708090"
         id="path114" /><rect
         x="149.97"
         y="251.97"
         width="17.74"
         height="3.3"
         rx="1.65"
         style="opacity:0.6;fill:#708090"
         id="rect115" /><path
         d="m 166.06,247.69 h -14.44 a 1.64,1.64 0 0 0 -1.65,1.64 v 0 a 1.65,1.65 0 0 0 1.65,1.65 h 14.44 a 1.65,1.65 0 0 0 1.65,-1.65 v 0 a 1.64,1.64 0 0 0 -1.65,-1.64 z"
         style="opacity:0.6;fill:#708090"
         id="path115" /><rect
         x="169.22"
         y="256.26001"
         width="6.0300002"
         height="3.3"
         transform="rotate(180,172.24,257.905)"
         style="fill:#ebebeb"
         id="rect116" /><rect
         x="169.22"
         y="251.97"
         width="6.0300002"
         height="3.3"
         transform="rotate(180,172.24,253.62)"
         style="fill:#708090"
         id="rect117" /><rect
         x="169.22"
         y="247.69"
         width="6.0300002"
         height="3.3"
         transform="rotate(180,172.24,249.335)"
         style="fill:#ebebeb"
         id="rect118" /><rect
         x="176.24001"
         y="256.26001"
         width="6.0300002"
         height="3.3"
         transform="rotate(180,179.255,257.905)"
         style="fill:#708090"
         id="rect119" /><rect
         x="176.24001"
         y="251.97"
         width="6.0300002"
         height="3.3"
         transform="rotate(180,179.255,253.62)"
         style="fill:#ebebeb"
         id="rect120" /><rect
         x="176.24001"
         y="247.69"
         width="6.0300002"
         height="3.3"
         transform="rotate(180,179.255,249.335)"
         style="fill:#708090"
         id="rect121" /><path
         d="m 166.06,273.58 h -14.44 a 1.65,1.65 0 0 0 -1.65,1.65 v 0 a 1.64,1.64 0 0 0 1.65,1.64 h 14.44 a 1.64,1.64 0 0 0 1.65,-1.64 v 0 a 1.65,1.65 0 0 0 -1.65,-1.65 z"
         style="opacity:0.6;fill:#708090"
         id="path121" /><path
         d="m 166.06,269.29 h -14.44 a 1.65,1.65 0 0 0 -1.65,1.65 v 0 a 1.65,1.65 0 0 0 1.65,1.65 h 14.44 a 1.65,1.65 0 0 0 1.65,-1.65 v 0 a 1.65,1.65 0 0 0 -1.65,-1.65 z"
         style="opacity:0.6;fill:#708090"
         id="path122" /><path
         d="m 166.06,265 h -14.44 a 1.65,1.65 0 0 0 -1.65,1.65 v 0 a 1.65,1.65 0 0 0 1.65,1.65 h 14.44 a 1.65,1.65 0 0 0 1.65,-1.65 v 0 A 1.65,1.65 0 0 0 166.06,265 Z"
         style="opacity:0.6;fill:#708090"
         id="path123" /><rect
         x="169.22"
         y="273.57999"
         width="6.0300002"
         height="3.3"
         transform="rotate(180,172.24,275.225)"
         style="fill:#708090"
         id="rect123" /><rect
         x="169.22"
         y="269.29001"
         width="6.0300002"
         height="3.3"
         transform="rotate(180,172.24,270.94)"
         style="fill:#ebebeb"
         id="rect124" /><rect
         x="169.22"
         y="265"
         width="6.0300002"
         height="3.3"
         transform="rotate(180,172.24,266.655)"
         style="fill:#ebebeb"
         id="rect125" /><rect
         x="176.24001"
         y="273.57999"
         width="6.0300002"
         height="3.3"
         transform="rotate(180,179.255,275.225)"
         style="fill:#ebebeb"
         id="rect126" /><rect
         x="176.24001"
         y="269.29001"
         width="6.0300002"
         height="3.3"
         transform="rotate(180,179.255,270.94)"
         style="fill:#ebebeb"
         id="rect127" /><rect
         x="176.24001"
         y="265"
         width="6.0300002"
         height="3.3"
         transform="rotate(180,179.255,266.655)"
         style="fill:#708090"
         id="rect128" /><path
         d="m 250.43,151.32 h 23.44 V 280 h -23.44 a 6.54,6.54 0 0 1 -6.54,-6.54 V 157.87 a 6.54,6.54 0 0 1 6.54,-6.55 z"
         transform="rotate(180,258.885,215.665)"
         style="fill:#e0e0e0"
         id="path128" /><rect
         x="189.2"
         y="151.32001"
         width="63.560001"
         height="128.67999"
         rx="6.54"
         style="fill:#ffffff"
         id="rect129" /><rect
         x="189.2"
         y="253.31"
         width="63.560001"
         height="1.2"
         style="fill:#e0e0e0"
         id="rect130" /><rect
         x="189.2"
         y="227.82001"
         width="63.560001"
         height="1.1900001"
         style="fill:#e0e0e0"
         id="rect131" /><rect
         x="189.2"
         y="202.32001"
         width="63.560001"
         height="1.1900001"
         style="fill:#e0e0e0"
         id="rect132" /><rect
         x="189.2"
         y="176.82001"
         width="63.560001"
         height="1.2"
         style="fill:#e0e0e0"
         id="rect133" /><path
         d="m 220.9,168.55 h -21.26 a 2.43,2.43 0 0 0 -2.43,2.43 v 0 a 2.43,2.43 0 0 0 2.43,2.43 h 21.26 a 2.43,2.43 0 0 0 2.43,-2.43 v 0 a 2.43,2.43 0 0 0 -2.43,-2.43 z"
         style="opacity:0.6;fill:#708090"
         id="path133" /><path
         d="m 220.9,162.24 h -21.26 a 2.43,2.43 0 0 0 -2.43,2.43 v 0 a 2.43,2.43 0 0 0 2.43,2.43 h 21.26 a 2.43,2.43 0 0 0 2.43,-2.43 v 0 a 2.43,2.43 0 0 0 -2.43,-2.43 z"
         style="opacity:0.6;fill:#708090"
         id="path134" /><path
         d="m 220.9,155.93 h -21.26 a 2.43,2.43 0 0 0 -2.43,2.43 v 0 a 2.43,2.43 0 0 0 2.43,2.43 h 21.26 a 2.43,2.43 0 0 0 2.43,-2.43 v 0 a 2.43,2.43 0 0 0 -2.43,-2.43 z"
         style="opacity:0.6;fill:#708090"
         id="path135" /><rect
         x="225.56"
         y="168.55"
         width="8.8800001"
         height="4.8600001"
         transform="rotate(180,229.995,170.98)"
         style="fill:#ebebeb"
         id="rect135" /><rect
         x="225.56"
         y="162.24001"
         width="8.8800001"
         height="4.8600001"
         transform="rotate(180,229.995,164.67)"
         style="fill:#708090"
         id="rect136" /><rect
         x="225.56"
         y="155.92999"
         width="8.8800001"
         height="4.8600001"
         transform="rotate(180,229.995,158.36)"
         style="fill:#ebebeb"
         id="rect137" /><rect
         x="235.89"
         y="168.55"
         width="8.8800001"
         height="4.8600001"
         transform="rotate(180,240.325,170.98)"
         style="fill:#ebebeb"
         id="rect138" /><rect
         x="235.89"
         y="162.24001"
         width="8.8800001"
         height="4.8600001"
         transform="rotate(180,240.325,164.67)"
         style="fill:#ebebeb"
         id="rect139" /><rect
         x="235.89"
         y="155.92999"
         width="8.8800001"
         height="4.8600001"
         transform="rotate(180,240.325,158.36)"
         style="fill:#708090"
         id="rect140" /><path
         d="m 220.9,194.05 h -21.26 a 2.43,2.43 0 0 0 -2.43,2.43 v 0 a 2.43,2.43 0 0 0 2.43,2.43 h 21.26 a 2.43,2.43 0 0 0 2.43,-2.43 v 0 a 2.43,2.43 0 0 0 -2.43,-2.43 z"
         style="opacity:0.6;fill:#708090"
         id="path140" /><path
         d="m 220.9,187.74 h -21.26 a 2.43,2.43 0 0 0 -2.43,2.43 v 0 a 2.43,2.43 0 0 0 2.43,2.43 h 21.26 a 2.43,2.43 0 0 0 2.43,-2.43 v 0 a 2.43,2.43 0 0 0 -2.43,-2.43 z"
         style="opacity:0.6;fill:#708090"
         id="path141" /><path
         d="m 220.9,181.43 h -21.26 a 2.43,2.43 0 0 0 -2.43,2.43 v 0 a 2.43,2.43 0 0 0 2.43,2.43 h 21.26 a 2.43,2.43 0 0 0 2.43,-2.43 v 0 a 2.43,2.43 0 0 0 -2.43,-2.43 z"
         style="opacity:0.6;fill:#708090"
         id="path142" /><rect
         x="225.56"
         y="194.05"
         width="8.8800001"
         height="4.8600001"
         transform="rotate(180,229.995,196.475)"
         style="fill:#ebebeb"
         id="rect142" /><rect
         x="225.56"
         y="187.74001"
         width="8.8800001"
         height="4.8600001"
         transform="rotate(180,229.995,190.17)"
         style="fill:#ebebeb"
         id="rect143" /><rect
         x="225.56"
         y="181.42999"
         width="8.8800001"
         height="4.8600001"
         transform="rotate(180,229.995,183.86)"
         style="fill:#708090"
         id="rect144" /><rect
         x="235.89"
         y="194.05"
         width="8.8800001"
         height="4.8600001"
         transform="rotate(180,240.325,196.475)"
         style="fill:#708090"
         id="rect145" /><rect
         x="235.89"
         y="187.74001"
         width="8.8800001"
         height="4.8600001"
         transform="rotate(180,240.325,190.17)"
         style="fill:#ebebeb"
         id="rect146" /><rect
         x="235.89"
         y="181.42999"
         width="8.8800001"
         height="4.8600001"
         transform="rotate(180,240.325,183.86)"
         style="fill:#708090"
         id="rect147" /><path
         d="m 220.9,219.55 h -21.26 a 2.42,2.42 0 0 0 -2.43,2.42 v 0 a 2.42,2.42 0 0 0 2.43,2.43 h 21.26 a 2.43,2.43 0 0 0 2.43,-2.43 v 0 a 2.42,2.42 0 0 0 -2.43,-2.42 z"
         style="opacity:0.6;fill:#708090"
         id="path147" /><path
         d="m 220.9,213.24 h -21.26 a 2.42,2.42 0 0 0 -2.43,2.42 v 0 a 2.42,2.42 0 0 0 2.43,2.43 h 21.26 a 2.43,2.43 0 0 0 2.43,-2.43 v 0 a 2.42,2.42 0 0 0 -2.43,-2.42 z"
         style="opacity:0.6;fill:#708090"
         id="path148" /><path
         d="m 220.9,206.93 h -21.26 a 2.42,2.42 0 0 0 -2.43,2.43 v 0 a 2.42,2.42 0 0 0 2.43,2.42 h 21.26 a 2.42,2.42 0 0 0 2.43,-2.42 v 0 a 2.43,2.43 0 0 0 -2.43,-2.43 z"
         style="opacity:0.6;fill:#708090"
         id="path149" /><rect
         x="225.56"
         y="219.55"
         width="8.8800001"
         height="4.8600001"
         transform="rotate(180,229.995,221.975)"
         style="fill:#708090"
         id="rect149" /><rect
         x="225.56"
         y="213.24001"
         width="8.8800001"
         height="4.8600001"
         transform="rotate(180,229.995,215.665)"
         style="fill:#ebebeb"
         id="rect150" /><rect
         x="225.56"
         y="206.92999"
         width="8.8800001"
         height="4.8600001"
         transform="rotate(180,229.995,209.355)"
         style="fill:#ebebeb"
         id="rect151" /><rect
         x="235.89"
         y="219.55"
         width="8.8800001"
         height="4.8600001"
         transform="rotate(180,240.325,221.975)"
         style="fill:#ebebeb"
         id="rect152" /><rect
         x="235.89"
         y="213.24001"
         width="8.8800001"
         height="4.8600001"
         transform="rotate(180,240.325,215.665)"
         style="fill:#ebebeb"
         id="rect153" /><rect
         x="235.89"
         y="206.92999"
         width="8.8800001"
         height="4.8600001"
         transform="rotate(180,240.325,209.355)"
         style="fill:#708090"
         id="rect154" /><path
         d="m 220.9,245 h -21.26 a 2.43,2.43 0 0 0 -2.43,2.43 v 0 a 2.43,2.43 0 0 0 2.43,2.43 h 21.26 a 2.43,2.43 0 0 0 2.43,-2.43 v 0 A 2.43,2.43 0 0 0 220.9,245 Z"
         style="opacity:0.6;fill:#708090"
         id="path154" /><path
         d="m 220.9,238.73 h -21.26 a 2.43,2.43 0 0 0 -2.43,2.43 v 0 a 2.43,2.43 0 0 0 2.43,2.43 h 21.26 a 2.43,2.43 0 0 0 2.43,-2.43 v 0 a 2.43,2.43 0 0 0 -2.43,-2.43 z"
         style="fill:#ebebeb"
         id="path155" /><path
         d="m 220.9,232.42 h -21.26 a 2.43,2.43 0 0 0 -2.43,2.43 v 0 a 2.43,2.43 0 0 0 2.43,2.43 h 21.26 a 2.43,2.43 0 0 0 2.43,-2.43 v 0 a 2.43,2.43 0 0 0 -2.43,-2.43 z"
         style="opacity:0.6;fill:#708090"
         id="path156" /><rect
         x="225.56"
         y="245.03999"
         width="8.8800001"
         height="4.8600001"
         transform="rotate(180,229.995,247.47)"
         style="fill:#ebebeb"
         id="rect156" /><rect
         x="225.56"
         y="238.73"
         width="8.8800001"
         height="4.8600001"
         transform="rotate(180,229.995,241.16)"
         style="fill:#708090"
         id="rect157" /><rect
         x="225.56"
         y="232.42"
         width="8.8800001"
         height="4.8600001"
         transform="rotate(180,229.995,234.855)"
         style="fill:#ebebeb"
         id="rect158" /><rect
         x="235.89"
         y="245.03999"
         width="8.8800001"
         height="4.8600001"
         transform="rotate(180,240.325,247.47)"
         style="fill:#708090"
         id="rect159" /><rect
         x="235.89"
         y="238.73"
         width="8.8800001"
         height="4.8600001"
         transform="rotate(180,240.325,241.16)"
         style="fill:#708090"
         id="rect160" /><rect
         x="235.89"
         y="232.42"
         width="8.8800001"
         height="4.8600001"
         transform="rotate(180,240.325,234.855)"
         style="fill:#ebebeb"
         id="rect161" /><path
         d="m 220.9,270.54 h -21.26 a 2.43,2.43 0 0 0 -2.43,2.43 v 0 a 2.43,2.43 0 0 0 2.43,2.43 h 21.26 a 2.43,2.43 0 0 0 2.43,-2.43 v 0 a 2.43,2.43 0 0 0 -2.43,-2.43 z"
         style="opacity:0.6;fill:#708090"
         id="path161" /><path
         d="m 220.9,264.23 h -21.26 a 2.43,2.43 0 0 0 -2.43,2.43 v 0 a 2.43,2.43 0 0 0 2.43,2.43 h 21.26 a 2.43,2.43 0 0 0 2.43,-2.43 v 0 a 2.43,2.43 0 0 0 -2.43,-2.43 z"
         style="opacity:0.6;fill:#708090"
         id="path162" /><path
         d="m 220.9,257.92 h -21.26 a 2.43,2.43 0 0 0 -2.43,2.43 v 0 a 2.43,2.43 0 0 0 2.43,2.43 h 21.26 a 2.43,2.43 0 0 0 2.43,-2.43 v 0 a 2.43,2.43 0 0 0 -2.43,-2.43 z"
         style="opacity:0.6;fill:#708090"
         id="path163" /><rect
         x="225.56"
         y="270.54001"
         width="8.8800001"
         height="4.8600001"
         transform="rotate(180,229.995,272.97)"
         style="fill:#ebebeb"
         id="rect163" /><rect
         x="225.56"
         y="264.23001"
         width="8.8800001"
         height="4.8600001"
         transform="rotate(180,229.995,266.66)"
         style="fill:#ebebeb"
         id="rect164" /><rect
         x="225.56"
         y="257.92001"
         width="8.8800001"
         height="4.8600001"
         transform="rotate(180,229.995,260.35)"
         style="fill:#ebebeb"
         id="rect165" /><rect
         x="235.89"
         y="270.54001"
         width="8.8800001"
         height="4.8600001"
         transform="rotate(180,240.325,272.97)"
         style="fill:#ebebeb"
         id="rect166" /><rect
         x="235.89"
         y="264.23001"
         width="8.8800001"
         height="4.8600001"
         transform="rotate(180,240.325,266.66)"
         style="fill:#ebebeb"
         id="rect167" /><rect
         x="235.89"
         y="257.92001"
         width="8.8800001"
         height="4.8600001"
         transform="rotate(180,240.325,260.35)"
         style="fill:#708090"
         id="rect168" /><path
         d="m 307.9,168.08 h 20.4 V 280 h -20.4 a 5.69,5.69 0 0 1 -5.69,-5.69 V 173.78 a 5.69,5.69 0 0 1 5.69,-5.7 z"
         transform="rotate(180,315.255,224.045)"
         style="fill:#e0e0e0"
         id="path168" /><rect
         x="254.64999"
         y="168.08"
         width="55.279999"
         height="111.92"
         rx="5.6900001"
         style="fill:#ffffff"
         id="rect169" /><rect
         x="254.64999"
         y="256.79001"
         width="55.279999"
         height="1.04"
         style="fill:#e0e0e0"
         id="rect170" /><rect
         x="254.64999"
         y="234.61"
         width="55.279999"
         height="1.04"
         style="fill:#e0e0e0"
         id="rect171" /><rect
         x="254.64999"
         y="212.44"
         width="55.279999"
         height="1.04"
         style="fill:#e0e0e0"
         id="rect172" /><rect
         x="254.64999"
         y="190.25999"
         width="55.279999"
         height="1.04"
         style="fill:#e0e0e0"
         id="rect173" /><path
         d="m 282.22,183.07 h -18.5 a 2.11,2.11 0 0 0 -2.11,2.11 v 0 a 2.11,2.11 0 0 0 2.11,2.11 h 18.5 a 2.11,2.11 0 0 0 2.11,-2.11 v 0 a 2.11,2.11 0 0 0 -2.11,-2.11 z"
         style="opacity:0.6;fill:#708090"
         id="path173" /><path
         d="m 282.22,177.58 h -18.5 a 2.12,2.12 0 0 0 -2.11,2.11 v 0 a 2.11,2.11 0 0 0 2.11,2.11 h 18.5 a 2.11,2.11 0 0 0 2.11,-2.11 v 0 a 2.12,2.12 0 0 0 -2.11,-2.11 z"
         style="opacity:0.6;fill:#708090"
         id="path174" /><path
         d="m 282.22,172.09 h -18.5 a 2.12,2.12 0 0 0 -2.11,2.11 v 0 a 2.12,2.12 0 0 0 2.11,2.12 h 18.5 a 2.12,2.12 0 0 0 2.11,-2.12 v 0 a 2.12,2.12 0 0 0 -2.11,-2.11 z"
         style="opacity:0.6;fill:#708090"
         id="path175" /><rect
         x="286.26999"
         y="260.79999"
         width="7.7199998"
         height="4.2199998"
         transform="rotate(180,290.13,262.91)"
         style="fill:#ebebeb"
         id="rect175" /><rect
         x="286.26999"
         y="266.29001"
         width="7.7199998"
         height="4.2199998"
         transform="rotate(180,290.13,268.395)"
         style="fill:#708090"
         id="rect176" /><rect
         x="286.26999"
         y="271.76999"
         width="7.7199998"
         height="4.2199998"
         transform="rotate(180,290.13,273.885)"
         style="fill:#ebebeb"
         id="rect177" /><rect
         x="295.25"
         y="260.79999"
         width="7.7199998"
         height="4.2199998"
         transform="rotate(180,299.115,262.91)"
         style="fill:#ebebeb"
         id="rect178" /><rect
         x="295.25"
         y="266.29001"
         width="7.7199998"
         height="4.2199998"
         transform="rotate(180,299.115,268.395)"
         style="fill:#ebebeb"
         id="rect179" /><rect
         x="295.25"
         y="271.76999"
         width="7.7199998"
         height="4.2199998"
         transform="rotate(180,299.115,273.885)"
         style="fill:#708090"
         id="rect180" /><path
         d="m 282.22,205.24 h -18.5 a 2.12,2.12 0 0 0 -2.11,2.12 v 0 a 2.12,2.12 0 0 0 2.11,2.11 h 18.5 a 2.12,2.12 0 0 0 2.11,-2.11 v 0 a 2.12,2.12 0 0 0 -2.11,-2.12 z"
         style="fill:#ebebeb"
         id="path180" /><path
         d="m 282.22,199.76 h -18.5 a 2.11,2.11 0 0 0 -2.11,2.11 v 0 a 2.12,2.12 0 0 0 2.11,2.11 h 18.5 a 2.12,2.12 0 0 0 2.11,-2.11 v 0 a 2.11,2.11 0 0 0 -2.11,-2.11 z"
         style="opacity:0.6;fill:#708090"
         id="path181" /><path
         d="m 282.22,194.27 h -18.5 a 2.11,2.11 0 0 0 -2.11,2.11 v 0 a 2.11,2.11 0 0 0 2.11,2.11 h 18.5 a 2.11,2.11 0 0 0 2.11,-2.11 v 0 a 2.11,2.11 0 0 0 -2.11,-2.11 z"
         style="opacity:0.6;fill:#708090"
         id="path182" /><rect
         x="286.26999"
         y="238.62"
         width="7.7199998"
         height="4.2199998"
         transform="rotate(180,290.13,240.735)"
         style="fill:#ebebeb"
         id="rect182" /><rect
         x="286.26999"
         y="244.11"
         width="7.7199998"
         height="4.2199998"
         transform="rotate(180,290.13,246.22)"
         style="fill:#ebebeb"
         id="rect183" /><rect
         x="286.26999"
         y="249.60001"
         width="7.7199998"
         height="4.2199998"
         transform="rotate(180,290.13,251.71)"
         style="fill:#708090"
         id="rect184" /><rect
         x="295.25"
         y="238.62"
         width="7.7199998"
         height="4.2199998"
         transform="rotate(180,299.115,240.735)"
         style="fill:#708090"
         id="rect185" /><rect
         x="295.25"
         y="244.11"
         width="7.7199998"
         height="4.2199998"
         transform="rotate(180,299.115,246.22)"
         style="fill:#ebebeb"
         id="rect186" /><rect
         x="295.25"
         y="249.60001"
         width="7.7199998"
         height="4.2199998"
         transform="rotate(180,299.115,251.71)"
         style="fill:#708090"
         id="rect187" /><path
         d="m 282.22,227.42 h -18.5 a 2.12,2.12 0 0 0 -2.11,2.11 v 0 a 2.11,2.11 0 0 0 2.11,2.11 h 18.5 a 2.11,2.11 0 0 0 2.11,-2.11 v 0 a 2.12,2.12 0 0 0 -2.11,-2.11 z"
         style="opacity:0.6;fill:#708090"
         id="path187" /><path
         d="m 282.22,221.93 h -18.5 a 2.12,2.12 0 0 0 -2.11,2.11 v 0 a 2.12,2.12 0 0 0 2.11,2.12 h 18.5 a 2.12,2.12 0 0 0 2.11,-2.12 v 0 a 2.12,2.12 0 0 0 -2.11,-2.11 z"
         style="opacity:0.6;fill:#708090"
         id="path188" /><path
         d="m 282.22,216.45 h -18.5 a 2.11,2.11 0 0 0 -2.11,2.11 v 0 a 2.12,2.12 0 0 0 2.11,2.11 h 18.5 a 2.12,2.12 0 0 0 2.11,-2.11 v 0 a 2.11,2.11 0 0 0 -2.11,-2.11 z"
         style="opacity:0.6;fill:#708090"
         id="path189" /><rect
         x="286.26999"
         y="216.45"
         width="7.7199998"
         height="4.2199998"
         transform="rotate(180,290.13,218.555)"
         style="fill:#708090"
         id="rect189" /><rect
         x="286.26999"
         y="221.92999"
         width="7.7199998"
         height="4.2199998"
         transform="rotate(180,290.13,224.045)"
         style="fill:#ebebeb"
         id="rect190" /><rect
         x="286.26999"
         y="227.42"
         width="7.7199998"
         height="4.2199998"
         transform="rotate(180,290.13,229.53)"
         style="fill:#ebebeb"
         id="rect191" /><rect
         x="295.25"
         y="216.45"
         width="7.7199998"
         height="4.2199998"
         transform="rotate(180,299.115,218.555)"
         style="fill:#ebebeb"
         id="rect192" /><rect
         x="295.25"
         y="221.92999"
         width="7.7199998"
         height="4.2199998"
         transform="rotate(180,299.115,224.045)"
         style="fill:#ebebeb"
         id="rect193" /><rect
         x="295.25"
         y="227.42"
         width="7.7199998"
         height="4.2199998"
         transform="rotate(180,299.115,229.53)"
         style="fill:#708090"
         id="rect194" /><path
         d="m 282.22,249.6 h -18.5 a 2.11,2.11 0 0 0 -2.11,2.11 v 0 a 2.12,2.12 0 0 0 2.11,2.11 h 18.5 a 2.12,2.12 0 0 0 2.11,-2.11 v 0 a 2.11,2.11 0 0 0 -2.11,-2.11 z"
         style="opacity:0.6;fill:#708090"
         id="path194" /><path
         d="m 282.22,244.11 h -18.5 a 2.11,2.11 0 0 0 -2.11,2.11 v 0 a 2.11,2.11 0 0 0 2.11,2.11 h 18.5 a 2.11,2.11 0 0 0 2.11,-2.11 v 0 a 2.11,2.11 0 0 0 -2.11,-2.11 z"
         style="opacity:0.6;fill:#708090"
         id="path195" /><path
         d="m 282.22,238.62 h -18.5 a 2.12,2.12 0 0 0 -2.11,2.11 v 0 a 2.12,2.12 0 0 0 2.11,2.12 h 18.5 a 2.12,2.12 0 0 0 2.11,-2.12 v 0 a 2.12,2.12 0 0 0 -2.11,-2.11 z"
         style="opacity:0.6;fill:#708090"
         id="path196" /><rect
         x="286.26999"
         y="194.27"
         width="7.7199998"
         height="4.2199998"
         transform="rotate(180,290.13,196.38)"
         style="fill:#ebebeb"
         id="rect196" /><rect
         x="286.26999"
         y="199.75999"
         width="7.7199998"
         height="4.2199998"
         transform="rotate(180,290.13,201.87)"
         style="fill:#708090"
         id="rect197" /><rect
         x="286.26999"
         y="205.24001"
         width="7.7199998"
         height="4.2199998"
         transform="rotate(180,290.13,207.355)"
         style="fill:#ebebeb"
         id="rect198" /><rect
         x="295.25"
         y="194.27"
         width="7.7199998"
         height="4.2199998"
         transform="rotate(180,299.115,196.38)"
         style="fill:#708090"
         id="rect199" /><rect
         x="295.25"
         y="199.75999"
         width="7.7199998"
         height="4.2199998"
         transform="rotate(180,299.115,201.87)"
         style="fill:#ebebeb"
         id="rect200" /><rect
         x="295.25"
         y="205.24001"
         width="7.7199998"
         height="4.2199998"
         transform="rotate(180,299.115,207.355)"
         style="fill:#ebebeb"
         id="rect201" /><path
         d="m 282.22,271.77 h -18.5 a 2.12,2.12 0 0 0 -2.11,2.11 v 0 a 2.12,2.12 0 0 0 2.11,2.12 h 18.5 a 2.12,2.12 0 0 0 2.11,-2.12 v 0 a 2.12,2.12 0 0 0 -2.11,-2.11 z"
         style="opacity:0.6;fill:#708090"
         id="path201" /><path
         d="m 282.22,266.29 h -18.5 a 2.11,2.11 0 0 0 -2.11,2.11 v 0 a 2.12,2.12 0 0 0 2.11,2.11 h 18.5 a 2.12,2.12 0 0 0 2.11,-2.11 v 0 a 2.11,2.11 0 0 0 -2.11,-2.11 z"
         style="opacity:0.6;fill:#708090"
         id="path202" /><rect
         x="261.60999"
         y="260.79999"
         width="22.719999"
         height="4.2199998"
         rx="2.1099999"
         style="opacity:0.6;fill:#708090"
         id="rect202" /><rect
         x="286.26999"
         y="172.09"
         width="7.7199998"
         height="4.2199998"
         transform="rotate(180,290.13,174.205)"
         style="fill:#708090"
         id="rect203" /><rect
         x="286.26999"
         y="177.58"
         width="7.7199998"
         height="4.2199998"
         transform="rotate(180,290.13,179.69)"
         style="fill:#ebebeb"
         id="rect204" /><rect
         x="286.26999"
         y="183.07001"
         width="7.7199998"
         height="4.2199998"
         transform="rotate(180,290.13,185.18)"
         style="fill:#ebebeb"
         id="rect205" /><rect
         x="295.25"
         y="172.09"
         width="7.7199998"
         height="4.2199998"
         transform="rotate(180,299.115,174.205)"
         style="fill:#ebebeb"
         id="rect206" /><rect
         x="295.25"
         y="177.58"
         width="7.7199998"
         height="4.2199998"
         transform="rotate(180,299.115,179.69)"
         style="fill:#ebebeb"
         id="rect207" /><rect
         x="295.25"
         y="183.07001"
         width="7.7199998"
         height="4.2199998"
         transform="rotate(180,299.115,185.18)"
         style="fill:#708090"
         id="rect208" /></g></g></svg>
