<?xml version="1.0" encoding="UTF-8" standalone="no"?>
<svg
   width="190"
   height="40"
   version="1.1"
   viewBox="0 0 50.271467 10.583415"
   xml:space="preserve"
   id="svg4"
   sodipodi:docname="bracketui.svg"
   inkscape:version="1.3 (1:1.3+202307231459+0e150ed6c4)"
   xmlns:inkscape="http://www.inkscape.org/namespaces/inkscape"
   xmlns:sodipodi="http://sodipodi.sourceforge.net/DTD/sodipodi-0.dtd"
   xmlns:xlink="http://www.w3.org/1999/xlink"
   xmlns="http://www.w3.org/2000/svg"
   xmlns:svg="http://www.w3.org/2000/svg"><defs
     id="defs4"><linearGradient
       id="linearGradient19"
       inkscape:collect="always"><stop
         style="stop-color:#000000;stop-opacity:1;"
         offset="0"
         id="stop19" /><stop
         style="stop-color:#232323;stop-opacity:1;"
         offset="1"
         id="stop20" /></linearGradient><linearGradient
       id="linearGradient17"
       inkscape:collect="always"><stop
         style="stop-color:#000000;stop-opacity:0.96882498;"
         offset="0"
         id="stop17" /><stop
         style="stop-color:#222222;stop-opacity:1;"
         offset="1"
         id="stop18" /></linearGradient><linearGradient
       id="linearGradient7"
       inkscape:collect="always"><stop
         style="stop-color:#ffffff;stop-opacity:1;"
         offset="0"
         id="stop7" /><stop
         style="stop-color:#ffffff;stop-opacity:0;"
         offset="1"
         id="stop8" /></linearGradient><linearGradient
       inkscape:collect="always"
       xlink:href="#linearGradient7"
       id="linearGradient8"
       x1="0.017375"
       y1="147.99001"
       x2="65.677376"
       y2="147.99001"
       gradientUnits="userSpaceOnUse" /><linearGradient
       inkscape:collect="always"
       xlink:href="#linearGradient17"
       id="linearGradient18"
       x1="178.49306"
       y1="175.30943"
       x2="232.11011"
       y2="119.75339"
       gradientUnits="userSpaceOnUse"
       gradientTransform="matrix(0.89922889,0.03724883,-0.03724883,0.89922889,49.924019,-114.09624)" /><linearGradient
       inkscape:collect="always"
       xlink:href="#linearGradient19"
       id="linearGradient20"
       x1="-47.62558"
       y1="206.118"
       x2="644.8302"
       y2="206.118"
       gradientUnits="userSpaceOnUse" /></defs><sodipodi:namedview
     id="namedview4"
     pagecolor="#ffffff"
     bordercolor="#000000"
     borderopacity="0.25"
     inkscape:showpageshadow="2"
     inkscape:pageopacity="0.0"
     inkscape:pagecheckerboard="0"
     inkscape:deskcolor="#d1d1d1"
     inkscape:zoom="1.644259"
     inkscape:cx="-43.484634"
     inkscape:cy="155.69324"
     inkscape:window-width="1920"
     inkscape:window-height="1016"
     inkscape:window-x="0"
     inkscape:window-y="27"
     inkscape:window-maximized="1"
     inkscape:current-layer="svg4" /><g
     id="g20"
     transform="matrix(0.19937028,0,0,0.19937028,-0.04939098,-0.23042974)"><path
       id="path16"
       style="font-variation-settings:'wght' 600;fill:url(#linearGradient18);stroke:#5d6774;stroke-width:0;stroke-linecap:round;stroke-miterlimit:43.8"
       d="m 206.60132,1.1575724 c -1.20026,-0.049747 -2.20643,0.8764175 -2.25615,2.0766761 l -1.79163,43.2519745 c -0.0497,1.20025 0.87641,2.206436 2.07667,2.256153 l 43.25198,1.791632 c 1.20025,0.04975 2.20644,-0.876428 2.25616,-2.076677 l 1.79163,-43.2519743 c 0.0497,-1.2002598 -0.87643,-2.206435 -2.07668,-2.2561528 z m 6.94636,10.0621496 5.07773,0.210339 -0.79248,19.131515 c -0.013,0.31378 -0.0153,0.609853 -0.008,0.88874 0.008,0.278904 0.0251,0.540641 0.0532,0.784691 0.0278,0.244048 0.0663,0.470538 0.11474,0.679706 0.0243,0.104541 0.0512,0.204929 0.0806,0.300801 0.0293,0.09583 0.0612,0.187263 0.0956,0.274414 0.0361,0.08725 0.0739,0.171262 0.11435,0.251906 0.0404,0.08078 0.0831,0.157922 0.12772,0.231987 0.0445,0.07402 0.0909,0.144958 0.13968,0.212455 0.0489,0.06744 0.10002,0.131613 0.15308,0.192547 0.0531,0.06097 0.10774,0.118681 0.16507,0.173023 0.0573,0.0545 0.11695,0.105242 0.17844,0.153086 0.0616,0.04773 0.12517,0.09238 0.19091,0.133603 0.0658,0.04116 0.13386,0.07893 0.20385,0.113654 0.13999,0.06928 0.28841,0.130962 0.44572,0.185108 0.15729,0.0541 0.32328,0.100667 0.49787,0.139766 0.1746,0.03891 0.35767,0.07068 0.54956,0.09442 0.19189,0.02372 0.39253,0.0401 0.60173,0.04873 0.20918,0.0086 0.4105,0.0091 0.60368,0.0011 0.19323,-0.0078 0.37828,-0.0238 0.55549,-0.04864 0.1772,-0.02454 0.34649,-0.05718 0.50772,-0.09811 0.16123,-0.04103 0.31473,-0.09006 0.45998,-0.147622 0.0727,-0.02876 0.14331,-0.06075 0.21206,-0.09636 0.0688,-0.03561 0.1355,-0.07485 0.20037,-0.117427 0.065,-0.04247 0.12765,-0.08835 0.18866,-0.137895 0.0608,-0.04951 0.11977,-0.102558 0.17694,-0.158844 0.057,-0.05637 0.11242,-0.116051 0.16571,-0.179351 0.0533,-0.06323 0.10466,-0.130088 0.15398,-0.200279 0.0492,-0.07008 0.0964,-0.143737 0.14182,-0.220829 0.0454,-0.07723 0.0889,-0.157773 0.13057,-0.241765 0.0416,-0.08409 0.0814,-0.172433 0.11849,-0.265542 0.0371,-0.09312 0.072,-0.190878 0.10473,-0.293105 0.0656,-0.204458 0.12253,-0.427003 0.17056,-0.667903 0.048,-0.24091 0.0873,-0.500272 0.11788,-0.777619 0.0306,-0.277337 0.0526,-0.572591 0.0655,-0.886377 l 0.79249,-19.131516 5.0963,0.211114 -0.79248,19.131515 c -0.011,0.264661 -0.0277,0.522681 -0.0503,0.774356 -0.0228,0.251662 -0.0513,0.496974 -0.0858,0.735644 -0.0345,0.23868 -0.0753,0.47077 -0.12144,0.696476 -0.0464,0.225676 -0.0982,0.444625 -0.15618,0.657323 -0.058,0.2127 -0.12209,0.41889 -0.1918,0.618595 -0.0697,0.199728 -0.14542,0.393202 -0.22699,0.579921 -0.0816,0.186709 -0.1688,0.367015 -0.26212,0.540743 -0.0933,0.173747 -0.19266,0.340827 -0.29774,0.501575 -0.10514,0.16074 -0.21434,0.315665 -0.32789,0.464954 -0.11355,0.149271 -0.23145,0.293016 -0.35346,0.430828 -0.12197,0.13782 -0.24812,0.269919 -0.37857,0.396282 -0.13045,0.126353 -0.26524,0.2468 -0.40413,0.361694 -0.1389,0.114895 -0.2819,0.224195 -0.42924,0.32763 -0.14737,0.103436 -0.29902,0.201055 -0.45484,0.293033 -0.15582,0.09196 -0.31567,0.178438 -0.47993,0.258947 -0.16426,0.08048 -0.33278,0.154869 -0.50551,0.223909 -0.17264,0.0674 -0.34779,0.130237 -0.52541,0.18819 -0.17762,0.05798 -0.35795,0.111269 -0.54053,0.159609 -0.18257,0.04837 -0.36764,0.09233 -0.55518,0.131039 -0.18754,0.03886 -0.37731,0.0727 -0.5698,0.102039 -0.1925,0.02924 -0.38745,0.05368 -0.58492,0.07341 -0.1975,0.01973 -0.39766,0.03476 -0.60004,0.04548 -0.20245,0.0099 -0.40729,0.01577 -0.61469,0.01603 -0.20744,0.0011 -0.41742,-0.0034 -0.62977,-0.01221 -0.21712,-0.009 -0.43084,-0.02288 -0.64163,-0.04046 -0.21076,-0.01878 -0.41837,-0.04069 -0.62283,-0.06772 -0.20445,-0.02713 -0.40586,-0.05909 -0.60397,-0.09528 -0.19814,-0.03629 -0.3934,-0.07679 -0.58521,-0.122031 -0.19178,-0.04524 -0.38043,-0.09492 -0.5659,-0.149126 -0.18547,-0.05429 -0.36748,-0.113309 -0.54663,-0.176729 -0.17912,-0.06335 -0.35498,-0.131442 -0.52779,-0.203846 -0.17281,-0.0725 -0.3425,-0.149524 -0.50899,-0.231032 -0.16641,-0.08316 -0.3284,-0.171141 -0.48524,-0.264946 -0.15684,-0.09374 -0.30867,-0.193188 -0.45595,-0.297724 -0.14727,-0.104577 -0.28993,-0.214347 -0.42764,-0.329585 -0.1377,-0.115239 -0.2707,-0.235965 -0.39883,-0.361926 -0.12812,-0.12596 -0.25149,-0.257101 -0.37005,-0.393763 -0.11856,-0.136673 -0.23226,-0.278719 -0.34125,-0.426104 -0.10898,-0.147365 -0.21301,-0.300307 -0.31244,-0.458414 -0.0994,-0.158109 -0.19428,-0.321485 -0.28412,-0.490295 -0.0883,-0.16877 -0.17009,-0.343347 -0.24594,-0.524101 -0.0759,-0.180732 -0.14561,-0.367542 -0.20909,-0.56026 -0.0635,-0.192737 -0.12069,-0.391713 -0.17172,-0.596426 -0.0511,-0.204719 -0.0958,-0.415415 -0.13439,-0.632123 -0.0387,-0.216713 -0.0713,-0.439149 -0.0976,-0.667838 -0.0262,-0.228683 -0.046,-0.463345 -0.0602,-0.703994 -0.0134,-0.240689 -0.0211,-0.487479 -0.0229,-0.740139 -0.002,-0.25266 0.004,-0.511188 0.0145,-0.775839 z m 23.48432,1.163186 5.05869,0.209542 -1.14698,27.689337 -5.05869,-0.209542 z" /><g
       transform="matrix(0.25874281,0,0,0.25874281,25.16102,-9.904636)"
       id="g4"><g
         transform="matrix(0.90115,0,0,0.90115,76.148,-57.35)"
         id="g1"><path
           d="m 644.83,191.06 h -32.808 v 63.5 q 0,8.2021 3.7042,11.906 3.7042,3.4396 10.848,3.9687 7.4083,0.26459 18.256,-0.26458 v 25.665 q -32.808,3.9688 -47.096,-5.5562 -14.287,-9.7896 -14.287,-35.719 v -63.5 h -24.342 v -27.517 h 24.342 v -28.575 l 28.575,-8.4666 v 37.042 h 32.808 z m -193.3,48.528 q 3.175,15.081 14.552,23.283 11.377,7.9375 27.781,7.9375 22.754,0 34.131,-16.404 l 23.548,13.758 q -19.579,28.84 -57.944,28.84 -32.279,0 -52.123,-19.579 -19.844,-19.844 -19.844,-50.006 0,-29.633 19.579,-49.477 19.579,-20.108 50.271,-20.108 29.104,0 47.625,20.373 18.785,20.373 18.785,49.477 0,4.4979 -1.0583,11.906 z m -0.26458,-23.283 h 77.787 q -2.9104,-16.14 -13.494,-24.342 -10.319,-8.2021 -24.342,-8.2021 -15.875,0 -26.458,8.7312 -10.583,8.7312 -13.494,23.812 z m -23.771,80.698 h -34.131 l -54.24,-61.119 v 61.119 h -28.575 v -185.21 h 28.575 v 111.39 l 51.329,-58.473 h 34.925 l -58.208,64.823 z m -183.85,0 q -29.898,0 -50.006,-20.108 -19.844,-20.108 -19.844,-49.477 0,-29.633 19.844,-49.477 20.108,-20.108 50.006,-20.108 19.315,0 35.19,9.2604 15.875,9.2604 23.812,24.871 l -24.606,14.287 q -4.4979,-9.525 -13.758,-14.817 -8.9958,-5.5562 -20.902,-5.5562 -17.462,0 -29.369,11.906 -11.642,11.906 -11.642,29.633 0,17.727 11.642,29.633 11.906,11.906 29.369,11.906 11.642,0 20.902,-5.5562 9.525,-5.5562 14.287,-14.817 l 24.606,14.023 q -8.4666,15.875 -24.342,25.135 -15.875,9.2604 -35.19,9.2604 z m -107.12,-132.29 h 28.575 v 132.29 h -28.575 v -19.05 q -16.14,22.49 -46.302,22.49 -27.252,0 -46.567,-20.108 -19.315,-20.373 -19.315,-49.477 0,-29.369 19.315,-49.477 19.315,-20.108 46.567,-20.108 30.162,0 46.302,22.225 z m -71.702,96.573 q 11.906,11.906 29.898,11.906 17.992,0 29.898,-11.906 11.906,-12.171 11.906,-30.427 0,-18.256 -11.906,-30.162 -11.906,-12.171 -29.898,-12.171 -17.992,0 -29.898,12.171 -11.906,11.906 -11.906,30.162 0,18.256 11.906,30.427 z m -83.873,-74.348 q 10.848,-24.606 40.746,-24.606 v 30.956 q -16.404,-1.0583 -28.575,7.9375 -12.171,8.7312 -12.171,29.104 v 66.675 h -28.575 v -132.29 h 28.575 z"
           stroke-miterlimit="50"
           stroke-width="0"
           id="path1"
           style="fill:url(#linearGradient20)" /></g><g
         transform="translate(-94.498,-0.050621)"
         stroke-miterlimit="50"
         id="g3"><path
           d="m 0.042375,78.14 v 139.7 l 65.61,-21.169 -1.0061,-96.701 z"
           fill="#ffffff"
           stroke="#969696"
           stroke-linecap="round"
           stroke-linejoin="round"
           stroke-width="0.05"
           id="path2"
           style="display:inline;fill:url(#linearGradient8)" /><path
           d="m 0.042375,78.14 64.604,21.829 1.0061,96.701 -65.61,21.169 v 30.121 h 3.4277 l 94.206,-29.034 0.50023,-136.58 -98.134,-33.201 z"
           stroke-width="0"
           id="path3" /></g></g></g></svg>
