<svg width="190" height="40" version="1.1" viewBox="0 0 50.271 10.583" xml:space="preserve" xmlns="http://www.w3.org/2000/svg" xmlns:xlink="http://www.w3.org/1999/xlink"><defs><linearGradient id="linearGradient8" x1=".017375" x2="65.677" y1="147.99" y2="147.99" gradientUnits="userSpaceOnUse"><stop stop-color="#fff" offset="0"/><stop stop-color="#fff" stop-opacity="0" offset="1"/></linearGradient><linearGradient id="linearGradient18" x1="178.49" x2="232.11" y1="175.31" y2="119.75" gradientTransform="matrix(.89923 .037249 -.037249 .89923 49.924 -114.1)" gradientUnits="userSpaceOnUse"><stop stop-opacity=".96882" offset="0"/><stop stop-color="#222" offset="1"/></linearGradient><linearGradient id="linearGradient20" x1="-47.626" x2="644.83" y1="206.12" y2="206.12" gradientUnits="userSpaceOnUse"><stop offset="0"/><stop stop-color="#232323" offset="1"/></linearGradient></defs><g transform="matrix(.19937 0 0 .19937 -.049391 -.23043)"><path d="m206.6 1.1576c-1.2003-0.049747-2.2064 0.87642-2.2562 2.0767l-1.7916 43.252c-0.0497 1.2002 0.87641 2.2064 2.0767 2.2562l43.252 1.7916c1.2002 0.04975 2.2064-0.87643 2.2562-2.0767l1.7916-43.252c0.0497-1.2003-0.87643-2.2064-2.0767-2.2562zm6.9464 10.062 5.0777 0.21034-0.79248 19.132c-0.013 0.31378-0.0153 0.60985-8e-3 0.88874 8e-3 0.2789 0.0251 0.54064 0.0532 0.78469 0.0278 0.24405 0.0663 0.47054 0.11474 0.67971 0.0243 0.10454 0.0512 0.20493 0.0806 0.3008 0.0293 0.09583 0.0612 0.18726 0.0956 0.27441 0.0361 0.08725 0.0739 0.17126 0.11435 0.25191 0.0404 0.08078 0.0831 0.15792 0.12772 0.23199 0.0445 0.07402 0.0909 0.14496 0.13968 0.21246 0.0489 0.06744 0.10002 0.13161 0.15308 0.19255 0.0531 0.06097 0.10774 0.11868 0.16507 0.17302 0.0573 0.0545 0.11695 0.10524 0.17844 0.15309 0.0616 0.04773 0.12517 0.09238 0.19091 0.1336 0.0658 0.04116 0.13386 0.07893 0.20385 0.11365 0.13999 0.06928 0.28841 0.13096 0.44572 0.18511 0.15729 0.0541 0.32328 0.10067 0.49787 0.13977 0.1746 0.03891 0.35767 0.07068 0.54956 0.09442 0.19189 0.02372 0.39253 0.0401 0.60173 0.04873 0.20918 0.0086 0.4105 0.0091 0.60368 0.0011 0.19323-0.0078 0.37828-0.0238 0.55549-0.04864 0.1772-0.02454 0.34649-0.05718 0.50772-0.09811 0.16123-0.04103 0.31473-0.09006 0.45998-0.14762 0.0727-0.02876 0.14331-0.06075 0.21206-0.09636 0.0688-0.03561 0.1355-0.07485 0.20037-0.11743 0.065-0.04247 0.12765-0.08835 0.18866-0.1379 0.0608-0.04951 0.11977-0.10256 0.17694-0.15884 0.057-0.05637 0.11242-0.11605 0.16571-0.17935 0.0533-0.06323 0.10466-0.13009 0.15398-0.20028 0.0492-0.07008 0.0964-0.14374 0.14182-0.22083 0.0454-0.07723 0.0889-0.15777 0.13057-0.24176 0.0416-0.08409 0.0814-0.17243 0.11849-0.26554 0.0371-0.09312 0.072-0.19088 0.10473-0.2931 0.0656-0.20446 0.12253-0.427 0.17056-0.6679 0.048-0.24091 0.0873-0.50027 0.11788-0.77762 0.0306-0.27734 0.0526-0.57259 0.0655-0.88638l0.79249-19.132 5.0963 0.21111-0.79248 19.132c-0.011 0.26466-0.0277 0.52268-0.0503 0.77436-0.0228 0.25166-0.0513 0.49697-0.0858 0.73564-0.0345 0.23868-0.0753 0.47077-0.12144 0.69648-0.0464 0.22568-0.0982 0.44462-0.15618 0.65732-0.058 0.2127-0.12209 0.41889-0.1918 0.6186-0.0697 0.19973-0.14542 0.3932-0.22699 0.57992-0.0816 0.18671-0.1688 0.36702-0.26212 0.54074-0.0933 0.17375-0.19266 0.34083-0.29774 0.50158-0.10514 0.16074-0.21434 0.31566-0.32789 0.46495-0.11355 0.14927-0.23145 0.29302-0.35346 0.43083-0.12197 0.13782-0.24812 0.26992-0.37857 0.39628-0.13045 0.12635-0.26524 0.2468-0.40413 0.36169-0.1389 0.1149-0.2819 0.2242-0.42924 0.32763-0.14737 0.10344-0.29902 0.20106-0.45484 0.29303-0.15582 0.09196-0.31567 0.17844-0.47993 0.25895-0.16426 0.08048-0.33278 0.15487-0.50551 0.22391-0.17264 0.0674-0.34779 0.13024-0.52541 0.18819-0.17762 0.05798-0.35795 0.11127-0.54053 0.15961-0.18257 0.04837-0.36764 0.09233-0.55518 0.13104-0.18754 0.03886-0.37731 0.0727-0.5698 0.10204-0.1925 0.02924-0.38745 0.05368-0.58492 0.07341-0.1975 0.01973-0.39766 0.03476-0.60004 0.04548-0.20245 0.0099-0.40729 0.01577-0.61469 0.01603-0.20744 0.0011-0.41742-0.0034-0.62977-0.01221-0.21712-9e-3 -0.43084-0.02288-0.64163-0.04046-0.21076-0.01878-0.41837-0.04069-0.62283-0.06772-0.20445-0.02713-0.40586-0.05909-0.60397-0.09528-0.19814-0.03629-0.3934-0.07679-0.58521-0.12203-0.19178-0.04524-0.38043-0.09492-0.5659-0.14913-0.18547-0.05429-0.36748-0.11331-0.54663-0.17673-0.17912-0.06335-0.35498-0.13144-0.52779-0.20385-0.17281-0.0725-0.3425-0.14952-0.50899-0.23103-0.16641-0.08316-0.3284-0.17114-0.48524-0.26495-0.15684-0.09374-0.30867-0.19319-0.45595-0.29772-0.14727-0.10458-0.28993-0.21435-0.42764-0.32958-0.1377-0.11524-0.2707-0.23596-0.39883-0.36193-0.12812-0.12596-0.25149-0.2571-0.37005-0.39376-0.11856-0.13667-0.23226-0.27872-0.34125-0.4261-0.10898-0.14736-0.21301-0.30031-0.31244-0.45841-0.0994-0.15811-0.19428-0.32148-0.28412-0.4903-0.0883-0.16877-0.17009-0.34335-0.24594-0.5241-0.0759-0.18073-0.14561-0.36754-0.20909-0.56026-0.0635-0.19274-0.12069-0.39171-0.17172-0.59643-0.0511-0.20472-0.0958-0.41542-0.13439-0.63212-0.0387-0.21671-0.0713-0.43915-0.0976-0.66784-0.0262-0.22868-0.046-0.46334-0.0602-0.70399-0.0134-0.24069-0.0211-0.48748-0.0229-0.74014-2e-3 -0.25266 4e-3 -0.51119 0.0145-0.77584zm23.484 1.1632 5.0587 0.20954-1.147 27.689-5.0587-0.20954z" fill="url(#linearGradient18)" stroke-miterlimit="43.8" stroke-width="0" style="font-variation-settings:'wght' 600"/><g transform="matrix(.25874 0 0 .25874 25.161 -9.9046)"><g transform="matrix(.90115 0 0 .90115 76.148 -57.35)"><path d="m644.83 191.06h-32.808v63.5q0 8.2021 3.7042 11.906 3.7042 3.4396 10.848 3.9687 7.4083 0.26459 18.256-0.26458v25.665q-32.808 3.9688-47.096-5.5562-14.287-9.7896-14.287-35.719v-63.5h-24.342v-27.517h24.342v-28.575l28.575-8.4666v37.042h32.808zm-193.3 48.528q3.175 15.081 14.552 23.283 11.377 7.9375 27.781 7.9375 22.754 0 34.131-16.404l23.548 13.758q-19.579 28.84-57.944 28.84-32.279 0-52.123-19.579-19.844-19.844-19.844-50.006 0-29.633 19.579-49.477 19.579-20.108 50.271-20.108 29.104 0 47.625 20.373 18.785 20.373 18.785 49.477 0 4.4979-1.0583 11.906zm-0.26458-23.283h77.787q-2.9104-16.14-13.494-24.342-10.319-8.2021-24.342-8.2021-15.875 0-26.458 8.7312t-13.494 23.812zm-23.771 80.698h-34.131l-54.24-61.119v61.119h-28.575v-185.21h28.575v111.39l51.329-58.473h34.925l-58.208 64.823zm-183.85 0q-29.898 0-50.006-20.108-19.844-20.108-19.844-49.477 0-29.633 19.844-49.477 20.108-20.108 50.006-20.108 19.315 0 35.19 9.2604t23.812 24.871l-24.606 14.287q-4.4979-9.525-13.758-14.817-8.9958-5.5562-20.902-5.5562-17.462 0-29.369 11.906-11.642 11.906-11.642 29.633t11.642 29.633q11.906 11.906 29.369 11.906 11.642 0 20.902-5.5562 9.525-5.5562 14.287-14.817l24.606 14.023q-8.4666 15.875-24.342 25.135-15.875 9.2604-35.19 9.2604zm-107.12-132.29h28.575v132.29h-28.575v-19.05q-16.14 22.49-46.302 22.49-27.252 0-46.567-20.108-19.315-20.373-19.315-49.477 0-29.369 19.315-49.477t46.567-20.108q30.162 0 46.302 22.225zm-71.702 96.573q11.906 11.906 29.898 11.906t29.898-11.906q11.906-12.171 11.906-30.427t-11.906-30.162q-11.906-12.171-29.898-12.171t-29.898 12.171q-11.906 11.906-11.906 30.162t11.906 30.427zm-83.873-74.348q10.848-24.606 40.746-24.606v30.956q-16.404-1.0583-28.575 7.9375-12.171 8.7312-12.171 29.104v66.675h-28.575v-132.29h28.575z" fill="url(#linearGradient20)" stroke-miterlimit="50" stroke-width="0"/></g><g transform="translate(-94.498 -.050621)" stroke-miterlimit="50"><path d="m0.042375 78.14v139.7l65.61-21.169-1.0061-96.701z" fill="url(#linearGradient8)" stroke="#969696" stroke-linecap="round" stroke-linejoin="round" stroke-width=".05"/><path d="m0.042375 78.14 64.604 21.829 1.0061 96.701-65.61 21.169v30.121h3.4277l94.206-29.034 0.50023-136.58-98.134-33.201z" stroke-width="0"/></g></g></g></svg>
