<svg version="1.1" viewBox="0 0 150 24" xml:space="preserve" xmlns="http://www.w3.org/2000/svg"><defs><linearGradient id="a" x1="-1.8048" x2=".85498" y1="11.531" y2="11.503" gradientTransform="matrix(5.3331 0 0 5.3331 19.439 -49.406)" gradientUnits="userSpaceOnUse"><stop stop-color="#3b3b3b" offset="0"/><stop stop-color="#0d0d0d" offset=".64124"/><stop offset="1"/></linearGradient><linearGradient id="b" x1="-3.645" x2="-.19775" y1="11.514" y2="11.514" gradientTransform="matrix(5.3331 0 0 5.3331 19.439 -49.406)" gradientUnits="userSpaceOnUse"><stop offset="0"/><stop stop-color="#0d0d0d" offset=".18503"/><stop stop-color="#3b3b3b" offset="1"/></linearGradient></defs><path d="m20.977 4.0398-8.3148 2.8124-0.10676 10.244 8.5231 2.75a12 12 0 0 0 2.9217-7.846 12 12 0 0 0-3.0233-7.9606z" fill="url(#a)" stroke-width=".18749"/><path d="m12 8.5499e-4a12 12 0 0 0-12 12 12 12 0 0 0 12 12 12 12 0 0 0 6.216-1.7551l-9.0544-2.789-0.052104-14.471 9.2757-3.1379a12 12 0 0 0-6.3851-1.8463z" fill="url(#b)" stroke-width=".18749"/><path d="m30.321 21.655v-19.655h2.2649v7.2553h0.19194q0.24952-0.38388 0.69098-0.97889 0.45106-0.60461 1.286-1.0749 0.84453-0.47985 2.2841-0.47985 1.8618 0 3.2821 0.9309 1.4203 0.9309 2.2169 2.6392 0.79654 1.7083 0.79654 4.0307 0 2.3417-0.79654 4.0595-0.79654 1.7083-2.2073 2.6488-1.4107 0.9309-3.2534 0.9309-1.4203 0-2.2745-0.47025-0.85413-0.47985-1.3148-1.0845-0.46065-0.6142-0.71017-1.0173h-0.26871v2.2649zm2.2265-7.3704q0 1.6699 0.48944 2.9463 0.48944 1.2668 1.4299 1.9866 0.9405 0.71017 2.3033 0.71017 1.4203 0 2.3704-0.74856 0.95969-0.75816 1.4395-2.0345 0.48944-1.286 0.48944-2.8599 0-1.5547-0.47985-2.8023-0.47025-1.2572-1.4299-1.9866-0.9501-0.73896-2.3896-0.73896-1.382 0-2.3225 0.70058-0.9405 0.69098-1.4203 1.9386-0.47985 1.238-0.47985 2.8887zm14.242 7.3704v-14.741h2.1881v2.2265h0.15355q0.40307-1.0941 1.4587-1.7754 1.0557-0.68138 2.38-0.68138 0.24952 0 0.6238 0.00956 0.37428 0.00956 0.56622 0.028789v2.3033q-0.11516-0.028789-0.52783-0.086367-0.40307-0.067178-0.85413-0.067178-1.0749 0-1.9194 0.45106-0.83493 0.44146-1.3244 1.2284-0.47985 0.77735-0.47985 1.7754v9.3282zm14.395 0.34549q-1.4012 0-2.5432-0.52783-1.142-0.53743-1.8138-1.5451-0.67178-1.0173-0.67178-2.4568 0-1.2668 0.49904-2.0537 0.49904-0.79654 1.334-1.2476 0.83493-0.45106 1.8426-0.67179 1.0173-0.23033 2.0441-0.36468 1.3436-0.17274 2.1785-0.25912 0.84453-0.09597 1.2284-0.3167 0.39347-0.22073 0.39347-0.76776v-0.07678q0-1.4203-0.77735-2.2073-0.76775-0.78695-2.3321-0.78695-1.6219 0-2.5432 0.71017-0.9213 0.71017-1.2956 1.5163l-2.1497-0.76775q0.57582-1.3436 1.5355-2.0921 0.96929-0.75816 2.1113-1.0557 1.1516-0.3071 2.2649-0.3071 0.71017 0 1.6315 0.17274 0.9309 0.16315 1.7946 0.68138 0.87332 0.51823 1.4491 1.5643 0.57582 1.0461 0.57582 2.8023v9.7121h-2.2649v-1.9962h-0.11516q-0.23033 0.47985-0.76775 1.0269t-1.4299 0.9309q-0.89252 0.38388-2.1785 0.38388zm0.34549-2.0345q1.3436 0 2.2649-0.52783 0.9309-0.52783 1.4012-1.3628 0.47985-0.83493 0.47985-1.7562v-2.0729q-0.14396 0.17274-0.6334 0.3167-0.47985 0.13436-1.1132 0.23992-0.6238 0.09597-1.2188 0.17274-0.58541 0.06718-0.9501 0.11516-0.88292 0.11516-1.6507 0.37428-0.75816 0.24952-1.2284 0.75816-0.46065 0.49904-0.46065 1.3628 0 1.1804 0.87332 1.785 0.88292 0.59501 2.2361 0.59501zm16.545 1.9962q-2.0729 0-3.5701-0.97889-1.4971-0.97889-2.3033-2.6967t-0.80614-3.9251q0-2.2457 0.82534-3.9635 0.83493-1.7274 2.3225-2.6967 1.4971-0.97889 3.4933-0.97889 1.5547 0 2.8023 0.57582 1.2476 0.57582 2.0441 1.6123 0.79654 1.0365 0.98848 2.4184h-2.2649q-0.25912-1.0077-1.1516-1.785-0.88292-0.78695-2.38-0.78695-1.3244 0-2.3225 0.69098-0.98848 0.68138-1.5451 1.929-0.54702 1.238-0.54702 2.9079 0 1.7083 0.53743 2.975 0.54702 1.2668 1.5355 1.9674 0.99808 0.70058 2.3417 0.70058 0.88292 0 1.6027-0.3071 0.71977-0.3071 1.2188-0.88292 0.49904-0.57582 0.71017-1.382h2.2649q-0.19194 1.3052-0.9501 2.3512-0.74856 1.0365-1.9866 1.6507-1.2284 0.60461-2.8599 0.60461zm11.209-5.6814-0.03839-2.8023h0.46065l6.4491-6.5643h2.8023l-6.8714 6.9482h-0.19194zm-2.1113 5.3743v-19.655h2.2649v19.655zm9.3666 0-5.7582-7.2937 1.6123-1.5739 7.025 8.8676zm10.902 0.3071q-2.1305 0-3.6756-0.9405-1.5355-0.9501-2.3704-2.6488-0.82534-1.7083-0.82534-3.9731 0-2.2649 0.82534-3.9923 0.83493-1.737 2.3225-2.7063 1.4971-0.97889 3.4933-0.97889 1.1516 0 2.2745 0.38388t2.0442 1.2476q0.92131 0.85413 1.4683 2.2649t0.54702 3.4741v0.95969h-11.363v-1.9578h9.0595q0-1.2476-0.49904-2.2265-0.48944-0.97889-1.4012-1.5451-0.90211-0.56622-2.1305-0.56622-1.3532 0-2.3416 0.67179-0.97889 0.66219-1.5067 1.7274t-0.52783 2.2841v1.3052q0 1.6699 0.57581 2.8311 0.58542 1.1516 1.6219 1.7562 1.0365 0.59501 2.4088 0.59501 0.89251 0 1.6123-0.24952 0.72937-0.25912 1.2572-0.76775 0.52783-0.51824 0.81574-1.286l2.1881 0.6142q-0.34549 1.1132-1.1612 1.9578-0.81574 0.83493-2.0154 1.3052-1.1996 0.46065-2.6967 0.46065zm15.969-15.048v1.9194h-7.6392v-1.9194zm-5.4127-3.5317h2.2649v14.05q0 0.95969 0.27831 1.4395 0.28791 0.47025 0.72937 0.6334 0.45105 0.15355 0.9501 0.15355 0.37427 0 0.6142-0.03839 0.23993-0.04799 0.38387-0.07678l0.46066 2.0345q-0.23032 0.08638-0.64299 0.17274-0.41267 0.09597-1.0461 0.09597-0.95969 0-1.881-0.41267-0.91171-0.41267-1.5163-1.2572-0.59501-0.84453-0.59501-2.1305z" stroke="#000" stroke-miterlimit="20" stroke-width=".5" style="paint-order:stroke fill markers" aria-label="bracket"/><path d="m128.03 2.7422h2.7474v13.32q0 1.0156 0.74219 1.7318 0.74218 0.71614 1.7838 0.71614h4.5443q1.0417 0 1.7838-0.71614 0.74219-0.71614 0.74219-1.7318v-13.32h2.7344v13.346q0 1.4193-0.71615 2.6042-0.70312 1.1719-1.901 1.875-1.1849 0.6901-2.6432 0.6901h-4.5443q-1.4583 0-2.6562-0.6901-1.1979-0.70312-1.9141-1.875-0.70312-1.1849-0.70312-2.6042zm18.724 0h2.7474v18.516h-2.7474z" stroke="#000" stroke-linecap="square" stroke-linejoin="bevel" stroke-miterlimit="20" style="paint-order:stroke fill markers" aria-label="UI"/></svg>
