<?xml version="1.0" encoding="UTF-8" standalone="no"?>
<svg
   xml:space="preserve"
   id="layer"
   version="1.1"
   viewBox="0 0 141 40"
   sodipodi:docname="clutch.svg"
   inkscape:version="1.3 (1:1.3+202307231459+0e150ed6c4)"
   xmlns:inkscape="http://www.inkscape.org/namespaces/inkscape"
   xmlns:sodipodi="http://sodipodi.sourceforge.net/DTD/sodipodi-0.dtd"
   xmlns="http://www.w3.org/2000/svg"
   xmlns:svg="http://www.w3.org/2000/svg"><defs
   id="defs2">&#10;    &#10;    &#10;    &#10;  </defs><sodipodi:namedview
   id="namedview2"
   pagecolor="#ffffff"
   bordercolor="#000000"
   borderopacity="0.25"
   inkscape:showpageshadow="2"
   inkscape:pageopacity="0.0"
   inkscape:pagecheckerboard="0"
   inkscape:deskcolor="#d1d1d1"
   inkscape:zoom="1.6737589"
   inkscape:cx="70.5"
   inkscape:cy="19.716102"
   inkscape:window-width="1280"
   inkscape:window-height="656"
   inkscape:window-x="0"
   inkscape:window-y="27"
   inkscape:window-maximized="1"
   inkscape:current-layer="layer" />&#10;  <style
   id="style1">&#10;    .st0{fill:#17313b}&#10;  </style>&#10;  <path
   d="m 35.71,0.45 h 6.44 v 39.1 h -6.44 z m 28.52,26.68 c 0,6.21 -5.06,6.67 -6.67,6.67 -3.91,0 -4.37,-3.45 -4.37,-5.52 V 13.1 h -6.44 v 14.95 c 0,3.68 1.15,6.9 3.22,8.74 2.07,2.07 4.6,2.76 7.59,2.76 2.07,0 4.83,-0.46 6.67,-2.07 v 2.07 h 6.21 V 13.1 H 64.23 Z M 82.86,3.44 h -6.21 v 9.66 h -4.83 v 6.21 h 4.83 v 20.24 h 6.21 V 19.31 h 4.83 V 13.1 h -4.83 z m 24.61,28.29 c -1.38,0.92 -3.22,1.84 -5.29,1.84 -4.37,0 -7.36,-3.45 -7.36,-7.82 0,-4.37 2.99,-7.36 7.36,-7.36 2.07,0 3.91,0.46 5.29,1.84 l 0.92,0.92 4.37,-4.14 -1.15,-0.92 a 14.26,14.26 0 0 0 -9.43,-3.45 c -7.59,0 -13.57,5.75 -13.57,13.34 0,7.59 5.98,13.57 13.57,13.57 3.68,0 6.9,-1.38 9.43,-3.45 l 1.15,-0.92 -4.37,-4.37 z m 27.6,-16.33 c -1.84,-2.07 -3.91,-2.76 -6.9,-2.76 -2.3,0 -4.37,0.46 -5.98,2.07 V 0.45 h -6.44 v 39.1 h 6.44 V 25.06 c 0,-6.21 4.14,-6.67 5.75,-6.67 3.91,0 3.45,3.45 3.45,5.52 v 15.41 h 6.44 V 24.14 c 0,-3.68 -0.92,-6.9 -2.76,-8.74 z"
   class="st0"
   id="path1"
   style="fill:#8e96a3;fill-opacity:1;stroke-width:0.23" /><circle
   cx="101.95"
   cy="26.094999"
   r="4.4160004"
   fill="#ef4335"
   id="circle1"
   style="stroke-width:0.23" /><path
   d="m 26.97,29.202339 a 12.88,12.88 0 0 1 -9.2,3.68 c -6.9,0 -11.96,-5.52 -11.96,-12.88 0,-7.36 5.06,-13.1100005 12.19,-13.1100005 3.45,0 6.67,1.38 9.2,3.9100005 l 0.69,0.92 4.14,-4.1400005 -0.69,-0.92 a 18.63,18.63 0 0 0 -13.34,-5.52 c -10.35,-0.22999999 -18.17,8.05 -18.17,18.8600005 0,10.81 7.82,18.86 17.94,18.86 5.06,0 9.89,-1.84 13.34,-5.52 l 0.69,-0.69 -4.14,-4.14 z"
   class="st0"
   id="path2"
   style="fill:#8e96a3;fill-opacity:1;stroke-width:0.23" />&#10;</svg>
