<svg version="1.1" viewBox="0 0 1000 1000" xml:space="preserve" xmlns="http://www.w3.org/2000/svg"><style>
    #light-icon {
      display: inline;
    }
    #dark-icon {
      display: none;
    }

    @media (prefers-color-scheme: dark) {
      #light-icon {
        display: none;
      }
      #dark-icon {
        display: inline;
      }
    }
  </style><path d="m140.37-1.2565e-6a139.86 139.86 0 0 0-139.85 139.85v720.14a140 140 0 0 0 139.99 140.01h719.16a139.86 139.86 0 0 0 54.012-12.15l-579.29-178.53-2.1131-576.72 609.07-206.07a140 140 0 0 0-81.824-26.53zm858.65 129.47a140 140 0 0 1 0 0.016h0.01zm0 0.016-525.2 177.46-4.2477 408.3 526.62 169.91a139.86 139.86 0 0 0 3.2975-25.133v-720.14a140 140 0 0 0-0.47413-10.402z" stroke-miterlimit="50" stroke-width="0" style="font-variation-settings:'wdth' 75, 'wght' 450"/></svg>
