<?xml version="1.0" encoding="UTF-8" standalone="no"?>
<svg
   version="1.1"
   viewBox="0 0 1600 840"
   xml:space="preserve"
   id="svg11"
   sodipodi:docname="og-temp.svg"
   inkscape:version="1.3 (1:1.3+202307231459+0e150ed6c4)"
   xmlns:inkscape="http://www.inkscape.org/namespaces/inkscape"
   xmlns:sodipodi="http://sodipodi.sourceforge.net/DTD/sodipodi-0.dtd"
   xmlns:xlink="http://www.w3.org/1999/xlink"
   xmlns="http://www.w3.org/2000/svg"
   xmlns:svg="http://www.w3.org/2000/svg"><sodipodi:namedview
     id="namedview11"
     pagecolor="#ffffff"
     bordercolor="#000000"
     borderopacity="0.25"
     inkscape:showpageshadow="2"
     inkscape:pageopacity="0.0"
     inkscape:pagecheckerboard="0"
     inkscape:deskcolor="#d1d1d1"
     inkscape:zoom="0.34648232"
     inkscape:cx="799.46359"
     inkscape:cy="629.18073"
     inkscape:window-width="1280"
     inkscape:window-height="656"
     inkscape:window-x="0"
     inkscape:window-y="27"
     inkscape:window-maximized="1"
     inkscape:current-layer="svg11" /><defs
     id="defs4"><linearGradient
       id="linearGradient12"
       x1="478.76"
       x2="505.22"
       y1="145.78"
       y2="144.89"
       gradientUnits="userSpaceOnUse"><stop
         stop-color="#fff"
         offset="0"
         id="stop1" /><stop
         stop-color="#fff"
         stop-opacity="0"
         offset="1"
         id="stop2" /></linearGradient><linearGradient
       id="linearGradient12-2"
       x1="478.76"
       x2="497.85"
       y1="145.78"
       y2="145.67"
       gradientTransform="matrix(3.1598679,0,0,3.1598679,-592.47064,-149.6737)"
       gradientUnits="userSpaceOnUse"><stop
         stop-color="#fff"
         offset="0"
         id="stop3" /><stop
         stop-color="#fff"
         stop-opacity="0"
         offset="1"
         id="stop4" /></linearGradient><linearGradient
       inkscape:collect="always"
       xlink:href="#linearGradient12-2"
       id="linearGradient13"
       gradientUnits="userSpaceOnUse"
       gradientTransform="matrix(0.50557886,0,0,0.50557886,663.50282,638.70711)"
       x1="478.76"
       y1="145.78"
       x2="497.85"
       y2="145.67" /></defs><style
     id="style4">&#10;    #light-icon {&#10;      display: inline;&#10;    }&#10;    #dark-icon {&#10;      display: none;&#10;    }&#10;&#10;    @media (prefers-color-scheme: dark) {&#10;      #light-icon {&#10;        display: none;&#10;      }&#10;      #dark-icon {&#10;        display: inline;&#10;      }&#10;    }&#10;  </style><rect
     width="1723.0913"
     height="901.27893"
     fill="#030712"
     stroke-miterlimit="50"
     stroke-width="0"
     style="font-variation-settings:'wdth' 75, 'wght' 450"
     id="rect9"
     x="-105.23099"
     y="-26.742292" /><path
     d="m 275.09683,590.92712 h -8.30078 l 0.0651,-7.25911 h 8.23568 q 3.61328,0 5.69662,-1.30209 2.11588,-1.33463 2.99479,-4.13412 0.91146,-2.79948 0.91146,-7.22656 v -7.58464 q 0,-3.38542 -0.48828,-5.76172 -0.48828,-2.40886 -1.59505,-3.90625 -1.10678,-1.4974 -2.89714,-2.21355 -1.79037,-0.71614 -4.42709,-0.71614 h -8.65886 v -7.29167 h 8.65886 q 4.10157,0 7.42188,1.33463 3.32032,1.30209 5.69662,3.84115 2.40886,2.53906 3.67839,6.28255 1.26953,3.71094 1.26953,8.4961 v 7.51954 q 0,4.78516 -1.26953,8.4961 -1.26953,3.71094 -3.67839,6.25 -2.3763,2.53906 -5.76172,3.8737 -3.35287,1.30208 -7.55209,1.30208 z m -3.28776,-47.39585 v 47.39585 h -8.72396 v -47.39585 z m 27.40887,31.08725 v -2.57161 q 0,-4.13412 1.00911,-7.29167 1.00912,-3.19011 2.86459,-5.33855 1.85547,-2.14844 4.42708,-3.25521 2.60417,-1.10677 5.76173,-1.10677 3.22265,0 5.79427,1.10677 2.60417,1.10677 4.45964,3.25521 1.88802,2.14844 2.86458,5.33855 1.00912,3.15755 1.00912,7.29167 v 2.57161 q 0,4.13412 -1.00912,7.29167 -0.97656,3.15756 -2.86458,5.33855 -1.85547,2.14844 -4.45964,3.25521 -2.57162,1.07422 -5.72917,1.07422 -3.15755,0 -5.76172,-1.07422 -2.57162,-1.10677 -4.45964,-3.25521 -1.88802,-2.18099 -2.89714,-5.33855 -1.00911,-3.15755 -1.00911,-7.29167 z m 8.36589,-2.57161 v 2.57161 q 0,2.57162 0.39062,4.45964 0.39063,1.85547 1.13933,3.09245 0.78125,1.23698 1.82291,1.85547 1.07422,0.58594 2.40886,0.58594 1.43229,0 2.50651,-0.58594 1.07422,-0.61849 1.79037,-1.85547 0.71614,-1.23698 1.07422,-3.09245 0.35807,-1.88802 0.35807,-4.45964 v -2.57161 q 0,-2.50652 -0.42318,-4.39454 -0.39062,-1.88802 -1.13932,-3.125 -0.7487,-1.23698 -1.82292,-1.85547 -1.07422,-0.65104 -2.40885,-0.65104 -1.30209,0 -2.34376,0.65104 -1.04166,0.61849 -1.82291,1.85547 -0.7487,1.23698 -1.13933,3.125 -0.39062,1.88802 -0.39062,4.39454 z m 34.76564,-31.11981 v 50.00002 h -8.36589 V 540.9271 Z m 16.43881,0 v 50.00002 h -8.36589 V 540.9271 Z m 23.56772,42.38283 v -16.92709 q 0,-1.72526 -0.45573,-2.73438 -0.42318,-1.00911 -1.26953,-1.46484 -0.84636,-0.48828 -2.08334,-0.48828 -1.33463,0 -2.24609,0.55338 -0.91146,0.52084 -1.36719,1.52995 -0.42318,0.97657 -0.42318,2.3112 h -8.36589 q 0,-2.21354 0.87891,-4.19922 0.87891,-1.98568 2.53906,-3.51563 1.66016,-1.5625 4.00391,-2.4414 2.34375,-0.87891 5.24089,-0.87891 3.45052,0 6.11979,1.17187 2.70183,1.13933 4.23178,3.67839 1.5625,2.50651 1.5625,6.57553 v 16.08073 q 0,2.70183 0.29297,4.58985 0.32552,1.88802 0.94401,3.22266 v 0.55338 h -8.46355 q -0.55338,-1.36718 -0.84635,-3.45052 -0.29297,-2.11589 -0.29297,-4.16667 z m 1.07422,-13.86719 0.0325,5.20833 h -3.51563 q -1.46484,0 -2.60417,0.42318 -1.10677,0.42318 -1.88802,1.20443 -0.78125,0.78125 -1.17187,1.85547 -0.39063,1.07422 -0.39063,2.34375 0,1.46484 0.42318,2.44141 0.42318,0.94401 1.23698,1.43229 0.8138,0.45573 1.98568,0.45573 1.66015,0 2.86458,-0.71615 1.23698,-0.71614 1.85547,-1.69271 0.65104,-1.00911 0.48828,-1.88802 l 1.88803,3.38542 q -0.32553,1.20443 -1.00912,2.53906 -0.68359,1.33464 -1.75781,2.50652 -1.04167,1.17187 -2.57162,1.92057 -1.4974,0.71615 -3.54818,0.71615 -2.89714,0 -5.24089,-1.26954 -2.3112,-1.26953 -3.64583,-3.58073 -1.33464,-2.34375 -1.33464,-5.59896 0,-2.66927 0.87891,-4.81771 0.87891,-2.14844 2.57161,-3.67839 1.72527,-1.52995 4.36199,-2.34375 2.63672,-0.84635 6.1849,-0.84635 z m 22.88412,-6.41277 v 27.89715 H 397.981 v -35.22137 h 7.91017 z m 8.39844,-7.58464 -0.0651,8.30079 q -0.65104,-0.13021 -1.46484,-0.19531 -0.78125,-0.0651 -1.46485,-0.0651 -1.52995,0 -2.63672,0.52084 -1.10677,0.52083 -1.85547,1.49739 -0.7487,0.97657 -1.13932,2.40886 -0.39063,1.39974 -0.48828,3.1901 l -1.69271,-0.29296 q 0,-3.38542 0.52083,-6.25001 0.55339,-2.86458 1.59505,-4.98047 1.07422,-2.14844 2.63672,-3.32031 1.5625,-1.20443 3.58073,-1.20443 0.61849,0 1.33464,0.13021 0.7487,0.0976 1.13932,0.26041 z m 36.19795,27.8646 v -16.92709 q 0,-1.72526 -0.45573,-2.73438 -0.42318,-1.00911 -1.26953,-1.46484 -0.84635,-0.48828 -2.08333,-0.48828 -1.33464,0 -2.2461,0.55338 -0.91146,0.52084 -1.36719,1.52995 -0.42318,0.97657 -0.42318,2.3112 h -8.36588 q 0,-2.21354 0.8789,-4.19922 0.87891,-1.98568 2.53907,-3.51563 1.66015,-1.5625 4.0039,-2.4414 2.34376,-0.87891 5.24089,-0.87891 3.45052,0 6.1198,1.17187 2.70182,1.13933 4.23177,3.67839 1.5625,2.50651 1.5625,6.57553 v 16.08073 q 0,2.70183 0.29297,4.58985 0.32552,1.88802 0.94401,3.22266 v 0.55338 h -8.46355 q -0.55338,-1.36718 -0.84635,-3.45052 -0.29297,-2.11589 -0.29297,-4.16667 z m 1.07422,-13.86719 0.0325,5.20833 h -3.51562 q -1.46485,0 -2.60417,0.42318 -1.10677,0.42318 -1.88802,1.20443 -0.78125,0.78125 -1.17188,1.85547 -0.39062,1.07422 -0.39062,2.34375 0,1.46484 0.42317,2.44141 0.42318,0.94401 1.23698,1.43229 0.8138,0.45573 1.98568,0.45573 1.66016,0 2.86459,-0.71615 1.23698,-0.71614 1.85546,-1.69271 0.65105,-1.00911 0.48829,-1.88802 l 1.88802,3.38542 q -0.32552,1.20443 -1.00912,2.53906 -0.68359,1.33464 -1.75781,2.50652 -1.04167,1.17187 -2.57162,1.92057 -1.49739,0.71615 -3.54818,0.71615 -2.89713,0 -5.24088,-1.26954 -2.3112,-1.26953 -3.64584,-3.58073 -1.33463,-2.34375 -1.33463,-5.59896 0,-2.66927 0.8789,-4.81771 0.87891,-2.14844 2.57162,-3.67839 1.72526,-1.52995 4.36198,-2.34375 2.63672,-0.84635 6.1849,-0.84635 z m 22.75392,-6.21745 v 27.70183 h -8.36589 v -35.22137 h 7.8125 z m -1.36719,8.85417 -2.40886,0.0326 q -0.0651,-3.8737 0.7487,-6.9987 0.84636,-3.15756 2.40886,-5.40365 1.5625,-2.2461 3.74349,-3.45052 2.18099,-1.20443 4.88281,-1.20443 2.08334,0 3.77605,0.71615 1.72526,0.71614 2.96224,2.27864 1.23698,1.5625 1.92057,4.10157 0.6836,2.53906 0.6836,6.21745 v 22.5586 h -8.36589 v -22.62371 q 0,-2.3763 -0.52084,-3.71094 -0.48828,-1.36718 -1.46484,-1.92057 -0.94401,-0.58594 -2.44141,-0.58594 -1.39974,0 -2.50651,0.78125 -1.10677,0.7487 -1.88802,2.14844 -0.7487,1.36719 -1.13933,3.19011 -0.39062,1.79036 -0.39062,3.8737 z m 43.22919,11.29558 V 540.9271 h 8.33334 v 50.00002 l -7.55209,0.0326 z m -18.6198,-8.72397 v -2.53906 q 0,-4.32943 0.7487,-7.51954 0.78125,-3.22265 2.24609,-5.33854 1.4974,-2.11589 3.64584,-3.15755 2.14844,-1.04167 4.88281,-1.04167 2.57162,0 4.49219,1.23698 1.92058,1.20443 3.22266,3.41797 1.33464,2.21354 2.14844,5.27344 0.8138,3.02735 1.13932,6.67318 v 3.64584 q -0.39062,3.48307 -1.20442,6.47786 -0.78125,2.9948 -2.11589,5.17579 -1.33464,2.18099 -3.25521,3.41797 -1.88802,1.20443 -4.45964,1.20443 -2.73437,0 -4.88281,-1.07422 -2.11589,-1.10677 -3.61329,-3.22266 -1.46484,-2.14844 -2.24609,-5.30599 -0.7487,-3.19011 -0.7487,-7.32423 z m 8.36589,-2.53906 v 2.53906 q 0,2.57162 0.29297,4.45964 0.29297,1.85547 0.91146,3.0599 0.65104,1.17187 1.69271,1.75781 1.07422,0.55339 2.60417,0.55339 1.95312,0 3.15755,-0.97656 1.23698,-0.97657 1.88802,-2.66928 0.65104,-1.72526 0.84636,-3.90625 v -6.86849 q -0.0977,-1.75782 -0.52084,-3.22266 -0.42318,-1.46485 -1.13932,-2.50651 -0.71615,-1.07422 -1.75782,-1.66016 -1.04166,-0.58594 -2.4414,-0.58594 -1.52995,0 -2.60417,0.61849 -1.04167,0.58594 -1.69271,1.79037 -0.61849,1.20443 -0.94401,3.125 -0.29297,1.88802 -0.29297,4.49219 z m 62.01175,6.47787 q 0,-1.39974 -0.29297,-2.47396 -0.26042,-1.10677 -1.04167,-2.01823 -0.78125,-0.91146 -2.24609,-1.79037 -1.46485,-0.91146 -3.77605,-1.85547 -2.73437,-1.10677 -5.17578,-2.34375 -2.44141,-1.26953 -4.36198,-2.92969 -1.92058,-1.66015 -3.02735,-3.90625 -1.07422,-2.24609 -1.07422,-5.24089 0,-2.92969 1.04167,-5.33854 1.07422,-2.44141 3.02734,-4.16667 1.95313,-1.75781 4.6224,-2.70183 2.70183,-0.94401 5.95704,-0.94401 4.58984,0 7.87761,1.92058 3.28776,1.92057 5.07812,5.20833 1.79037,3.28777 1.79037,7.42188 h -8.69141 q 0,-2.14844 -0.65104,-3.80859 -0.61849,-1.69271 -1.98568,-2.63672 -1.36719,-0.94401 -3.51563,-0.94401 -2.01823,0 -3.32031,0.8138 -1.30209,0.78125 -1.92058,2.14844 -0.61849,1.33463 -0.61849,3.05989 0,1.23698 0.55339,2.2461 0.58594,0.97656 1.59505,1.79036 1.00912,0.81381 2.44141,1.56251 1.46484,0.71614 3.25521,1.39974 3.28776,1.23698 5.76172,2.73437 2.47396,1.46485 4.10157,3.32032 1.66015,1.82291 2.47395,4.13411 0.81381,2.3112 0.81381,5.27344 0,2.92969 -1.00912,5.33855 -1.00911,2.40885 -2.92969,4.13411 -1.92057,1.72527 -4.65495,2.66928 -2.70182,0.91146 -6.02214,0.91146 -3.1901,0 -6.08724,-0.91146 -2.86458,-0.94401 -5.07813,-2.83204 -2.21354,-1.88802 -3.48307,-4.7526 -1.26953,-2.89714 -1.26953,-6.80339 h 8.69141 q 0,2.18099 0.48828,3.77604 0.48828,1.5625 1.46484,2.53907 0.97657,0.94401 2.34376,1.39974 1.36718,0.42317 3.09244,0.42317 2.05079,0 3.32032,-0.74869 1.26953,-0.7487 1.85547,-2.05079 0.58594,-1.33463 0.58594,-3.02734 z m 28.71096,12.98829 q -3.51563,0 -6.25,-1.07422 -2.70183,-1.07422 -4.58985,-3.125 -1.88802,-2.05079 -2.89714,-5.04558 -0.97656,-2.99479 -0.97656,-6.86849 v -3.15756 q 0,-4.39453 1.00912,-7.61719 1.00911,-3.25521 2.79948,-5.3711 1.82291,-2.14843 4.36198,-3.1901 2.57161,-1.07422 5.66406,-1.07422 3.32032,0 5.79428,1.10677 2.50651,1.07422 4.13411,3.22266 1.62761,2.14844 2.40886,5.33854 0.8138,3.15756 0.8138,7.32423 v 4.0039 h -23.2422 v -6.08724 h 15.03907 v -0.8138 q -0.0651,-2.27865 -0.55338,-3.8737 -0.48828,-1.59505 -1.5625,-2.40886 -1.04167,-0.84635 -2.86459,-0.84635 -1.43229,0 -2.47396,0.58594 -1.04166,0.55338 -1.69271,1.75781 -0.61849,1.17188 -0.94401,3.15755 -0.32552,1.95313 -0.32552,4.78516 v 3.15756 q 0,2.50651 0.45573,4.26432 0.45573,1.72526 1.33464,2.83203 0.8789,1.07422 2.14844,1.5625 1.26953,0.48829 2.96224,0.48829 2.53906,0 4.45963,-0.91146 1.92058,-0.94401 3.32032,-2.50651 l 3.48307,5.11068 q -0.94401,1.26953 -2.57161,2.50651 -1.62761,1.20443 -3.93881,1.98568 -2.27864,0.78125 -5.30599,0.78125 z m 26.17188,-28.35288 v 27.70183 h -8.36589 v -35.22137 h 7.81251 z m -1.36719,8.85417 -2.40885,0.0326 q -0.0651,-3.8737 0.7487,-6.9987 0.84635,-3.15756 2.40885,-5.40365 1.5625,-2.2461 3.74349,-3.45052 2.181,-1.20443 4.88282,-1.20443 2.08333,0 3.77604,0.71615 1.72526,0.71614 2.96224,2.27864 1.23698,1.5625 1.92058,4.10157 0.68359,2.53906 0.68359,6.21745 v 22.5586 h -8.36589 v -22.62371 q 0,-2.3763 -0.52083,-3.71094 -0.48828,-1.36718 -1.46485,-1.92057 -0.94401,-0.58594 -2.4414,-0.58594 -1.39974,0 -2.50651,0.78125 -1.10678,0.7487 -1.88803,2.14844 -0.74869,1.36719 -1.13932,3.19011 -0.39063,1.79036 -0.39063,3.8737 z m 41.7969,9.44011 q 0,-1.00912 -0.65104,-1.79037 -0.61849,-0.78125 -1.98568,-1.59505 -1.36718,-0.8138 -3.61328,-1.75781 -2.44141,-0.97657 -4.32943,-1.98568 -1.85547,-1.04167 -3.15755,-2.27865 -1.30209,-1.26953 -1.95313,-2.86459 -0.65104,-1.6276 -0.65104,-3.74349 0,-2.18099 0.8138,-4.06901 0.81381,-1.88802 2.34375,-3.32031 1.5625,-1.4323 3.77605,-2.2461 2.21354,-0.8138 4.98047,-0.8138 3.8737,0 6.64063,1.39974 2.79948,1.36719 4.26432,3.84115 1.4974,2.47396 1.4974,5.69661 h -8.33334 q 0,-1.23697 -0.42318,-2.24609 -0.42317,-1.00912 -1.33463,-1.59505 -0.91146,-0.61849 -2.34375,-0.61849 -1.20443,0 -2.08334,0.48828 -0.84635,0.48828 -1.30208,1.30208 -0.45573,0.78125 -0.45573,1.79037 0,0.78125 0.29297,1.36719 0.32552,0.58593 1.00911,1.13932 0.6836,0.52083 1.82292,1.10677 1.17188,0.55339 2.89714,1.30209 3.51562,1.33463 5.82682,2.83203 2.3112,1.46484 3.45053,3.45052 1.13932,1.95313 1.13932,4.88282 0,2.3112 -0.87891,4.23177 -0.8789,1.92057 -2.53906,3.32031 -1.62761,1.36719 -3.9388,2.11589 -2.3112,0.71615 -5.17579,0.71615 -4.19922,0 -7.09636,-1.66016 -2.86458,-1.66016 -4.36198,-4.29688 -1.46484,-2.63672 -1.46484,-5.5013 h 8.00781 q 0.0651,1.88802 0.7487,2.99479 0.71615,1.07422 1.85547,1.4974 1.13933,0.42317 2.44141,0.42317 1.43229,0 2.3763,-0.39062 0.94401,-0.42318 1.39974,-1.20443 0.48828,-0.8138 0.48828,-1.92057 z m 28.15757,10.0586 q -3.51563,0 -6.25001,-1.07422 -2.70182,-1.07422 -4.58984,-3.125 -1.88803,-2.05079 -2.89714,-5.04558 -0.97656,-2.99479 -0.97656,-6.86849 v -3.15756 q 0,-4.39453 1.00911,-7.61719 1.00912,-3.25521 2.79948,-5.3711 1.82292,-2.14843 4.36198,-3.1901 2.57162,-1.07422 5.66407,-1.07422 3.32031,0 5.79427,1.10677 2.50651,1.07422 4.13412,3.22266 1.62761,2.14844 2.40886,5.33854 0.8138,3.15756 0.8138,7.32423 v 4.0039 h -23.2422 v -6.08724 h 15.03907 v -0.8138 q -0.0651,-2.27865 -0.55339,-3.8737 -0.48828,-1.59505 -1.5625,-2.40886 -1.04167,-0.84635 -2.86458,-0.84635 -1.4323,0 -2.47396,0.58594 -1.04167,0.55338 -1.69271,1.75781 -0.61849,1.17188 -0.94401,3.15755 -0.32552,1.95313 -0.32552,4.78516 v 3.15756 q 0,2.50651 0.45573,4.26432 0.45573,1.72526 1.33463,2.83203 0.87891,1.07422 2.14844,1.5625 1.26953,0.48829 2.96224,0.48829 2.53907,0 4.45964,-0.91146 1.92057,-0.94401 3.32031,-2.50651 l 3.48308,5.11068 q -0.94401,1.26953 -2.57162,2.50651 -1.6276,1.20443 -3.9388,1.98568 -2.27865,0.78125 -5.30599,0.78125 z m 18.61979,-4.94792 q 0,-2.05079 1.30208,-3.38542 1.33464,-1.36719 3.64584,-1.36719 2.3112,0 3.61328,1.36719 1.33464,1.33463 1.33464,3.38542 0,1.98567 -1.33464,3.32031 -1.30208,1.33464 -3.61328,1.33464 -2.3112,0 -3.64584,-1.33464 -1.30208,-1.33464 -1.30208,-3.32031 z m -0.0326,-27.14846 q 0,-2.05078 1.30208,-3.38541 1.33464,-1.36719 3.64584,-1.36719 2.3112,0 3.61328,1.36719 1.33464,1.33463 1.33464,3.38541 0,1.98568 -1.33464,3.32032 -1.30208,1.33464 -3.61328,1.33464 -2.3112,0 -3.64584,-1.33464 -1.30208,-1.33464 -1.30208,-3.32032 z m 49.12215,-15.95052 v 47.39585 h -8.65886 v -47.39585 z m 11.94662,0 v 7.29167 h -32.35679 v -7.29167 z m 13.5091,-2.60417 v 50.00002 h -8.36589 V 540.9271 Z m -1.33463,31.15236 -2.44141,0.0326 q -0.0326,-3.67839 0.7487,-6.80339 0.8138,-3.125 2.3112,-5.40365 1.49739,-2.3112 3.61328,-3.58073 2.14844,-1.26953 4.75261,-1.26953 2.14844,0 3.9388,0.7487 1.79037,0.71614 3.09245,2.3112 1.30208,1.59505 1.98568,4.16667 0.71615,2.53906 0.71615,6.21745 v 22.42839 h -8.36589 v -22.4935 q 0,-2.3763 -0.48829,-3.77604 -0.48828,-1.39974 -1.49739,-1.98568 -0.97657,-0.58594 -2.44141,-0.58594 -1.52995,0 -2.66927,0.78125 -1.10677,0.7487 -1.85547,2.14844 -0.71615,1.36719 -1.07422,3.19011 -0.32552,1.79036 -0.32552,3.8737 z m 39.64846,19.49871 q -3.51563,0 -6.25,-1.07422 -2.70183,-1.07422 -4.58985,-3.125 -1.88802,-2.05079 -2.89714,-5.04558 -0.97656,-2.99479 -0.97656,-6.86849 v -3.15756 q 0,-4.39453 1.00911,-7.61719 1.00912,-3.25521 2.79949,-5.3711 1.82291,-2.14843 4.36198,-3.1901 2.57161,-1.07422 5.66406,-1.07422 3.32032,0 5.79428,1.10677 2.50651,1.07422 4.13411,3.22266 1.62761,2.14844 2.40886,5.33854 0.8138,3.15756 0.8138,7.32423 v 4.0039 h -23.2422 v -6.08724 h 15.03907 v -0.8138 q -0.0651,-2.27865 -0.55338,-3.8737 -0.48829,-1.59505 -1.56251,-2.40886 -1.04166,-0.84635 -2.86458,-0.84635 -1.43229,0 -2.47396,0.58594 -1.04167,0.55338 -1.69271,1.75781 -0.61849,1.17188 -0.94401,3.15755 -0.32552,1.95313 -0.32552,4.78516 v 3.15756 q 0,2.50651 0.45573,4.26432 0.45573,1.72526 1.33463,2.83203 0.87891,1.07422 2.14844,1.5625 1.26954,0.48829 2.96224,0.48829 2.53907,0 4.45964,-0.91146 1.92058,-0.94401 3.32032,-2.50651 l 3.48307,5.11068 q -0.94401,1.26953 -2.57161,2.50651 -1.62761,1.20443 -3.93881,1.98568 -2.27865,0.78125 -5.30599,0.78125 z m 42.57814,-48.0469 v 47.39585 h -8.72396 v -47.39585 z m 15.10418,20.41016 v 7.25912 h -17.22006 v -7.25912 z m 2.01823,-20.41016 v 7.29167 h -19.23829 v -7.29167 z m 14.22527,12.17448 v 35.22137 h -8.36589 v -35.22137 z m -8.78907,-9.17969 q 0,-1.98568 1.23698,-3.25521 1.23698,-1.30209 3.38542,-1.30209 2.14844,0 3.35287,1.30209 1.20442,1.26953 1.20442,3.25521 0,1.95312 -1.20442,3.25521 -1.20443,1.26953 -3.35287,1.26953 -2.14844,0 -3.38542,-1.26953 -1.23698,-1.30209 -1.23698,-3.25521 z m 24.64197,16.69923 v 27.70183 h -8.36589 v -35.22137 h 7.81251 z m -1.36719,8.85417 -2.40885,0.0326 q -0.0651,-3.8737 0.7487,-6.9987 0.84635,-3.15756 2.40885,-5.40365 1.5625,-2.2461 3.74349,-3.45052 2.181,-1.20443 4.88282,-1.20443 2.08333,0 3.77604,0.71615 1.72526,0.71614 2.96224,2.27864 1.23698,1.5625 1.92058,4.10157 0.68359,2.53906 0.68359,6.21745 v 22.5586 h -8.36589 v -22.62371 q 0,-2.3763 -0.52083,-3.71094 -0.48828,-1.36718 -1.46485,-1.92057 -0.94401,-0.58594 -2.4414,-0.58594 -1.39974,0 -2.50651,0.78125 -1.10678,0.7487 -1.88803,2.14844 -0.74869,1.36719 -1.13932,3.19011 -0.39063,1.79036 -0.39063,3.8737 z m 41.76435,11.23047 v -16.92709 q 0,-1.72526 -0.45573,-2.73438 -0.42317,-1.00911 -1.26953,-1.46484 -0.84635,-0.48828 -2.08333,-0.48828 -1.33464,0 -2.2461,0.55338 -0.91146,0.52084 -1.36719,1.52995 -0.42317,0.97657 -0.42317,2.3112 h -8.36589 q 0,-2.21354 0.8789,-4.19922 0.87891,-1.98568 2.53907,-3.51563 1.66015,-1.5625 4.00391,-2.4414 2.34375,-0.87891 5.24088,-0.87891 3.45053,0 6.1198,1.17187 2.70182,1.13933 4.23177,3.67839 1.5625,2.50651 1.5625,6.57553 v 16.08073 q 0,2.70183 0.29297,4.58985 0.32552,1.88802 0.94401,3.22266 v 0.55338 h -8.46354 q -0.55339,-1.36718 -0.84636,-3.45052 -0.29297,-2.11589 -0.29297,-4.16667 z m 1.07422,-13.86719 0.0326,5.20833 h -3.51562 q -1.46485,0 -2.60417,0.42318 -1.10677,0.42318 -1.88802,1.20443 -0.78125,0.78125 -1.17188,1.85547 -0.39062,1.07422 -0.39062,2.34375 0,1.46484 0.42317,2.44141 0.42318,0.94401 1.23698,1.43229 0.81381,0.45573 1.98568,0.45573 1.66016,0 2.86459,-0.71615 1.23698,-0.71614 1.85547,-1.69271 0.65104,-1.00911 0.48828,-1.88802 l 1.88802,3.38542 q -0.32552,1.20443 -1.00912,2.53906 -0.68359,1.33464 -1.75781,2.50652 -1.04167,1.17187 -2.57161,1.92057 -1.4974,0.71615 -3.54818,0.71615 -2.89714,0 -5.24089,-1.26954 -2.3112,-1.26953 -3.64584,-3.58073 -1.33463,-2.34375 -1.33463,-5.59896 0,-2.66927 0.8789,-4.81771 0.87891,-2.14844 2.57162,-3.67839 1.72526,-1.52995 4.36198,-2.34375 2.63672,-0.84635 6.1849,-0.84635 z m 22.7539,-6.21745 v 27.70183 h -8.36589 v -35.22137 h 7.81251 z m -1.36718,8.85417 -2.40886,0.0326 q -0.0651,-3.8737 0.7487,-6.9987 0.84635,-3.15756 2.40885,-5.40365 1.5625,-2.2461 3.7435,-3.45052 2.18099,-1.20443 4.88281,-1.20443 2.08334,0 3.77604,0.71615 1.72527,0.71614 2.96225,2.27864 1.23698,1.5625 1.92057,4.10157 0.68359,2.53906 0.68359,6.21745 v 22.5586 h -8.36589 v -22.62371 q 0,-2.3763 -0.52083,-3.71094 -0.48828,-1.36718 -1.46484,-1.92057 -0.94402,-0.58594 -2.44141,-0.58594 -1.39974,0 -2.50651,0.78125 -1.10678,0.7487 -1.88803,2.14844 -0.74869,1.36719 -1.13932,3.19011 -0.39062,1.79036 -0.39062,3.8737 z m 38.44401,12.53256 q 1.3672,0 2.4089,-0.55339 1.0416,-0.58594 1.6276,-1.82292 0.5859,-1.23698 0.6185,-3.22265 h 7.8776 q -0.033,3.84114 -1.7253,6.67318 -1.6601,2.83203 -4.4596,4.36198 -2.7669,1.52995 -6.2175,1.52995 -3.5156,0 -6.1523,-1.10678 -2.6042,-1.13932 -4.2969,-3.28776 -1.6927,-2.18099 -2.5391,-5.30599 -0.8463,-3.125 -0.8463,-7.12891 v -2.86458 q 0,-4.00391 0.8463,-7.12891 0.8464,-3.12501 2.5391,-5.27345 1.6927,-2.18099 4.2969,-3.28776 2.6041,-1.13932 6.1198,-1.13932 3.7435,0 6.5104,1.5625 2.7669,1.5625 4.3294,4.58985 1.5625,2.99479 1.5951,7.38932 h -7.8776 q -0.033,-2.14844 -0.5534,-3.58073 -0.5208,-1.46484 -1.5625,-2.21354 -1.0091,-0.78125 -2.5716,-0.78125 -1.6927,0 -2.767,0.68359 -1.0416,0.65104 -1.595,1.92058 -0.5534,1.26953 -0.7813,3.09245 -0.1953,1.82291 -0.1953,4.16667 v 2.86458 q 0,2.40886 0.1953,4.26433 0.1953,1.82291 0.7487,3.09244 0.5534,1.23698 1.5951,1.88803 1.0742,0.61849 2.832,0.61849 z m 26.888,-28.90627 v 35.22137 h -8.3659 v -35.22137 z m -8.789,-9.17969 q 0,-1.98568 1.2369,-3.25521 1.237,-1.30209 3.3854,-1.30209 2.1485,0 3.3529,1.30209 1.2044,1.26953 1.2044,3.25521 0,1.95312 -1.2044,3.25521 -1.2044,1.26953 -3.3529,1.26953 -2.1484,0 -3.3854,-1.26953 -1.2369,-1.30209 -1.2369,-3.25521 z m 32.3568,36.78387 v -16.92709 q 0,-1.72526 -0.4558,-2.73438 -0.4231,-1.00911 -1.2695,-1.46484 -0.8463,-0.48828 -2.0833,-0.48828 -1.3347,0 -2.2461,0.55338 -0.9115,0.52084 -1.3672,1.52995 -0.4232,0.97657 -0.4232,2.3112 h -8.3659 q 0,-2.21354 0.8789,-4.19922 0.8789,-1.98568 2.5391,-3.51563 1.6602,-1.5625 4.0039,-2.4414 2.3438,-0.87891 5.2409,-0.87891 3.4505,0 6.1198,1.17187 2.7018,1.13933 4.2318,3.67839 1.5625,2.50651 1.5625,6.57553 v 16.08073 q 0,2.70183 0.2929,4.58985 0.3256,1.88802 0.944,3.22266 v 0.55338 h -8.4635 q -0.5534,-1.36718 -0.8464,-3.45052 -0.2929,-2.11589 -0.2929,-4.16667 z m 1.0742,-13.86719 0.033,5.20833 h -3.5156 q -1.4648,0 -2.6042,0.42318 -1.1067,0.42318 -1.888,1.20443 -0.7812,0.78125 -1.1719,1.85547 -0.3906,1.07422 -0.3906,2.34375 0,1.46484 0.4232,2.44141 0.4232,0.94401 1.237,1.43229 0.8138,0.45573 1.9857,0.45573 1.6601,0 2.8645,-0.71615 1.237,-0.71614 1.8555,-1.69271 0.6511,-1.00911 0.4883,-1.88802 l 1.888,3.38542 q -0.3255,1.20443 -1.0091,2.53906 -0.6836,1.33464 -1.7578,2.50652 -1.0417,1.17187 -2.5716,1.92057 -1.4974,0.71615 -3.5482,0.71615 -2.8971,0 -5.2409,-1.26954 -2.3112,-1.26953 -3.6458,-3.58073 -1.3347,-2.34375 -1.3347,-5.59896 0,-2.66927 0.8789,-4.81771 0.8789,-2.14844 2.5717,-3.67839 1.7252,-1.52995 4.3619,-2.34375 2.6368,-0.84635 6.1849,-0.84635 z m 23.3398,-28.51564 v 50.00002 h -8.3659 V 540.9271 Z m 32.2592,2.60417 v 47.39585 h -8.724 v -47.39585 z m 15.1041,20.41016 v 7.25912 h -17.22 v -7.25912 z m 2.0183,-20.41016 v 7.29167 h -19.2383 v -7.29167 z m 3.6458,31.08725 v -2.57161 q 0,-4.13412 1.0091,-7.29167 1.0091,-3.19011 2.8646,-5.33855 1.8555,-2.14844 4.4271,-3.25521 2.6042,-1.10677 5.7617,-1.10677 3.2227,0 5.7943,1.10677 2.6042,1.10677 4.4596,3.25521 1.888,2.14844 2.8646,5.33855 1.0091,3.15755 1.0091,7.29167 v 2.57161 q 0,4.13412 -1.0091,7.29167 -0.9766,3.15756 -2.8646,5.33855 -1.8554,2.14844 -4.4596,3.25521 -2.5716,1.07422 -5.7292,1.07422 -3.1575,0 -5.7617,-1.07422 -2.5716,-1.10677 -4.4596,-3.25521 -1.8881,-2.18099 -2.8972,-5.33855 -1.0091,-3.15755 -1.0091,-7.29167 z m 8.3659,-2.57161 v 2.57161 q 0,2.57162 0.3906,4.45964 0.3906,1.85547 1.1393,3.09245 0.7813,1.23698 1.823,1.85547 1.0742,0.58594 2.4088,0.58594 1.4323,0 2.5065,-0.58594 1.0743,-0.61849 1.7904,-1.85547 0.7161,-1.23698 1.0742,-3.09245 0.3581,-1.88802 0.3581,-4.45964 v -2.57161 q 0,-2.50652 -0.4232,-4.39454 -0.3906,-1.88802 -1.1393,-3.125 -0.7487,-1.23698 -1.8229,-1.85547 -1.0742,-0.65104 -2.4089,-0.65104 -1.3021,0 -2.3437,0.65104 -1.0417,0.61849 -1.823,1.85547 -0.7487,1.23698 -1.1393,3.125 -0.3906,1.88802 -0.3906,4.39454 z m 34.3099,-9.01694 v 27.89715 h -8.3333 v -35.22137 h 7.9102 z m 8.3985,-7.58464 -0.065,8.30079 q -0.6511,-0.13021 -1.4649,-0.19531 -0.7812,-0.0651 -1.4648,-0.0651 -1.53,0 -2.6367,0.52084 -1.1068,0.52083 -1.8555,1.49739 -0.7487,0.97657 -1.1393,2.40886 -0.3907,1.39974 -0.4883,3.1901 l -1.6927,-0.29296 q 0,-3.38542 0.5208,-6.25001 0.5534,-2.86458 1.5951,-4.98047 1.0742,-2.14844 2.6367,-3.32031 1.5625,-1.20443 3.5807,-1.20443 0.6185,0 1.3347,0.13021 0.7487,0.0976 1.1393,0.26041 z m 18.0989,36.13284 q -3.5156,0 -6.25,-1.07422 -2.7018,-1.07422 -4.5898,-3.125 -1.8881,-2.05079 -2.8972,-5.04558 -0.9765,-2.99479 -0.9765,-6.86849 v -3.15756 q 0,-4.39453 1.0091,-7.61719 1.0091,-3.25521 2.7995,-5.3711 1.8229,-2.14843 4.3619,-3.1901 2.5717,-1.07422 5.6641,-1.07422 3.3203,0 5.7943,1.10677 2.5065,1.07422 4.1341,3.22266 1.6276,2.14844 2.4089,5.33854 0.8138,3.15756 0.8138,7.32423 v 4.0039 h -23.2422 v -6.08724 h 15.039 v -0.8138 q -0.065,-2.27865 -0.5534,-3.8737 -0.4882,-1.59505 -1.5625,-2.40886 -1.0416,-0.84635 -2.8645,-0.84635 -1.4323,0 -2.474,0.58594 -1.0417,0.55338 -1.6927,1.75781 -0.6185,1.17188 -0.944,3.15755 -0.3255,1.95313 -0.3255,4.78516 v 3.15756 q 0,2.50651 0.4557,4.26432 0.4557,1.72526 1.3346,2.83203 0.8789,1.07422 2.1485,1.5625 1.2695,0.48829 2.9622,0.48829 2.5391,0 4.4596,-0.91146 1.9206,-0.94401 3.3204,-2.50651 l 3.483,5.11068 q -0.944,1.26953 -2.5716,2.50651 -1.6276,1.20443 -3.9388,1.98568 -2.2786,0.78125 -5.306,0.78125 z m 30.5665,-6.96615 q 1.3671,0 2.4088,-0.55339 1.0417,-0.58594 1.6276,-1.82292 0.586,-1.23698 0.6185,-3.22265 h 7.8776 q -0.033,3.84114 -1.7252,6.67318 -1.6602,2.83203 -4.4597,4.36198 -2.7669,1.52995 -6.2174,1.52995 -3.5157,0 -6.1524,-1.10678 -2.6041,-1.13932 -4.2969,-3.28776 -1.6927,-2.18099 -2.539,-5.30599 -0.8464,-3.125 -0.8464,-7.12891 v -2.86458 q 0,-4.00391 0.8464,-7.12891 0.8463,-3.12501 2.539,-5.27345 1.6928,-2.18099 4.2969,-3.28776 2.6042,-1.13932 6.1198,-1.13932 3.7435,0 6.5104,1.5625 2.767,1.5625 4.3295,4.58985 1.5625,2.99479 1.595,7.38932 h -7.8776 q -0.033,-2.14844 -0.5534,-3.58073 -0.5208,-1.46484 -1.5625,-2.21354 -1.0091,-0.78125 -2.5716,-0.78125 -1.6927,0 -2.7669,0.68359 -1.0417,0.65104 -1.5951,1.92058 -0.5534,1.26953 -0.7812,3.09245 -0.1953,1.82291 -0.1953,4.16667 v 2.86458 q 0,2.40886 0.1953,4.26433 0.1953,1.82291 0.7487,3.09244 0.5534,1.23698 1.595,1.88803 1.0742,0.61849 2.8321,0.61849 z m 34.0169,-1.30209 v -16.92709 q 0,-1.72526 -0.4558,-2.73438 -0.4231,-1.00911 -1.2695,-1.46484 -0.8463,-0.48828 -2.0833,-0.48828 -1.3347,0 -2.2461,0.55338 -0.9115,0.52084 -1.3672,1.52995 -0.4232,0.97657 -0.4232,2.3112 h -8.3659 q 0,-2.21354 0.8789,-4.19922 0.8789,-1.98568 2.5391,-3.51563 1.6602,-1.5625 4.0039,-2.4414 2.3438,-0.87891 5.2409,-0.87891 3.4505,0 6.1198,1.17187 2.7018,1.13933 4.2318,3.67839 1.5625,2.50651 1.5625,6.57553 v 16.08073 q 0,2.70183 0.2929,4.58985 0.3255,1.88802 0.944,3.22266 v 0.55338 h -8.4635 q -0.5534,-1.36718 -0.8464,-3.45052 -0.2929,-2.11589 -0.2929,-4.16667 z m 1.0742,-13.86719 0.033,5.20833 h -3.5156 q -1.4648,0 -2.6042,0.42318 -1.1067,0.42318 -1.888,1.20443 -0.7812,0.78125 -1.1719,1.85547 -0.3906,1.07422 -0.3906,2.34375 0,1.46484 0.4232,2.44141 0.4232,0.94401 1.237,1.43229 0.8138,0.45573 1.9857,0.45573 1.6601,0 2.8645,-0.71615 1.237,-0.71614 1.8555,-1.69271 0.6511,-1.00911 0.4883,-1.88802 l 1.888,3.38542 q -0.3255,1.20443 -1.0091,2.53906 -0.6836,1.33464 -1.7578,2.50652 -1.0417,1.17187 -2.5716,1.92057 -1.4974,0.71615 -3.5482,0.71615 -2.8971,0 -5.2409,-1.26954 -2.3112,-1.26953 -3.6458,-3.58073 -1.3347,-2.34375 -1.3347,-5.59896 0,-2.66927 0.8789,-4.81771 0.8789,-2.14844 2.5717,-3.67839 1.7252,-1.52995 4.3619,-2.34375 2.6368,-0.84635 6.1849,-0.84635 z m 30.5014,12.07683 q 0,-1.00912 -0.6511,-1.79037 -0.6185,-0.78125 -1.9857,-1.59505 -1.3672,-0.8138 -3.6133,-1.75781 -2.4414,-0.97657 -4.3294,-1.98568 -1.8555,-1.04167 -3.1575,-2.27865 -1.3021,-1.26953 -1.9532,-2.86459 -0.651,-1.6276 -0.651,-3.74349 0,-2.18099 0.8138,-4.06901 0.8138,-1.88802 2.3437,-3.32031 1.5626,-1.4323 3.7761,-2.2461 2.2135,-0.8138 4.9805,-0.8138 3.8737,0 6.6406,1.39974 2.7995,1.36719 4.2643,3.84115 1.4974,2.47396 1.4974,5.69661 h -8.3333 q 0,-1.23697 -0.4232,-2.24609 -0.4232,-1.00912 -1.3346,-1.59505 -0.9115,-0.61849 -2.3438,-0.61849 -1.2044,0 -2.0833,0.48828 -0.8464,0.48828 -1.3021,1.30208 -0.4557,0.78125 -0.4557,1.79037 0,0.78125 0.2929,1.36719 0.3256,0.58593 1.0091,1.13932 0.6836,0.52083 1.823,1.10677 1.1718,0.55339 2.8971,1.30209 3.5156,1.33463 5.8268,2.83203 2.3112,1.46484 3.4506,3.45052 1.1393,1.95313 1.1393,4.88282 0,2.3112 -0.8789,4.23177 -0.8789,1.92057 -2.5391,3.32031 -1.6276,1.36719 -3.9388,2.11589 -2.3112,0.71615 -5.1758,0.71615 -4.1992,0 -7.0963,-1.66016 -2.8646,-1.66016 -4.362,-4.29688 -1.4649,-2.63672 -1.4649,-5.5013 h 8.0078 q 0.065,1.88802 0.7487,2.99479 0.7162,1.07422 1.8555,1.4974 1.1393,0.42317 2.4414,0.42317 1.4323,0 2.3763,-0.39062 0.944,-0.42318 1.3998,-1.20443 0.4883,-0.8138 0.4883,-1.92057 z m 29.1341,-25.81382 v 6.34766 h -17.6107 v -6.34766 z m -13.1836,-8.65886 h 8.3008 v 33.59377 q 0,1.52995 0.3255,2.3763 0.3255,0.81381 0.944,1.10677 0.6511,0.29297 1.5625,0.29297 0.6836,0 1.3021,-0.0977 0.6185,-0.0977 0.9115,-0.19532 l -0.033,6.64063 q -0.944,0.35808 -2.0833,0.58594 -1.1393,0.22787 -2.7344,0.22787 -2.5391,0 -4.4596,-0.97657 -1.8881,-1.00911 -2.9623,-3.25521 -1.0742,-2.27864 -1.0742,-5.95703 z"
     id="text11"
     style="font-size:66.6667px;font-family:Roboto;-inkscape-font-specification:'Roboto, @wght=600,wdth=75.0';font-variation-settings:'wdth' 75, 'wght' 600;fill:#ffffff;stroke:#f5f5f5;stroke-width:0;stroke-linecap:round;stroke-linejoin:round;stroke-miterlimit:50"
     aria-label="Dollar and Sense: The Financial Forecast" /><path
     d="m 948.76804,435.74802 a 44.306732,44.306732 0 0 0 1.22908,-9.34191 V 215.01958 a 44.306732,44.306732 0 0 0 -1.34924,-10.74705 L 817.145,248.70549 815.64583,392.79594 Z"
     style="font-variation-settings:'wdth' 75, 'wght' 900;fill:#ffffff;stroke-width:0;stroke-miterlimit:50"
     id="path1" /><path
     d="M 916.23613,172.01277 A 44.306732,44.306732 0 0 0 905.69615,170.7093 H 694.30961 a 44.306732,44.306732 0 0 0 -44.30673,44.30673 v 211.38654 a 44.306732,44.306732 0 0 0 44.30673,44.30673 h 211.38654 a 44.306732,44.306732 0 0 0 5.22415,-0.68777 l -142.98538,-44.06756 -0.745,-203.51599 z"
     style="font-variation-settings:'wdth' 75, 'wght' 900;fill:#ffffff;stroke-width:0;stroke-miterlimit:50"
     id="path2" /><path
     d="m 916.52735,691.95983 -25.34316,8.57424 0.0879,23.99688 24.10412,7.4288 a 5.819691,5.819691 0 0 0 3.4344,-4.2688 l -21.91244,-7.07 0.1768,-16.98944 21.85332,-7.38416 a 5.8252398,5.8252398 0 0 0 -2.40048,-4.2876 z"
     fill="url(#linearGradient12-2)"
     stroke-miterlimit="50"
     stroke-width="0"
     style="font-variation-settings:'wdth' 75, 'wght' 450;fill:url(#linearGradient13)"
     id="path10-5" /><path
     d="m 628.08123,702.85975 v 18.2 h -2.375 v -18.2 z m 5.85,0 v 1.975 h -14.0625 v -1.975 z m 14.5875,7.825 v 1.9625 h -9.85 v -1.9625 z m -9.475,-7.825 v 18.2 h -2.4125 v -18.2 z m 11.575,0 v 18.2 h -2.4 v -18.2 z m 6.8625,0 v 18.2 h -2.4125 v -18.2 z m 4.375,0 h 6.025 q 2.05,0 3.4625,0.625 1.425,0.625 2.1625,1.85 0.75,1.2125 0.75,2.9875 0,1.25 -0.5125,2.2875 -0.5,1.025 -1.45,1.75 -0.9375,0.7125 -2.25,1.0625 l -0.675,0.2625 h -5.6625 l -0.025,-1.9625 h 4.275 q 1.3,0 2.1625,-0.45 0.8625,-0.4625 1.3,-1.2375 0.4375,-0.775 0.4375,-1.7125 0,-1.05 -0.4125,-1.8375 -0.4125,-0.7875 -1.3,-1.2125 -0.875,-0.4375 -2.2625,-0.4375 h -3.6125 v 16.225 h -2.41254 z m 10.6375,18.2 -4.425,-8.25 2.5125,-0.0125 4.4875,8.1125 v 0.15 z m 10.0625,0 h -3.8 l 0.025,-1.9625 h 3.775 q 1.95,0 3.25,-0.8125 1.3,-0.825 1.95,-2.3 0.6625,-1.4875 0.6625,-3.475 v -1.1125 q 0,-1.5625 -0.375,-2.775 -0.375,-1.225 -1.1,-2.0625 -0.725,-0.85 -1.775,-1.2875 -1.0375,-0.4375 -2.3875,-0.4375 h -4.1 v -1.975 h 4.1 q 1.7875,0 3.2625,0.6 1.475,0.5875 2.5375,1.7125 1.075,1.1125 1.65,2.7 0.575,1.575 0.575,3.55 v 1.0875 q 0,1.975 -0.575,3.5625 -0.575,1.575 -1.6625,2.6875 -1.075,1.1125 -2.6,1.7125 -1.51246,0.5875 -3.41246,0.5875 z m -2.5125,-18.2 v 18.2 h -2.4125 v -18.2 z m 20.875,9.6875 h -4.6125 l -0.025,-1.9375 h 4.1875 q 1.0375,0 1.8125,-0.35 0.775,-0.35 1.2,-1 0.4375,-0.6625 0.4375,-1.575 0,-1 -0.3875,-1.625 -0.375,-0.6375 -1.1625,-0.925 -0.775,-0.3 -1.975,-0.3 h -3.55 v 16.225 h -2.4125 v -18.2 h 5.9625 q 1.4,0 2.5,0.2875 1.1,0.275 1.8625,0.875 0.775,0.5875 1.175,1.5 0.4,0.9125 0.4,2.1875 0,1.125 -0.575,2.0375 -0.575,0.9 -1.6,1.475 -1.0125,0.575 -2.375,0.7375 z m -0.1125,8.5125 h -5.45 l 1.3625,-1.9625 h 4.0875 q 1.15,0 1.95,-0.4 0.8125,-0.4 1.2375,-1.125 0.425,-0.7375 0.425,-1.7375 0,-1.0125 -0.3625,-1.75 -0.3625,-0.7375 -1.1375,-1.1375 -0.775,-0.4 -2,-0.4 h -3.4375 l 0.025,-1.9375 h 4.7 l 0.5125,0.7 q 1.3125,0.1125 2.225,0.75 0.9125,0.625 1.3875,1.6 0.4875,0.975 0.4875,2.15 0,1.7 -0.75,2.875 -0.7375,1.1625 -2.0875,1.775 -1.35,0.6 -3.175,0.6 z m 9.575,-18.2 h 6.025 q 2.05,0 3.4625,0.625 1.425,0.625 2.1625,1.85 0.75,1.2125 0.75,2.9875 0,1.25 -0.5125,2.2875 -0.5,1.025 -1.45,1.75 -0.9375,0.7125 -2.25,1.0625 l -0.675,0.2625 h -5.6625 l -0.025,-1.9625 h 4.275 q 1.3,0 2.1625,-0.45 0.8625,-0.4625 1.3,-1.2375 0.4375,-0.775 0.4375,-1.7125 0,-1.05 -0.4125,-1.8375 -0.4125,-0.7875 -1.3,-1.2125 -0.875,-0.4375 -2.2625,-0.4375 h -3.6125 v 16.225 h -2.4125 z m 10.6375,18.2 -4.425,-8.25 2.5125,-0.0125 4.4875,8.1125 v 0.15 z m 11.875,-16.5875 -6.025,16.5875 h -2.4625 l 6.9375,-18.2 h 1.5875 z m 5.05,16.5875 -6.0375,-16.5875 -0.0375,-1.6125 h 1.58752 l 6.9625,18.2 z m -0.3125,-6.7375 v 1.975 h -10.225 v -1.975 z m 16.075,0.95 h 2.4 q -0.1875,1.725 -0.9875,3.0875 -0.8,1.3625 -2.2625,2.1625 -1.4625,0.7875 -3.65,0.7875 -1.6,0 -2.9125,-0.6 -1.3,-0.6 -2.2375,-1.7 -0.9375,-1.1125 -1.45,-2.6625 -0.5,-1.5625 -0.5,-3.475 v -1.8125 q 0,-1.9125 0.5,-3.4625 0.5125,-1.5625 1.4625,-2.675 0.9625,-1.1125 2.3125,-1.7125 1.35,-0.6 3.0375,-0.6 2.0625,0 3.4875,0.775 1.425,0.775 2.2125,2.15 0.8,1.3625 0.9875,3.1625 h -2.4 q -0.175,-1.275 -0.65,-2.1875 -0.475,-0.925 -1.35,-1.425 -0.875,-0.5 -2.2875,-0.5 -1.2125,0 -2.1375,0.4625 -0.9125,0.4625 -1.5375,1.3125 -0.6125,0.85 -0.925,2.0375 -0.3125,1.1875 -0.3125,2.6375 v 1.8375 q 0,1.3375 0.275,2.5125 0.2875,1.175 0.8625,2.0625 0.575,0.8875 1.4625,1.4 0.8875,0.5 2.1,0.5 1.5375,0 2.45,-0.4875 0.9125,-0.4875 1.375,-1.4 0.475,-0.9125 0.675,-2.1875 z m 8.0875,-12.4125 v 18.2 h -2.4125 v -18.2 z m 10.9875,0 -7.5625,8.4875 -4.25,4.4125 -0.4,-2.575 3.2,-3.525 6.1125,-6.8 z m -2.325,18.2 -6.7375,-8.875 1.4375,-1.9125 8.175,10.7875 z m 16.55,-1.9625 v 1.9625 h -9.6375 v -1.9625 z m -9.15,-16.2375 v 18.2 h -2.4125 v -18.2 z m 7.875,7.825 v 1.9625 h -8.3625 v -1.9625 z m 1.15,-7.825 v 1.975 h -9.5125 v -1.975 z m 10.0875,0 v 18.2 h -2.375 v -18.2 z m 5.85,0 v 1.975 h -14.0625 v -1.975 z m -0.3375,16.975 q 0,-0.5875 0.3625,-0.9875 0.375,-0.4125 1.075,-0.4125 0.7,0 1.0625,0.4125 0.375,0.4 0.375,0.9875 0,0.575 -0.375,0.975 -0.3625,0.4 -1.0625,0.4 -0.7,0 -1.075,-0.4 -0.3625,-0.4 -0.3625,-0.975 z m 18.05,-4.5625 h 2.4 q -0.1875,1.725 -0.9875,3.0875 -0.8,1.3625 -2.2625,2.1625 -1.4625,0.7875 -3.65,0.7875 -1.6,0 -2.9125,-0.6 -1.3,-0.6 -2.2375,-1.7 -0.9375,-1.1125 -1.45,-2.6625 -0.5,-1.5625 -0.5,-3.475 v -1.8125 q 0,-1.9125 0.5,-3.4625 0.5125,-1.5625 1.4625,-2.675 0.9625,-1.1125 2.3125,-1.7125 1.35,-0.6 3.0375,-0.6 2.0625,0 3.4875,0.775 1.425,0.775 2.2125,2.15 0.8,1.3625 0.9875,3.1625 h -2.4 q -0.175,-1.275 -0.65,-2.1875 -0.475,-0.925 -1.35,-1.425 -0.875,-0.5 -2.2875,-0.5 -1.2125,0 -2.1375,0.4625 -0.9125,0.4625 -1.5375,1.3125 -0.6125,0.85 -0.925,2.0375 -0.3125,1.1875 -0.3125,2.6375 v 1.8375 q 0,1.3375 0.275,2.5125 0.2875,1.175 0.8625,2.0625 0.575,0.8875 1.4625,1.4 0.8875,0.5 2.1,0.5 1.5375,0 2.45,-0.4875 0.9125,-0.4875 1.375,-1.4 0.475,-0.9125 0.675,-2.1875 z m 19.6875,-3.8875 v 1.15 q 0,2.05 -0.5125,3.675 -0.5125,1.625 -1.475,2.7625 -0.9625,1.1375 -2.3125,1.7375 -1.3375,0.6 -3,0.6 -1.6125,0 -2.9625,-0.6 -1.3375,-0.6 -2.325,-1.7375 -0.975,-1.1375 -1.5125,-2.7625 -0.5375,-1.625 -0.5375,-3.675 v -1.15 q 0,-2.05 0.525,-3.6625 0.5375,-1.625 1.5125,-2.7625 0.975,-1.15 2.3125,-1.75 1.35,-0.6 2.9625,-0.6 1.6625,0 3,0.6 1.35,0.6 2.3125,1.75 0.975,1.1375 1.4875,2.7625 0.525,1.6125 0.525,3.6625 z m -2.3875,1.15 v -1.175 q 0,-1.625 -0.3375,-2.875 -0.325,-1.25 -0.9625,-2.1 -0.6375,-0.85 -1.5625,-1.2875 -0.9125,-0.4375 -2.075,-0.4375 -1.125,0 -2.0375,0.4375 -0.9,0.4375 -1.55,1.2875 -0.6375,0.85 -0.9875,2.1 -0.35,1.25 -0.35,2.875 v 1.175 q 0,1.6375 0.35,2.9 0.35,1.25 1,2.1125 0.6625,0.85 1.5625,1.2875 0.9125,0.4375 2.0375,0.4375 1.175,0 2.0875,-0.4375 0.9125,-0.4375 1.5375,-1.2875 0.6375,-0.8625 0.9625,-2.1125 0.325,-1.2625 0.325,-2.9 z m 4.4,7.3 q 0,-0.5875 0.3625,-0.9875 0.375,-0.4125 1.075,-0.4125 0.7,0 1.0625,0.4125 0.375,0.4 0.375,0.9875 0,0.575 -0.375,0.975 -0.3625,0.4 -1.0625,0.4 -0.7,0 -1.075,-0.4 -0.3625,-0.4 -0.3625,-0.975 z m 17.475,-16.975 h 2.4 v 12.3125 q 0,2.05 -0.9125,3.4125 -0.9125,1.3625 -2.425,2.05 -1.5,0.675 -3.2625,0.675 -1.85,0 -3.35,-0.675 -1.4875,-0.6875 -2.3625,-2.05 -0.8625,-1.3625 -0.8625,-3.4125 v -12.3125 h 2.3875 v 12.3125 q 0,1.425 0.525,2.35 0.525,0.925 1.4625,1.375 0.95,0.45 2.2,0.45 1.2625,0 2.2,-0.45 0.95,-0.45 1.475,-1.375 0.525,-0.925 0.525,-2.35 z m 8.6,0 v 18.2 h -2.4125 v -18.2 z m 10.9875,0 -7.5625,8.4875 -4.25,4.4125 -0.4,-2.575 3.2,-3.525 6.1125,-6.8 z m -2.325,18.2 -6.7375,-8.875 1.4375,-1.9125 8.175,10.7875 z"
     id="text15"
     style="font-size:32px;font-family:Roboto;-inkscape-font-specification:'Roboto, Normal';fill:#ffffff;stroke:#f5f5f5;stroke-width:0;stroke-linecap:round;stroke-linejoin:round;stroke-miterlimit:50"
     aria-label="THIRDBRACKET.CO.UK" /><path
     d="m 926.63127,712.54725 h -4.61248 l -0.0248,-1.9375 h 4.18752 q 1.03752,0 1.81248,-0.35 0.77504,-0.35 1.2,-1 0.43752,-0.6625 0.43752,-1.575 0,-1 -0.38752,-1.625 -0.37496,-0.6375 -1.16248,-0.925 -0.77496,-0.3 -1.97496,-0.3 h -3.55 v 16.225 h -2.41256 v -18.2 h 5.96256 q 1.4,0 2.5,0.2875 1.1,0.275 1.86248,0.875 0.77496,0.5875 1.17496,1.5 0.4,0.9125 0.4,2.1875 0,1.125 -0.57496,2.0375 -0.57504,0.9 -1.6,1.475 -1.01248,0.575 -2.37504,0.7375 z m -0.11248,8.5125 h -5.45 l 1.36248,-1.9625 h 4.08752 q 1.15,0 1.95,-0.4 0.81248,-0.4 1.23752,-1.125 0.42496,-0.7375 0.42496,-1.7375 0,-1.0125 -0.36248,-1.75 -0.36248,-0.7375 -1.13752,-1.1375 -0.77496,-0.4 -2,-0.4 h -3.43752 l 0.0248,-1.9375 h 4.7 l 0.51248,0.7 q 1.31248,0.1125 2.22504,0.75 0.91248,0.625 1.38744,1.6 0.48752,0.975 0.48752,2.15 0,1.7 -0.75,2.875 -0.73752,1.1625 -2.08752,1.775 -1.35,0.6 -3.17496,0.6 z m 20.61248,-1.9625 v 1.9625 h -9.1 v -1.9625 z m -8.62496,-16.2375 v 18.2 h -2.41256 v -18.2 z m 24.57496,8.525 v 1.15 q 0,2.05 -0.51248,3.675 -0.51248,1.625 -1.47504,2.7625 -0.96248,1.1375 -2.31248,1.7375 -1.33752,0.6 -3,0.6 -1.61248,0 -2.96248,-0.6 -1.33752,-0.6 -2.32504,-1.7375 -0.97496,-1.1375 -1.51248,-2.7625 -0.53752,-1.625 -0.53752,-3.675 v -1.15 q 0,-2.05 0.52504,-3.6625 0.53752,-1.625 1.51248,-2.7625 0.97504,-1.15 2.31248,-1.75 1.35,-0.6 2.96256,-0.6 1.66248,0 3,0.6 1.35,0.6 2.31248,1.75 0.97496,1.1375 1.48752,2.7625 0.52496,1.6125 0.52496,3.6625 z m -2.38752,1.15 v -1.175 q 0,-1.625 -0.33744,-2.875 -0.32504,-1.25 -0.96256,-2.1 -0.63744,-0.85 -1.56248,-1.2875 -0.91248,-0.4375 -2.07496,-0.4375 -1.12504,0 -2.03752,0.4375 -0.9,0.4375 -1.55,1.2875 -0.63752,0.85 -0.98752,2.1 -0.35,1.25 -0.35,2.875 v 1.175 q 0,1.6375 0.35,2.9 0.35,1.25 1,2.1125 0.66248,0.85 1.56248,1.2875 0.91256,0.4375 2.03752,0.4375 1.17504,0 2.08752,-0.4375 0.91248,-0.4375 1.53752,-1.2875 0.63744,-0.8625 0.96248,-2.1125 0.32496,-1.2625 0.32496,-2.9 z m 19.43752,-0.5375 v 6.6625 q -0.33752,0.5 -1.07496,1.125 -0.73752,0.6125 -2.03752,1.075 -1.28752,0.45 -3.32504,0.45 -1.66248,0 -3.06248,-0.575 -1.38752,-0.5875 -2.41248,-1.7 -1.01248,-1.125 -1.57504,-2.725 -0.55,-1.6125 -0.55,-3.65 v -1.4125 q 0,-2.0375 0.47504,-3.6375 0.48752,-1.6 1.42496,-2.7125 0.93752,-1.125 2.3,-1.7 1.36256,-0.5875 3.12504,-0.5875 2.08752,0 3.48752,0.725 1.41248,0.7125 2.2,1.975 0.8,1.2625 1.02496,2.875 h -2.41248 q -0.16248,-0.9875 -0.65,-1.8 -0.47504,-0.8125 -1.36248,-1.3 -0.88752,-0.5 -2.28752,-0.5 -1.26248,0 -2.18752,0.4625 -0.92496,0.4625 -1.52496,1.325 -0.6,0.8625 -0.9,2.0875 -0.28752,1.225 -0.28752,2.7625 v 1.4375 q 0,1.575 0.36248,2.8125 0.37504,1.2375 1.06248,2.1125 0.68752,0.8625 1.63752,1.3125 0.96248,0.45 2.12504,0.45 1.28744,0 2.08744,-0.2125 0.8,-0.225 1.25,-0.525 0.45,-0.3125 0.68752,-0.5875 v -4.075 h -4.21248 v -1.95 z"
     id="text15-3"
     style="font-size:32px;font-family:Roboto;-inkscape-font-specification:'Roboto, Normal';fill:#ffffff;stroke:#f5f5f5;stroke-width:0;stroke-linecap:round;stroke-linejoin:round;stroke-miterlimit:50"
     aria-label="BLOG" /></svg>
