<svg version="1.1" viewBox="0 0 1600 840" xml:space="preserve" xmlns="http://www.w3.org/2000/svg"><defs><linearGradient id="linearGradient12" x1="478.76" x2="505.22" y1="145.78" y2="144.89" gradientUnits="userSpaceOnUse"><stop stop-color="#fff" offset="0"/><stop stop-color="#fff" stop-opacity="0" offset="1"/></linearGradient><linearGradient id="linearGradient12-2" x1="478.76" x2="497.85" y1="145.78" y2="145.67" gradientTransform="matrix(6.9248 0 0 6.9248 -2508.5 -658.99)" gradientUnits="userSpaceOnUse"><stop stop-color="#fff" offset="0"/><stop stop-color="#fff" stop-opacity="0" offset="1"/></linearGradient></defs><style>
    #light-icon {
      display: inline;
    }
    #dark-icon {
      display: none;
    }

    @media (prefers-color-scheme: dark) {
      #light-icon {
        display: none;
      }
      #dark-icon {
        display: inline;
      }
    }
  </style><path d="m271.83 925.57h773.23a113.39 113.39 0 0 1 113.39 113.39v773.23a113.39 113.39 0 0 1-113.39 113.39h-773.23a113.39 113.39 0 0 1-113.39-113.39v-773.23a113.39 113.39 0 0 1 113.39-113.39z" display="none" fill="#010713" stroke-miterlimit="50" stroke-width="0" style="font-variation-settings:'wdth' 75, 'wght' 900"/><g transform="matrix(12.163 0 0 12.163 -6264.2 -5206.5)" display="none" stroke-miterlimit="50" stroke-width="0"><path transform="translate(-2.4673,366.19)" d="m505.21 113.81-43.225 14.605-0.34961 33.604 43.342 13.984a11.511 11.511 0 0 0 0.27149-2.0684v-59.268a11.522 11.522 0 0 0-0.0391-0.85742z" display="inline" style="font-variation-settings:'wdth' 75, 'wght' 450"/><path transform="translate(-2.4673,366.19)" d="m500.47 105.33-50.127 16.959 0.17383 47.465 47.676 14.693a11.511 11.511 0 0 0 6.793-8.4434l-43.342-13.984 0.34961-33.604 43.225-14.605a11.522 11.522 0 0 0-4.748-8.4805z" display="inline" fill="url(#linearGradient12)" style="font-variation-settings:'wdth' 75, 'wght' 450"/><path transform="translate(-2.4673,366.19)" d="m434.54 103.15a11.511 11.511 0 0 0-11.51 11.51v59.268a11.522 11.522 0 0 0 11.521 11.523h59.188a11.511 11.511 0 0 0 4.4453-1l-47.676-14.693-0.17383-47.465 50.127-16.959a11.522 11.522 0 0 0-6.7344-2.1836z" display="inline" style="font-variation-settings:'wdth' 75, 'wght' 450"/></g><g display="none" stroke-miterlimit="50" stroke-width="0"><path d="m1352 1118.3-525.73 177.64-4.2522 408.71 527.15 170.08a140 140 0 0 0 3.302-25.157v-720.86a140.14 140.14 0 0 0-0.4755-10.428z" display="inline" style="font-variation-settings:'wdth' 75, 'wght' 450"/><path d="m492.49 988.69a140 140 0 0 0-139.99 139.99v720.86a140.14 140.14 0 0 0 140.13 140.15h719.88a140 140 0 0 0 54.067-12.163l-579.87-178.71-2.1142-577.3 609.68-206.27a140.14 140.14 0 0 0-81.908-26.558z" display="inline" style="font-variation-settings:'wdth' 75, 'wght' 450"/></g><rect width="1600" height="840" fill="#030712" stroke-miterlimit="50" stroke-width="0" style="font-variation-settings:'wdth' 75, 'wght' 450"/><path d="m957.12 70.4-347.12 117.44 1.2037 328.68 330.15 101.75a79.711 79.711 0 0 0 47.04-58.469l-300.13-96.836 2.421-232.7 299.32-101.14a79.787 79.787 0 0 0-32.879-58.726z" fill="url(#linearGradient12-2)" stroke-miterlimit="50" stroke-width="0" style="font-variation-settings:'wdth' 75, 'wght' 450"/><path d="m776.86 701.88h-11.318l-0.0765-6.5003h10.285q2.3325 0 4.0532-0.99414 1.7589-0.99417 2.7148-2.8678 0.95591-1.8736 0.95591-4.512 0-2.9442-0.84122-4.7414-0.80295-1.8354-2.5236-2.6766-1.7206-0.87946-4.3973-0.87946h-8.0677v48.751h-8.1831v-55.672h16.251q3.7472 0 6.6916 0.87946 2.9825 0.8794 5.0091 2.7148 2.0648 1.8354 3.1354 4.6649 1.1089 2.7913 1.1089 6.6916 0 3.4414-1.5295 6.271-1.4912 2.7913-4.2826 4.5885-2.7913 1.7589-6.6916 2.1796zm-0.306 25.58h-13.995l4.1676-6.8827h9.827q2.6383 0 4.3973-1.1472 1.7589-1.1471 2.6383-3.2118 0.91769-2.1031 0.91769-4.8944 0-2.9059-0.76474-5.0091-0.76469-2.1413-2.4471-3.2883-1.6824-1.1471-4.4356-1.1471h-9.2154l0.0766-6.5003h12.082l1.8736 2.4089q3.709 0.22943 6.1562 2.1413 2.4472 1.9118 3.6326 4.8944 1.1854 2.9825 1.1854 6.5003 0 5.2385-1.9501 8.8323-1.9501 3.5943-5.5826 5.4679-3.5943 1.8354-8.5654 1.8354zm26.002-55.672h16.212q5.468 0 9.2154 1.9119 3.7469 1.9119 5.6974 5.6591 1.95 3.709 1.95 9.177 0 4.0149-1.2617 7.1886-1.2237 3.1354-3.5943 5.315-2.3707 2.1795-5.7356 3.2883l-2.2943 1.1471h-14.072l-0.0765-6.8827h10.018q2.9825 0 4.9323-1.3001 1.9884-1.3001 2.9443-3.5179 0.99422-2.2177 0.99422-5.0091 0-3.0589-0.87938-5.315-0.87938-2.256-2.7914-3.4796-1.9118-1.2618-5.0473-1.2618h-8.0293v48.751h-8.1831zm26.345 55.672-10.859-25.122 8.527-0.0382 11.088 24.662v0.49707zm34.299-49.403-14.339 49.403h-8.45l17.819-55.672h5.2768zm11.548 49.403-14.339-49.403-0.3824-6.2709h5.3533l17.819 55.672zm0.11466-20.648v6.9209h-26.383v-6.9209zm42.303 2.7148h8.1446q-0.268 5.8886-2.3707 10.095-2.103 4.1676-6.0797 6.3856-3.9763 2.2177-9.827 2.2177-4.2826 0-7.7239-1.606-3.4414-1.6442-5.8886-4.7032-2.409-3.0589-3.6708-7.4177-1.2618-4.3591-1.2618-9.8646v-10.056q0-5.4679 1.3001-9.827 1.3-4.3591 3.7469-7.418 2.4854-3.0972 6.003-4.7032 3.5178-1.606 7.9916-1.606 5.6209 0 9.4823 2.1796 3.8619 2.1795 5.9268 6.4238 2.103 4.2061 2.409 10.285h-8.1831q-0.22976-4.2826-1.2619-6.921-0.99415-2.6383-3.0207-3.8237-2.0266-1.2236-5.353-1.2236-2.8295 0-4.8944 1.1088-2.0648 1.0706-3.4032 3.212-1.3 2.1413-1.95 5.2385-0.65004 3.0589-0.65004 6.9971v10.133q0 3.7472 0.53531 6.8445 0.57352 3.0589 1.7589 5.2768 1.2235 2.1795 3.212 3.4031 1.9883 1.1854 4.8944 1.1854 3.5557 0 5.6591-1.1471 2.1413-1.1471 3.1355-3.7472 1.0324-2.6002 1.3383-6.9209zm25.122-37.739v55.672h-8.1831v-55.672zm27.913 0-18.889 26.422-11.165 13.574-1.4913-8.7946 7.9531-11.088 13.765-20.113zm-8.6416 55.672-15.218-26.728 5.2385-6.2327 19.692 32.962zm45.882-6.8827v6.8827h-24.166v-6.8827zm-22.292-48.789v55.672h-8.183v-55.672zm19.08 23.554v6.8063h-20.954v-6.8063zm2.9444-23.554v6.9209h-23.898v-6.9209zm28.41 0v55.672h-8.1062v-55.672zm14.416 0v6.9209h-36.82v-6.9209zm-479.12 0.76474v55.672h-5.6591v-55.672zm15.218 0v5.0473h-36.094v-5.0473zm39.346 24.433v5.0473h-25.963v-5.0473zm-25.007-24.433v55.672h-5.6974v-55.672zm29.939 0v55.672h-5.6974v-55.672zm18.965 0v55.672h-5.7356v-55.672zm13.039 0h15.448q5.162 0 8.7947 1.9119 3.6325 1.9118 5.5444 5.6209 1.9118 3.6708 1.9118 9.0239 0 3.862-1.3383 7.0739-1.3001 3.1737-3.7472 5.3532-2.409 2.1412-5.7356 3.0972l-1.6824 0.72651h-14.912l-0.0766-5.0473h11.548q3.4414 0 5.6974-1.5295 2.2941-1.5677 3.4032-4.1296 1.1472-2.5619 1.1472-5.5444 0-3.4796-1.1472-6.0797-1.1088-2.6001-3.4795-4.0149-2.3325-1.4148-5.9268-1.4148h-9.7124v50.628h-5.7356zm27.645 55.672-11.509-25.083 5.965-0.0384 11.662 24.625v0.49705zm27.378 0h-9.98l0.0766-5.0473h9.9031q5.0091 0 8.3354-1.9883 3.3265-2.0266 5.0091-5.965 1.6826-3.9385 1.6824-9.6739v-10.401q0-4.4356-0.95595-7.7239-0.956-3.3265-2.7914-5.468-1.8354-2.1795-4.5502-3.2502-2.7148-1.1088-6.2709-1.1088h-10.63v-5.0473h10.63q4.5882 0 8.2977 1.453 3.7094 1.453 6.3474 4.3591 2.6766 2.8678 4.0914 7.1122 1.453 4.2061 1.453 9.7508v10.324q0 5.5444-1.453 9.7885-1.4148 4.2443-4.1296 7.1122-2.6766 2.8678-6.5003 4.3208-3.7855 1.453-8.5654 1.453zm-6.9971-55.672v55.672h-5.6974v-55.672z" fill="#fff" stroke-width=".76924" style="font-variation-settings:'wdth' 75, 'wght' 450"/></svg>
