<svg fill="none" version="1.1" viewBox="0 0 16 16" xmlns="http://www.w3.org/2000/svg"><path d="m4 0v12h12v-12zm-4 4v12h12v-2h-10v-10zm8.3281 0.90755a1.1667 1.1667 0 0 1 0.08203 0.0052 1.1667 1.1667 0 0 1 0.08203 0.01042 1.1667 1.1667 0 0 1 0.08073 0.01563 1.1667 1.1667 0 0 1 0.07813 0.02213 1.1667 1.1667 0 0 1 0.07813 0.02735 1.1667 1.1667 0 0 1 0.07552 0.03255 1.1667 1.1667 0 0 1 0.07292 0.03776 1.1667 1.1667 0 0 1 0.07031 0.04297 1.1667 1.1667 0 0 1 0.06641 0.04687 1.1667 1.1667 0 0 1 0.0638 0.05339 1.1667 1.1667 0 0 1 0.05859 0.05599 1.1667 1.1667 0 0 1 0.05599 0.0612 1.1667 1.1667 0 0 1 0.05078 0.0638 1.1667 1.1667 0 0 1 0.04687 0.06771 1.1667 1.1667 0 0 1 0.04037 0.07161 1.1667 1.1667 0 0 1 0.03646 0.07422 1.1667 1.1667 0 0 1 0.03125 0.07552 1.1667 1.1667 0 0 1 0.02604 0.07812 1.1667 1.1667 0 0 1 0.01953 0.07943 1.1667 1.1667 0 0 1 0.01432 0.08073 1.1667 1.1667 0 0 1 0.0091 0.08203 1.1667 1.1667 0 0 1 0.0026 0.08203 1.1684 1.1684 0 0 1-0.02213 0.22786 1.1684 1.1684 0 0 1-0.06771 0.21875 1.1684 1.1684 0 0 1-0.10677 0.20052 1.1684 1.1684 0 0 1-0.14583 0.17708 1.1684 1.1684 0 0 1-0.17708 0.14583 1.1684 1.1684 0 0 1-0.20052 0.10677 1.1684 1.1684 0 0 1-0.21875 0.06771 1.1684 1.1684 0 0 1-0.22786 0.02213 1.1667 1.1667 0 0 1-0.23958-0.02474 1.1667 1.1667 0 0 1-0.22917-0.07292 1.1667 1.1667 0 0 1-0.20833-0.11719 1.1667 1.1667 0 0 1-0.18099-0.15886 1.1667 1.1667 0 0 1-0.14453-0.19271 1.1667 1.1667 0 0 1-0.10156-0.21745 1.1667 1.1667 0 0 1-0.05469-0.23438 1.1667 1.1667 0 0 1-0.0065-0.23958 1.1667 1.1667 0 0 1 0.04297-0.23698 1.1667 1.1667 0 0 1 0.09115-0.22266 1.1667 1.1667 0 0 1 0.13542-0.19922 1.1667 1.1667 0 0 1 0.17188-0.16667 1.1667 1.1667 0 0 1 0.20312-0.12891 1.1667 1.1667 0 0 1 0.22526-0.08333 1.1667 1.1667 0 0 1 0.23828-0.03646 1.1667 1.1667 0 0 1 0.08203-0.0013zm3.5794 0a1.1667 1.1667 0 0 1 0.09115 0.0052 1.1667 1.1667 0 0 1 0.08984 0.01172 1.1667 1.1667 0 0 1 0.08854 0.01823 1.1667 1.1667 0 0 1 0.08724 0.02604 1.1667 1.1667 0 0 1 0.08594 0.03255 1.1667 1.1667 0 0 1 0.08203 0.03907 1.1667 1.1667 0 0 1 0.07813 0.04427 1.1667 1.1667 0 0 1 0.07552 0.05209 1.1667 1.1667 0 0 1 0.07031 0.05599 1.1667 1.1667 0 0 1 0.06641 0.0625 1.1667 1.1667 0 0 1 0.0612 0.06771 1.1667 1.1667 0 0 1 0.05599 0.07161 1.1667 1.1667 0 0 1 0.05078 0.07552 1.1667 1.1667 0 0 1 0.04297 0.07943 1.1667 1.1667 0 0 1 0.03776 0.08333 1.1667 1.1667 0 0 1 0.03125 0.08464 1.1667 1.1667 0 0 1 0.02474 0.08724 1.1667 1.1667 0 0 1 0.01693 0.08984 1.1667 1.1667 0 0 1 0.01042 0.08984 1.1667 1.1667 0 0 1 0.0039 0.09115 1.1675 1.1675 0 0 1-0.02213 0.22786 1.1675 1.1675 0 0 1-0.06771 0.21745 1.1675 1.1675 0 0 1-0.10807 0.20182 1.1675 1.1675 0 0 1-0.14453 0.17708 1.1675 1.1675 0 0 1-0.17708 0.14453 1.1675 1.1675 0 0 1-0.20052 0.10807 1.1675 1.1675 0 0 1-0.21875 0.06641 1.1675 1.1675 0 0 1-0.22786 0.02213 1.1667 1.1667 0 0 1-0.23177-0.02344 1.1667 1.1667 0 0 1-0.22266-0.06901 1.1667 1.1667 0 0 1-0.20443-0.11068 1.1667 1.1667 0 0 1-0.17839-0.15104 1.1667 1.1667 0 0 1-0.14453-0.18229 1.1667 1.1667 0 0 1-0.10547-0.20703 1.1667 1.1667 0 0 1-0.0625-0.22396 1.1667 1.1667 0 0 1-0.01693-0.23307 1.1667 1.1667 0 0 1 0.02995-0.23047 1.1667 1.1667 0 0 1 0.07552-0.22135 1.1667 1.1667 0 0 1 0.11719-0.20052 1.1667 1.1667 0 0 1 0.15495-0.17448 1.1667 1.1667 0 0 1 0.1875-0.13932 1.1667 1.1667 0 0 1 0.20964-0.09896 1.1667 1.1667 0 0 1 0.22656-0.05599 1.1667 1.1667 0 0 1 0.08984-0.0091 1.1667 1.1667 0 0 1 0.09115-0.0026z" fill="#000"/></svg>
