<svg transform="scale(1)" id="e6UnTzmxjP" xmlns="http://www.w3.org/2000/svg" viewBox="0 0 500 500" class="pbimage_pbimage__wrapper__image__0LEis false"><title>Facebook Ad</title><defs><style> .cls-1{opacity:.28;} .cls-1, .cls-2, .cls-3{fill:#a5a5a5;} .cls-4, .cls-5{fill:#fff;} .cls-6{fill:#f4a28c;} .cls-3, .cls-7{opacity:.31;} .cls-8{fill:#e6e6e6;} .cls-7{fill:#ce8172;} .cls-5{opacity:.46;} .cls-9{fill:#24285b;} .cls-10{fill:#ffd200;} .cls-11{fill:#68e1fd;}
 .cls-4, .cls-5{fill:#FFFFFF;}
 .cls-1, .cls-2, .cls-3{fill:#A5A5A5;}
 .cls-11{fill:#c4c9cf;}
 .cls-10{fill:#e0e3e6;}
 .cls-9{fill:#c65370;}
 .cls-7{fill:#CE8172;}
 .cls-8{fill:#E6E6E6;}
 .cls-6{fill:#F4A28C;}</style></defs><g id="screen"><rect class="cls-9" x="26.55" y="54.06" width="447.94" height="388.72" fill="#c65370"></rect><circle class="cls-4" cx="390.66" cy="87.34" r="8.11"></circle><circle class="cls-11" cx="414.8" cy="87.28" r="8.11" fill="#c4c9cf"></circle><circle class="cls-10" cx="437.54" cy="87.22" r="8.11" fill="#e0e3e6"></circle><polygon class="cls-8" points="474.85 444.58 25.15 445.94 26.57 114.69 474.49 113.58 474.85 444.58" fill="#E6E6E6"></polygon><rect class="cls-4" x="100.69" y="78.65" width="261.78" height="16.22"></rect><rect class="cls-11" x="334.7" y="78.65" width="27.76" height="16.22" fill="#c4c9cf"></rect><path class="cls-4" d="m70.52,75.09h2.86v-4.99c-.49-.07-2.19-.22-4.17-.22-4.13,0-6.96,2.6-6.96,7.37v4.39h-4.56v5.58h4.56v14.04h5.59v-14.03h4.37l.69-5.58h-5.07v-3.84c0-1.61.44-2.72,2.68-2.72h0Z"></path></g><g id="profile"><rect class="cls-9" x="57.69" y="150.78" width="86.02" height="80.74"></rect><path class="cls-6" d="m105.25,178.67s3.21,6.21,3.89,10.94c.28,1.92-1.08,3.73-3,3.97-2.39.31-5.71.03-7.83-3.09l-4.26-4.85s-2.56-3.13,0-7.26c2.56-4.12,9.43-3.6,11.19.28Z"></path><polygon class="cls-6" points="96.2 183.85 95.18 206.74 107.84 206.4 103.5 189.88 96.2 183.85"></polygon><path class="cls-6" d="m100.66,187.04s-1.07-2.47-2.86-1.51c-1.79.96-.26,4.54,2.42,3.83l.45-2.32Z"></path><path class="cls-6" d="m107.08,182.69l2.83,1.75c.7.43.71,1.44.02,1.89l-2.28,1.48-.57-5.12Z"></path><path class="cls-7" d="m104.52,193.67s-2.37-.21-4.34-1.96c0,0,.65,4.14,5.7,7.73l-1.35-5.77Z"></path><path class="cls-10" d="m95.66,190.02l-4.91-8.34s-4.53-1.37-2.56-4.98,4.91-1.98,6.04-6.66c1.13-4.68,5.88-4.25,7.53-1.82,1.65,2.43,7.55-.19,7.44,4.11-.12,4.3-5.61,6.06-7.16,6.55-6.84,2.15,1.69,9.63-6.37,11.12Z"></path><path class="cls-11" d="m57.69,231.52s5.88-22.55,37.5-24.77l12.66-.34s32.84-.87,35.87,25.11H57.69Z"></path><path class="cls-11" d="m87.69,207.72s-2.66-5.74,7.76-7.01c10.42-1.27,20.59-4.88,20.04,6.28,0,0-9.65,9.49-27.8.74Z"></path><path class="cls-5" d="m87.69,207.72s-2.66-5.74,7.76-7.01c10.42-1.27,20.59-4.88,20.04,6.28,0,0-9.65,9.49-27.8.74Z"></path><circle class="cls-2" cx="65.63" cy="253.96" r="7.94"></circle><rect class="cls-2" x="83.91" y="249.81" width="54.75" height="9.08" rx="2.53" ry="2.53"></rect><circle class="cls-2" cx="65.63" cy="279.32" r="7.94"></circle><rect class="cls-2" x="83.91" y="275.16" width="54.75" height="9.08" rx="2.53" ry="2.53"></rect><circle class="cls-2" cx="65.63" cy="304.68" r="7.94"></circle><rect class="cls-2" x="83.91" y="300.52" width="54.75" height="9.08" rx="2.53" ry="2.53"></rect></g><g id="timeline"><rect class="cls-4" x="162.01" y="150.78" width="189.01" height="54.5"></rect><rect class="cls-4" x="162.01" y="219.88" width="189.01" height="54.5"></rect><rect class="cls-4" x="162.01" y="288.99" width="189.01" height="54.5"></rect><rect class="cls-11" x="308.01" y="185.25" width="31.58" height="13.88"></rect><rect class="cls-11" x="308.01" y="253.05" width="31.58" height="13.88"></rect><rect class="cls-11" x="308.01" y="322.62" width="31.58" height="13.88"></rect><rect class="cls-1" x="173.91" y="160.69" width="165.67" height="5.75"></rect><rect class="cls-1" x="173.91" y="172.28" width="165.67" height="5.75"></rect><rect class="cls-1" x="173.91" y="229.23" width="165.67" height="5.75"></rect><rect class="cls-1" x="173.91" y="240.81" width="165.67" height="5.75"></rect><rect class="cls-1" x="173.91" y="298.91" width="165.67" height="5.75"></rect><rect class="cls-1" x="173.91" y="310.49" width="165.67" height="5.75"></rect></g><g id="ad2"><rect class="cls-11" x="367.96" y="150.78" width="86.95" height="78.45"></rect><path class="cls-9" d="m402.47,196.16c.17.47,0,.71-.49.71h-1.12c-.44,0-.76-.04-.94-.13-.18-.09-.31-.26-.4-.52l-.99-2.77h-5.94l-1.01,2.77c-.09.26-.22.43-.4.52-.18.09-.49.13-.93.13h-.99c-.5,0-.67-.24-.5-.71l5.38-13.98c.1-.24.21-.4.33-.48.12-.08.31-.12.57-.12h1.14c.26,0,.45.04.58.12s.24.23.32.46l5.38,14Zm-6.32-9.46c-.13-.39-.24-.8-.32-1.24s-.14-.78-.17-1.02l-.02-.37h-.15c0,.82-.16,1.68-.47,2.6l-1.66,4.56h4.43l-1.63-4.54Z"></path><path class="cls-9" d="m409.76,181.6c1.98,0,3.51.5,4.6,1.52,1.09,1.01,1.63,2.4,1.63,4.16v3.91c0,1.76-.54,3.15-1.63,4.16-1.09,1.01-2.62,1.52-4.6,1.52h-4.82c-.27,0-.47-.05-.58-.16-.11-.11-.17-.3-.17-.57v-13.81c0-.27.06-.46.17-.57.12-.11.31-.16.58-.16h4.82Zm3.55,5.66c0-1.02-.3-1.8-.91-2.33-.61-.54-1.48-.81-2.61-.81h-2.88v10.24h2.88c1.13,0,2-.27,2.61-.81.61-.54.91-1.32.91-2.34v-3.96Z"></path><path class="cls-9" d="m417.96,185.98c0-1.4.51-2.54,1.54-3.41,1.03-.87,2.48-1.3,4.36-1.3,1.49,0,2.67.27,3.55.8.87.53,1.58,1.35,2.11,2.45.22.44.08.77-.41.99l-1.18.52c-.25.1-.43.13-.55.08-.12-.05-.25-.2-.38-.44-.3-.6-.69-1.05-1.18-1.35-.49-.3-1.14-.45-1.96-.45-2.08,0-3.12.66-3.12,1.98,0,.37.09.69.28.94.19.25.48.45.87.59s.77.25,1.13.31.84.13,1.44.2,1.12.15,1.56.24.92.23,1.44.44c.52.21.95.46,1.28.76.33.3.61.71.84,1.24.23.53.34,1.13.34,1.82,0,1.46-.54,2.63-1.61,3.51s-2.58,1.31-4.52,1.31c-1.62,0-2.9-.3-3.83-.89-.93-.59-1.63-1.49-2.09-2.7-.1-.27-.11-.48-.04-.61s.24-.25.49-.33l1.18-.43c.24-.09.43-.1.56-.03.13.06.25.23.37.48.56,1.33,1.68,2,3.35,2,2.28,0,3.42-.75,3.42-2.24,0-.47-.17-.85-.52-1.14-.34-.29-.73-.48-1.16-.59-.43-.11-1-.2-1.72-.27-.49-.06-.88-.1-1.17-.14-.29-.04-.67-.1-1.13-.2-.46-.1-.83-.22-1.12-.34-.29-.13-.6-.3-.95-.53-.34-.22-.61-.48-.79-.76-.19-.29-.35-.64-.48-1.06-.14-.42-.2-.89-.2-1.41Z"></path></g><g id="ad1"><rect class="cls-10" x="367.96" y="247.14" width="86.95" height="78.45"></rect><path class="cls-9" d="m402.47,292.72c.17.47,0,.71-.49.71h-1.12c-.44,0-.76-.04-.94-.13-.18-.09-.31-.26-.4-.52l-.99-2.77h-5.94l-1.01,2.77c-.09.26-.22.43-.4.52-.18.09-.49.13-.93.13h-.99c-.5,0-.67-.24-.5-.71l5.38-13.98c.1-.24.21-.4.33-.48.12-.08.31-.12.57-.12h1.14c.26,0,.45.04.58.12s.24.23.32.46l5.38,14Zm-6.32-9.46c-.13-.39-.24-.8-.32-1.24s-.14-.78-.17-1.02l-.02-.37h-.15c0,.82-.16,1.68-.47,2.6l-1.66,4.56h4.43l-1.63-4.54Z"></path><path class="cls-9" d="m409.76,278.16c1.98,0,3.51.5,4.6,1.52,1.09,1.01,1.63,2.4,1.63,4.16v3.91c0,1.76-.54,3.15-1.63,4.16-1.09,1.01-2.62,1.52-4.6,1.52h-4.82c-.27,0-.47-.05-.58-.16-.11-.11-.17-.3-.17-.57v-13.81c0-.27.06-.46.17-.57.12-.11.31-.16.58-.16h4.82Zm3.55,5.66c0-1.02-.3-1.8-.91-2.33-.61-.54-1.48-.81-2.61-.81h-2.88v10.24h2.88c1.13,0,2-.27,2.61-.81.61-.54.91-1.32.91-2.34v-3.96Z"></path><path class="cls-9" d="m417.96,282.55c0-1.4.51-2.54,1.54-3.41,1.03-.87,2.48-1.3,4.36-1.3,1.49,0,2.67.27,3.55.8.87.53,1.58,1.35,2.11,2.45.22.44.08.77-.41.99l-1.18.52c-.25.1-.43.13-.55.08-.12-.05-.25-.2-.38-.44-.3-.6-.69-1.05-1.18-1.35-.49-.3-1.14-.45-1.96-.45-2.08,0-3.12.66-3.12,1.98,0,.37.09.69.28.94.19.25.48.45.87.59s.77.25,1.13.31.84.13,1.44.2,1.12.15,1.56.24.92.23,1.44.44c.52.21.95.46,1.28.76.33.3.61.71.84,1.24.23.53.34,1.13.34,1.82,0,1.46-.54,2.63-1.61,3.51s-2.58,1.31-4.52,1.31c-1.62,0-2.9-.3-3.83-.89-.93-.59-1.63-1.49-2.09-2.7-.1-.27-.11-.48-.04-.61s.24-.25.49-.33l1.18-.43c.24-.09.43-.1.56-.03.13.06.25.23.37.48.56,1.33,1.68,2,3.35,2,2.28,0,3.42-.75,3.42-2.24,0-.47-.17-.85-.52-1.14-.34-.29-.73-.48-1.16-.59-.43-.11-1-.2-1.72-.27-.49-.06-.88-.1-1.17-.14-.29-.04-.67-.1-1.13-.2-.46-.1-.83-.22-1.12-.34-.29-.13-.6-.3-.95-.53-.34-.22-.61-.48-.79-.76-.19-.29-.35-.64-.48-1.06-.14-.42-.2-.89-.2-1.41Z"></path></g><rect class="cls-3" x="57.69" y="369.99" width="397.23" height="41.87"></rect></svg>