<svg transform="scale(1)" id="wvAQWDlTdB" xmlns="http://www.w3.org/2000/svg" viewBox="0 0 500 500" class="pbimage_pbimage__wrapper__image__0LEis false"><title>User Group</title><defs><style> .cls-1{fill:#fff;} .cls-2{opacity:.39;} .cls-2, .cls-3, .cls-4, .cls-5, .cls-6, .cls-7, .cls-8, .cls-9, .cls-10, .cls-11, .cls-12, .cls-13, .cls-14, .cls-15{fill:none;} .cls-3{opacity:.11;} .cls-16{fill:#f4a28c;} .cls-4{opacity:.43;} .cls-17{fill:#a5a5a5;} .cls-5{opacity:.57;} .cls-6{opacity:.58;} .cls-18{fill:#ce8172;} .cls-7{opacity:.23;} .cls-19{fill:#e6e6e6;} .cls-8{opacity:.21;} .cls-9{opacity:.03;} .cls-10{opacity:.74;} .cls-11{opacity:.73;} .cls-12{opacity:.36;} .cls-13{opacity:.12;} .cls-14{opacity:.31;} .cls-15{opacity:.2;} .cls-20{fill:#24285b;} .cls-21{fill:#000001;} .cls-22{fill:#ffd200;} .cls-23{fill:#68e1fd;}
 .cls-23{fill:#c4c4c4;}
 .cls-22{fill:#a8afb8;}
 .cls-21{fill:#000001;}
 .cls-20{fill:#c65370;}
 .cls-19{fill:#E6E6E6;}
 .cls-18{fill:#CE8172;}
 .cls-17{fill:#A5A5A5;}
 .cls-16{fill:#F4A28C;}
 .cls-1{fill:#FFFFFF;}</style></defs><g class="cls-9" id="sd"><ellipse class="cls-21" cx="264.36" cy="422.87" rx="192.82" ry="22.77" fill="#000001"></ellipse></g><g id="plant"><g class="cls-6"><path class="cls-23" d="m104.75,402.79s-14.27-3.9-17.37-17.18c0,0,22.11-4.47,22.74,18.35l-5.36-1.17Z"></path></g><g class="cls-11"><path class="cls-23" d="m106.5,401.37s-9.97-15.76-1.2-30.49c0,0,16.81,10.67,9.34,30.53l-8.14-.03Z"></path></g><path class="cls-23" d="m109.06,401.38s5.27-16.64,21.19-19.79c0,0,2.98,10.81-10.31,19.84l-10.88-.05Z"></path><polygon class="cls-20" points="98.72 401.01 101.61 420.79 119.82 420.87 122.51 401.11 98.72 401.01"></polygon></g><g id="phone"><rect class="cls-17" x="355.3" y="399.54" width="80.28" height="21.14"></rect><g class="cls-4"><rect class="cls-19" x="337.75" y="378.86" width="80.28" height="21.14"></rect></g><rect class="cls-19" x="157.98" y="54.36" width="204.36" height="366.51"></rect><rect class="cls-1" x="174.88" y="96.14" width="169.15" height="257.94"></rect><circle class="cls-17" cx="260.77" cy="387.11" r="19.99"></circle><g class="cls-13"><rect class="cls-21" x="242.87" y="68.69" width="57.3" height="8.36"></rect></g><circle class="cls-1" cx="222.11" cy="73.78" r="9.33"></circle><circle class="cls-20" cx="217.99" cy="164.39" r="25.34"></circle><path class="cls-16" d="m221.37,152.76s.74,3.54.42,5.99c-.13.99-1.06,1.71-2.05,1.56-1.23-.18-2.85-.78-3.47-2.63l-1.45-3.01s-.84-1.92,1.01-3.61c1.85-1.7,5.2-.48,5.54,1.7Z"></path><polygon class="cls-16" points="215.08 155.22 214.61 167.06 221.15 166.86 218.87 158.32 215.08 155.22"></polygon><path class="cls-22" d="m220.49,153.01c-.62.11-1.78.24-3.34.14,0,0,1.31,1.43.39,3.29-.92,1.86-2.83,1.32-2.83,1.32l-.49-4.62c-.19-1.34.37-2.68,1.47-3.48.45-.33.94-.66,1.45-.94,1.26-.69,3.32-.04,4.4-1.07.48-.45,1.27-.23,1.44.4.37,1.38.39,3.62-1.42,4.61-.33.18-.7.29-1.07.35Z"></path><path class="cls-16" d="m217.91,156.28s-.19-1.38-1.22-1.15c-1.03.23-.76,2.22.67,2.24l.55-1.09Z"></path><path class="cls-16" d="m221.71,155.01l1.16,1.26c.29.31.15.82-.25.95l-1.34.42.43-2.63Z"></path><g class="cls-14"><path class="cls-18" d="m219.45,160.17s-1.23-.1-2.25-1c0,0,.35,2.14,2.96,3.99l-.71-2.98Z"></path></g><path class="cls-23" d="m200.92,183.11s-.39-15.9,16.77-16.73,16.7,17.43,16.7,17.43c0,0-16.18,14.75-33.46-.7Z"></path><circle class="cls-20" cx="216" cy="307.38" r="25.34"></circle><path class="cls-16" d="m219.38,295.75s.74,3.54.42,5.99c-.13.99-1.06,1.71-2.05,1.56-1.23-.18-2.85-.78-3.47-2.63l-1.45-3.01s-.84-1.92,1.01-3.61c1.85-1.7,5.2-.48,5.54,1.7Z"></path><polygon class="cls-16" points="213.1 298.21 212.63 310.05 219.17 309.84 216.88 301.31 213.1 298.21"></polygon><path class="cls-16" d="m219.73,298l1.16,1.26c.29.31.15.82-.25.95l-1.34.42.43-2.63Z"></path><g class="cls-14"><path class="cls-18" d="m217.46,303.16s-1.23-.1-2.25-1c0,0,.35,2.14,2.96,3.99l-.71-2.98Z"></path></g><path class="cls-23" d="m198.93,326.1s-.39-15.9,16.77-16.73,16.7,17.43,16.7,17.43c0,0-16.18,14.75-33.46-.7Z"></path><path class="cls-22" d="m212.95,301.98l-1.98-3.69s-3.34.36-3.43-2.07,2.47-1.83,2.47-3.43-.32-4.03,2.24-3.98c2.56.05,3.27,2.14,4.45.8,1.18-1.34,3.04-.43,3.18,1.22s1.87,1.14,1.17,3.48c-.7,2.33-4.35,1.1-4.35,1.1,0,0-3.3-.04-2.89,1.47s2.99,4.52-.86,5.12Z"></path><path class="cls-16" d="m215.32,298.91s-.59-1.26-1.5-.74c-.91.52-.07,2.35,1.3,1.95l.2-1.21Z"></path><circle class="cls-20" cx="216.99" cy="234.54" r="25.34"></circle><path class="cls-16" d="m220.37,222.9s.74,3.54.42,5.99c-.13.99-1.06,1.71-2.05,1.56-1.23-.18-2.85-.78-3.47-2.63l-1.45-3.01s-.84-1.92,1.01-3.61c1.85-1.7,5.2-.48,5.54,1.7Z"></path><polygon class="cls-16" points="214.09 225.37 213.62 237.21 220.16 237 217.88 228.47 214.09 225.37"></polygon><path class="cls-16" d="m216.92,226.43s-.19-1.38-1.22-1.15c-1.03.23-.76,2.22.67,2.24l.55-1.09Z"></path><path class="cls-16" d="m220.72,225.16l1.16,1.26c.29.31.15.82-.25.95l-1.34.42.43-2.63Z"></path><g class="cls-14"><path class="cls-18" d="m218.46,230.32s-1.23-.1-2.25-1c0,0,.35,2.14,2.96,3.99l-.71-2.98Z"></path></g><path class="cls-23" d="m199.93,253.26s-.39-15.9,16.77-16.73,16.7,17.43,16.7,17.43c0,0-16.18,14.75-33.46-.7Z"></path><path class="cls-22" d="m207.74,231.57c-.9,1.57-1.21,3.45-.6,5.15.5,1.42,1.52,2.69,3.57,2.62,4.52-.16,3.84-1.49,4.44-7.97.56-6.09,1.06-7.89,4.64-8.79,3.58-.9,1.38-4.44-1.79-4.36-3.17.08-8.6.25-8.43,5.92.1,3.4-.96,5.95-1.82,7.44Z"></path><rect class="cls-19" x="257.27" y="145.14" width="34.63" height="7.11"></rect><rect class="cls-22" x="174.88" y="96.14" width="169.15" height="30.11"></rect><rect class="cls-1" x="234.38" y="106.91" width="88.84" height="8.57"></rect><circle class="cls-20" cx="194.3" cy="109.87" r="7.85"></circle><g class="cls-10"><circle class="cls-20" cx="202.15" cy="109.87" r="7.85"></circle></g><g class="cls-14"><circle class="cls-20" cx="211.32" cy="109.87" r="7.85"></circle></g><polygon class="cls-22" points="257.27 159.58 257.27 174.16 247.29 181.16 257.27 181.16 394.78 181.16 394.78 159.58 257.27 159.58"></polygon><g class="cls-2"><rect class="cls-1" x="270.05" y="167.06" width="105.12" height="6.92"></rect></g><rect class="cls-19" x="257.27" y="212.46" width="34.63" height="7.11"></rect><polygon class="cls-22" points="257.27 226.91 257.27 241.48 247.29 248.49 257.27 248.49 394.78 248.49 394.78 226.91 257.27 226.91"></polygon><g class="cls-2"><rect class="cls-1" x="270.05" y="234.39" width="105.12" height="6.92"></rect></g><rect class="cls-19" x="257.27" y="288.13" width="34.63" height="7.11"></rect><polygon class="cls-22" points="257.27 302.57 257.27 317.14 247.29 324.15 257.27 324.15 394.78 324.15 394.78 302.57 257.27 302.57"></polygon><g class="cls-2"><rect class="cls-1" x="270.05" y="310.05" width="105.12" height="6.92"></rect></g></g><g id="panel2"><rect class="cls-19" x="406.56" y="96.74" width="79.35" height="86.99"></rect><rect class="cls-20" x="396" y="83.11" width="79.35" height="86.99"></rect><circle class="cls-23" cx="414.13" cy="107.75" r="5.26"></circle><circle class="cls-1" cx="414.13" cy="128.04" r="5.26"></circle><circle class="cls-22" cx="414.13" cy="148.34" r="5.26"></circle><g class="cls-15"><rect class="cls-1" x="430.22" y="103.15" width="32.03" height="7.49"></rect></g><g class="cls-15"><rect class="cls-1" x="430.22" y="124.3" width="32.03" height="7.49"></rect></g><g class="cls-15"><rect class="cls-1" x="430.22" y="145.02" width="32.03" height="7.49"></rect></g><rect class="cls-19" x="406.56" y="206.72" width="79.35" height="26.58"></rect><rect class="cls-19" x="406.56" y="253.39" width="79.35" height="26.58"></rect><rect class="cls-19" x="406.56" y="296.76" width="79.35" height="26.58"></rect></g><g id="panel1"><rect class="cls-19" x="14.09" y="154.36" width="116.54" height="184.16"></rect><rect class="cls-20" x="27.2" y="139.05" width="116.54" height="184.16"></rect><circle class="cls-23" cx="64.39" cy="174.52" r="19.35"></circle><rect class="cls-1" x="93.41" y="163.56" width="32.5" height="7.97"></rect><g class="cls-8"><rect class="cls-1" x="93.41" y="177.53" width="32.5" height="7.97"></rect></g><g class="cls-3"><rect class="cls-1" x="27.2" y="212.08" width="116.54" height="111.13"></rect></g><rect class="cls-1" x="67.58" y="234.38" width="52.29" height="10.59"></rect><g class="cls-5"><rect class="cls-1" x="67.58" y="261.98" width="52.29" height="10.59"></rect></g><g class="cls-7"><rect class="cls-1" x="67.58" y="289.59" width="52.29" height="10.59"></rect></g><circle class="cls-22" cx="53.64" cy="240.41" r="6.03"></circle><g class="cls-12"><circle class="cls-22" cx="53.64" cy="267.28" r="6.03"></circle></g><g class="cls-12"><circle class="cls-22" cx="53.64" cy="294.88" r="6.03"></circle></g></g></svg>