<svg width="960" height="960" viewBox="0 0 960 960" fill="none" xmlns="http://www.w3.org/2000/svg">
<g clip-path="url(#clip0_38_4061)">
<path d="M816.96 178.936C820.847 178.913 824.701 179.66 828.299 181.132C831.897 182.604 835.168 184.772 837.925 187.513C840.682 190.254 842.87 193.513 844.363 197.102C845.856 200.692 846.624 204.541 846.624 208.429C846.624 212.316 845.856 216.165 844.363 219.755C842.87 223.344 840.682 226.603 837.925 229.344C835.168 232.085 831.897 234.254 828.299 235.726C824.701 237.198 820.847 237.944 816.96 237.921H665.465C661.577 237.944 657.723 237.198 654.125 235.726C650.527 234.254 647.256 232.085 644.499 229.344C641.742 226.603 639.554 223.344 638.061 219.755C636.568 216.165 635.8 212.316 635.8 208.429C635.8 204.541 636.568 200.692 638.061 197.102C639.554 193.513 641.742 190.254 644.499 187.513C647.256 184.772 650.527 182.604 654.125 181.132C657.723 179.66 661.577 178.913 665.465 178.936H816.96Z" fill="url(#paint0_linear_38_4061)"/>
<path d="M582.268 179.46C586.156 179.438 590.009 180.184 593.607 181.656C597.205 183.128 600.477 185.297 603.234 188.038C605.991 190.779 608.179 194.037 609.672 197.627C611.164 201.216 611.933 205.065 611.933 208.953C611.933 212.84 611.164 216.69 609.672 220.279C608.179 223.869 605.991 227.127 603.234 229.868C600.477 232.609 597.205 234.778 593.607 236.25C590.009 237.722 586.156 238.468 582.268 238.445H492.944C485.152 238.4 477.695 235.273 472.201 229.747C466.707 224.221 463.623 216.745 463.623 208.953C463.623 201.161 466.707 193.685 472.201 188.159C477.695 182.633 485.152 179.506 492.944 179.46H582.268Z" fill="url(#paint1_linear_38_4061)"/>
<path d="M540.731 337.484C549.718 361.649 555.495 386.889 557.912 412.558C558.446 418.129 558.803 423.722 559.012 429.315C559.368 439.12 559.235 449.036 557.118 458.615C555.112 467.751 551.357 476.409 547.335 484.854C528.22 524.892 502.631 561.502 471.6 593.211C465.751 625.511 462.887 664.831 463.054 697.554L463.065 697.866C431.891 698.746 400.705 698.122 369.485 698.546L369.129 698.501C368.462 704.195 368.076 709.907 367.97 715.637C367.892 720.127 367.992 724.614 368.27 729.097C369.061 741.687 371.445 754.697 378.899 764.873C388.314 777.742 404.96 784.193 420.882 783.48C436.804 782.767 451.945 775.547 464.382 765.58C476.819 755.613 486.811 742.929 496.036 729.926C497.351 728.077 498.643 726.226 499.913 724.355C511.421 707.875 521.398 690.376 529.718 672.078C532.069 666.819 540.347 665.059 545.918 666.529C546.23 666.607 546.531 666.696 546.831 666.786C568.09 672.735 585.431 690.886 590.585 712.311C590.875 713.425 591.109 714.55 591.31 715.687C595.365 738.438 586.496 761.168 573.55 780.744C570.95 784.655 568.213 788.444 565.371 792.075C551.422 809.924 535.01 825.768 517.417 840.041C514.498 842.403 511.534 844.731 508.517 846.993C493.654 858.135 477.476 867.672 459.471 871.806C443.816 875.406 427.494 874.736 411.516 872.976C381.667 869.689 350.616 861.756 329.29 840.609C317.045 828.464 309.246 813.245 304.566 796.699C301.119 784.015 299.156 770.973 298.717 757.836C298.417 750.561 298.472 743.296 298.795 736.154C299.107 729.324 299.619 722.472 300.366 715.642C301.012 709.615 301.836 703.606 302.839 697.615C309.647 657.237 324.739 618.308 350.739 586.966C350.873 587.041 351.014 587.101 351.162 587.144C352.794 587.529 354.503 587.424 356.076 586.844C366.627 583.969 376.632 579.444 386.593 574.933C393.133 571.981 399.666 569.029 406.193 566.076C410.371 564.193 414.605 562.265 418.215 559.446C420.621 557.563 422.827 554.889 423.262 552.004L423.696 552.059C454.336 519.035 470.748 475.626 486.447 433.399C494.703 411.193 502.962 388.98 511.226 366.76C514.692 357.412 518.165 348.068 521.644 338.727C523.544 333.613 525.555 328.332 529.466 324.521C530.223 323.641 531.278 323.071 532.429 322.921C534.535 322.865 535.839 325.127 536.652 327.066C538.084 330.513 539.443 333.986 540.731 337.484Z" fill="#171717"/>
<path d="M511.216 548.076C511.027 587.708 511.027 627.833 511.216 668.452C512.141 682.412 500.999 695.783 486.516 696.897C478.705 697.342 470.887 697.665 463.062 697.866L463.051 697.554C462.884 664.831 465.751 625.511 471.597 593.211C485.599 578.91 498.515 563.585 510.237 547.362L511.216 548.076Z" fill="url(#paint2_linear_38_4061)"/>
<path d="M486.437 433.393C470.737 475.62 454.326 519.029 423.686 552.053L423.252 551.998C423.387 551.18 423.361 550.343 423.174 549.535C422.416 546.226 419.04 544.035 415.674 543.608C412.308 543.181 408.933 544.142 405.691 545.168C402.237 546.259 398.813 547.421 395.418 548.655C380.444 525.101 408.9 524.979 398.661 500.767C393.225 483 387.631 464.991 377.6 449.348L377.433 448.869C387.382 445.359 398.156 443.51 406.78 437.46C415.838 431.276 421.164 420.346 405.51 420.335C393.945 421.95 383.427 428.368 373.332 433.961C379.171 426.875 387.438 420.09 392.14 412.261C393.64 400.228 372.43 410.423 367.806 413.988C363.158 417.214 358.924 420.999 355.2 425.259C354.442 420.059 356.135 413.494 353.105 408.68C345.93 405.706 339.3 415.41 336.105 420.97C331.159 429.048 331.359 440.67 322.891 446.217C299.95 463.108 300.039 500.378 323.058 517.168L323.292 517.213C321.877 523.497 329.755 530.371 335.66 523.965L336.16 524.21C341.586 539.184 352.294 551.351 358.009 566.237C357.474 566.549 356.94 566.872 356.409 567.195C352.821 569.367 349.078 571.886 347.529 575.785C346.545 578.302 346.597 581.107 347.674 583.585C348.244 585.05 349.335 586.253 350.738 586.961C324.744 618.303 309.647 657.233 302.838 697.611C290.259 695.828 276.978 699.093 264.8 694.669C260.438 692.516 256.767 689.181 254.206 685.044C251.646 680.907 250.298 676.134 250.316 671.269C248.087 545.369 246.973 418.35 251.43 292.448C251.43 279.078 263.686 269.048 277.056 267.936C345.021 266.822 414.1 266.822 482.065 267.936C486.723 267.985 491.303 269.13 495.435 271.279C504.349 275.735 509.92 284.649 511.035 294.679C512.127 318.69 511.079 342.701 511.224 366.756C502.952 388.972 494.69 411.184 486.437 433.393ZM336.491 333.618C336.635 332.003 339.699 322.398 332.925 322.554C317.917 322.889 302.898 322.588 287.879 322.599C287.411 343.579 286.943 364.559 285.896 385.517C300.536 384.984 315.18 384.445 329.828 383.901C334.228 383.745 334.028 382.965 334.117 378.701C334.184 375.024 334.296 371.347 334.429 367.67C334.696 360.306 335.079 352.953 335.577 345.61C335.855 341.608 336.16 337.611 336.491 333.618Z" fill="url(#paint3_linear_38_4061)"/>
<path d="M405.515 420.335C421.169 420.346 415.842 431.276 406.785 437.46C398.161 443.51 387.385 445.36 377.438 448.869C377.349 448.902 377.27 448.925 377.18 448.958C366.729 452.858 356.78 457.972 346.797 462.93C325.282 470.952 322.753 491.275 329.36 510.918L329.428 511.096C325.673 512.555 323.822 514.851 323.287 517.213L323.054 517.168C300.035 500.377 299.945 463.108 322.886 446.217C331.354 440.668 331.155 429.048 336.102 420.97C339.302 415.41 345.929 405.706 353.102 408.68C356.133 413.494 354.439 420.056 355.197 425.259C358.922 420.997 363.158 417.211 367.809 413.984C372.433 410.418 393.647 400.224 392.143 412.257C387.443 420.09 379.173 426.875 373.335 433.957C383.431 428.368 393.95 421.95 405.515 420.335Z" fill="#171717"/>
<path d="M304.558 796.694L304.146 796.816C292.95 798.407 281.67 799.337 270.364 799.602C269.864 798.696 269.683 797.648 269.851 796.627C270.531 784.494 271.207 772.36 271.879 760.227C271.82 759.962 271.828 759.687 271.903 759.426C271.978 759.165 272.117 758.927 272.308 758.734C272.499 758.541 272.735 758.399 272.995 758.321C273.255 758.243 273.531 758.232 273.796 758.288C282.096 758.143 290.401 757.991 298.709 757.831C299.148 770.968 301.111 784.01 304.558 796.694V796.694Z" fill="url(#paint4_linear_38_4061)"/>
<path d="M242.576 161.4C248.576 174.169 245.228 188.408 239.576 200.686C226.785 228.206 195.688 248.117 193.95 280.339C194.173 283.804 192.981 286.991 190.106 288.016C189.258 288.303 188.359 288.412 187.466 288.339L179.778 288.874L179.722 288.027C180.456 280.15 181.187 272.273 181.917 264.395C182.552 257.521 183.187 250.635 184.335 243.827C185.126 239.215 186.162 234.568 188.424 230.468C190.724 226.312 194.151 222.903 196.68 218.892C199.209 214.881 200.78 209.745 198.853 205.41C198.606 204.708 198.193 204.075 197.65 203.565C197.107 203.055 196.45 202.683 195.733 202.48C194.786 202.364 193.825 202.515 192.959 202.915C189.671 204.184 186.854 206.437 184.892 209.366C182.029 213.678 181.182 219.204 177.772 223.092C175.867 225.276 172.781 226.847 170.062 225.811C167.578 224.875 166.252 222.011 166.241 219.349C166.23 216.687 167.266 214.157 168.213 211.672C169.16 209.187 170.085 206.58 169.828 203.928C169.405 199.438 165.338 195.717 160.848 195.282C158.592 195.141 156.343 195.644 154.362 196.733C152.382 197.823 150.752 199.452 149.662 201.433C145.372 209.109 149.327 220.062 143.556 226.633C142.83 223.674 141.693 220.832 140.18 218.187C138.821 216.059 136.514 214.098 134.03 214.587C133.281 214.781 132.584 215.139 131.988 215.634C131.393 216.129 130.915 216.749 130.587 217.451C128.515 221.462 130.81 226.921 134.966 228.67C136.736 229.455 138.741 229.523 140.559 228.86C141.676 228.392 142.668 227.671 143.459 226.754C143.492 226.71 143.526 226.676 143.559 226.632C143.57 226.676 143.581 226.71 143.592 226.754C147.459 239.954 151.333 253.165 155.213 266.386C157.513 274.218 159.804 282.086 160.713 290.186V290.198C158.407 290.354 156.101 290.521 153.794 290.677C151.41 290.844 149.516 291.189 148.079 291.111C145.995 291 144.859 290.019 144.535 286.343C143.444 263.558 115.868 256.95 109.16 234.443C101.606 213.563 99.0993 189.731 103.366 167.904C116.919 101.579 226.788 92.331 242.576 161.4Z" fill="url(#paint5_linear_38_4061)"/>
<path d="M198.856 205.409C200.783 209.743 199.201 214.88 196.683 218.891C194.165 222.902 190.722 226.311 188.427 230.467C186.165 234.567 185.127 239.214 184.338 243.826C183.19 250.634 182.555 257.52 181.92 264.394C181.187 272.271 180.455 280.149 179.725 288.026L179.781 288.873C173.431 289.318 167.076 289.759 160.717 290.198V290.187C159.804 282.087 157.509 274.221 155.217 266.387C151.341 253.173 147.467 239.963 143.596 226.756C143.585 226.711 143.574 226.678 143.563 226.633C149.334 220.06 145.379 209.107 149.669 201.433C150.759 199.452 152.389 197.822 154.369 196.733C156.35 195.644 158.6 195.141 160.855 195.282C165.345 195.717 169.412 199.438 169.835 203.928C170.092 206.58 169.178 209.187 168.22 211.672C167.262 214.157 166.237 216.697 166.248 219.349C166.259 222.001 167.585 224.875 170.069 225.811C172.788 226.847 175.874 225.276 177.779 223.092C181.189 219.204 182.036 213.677 184.899 209.366C186.861 206.437 189.678 204.184 192.966 202.915C193.833 202.515 194.793 202.364 195.74 202.48C196.456 202.684 197.113 203.056 197.655 203.566C198.197 204.075 198.609 204.707 198.856 205.409V205.409Z" fill="url(#paint6_linear_38_4061)"/>
<path d="M143.559 226.635C143.526 226.68 143.492 226.713 143.459 226.758C142.668 227.674 141.676 228.395 140.559 228.864C138.741 229.527 136.736 229.459 134.966 228.674C130.81 226.925 128.515 221.466 130.587 217.455C130.915 216.753 131.393 216.132 131.988 215.637C132.584 215.142 133.281 214.785 134.03 214.591C136.514 214.101 138.821 216.062 140.18 218.191C141.694 220.834 142.831 223.676 143.559 226.635V226.635Z" fill="url(#paint7_linear_38_4061)"/>
<path d="M371.075 512.957C389.202 511.675 353.805 480.935 355.465 473.147C361.545 469.21 368.435 466.697 375.621 465.793" stroke="#171717" stroke-width="3.343" stroke-linecap="round" stroke-linejoin="round"/>
<path d="M339.365 493.28C340.502 491.777 341.98 490.565 343.677 489.746C345.374 488.926 347.241 488.522 349.125 488.567" stroke="#171717" stroke-width="3.343" stroke-linecap="round" stroke-linejoin="round"/>
<path d="M367.732 478.629C368.854 477.034 370.521 475.906 372.418 475.458C374.316 475.01 376.312 475.274 378.027 476.2" stroke="#171717" stroke-width="3.343" stroke-linecap="round" stroke-linejoin="round"/>
<path d="M365.938 529.714C360.902 532.8 354.874 530.605 352.256 525.335" stroke="#171717" stroke-width="3.343" stroke-linecap="round" stroke-linejoin="round"/>
<path d="M332.379 510.216C331.374 510.434 330.387 510.728 329.427 511.096C325.672 512.555 323.822 514.851 323.287 517.213C321.872 523.497 329.75 530.371 335.655 523.965C336.829 522.639 337.771 521.125 338.44 519.486" stroke="#171717" stroke-width="3.343" stroke-linecap="round" stroke-linejoin="round"/>
<path d="M396.201 549.848C395.923 549.448 395.667 549.048 395.422 548.656C380.447 525.102 408.903 524.98 398.664 500.768C393.226 483.001 387.632 464.992 377.601 449.349" stroke="#171717" stroke-width="3.343" stroke-linecap="round" stroke-linejoin="round"/>
<path d="M323.054 517.168C300.036 500.378 299.946 463.108 322.887 446.217C331.355 440.669 331.155 429.048 336.102 420.97C339.302 415.41 345.929 405.706 353.102 408.68C356.133 413.494 354.439 420.056 355.197 425.259C358.922 420.997 363.158 417.21 367.809 413.984C372.433 410.419 393.647 400.224 392.143 412.257C387.443 420.09 379.174 426.875 373.335 433.957C383.43 428.364 393.948 421.946 405.513 420.331C421.167 420.342 415.841 431.272 406.783 437.456C398.159 443.506 387.383 445.356 377.436 448.865C377.347 448.898 377.269 448.921 377.179 448.954C366.728 452.854 356.779 457.968 346.796 462.926C325.281 470.948 322.752 491.271 329.359 510.914" stroke="#171717" stroke-width="3.343" stroke-linecap="round" stroke-linejoin="round"/>
<path d="M358.15 566.6C358.106 566.478 358.061 566.355 358.005 566.233C352.29 551.347 341.582 539.18 336.156 524.206" stroke="#171717" stroke-width="3.343" stroke-linecap="round" stroke-linejoin="round"/>
<path d="M358.005 566.237C357.471 566.549 356.936 566.872 356.405 567.195C352.817 569.368 349.074 571.886 347.525 575.785C346.54 578.302 346.592 581.106 347.67 583.585C348.24 585.049 349.331 586.252 350.734 586.961C350.868 587.036 351.009 587.096 351.157 587.139C352.789 587.523 354.498 587.419 356.071 586.839C366.622 583.964 376.627 579.439 386.588 574.928C393.128 571.976 399.661 569.023 406.188 566.071C410.366 564.188 414.6 562.26 418.21 559.441C420.616 557.558 422.822 554.884 423.257 551.998C423.391 551.18 423.365 550.344 423.179 549.536C422.421 546.227 419.045 544.036 415.679 543.609C412.313 543.182 408.939 544.143 405.696 545.169C402.242 546.26 398.818 547.422 395.424 548.656C382.431 553.339 369.903 559.224 358.005 566.237V566.237Z" stroke="#171717" stroke-width="3.343" stroke-linecap="round" stroke-linejoin="round"/>
<path d="M350.863 586.793L350.73 586.961C324.736 618.302 309.639 657.232 302.83 697.61C301.83 703.593 301.006 709.602 300.357 715.637C299.61 722.467 299.098 729.319 298.786 736.149C298.463 743.291 298.407 750.556 298.708 757.831C299.147 770.968 301.11 784.01 304.557 796.694C309.237 813.239 317.036 828.459 329.281 840.604C350.606 861.751 381.658 869.684 411.507 872.971C427.485 874.731 443.807 875.4 459.462 871.801C477.462 867.667 493.645 858.13 508.508 846.988C511.527 844.726 514.491 842.398 517.408 840.035C535.001 825.763 551.413 809.919 565.362 792.07C568.204 788.438 570.945 784.65 573.541 780.739C586.487 761.163 595.356 738.433 591.301 715.682C591.101 714.545 590.866 713.42 590.576 712.306C585.418 690.88 568.076 672.73 546.822 666.78C546.522 666.691 546.222 666.602 545.909 666.524C540.338 665.053 532.06 666.814 529.709 672.073C521.389 690.371 511.413 707.87 499.904 724.35C498.634 726.222 497.342 728.071 496.027 729.921C486.802 742.921 476.807 755.592 464.373 765.575C451.939 775.558 436.808 782.755 420.873 783.475C404.938 784.195 388.306 777.737 378.891 764.868C371.437 754.695 369.053 741.682 368.262 729.091C367.984 724.612 367.884 720.125 367.962 715.632C368.062 709.905 368.449 704.193 369.121 698.496C372.118 672.882 380.772 648.254 394.457 626.396" stroke="#171717" stroke-width="3.343" stroke-linecap="round" stroke-linejoin="round"/>
<path d="M423.687 552.053C454.327 519.029 470.739 475.62 486.438 433.393C494.694 411.187 502.953 388.974 511.217 366.754C514.683 357.406 518.156 348.062 521.634 338.721C523.534 333.607 525.546 328.326 529.457 324.515C530.213 323.635 531.269 323.065 532.42 322.915C534.526 322.859 535.83 325.121 536.643 327.06C538.079 330.514 539.442 333.99 540.732 337.488C549.719 361.653 555.495 386.893 557.913 412.562C558.447 418.133 558.804 423.726 559.013 429.319C559.369 439.124 559.234 449.04 557.118 458.619C555.112 467.755 551.358 476.412 547.336 484.858C528.22 524.894 502.632 561.503 471.601 593.211C466.867 598.058 461.998 602.786 456.994 607.395" stroke="#171717" stroke-width="3.343" stroke-linecap="round" stroke-linejoin="round"/>
<path d="M471.73 592.487C471.685 592.732 471.641 592.966 471.596 593.211C465.747 625.511 462.883 664.831 463.05 697.554" stroke="#171717" stroke-width="3.343" stroke-linecap="round" stroke-linejoin="round"/>
<path d="M540.285 337.852C540.43 337.729 540.585 337.607 540.731 337.484C551.466 328.567 562.909 320.541 574.948 313.484C577.666 311.879 580.414 310.33 583.192 308.838C588.563 305.938 594.156 303.211 600.184 302.297C602.024 301.893 603.942 302.061 605.684 302.777C608.09 303.969 609.294 306.843 609.227 309.517C609.004 312.198 608.173 314.793 606.798 317.105C599.596 330.946 588.189 342.145 574.219 349.093L575.289 347.054" stroke="#171717" stroke-width="3.343" stroke-linecap="round" stroke-linejoin="round"/>
<path d="M574.714 313.084C575.649 301.363 573.421 287.992 577.878 276.851C582.335 267.937 593.478 263.48 603.036 264.205" stroke="#171717" stroke-width="3.343" stroke-linecap="round" stroke-linejoin="round"/>
<path d="M572.5 628.865V628.23C572.489 553.33 573.113 474.573 573.559 398.73C573.648 382.016 573.73 365.471 573.804 349.093V348.593" stroke="#171717" stroke-width="3.343" stroke-linecap="round" stroke-linejoin="round"/>
<path d="M603.036 264.205C679.268 265.705 755.036 262.366 830.797 265.705C839.71 269.047 845.281 276.847 849.738 285.76C853.08 476.285 850.852 666.81 850.852 857.335C850.852 870.705 841.939 884.075 827.452 887.418C749.46 886.303 670.352 889.646 592.36 886.303C582.332 881.847 574.533 871.819 573.419 860.677C572.319 834.104 573.408 807.531 573.542 780.735V780.222" stroke="#171717" stroke-width="3.343" stroke-linecap="round" stroke-linejoin="round"/>
<path d="M511.216 548.076C511.027 587.708 511.027 627.833 511.216 668.452" stroke="#171717" stroke-width="3.343" stroke-linecap="round" stroke-linejoin="round"/>
<path d="M303.077 697.643L302.832 697.61C290.253 695.827 276.972 699.092 264.794 694.668C260.431 692.515 256.76 689.18 254.2 685.043C251.639 680.906 250.291 676.133 250.31 671.268C248.081 545.368 246.967 418.349 251.424 292.447C251.424 279.077 263.68 269.047 277.05 267.935C345.015 266.821 414.094 266.821 482.059 267.935C486.716 267.984 491.296 269.129 495.429 271.278C504.343 275.734 509.914 284.648 511.029 294.678C512.121 318.689 511.073 342.7 511.218 366.755V368.255" stroke="#171717" stroke-width="3.343" stroke-linecap="round" stroke-linejoin="round"/>
<path d="M511.216 668.452C512.141 682.412 500.999 695.783 486.516 696.897C478.706 697.342 470.888 697.665 463.062 697.866C431.888 698.746 400.702 698.122 369.482 698.546" stroke="#171717" stroke-width="3.343" stroke-linecap="round" stroke-linejoin="round"/>
<path d="M368.167 715.637C405.18 715.837 441.948 715.837 478.872 715.637" stroke="#171717" stroke-width="3.343" stroke-linecap="round" stroke-linejoin="round"/>
<path d="M508.531 846.843C508.52 846.888 508.52 846.943 508.509 846.988C506.593 860.782 509.879 875.199 499.885 885.188C495.428 889.645 490.972 890.759 485.401 891.873C455.318 894.102 426.349 891.873 396.266 894.102C356.156 895.216 314.931 894.102 274.821 892.988C268.136 891.873 262.565 890.759 256.994 886.302C251.423 881.845 248.08 874.046 246.966 867.361C244.738 825.023 245.852 782.684 248.08 740.345C250.309 713.604 280.392 714.719 300.324 715.632" stroke="#171717" stroke-width="3.343" stroke-linecap="round" stroke-linejoin="round"/>
<path d="M478.872 715.637C486.672 715.114 494.392 718.701 499.751 724.237" stroke="#171717" stroke-width="3.343" stroke-linecap="round" stroke-linejoin="round"/>
<path d="M816.96 237.921H665.465C661.577 237.944 657.723 237.198 654.125 235.726C650.527 234.254 647.256 232.085 644.499 229.344C641.742 226.603 639.554 223.344 638.061 219.755C636.568 216.165 635.8 212.316 635.8 208.429C635.8 204.541 636.568 200.692 638.061 197.102C639.554 193.513 641.742 190.254 644.499 187.513C647.256 184.772 650.527 182.604 654.125 181.132C657.723 179.66 661.577 178.913 665.465 178.936H816.96C820.847 178.913 824.701 179.66 828.299 181.132C831.897 182.604 835.168 184.772 837.925 187.513C840.682 190.254 842.87 193.513 844.363 197.102C845.856 200.692 846.624 204.541 846.624 208.429C846.624 212.316 845.856 216.165 844.363 219.755C842.87 223.344 840.682 226.603 837.925 229.344C835.168 232.085 831.897 234.254 828.299 235.726C824.701 237.198 820.847 237.944 816.96 237.921V237.921Z" stroke="#171717" stroke-width="3.343" stroke-linecap="round" stroke-linejoin="round"/>
<path d="M582.268 238.445H492.944C485.152 238.4 477.695 235.273 472.201 229.747C466.707 224.221 463.623 216.745 463.623 208.953C463.623 201.161 466.707 193.685 472.201 188.159C477.695 182.633 485.152 179.506 492.944 179.46H582.268C586.156 179.438 590.009 180.184 593.607 181.656C597.205 183.128 600.477 185.297 603.234 188.038C605.991 190.779 608.179 194.037 609.672 197.627C611.164 201.216 611.933 205.065 611.933 208.953C611.933 212.84 611.164 216.69 609.672 220.279C608.179 223.869 605.991 227.127 603.234 229.868C600.477 232.609 597.205 234.778 593.607 236.25C590.009 237.722 586.156 238.468 582.268 238.445V238.445Z" stroke="#171717" stroke-width="3.343" stroke-linecap="round" stroke-linejoin="round"/>
<path d="M567.716 642.759C569.143 637.856 570.736 633.013 572.496 628.23C574.412 622.993 576.526 617.835 578.836 612.754C579.893 610.233 581.215 607.831 582.78 605.59C584.552 603.295 586.65 601.272 589.008 599.584C589.564 599.078 590.262 598.756 591.008 598.659C592.334 598.604 593.325 599.852 593.827 601.066C595.041 604.03 594.751 607.361 594.406 610.537C593.793 616.096 593.069 621.637 592.055 627.127C591.108 632.252 583.543 650.736 582.863 655.873C587.242 645.299 597.381 621.088 604.846 612.264C607.074 609.634 609.759 607.094 613.135 606.459C613.755 606.306 614.399 606.28 615.029 606.383C615.66 606.486 616.262 606.716 616.801 607.059C618.528 608.329 618.55 610.859 618.283 612.987C616.177 630.268 607.163 645.732 597.503 660.351C596.512 661.851 595.503 663.359 594.495 664.851" stroke="#171717" stroke-width="3.343" stroke-linecap="round" stroke-linejoin="round"/>
<path d="M567.717 642.759C567.726 644.381 567.283 645.975 566.436 647.359C566.848 645.823 567.272 644.285 567.717 642.759Z" stroke="#171717" stroke-width="3.343" stroke-linecap="round" stroke-linejoin="round"/>
<path d="M546.915 666.48C547.26 658.012 548.775 649.644 550.291 641.31C551.516 634.536 552.764 627.71 555.305 621.3C556.875 617.333 559.07 613.422 562.558 610.971C563.182 610.525 564.029 610.135 564.675 610.536C564.972 610.765 565.203 611.07 565.343 611.417C566.781 614.481 567.026 617.946 567.182 621.311C567.405 625.869 567.512 630.429 567.505 634.993C567.505 637.076 567.873 640.073 567.717 642.759" stroke="#171717" stroke-width="3.343" stroke-linecap="round" stroke-linejoin="round"/>
<path d="M591.092 712.183C604.741 698.067 614.155 680.529 624.272 663.705C630.189 653.878 636.562 643.728 637.453 632.285C637.598 630.458 637.509 628.408 636.216 627.116C634.489 625.4 631.604 625.916 629.342 626.816C625.957 628.158 622.834 630.085 620.116 632.509C616.674 635.584 613.966 639.384 611.147 643.027C606.657 648.832 601.777 654.392 597.699 660.486C596.699 661.986 595.749 663.517 594.858 665.099C595.103 664.776 595.337 664.453 595.582 664.13" stroke="#171717" stroke-width="3.343" stroke-linecap="round" stroke-linejoin="round"/>
<path d="M557.9 412.569L557.911 412.558C563.423 408.43 568.541 403.801 573.2 398.731" stroke="#171717" stroke-width="3.343" stroke-linecap="round" stroke-linejoin="round"/>
<path d="M148.083 292.115C148.216 294.432 147.793 299.524 147.492 305.195C147.202 310.833 147.046 317.05 147.692 321.73C148.249 325.83 149.43 328.749 151.669 329.05C153.619 329.507 155.691 329.908 157.831 330.209C164.861 331.256 172.605 331.345 179.245 329.139C182.432 328.14 185.368 326.473 187.858 324.248C189.052 320.667 189.819 316.957 190.142 313.195C190.542 308.206 190.635 303.196 190.42 298.195C190.331 294.819 190.198 291.466 190.186 288.195" stroke="#171717" stroke-width="3.343" stroke-linecap="round" stroke-linejoin="round"/>
<path d="M179.781 288.873L187.469 288.338C188.362 288.411 189.26 288.301 190.109 288.015C192.984 286.99 194.176 283.803 193.953 280.338C195.691 248.116 226.788 228.205 239.579 200.685C245.228 188.407 248.571 174.168 242.579 161.399C226.791 92.331 116.922 101.579 103.373 167.906C99.1062 189.733 101.613 213.565 109.167 234.445C115.875 256.951 143.451 263.558 144.542 286.345C144.866 290.022 146.002 291.003 148.086 291.114C149.523 291.192 151.417 290.847 153.801 290.68C156.108 290.524 158.414 290.356 160.72 290.2C167.069 289.753 173.423 289.311 179.781 288.873Z" stroke="#171717" stroke-width="3.343" stroke-linecap="round" stroke-linejoin="round"/>
<path d="M157.776 330.577C157.609 333.977 157.631 337.864 160.149 340.159C161.787 341.652 164.104 342.087 166.299 342.399C169.899 342.899 174.01 343.099 176.661 340.638C177.856 339.44 178.69 337.931 179.068 336.282C179.695 333.949 179.756 331.501 179.246 329.14" stroke="#171717" stroke-width="3.343" stroke-linecap="round" stroke-linejoin="round"/>
<path d="M147.348 305.262C147.393 305.24 147.448 305.218 147.493 305.195C160.914 299.127 175.701 296.712 190.356 298.195" stroke="#171717" stroke-width="3.343" stroke-linecap="round" stroke-linejoin="round"/>
<path d="M147.4 321.908C147.5 321.852 147.589 321.787 147.69 321.731C160.29 313.878 175.302 310.843 189.962 313.184" stroke="#171717" stroke-width="3.343" stroke-linecap="round" stroke-linejoin="round"/>
<path d="M143.56 226.634C149.331 220.061 145.376 209.108 149.666 201.434C150.755 199.453 152.385 197.824 154.365 196.734C156.346 195.645 158.596 195.142 160.852 195.283C165.342 195.718 169.409 199.439 169.832 203.929C170.089 206.581 169.175 209.188 168.217 211.673C167.259 214.158 166.234 216.698 166.245 219.35C166.256 222.002 167.582 224.876 170.066 225.812C172.785 226.848 175.871 225.277 177.776 223.093C181.186 219.205 182.033 213.679 184.896 209.367C186.857 206.438 189.674 204.185 192.963 202.916C193.829 202.515 194.789 202.365 195.737 202.481C196.453 202.684 197.11 203.056 197.653 203.566C198.196 204.076 198.609 204.709 198.857 205.411C200.784 209.745 199.202 214.882 196.684 218.893C194.166 222.904 190.723 226.313 188.428 230.469C186.166 234.569 185.128 239.216 184.339 243.828C183.191 250.636 182.556 257.522 181.921 264.396C181.187 272.273 180.456 280.151 179.726 288.028" stroke="#171717" stroke-width="3.343" stroke-linecap="round" stroke-linejoin="round"/>
<path d="M143.559 226.634C142.832 223.676 141.696 220.834 140.183 218.189C138.824 216.061 136.517 214.1 134.033 214.589C133.284 214.784 132.586 215.141 131.991 215.636C131.396 216.131 130.918 216.752 130.59 217.453C128.518 221.464 130.813 226.923 134.969 228.672C136.739 229.457 138.744 229.525 140.562 228.862C141.678 228.394 142.671 227.673 143.462 226.756C143.492 226.712 143.526 226.679 143.559 226.634Z" stroke="#171717" stroke-width="3.343" stroke-linecap="round" stroke-linejoin="round"/>
<path d="M160.717 290.187C159.804 282.087 157.509 274.221 155.217 266.387C151.341 253.173 147.467 239.962 143.596 226.756C143.585 226.711 143.574 226.678 143.563 226.633" stroke="#171717" stroke-width="3.343" stroke-linecap="round" stroke-linejoin="round"/>
<path d="M625.331 180.051C625.32 199.627 625.305 219.199 625.286 238.768" stroke="#171717" stroke-width="3.343" stroke-linecap="round" stroke-linejoin="round"/>
<path d="M332.925 322.555C317.917 322.89 302.898 322.589 287.879 322.6C287.411 343.58 286.943 364.56 285.896 385.518C300.536 384.984 315.18 384.446 329.828 383.902C334.228 383.746 334.028 382.966 334.117 378.702C334.184 375.025 334.296 371.348 334.429 367.671C334.696 360.307 335.079 352.953 335.577 345.611C335.855 341.611 336.16 337.614 336.491 333.622C336.635 332.001 339.7 322.401 332.925 322.555Z" stroke="#171717" stroke-width="3.343" stroke-linecap="round" stroke-linejoin="round"/>
<path d="M304.146 796.816C292.95 798.407 281.67 799.337 270.364 799.602C269.864 798.696 269.683 797.648 269.851 796.627C270.531 784.494 271.207 772.36 271.879 760.227C271.82 759.962 271.828 759.687 271.903 759.426C271.978 759.165 272.117 758.927 272.308 758.734C272.499 758.541 272.735 758.399 272.995 758.321C273.255 758.243 273.531 758.232 273.796 758.288C282.096 758.143 290.401 757.991 298.709 757.831H298.809" stroke="#171717" stroke-width="3.343" stroke-linecap="round" stroke-linejoin="round"/>
<path d="M169.3 354.12C169.3 354.12 168.684 357.381 167.8 362.903" stroke="#171717" stroke-width="3.343" stroke-linecap="round" stroke-linejoin="round"/>
<path d="M165.2 381.3C161.169 413.757 157.641 466.11 173.231 485.6C189.356 505.756 246.942 500.963 276.631 496.951" stroke="#171717" stroke-width="3.343" stroke-linecap="round" stroke-linejoin="round" stroke-dasharray="18.58 18.58"/>
<path d="M285.825 495.6C291.325 494.738 294.608 494.111 294.608 494.111" stroke="#171717" stroke-width="3.343" stroke-linecap="round" stroke-linejoin="round"/>
<path d="M107.578 268.089C105.805 272.534 103.325 276.664 100.233 280.318" stroke="#171717" stroke-width="3.343" stroke-linecap="round" stroke-linejoin="round"/>
<path d="M77.3632 233.933C68.1392 239.481 59.1679 245.423 50.4492 251.759" stroke="#171717" stroke-width="3.343" stroke-linecap="round" stroke-linejoin="round"/>
<path d="M80.6837 170.1C74.0706 169.312 67.4202 168.878 60.7607 168.8" stroke="#171717" stroke-width="3.343" stroke-linecap="round" stroke-linejoin="round"/>
<path d="M99.0851 119.2C94.2274 110.785 88.3937 102.972 81.7051 95.9238" stroke="#171717" stroke-width="3.343" stroke-linecap="round" stroke-linejoin="round"/>
<path d="M260 219.118L275.712 228.063" stroke="#171717" stroke-width="3.343" stroke-linecap="round" stroke-linejoin="round"/>
<path d="M267.315 172.768C268.822 173.338 270.463 173.456 272.035 173.105C290.502 170.748 308.767 166.344 327.379 165.945" stroke="#171717" stroke-width="3.343" stroke-linecap="round" stroke-linejoin="round"/>
<path d="M251.36 126.84C257.194 122.562 263.323 118.702 269.7 115.288" stroke="#171717" stroke-width="3.343" stroke-linecap="round" stroke-linejoin="round"/>
<path d="M209.455 95.8652C217.842 84.7637 225.273 72.9723 231.671 60.6172" stroke="#171717" stroke-width="3.343" stroke-linecap="round" stroke-linejoin="round"/>
<path d="M151.4 92.2254C151.485 86.52 151.047 80.8188 150.092 75.1934" stroke="#171717" stroke-width="3.343" stroke-linecap="round" stroke-linejoin="round"/>
<path d="M289.827 825.633C301.129 825.104 312.399 824.144 323.636 822.751" stroke="#171717" stroke-width="3.343" stroke-linecap="round" stroke-linejoin="round"/>
<path d="M293.743 847.031L335.462 843.085" stroke="#171717" stroke-width="3.343" stroke-linecap="round" stroke-linejoin="round"/>
<path d="M363.824 326.958C380.104 326.172 396.422 326.817 412.589 328.885" stroke="#171717" stroke-width="3.343" stroke-linecap="round" stroke-linejoin="round"/>
<path d="M358.601 345.526C387.691 348.361 416.871 349.832 446.142 349.939" stroke="#171717" stroke-width="3.343" stroke-linecap="round" stroke-linejoin="round"/>
<path d="M354.9 367.601C385.324 366.482 415.785 366.957 446.158 369.023" stroke="#171717" stroke-width="3.343" stroke-linecap="round" stroke-linejoin="round"/>
<path d="M314.538 439.059L310.188 428.11" stroke="#171717" stroke-width="3.343" stroke-linecap="round" stroke-linejoin="round"/>
<path d="M300.826 451.822C286.957 443.622 276.672 430.457 263.273 421.511" stroke="#171717" stroke-width="3.343" stroke-linecap="round" stroke-linejoin="round"/>
<path d="M293.723 468.282C292.813 467.806 291.796 467.57 290.769 467.596L279.483 466.941" stroke="#171717" stroke-width="3.343" stroke-linecap="round" stroke-linejoin="round"/>
<path d="M744.614 804.265C725.486 799.884 706.38 792.711 692.087 779.265C677.794 765.819 669.18 745.083 674.245 726.124C676.152 718.987 679.831 712.468 683.592 706.111C694.554 687.585 706.539 669.684 719.492 652.491C740.545 624.545 765.475 594.562 762.964 559.664C759.364 509.606 700.735 476.182 698.748 426.035C697.348 390.769 724.51 361.646 749.78 337.006" stroke="#171717" stroke-width="3.343" stroke-linecap="round" stroke-linejoin="round"/>
<path d="M663.92 389.784L629.674 346.162" stroke="#171717" stroke-width="3.343" stroke-linecap="round" stroke-linejoin="round"/>
<path d="M628.101 391.116C640.755 377.023 653.41 362.931 666.065 348.838" stroke="#171717" stroke-width="3.343" stroke-linecap="round" stroke-linejoin="round"/>
<path d="M708.952 341.014L751.414 335.051" stroke="#171717" stroke-width="3.343" stroke-linecap="round" stroke-linejoin="round"/>
<path d="M787.011 720.664C779.19 708.968 771.37 697.272 763.55 685.574" stroke="#171717" stroke-width="3.343" stroke-linecap="round" stroke-linejoin="round"/>
<path d="M745.066 382.97C747.488 367.25 749.911 351.53 752.333 335.81" stroke="#171717" stroke-width="3.343" stroke-linecap="round" stroke-linejoin="round"/>
<path d="M793.519 685.154C777.852 697.726 764.082 712.493 752.635 729" stroke="#171717" stroke-width="3.343" stroke-linecap="round" stroke-linejoin="round"/>
<path d="M655.9 546.75C654.608 552.825 655.656 559.664 659.849 564.25C661.947 566.44 664.519 568.12 667.367 569.16C687.574 577.017 708.135 556.46 697.267 536.54C686.751 517.255 659.893 527.99 655.9 546.75Z" stroke="#171717" stroke-width="3.343" stroke-linecap="round" stroke-linejoin="round"/>
<path d="M550.477 154.879C550.518 155.051 550.729 155.537 550.531 155.308C548.756 149.26 545.446 143.608 542.911 137.832C542.161 135.936 541.273 134.097 540.252 132.332" stroke="#171717" stroke-width="3.343" stroke-linecap="round" stroke-linejoin="round"/>
<path d="M535.348 151.301C541.756 146.185 548.34 141.299 555.098 136.645" stroke="#171717" stroke-width="3.343" stroke-linecap="round" stroke-linejoin="round"/>
<path d="M903.407 297.3C911.386 290.268 919.04 282.889 926.369 275.164" stroke="#171717" stroke-width="3.343" stroke-linecap="round" stroke-linejoin="round"/>
<path d="M919.957 297.832C915.637 288.404 910.706 279.268 905.194 270.482" stroke="#171717" stroke-width="3.343" stroke-linecap="round" stroke-linejoin="round"/>
<path d="M894.139 488.1C890.539 481.382 886.525 474.896 882.118 468.678" stroke="#171717" stroke-width="3.343" stroke-linecap="round" stroke-linejoin="round"/>
<path d="M879.91 486.929L900.049 467.754" stroke="#171717" stroke-width="3.343" stroke-linecap="round" stroke-linejoin="round"/>
<path d="M156.622 690.521C151.689 681.479 146.364 672.667 140.648 664.086" stroke="#171717" stroke-width="3.343" stroke-linecap="round" stroke-linejoin="round"/>
<path d="M136.7 687.765C145.01 679.554 153.12 671.148 161.029 662.547" stroke="#171717" stroke-width="3.343" stroke-linecap="round" stroke-linejoin="round"/>
<path d="M120.81 505.202L106.042 499.037L94.4688 510.09L93.6008 491.389L80.5498 480.454L94.7798 475.061L98.2858 457.25L107.95 472.617L123.168 472.544L114.91 487.435L120.81 505.202Z" stroke="#171717" stroke-width="3.343" stroke-linecap="round" stroke-linejoin="round"/>
<path d="M920.11 568.12L930.449 579.284L913.892 583.261L904.778 599.618L899.352 584.565L883.375 583.495L896.578 570.227L895.82 553.212L909.413 560.053L924.912 550.605L920.11 568.12Z" fill="url(#paint8_linear_38_4061)"/>
<path d="M472.387 166.547L458.204 170.524L452.666 184.674L445.391 172.173L430.917 171.884L440.611 160.174L437.201 145.834L450.471 151.104L462.839 142.536L461.346 157.5L472.387 166.547Z" fill="url(#paint9_linear_38_4061)"/>
<path d="M452.666 184.674L445.391 172.173L430.917 171.884L440.611 160.174L437.201 145.834L450.471 151.104L462.839 142.536L461.346 157.5L472.387 166.547L458.204 170.524L452.666 184.674Z" stroke="#171717" stroke-width="3.343" stroke-linecap="round" stroke-linejoin="round"/>
<path d="M904.778 599.618L899.352 584.565L883.375 583.495L896.578 570.227L895.82 553.212L909.413 560.053L924.912 550.605L920.11 568.12L930.449 579.284L913.892 583.261L904.778 599.618Z" stroke="#171717" stroke-width="3.343" stroke-linecap="round" stroke-linejoin="round"/>
<path d="M517 423.282C522.87 422.335 528.839 422.157 534.755 422.751" stroke="url(#paint10_linear_38_4061)" stroke-width="3.343" stroke-linecap="round" stroke-linejoin="round"/>
<path d="M525.756 480.468L529.072 461.623" stroke="url(#paint11_linear_38_4061)" stroke-width="3.343" stroke-linecap="round" stroke-linejoin="round"/>
<path d="M486.747 508.861C488.653 501.979 489.859 494.921 490.347 487.797" stroke="url(#paint12_linear_38_4061)" stroke-width="3.343" stroke-linecap="round" stroke-linejoin="round"/>
<path d="M490.221 552.185C484.139 550.282 477.71 549.747 471.396 550.617" stroke="url(#paint13_linear_38_4061)" stroke-width="3.343" stroke-linecap="round" stroke-linejoin="round"/>
<path d="M441.859 581.222C442.951 574.413 443.65 567.546 443.952 560.656" stroke="url(#paint14_linear_38_4061)" stroke-width="3.343" stroke-linecap="round" stroke-linejoin="round"/>
<path d="M450.28 627.994C442.862 625.759 435.118 624.807 427.38 625.178" stroke="url(#paint15_linear_38_4061)" stroke-width="3.343" stroke-linecap="round" stroke-linejoin="round"/>
<path d="M423.387 672.505C426.231 664.972 429.075 657.439 431.921 649.906C432.046 649.575 432.215 649.205 432.556 649.105" stroke="url(#paint16_linear_38_4061)" stroke-width="3.343" stroke-linecap="round" stroke-linejoin="round"/>
<path d="M406.8 601.044C409.333 596.771 410.986 592.034 411.662 587.112" stroke="url(#paint17_linear_38_4061)" stroke-width="3.343" stroke-linecap="round" stroke-linejoin="round"/>
<path d="M370.2 618.206C364.34 615.06 358.479 611.913 352.617 608.766" stroke="url(#paint18_linear_38_4061)" stroke-width="3.343" stroke-linecap="round" stroke-linejoin="round"/>
<path d="M340.9 672.486C344.364 667.524 347.344 662.242 349.8 656.712" stroke="url(#paint19_linear_38_4061)" stroke-width="3.343" stroke-linecap="round" stroke-linejoin="round"/>
<path d="M350.718 724.807C345.989 721.001 341.495 716.913 337.26 712.565" stroke="url(#paint20_linear_38_4061)" stroke-width="3.343" stroke-linecap="round" stroke-linejoin="round"/>
<path d="M337.801 753.037L322.685 742.7C322.436 742.53 322.154 742.278 322.231 741.986C322.308 741.694 322.905 741.9 322.687 742.107" stroke="url(#paint21_linear_38_4061)" stroke-width="3.343" stroke-linecap="round" stroke-linejoin="round"/>
<path d="M360.906 803.909C362.765 797.019 365.018 790.241 367.654 783.609" stroke="url(#paint22_linear_38_4061)" stroke-width="3.343" stroke-linecap="round" stroke-linejoin="round"/>
<path d="M388.124 859.155C392.096 852.682 395.642 845.958 398.742 839.024" stroke="url(#paint23_linear_38_4061)" stroke-width="3.343" stroke-linecap="round" stroke-linejoin="round"/>
<path d="M444.118 821.672C438.678 815.26 433.402 808.714 428.289 802.032" stroke="url(#paint24_linear_38_4061)" stroke-width="3.343" stroke-linecap="round" stroke-linejoin="round"/>
<path d="M479.716 832.318C483.246 827.429 485.265 821.638 487.238 815.939C487.826 814.238 488.415 812.538 489.005 810.839" stroke="url(#paint25_linear_38_4061)" stroke-width="3.343" stroke-linecap="round" stroke-linejoin="round"/>
<path d="M496.393 784.747C491.313 782.202 485.898 780.393 480.309 779.375" stroke="url(#paint26_linear_38_4061)" stroke-width="3.343" stroke-linecap="round" stroke-linejoin="round"/>
<path d="M536.316 740.408C530.26 741.98 524.427 735.249 518.316 736.583" stroke="url(#paint27_linear_38_4061)" stroke-width="3.343" stroke-linecap="round" stroke-linejoin="round"/>
<path d="M533.863 794.128C536.769 786.962 535.142 778.74 537.005 771.235" stroke="url(#paint28_linear_38_4061)" stroke-width="3.343" stroke-linecap="round" stroke-linejoin="round"/>
<path d="M567.87 744.226C568.411 736.046 568.951 727.867 569.492 719.687" stroke="url(#paint29_linear_38_4061)" stroke-width="3.343" stroke-linecap="round" stroke-linejoin="round"/>
<g opacity="0.1">
<path d="M167.851 112.668C152.63 114.586 137.896 120.552 126.269 130.704C113.817 141.578 103.813 154.949 100.369 171.429C96.5388 189.06 98.6849 207.465 106.469 223.743C113.769 239.491 125.092 252.474 134.518 266.878C144.054 281.451 153.884 301.119 145.575 318.502C140.34 329.453 156.537 336.461 161 325C173.658 292.474 152.712 260.174 135.337 234.09C126.469 220.776 118.874 207.481 116.886 191.324C114.935 175.477 119.969 160.471 127.231 146.64C130.702 140.032 138.32 133.257 144.555 129.313C151.969 124.575 160.162 121.183 168.755 119.293C172.41 118.516 171.667 112.184 167.855 112.664L167.851 112.668Z" fill="#171717"/>
</g>
<g opacity="0.1">
<path d="M465.93 198.936C462.085 203.16 461.666 211.163 463.341 216.428C465.522 223.288 469.82 229.888 475.912 233.837C490.919 243.565 510.359 243.275 527.618 242.792C537.59 242.512 547.55 241.921 557.502 241.247C566.467 240.639 575.634 240.423 584.473 238.696C592.753 237.078 601.628 233.566 607.39 227.122C612.007 221.958 613.564 212.179 611.677 205.697C610.777 202.609 605.844 201.46 604.309 204.734C603.302 207.224 601.701 209.431 599.646 211.162C598.028 212.422 595.308 213.617 593.323 214.889C588.306 218.103 582.358 219.063 576.531 219.677C561.638 221.248 546.565 222.077 531.605 222.665C517.547 223.218 503.059 224.443 489.075 222.355C483.988 221.596 478.669 219.433 474.975 215.761C473.12 213.796 471.66 211.493 470.675 208.978C469.515 206.124 470.054 203.568 469.927 200.594C469.845 198.673 467.359 197.363 465.927 198.936H465.93Z" fill="#171717"/>
</g>
<g opacity="0.1">
<path d="M637.888 201.533C635.388 207.792 637.128 213.525 639.588 219.485C642.699 227.017 648.282 231.085 655.747 233.946C663.061 236.751 671.493 237.485 679.241 238.153C687.799 238.891 696.402 239.145 704.987 239.292C723.081 239.6 741.193 239.324 759.287 239.278C776.713 239.234 794.512 240.232 811.887 238.814C820.548 238.107 829.779 236.393 837.126 231.43C843.389 227.199 849.884 217.281 846.318 209.752C845.343 207.694 842.627 206.917 840.572 207.414C836.986 208.279 834.636 211.283 831.406 212.875C828.597 214.26 825.969 216.085 823.068 217.262C815.615 220.288 807.143 219.98 799.268 219.998C779.611 220.042 759.955 220.061 740.298 220.056C721.551 220.075 702.73 220.597 683.998 219.716C673.638 219.229 641.274 220.529 644.032 203.228C644.232 202.421 644.11 201.568 643.69 200.85C643.271 200.132 642.587 199.607 641.786 199.385C640.985 199.163 640.129 199.263 639.4 199.664C638.671 200.064 638.128 200.733 637.885 201.528L637.888 201.533Z" fill="#171717"/>
</g>
<g opacity="0.1">
<path d="M337.551 465.9C329.259 466.749 324.651 479.216 323.413 486.251C322.553 490.848 322.537 495.564 323.365 500.168C323.903 503.022 324.965 505.708 325.73 508.499C326.093 509.62 326.356 510.771 326.518 511.939C326.621 512.698 326.605 513.468 326.473 514.223C326.127 515.685 326.72 515.385 328.253 513.323C317.98 517.032 324.37 532.301 334.073 527.123C331.797 526.656 331.324 527.002 332.654 528.161L333.525 529.503C334.593 531.094 335.586 532.75 336.612 534.368L342.786 544.098C346.786 550.408 350.412 557.737 355.662 563.098C360.377 567.912 369.888 563.033 367.45 556.236C365.509 550.824 362.129 546.088 359.121 541.219L350.039 526.519C347.401 522.25 345.023 517.379 340.725 514.535C338.647 513.081 336.19 512.263 333.655 512.182C331.12 512.101 328.616 512.76 326.449 514.079L337.814 520.6C337.931 515.759 338.938 511.96 337.608 507.073C336.3 502.267 333.944 497.814 333.52 492.783C333.198 488.549 333.784 484.295 335.24 480.306C336.651 476.342 340.072 472.874 340.27 468.606C340.268 467.885 339.981 467.195 339.471 466.686C338.962 466.177 338.272 465.889 337.551 465.887V465.9Z" fill="#171717"/>
</g>
<g opacity="0.1">
<path d="M360.732 581.869C360.801 581.283 360.798 580.69 360.722 580.105C360.699 579.742 360.642 579.381 360.553 579.029C360.454 578.557 360.461 578.691 360.574 579.429C360.953 577.884 359.853 580.867 360.025 580.894C360.126 580.683 360.24 580.479 360.365 580.283C360.676 579.793 360.502 579.993 359.844 580.883L356.358 582.914L356.627 582.843C357.906 582.5 359.086 581.858 360.067 580.969C361.048 580.079 361.803 578.969 362.269 577.729C362.736 576.489 362.899 575.156 362.747 573.841C362.595 572.525 362.131 571.265 361.394 570.164C360.658 569.064 359.669 568.155 358.511 567.513C357.352 566.871 356.057 566.515 354.734 566.474C353.41 566.433 352.095 566.708 350.899 567.276C349.703 567.845 348.66 568.69 347.856 569.743C345.221 573.153 345.721 577.543 348.509 580.698L348.673 580.884L346.641 577.398C346.783 578.02 346.975 578.629 347.217 579.22C347.481 579.93 347.783 580.625 348.123 581.302C347.804 580.466 347.768 580.409 348.014 581.129C348.65 583.471 350.164 585.479 352.241 586.736C356.198 589.05 360.351 586.003 360.732 581.864V581.869Z" fill="#171717"/>
</g>
</g>
<defs>
<linearGradient id="paint0_linear_38_4061" x1="741.212" y1="178.936" x2="741.212" y2="237.922" gradientUnits="userSpaceOnUse">
<stop stop-color="#FF5757"/>
<stop offset="1" stop-color="#F02356"/>
</linearGradient>
<linearGradient id="paint1_linear_38_4061" x1="537.778" y1="179.46" x2="537.778" y2="238.446" gradientUnits="userSpaceOnUse">
<stop stop-color="#FF5757"/>
<stop offset="1" stop-color="#F02356"/>
</linearGradient>
<linearGradient id="paint2_linear_38_4061" x1="487.157" y1="547.362" x2="487.157" y2="697.866" gradientUnits="userSpaceOnUse">
<stop stop-color="#FF5757"/>
<stop offset="1" stop-color="#F02356"/>
</linearGradient>
<linearGradient id="paint3_linear_38_4061" x1="379.952" y1="267.101" x2="379.952" y2="697.611" gradientUnits="userSpaceOnUse">
<stop stop-color="#FF5757"/>
<stop offset="1" stop-color="#F02356"/>
</linearGradient>
<linearGradient id="paint4_linear_38_4061" x1="287.174" y1="757.831" x2="287.174" y2="799.602" gradientUnits="userSpaceOnUse">
<stop stop-color="#FF5757"/>
<stop offset="1" stop-color="#F02356"/>
</linearGradient>
<linearGradient id="paint5_linear_38_4061" x1="173.524" y1="113.708" x2="173.524" y2="291.122" gradientUnits="userSpaceOnUse">
<stop stop-color="#FF5757"/>
<stop offset="1" stop-color="#F02356"/>
</linearGradient>
<linearGradient id="paint6_linear_38_4061" x1="171.639" y1="195.259" x2="171.639" y2="290.198" gradientUnits="userSpaceOnUse">
<stop stop-color="#FF5757"/>
<stop offset="1" stop-color="#F02356"/>
</linearGradient>
<linearGradient id="paint7_linear_38_4061" x1="136.686" y1="214.515" x2="136.686" y2="229.316" gradientUnits="userSpaceOnUse">
<stop stop-color="#FF5757"/>
<stop offset="1" stop-color="#F02356"/>
</linearGradient>
<linearGradient id="paint8_linear_38_4061" x1="906.912" y1="550.605" x2="906.912" y2="599.618" gradientUnits="userSpaceOnUse">
<stop stop-color="#FF5757"/>
<stop offset="1" stop-color="#F02356"/>
</linearGradient>
<linearGradient id="paint9_linear_38_4061" x1="451.652" y1="142.536" x2="451.652" y2="184.674" gradientUnits="userSpaceOnUse">
<stop stop-color="#FF5757"/>
<stop offset="1" stop-color="#F02356"/>
</linearGradient>
<linearGradient id="paint10_linear_38_4061" x1="525.878" y1="422.408" x2="525.878" y2="423.282" gradientUnits="userSpaceOnUse">
<stop stop-color="#FF5757"/>
<stop offset="1" stop-color="#F02356"/>
</linearGradient>
<linearGradient id="paint11_linear_38_4061" x1="527.414" y1="461.623" x2="527.414" y2="480.468" gradientUnits="userSpaceOnUse">
<stop stop-color="#FF5757"/>
<stop offset="1" stop-color="#F02356"/>
</linearGradient>
<linearGradient id="paint12_linear_38_4061" x1="488.547" y1="487.797" x2="488.547" y2="508.861" gradientUnits="userSpaceOnUse">
<stop stop-color="#FF5757"/>
<stop offset="1" stop-color="#F02356"/>
</linearGradient>
<linearGradient id="paint13_linear_38_4061" x1="480.809" y1="550.212" x2="480.809" y2="552.185" gradientUnits="userSpaceOnUse">
<stop stop-color="#FF5757"/>
<stop offset="1" stop-color="#F02356"/>
</linearGradient>
<linearGradient id="paint14_linear_38_4061" x1="442.906" y1="560.656" x2="442.906" y2="581.222" gradientUnits="userSpaceOnUse">
<stop stop-color="#FF5757"/>
<stop offset="1" stop-color="#F02356"/>
</linearGradient>
<linearGradient id="paint15_linear_38_4061" x1="438.83" y1="625.1" x2="438.83" y2="627.994" gradientUnits="userSpaceOnUse">
<stop stop-color="#FF5757"/>
<stop offset="1" stop-color="#F02356"/>
</linearGradient>
<linearGradient id="paint16_linear_38_4061" x1="427.971" y1="649.105" x2="427.971" y2="672.505" gradientUnits="userSpaceOnUse">
<stop stop-color="#FF5757"/>
<stop offset="1" stop-color="#F02356"/>
</linearGradient>
<linearGradient id="paint17_linear_38_4061" x1="409.231" y1="587.112" x2="409.231" y2="601.044" gradientUnits="userSpaceOnUse">
<stop stop-color="#FF5757"/>
<stop offset="1" stop-color="#F02356"/>
</linearGradient>
<linearGradient id="paint18_linear_38_4061" x1="361.409" y1="608.766" x2="361.409" y2="618.206" gradientUnits="userSpaceOnUse">
<stop stop-color="#FF5757"/>
<stop offset="1" stop-color="#F02356"/>
</linearGradient>
<linearGradient id="paint19_linear_38_4061" x1="345.35" y1="656.712" x2="345.35" y2="672.486" gradientUnits="userSpaceOnUse">
<stop stop-color="#FF5757"/>
<stop offset="1" stop-color="#F02356"/>
</linearGradient>
<linearGradient id="paint20_linear_38_4061" x1="343.989" y1="712.565" x2="343.989" y2="724.807" gradientUnits="userSpaceOnUse">
<stop stop-color="#FF5757"/>
<stop offset="1" stop-color="#F02356"/>
</linearGradient>
<linearGradient id="paint21_linear_38_4061" x1="330.009" y1="741.841" x2="330.009" y2="753.037" gradientUnits="userSpaceOnUse">
<stop stop-color="#FF5757"/>
<stop offset="1" stop-color="#F02356"/>
</linearGradient>
<linearGradient id="paint22_linear_38_4061" x1="364.28" y1="783.609" x2="364.28" y2="803.909" gradientUnits="userSpaceOnUse">
<stop stop-color="#FF5757"/>
<stop offset="1" stop-color="#F02356"/>
</linearGradient>
<linearGradient id="paint23_linear_38_4061" x1="393.433" y1="839.024" x2="393.433" y2="859.155" gradientUnits="userSpaceOnUse">
<stop stop-color="#FF5757"/>
<stop offset="1" stop-color="#F02356"/>
</linearGradient>
<linearGradient id="paint24_linear_38_4061" x1="436.204" y1="802.032" x2="436.204" y2="821.672" gradientUnits="userSpaceOnUse">
<stop stop-color="#FF5757"/>
<stop offset="1" stop-color="#F02356"/>
</linearGradient>
<linearGradient id="paint25_linear_38_4061" x1="484.36" y1="810.839" x2="484.36" y2="832.318" gradientUnits="userSpaceOnUse">
<stop stop-color="#FF5757"/>
<stop offset="1" stop-color="#F02356"/>
</linearGradient>
<linearGradient id="paint26_linear_38_4061" x1="488.351" y1="779.375" x2="488.351" y2="784.747" gradientUnits="userSpaceOnUse">
<stop stop-color="#FF5757"/>
<stop offset="1" stop-color="#F02356"/>
</linearGradient>
<linearGradient id="paint27_linear_38_4061" x1="527.316" y1="736.407" x2="527.316" y2="740.648" gradientUnits="userSpaceOnUse">
<stop stop-color="#FF5757"/>
<stop offset="1" stop-color="#F02356"/>
</linearGradient>
<linearGradient id="paint28_linear_38_4061" x1="535.434" y1="771.235" x2="535.434" y2="794.128" gradientUnits="userSpaceOnUse">
<stop stop-color="#FF5757"/>
<stop offset="1" stop-color="#F02356"/>
</linearGradient>
<linearGradient id="paint29_linear_38_4061" x1="568.681" y1="719.687" x2="568.681" y2="744.226" gradientUnits="userSpaceOnUse">
<stop stop-color="#FF5757"/>
<stop offset="1" stop-color="#F02356"/>
</linearGradient>
<clipPath id="clip0_38_4061">
<rect width="960" height="960" fill="white"/>
</clipPath>
</defs>
</svg>
