<svg transform="scale(1)" id="AqTUp3F5gZ" xmlns="http://www.w3.org/2000/svg" viewBox="0 0 500 500" class="pbimage_pbimage__wrapper__image__0LEis false"><title>HTML</title><defs><style> .cls-1{fill:#fff;} .cls-2{fill:#a5a5a5;} .cls-3{opacity:.58;} .cls-3, .cls-4, .cls-5, .cls-6{fill:none;} .cls-4{opacity:.44;} .cls-7{fill:#e6e6e6;} .cls-5{opacity:.03;} .cls-6{opacity:.73;} .cls-8{fill:#24285b;} .cls-9{fill:#000001;} .cls-10{fill:#ffd200;} .cls-11{fill:#68e1fd;}
 .cls-11{fill:#c4c4c4;}
 .cls-10{fill:#a8afb8;}
 .cls-9{fill:#000001;}
 .cls-8{fill:#c65370;}
 .cls-7{fill:#E6E6E6;}
 .cls-2{fill:#A5A5A5;}
 .cls-1{fill:#FFFFFF;}</style></defs><g class="cls-5" id="sd"><ellipse class="cls-9" cx="247.28" cy="404.77" rx="227.37" ry="53.26" fill="#000001"></ellipse></g><g id="monitor"><rect class="cls-8" x="75.3" y="75.43" width="341.57" height="221.94"></rect><polygon class="cls-2" points="220.28 272.02 207.3 354.44 293.83 354.44 273.94 272.02 220.28 272.02"></polygon><rect class="cls-7" x="187.56" y="339.99" width="121.7" height="26.49"></rect><circle class="cls-1" cx="103.08" cy="97.57" r="5.98"></circle><circle class="cls-11" cx="120.86" cy="97.57" r="5.98"></circle><circle class="cls-10" cx="137.61" cy="97.57" r="5.98"></circle><rect class="cls-7" x="75.3" y="254.53" width="341.57" height="42.84"></rect><circle class="cls-2" cx="249.78" cy="275.95" r="11.67"></circle><rect class="cls-11" x="200.05" y="200.69" width="99.46" height="7.26"></rect><rect class="cls-10" x="244.37" y="219.76" width="99.46" height="7.26"></rect><rect class="cls-11" x="176.12" y="183.15" width="83.47" height="7.26"></rect><rect class="cls-11" x="276.93" y="183.15" width="83.47" height="7.26"></rect><rect class="cls-10" x="200.05" y="162.93" width="74.62" height="7.26"></rect><rect class="cls-10" x="294.1" y="162.93" width="74.62" height="7.26"></rect><rect class="cls-1" x="145.15" y="200.69" width="37.41" height="7.26"></rect><rect class="cls-1" x="182.4" y="219.76" width="37.41" height="7.26"></rect><rect class="cls-1" x="121.21" y="183.15" width="37.41" height="7.26"></rect><rect class="cls-1" x="121.21" y="127.94" width="37.41" height="7.26"></rect><rect class="cls-1" x="145.15" y="146.1" width="37.41" height="7.26"></rect><rect class="cls-10" x="200.05" y="146.1" width="74.62" height="7.26"></rect><rect class="cls-10" x="294.1" y="146.1" width="74.62" height="7.26"></rect><rect class="cls-1" x="145.15" y="162.93" width="37.41" height="7.26"></rect><rect class="cls-11" x="173.57" y="127.94" width="77.06" height="7.26"></rect><rect class="cls-11" x="266.75" y="127.94" width="54.71" height="7.26"></rect></g><g id="code"><rect class="cls-10" x="344.87" y="29.07" width="129.79" height="89.23"></rect><path class="cls-1" d="m392.33,91.2c-.65,0-1.31-.21-1.86-.65l-19.46-15.38c-.72-.57-1.14-1.43-1.14-2.34,0-.91.41-1.78,1.12-2.35l19.46-15.66c1.29-1.04,3.18-.84,4.23.46,1.04,1.29.84,3.18-.46,4.22l-16.52,13.3,16.5,13.04c1.3,1.03,1.52,2.92.49,4.22-.59.75-1.47,1.14-2.36,1.14Z"></path><path class="cls-1" d="m427.56,91.2c-.89,0-1.77-.39-2.36-1.14-1.03-1.3-.81-3.19.49-4.22l16.5-13.04-16.52-13.3c-1.29-1.04-1.5-2.93-.46-4.22,1.04-1.29,2.93-1.5,4.23-.46l19.46,15.66c.71.57,1.12,1.44,1.12,2.35,0,.91-.42,1.78-1.14,2.34l-19.46,15.38c-.55.44-1.21.65-1.86.65Z"></path><path class="cls-1" d="m401.78,91.2c-.42,0-.84-.09-1.25-.27-1.51-.69-2.18-2.47-1.48-3.98l14.18-31.04c.69-1.51,2.47-2.17,3.98-1.48,1.51.69,2.18,2.47,1.48,3.98l-14.18,31.04c-.5,1.11-1.59,1.76-2.73,1.76Z"></path></g><g id="tab"><polygon class="cls-7" points="362.72 388.63 255 388.63 243.67 388.63 135.95 388.63 109.65 458.03 243.67 458.03 255 458.03 389.03 458.03 362.72 388.63"></polygon><g class="cls-4"><polygon class="cls-1" points="297.65 400.2 240.72 400.2 232.12 400.2 145.21 400.2 130.38 446.46 232.12 446.46 240.72 446.46 314.33 446.46 297.65 400.2"></polygon></g><polygon class="cls-2" points="309.25 400.2 327.31 446.46 371.8 446.46 352.82 400.2 309.25 400.2"></polygon><polygon class="cls-2" points="109.65 458.03 119.26 470.93 377.73 470.93 389.03 458.03 109.65 458.03"></polygon></g><g id="plant"><g class="cls-3"><path class="cls-11" d="m66.92,370.14s-25.76-7.04-31.37-31.01c0,0,39.92-8.07,41.06,33.13l-9.69-2.12Z"></path></g><g class="cls-6"><path class="cls-11" d="m70.08,367.59s-18-28.46-2.16-55.06c0,0,30.35,19.28,16.87,55.12l-14.71-.06Z"></path></g><path class="cls-11" d="m74.72,367.61s9.51-30.05,38.26-35.74c0,0,5.39,19.51-18.62,35.83l-19.64-.08Z"></path><polygon class="cls-8" points="56.03 366.93 61.26 402.66 94.15 402.8 99 367.11 56.03 366.93"></polygon></g></svg>