<svg transform="scale(1)" version="1.1" id="oTeMkt1aHE" xmlns="http://www.w3.org/2000/svg" xmlns:xlink="http://www.w3.org/1999/xlink" x="0px" y="0px" viewBox="0 0 500 500" xml:space="preserve" class="pbimage_pbimage__wrapper__image__0LEis false"><title>Landing Page</title><style type="text/css"> .st0{fill:#FFFFFF;} .st1{fill:#231F20;} .st2{fill:#68E1FD;} .st3{fill:#D1D3D4;}
 .st3{fill:#f7f7f7;}
 .st2{fill:#c65370;}
 .st1{fill:#231F20;}
 .st0{fill:#c4c9cf;}</style><g id="Screen_Frame"><path class="st0" d="M31.1,104.7h437.7c6.8,0,12.3,5.5,12.3,12.3v266c0,6.8-5.5,12.3-12.3,12.3H31.1c-6.8,0-12.3-5.5-12.3-12.3V117
		C18.8,110.2,24.3,104.7,31.1,104.7z" fill="#c4c9cf"></path><path class="st1" d="M468.9,104.7c6.8,0,12.3,5.5,12.3,12.3c0,0,0,0,0,0v266c0,6.8-5.5,12.3-12.3,12.3c0,0,0,0,0,0H31.1
		c-6.8,0-12.3-5.5-12.3-12.3c0,0,0,0,0,0V117c0-6.8,5.5-12.3,12.3-12.3c0,0,0,0,0,0H468.9 M468.9,103.3H31.1
		c-7.6,0-13.7,6.1-13.7,13.7v266c0,7.6,6.1,13.7,13.7,13.7h437.8c7.6,0,13.7-6.1,13.7-13.7V117C482.6,109.4,476.4,103.3,468.9,103.3
		L468.9,103.3z" fill="#231F20"></path><path class="st0" d="M481.2,117v16.6H18.8V117c0-6.8,5.5-12.3,12.3-12.3h437.8C475.7,104.7,481.2,110.2,481.2,117z" fill="#c4c9cf"></path><path class="st1" d="M468.9,104.7c6.8,0,12.3,5.5,12.3,12.3v16.6H18.8V117c0-6.8,5.5-12.3,12.3-12.3H468.9 M468.9,103.3H31.1
		c-7.6,0-13.7,6.1-13.7,13.7v18h465.2v-18C482.6,109.4,476.4,103.3,468.9,103.3L468.9,103.3z" fill="#231F20"></path></g><path class="st2" id="Background" d="M481.2,117v266c0,6.8-5.5,12.3-12.3,12.3c0,0,0,0,0,0h-169c-68.3-84.8-68.3-205.8,0-290.6h169
	C475.7,104.7,481.2,110.2,481.2,117C481.2,117,481.2,117,481.2,117z"></path><g id="Laptop"><path class="st1" d="M481.2,339.3v7.7H337.9c-2,0-4.3-1.7-4.3-3.7v-3.9L481.2,339.3z"></path><path class="st0" d="M481.2,292.7v23.9H354.7c-0.9,0-1.7-0.4-2.2-1.1c-0.5-0.7-0.7-1.6-0.4-2.5l1.2-4.2l0.2-0.7l0.2-0.7l3.8-12.6
		c0.4-1.3,1.6-2.2,2.9-2.2L481.2,292.7z"></path><path class="st1" d="M481.2,292.7v23.9H354.7c-0.9,0-1.7-0.4-2.2-1.1c-0.5-0.7-0.7-1.6-0.4-2.5l1.2-4.2l0.2-0.7l0.2-0.7l3.8-12.6
		c0.4-1.3,1.6-2.2,2.9-2.2L481.2,292.7 M482.6,291.3H360.4c-2,0-3.7,1.3-4.3,3.2l-3.8,12.6l-0.2,0.7l-0.2,0.7l-1.2,4.2
		c-0.7,2.2,0.6,4.5,2.8,5.2c0.4,0.1,0.8,0.2,1.2,0.2h127.9V291.3L482.6,291.3z"></path><path class="st1" d="M481.2,286.5v1.3H358.8c-0.3,0-0.7,0-1,0c-3.6,0.4-6.6,2.8-7.7,6.2l-4.5,13.4l-0.2,0.7l-0.2,0.7l-10.1,30
		c-0.1,0.1-0.1,0.3-0.1,0.5l0,0c0,0.1,0,0.2,0,0.3c0,1.3,1.1,2.3,2.4,2.3h144v1.3h-144c-1.2,0-2.3-0.6-3-1.5
		c-0.4-0.6-0.6-1.2-0.6-1.9c0-0.1,0-0.1,0-0.2c0-0.1,0-0.2,0-0.3v-0.1c0-0.3,0.1-0.5,0.2-0.8l10-29.5l0.2-0.7l0.2-0.7l4.7-13.9
		c0.9-2.7,3-5,5.6-6.2c0.3-0.2,0.7-0.3,1-0.4c1-0.4,2.1-0.5,3.2-0.5L481.2,286.5z"></path><path class="st0" d="M398.3,336.2c-0.7,0-1.3-0.3-1.7-0.9c-0.4-0.5-0.6-1.2-0.4-1.9l2.2-10.1c0.4-1.7,1.8-2.9,3.5-2.9h39.4
		c1.7,0,3.2,1.2,3.5,2.9l2.2,10.1c0.3,1.2-0.5,2.4-1.7,2.7c-0.1,0-0.3,0-0.4,0H398.3z"></path><path class="st0" d="M444.1,323.5c-0.3-1.3-1.5-2.3-2.9-2.3h-39.4c-1.4,0-2.6,1-2.9,2.3l-2.2,10.1c-0.1,0.5,0,0.9,0.3,1.3
		c0.3,0.4,0.7,0.6,1.2,0.6h46.5c0.9,0,1.5-0.7,1.5-1.6c0-0.1,0-0.2,0-0.3L444.1,323.5z"></path><path class="st1" d="M441.3,321.2c1.4,0,2.6,1,2.9,2.3l2.2,10.1c0.2,0.8-0.3,1.7-1.2,1.8c-0.1,0-0.2,0-0.3,0h-46.5
		c-0.5,0-0.9-0.2-1.2-0.6c-0.3-0.4-0.4-0.8-0.3-1.3l2.2-10.1c0.3-1.3,1.5-2.3,2.9-2.3H441.3 M441.3,319.8h-39.4
		c-2,0-3.8,1.4-4.2,3.4l-2.2,10.1c-0.2,0.9,0,1.8,0.6,2.5c0.5,0.7,1.4,1.1,2.3,1.1h46.5c1.6,0,2.9-1.3,2.9-3c0-0.2,0-0.4-0.1-0.6
		l-2.2-10.1C445.1,321.2,443.3,319.8,441.3,319.8L441.3,319.8z"></path><path class="st1" d="M402.2,213.1L384,226.9c-0.1,0.1-0.2,0.1-0.4,0.1c-0.2,0-0.4-0.1-0.5-0.2c-0.2-0.3-0.2-0.7,0.1-0.9l18.2-13.8
		c0.3-0.2,0.7-0.2,0.9,0.1c0,0,0,0,0,0C402.6,212.5,402.5,212.9,402.2,213.1C402.2,213.1,402.2,213.1,402.2,213.1z"></path><path class="st1" d="M385.2,266.2c-0.2-0.3-0.2-0.7,0.1-0.9l79-62.7c0.3-0.2,0.7-0.2,0.9,0c0.2,0.3,0.2,0.7,0,0.9
		c0,0-0.1,0.1-0.1,0.1l-79,62.7c-0.1,0.1-0.2,0.1-0.4,0.1C385.5,266.4,385.3,266.3,385.2,266.2z"></path><path class="st1" d="M428.7,271c-0.2-0.3-0.2-0.7,0.1-0.9c0,0,0,0,0,0l47-36.2c0.3-0.2,0.7-0.2,0.9,0.1c0.2,0.3,0.2,0.7-0.1,0.9
		l-47,36.2c-0.1,0.1-0.2,0.1-0.4,0.1C429,271.3,428.8,271.2,428.7,271z"></path><path class="st1" d="M481.2,190.6v6.7H358.8v83.1h122.4v6.8H356.6c-0.4,0-0.7,0-1.1-0.1c-2.3-0.5-3.9-2.5-3.9-4.9v-86.6
		c0-2.8,2.2-5,5-5L481.2,190.6z"></path><path class="st1" d="M356.6,189.9c-3.1,0-5.7,2.6-5.7,5.7v86.6c0,2.3,1.4,4.4,3.6,5.3c0.3,0.1,0.7,0.2,1,0.3l0,0
		c0.4,0.1,0.8,0.1,1.1,0.1h124.5v-1.4H356.6c-2.4,0-4.3-1.9-4.3-4.3c0,0,0,0,0,0v-86.6c0-2.4,1.9-4.3,4.3-4.3c0,0,0,0,0,0h124.5
		v-1.4L356.6,189.9z"></path><path class="st2" d="M402.2,213.1L384,226.9c-0.1,0.1-0.2,0.1-0.4,0.1c-0.2,0-0.4-0.1-0.5-0.2c-0.2-0.3-0.2-0.7,0.1-0.9l18.2-13.8
		c0.3-0.2,0.7-0.2,0.9,0.1c0,0,0,0,0,0C402.6,212.5,402.5,212.9,402.2,213.1C402.2,213.1,402.2,213.1,402.2,213.1z"></path><path class="st2" d="M465,203.5l-79,62.7c-0.1,0.1-0.2,0.1-0.4,0.1c-0.2,0-0.4-0.1-0.5-0.2c-0.2-0.3-0.2-0.7,0.1-0.9l79-62.7
		c0.3-0.2,0.7-0.2,0.9,0C465.4,202.8,465.4,203.2,465,203.5C465.1,203.5,465.1,203.5,465,203.5L465,203.5z"></path><path class="st2" d="M476.8,234c0.2,0.3,0.2,0.7-0.1,0.9l-47,36.2c-0.1,0.1-0.2,0.1-0.4,0.1c-0.2,0-0.4-0.1-0.5-0.2
		c-0.2-0.3-0.2-0.7,0.1-0.9c0,0,0,0,0,0l47-36.2C476.2,233.7,476.6,233.7,476.8,234z"></path><path class="st0" d="M465,203.5l-79,62.7c-0.1,0.1-0.2,0.1-0.4,0.1c-0.2,0-0.4-0.1-0.5-0.2c-0.2-0.3-0.2-0.7,0.1-0.9l79-62.7
		c0.3-0.2,0.7-0.2,0.9,0C465.4,202.8,465.4,203.2,465,203.5C465.1,203.5,465.1,203.5,465,203.5L465,203.5z"></path><path class="st0" d="M476.7,234.9l-47,36.2c-0.1,0.1-0.2,0.1-0.4,0.1c-0.2,0-0.4-0.1-0.5-0.2c-0.2-0.3-0.2-0.7,0.1-0.9c0,0,0,0,0,0
		l47-36.2c0.3-0.2,0.7-0.2,0.9,0.1C477,234.3,476.9,234.7,476.7,234.9z"></path><path class="st0" d="M402.2,213.1L384,226.9c-0.1,0.1-0.2,0.1-0.4,0.1c-0.2,0-0.4-0.1-0.5-0.2c-0.2-0.3-0.2-0.7,0.1-0.9l18.2-13.8
		c0.3-0.2,0.7-0.2,0.9,0.1c0,0,0,0,0,0C402.6,212.5,402.5,212.9,402.2,213.1C402.2,213.1,402.2,213.1,402.2,213.1z"></path></g><g id="Desk"><path class="st1" d="M345.5,307.5l-0.2,0.7l-0.2,0.7h-88.8c-0.1-0.2-0.1-0.5-0.2-0.7s-0.1-0.5-0.2-0.7H345.5z"></path></g><g id="graphics"><path class="st0" d="M338.3,165h-32c-0.8,0-1.4-0.6-1.4-1.4c0-0.8,0.6-1.4,1.4-1.4h32c0.8,0,1.4,0.6,1.4,1.4
		C339.7,164.4,339.1,165,338.3,165z"></path><path class="st0" d="M386.7,165h-32c-0.8,0-1.4-0.6-1.4-1.4c0-0.8,0.6-1.4,1.4-1.4h32c0.8,0,1.4,0.6,1.4,1.4
		C388.1,164.4,387.5,165,386.7,165z"></path><path class="st0" d="M435,165h-32c-0.8,0-1.4-0.6-1.4-1.4c0-0.8,0.6-1.4,1.4-1.4h32c0.8,0,1.4,0.6,1.4,1.4
		C436.4,164.4,435.8,165,435,165z"></path></g><g id="line_of_Text"><path class="st3" d="M172,236.2H49.1c-3.5,0-6.3-2.8-6.3-6.3s2.8-6.3,6.3-6.3H172c3.5,0,6.3,2.8,6.3,6.3S175.5,236.2,172,236.2
		L172,236.2z"></path><path class="st3" d="M189.1,263.4h-140c-3.5,0-6.3-2.8-6.3-6.3c0-3.5,2.8-6.3,6.3-6.3h140c3.5,0,6.3,2.8,6.3,6.3
		C195.4,260.6,192.6,263.4,189.1,263.4L189.1,263.4z"></path><path class="st3" d="M143.2,290.9H49.1c-0.4,0-0.7-0.3-0.7-0.7c0-0.4,0.3-0.7,0.7-0.7h94.1c0.4,0,0.7,0.3,0.7,0.7
		C143.9,290.6,143.6,290.9,143.2,290.9C143.2,290.9,143.2,290.9,143.2,290.9L143.2,290.9z"></path><path class="st3" d="M128.2,307.4H49.1c-0.4,0-0.7-0.3-0.7-0.7c0-0.4,0.3-0.7,0.7-0.7h79.1c0.4,0,0.7,0.3,0.7,0.7
		C128.9,307,128.6,307.3,128.2,307.4z"></path><path class="st3" d="M120.6,165h-32c-0.8,0-1.4-0.6-1.4-1.4c0-0.8,0.6-1.4,1.4-1.4l0,0h32c0.8,0,1.4,0.6,1.4,1.4
		C122,164.4,121.4,165,120.6,165z"></path><circle class="st3" cx="59.8" cy="164.8" r="10.7"></circle></g><g id="Plant"><path class="st1" d="M298.4,259.6c0.2-2.5-0.4-5-1.5-7.2c-1-1.6-2.4-2.9-3.2-4.6c-1.4-2.9-0.4-6.4-0.7-9.6
		c-0.3-2.7-1.5-5.2-3.4-7.1c-1.7-1.7-3.8-2.9-5.4-4.6c-2.6-2.9-3.4-7-4.9-10.6c-2.1-5.1-5.8-9.4-10.5-12.4
		c2.9,5.8-3.7,13.1-0.7,18.8c0.9,1.8,2.7,3.1,3.4,5.1c1.7,4.6-3.9,9.6-2.1,14.2c0.9,2.3,3.4,3.6,4.5,5.8c1.5,2.9,0.3,6.5,0.5,9.8
		c0.2,4.6,3,8.7,6.3,11.8c2.1,2,4.4,3.7,6.6,5.5c2.7,2.1,3.8,4.4,6.1,1C296.5,270.9,298.3,265.3,298.4,259.6z"></path><path class="st1" d="M301.4,262.2c-0.9-3.5-1.5-7.4,0-10.7c1.6-3.8,5.7-6.4,6.2-10.5c0.3-2.7-1-5.4-0.5-8s2.7-4.4,4.5-6.4
		c4.1-4.5,6.5-10.3,6.9-16.4c2.6,3.4,5.2,6.9,6.6,10.9s1.4,8.8-1,12.3c-0.7,0.8-1.2,1.7-1.7,2.7c-0.8,2.6,1.4,5,2.6,7.5
		c1.4,2.9,1.1,6.3-0.8,8.9c-2.3,2.9-6.9,4-8,7.6c-0.3,1.3-0.4,2.7-0.4,4c-0.5,4.8-3.9,8.8-8.5,10.1c-2.8,0.7-2.7-0.4-3.2-2.8
		C303.3,268.4,302.1,265.4,301.4,262.2z"></path><path class="st1" d="M292.6,236.8c-2-6.8-2.8-13.9-4.8-20.7c-1.8-5.3-3.9-10.4-6.4-15.4l8.4,3.6c2.7,1.1,5.6,2.5,6.9,5.1
		c2.2,4.6-1.8,10.5,0.6,15c0.8,1.6,2.3,2.7,3.3,4.2c2.5,3.5,2.1,8.3,0.7,12.3c-0.6,1.7-3.1,10.8-5.4,8.2c-0.9-1-1-4.7-1.4-6.1
		C293.9,241,293.2,238.9,292.6,236.8z"></path><path class="st1" d="M297.2,327.1c-1.7-11.1-6.9-50.3-7-50.7l1.4-0.2c0,0.4,5.3,39.5,7,50.6L297.2,327.1z"></path><path class="st1" d="M301.1,311.8l-1.3-0.4c1.8-5.4,2-11.3,2.3-17.5c0.3-7.9,0.6-16,4.4-23.2l1.2,0.6c-3.6,6.9-3.9,14.9-4.2,22.6
		C303.2,299.9,302.9,306.2,301.1,311.8z"></path><path class="st1" d="M300.5,311.7c-1-10.2-1.5-20.3-2.1-30c-0.6-11.5-1.3-23.5-2.7-35.5l1.4-0.2c1.4,12,2,24,2.7,35.6
		c0.5,9.7,1.1,19.7,2,29.9L300.5,311.7z"></path><path class="st0" d="M282.7,287.4h31.4l-2.4,35.4c-0.2,3.5-3.1,6.2-6.6,6.2h-13.3c-3.5,0-6.4-2.7-6.6-6.2L282.7,287.4z"></path><path class="st1" d="M305.1,329.7h-13.3c-3.8,0-7-3-7.3-6.8l-2.5-35.4c0-0.2,0.1-0.4,0.2-0.5c0.1-0.1,0.3-0.2,0.5-0.2h31.4
		c0.2,0,0.4,0.1,0.5,0.2c0.1,0.1,0.2,0.3,0.2,0.5l-2.4,35.4C312.1,326.7,308.9,329.6,305.1,329.7z M283.5,288.1l2.4,34.6
		c0.2,3.1,2.8,5.5,5.9,5.5h13.3c3.1,0,5.7-2.4,5.9-5.5l2.4-34.6H283.5z"></path></g><path class="st2" id="Button" d="M56.4,329.1h87.2c4,0,7.3,3.3,7.3,7.3v5.8c0,4-3.3,7.3-7.3,7.3H56.4c-4,0-7.3-3.3-7.3-7.3v-5.8
	C49.1,332.4,52.4,329.1,56.4,329.1z"></path></svg>